<svg xmlns="http://www.w3.org/2000/svg" width="201.031" height="193.031" viewBox="0 0 201.031 193.031"><g transform="translate(-86.984 -253.252)"><g transform="translate(-9910.795 -4601.546)"><g transform="translate(9997.779 4854.798)" fill="#29fd2e" opacity="0.692"><path d="M 100.515495300293 192.0309906005859 C 93.76020812988281 192.0309906005859 87.009521484375 191.3775787353516 80.45092010498047 190.0889129638672 C 74.05986022949219 188.8331604003906 67.77354431152344 186.9594421386719 61.7666015625 184.5198364257812 C 55.86912536621094 182.1246795654297 50.18109893798828 179.1601867675781 44.86054611206055 175.7087249755859 C 39.59102249145508 172.2903594970703 34.63591766357422 168.3647613525391 30.13291549682617 164.0409393310547 C 25.63059997558594 159.7178039550781 21.54323196411133 154.9610443115234 17.98431015014648 149.9028167724609 C 14.39199542999268 144.7970733642578 11.30670547485352 139.3391265869141 8.814153671264648 133.6805725097656 C 6.275916576385498 127.9183349609375 4.326548099517822 121.8884201049805 3.020153284072876 115.7583084106445 C 1.6796795129776 109.46826171875 0.9999952912330627 102.9940185546875 0.9999952912330627 96.51549530029297 C 0.9999952912330627 90.03697204589844 1.6796795129776 83.56275939941406 3.020153284072876 77.27268218994141 C 4.326548099517822 71.14257049560547 6.275916576385498 65.11265563964844 8.814153671264648 59.35041809082031 C 11.30670547485352 53.69186401367188 14.39199542999268 48.23391723632812 17.98431015014648 43.12820434570312 C 21.54323196411133 38.06994247436523 25.63059997558594 33.31317901611328 30.13291549682617 28.99004745483398 C 34.63591766357422 24.66623306274414 39.59102249145508 20.74062728881836 44.86054611206055 17.32225799560547 C 50.18109893798828 13.87081146240234 55.86912536621094 10.90631103515625 61.7666015625 8.51117992401123 C 67.77354431152344 6.071547985076904 74.05986022949219 4.197837352752686 80.45092010498047 2.942074298858643 C 87.009521484375 1.653416395187378 93.76020812988281 0.9999952912330627 100.515495300293 0.9999952912330627 C 107.2707824707031 0.9999952912330627 114.0214691162109 1.653416395187378 120.5800704956055 2.942074298858643 C 126.9711303710938 4.197837352752686 133.2574462890625 6.071547985076904 139.2643890380859 8.51117992401123 C 145.161865234375 10.90631103515625 150.8498840332031 13.87081146240234 156.1704406738281 17.32225799560547 C 161.4399719238281 20.74062728881836 166.3950805664062 24.66623306274414 170.8980712890625 28.99004745483398 C 175.400390625 33.31317901611328 179.4877624511719 38.06994247436523 183.0466766357422 43.12820434570312 C 186.6389923095703 48.23391723632812 189.7242889404297 53.69186401367188 192.2168426513672 59.35041809082031 C 194.7550811767578 65.11265563964844 196.7044372558594 71.14257049560547 198.0108337402344 77.27268218994141 C 199.351318359375 83.56275939941406 200.0309906005859 90.03697204589844 200.0309906005859 96.51549530029297 C 200.0309906005859 102.9940185546875 199.351318359375 109.46826171875 198.0108337402344 115.7583084106445 C 196.7044372558594 121.8884201049805 194.7550811767578 127.9183349609375 192.2168426513672 133.6805725097656 C 189.7242889404297 139.3391265869141 186.6389923095703 144.7970733642578 183.0466766357422 149.9028167724609 C 179.4877624511719 154.9610443115234 175.400390625 159.7178039550781 170.8980712890625 164.0409393310547 C 166.3950805664062 168.3647613525391 161.4399719238281 172.2903594970703 156.1704406738281 175.7087249755859 C 150.8498840332031 179.1601867675781 145.161865234375 182.1246795654297 139.2643890380859 184.5198364257812 C 133.2574462890625 186.9594421386719 126.9711303710938 188.8331604003906 120.5800704956055 190.0889129638672 C 114.0214691162109 191.3775787353516 107.2707824707031 192.0309906005859 100.515495300293 192.0309906005859 Z" stroke="none"/><path d="M 100.515495300293 2 C 93.82478332519531 2 87.13896942138672 2.6470947265625 80.64370727539062 3.923309326171875 C 74.31528472900391 5.166778564453125 68.0906982421875 7.022079467773438 62.14288330078125 9.43768310546875 C 56.30389404296875 11.80906677246094 50.67239379882812 14.74409484863281 45.40475463867188 18.16120910644531 C 40.18818664550781 21.54521179199219 35.28302001953125 25.43122863769531 30.82551574707031 29.71136474609375 C 26.36944580078125 33.99009704589844 22.32420349121094 38.69778442382812 18.80215454101562 43.70359802246094 C 15.24781799316406 48.75538635253906 12.19525146484375 54.15536499023438 9.729278564453125 59.75355529785156 C 7.21856689453125 65.45330810546875 5.290359497070312 71.41773223876953 3.998184204101562 77.48110198974609 C 2.672286987304688 83.70278167724609 2 90.10688781738281 2 96.51549530029297 C 2 102.9241027832031 2.672286987304688 109.3282089233398 3.998184204101562 115.5498886108398 C 5.290359497070312 121.6132583618164 7.21856689453125 127.5776824951172 9.729278564453125 133.2774353027344 C 12.19525146484375 138.8756256103516 15.24781799316406 144.2756042480469 18.80215454101562 149.327392578125 C 22.32420349121094 154.3332061767578 26.36944580078125 159.0408935546875 30.82551574707031 163.3196258544922 C 35.28302001953125 167.5997619628906 40.18818664550781 171.4857788085938 45.40475463867188 174.8697814941406 C 50.67239379882812 178.2868957519531 56.30389404296875 181.221923828125 62.14288330078125 183.5933074951172 C 68.0906982421875 186.0089111328125 74.31528472900391 187.8642120361328 80.64370727539062 189.1076812744141 C 87.13896942138672 190.3838958740234 93.82478332519531 191.0309906005859 100.515495300293 191.0309906005859 C 107.2062072753906 191.0309906005859 113.8920211791992 190.3838958740234 120.3872833251953 189.1076812744141 C 126.715705871582 187.8642120361328 132.9402770996094 186.0089111328125 138.8880920410156 183.5933074951172 C 144.7270965576172 181.221923828125 150.3585968017578 178.2868957519531 155.6262359619141 174.8697814941406 C 160.8428039550781 171.4857788085938 165.7479705810547 167.5997619628906 170.2054748535156 163.3196258544922 C 174.6615447998047 159.0408935546875 178.706787109375 154.3332061767578 182.2288360595703 149.327392578125 C 185.7831726074219 144.2756042480469 188.8357391357422 138.8756256103516 191.3017120361328 133.2774353027344 C 193.8124237060547 127.5776824951172 195.7406311035156 121.6132583618164 197.0328063964844 115.5498886108398 C 198.3587036132812 109.3282089233398 199.0309906005859 102.9241027832031 199.0309906005859 96.51549530029297 C 199.0309906005859 90.10688781738281 198.3587036132812 83.70278167724609 197.0328063964844 77.48110198974609 C 195.7406311035156 71.41773223876953 193.8124237060547 65.45330810546875 191.3017120361328 59.75355529785156 C 188.8357391357422 54.15536499023438 185.7831726074219 48.75538635253906 182.2288360595703 43.70359802246094 C 178.706787109375 38.69778442382812 174.6615447998047 33.99009704589844 170.2054748535156 29.71136474609375 C 165.7479705810547 25.43122863769531 160.8428039550781 21.54521179199219 155.6262359619141 18.16120910644531 C 150.3585968017578 14.74409484863281 144.7270965576172 11.80906677246094 138.8880920410156 9.43768310546875 C 132.9402770996094 7.022079467773438 126.715705871582 5.166778564453125 120.3872833251953 3.923309326171875 C 113.8920211791992 2.6470947265625 107.2062072753906 2 100.515495300293 2 M 100.515495300293 0 C 156.0286865234375 0 201.0309906005859 43.21144104003906 201.0309906005859 96.51549530029297 C 201.0309906005859 149.8195495605469 156.0286865234375 193.0309906005859 100.515495300293 193.0309906005859 C 45.00230407714844 193.0309906005859 0 149.8195495605469 0 96.51549530029297 C 0 43.21144104003906 45.00230407714844 0 100.515495300293 0 Z" stroke="none" fill="#000"/></g><g transform="translate(10016.434 4873.453)" fill="#fca027"><path d="M 81.86125183105469 154.7224884033203 C 70.93852233886719 154.7224884033203 60.34346008300781 152.6881561279297 50.37039947509766 148.6760406494141 C 45.57802200317383 146.7480773925781 40.95589828491211 144.3618621826172 36.63243865966797 141.5837249755859 C 32.35073089599609 138.8323974609375 28.32456398010254 135.6728668212891 24.66579437255859 132.19287109375 C 21.00789833068848 128.7137298583984 17.68718910217285 124.8857040405273 14.79589748382568 120.8151168823242 C 11.87773132324219 116.7067413330078 9.371501922607422 112.315055847168 7.346793651580811 107.7620391845703 C 5.285168647766113 103.1259536743164 3.701835155487061 98.27457427978516 2.640772581100464 93.34268188476562 C 1.552043557167053 88.28215789794922 1.000001788139343 83.07345581054688 1.000001788139343 77.86124420166016 C 1.000001788139343 72.64903259277344 1.552043557167053 67.44033050537109 2.640772581100464 62.37982940673828 C 3.701835155487061 57.44791030883789 5.285168647766113 52.59653472900391 7.346793651580811 47.96047210693359 C 9.371501922607422 43.40745162963867 11.87773132324219 39.01574325561523 14.79589748382568 34.90736770629883 C 17.68718910217285 30.83680725097656 21.00789833068848 27.00876426696777 24.66579437255859 23.52961921691895 C 28.32456398010254 20.04964065551758 32.35073089599609 16.89009857177734 36.63243865966797 14.13876533508301 C 40.95589828491211 11.36061954498291 45.57802200317383 8.974411010742188 50.37039947509766 7.046452522277832 C 60.34346008300781 3.034327507019043 70.93852233886719 0.9999942183494568 81.86125183105469 0.9999942183494568 C 92.78398132324219 0.9999942183494568 103.3790435791016 3.034327507019043 113.3521270751953 7.046452522277832 C 118.1445007324219 8.974411010742188 122.7666091918945 11.36061954498291 127.0900650024414 14.13876533508301 C 131.3717956542969 16.89009857177734 135.3979644775391 20.04964065551758 139.0567169189453 23.52961921691895 C 142.714599609375 27.00876426696777 146.0353088378906 30.83680725097656 148.9266204833984 34.90736770629883 C 151.8447723388672 39.01574325561523 154.3510284423828 43.40745162963867 156.3757171630859 47.96047210693359 C 158.4373321533203 52.59653472900391 160.0206909179688 57.44791030883789 161.0817565917969 62.37982940673828 C 162.1704559326172 67.44033050537109 162.7225036621094 72.64903259277344 162.7225036621094 77.86124420166016 C 162.7225036621094 83.07345581054688 162.1704559326172 88.28215789794922 161.0817565917969 93.34268188476562 C 160.0206909179688 98.27457427978516 158.4373321533203 103.1259536743164 156.3757171630859 107.7620391845703 C 154.3510284423828 112.315055847168 151.8447723388672 116.7067413330078 148.9266204833984 120.8151168823242 C 146.0353088378906 124.8857040405273 142.714599609375 128.7137298583984 139.0567169189453 132.19287109375 C 135.3979644775391 135.6728668212891 131.3717956542969 138.8323974609375 127.0900650024414 141.5837249755859 C 122.7666091918945 144.3618621826172 118.1445007324219 146.7480773925781 113.3521270751953 148.6760406494141 C 103.3790435791016 152.6881561279297 92.78398132324219 154.7224884033203 81.86125183105469 154.7224884033203 Z" stroke="none"/><path d="M 81.86125183105469 2 C 71.06699371337891 2 60.59751129150391 4.010025024414062 50.74362182617188 7.974197387695312 C 46.00946807861328 9.878738403320312 41.44366455078125 12.23585510253906 37.17303466796875 14.98004150390625 C 32.94427490234375 17.69735717773438 28.96809387207031 20.81761169433594 25.35496520996094 24.25422668457031 C 21.74357604980469 27.68913269042969 18.46530151367188 31.46820068359375 15.61114501953125 35.48645782470703 C 12.73138427734375 39.54078674316406 10.25827026367188 43.87435150146484 8.260513305664062 48.36679077148438 C 6.226821899414062 52.94002532958984 4.664993286132812 57.7254638671875 3.618377685546875 62.59015655517578 C 2.54449462890625 67.58165740966797 1.999984741210938 72.71961212158203 1.999984741210938 77.86124420166016 C 1.999984741210938 83.00289916992188 2.54449462890625 88.14083099365234 3.618377685546875 93.13235473632812 C 4.664993286132812 97.99702453613281 6.226821899414062 102.7824630737305 8.260513305664062 107.3556976318359 C 10.25827026367188 111.8481369018555 12.73138427734375 116.1817169189453 15.61114501953125 120.2360534667969 C 18.46530151367188 124.2542877197266 21.74357604980469 128.0333557128906 25.35496520996094 131.4682922363281 C 28.96809387207031 134.9048767089844 32.94427490234375 138.0251617431641 37.17303466796875 140.7424468994141 C 41.44366455078125 143.4866638183594 46.00946807861328 145.8437652587891 50.74362182617188 147.748291015625 C 60.59751129150391 151.7124633789062 71.06699371337891 153.7224884033203 81.86125183105469 153.7224884033203 C 92.65550994873047 153.7224884033203 103.1249923706055 151.7124633789062 112.9788818359375 147.748291015625 C 117.7130126953125 145.8437652587891 122.2788162231445 143.4866638183594 126.5494689941406 140.7424468994141 C 130.7782287597656 138.0251617431641 134.7543792724609 134.9048767089844 138.3675384521484 131.4682922363281 C 141.9789123535156 128.0333557128906 145.2572021484375 124.2542877197266 148.1113433837891 120.2360534667969 C 150.9911041259766 116.1817169189453 153.4642028808594 111.8481369018555 155.4619750976562 107.3556976318359 C 157.4956665039062 102.7824630737305 159.0574951171875 97.99702453613281 160.1040954589844 93.13235473632812 C 161.1779937744141 88.14083099365234 161.7224884033203 83.00289916992188 161.7224884033203 77.86124420166016 C 161.7224884033203 72.71961212158203 161.1779937744141 67.58165740966797 160.1040954589844 62.59015655517578 C 159.0574951171875 57.7254638671875 157.4956665039062 52.94002532958984 155.4619750976562 48.36679077148438 C 153.4642028808594 43.87435150146484 150.9911041259766 39.54078674316406 148.1113433837891 35.48645782470703 C 145.2572021484375 31.46820068359375 141.9789123535156 27.68913269042969 138.3675384521484 24.25422668457031 C 134.7543792724609 20.81761169433594 130.7782135009766 17.69735717773438 126.5494689941406 14.98004150390625 C 122.2788162231445 12.23585510253906 117.7130126953125 9.878738403320312 112.9788818359375 7.974197387695312 C 103.1249923706055 4.010025024414062 92.65550994873047 2 81.86125183105469 2 M 81.86125183105469 0 C 127.0719680786133 0 163.7224884033203 34.85968017578125 163.7224884033203 77.86124420166016 C 163.7224884033203 120.8628311157227 127.0719680786133 155.7224884033203 81.86125183105469 155.7224884033203 C 36.65053558349609 155.7224884033203 -1.52587890625e-05 120.8628311157227 -1.52587890625e-05 77.86124420166016 C -1.52587890625e-05 34.85968017578125 36.65053558349609 0 81.86125183105469 0 Z" stroke="none" fill="#000"/></g><g transform="translate(10037.521 4894.54)" fill="#fff" opacity="0.995"><path d="M 60.77383041381836 112.5476608276367 C 52.69574737548828 112.5476608276367 44.86039733886719 111.0701065063477 37.48539733886719 108.1560592651367 C 33.94206237792969 106.7559967041016 30.52473068237305 105.0232467651367 27.32831382751465 103.0059127807617 C 24.16324615478516 101.0083770751953 21.18721389770508 98.71457672119141 18.48287963867188 96.18824005126953 C 15.77976417541504 93.66302490234375 13.32591342926025 90.88475799560547 11.18951416015625 87.93061065673828 C 9.033780097961426 84.94970703125 7.182430267333984 81.76344299316406 5.686880588531494 78.46031188964844 C 2.576897144317627 71.59140777587891 0.999997079372406 64.29502868652344 0.999997079372406 56.77382659912109 C 0.999997079372406 49.25262832641602 2.576897144317627 41.95624160766602 5.686880588531494 35.08734512329102 C 7.182430267333984 31.78421020507812 9.033780097961426 28.59794235229492 11.18951416015625 25.61704254150391 C 13.32591342926025 22.66291046142578 15.77976417541504 19.8846435546875 18.48287963867188 17.35942649841309 C 21.18721389770508 14.83307647705078 24.16324615478516 12.53929328918457 27.32831382751465 10.54174327850342 C 30.52473068237305 8.524426460266113 33.94206237792969 6.791659832000732 37.48539733886719 5.391610145568848 C 44.86039733886719 2.477560043334961 52.69574737548828 1.000009894371033 60.77383041381836 1.000009894371033 C 68.85189819335938 1.000009894371033 76.68726348876953 2.477560043334961 84.06226348876953 5.391610145568848 C 87.60559844970703 6.791659832000732 91.02293395996094 8.524426460266113 94.21932983398438 10.54174327850342 C 97.3843994140625 12.53929328918457 100.3604278564453 14.83307647705078 103.0647659301758 17.35942649841309 C 105.7678985595703 19.8846435546875 108.2217483520508 22.66291046142578 110.3581314086914 25.61704254150391 C 112.5138778686523 28.59794235229492 114.3652267456055 31.78421020507812 115.8607788085938 35.08734512329102 C 118.9707641601562 41.95624160766602 120.5476608276367 49.25262832641602 120.5476608276367 56.77382659912109 C 120.5476608276367 64.29502868652344 118.9707641601562 71.59140777587891 115.8607788085938 78.46031188964844 C 114.3652267456055 81.76344299316406 112.5138778686523 84.94970703125 110.3581314086914 87.93061065673828 C 108.2217483520508 90.88475799560547 105.7678985595703 93.66302490234375 103.0647659301758 96.18824005126953 C 100.3604278564453 98.71457672119141 97.3843994140625 101.0083770751953 94.21932983398438 103.0059127807617 C 91.02293395996094 105.0232467651367 87.60559844970703 106.7559967041016 84.06226348876953 108.1560592651367 C 76.68726348876953 111.0701065063477 68.85189819335938 112.5476608276367 60.77383041381836 112.5476608276367 Z" stroke="none"/><path d="M 60.77383041381836 1.999992370605469 C 52.82209777832031 1.999992370605469 45.11038208007812 3.453994750976562 37.85288238525391 6.321624755859375 C 34.36733245849609 7.698860168457031 31.00592803955078 9.403228759765625 27.86204528808594 11.38739013671875 C 24.74997711181641 13.35147857666016 21.82406616210938 15.60661315917969 19.16555023193359 18.09015655517578 C 16.50942993164062 20.57145690917969 14.09853363037109 23.301025390625 11.99983215332031 26.20304107666016 C 9.88330078125 29.12973022460938 8.065811157226562 32.25760650634766 6.597862243652344 35.49980926513672 C 3.546943664550781 42.23822784423828 2 49.39584350585938 2 56.77382659912109 C 2 64.15180969238281 3.546943664550781 71.30941009521484 6.597862243652344 78.04784393310547 C 8.065811157226562 81.29002380371094 9.88330078125 84.41790771484375 11.99983215332031 87.34458923339844 C 14.09853363037109 90.24661254882812 16.50942993164062 92.97618103027344 19.16555023193359 95.45747375488281 C 21.82406616210938 97.94102478027344 24.74997711181641 100.196159362793 27.86204528808594 102.1602401733398 C 31.00591278076172 104.1444091796875 34.36733245849609 105.8487777709961 37.85288238525391 107.2260131835938 C 45.11038208007812 110.0936431884766 52.82209777832031 111.5476455688477 60.77383041381836 111.5476455688477 C 68.72556304931641 111.5476455688477 76.43727874755859 110.0936431884766 83.69477844238281 107.2260131835938 C 87.18032836914062 105.8487777709961 90.541748046875 104.1444091796875 93.68561553955078 102.1602401733398 C 96.79768371582031 100.196159362793 99.72359466552734 97.94102478027344 102.3821105957031 95.45747375488281 C 105.0382308959961 92.97618103027344 107.4491271972656 90.24661254882812 109.5478286743164 87.34458923339844 C 111.6643676757812 84.41790771484375 113.4818496704102 81.29002380371094 114.9497985839844 78.04784393310547 C 118.0007171630859 71.30941009521484 119.5476608276367 64.15180969238281 119.5476608276367 56.77382659912109 C 119.5476608276367 49.39584350585938 118.0007171630859 42.23822784423828 114.9497985839844 35.49980926513672 C 113.4818496704102 32.25760650634766 111.6643676757812 29.12973022460938 109.5478286743164 26.20304107666016 C 107.4491271972656 23.301025390625 105.0382308959961 20.57145690917969 102.3821105957031 18.09015655517578 C 99.72359466552734 15.60661315917969 96.79768371582031 13.35147857666016 93.68561553955078 11.38739013671875 C 90.54173278808594 9.403228759765625 87.18032836914062 7.698860168457031 83.69477844238281 6.321624755859375 C 76.43727874755859 3.453994750976562 68.72556304931641 1.999992370605469 60.77383041381836 1.999992370605469 M 60.77383041381836 -7.62939453125e-06 C 94.33827972412109 -7.62939453125e-06 121.5476608276367 25.41851043701172 121.5476608276367 56.77382659912109 C 121.5476608276367 88.12912750244141 94.33827972412109 113.5476455688477 60.77383041381836 113.5476455688477 C 27.20938110351562 113.5476455688477 0 88.12912750244141 0 56.77382659912109 C 0 25.41851043701172 27.20938110351562 -7.62939453125e-06 60.77383041381836 -7.62939453125e-06 Z" stroke="none" fill="#000"/></g></g></g></svg>