<svg id="Background_orange_referrals" xmlns="http://www.w3.org/2000/svg" xmlns:xlink="http://www.w3.org/1999/xlink" width="674" height="381" viewBox="0 0 674 381">
  <defs>
    <clipPath id="clip-path">
      <rect id="Rectángulo_98" data-name="Rectángulo 98" width="674" height="381" transform="translate(-0.156 0.302)" fill="#fff" stroke="#707070" stroke-width="1"/>
    </clipPath>
    <linearGradient id="linear-gradient" x1="0.732" y1="-0.179" x2="0.025" y2="0.983" gradientUnits="objectBoundingBox">
      <stop offset="0" stop-color="#ff4d00"/>
      <stop offset="1" stop-color="#ff971a"/>
    </linearGradient>
    <clipPath id="clip-path-2">
      <rect id="Rectángulo_94" data-name="Rectángulo 94" width="678.931" height="415.406" fill="none"/>
    </clipPath>
    <clipPath id="clip-path-3">
      <rect id="Rectángulo_93" data-name="Rectángulo 93" width="568.058" height="696.325" transform="translate(0 568.058) rotate(-90)" fill="none"/>
    </clipPath>
  </defs>
  <g id="Enmascarar_grupo_10" data-name="Enmascarar grupo 10" transform="translate(0.156 -0.302)" clip-path="url(#clip-path)">
    <g id="img_background_orange_responsive" transform="translate(-3.116 -0.023)">
      <rect id="Rectángulo_91" data-name="Rectángulo 91" width="680.197" height="415.406" fill="url(#linear-gradient)"/>
      <g id="Grupo_65" data-name="Grupo 65" transform="translate(1.266)" clip-path="url(#clip-path-2)">
        <g id="Grupo_64" data-name="Grupo 64" transform="translate(-1.959 -136.905)" clip-path="url(#clip-path-3)">
          <g id="Grupo_62" data-name="Grupo 62" transform="translate(-338.744 189.365)" opacity="0.2">
            <path id="Trazado_21" data-name="Trazado 21" d="M523.9,317.616,427.84,232.954l32.4-100.014a5.686,5.686,0,0,0,2.789.044L525.56,316.449a5.782,5.782,0,0,0-1.661,1.189Z" transform="translate(482.96 -29.51)" fill="none"/>
            <path id="Trazado_22" data-name="Trazado 22" d="M431.629,170.314l2.938,87.063a4.77,4.77,0,0,0-1.171.286,6.043,6.043,0,0,0-3.406,3.039l-30.87-14.955,31.04-75.7a5.441,5.441,0,0,0,1.469.286Z" transform="translate(450.536 15.113)" fill="none"/>
            <path id="Trazado_23" data-name="Trazado 23" d="M383.912,287.962a6.4,6.4,0,0,0-.319-2.092,5.9,5.9,0,0,0-1.043-1.916l67.872-69.223a5.621,5.621,0,0,0,1.256.749l-23.866,77.593-43.921-5.088Z" transform="translate(431.829 68.839)" fill="none"/>
            <path id="Trazado_24" data-name="Trazado 24" d="M452.613,285.232a6.378,6.378,0,0,0-1.086,3.634l-53.884,5.991-83.392,9.294-.064-.264a6.186,6.186,0,0,0-2.086-2.973l59.441-86.953,81.093,71.25Z" transform="translate(352.292 67.913)" fill="none"/>
            <path id="Trazado_25" data-name="Trazado 25" d="M418.07,216.246a6.273,6.273,0,0,0,1.7-3.216l113.347,12.6a6.363,6.363,0,0,0,.319,2.07c.064.2.149.4.234.595L460.99,271.659l-42.92-55.436Z" transform="translate(471.93 66.795)" fill="none"/>
            <path id="Trazado_26" data-name="Trazado 26" d="M472.036,133l-32.275,99.617-22.5-19.822a6.329,6.329,0,0,0-.788-8.039l21.077-27.8,33.68-44.4a5.706,5.706,0,0,0,.788.463Z" transform="translate(470.124 -29.967)" fill="none"/>
            <path id="Trazado_27" data-name="Trazado 27" d="M534.162,265.569l-113.347-12.6a6.363,6.363,0,0,0-.319-2.07,6.047,6.047,0,0,0-3.236-3.656L439.4,178.88l95.74,84.376a6.613,6.613,0,0,0-.979,2.335Z" transform="translate(471.016 25.731)" fill="none"/>
            <path id="Trazado_28" data-name="Trazado 28" d="M417.267,215.515a6.19,6.19,0,0,0,1.362-.7l42.814,55.3-37.832,22.575a5.86,5.86,0,0,0-4.833-2.6l-1.959-74.443Z" transform="translate(470.519 68.935)" fill="none"/>
            <path id="Trazado_29" data-name="Trazado 29" d="M340.786,193.146l-3.96,131.993v.066a6.187,6.187,0,0,0-1.384.286,6.006,6.006,0,0,0-2.831,2.092L286.54,301.309,339.317,192.75a5.4,5.4,0,0,0,1.448.374Z" transform="translate(323.436 42.409)" fill="none"/>
            <path id="Trazado_30" data-name="Trazado 30" d="M475.37,308.795a6.19,6.19,0,0,0-1.363.7L438.56,263.71l72.534-43.3a6.136,6.136,0,0,0,2.108,1.916l-34.17,86.424A5.791,5.791,0,0,0,475.37,308.795Z" transform="translate(495.063 75.669)" fill="none"/>
            <path id="Trazado_31" data-name="Trazado 31" d="M449.251,219.857a6.348,6.348,0,0,0,.064,3.722,6.007,6.007,0,0,0,1.043,1.938l-67.638,69.421a6.372,6.372,0,0,0-1-.7l36.64-89.354,30.892,14.977Z" transform="translate(430.892 56.995)" fill="none"/>
            <path id="Trazado_32" data-name="Trazado 32" d="M418.87,258.293a5.033,5.033,0,0,0-.979-.154L416.017,203.3l-1.107-32.2a4.4,4.4,0,0,0,1.15-.286,5.984,5.984,0,0,0,2.235-1.432l22.844,20.131-22.29,68.8Z" transform="translate(468.363 14.308)" fill="none"/>
            <path id="Trazado_33" data-name="Trazado 33" d="M285.224,302.435a5.885,5.885,0,0,0-2.363.308,6.784,6.784,0,0,0-1.32.661L265.85,234.313h0A5.959,5.959,0,0,0,268.809,232l39.642,22.619L285.2,302.435Z" transform="translate(300.077 89.606)" fill="none"/>
            <path id="Trazado_34" data-name="Trazado 34" d="M512.84,197.928a5.93,5.93,0,0,0,1.6,2.533L476.69,251.1l33.6-64.136,3.917,4.691a6.314,6.314,0,0,0-1.341,6.255Z" transform="translate(538.111 35.447)" fill="none"/>
            <path id="Trazado_35" data-name="Trazado 35" d="M496.3,283.38l.319-64.29,53.139-.22a6.414,6.414,0,0,0,.277,1.388,6.568,6.568,0,0,0,1.341,2.291l-52.011,61.977a5.776,5.776,0,0,0-3.087-1.145Z" transform="translate(560.228 73.817)" fill="none"/>
            <path id="Trazado_36" data-name="Trazado 36" d="M511.154,316.9a5.775,5.775,0,0,0-3.811-.308L444.9,133.415l.149-.4a5.61,5.61,0,0,0,.851-.529l99.466,119.043L511.132,316.88Z" transform="translate(502.221 -30.051)" fill="none"/>
            <path id="Trazado_37" data-name="Trazado 37" d="M382.336,189.181l40.876,124.527a6.188,6.188,0,0,0-1.746,1.233L340.31,243.626l37.661-55.105A5.767,5.767,0,0,0,382.336,189.181Z" transform="translate(384.141 37.323)" fill="none"/>
            <path id="Trazado_38" data-name="Trazado 38" d="M573.653,370.366,460.9,315.591a6.349,6.349,0,0,0,.043-4.075,6.049,6.049,0,0,0-2.9-3.48l34.17-86.424a5.792,5.792,0,0,0,3.662-.044c.17-.066.319-.132.49-.2l79.134,147.124a5.808,5.808,0,0,0-1.852,1.916Z" transform="translate(517.067 76.823)" fill="none"/>
            <path id="Trazado_39" data-name="Trazado 39" d="M478.67,225.01l33.191,52.507a6.307,6.307,0,0,0-2,5.484Z" transform="translate(540.346 81.2)" fill="none"/>
            <path id="Trazado_40" data-name="Trazado 40" d="M275.48,289.983l23.078-47.463,45.986,26.231a6.462,6.462,0,0,0-.6,3.59l-64.487,21.342A6.03,6.03,0,0,0,275.48,289.983Z" transform="translate(310.949 102.255)" fill="none"/>
            <path id="Trazado_41" data-name="Trazado 41" d="M428.163,215.21a5.118,5.118,0,0,0,1.639.132l1.959,74.355a6.334,6.334,0,0,0-.873.22,6.154,6.154,0,0,0-4.024,5.264l-22.525-2.6,23.8-77.372Z" transform="translate(456.429 69.416)" fill="none"/>
            <path id="Trazado_42" data-name="Trazado 42" d="M420.494,263.588c-.064-.2-.149-.4-.234-.595l37.981-22.663,35.554,45.921a6.454,6.454,0,0,0-1.405,2.158l-71.7-21.672a6.23,6.23,0,0,0-.213-3.171Z" transform="translate(474.403 99.622)" fill="none"/>
            <path id="Trazado_43" data-name="Trazado 43" d="M318.039,249.988a7.227,7.227,0,0,0,.639,1.366L284.039,278.29,212.91,216.973a6.727,6.727,0,0,0,.639-1.233L317.8,246.971a6.2,6.2,0,0,0,.234,3.039Z" transform="translate(240.309 70.054)" fill="none"/>
            <path id="Trazado_44" data-name="Trazado 44" d="M360.115,192.975,307.359,301.49l-39.6-22.575a6.385,6.385,0,0,0,.213-4.537,6.5,6.5,0,0,0-.7-1.454l91.844-80.764a5.127,5.127,0,0,0,1,.815Z" transform="translate(301.68 41.7)" fill="none"/>
            <path id="Trazado_45" data-name="Trazado 45" d="M312.745,326.532a5.6,5.6,0,0,0-2.065-.595L314.64,193.9a6.479,6.479,0,0,0,1.554-.308,6.066,6.066,0,0,0,2.257-1.432l53.821,47.287-59.526,87.085Z" transform="translate(350.689 41.7)" fill="none"/>
            <path id="Trazado_46" data-name="Trazado 46" d="M286.35,234.192l2.384,10.528,13.434,59.114a6.623,6.623,0,0,0-1.3,1.96L246.73,259.1l34.447-26.782a5.869,5.869,0,0,0,5.173,1.872Z" transform="translate(278.491 89.99)" fill="none"/>
            <path id="Trazado_47" data-name="Trazado 47" d="M654.057,327.78a5.629,5.629,0,0,0,.192.815c.043.132.107.264.149.4l-113.538,62.66-67-42.706a6.282,6.282,0,0,0,.66-2.643L654.035,327.78Z" transform="translate(534.916 204.777)" fill="none"/>
            <path id="Trazado_48" data-name="Trazado 48" d="M472.878,339.878a5.908,5.908,0,0,0,2.789-2.048l66.467,42.375-64.21,35.438a5.92,5.92,0,0,0-4.918-2.841l-1.256-72.637a5.235,5.235,0,0,0,1.128-.264Z" transform="translate(532.534 216.862)" fill="none"/>
            <path id="Trazado_49" data-name="Trazado 49" d="M618.814,328.78a5.85,5.85,0,0,0,5.11,2.775L639.635,471.83a3.488,3.488,0,0,0-.681.2,5.906,5.906,0,0,0-2.853,2.136L505.85,391.132Z" transform="translate(571.032 205.98)" fill="none"/>
            <path id="Trazado_50" data-name="Trazado 50" d="M471.022,171.439,440,247.094,362.04,209.322a6.367,6.367,0,0,0,.192-3.524L468.4,168.51a6.032,6.032,0,0,0,2.619,2.907Z" transform="translate(408.674 13.261)" fill="none"/>
            <path id="Trazado_51" data-name="Trazado 51" d="M41.574,340.954A7.082,7.082,0,0,0,40.36,339.9L92.712,234.443a5.845,5.845,0,0,0,4.152.132,5.919,5.919,0,0,0,3.47-3.216l55.077,20.791-113.858,88.8Z" transform="translate(45.504 88.836)" fill="none"/>
            <path id="Trazado_52" data-name="Trazado 52" d="M450.243,254.642a5.323,5.323,0,0,0,.809-.352l35.66,57.947-94.718,82.724a7.059,7.059,0,0,0-1.384-1.057l55.971-139.217a5.707,5.707,0,0,0,3.683-.044Z" transform="translate(440.928 116.408)" fill="none"/>
            <path id="Trazado_53" data-name="Trazado 53" d="M230.94,270.277h0a5.939,5.939,0,0,0-6.728-4.075L197.6,167.951a5.9,5.9,0,0,0,1.767-1.1L289,255.939,230.94,270.277Z" transform="translate(223.025 11.265)" fill="none"/>
            <path id="Trazado_54" data-name="Trazado 54" d="M41.825,328.219a6.551,6.551,0,0,0-.192-3.194,4.182,4.182,0,0,0-.213-.551l133-78.055a6,6,0,0,0,2.917,2.291L150.168,361.52,41.825,328.2Z" transform="translate(46.701 106.945)" fill="none"/>
            <path id="Trazado_55" data-name="Trazado 55" d="M139.894,368.4a6.1,6.1,0,0,0-.021,1.762L79.005,378.2l-49.8,6.585a4.813,4.813,0,0,0-.277-1.189,6.018,6.018,0,0,0-4.152-3.986L36.553,323.56Z" transform="translate(27.915 199.703)" fill="none"/>
            <path id="Trazado_56" data-name="Trazado 56" d="M458.831,265.677a7.193,7.193,0,0,0,.745-1.057l112.708,54.753a6.252,6.252,0,0,0-.106,4.273,6.148,6.148,0,0,0,1.171,2.114L541.606,360.4l-82.8-94.728Z" transform="translate(517.925 128.83)" fill="none"/>
            <path id="Trazado_57" data-name="Trazado 57" d="M218.661,269.692l51.777,62.7-40.663,40.459a5.769,5.769,0,0,0-3.939-1.5l-9.5-100.653a3.511,3.511,0,0,0,.788-.22,5.312,5.312,0,0,0,1.512-.815Z" transform="translate(244.182 134.902)" fill="none"/>
            <path id="Trazado_58" data-name="Trazado 58" d="M324.38,259.31l-18.075,91.38a6.086,6.086,0,0,0-2.576.286,5.678,5.678,0,0,0-1.043.485l-6.536-9.6,28.209-82.548Z" transform="translate(334.285 122.445)" fill="none"/>
            <path id="Trazado_59" data-name="Trazado 59" d="M478.427,247.326a5.93,5.93,0,0,0-1.6-2.533l38.322-51.383a5.87,5.87,0,0,0,2.619.925l-.277,54.225-38.79.154A6.411,6.411,0,0,0,478.427,247.326Z" transform="translate(538.269 43.203)" fill="none"/>
            <path id="Trazado_60" data-name="Trazado 60" d="M404.61,314.69a5.808,5.808,0,0,0-3.194-.132L360.54,190.031a5.86,5.86,0,0,0,2.7-2.511l78.006,37.794-36.64,89.4Z" transform="translate(406.98 36.12)" fill="none"/>
            <path id="Trazado_61" data-name="Trazado 61" d="M498.122,194.313a6.005,6.005,0,0,0,1.916-1.123l50.883,52.066a6.231,6.231,0,0,0-1.341,3.37l-53.139.22.277-54.225a5.369,5.369,0,0,0,1.405-.308Z" transform="translate(560.408 42.938)" fill="none"/>
            <path id="Trazado_62" data-name="Trazado 62" d="M225.511,324.192a5.908,5.908,0,0,0-4.45-2.026l-7.856-82.2-2.065-21.584a3.515,3.515,0,0,0,.788-.22,6.059,6.059,0,0,0,2.3-1.476l70.916,61.14-59.633,46.362Z" transform="translate(238.311 71.196)" fill="none"/>
            <path id="Trazado_63" data-name="Trazado 63" d="M478.9,219.124l38.769-.154-.319,64.312a4.853,4.853,0,0,0-1.214.286,5.144,5.144,0,0,0-1.107.529L476.66,223.419A6.274,6.274,0,0,0,478.9,219.124Z" transform="translate(538.077 73.938)" fill="none"/>
            <path id="Trazado_64" data-name="Trazado 64" d="M332.718,291.945a6.169,6.169,0,0,0-.106,1.652l-113.56.352a6.408,6.408,0,0,0-.277-1.388,6.655,6.655,0,0,0-.575-1.255l59.824-46.516Z" transform="translate(246.281 104.985)" fill="none"/>
            <path id="Trazado_65" data-name="Trazado 65" d="M222.007,355.419a5.771,5.771,0,0,0-2.853.242,5.545,5.545,0,0,0-1.341.683l-67.893-101.4a6.06,6.06,0,0,0,1.81-2.753l94.612,23.258-24.334,79.971Z" transform="translate(169.195 113.883)" fill="none"/>
            <path id="Trazado_66" data-name="Trazado 66" d="M122.451,369.565a5.781,5.781,0,0,0-2.959-.771L106.76,248.628a4.429,4.429,0,0,0,.724-.2,5.955,5.955,0,0,0,2.533-1.74L170.906,293.4l-48.455,76.161Z" transform="translate(120.468 107.27)" fill="none"/>
            <path id="Trazado_67" data-name="Trazado 67" d="M161.936,254.2a6.075,6.075,0,0,0,1-.462l67.936,101.467c-.192.2-.362.4-.532.595l-92.76-71.161,19.629-30.857a5.781,5.781,0,0,0,4.726.4Z" transform="translate(155.263 115.747)" fill="none"/>
            <path id="Trazado_68" data-name="Trazado 68" d="M172.781,251.384a4.19,4.19,0,0,0,.213.551L42.19,328.69,154.6,241.01l18.054,6.806A6.207,6.207,0,0,0,172.781,251.384Z" transform="translate(47.57 100.44)" fill="none"/>
            <path id="Trazado_69" data-name="Trazado 69" d="M381.82,252.552a6.139,6.139,0,0,0,2.789-4.052l43.708,5.066L411.136,309.42a5.772,5.772,0,0,0-3.236-.022l-26.08-56.823Z" transform="translate(431.005 109.446)" fill="none"/>
            <path id="Trazado_70" data-name="Trazado 70" d="M227.272,217.582l9.921,103.78a3.51,3.51,0,0,0-.788.22,6.037,6.037,0,0,0-3.726,3.876l-36.81-9.052,30.1-98.956a5.1,5.1,0,0,0,1.3.132Z" transform="translate(221.071 72.11)" fill="none"/>
            <path id="Trazado_71" data-name="Trazado 71" d="M224,340.827a6.259,6.259,0,0,0-1-1.872l40.621-40.415,76,92.063a6.254,6.254,0,0,0-1.022,1.476L224.064,344.571a6.422,6.422,0,0,0-.064-3.744Z" transform="translate(251.701 169.617)" fill="none"/>
            <path id="Trazado_72" data-name="Trazado 72" d="M526.4,357.086a6.1,6.1,0,0,0-1.661.9L498.06,327.441l31.807-34.711a5.98,5.98,0,0,0,2.831,1.233l-4.492,62.77a5.246,5.246,0,0,0-1.81.331Z" transform="translate(562.237 162.631)" fill="none"/>
            <path id="Trazado_73" data-name="Trazado 73" d="M392.346,365.218a6.077,6.077,0,0,0-.766-1.542l94.612-82.636,71.619,116.378a6.337,6.337,0,0,0-2.129,3.326L392.623,367.817A6.391,6.391,0,0,0,392.346,365.218Z" transform="translate(442.024 148.574)" fill="none"/>
            <path id="Trazado_74" data-name="Trazado 74" d="M475.008,393.456s-.085-.22-.128-.308l64.806-35.768,130.8,83.385a5.644,5.644,0,0,0-.319.837L475.242,396.584a6.2,6.2,0,0,0-.213-3.106Z" transform="translate(536.067 240.37)" fill="none"/>
            <path id="Trazado_75" data-name="Trazado 75" d="M402.269,314.423A6.221,6.221,0,0,0,406,306.583a6.448,6.448,0,0,0-1.214-2.158l41.047-50.3c.17.11.319.22.49.308L390.347,393.646l-.447-.132,10.177-78.8a6,6,0,0,0,2.15-.308Z" transform="translate(440.127 116.204)" fill="none"/>
            <path id="Trazado_76" data-name="Trazado 76" d="M301.44,354.289l18.48-93.428a5.913,5.913,0,0,0,6.366-4.361L494.41,304.359a6.524,6.524,0,0,0,0,2.8L305.315,358.1a6.045,6.045,0,0,0-3.875-3.81Z" transform="translate(340.258 119.066)" fill="none"/>
            <path id="Trazado_77" data-name="Trazado 77" d="M404.247,187.481a6.187,6.187,0,0,0,1.767,2.709l-37.6,55.017L314.66,197.987a6.513,6.513,0,0,0,1.086-3.5l88.289-7.885a5.9,5.9,0,0,0,.213.881Z" transform="translate(355.183 35.014)" fill="none"/>
            <path id="Trazado_78" data-name="Trazado 78" d="M486.45,414.909l-28.89-148.49s.149-.044.213-.066a6.1,6.1,0,0,0,1.661-.9l82.839,94.794-51.415,56.119A5.86,5.86,0,0,0,486.45,414.909Z" transform="translate(516.514 129.828)" fill="none"/>
            <path id="Trazado_79" data-name="Trazado 79" d="M499.94,254.255,529.9,319.272,494.32,253.11a5.751,5.751,0,0,0,5.621,1.123Z" transform="translate(558.015 114.989)" fill="none"/>
            <path id="Trazado_80" data-name="Trazado 80" d="M467.4,180.271l-105.342,37-.192-.4,85.8-58.806,19.736,22.2Z" transform="translate(408.482 0.708)" fill="none"/>
            <path id="Trazado_81" data-name="Trazado 81" d="M485.545,131.97a6.182,6.182,0,0,0,.49.573l-54.757,72.219a5.736,5.736,0,0,0-5.152-.661,6.206,6.206,0,0,0-4,6.7L402.6,188.837l82.945-56.845Z" transform="translate(454.465 -30.676)" fill="none"/>
            <path id="Trazado_82" data-name="Trazado 82" d="M590.509,157.8a6.1,6.1,0,0,0,2.342,3.15l-47.881,91.4L445.76,133.639a6.32,6.32,0,0,0,1.469-2.709L590.19,155.4a6.325,6.325,0,0,0,.3,2.423Z" transform="translate(503.192 -31.927)" fill="none"/>
            <path id="Trazado_83" data-name="Trazado 83" d="M498.478,238.583a6.2,6.2,0,0,0-1.554.815l-4.194-5.022,45.965-87.746L502.14,238.539A5.792,5.792,0,0,0,498.478,238.583Z" transform="translate(556.22 -13.048)" fill="none"/>
            <path id="Trazado_84" data-name="Trazado 84" d="M312.648,297.39l6.068,8.942a6.321,6.321,0,0,0-1.788,6.7,6.14,6.14,0,0,0,2.363,3.15l-38.13,73.342,31.488-92.107Z" transform="translate(317.362 168.234)" fill="none"/>
            <path id="Trazado_85" data-name="Trazado 85" d="M362.562,243.669a6.149,6.149,0,0,0-1.852-1.586L403.8,135l44.41,49.952-85.649,58.7Z" transform="translate(407.172 -27.033)" fill="none"/>
            <path id="Trazado_86" data-name="Trazado 86" d="M288.931,257.1,198.79,167.5a6.425,6.425,0,0,0,1-1.894l232.761,56.031-143.6,35.46Z" transform="translate(224.368 9.774)" fill="none"/>
            <path id="Trazado_87" data-name="Trazado 87" d="M508.456,131.673a5.989,5.989,0,0,0,.4.925l-83.094,56.956L381.42,139.668l126.8-9.008a5.564,5.564,0,0,0,.234.991Z" transform="translate(430.553 -32.252)" fill="none"/>
            <path id="Trazado_88" data-name="Trazado 88" d="M547.541,92.406l-29.295,81.976a5.843,5.843,0,0,0-6.685-2.114,6.164,6.164,0,0,0-4.045,5.7l-125.546,8.92L545.22,90.38a6.22,6.22,0,0,0,2.3,2.026Z" transform="translate(431.174 -80.687)" fill="none"/>
            <path id="Trazado_89" data-name="Trazado 89" d="M250.6,167.7l26.612,98.252A6.236,6.236,0,0,0,273.7,273.7a3.986,3.986,0,0,0,.255.639L151.179,348.717a5.935,5.935,0,0,0-1.469-1.476L247.132,167.3a5.884,5.884,0,0,0,3.492.441Z" transform="translate(168.958 11.806)" fill="none"/>
            <path id="Trazado_90" data-name="Trazado 90" d="M50.1,333.752l-40.2-18.5a6.309,6.309,0,0,0,0-3.964,5.7,5.7,0,0,0-.383-.9L125.1,231.91a5.825,5.825,0,0,0,.6.661L50.1,333.752Z" transform="translate(10.687 89.497)" fill="none"/>
            <path id="Trazado_91" data-name="Trazado 91" d="M104.781,299.352l36.491,11.21a6.3,6.3,0,0,0,1.81,5.638l-59.1,77.064a6.334,6.334,0,0,0-1.661-.749l22.439-93.186Z" transform="translate(92.876 170.567)" fill="none"/>
            <path id="Trazado_92" data-name="Trazado 92" d="M6.132,313.012l52.543,22.8L46.838,392.124a5.738,5.738,0,0,0-2.342.308,7.186,7.186,0,0,0-.937.419L4.28,314.862a6.114,6.114,0,0,0,1.852-1.872Z" transform="translate(4.771 186.993)" fill="none"/>
            <path id="Trazado_93" data-name="Trazado 93" d="M186.689,338.615a5.9,5.9,0,0,0-1.3-2.224l61.1-66.8a5.842,5.842,0,0,0,3.7,1.321l9.5,100.652a3.511,3.511,0,0,0-.788.22,6.023,6.023,0,0,0-3.279,2.819l-68.936-32a6.378,6.378,0,0,0,0-3.986Z" transform="translate(209.24 134.806)" fill="none"/>
            <path id="Trazado_94" data-name="Trazado 94" d="M111.519,259.864a6.416,6.416,0,0,0-.3-2.357,6.087,6.087,0,0,0-4.471-4.075l1.852-17.884a5.782,5.782,0,0,0,2-.33,6.051,6.051,0,0,0,3.151-2.6l75.515,38.9a4.689,4.689,0,0,0-.213.727L111.54,259.864Z" transform="translate(120.457 90.351)" fill="none"/>
            <path id="Trazado_95" data-name="Trazado 95" d="M13.019,273.061A5.9,5.9,0,0,0,16.3,270.22l39.94,18.391L5.738,356.2a6.051,6.051,0,0,0-2.278-1.145l7.6-81.689a5.434,5.434,0,0,0,1.937-.33Z" transform="translate(3.845 135.564)" fill="none"/>
            <path id="Trazado_96" data-name="Trazado 96" d="M125.947,411.022a5.86,5.86,0,0,0-1.767.991L40.66,286.495a6.329,6.329,0,0,0,1.724-2.445l108.386,33.323-22.482,93.318a5.785,5.785,0,0,0-2.342.308Z" transform="translate(45.843 152.194)" fill="none"/>
            <path id="Trazado_97" data-name="Trazado 97" d="M285.165,424.009,275.18,269.947a5.3,5.3,0,0,0,.979-.242,5.67,5.67,0,0,0,1.043-.485l41.409,60.92-32.148,94.067a5.269,5.269,0,0,0-1.3-.176Z" transform="translate(310.611 134.361)" fill="none"/>
            <path id="Trazado_98" data-name="Trazado 98" d="M307.276,268.912a5.923,5.923,0,0,0,3.747,1.5l9.985,154.062a5.293,5.293,0,0,0-.979.242,5.861,5.861,0,0,0-1.512.793L242.47,333.4,307.3,268.89Z" transform="translate(273.682 133.964)" fill="none"/>
            <path id="Trazado_99" data-name="Trazado 99" d="M278.551,277.88,343,256.56v.066a6.091,6.091,0,0,0,3.151,3.612L317.511,344,276.55,283.738a6.252,6.252,0,0,0,1.98-5.88Z" transform="translate(312.157 119.138)" fill="none"/>
            <path id="Trazado_100" data-name="Trazado 100" d="M219.479,267.832l113.73-.352a3.431,3.431,0,0,0,.128.44,6.256,6.256,0,0,0,1,1.872l-64.763,64.466L217.84,271.6a6.13,6.13,0,0,0,1.661-3.744Z" transform="translate(245.875 132.269)" fill="none"/>
            <path id="Trazado_101" data-name="Trazado 101" d="M313.21,263.765,450.4,248.48a5.089,5.089,0,0,0,.192.771,5.917,5.917,0,0,0,7.579,3.854c.043,0,.085-.044.128-.044l26.037,56.757a6.091,6.091,0,0,0-2.874,3.105L313.21,265.02a6.181,6.181,0,0,0,0-1.255Z" transform="translate(353.546 109.422)" fill="none"/>
            <path id="Trazado_102" data-name="Trazado 102" d="M184.291,342.863l24.334-79.993,36.874,9.074a6.32,6.32,0,0,0,.255,2.863,6.053,6.053,0,0,0,1.171,2.092L185.8,343.722a5.8,5.8,0,0,0-1.533-.837Z" transform="translate(207.975 126.726)" fill="none"/>
            <path id="Trazado_103" data-name="Trazado 103" d="M475.529,265.2a5.857,5.857,0,0,0,4.812,1.74l28.89,148.468a1.686,1.686,0,0,0-.3.088,5.289,5.289,0,0,0-.809.352l-71.7-116.51L475.508,265.2Z" transform="translate(492.647 129.527)" fill="none"/>
            <path id="Trazado_104" data-name="Trazado 104" d="M396.091,307l17.266-56.163,22.865,2.643a6.793,6.793,0,0,0,.277,1.432,6.175,6.175,0,0,0,1.512,2.445l-41,50.238a6.846,6.846,0,0,0-.937-.595Z" transform="translate(447.093 112.26)" fill="none"/>
            <path id="Trazado_105" data-name="Trazado 105" d="M550.107,344.66l-75.536,22.179a6.254,6.254,0,0,0-1-1.872l51.372-56.1,26.633,30.482A6.333,6.333,0,0,0,550.107,344.66Z" transform="translate(534.588 182.039)" fill="none"/>
            <path id="Trazado_106" data-name="Trazado 106" d="M561.012,325.02l91.184,5.066L474.32,348.432l75.238-22.091a5.918,5.918,0,0,0,7.473,3.634,6.125,6.125,0,0,0,3.981-4.956Z" transform="translate(535.435 201.458)" fill="none"/>
            <path id="Trazado_107" data-name="Trazado 107" d="M116.4,347.1a6.081,6.081,0,0,0-1.852-2.775l48.413-76.117,92.76,71.161a6.625,6.625,0,0,0-.7,2.709l-138.362,6.3a5.492,5.492,0,0,0-.277-1.278Z" transform="translate(129.263 133.147)" fill="none"/>
            <path id="Trazado_108" data-name="Trazado 108" d="M421.313,252.82l71.7,21.672a6.233,6.233,0,0,0,.213,3.172,6.079,6.079,0,0,0,.766,1.542l-38.982,34.05L419.44,255.441a6.125,6.125,0,0,0,1.895-2.6Z" transform="translate(473.477 114.641)" fill="none"/>
            <path id="Trazado_109" data-name="Trazado 109" d="M47.665,286.2a5.726,5.726,0,0,0,2.64-.286,7.019,7.019,0,0,0,1-.462l83.626,125.672A6.251,6.251,0,0,0,133.8,413.1L30.42,368.241,47.665,286.2Z" transform="translate(34.282 153.877)" fill="none"/>
            <path id="Trazado_110" data-name="Trazado 110" d="M187.085,260.244a6.159,6.159,0,0,0,1.937,2.841l-19.587,30.79-60.846-46.67a6.129,6.129,0,0,0,.681-1.7l77.516,12.378A6.415,6.415,0,0,0,187.085,260.244Z" transform="translate(122.534 105.851)" fill="none"/>
            <path id="Trazado_111" data-name="Trazado 111" d="M145.949,233.926a6.076,6.076,0,0,0,.575,1.255l-22.056,17.2L68.71,231.349a6.049,6.049,0,0,0,.149-.859l76.771,1.872a6.753,6.753,0,0,0,.3,1.564Z" transform="translate(77.511 87.79)" fill="none"/>
            <path id="Trazado_112" data-name="Trazado 112" d="M116.354,253.139a5.918,5.918,0,0,0-3.47,3.216L95.49,249.791l21.481-16.761a6,6,0,0,0,3.236,1.894l-1.852,17.884a5.779,5.779,0,0,0-2,.33Z" transform="translate(107.745 90.844)" fill="none"/>
            <path id="Trazado_113" data-name="Trazado 113" d="M317.595,255.491,213.36,224.26a5.877,5.877,0,0,0,.043-2.026l58.76-14.514L318.532,253.8a6.845,6.845,0,0,0-.937,1.7Z" transform="translate(240.817 60.41)" fill="none"/>
            <path id="Trazado_114" data-name="Trazado 114" d="M275.983,218.444l-30.146,99.044-94.676-23.28a6.319,6.319,0,0,0-.255-2.863,4,4,0,0,0-.255-.639L273.428,216.33a6.036,6.036,0,0,0,2.534,2.092Z" transform="translate(170.019 70.763)" fill="none"/>
            <path id="Trazado_115" data-name="Trazado 115" d="M52.148,337.96a5.827,5.827,0,0,0-7.43,2.709l-15.648-7.2L104.478,232.55,52.148,337.96Z" transform="translate(32.758 90.267)" fill="none"/>
            <path id="Trazado_116" data-name="Trazado 116" d="M5.641,341.365a5.45,5.45,0,0,0-.341-.815l67.148-55.59a5.988,5.988,0,0,0,2.491,1.608l-17.2,81.843L5.47,345.726a6.372,6.372,0,0,0,.149-4.361Z" transform="translate(5.922 153.288)" fill="none"/>
            <path id="Trazado_117" data-name="Trazado 117" d="M387.4,192.313l-91.823,80.742a5.829,5.829,0,0,0-6.174-1.52,5.53,5.53,0,0,0-1.98,1.189L241.57,227.156,386.83,191.3a5.975,5.975,0,0,0,.553,1.035Z" transform="translate(272.666 40.665)" fill="none"/>
            <path id="Trazado_118" data-name="Trazado 118" d="M71.524,286.1a6.309,6.309,0,0,0,0,3.964,6.578,6.578,0,0,0,.681,1.41L5.164,347a3.248,3.248,0,0,0-.234-.308l50.734-67.9L71.546,286.1Z" transform="translate(5.505 145.869)" fill="none"/>
            <path id="Trazado_119" data-name="Trazado 119" d="M120.177,247.59a4.986,4.986,0,0,0,1,.066l12.731,120.166a4.119,4.119,0,0,0-.745.2,6.065,6.065,0,0,0-3.662,3.656L92.99,360.444,120.177,247.59Z" transform="translate(104.922 108.352)" fill="none"/>
            <path id="Trazado_120" data-name="Trazado 120" d="M979.4,86.268a6.221,6.221,0,0,0-3.726,7.841,4.507,4.507,0,0,0,.213.573l-164.953,97.5-.277-.33-.256.639-1.916,1.145,1.512-.11-43.069,107.04a5.772,5.772,0,0,0-3.7.044,6.173,6.173,0,0,0-4.045,5.814l-88.289,7.885a6,6,0,0,0-7.792-4.735,6.2,6.2,0,0,0-3.9,7.2L424.464,260.262a6.378,6.378,0,0,0-.255-2.819,5.917,5.917,0,0,0-7.579-3.854,6.22,6.22,0,0,0-3.726,7.841,6.092,6.092,0,0,0,2.278,3.106L317.76,444.476a5.786,5.786,0,0,0-4.343-.22,6.049,6.049,0,0,0-3.151,2.6l-75.515-38.9a6.325,6.325,0,0,0,.085-4.207,5.917,5.917,0,0,0-7.579-3.854,6.118,6.118,0,0,0-4,5.132l-76.771-1.872a6.757,6.757,0,0,0-.3-1.564,5.917,5.917,0,0,0-7.579-3.854,6.221,6.221,0,0,0-3.726,7.841,5.7,5.7,0,0,0,.383.9L19.682,484.957a5.842,5.842,0,0,0-6.579-2,6.221,6.221,0,0,0-3.726,7.841,6.018,6.018,0,0,0,4.535,4.075l-7.6,81.623a6.038,6.038,0,0,0-2.235.308A6.221,6.221,0,0,0,.351,584.64a5.917,5.917,0,0,0,7.579,3.854c.085-.022.149-.066.234-.088l39.343,78.121a6.286,6.286,0,0,0-1.874,6.761,5.917,5.917,0,0,0,7.579,3.854,6.136,6.136,0,0,0,4.045-5.506l110.877-14.646v.066a5.917,5.917,0,0,0,7.579,3.854,6.27,6.27,0,0,0,2.108-10.4l59.1-77.064a5.81,5.81,0,0,0,5.088.617,6.172,6.172,0,0,0,4.045-5.418l138.4-6.3a6.04,6.04,0,0,0,.234,1.035,5.917,5.917,0,0,0,7.579,3.854,6.023,6.023,0,0,0,3.279-2.819l68.936,32a6.378,6.378,0,0,0,0,3.986,5.893,5.893,0,0,0,10.964.815l114.539,47.507a6.42,6.42,0,0,0,.064,3.744,5.917,5.917,0,0,0,7.579,3.854,6.221,6.221,0,0,0,3.726-7.841A6.14,6.14,0,0,0,599,645.34L637.7,570.9a5.783,5.783,0,0,0,4.258.176,6.193,6.193,0,0,0,3.96-6.85l189.117-50.943-.149-.551a6.027,6.027,0,0,0,4.322,4.03l-10.176,78.8a5.99,5.99,0,0,0-2.15.308,6.221,6.221,0,0,0-3.726,7.841,5.917,5.917,0,0,0,7.579,3.854,6.053,6.053,0,0,0,3.811-4.118L997.627,636.4a6.376,6.376,0,0,0,.3,2.423,6.013,6.013,0,0,0,5.344,4.185l1.256,72.681a4.885,4.885,0,0,0-.937.242,6.22,6.22,0,0,0-3.726,7.841,5.917,5.917,0,0,0,7.579,3.854,6,6,0,0,0,3.641-3.634l194.993,45.04a6.53,6.53,0,0,0,.255,2.775,5.917,5.917,0,0,0,7.579,3.854,6.221,6.221,0,0,0,3.726-7.841,5.971,5.971,0,0,0-5.791-4.185l-15.712-140.275a3.487,3.487,0,0,0,.682-.2,6.221,6.221,0,0,0,3.726-7.841,5.917,5.917,0,0,0-7.579-3.854,6.125,6.125,0,0,0-3.981,4.956l-92.419-5.132a6.263,6.263,0,0,0-.319-1.74,6,6,0,0,0-4.663-4.1l4.492-62.814a6,6,0,0,0,1.639-.308,6.22,6.22,0,0,0,3.725-7.841,5.913,5.913,0,0,0-7.515-3.876l-34.937-75.831a6.278,6.278,0,0,0,2.832-7.422,6.569,6.569,0,0,0-1.341-2.291l52.011-61.977a5.82,5.82,0,0,0,5.408.837,6.221,6.221,0,0,0,3.725-7.841,5.917,5.917,0,0,0-7.579-3.854,6,6,0,0,0-1.916,1.123l-50.883-52.066a6.371,6.371,0,0,0,1.043-5.9,6.094,6.094,0,0,0-2.874-3.48l38.236-96.137a5.792,5.792,0,0,0,3.662-.044,6.221,6.221,0,0,0,3.726-7.841,5.917,5.917,0,0,0-7.579-3.854,6.063,6.063,0,0,0-3.853,4.295L950.641,183.859a6.323,6.323,0,0,0-.3-2.423,4.068,4.068,0,0,0-.17-.462l29.614-82.857a5.851,5.851,0,0,0,3.47-.11,6.221,6.221,0,0,0,3.726-7.841,5.917,5.917,0,0,0-7.579-3.854ZM422.42,264.094l89.63,89.089-58.057,14.338h0a5.938,5.938,0,0,0-6.728-4.075L420.653,265.2A5.9,5.9,0,0,0,422.42,264.094Zm-369.7,401.2L64.5,609.242l103.341,44.842a6.1,6.1,0,0,0-.021,1.762l-60.867,8.039-49.8,6.585a4.814,4.814,0,0,0-.277-1.189,6.018,6.018,0,0,0-4.152-3.986ZM460.55,491.586a3.515,3.515,0,0,0,.788-.22,5.315,5.315,0,0,0,1.511-.815l51.777,62.7-40.663,40.459a5.769,5.769,0,0,0-3.939-1.5l-9.5-100.652Zm176.471,68.3-6.536-9.6,28.209-82.548-18.075,91.38a6.088,6.088,0,0,0-2.576.286,5.68,5.68,0,0,0-1.043.485Zm194.525,36.407,55.971-139.217a5.707,5.707,0,0,0,3.683-.044,5.317,5.317,0,0,0,.809-.353l35.661,57.947-94.718,82.724a7.054,7.054,0,0,0-1.384-1.057ZM1005.59,715.62l-1.256-72.637a5.237,5.237,0,0,0,1.128-.264,5.908,5.908,0,0,0,2.789-2.048l66.467,42.375-64.21,35.438a5.919,5.919,0,0,0-4.918-2.841Zm3.236-75.919a6.284,6.284,0,0,0,.66-2.643L1189,618.536a5.657,5.657,0,0,0,.192.815c.043.132.107.264.149.4L1075.8,682.407l-67-42.706Zm198.335,126.443L1076.91,683.112l112.964-62.352a5.85,5.85,0,0,0,5.109,2.775L1210.7,763.81a3.485,3.485,0,0,0-.681.2A5.9,5.9,0,0,0,1207.161,766.145ZM877.085,267.772a6.031,6.031,0,0,0,2.619,2.907l-31.019,75.654-77.963-37.772a6.367,6.367,0,0,0,.192-3.524L877.085,267.75ZM145.866,406.2l55.077,20.791-113.858,88.8a7.077,7.077,0,0,0-1.214-1.057L138.223,409.28a5.845,5.845,0,0,0,4.152.132,5.919,5.919,0,0,0,3.47-3.216Zm78.176,35.46-27.166,112.81L88.533,521.143a6.551,6.551,0,0,0-.192-3.194,4.186,4.186,0,0,0-.213-.551l133-78.055a6,6,0,0,0,2.917,2.29Zm-21.865-14.206,18.054,6.806a6.207,6.207,0,0,0,.128,3.568,4.181,4.181,0,0,0,.213.551l-130.8,76.756,112.41-87.68Zm28.273,12.51,60.889,46.714-48.456,76.161a5.781,5.781,0,0,0-2.959-.771L227.193,441.9a4.429,4.429,0,0,0,.724-.2,5.956,5.956,0,0,0,2.533-1.74Zm62.4,46.428,19.629-30.856a5.78,5.78,0,0,0,4.726.4,6.07,6.07,0,0,0,1-.463l67.936,101.467c-.192.2-.362.4-.532.595l-92.76-71.161Zm28.081-34.314,94.612,23.258L391.21,555.3a5.769,5.769,0,0,0-2.853.242,5.54,5.54,0,0,0-1.341.683l-67.893-101.4a6.061,6.061,0,0,0,1.81-2.753Zm96.017,22.443,30.1-98.956a5.108,5.108,0,0,0,1.3.132l9.921,103.78a3.505,3.505,0,0,0-.788.22,6.037,6.037,0,0,0-3.726,3.876l-36.81-9.052Zm421.963,30.306L812.832,448a6.139,6.139,0,0,0,2.789-4.052l43.708,5.066-17.181,55.854a5.771,5.771,0,0,0-3.236-.022Zm214.2-60.788-38.364-60.678a6.273,6.273,0,0,0,2.236-4.295l38.769-.154-.319,64.312a4.856,4.856,0,0,0-1.214.286A5.146,5.146,0,0,0,1053.108,444.035Zm3.747-66.272.277-54.225a5.372,5.372,0,0,0,1.405-.308,6.007,6.007,0,0,0,1.916-1.123l50.883,52.066a6.233,6.233,0,0,0-1.341,3.37l-53.139.22Zm-1.107,0-38.79.154a6.406,6.406,0,0,0-.277-1.388,5.929,5.929,0,0,0-1.6-2.533l38.322-51.383a5.871,5.871,0,0,0,2.619.925ZM770.231,309.619l78.006,37.794-36.64,89.4a5.808,5.808,0,0,0-3.193-.132L767.528,312.152a5.86,5.86,0,0,0,2.7-2.511ZM464.468,482.292l59.824-46.516,54.693,47.155a6.168,6.168,0,0,0-.106,1.652l-113.56.352a6.413,6.413,0,0,0-.277-1.388A6.66,6.66,0,0,0,464.468,482.292ZM452.5,373.887l70.916,61.14-59.633,46.362a5.907,5.907,0,0,0-4.449-2.026l-7.856-82.2-2.065-21.584a3.513,3.513,0,0,0,.788-.22,6.059,6.059,0,0,0,2.3-1.476Zm107.151,34.424a5.869,5.869,0,0,0,5.173,1.872l2.384,10.528,13.434,59.114a6.63,6.63,0,0,0-1.3,1.96l-54.14-46.692,34.447-26.782Zm9.218-.7,39.641,22.619-23.248,47.815a5.887,5.887,0,0,0-2.363.308,6.785,6.785,0,0,0-1.32.661l-15.691-69.091h0a5.96,5.96,0,0,0,2.959-2.313Zm41.111,22.135,52.777-108.559a5.4,5.4,0,0,0,1.448.374l-3.96,131.993v.066a6.2,6.2,0,0,0-1.384.286,6.005,6.005,0,0,0-2.831,2.092l-46.071-26.275Zm277.342-59.158.447-.132a6.192,6.192,0,0,0,1.363-.7l42.814,55.3-37.832,22.575a5.859,5.859,0,0,0-4.833-2.6l-1.959-74.443ZM812.6,437.23l36.64-89.354,30.891,14.977a6.347,6.347,0,0,0,.064,3.722,6.012,6.012,0,0,0,1.043,1.938L813.6,437.934a6.375,6.375,0,0,0-1-.7Zm74.067-167.563,22.844,20.13-22.29,68.8a5.034,5.034,0,0,0-.979-.154l-1.874-54.841-1.107-32.2a4.4,4.4,0,0,0,1.15-.286,5.983,5.983,0,0,0,2.235-1.432ZM910.4,290.59l95.74,84.376a6.612,6.612,0,0,0-.979,2.335L891.817,364.7a6.363,6.363,0,0,0-.319-2.07,6.047,6.047,0,0,0-3.236-3.656L910.4,290.612Zm95.187,90.5-72.683,43.366-42.92-55.436a6.273,6.273,0,0,0,1.7-3.216l113.347,12.6a6.361,6.361,0,0,0,.319,2.07c.064.2.149.4.234.595ZM883.514,370.275l-23.866,77.593-43.921-5.088a6.4,6.4,0,0,0-.319-2.092,5.9,5.9,0,0,0-1.043-1.916l67.872-69.223a5.62,5.62,0,0,0,1.256.749Zm-219.157,84.53L723.8,367.852l81.093,71.25a6.377,6.377,0,0,0-1.086,3.634l-53.884,5.991-83.392,9.294-.064-.264a6.187,6.187,0,0,0-2.086-2.973ZM849.664,346.819l31.04-75.7a5.441,5.441,0,0,0,1.469.286l2.938,87.063a4.768,4.768,0,0,0-1.171.286,6.043,6.043,0,0,0-3.406,3.039l-30.87-14.955ZM907.7,232.951l33.68-44.4a5.723,5.723,0,0,0,.788.462L909.892,288.63l-22.5-19.822a6.329,6.329,0,0,0-.788-8.039l21.077-27.8Zm100.828,139.922a5.783,5.783,0,0,0-1.661,1.189L910.808,289.4l32.4-100.014a5.686,5.686,0,0,0,2.789.044L1008.528,372.9Zm-.256,11.078L974.1,470.377a5.793,5.793,0,0,0-3.662.044,6.189,6.189,0,0,0-1.363.7L933.63,425.336l72.534-43.3a6.132,6.132,0,0,0,2.107,1.916ZM966.8,474.011l-71.7-21.672a6.231,6.231,0,0,0-.213-3.172c-.064-.2-.149-.4-.234-.595l37.981-22.663,35.554,45.921a6.456,6.456,0,0,0-1.405,2.159Zm-83.5-23.434-22.525-2.6,23.8-77.372a5.118,5.118,0,0,0,1.639.132l1.959,74.355a6.324,6.324,0,0,0-.873.22,6.154,6.154,0,0,0-4.024,5.264Zm-228.418,9.977L590.4,481.9a6.03,6.03,0,0,0-3.981-3.7l23.078-47.463,45.986,26.231A6.461,6.461,0,0,0,654.883,460.554ZM453.865,371.728l104.256,31.231a6.2,6.2,0,0,0,.234,3.039,7.22,7.22,0,0,0,.639,1.365L524.356,434.3l-71.129-61.316a6.727,6.727,0,0,0,.639-1.233Zm115.093,28.852L660.8,319.816a5.122,5.122,0,0,0,1,.815L609.046,429.147l-39.6-22.575a6.385,6.385,0,0,0,.213-4.537A6.5,6.5,0,0,0,568.958,400.581Zm100.19-80.764L722.968,367.1l-59.526,87.085a5.6,5.6,0,0,0-2.065-.595l3.96-132.037a6.481,6.481,0,0,0,1.554-.308,6.067,6.067,0,0,0,2.257-1.432Zm55.311,47.111,37.662-55.106a5.767,5.767,0,0,0,4.364.661l40.876,124.527a6.189,6.189,0,0,0-1.746,1.233l-81.157-71.316ZM948.15,188.44l99.466,119.043-34.234,65.347a5.774,5.774,0,0,0-3.811-.308L947.128,189.343l.149-.4a5.6,5.6,0,0,0,.852-.529ZM1048.4,308.408l3.917,4.691a6.313,6.313,0,0,0-1.341,6.255,5.923,5.923,0,0,0,1.6,2.533l-37.747,50.635,33.6-64.136Zm63.252,73.959-52.011,61.977a5.775,5.775,0,0,0-3.087-1.145l.319-64.29,53.139-.22a6.427,6.427,0,0,0,.277,1.388,6.562,6.562,0,0,0,1.341,2.291Zm-61.4,67.836-31.19-57.991,33.191,52.507A6.307,6.307,0,0,0,1050.256,450.2Zm42.345,81.073a5.805,5.805,0,0,0-1.852,1.916L978,478.416a6.349,6.349,0,0,0,.043-4.075,6.049,6.049,0,0,0-2.9-3.48l34.17-86.425a5.792,5.792,0,0,0,3.662-.044c.17-.066.319-.132.49-.2L1092.6,531.319Zm-33.02,43.961-82.8-94.728a7.185,7.185,0,0,0,.745-1.057L1090.238,534.2a6.255,6.255,0,0,0-.106,4.273,6.155,6.155,0,0,0,1.171,2.114l-31.743,34.645Zm-.766.837L1007.4,632.191a5.861,5.861,0,0,0-4.407-1.454L974.1,482.248s.149-.044.213-.066a6.092,6.092,0,0,0,1.661-.9Zm.745.859,26.634,30.482a6.333,6.333,0,0,0-1.469,5.308L1009.188,634.9a6.26,6.26,0,0,0-1-1.872Zm32.935,40.5a6.126,6.126,0,0,0,3.981-4.956l91.184,5.066-177.876,18.346,75.238-22.091a5.918,5.918,0,0,0,7.473,3.634ZM1000.8,631.4l-71.7-116.51,39.088-34.138a5.857,5.857,0,0,0,4.812,1.74l28.89,148.468a1.693,1.693,0,0,0-.3.088,5.317,5.317,0,0,0-.809.352ZM928.5,513.919,892.924,456.1a6.125,6.125,0,0,0,1.895-2.6l71.7,21.672a6.232,6.232,0,0,0,.213,3.172,6.082,6.082,0,0,0,.766,1.542l-38.982,34.05ZM844.128,505.9a6.863,6.863,0,0,0-.937-.595l17.266-56.163,22.865,2.643a6.8,6.8,0,0,0,.277,1.432,6.176,6.176,0,0,0,1.512,2.445l-41,50.238Zm-9.091,2.445-168.253-47.9a6.192,6.192,0,0,0,0-1.256L803.976,443.9a5.089,5.089,0,0,0,.191.771,5.917,5.917,0,0,0,7.579,3.854c.043,0,.085-.044.128-.044l26.037,56.757A6.091,6.091,0,0,0,835.037,508.347ZM629.719,549.18l-40.962-60.259a6.253,6.253,0,0,0,1.98-5.881l64.444-21.32v.066a6.091,6.091,0,0,0,3.151,3.612L629.7,549.158Zm-.447,1.321-32.148,94.067a5.267,5.267,0,0,0-1.3-.176l-9.985-154.062a5.308,5.308,0,0,0,.979-.242,5.681,5.681,0,0,0,1.043-.485l41.409,60.92Zm-37.044,95.014-76.047-92.107,64.827-64.51a5.923,5.923,0,0,0,3.747,1.5l9.985,154.062a5.3,5.3,0,0,0-.979.242,5.863,5.863,0,0,0-1.511.793Zm-76.771-92.988-51.734-62.66a6.13,6.13,0,0,0,1.661-3.744l113.73-.352a3.439,3.439,0,0,0,.128.44,6.258,6.258,0,0,0,1,1.872L515.478,552.55Zm-121.607,3.92a5.805,5.805,0,0,0-1.533-.837l24.334-79.993,36.874,9.074a6.32,6.32,0,0,0,.256,2.863,6.051,6.051,0,0,0,1.171,2.092l-61.123,66.823Zm-9.5,4.8-138.362,6.3a5.49,5.49,0,0,0-.277-1.277,6.081,6.081,0,0,0-1.852-2.775l48.413-76.117,92.759,71.161a6.626,6.626,0,0,0-.7,2.709Zm-149.88,4.8-36.512-11.233,27.187-112.854a5,5,0,0,0,1,.066L238.881,562.2a4.122,4.122,0,0,0-.745.2,6.064,6.064,0,0,0-3.662,3.656Zm-37.832-10.44L174.16,648.93a5.784,5.784,0,0,0-2.342.308,5.857,5.857,0,0,0-1.767.991L86.532,524.711a6.329,6.329,0,0,0,1.724-2.445L196.642,555.59ZM64.752,608.14,82,526.1a5.729,5.729,0,0,0,2.64-.286,7.023,7.023,0,0,0,1-.462l83.626,125.672A6.251,6.251,0,0,0,168.135,653Zm-1.043-.441L11.443,585.015a6.372,6.372,0,0,0,.149-4.361,5.45,5.45,0,0,0-.341-.815L78.4,524.249a5.986,5.986,0,0,0,2.491,1.608L63.688,607.7Zm-2.555-97.018,15.882,7.312a6.309,6.309,0,0,0,0,3.964,6.582,6.582,0,0,0,.681,1.41L10.676,578.892a3.247,3.247,0,0,0-.234-.308l50.734-67.9Zm.7-.925L137.265,408.84l-52.33,105.41a5.827,5.827,0,0,0-7.43,2.709ZM146.42,404.3l76.771,1.872a6.753,6.753,0,0,0,.3,1.564,6.077,6.077,0,0,0,.575,1.255l-22.056,17.2-55.758-21.033a6.053,6.053,0,0,0,.149-.859Zm81.561,7.488-1.852,17.884a5.78,5.78,0,0,0-2,.33,5.919,5.919,0,0,0-3.47,3.216l-17.394-6.563L224.745,409.9a6,6,0,0,0,3.236,1.894Zm3.854,25.571L309.35,449.74a6.415,6.415,0,0,0,.3,2.357,6.159,6.159,0,0,0,1.937,2.841L292,485.728l-60.846-46.67A6.131,6.131,0,0,0,231.834,437.362Zm88.885,10.131L443.5,373.116a6.036,6.036,0,0,0,2.533,2.092l-30.146,99.044-94.676-23.28a6.32,6.32,0,0,0-.255-2.863,4,4,0,0,0-.255-.639Zm192.289-93.34,46.369,46.076a6.849,6.849,0,0,0-.937,1.7L454.206,370.693a5.88,5.88,0,0,0,.043-2.026l58.76-14.514Zm1.277-.308,145.26-35.856a5.971,5.971,0,0,0,.554,1.035l-91.823,80.742a5.829,5.829,0,0,0-6.174-1.52,5.527,5.527,0,0,0-1.98,1.189l-45.858-45.569ZM670.957,315.5l88.289-7.885a5.877,5.877,0,0,0,.213.881,6.188,6.188,0,0,0,1.767,2.709l-37.6,55.017L669.871,319a6.514,6.514,0,0,0,1.086-3.5Zm99.423-11.893,85.8-58.806L875.914,267,770.572,304l-.192-.4Zm86.734-59.444,82.945-56.845a6.232,6.232,0,0,0,.49.573l-54.757,72.219a5.737,5.737,0,0,0-5.152-.661,6.206,6.206,0,0,0-4,6.7l-19.523-21.958Zm236.338-34.689a6.32,6.32,0,0,0,.3,2.423,6.106,6.106,0,0,0,2.342,3.15l-47.881,91.4L949,187.735a6.321,6.321,0,0,0,1.469-2.709L1093.431,209.5Zm-35.043,102.04a5.792,5.792,0,0,0-3.662.044,6.2,6.2,0,0,0-1.554.815L1049,307.351l45.965-87.746Zm29.55,208.771-35.575-66.162a5.751,5.751,0,0,0,5.621,1.123l29.955,65.017Zm2.533,85.125a5.249,5.249,0,0,0-1.81.33,6.1,6.1,0,0,0-1.661.9l-26.676-30.548,31.807-34.711a5.979,5.979,0,0,0,2.831,1.233l-4.492,62.77Zm-79.134,117.545a6.2,6.2,0,0,0-.213-3.106c-.042-.11-.085-.22-.128-.308l64.806-35.768,130.8,83.385a5.632,5.632,0,0,0-.319.837L1011.38,722.977ZM834.718,602.392a6.393,6.393,0,0,0-.277-2.6,6.077,6.077,0,0,0-.766-1.542l94.612-82.636,71.619,116.378a6.34,6.34,0,0,0-2.129,3.326Zm5.578-85.433a5.993,5.993,0,0,0,2.15-.308,6.221,6.221,0,0,0,3.726-7.841,6.447,6.447,0,0,0-1.214-2.158l41.047-50.3c.17.11.319.22.49.308L830.524,595.873l-.447-.132,10.177-78.8ZM645.622,563.166a6.046,6.046,0,0,0-3.875-3.81l18.479-93.428a5.913,5.913,0,0,0,6.366-4.361l168.125,47.859a6.524,6.524,0,0,0,0,2.8l-189.1,50.943Zm-8.921,7.246-38.13,73.342,31.488-92.107,6.068,8.942a6.322,6.322,0,0,0-1.788,6.7,6.141,6.141,0,0,0,2.363,3.149Zm-160.887,29.8a6.422,6.422,0,0,0-.064-3.744,6.258,6.258,0,0,0-1-1.872l40.621-40.415,76,92.063a6.258,6.258,0,0,0-1.022,1.476L475.815,600.212ZM395.957,563.43a6.378,6.378,0,0,0,0-3.986,5.9,5.9,0,0,0-1.3-2.225l61.1-66.8a5.841,5.841,0,0,0,3.7,1.321l9.5,100.652a3.516,3.516,0,0,0-.788.22,6.023,6.023,0,0,0-3.279,2.819l-68.936-32ZM176.907,649.855a6.329,6.329,0,0,0-1.661-.749l22.439-93.186,36.491,11.21a6.3,6.3,0,0,0,1.81,5.638l-59.1,77.064ZM9.1,587.9a6.115,6.115,0,0,0,1.852-1.872l52.543,22.8L51.659,665.14a5.737,5.737,0,0,0-2.342.308,7.19,7.19,0,0,0-.937.418L9.1,587.878Zm5.876-92.922a5.435,5.435,0,0,0,1.937-.33,5.9,5.9,0,0,0,3.279-2.841l39.94,18.39L9.633,577.79a6.053,6.053,0,0,0-2.278-1.145l7.6-81.689ZM135.839,407.43a5.824,5.824,0,0,0,.6.661l-75.6,101.181-40.2-18.5a6.309,6.309,0,0,0,0-3.964,5.687,5.687,0,0,0-.383-.9Zm173.916,40.459a4.684,4.684,0,0,0-.213.727l-77.516-12.378a6.416,6.416,0,0,0-.3-2.357,6.087,6.087,0,0,0-4.471-4.074l1.852-17.884a5.78,5.78,0,0,0,2-.33,6.051,6.051,0,0,0,3.151-2.6l75.515,38.9ZM416.119,265.107a5.884,5.884,0,0,0,3.492.44L446.222,363.8a6.236,6.236,0,0,0-3.513,7.753,4,4,0,0,0,.255.639L320.187,446.568a5.932,5.932,0,0,0-1.469-1.476L416.14,265.151Zm8.09-3.7L656.97,317.438,513.37,352.9l-90.141-89.6a6.425,6.425,0,0,0,1-1.894ZM811.023,193.99l44.41,49.952-85.649,58.7a6.152,6.152,0,0,0-1.852-1.586l43.09-107.084Zm127.8-9.559a5.582,5.582,0,0,0,.234.991,5.984,5.984,0,0,0,.4.925L856.37,243.3l-44.346-49.886,126.8-9.008Zm37.64-88.715a6.225,6.225,0,0,0,2.3,2.026L949.47,179.718a5.843,5.843,0,0,0-6.685-2.114,6.164,6.164,0,0,0-4.045,5.7l-125.546,8.92,163.25-96.512Z" transform="translate(-0.029 -85.979)" fill="#fff"/>
          </g>
          <g id="Grupo_63" data-name="Grupo 63" transform="translate(-72.282 219.978)">
            <path id="Trazado_121" data-name="Trazado 121" d="M406.03,213.317a5.6,5.6,0,0,0,.745-.507l49.776,51.075a4.569,4.569,0,0,0-.766,1.432,4.674,4.674,0,0,0-.043,2.753L433,279.082l-26.953-65.743Z" transform="translate(191.876 35.917)" fill="none"/>
            <path id="Trazado_122" data-name="Trazado 122" d="M517.833,249.214a2.663,2.663,0,0,0-.17.44,4.712,4.712,0,0,0-.234,1.52l-83.392,9.272a4.523,4.523,0,0,0-1.256-2.357l31.573-40.79,53.48,31.914Z" transform="translate(222.076 41.316)" fill="none"/>
            <path id="Trazado_123" data-name="Trazado 123" d="M432.962,304.723a4.113,4.113,0,0,0-1.661-1.057,2.989,2.989,0,0,0-.852-.2l.852-25.262,1.32-38.785a3.824,3.824,0,0,0,.724-.11l16.393,50.613-16.8,14.8Z" transform="translate(219.445 67.783)" fill="none"/>
            <path id="Trazado_124" data-name="Trazado 124" d="M432.18,246.549a4.461,4.461,0,0,0,2.384-2.687,4.715,4.715,0,0,0,.234-1.52l83.392-9.272a5.026,5.026,0,0,0,.7,1.718l-70.427,62.065-16.287-50.3Z" transform="translate(221.398 60.279)" fill="none"/>
            <path id="Trazado_125" data-name="Trazado 125" d="M441.556,238.24a4.467,4.467,0,0,0,2.491,2.247,2.985,2.985,0,0,0,.852.2l-2.15,64.047a3.81,3.81,0,0,0-1.086.22l-22.823-55.7,22.716-11.012Z" transform="translate(206.338 66.496)" fill="none"/>
            <path id="Trazado_126" data-name="Trazado 126" d="M432.75,281.335a4.636,4.636,0,0,0-.575-4.075l16.542-14.58,23.738,73.276a3,3,0,0,0-.575.33L444.1,299.637l-12.5-16.474a4.647,4.647,0,0,0,1.15-1.85Z" transform="translate(220.744 95.884)" fill="none"/>
            <path id="Trazado_127" data-name="Trazado 127" d="M352.14,234.99l-29.167,16.629a4.207,4.207,0,0,0-2.193-1.7h0l11.539-50.833a3.729,3.729,0,0,0,.979.485,4.338,4.338,0,0,0,1.746.22l17.1,35.173Z" transform="translate(95.63 19.42)" fill="none"/>
            <path id="Trazado_128" data-name="Trazado 128" d="M475.9,234.65l27.783,37.244a4.77,4.77,0,0,0-1.171,1.872,4.609,4.609,0,0,0,1,4.6l-2.9,3.458L475.9,234.65Z" transform="translate(270.757 62.179)" fill="none"/>
            <path id="Trazado_129" data-name="Trazado 129" d="M346.542,198.17a4.621,4.621,0,0,0,.958,1.454l-8.984,39.6-2.64,11.629a4.3,4.3,0,0,0-3.811,1.388L306.73,232.528l39.833-34.336Z" transform="translate(79.768 18.313)" fill="none"/>
            <path id="Trazado_130" data-name="Trazado 130" d="M371.978,208.29a5.65,5.65,0,0,0,1.022.22l.255,8.5,2.661,88.671a3.64,3.64,0,0,0-1.065.286L336.02,226.108l33.893-19.338a4.487,4.487,0,0,0,2.065,1.542Z" transform="translate(112.836 28.655)" fill="none"/>
            <path id="Trazado_131" data-name="Trazado 131" d="M281.115,276.3a5.578,5.578,0,0,0-.575-.154l1.554-16.166,5.748-60.193a4.29,4.29,0,0,0,3.279-1.5l43.857,34.094-52.181,45a4.146,4.146,0,0,0-1.682-1.079Z" transform="translate(50.2 18.458)" fill="none"/>
            <path id="Trazado_132" data-name="Trazado 132" d="M422.874,213.19l26.953,65.765L392.451,306.75a4.376,4.376,0,0,0-2-1.85l30.061-91.622a4.293,4.293,0,0,0,2.363-.088Z" transform="translate(174.286 36.374)" fill="none"/>
            <path id="Trazado_133" data-name="Trazado 133" d="M369.995,198.588l-40.238,34.689L285.73,199.05a4.539,4.539,0,0,0,.426-.925,5.581,5.581,0,0,0,.213-1.035l83.541.264a4.578,4.578,0,0,0,.085,1.211Z" transform="translate(56.06 17.015)" fill="none"/>
            <path id="Trazado_134" data-name="Trazado 134" d="M281.84,259.116l52.33-45.106,25.484,19.822a4.2,4.2,0,0,0-.468.991,4.518,4.518,0,0,0-.17,2.247l-76.707,22.972a4.487,4.487,0,0,0-.468-.9Z" transform="translate(51.668 37.36)" fill="none"/>
            <path id="Trazado_135" data-name="Trazado 135" d="M488.487,202.348l-26.165,33.786L434.39,219.461a2.674,2.674,0,0,0,.17-.44,4.609,4.609,0,0,0,.149-2.335l52.756-15.946a4.336,4.336,0,0,0,1.043,1.586Z" transform="translate(223.893 21.404)" fill="none"/>
            <path id="Trazado_136" data-name="Trazado 136" d="M378.689,216.456,344.859,235.75,327.87,200.819a4.42,4.42,0,0,0,2.917-2.709l47.455,15.7a4.644,4.644,0,0,0,.426,2.643Z" transform="translate(103.635 18.241)" fill="none"/>
            <path id="Trazado_137" data-name="Trazado 137" d="M442.2,212.458a3.369,3.369,0,0,0,.639.154l-1.448,54.709a4.516,4.516,0,0,0-1.214.088l-17.5-56.934,16.564-1.916a4.529,4.529,0,0,0,2.959,3.876Z" transform="translate(210.673 30.807)" fill="none"/>
            <path id="Trazado_138" data-name="Trazado 138" d="M490.016,290.474a4.3,4.3,0,0,0-2.683-.044L462.19,226.845a4.562,4.562,0,0,0,2.129-2.555,4.65,4.65,0,0,0-.021-3l82.945-40.305a4.7,4.7,0,0,0,1.363,1.41L490.4,290.628c-.106-.044-.234-.11-.362-.154Z" transform="translate(255.279 -2.345)" fill="none"/>
            <path id="Trazado_139" data-name="Trazado 139" d="M529.865,257.935a5.577,5.577,0,0,0-.213,1.035l-39.088-.154-.234-47.309a4.361,4.361,0,0,0,2.257-.837l38.258,45.591a4.643,4.643,0,0,0-.979,1.674Z" transform="translate(287.048 33.344)" fill="none"/>
            <path id="Trazado_140" data-name="Trazado 140" d="M457.523,266.556a5.823,5.823,0,0,0-.937.551L406.64,216.186a4.71,4.71,0,0,0,.766-1.41,4.845,4.845,0,0,0,.234-1.542l32.318-3.744,17.564,57.088Z" transform="translate(192.564 31.925)" fill="none"/>
            <path id="Trazado_141" data-name="Trazado 141" d="M354.81,208.459a4.575,4.575,0,0,0,1.533-2.18.717.717,0,0,1,.064-.2L418.573,213l38.811,4.317a4.667,4.667,0,0,0,.809,2.665L398.539,272.4,354.81,208.437Z" transform="translate(134.049 27.825)" fill="none"/>
            <path id="Trazado_142" data-name="Trazado 142" d="M322.374,235.662a4.578,4.578,0,0,0-.17-3.326l29.124-16.607,38.811,79.839a4.981,4.981,0,0,0-.745.595L321.82,236.742a4.539,4.539,0,0,0,.511-1.079Z" transform="translate(96.805 39.429)" fill="none"/>
            <path id="Trazado_143" data-name="Trazado 143" d="M463.8,370,439.96,296.416l70.682-62.286a4.252,4.252,0,0,0,1.235.881L465.87,369.978A4.1,4.1,0,0,0,463.8,370Z" transform="translate(230.182 61.554)" fill="none"/>
            <path id="Trazado_144" data-name="Trazado 144" d="M375.57,265.163,435.288,212.7a4.125,4.125,0,0,0,1.277.9L406.5,305.225a4.177,4.177,0,0,0-3.215.484L375.57,265.163Z" transform="translate(157.487 35.785)" fill="none"/>
            <path id="Trazado_145" data-name="Trazado 145" d="M357.836,305.171a4.246,4.246,0,0,0-1.15-.22L353.77,207.8a4.008,4.008,0,0,0,1.512-.441l43.793,64.07-39.6,34.8a4.258,4.258,0,0,0-1.661-1.057Z" transform="translate(132.875 29.364)" fill="none"/>
            <path id="Trazado_146" data-name="Trazado 146" d="M433.191,266.856a4.8,4.8,0,0,0-1-.507,1.548,1.548,0,0,0-.341-.088l1.448-54.775a4.338,4.338,0,0,0,3.555-1.916l27.826,16.607-31.488,40.679Z" transform="translate(221.026 32.022)" fill="none"/>
            <path id="Trazado_147" data-name="Trazado 147" d="M228.121,147.189l-76.026,32.993L143.43,138.93A4.428,4.428,0,0,0,146.474,136a5.862,5.862,0,0,0,.192-.881l32.637,4.317,48.775,6.453a5.307,5.307,0,0,0,0,1.3Z" transform="translate(-104.594 -57.502)" fill="none"/>
            <path id="Trazado_148" data-name="Trazado 148" d="M295.106,236.32h0l42.707,10.55-65.934,65.545a4.16,4.16,0,0,0-1.3-.793l19.587-72.285a4.364,4.364,0,0,0,4.939-3Z" transform="translate(38.956 64.187)" fill="none"/>
            <path id="Trazado_149" data-name="Trazado 149" d="M462.76,236.648l60.91-69.708,23.355,25.482a4.558,4.558,0,0,0-.873,1.542,4.689,4.689,0,0,0,.085,3.15L463.313,237.4a3.885,3.885,0,0,0-.553-.771Z" transform="translate(255.922 -19.239)" fill="none"/>
            <path id="Trazado_150" data-name="Trazado 150" d="M500.31,208.71a4.625,4.625,0,0,0,1.469,4.052L477.36,251.394l22.95-42.662Z" transform="translate(272.406 30.987)" fill="none"/>
            <path id="Trazado_151" data-name="Trazado 151" d="M461.979,258.285a.846.846,0,0,1-.149-.044L483.077,149a4.305,4.305,0,0,0,3.257-1.079l37.811,41.3-60.953,69.752a4.092,4.092,0,0,0-1.213-.661Z" transform="translate(254.873 -42.11)" fill="none"/>
            <path id="Trazado_152" data-name="Trazado 152" d="M473.6,148.4a4.3,4.3,0,0,0,.745-1.388l55.566,16.32a4.632,4.632,0,0,0,1.086,3.9L511.411,189.65,473.6,148.375Z" transform="translate(268.161 -43.204)" fill="none"/>
            <path id="Trazado_153" data-name="Trazado 153" d="M537.955,163.9a4.477,4.477,0,0,0-2.938-3.634,4.352,4.352,0,0,0-5.514,2.665L474.15,146.68l130.868,13.5L537.934,163.9Z" transform="translate(268.782 -43.601)" fill="none"/>
            <path id="Trazado_154" data-name="Trazado 154" d="M286.073,236.657a4.626,4.626,0,0,0-1.128-.595,5.553,5.553,0,0,0-.575-.154l6.983-74.047a4.407,4.407,0,0,0,2.9-1.1l29.912,29.777-38.087,46.142Z" transform="translate(54.524 -26.671)" fill="none"/>
            <path id="Trazado_155" data-name="Trazado 155" d="M475.144,176.332a4.3,4.3,0,0,0-2.044-1.5,5.679,5.679,0,0,0-.83-.2l.915-53.454a4.4,4.4,0,0,0,3.619-2.092l47.242,26.077Z" transform="translate(266.659 -76.777)" fill="none"/>
            <path id="Trazado_156" data-name="Trazado 156" d="M457.056,263.044a2.906,2.906,0,0,0-.6-.264,4.132,4.132,0,0,0-2.725-.022L412.56,160.321a3.949,3.949,0,0,0,1.022-.771L483.263,220.4l-26.229,42.64Z" transform="translate(199.248 -28.126)" fill="none"/>
            <path id="Trazado_157" data-name="Trazado 157" d="M502.778,265.846a4.393,4.393,0,0,0-1.554,1.41L447.85,235.408l26.08-33.7a4.8,4.8,0,0,0,1,.507,4.3,4.3,0,0,0,2.682.044l25.143,63.585Z" transform="translate(239.089 22.57)" fill="none"/>
            <path id="Trazado_158" data-name="Trazado 158" d="M363.848,239.874,343.09,179.13l4.812-7.07a4.113,4.113,0,0,0,.766.352,4.353,4.353,0,0,0,1.895.22l13.285,67.219Z" transform="translate(120.818 -13.083)" fill="none"/>
            <path id="Trazado_159" data-name="Trazado 159" d="M493.069,273.832a4.1,4.1,0,0,0-1.405-.815,4.248,4.248,0,0,0-1.022-.22l-.192-39.887,39.088.154a4.788,4.788,0,0,0,.979,2.489l-37.427,38.3Z" transform="translate(287.184 60.087)" fill="none"/>
            <path id="Trazado_160" data-name="Trazado 160" d="M299.138,200.411a5.559,5.559,0,0,0,.575.154l-7.3,76.359a4.737,4.737,0,0,0-.958.11L269.29,204.221l27.081-6.651a4.43,4.43,0,0,0,2.746,2.841Z" transform="translate(37.499 17.592)" fill="none"/>
            <path id="Trazado_161" data-name="Trazado 161" d="M391.561,271.185l57.355-27.795,22.823,55.656a4.544,4.544,0,0,0-1.937,2.136L391.689,273.74a4.492,4.492,0,0,0-.149-2.6Z" transform="translate(175.517 72.689)" fill="none"/>
            <path id="Trazado_162" data-name="Trazado 162" d="M477.181,233.885a5.575,5.575,0,0,0,.213-1.035l28.528.11.192,39.909a4.29,4.29,0,0,0-1.916.683L476.01,235.757a4.771,4.771,0,0,0,1.171-1.872Z" transform="translate(270.882 60.015)" fill="none"/>
            <path id="Trazado_163" data-name="Trazado 163" d="M154.9,187.571a5.986,5.986,0,0,0,.894-.771l83.754,65.325L199.012,267.41a4.427,4.427,0,0,0-2.555-2.357,4.14,4.14,0,0,0-3.044.088L154.9,187.571Z" transform="translate(-91.644 4.641)" fill="none"/>
            <path id="Trazado_164" data-name="Trazado 164" d="M477.529,258.563a4.6,4.6,0,0,0-1.639-3.15l28.23-44.644a5.536,5.536,0,0,0,.809.4,4.428,4.428,0,0,0,.894.22l.234,47.309-28.528-.11Z" transform="translate(270.746 33.464)" fill="none"/>
            <path id="Trazado_165" data-name="Trazado 165" d="M156.24,187.02l96.23,56.471a3.007,3.007,0,0,0-.149.4,4.6,4.6,0,0,0-.085,2.621l-13.285,5.022L156.24,187.02Z" transform="translate(-90.132 4.906)" fill="none"/>
            <path id="Trazado_166" data-name="Trazado 166" d="M306.437,232.813l-69.6,17.113A4.6,4.6,0,0,0,235.5,247.9l49.946-74.619a5.191,5.191,0,0,0,.979.507,4.331,4.331,0,0,0,2.108.176l17.9,58.828Z" transform="translate(-0.649 -11.616)" fill="none"/>
            <path id="Trazado_167" data-name="Trazado 167" d="M255.668,256.869a4.431,4.431,0,0,0-2.15,1.7L155.67,201.146a2.993,2.993,0,0,0,.149-.4,4.7,4.7,0,0,0,.149-2.357l79.709-24.513,19.991,82.989Z" transform="translate(-90.775 -10.894)" fill="none"/>
            <path id="Trazado_168" data-name="Trazado 168" d="M206.124,261.491a4.306,4.306,0,0,0-1.852-1.277,4.836,4.836,0,0,0-.532-.154l9.367-88.407a4.473,4.473,0,0,0,2.193-.573l35.639,56.031-44.794,34.358Z" transform="translate(-36.505 -14.261)" fill="none"/>
            <path id="Trazado_169" data-name="Trazado 169" d="M295.047,173.3,245.08,247.966a4.641,4.641,0,0,0-.745-.352,4.307,4.307,0,0,0-3.47.286L226.43,225.193l68.234-52.353c.128.154.255.308.383.441Z" transform="translate(-10.889 -12.145)" fill="none"/>
            <path id="Trazado_170" data-name="Trazado 170" d="M440.323,231.536l-32.147,3.722a4.564,4.564,0,0,0-2.065-3l19.182-41.8a4.607,4.607,0,0,0,2.384,0l12.646,41.1Z" transform="translate(191.966 9.042)" fill="none"/>
            <path id="Trazado_171" data-name="Trazado 171" d="M499.57,319.733a6.543,6.543,0,0,0-.3.683,4.488,4.488,0,0,0-.17.727l-93.292-6.629,32.616-36.693,61.123,41.891Z" transform="translate(191.627 114.089)" fill="none"/>
            <path id="Trazado_172" data-name="Trazado 172" d="M499.611,148.454s.149.044.213.066L478.577,257.762a4.232,4.232,0,0,0-3.534,1.277L446.28,233.91l52.756-85.72a2.909,2.909,0,0,0,.6.264Z" transform="translate(237.317 -41.785)" fill="none"/>
            <path id="Trazado_173" data-name="Trazado 173" d="M501.556,305.66a4.336,4.336,0,0,0,4.918-1.564l21.545,60.3a4.332,4.332,0,0,0-1.7,1.5L406.22,294.89l92.355,6.563a4.487,4.487,0,0,0,2.981,4.185Z" transform="translate(192.09 134.615)" fill="none"/>
            <path id="Trazado_174" data-name="Trazado 174" d="M206.562,236.5a4.281,4.281,0,0,0-1.469-.242l-1.363-13.171a4.46,4.46,0,0,0,3.3-3,4.908,4.908,0,0,0,.234-1.74L264.3,209.23a5.07,5.07,0,0,0,.17.529L208.9,238.369a4.429,4.429,0,0,0-2.321-1.916Z" transform="translate(-36.516 31.613)" fill="none"/>
            <path id="Trazado_175" data-name="Trazado 175" d="M236.426,209.952l90.332,54.709-.192.463a4.6,4.6,0,0,0,2.6,5.7l-19.587,72.285a4.275,4.275,0,0,0-2.576.308L235.34,211.031a4.366,4.366,0,0,0,1.086-1.1Z" transform="translate(-0.83 32.454)" fill="none"/>
            <path id="Trazado_176" data-name="Trazado 176" d="M337.768,241.22,443.407,267.3l-171.234,41.23a4.755,4.755,0,0,0-.724-1.387Z" transform="translate(39.938 70.079)" fill="none"/>
            <path id="Trazado_177" data-name="Trazado 177" d="M391.942,258l63.018,43.19-32.68,36.759-31.7-78.782A4.382,4.382,0,0,0,391.942,258Z" transform="translate(174.433 90.257)" fill="none"/>
            <path id="Trazado_178" data-name="Trazado 178" d="M606.54,177.536a6.064,6.064,0,0,0-.149.595L474.31,164.5a4.349,4.349,0,0,0-.49-1.938l49.286-31.429,83.541,46.1a2.741,2.741,0,0,0-.106.286Z" transform="translate(268.409 -62.299)" fill="none"/>
            <path id="Trazado_179" data-name="Trazado 179" d="M595.283,104.746a2.182,2.182,0,0,0,.511.132l-11.56,103.207a4.354,4.354,0,0,0-3.768,2.048L497.35,164.256l95.825-61.1a4.265,4.265,0,0,0,2.108,1.564Z" transform="translate(294.974 -95.932)" fill="none"/>
            <path id="Trazado_180" data-name="Trazado 180" d="M517.1,203.561a4.267,4.267,0,0,0-2.086.9l-23.4-25.549,19.629-22.465a4.313,4.313,0,0,0,2.534.9l3.3,46.186Z" transform="translate(288.505 -31.853)" fill="none"/>
            <path id="Trazado_181" data-name="Trazado 181" d="M521.529,323,487.7,258.45l3.087-3.7a4.835,4.835,0,0,0,1.15.617,4.216,4.216,0,0,0,2.7.044l26.889,67.615Z" transform="translate(284.079 86.349)" fill="none"/>
            <path id="Trazado_182" data-name="Trazado 182" d="M488.87,233.974,515.056,185.3l-22.035,47.837a4.236,4.236,0,0,0-4.13.837Z" transform="translate(285.4 2.838)" fill="none"/>
            <path id="Trazado_183" data-name="Trazado 183" d="M453.15,344.08l72.981-87.35,35.235,67.241a4.486,4.486,0,0,0-1.725,2.313,4.67,4.67,0,0,0-.213,1.784L454.257,346.062a4.591,4.591,0,0,0-1.086-2Z" transform="translate(245.073 88.729)" fill="none"/>
            <path id="Trazado_184" data-name="Trazado 184" d="M535.578,149.315l-52.692,85.632-69.6-60.788a4.355,4.355,0,0,0,.554-1.145,4.556,4.556,0,0,0,.213-1.916L534.024,146.87a4.5,4.5,0,0,0,1.554,2.445Z" transform="translate(200.072 -43.373)" fill="none"/>
            <path id="Trazado_185" data-name="Trazado 185" d="M522.248,164.537,474.58,138.218a2.235,2.235,0,0,0,.085-.242,4.443,4.443,0,0,0,.149-2.291L618.222,102.56a5.268,5.268,0,0,0,.234.617l-96.23,61.339Z" transform="translate(269.267 -96.654)" fill="none"/>
            <path id="Trazado_186" data-name="Trazado 186" d="M453.554,262.476c-.128.066-.256.154-.362.22L423,225.7a4.405,4.405,0,0,0,.894-1.586,4.583,4.583,0,0,0-2.746-5.77,4.475,4.475,0,0,0-1.6-.242l-7.494-57.969c.106-.022.213-.066.319-.088l41.174,102.436Z" transform="translate(198.683 -27.536)" fill="none"/>
            <path id="Trazado_187" data-name="Trazado 187" d="M488.93,210.514,365.237,245.731a4.439,4.439,0,0,0-2.789-3,4.353,4.353,0,0,0-1.895-.22L346.97,173.777a4.459,4.459,0,0,0,2.853-2.8l139.129,37.486a4.536,4.536,0,0,0,0,2.07Z" transform="translate(125.198 -14.381)" fill="none"/>
            <path id="Trazado_188" data-name="Trazado 188" d="M452.626,369.825l-.107-.286L498.463,234.77a4.3,4.3,0,0,0,2.789-.22l25.186,48.08-73.173,87.592a3.084,3.084,0,0,0-.639-.374Z" transform="translate(244.362 62.059)" fill="none"/>
            <path id="Trazado_189" data-name="Trazado 189" d="M159.656,137.221l8.708,41.428L129.723,195.41a4.321,4.321,0,0,0-1.363-1.365l28.89-57.374a3.823,3.823,0,0,0,.681.308,4.238,4.238,0,0,0,1.724.22Z" transform="translate(-121.607 -55.638)" fill="none"/>
            <path id="Trazado_190" data-name="Trazado 190" d="M132.487,202.591l29.572-13.611,55.609,74.443a4.556,4.556,0,0,0-.426.485L132.21,206.181a4.347,4.347,0,0,0,.277-.661,4.677,4.677,0,0,0,0-2.907Z" transform="translate(-117.261 7.263)" fill="none"/>
            <path id="Trazado_191" data-name="Trazado 191" d="M358.374,200.333a4.653,4.653,0,0,0,1.32,4.911l-4.471,6.585L332.06,144.06l28.06,53.96a4.374,4.374,0,0,0-1.724,2.313Z" transform="translate(108.365 -46.752)" fill="none"/>
            <path id="Trazado_192" data-name="Trazado 192" d="M166.571,215.822l-29.38,13.523a4.409,4.409,0,0,0-2.406-2.092,4.047,4.047,0,0,0-1.426-.242l-5.6-60.083a4.5,4.5,0,0,0,1.682-.837l37.151,49.732Z" transform="translate(-122.285 -20.261)" fill="none"/>
            <path id="Trazado_193" data-name="Trazado 193" d="M315.666,162.292a5.565,5.565,0,0,0,.575.154l-6.983,74.047a4.352,4.352,0,0,0-2.725.969L261.59,188.325a4.511,4.511,0,0,0,.958-1.652,4.748,4.748,0,0,0,0-2.929L313.26,160.2a4.372,4.372,0,0,0,2.406,2.07Z" transform="translate(28.806 -27.344)" fill="none"/>
            <path id="Trazado_194" data-name="Trazado 194" d="M229.3,200.605a4.6,4.6,0,0,0-.17,2.269l-26.846,8.259L185.76,142.571a4.064,4.064,0,0,0,1.214-.551l43.474,56.691a4.467,4.467,0,0,0-1.171,1.872Z" transform="translate(-56.804 -49.205)" fill="none"/>
            <path id="Trazado_195" data-name="Trazado 195" d="M375.079,143.819l-55.928,67.726L289.26,181.812a4.382,4.382,0,0,0,.724-1.365,4.676,4.676,0,0,0,.042-2.753l84.265-34.953a4.234,4.234,0,0,0,.766,1.1Z" transform="translate(60.045 -48.339)" fill="none"/>
            <path id="Trazado_196" data-name="Trazado 196" d="M213.631,230.15a4.5,4.5,0,0,0-2.384,1.388L195.45,219.2l12.8-4.823a4.427,4.427,0,0,0,2.555,2.357,4.281,4.281,0,0,0,1.469.242Z" transform="translate(-45.864 37.805)" fill="none"/>
            <path id="Trazado_197" data-name="Trazado 197" d="M175.76,232.213l41.025-15.483,16.223,12.664a4.54,4.54,0,0,0-.426.925,4.344,4.344,0,0,0-.213,1.145l-56.482,1.388c-.021-.22-.064-.418-.106-.639Z" transform="translate(-68.094 40.631)" fill="none"/>
            <path id="Trazado_198" data-name="Trazado 198" d="M205.1,231.186l44.772-34.336,14.413,22.663a4.657,4.657,0,0,0-1.426,2.092,4.907,4.907,0,0,0-.234,1.74l-57.035,9.118a4.564,4.564,0,0,0-.511-1.255Z" transform="translate(-34.992 16.726)" fill="none"/>
            <path id="Trazado_199" data-name="Trazado 199" d="M236.232,219.907a4.714,4.714,0,0,0,.192-2.092l69.66-17.135,22.163,72.857a4.431,4.431,0,0,0-1.874,1.542L236.04,220.37Z" transform="translate(-0.039 21.332)" fill="none"/>
            <path id="Trazado_200" data-name="Trazado 200" d="M128.99,165.73l49.328,40.856a5.1,5.1,0,0,0-.49,1.035,4.676,4.676,0,0,0,0,2.907L166.141,215.9,128.82,165.95s.128-.154.17-.22Z" transform="translate(-121.088 -20.694)" fill="none"/>
            <path id="Trazado_201" data-name="Trazado 201" d="M158.1,186.42a4.409,4.409,0,0,0,2.406,2.092,4.14,4.14,0,0,0,3.044-.088l38.513,77.549L146.58,191.728,158.1,186.42Z" transform="translate(-101.038 4.185)" fill="none"/>
            <path id="Trazado_202" data-name="Trazado 202" d="M435.771,270.2a4.557,4.557,0,0,0,2.938,4.934,4.249,4.249,0,0,0,3.789-.484l40.28,53.123a3.337,3.337,0,0,0-.362.418L421.4,286.366Z" transform="translate(209.228 104.927)" fill="none"/>
            <path id="Trazado_203" data-name="Trazado 203" d="M180.333,216.3a4.4,4.4,0,0,0-1.831,1.167l-49.392-40.9.256-.595a4.564,4.564,0,0,0-.107-3.194l38.449-16.673,12.646,60.215Z" transform="translate(-120.761 -32.262)" fill="none"/>
            <path id="Trazado_204" data-name="Trazado 204" d="M391.579,257.55l77.495,27.222-14.52,16.342L391.43,257.858s.106-.2.149-.286Z" transform="translate(175.393 89.715)" fill="none"/>
            <path id="Trazado_205" data-name="Trazado 205" d="M302.93,259.346l33.723-33.521a4.143,4.143,0,0,0,1.469.859,4.27,4.27,0,0,0,4.535-1.123l67.552,59.4a5.05,5.05,0,0,0-.4.749L302.93,259.324Z" transform="translate(75.478 51.249)" fill="none"/>
            <path id="Trazado_206" data-name="Trazado 206" d="M282.17,247.812l76.686-22.972a4.63,4.63,0,0,0,.681,1.233l-34.106,33.9-43.218-10.682a4.41,4.41,0,0,0-.043-1.5Z" transform="translate(52.041 50.383)" fill="none"/>
            <path id="Trazado_207" data-name="Trazado 207" d="M356.7,271.515l39.535-34.755,27.677,40.481a4.492,4.492,0,0,0-1.3,1.982,3.685,3.685,0,0,0-.149.661l-64.955-5.793a4.754,4.754,0,0,0-.788-2.577Z" transform="translate(136.183 64.716)" fill="none"/>
            <path id="Trazado_208" data-name="Trazado 208" d="M329.14,257.811a4.106,4.106,0,0,0-.766-.352,3.879,3.879,0,0,0-.724-.176l7.345-113.361a3.474,3.474,0,0,0,.958-.132l23.653,69.2-30.466,44.82Z" transform="translate(103.387 -47.076)" fill="none"/>
            <path id="Trazado_209" data-name="Trazado 209" d="M377.541,239.95v.044l-47.412-15.681A4.625,4.625,0,0,0,328.66,220l30.146-44.335,21.056,61.625a4.45,4.45,0,0,0-2.321,2.665Z" transform="translate(104.527 -8.754)" fill="none"/>
            <path id="Trazado_210" data-name="Trazado 210" d="M488.069,213.605a4.609,4.609,0,0,0-.149,2.335l-52.756,15.946a4.534,4.534,0,0,0-1.384-1.916l26.165-42.529,28.677,25.042a4.358,4.358,0,0,0-.554,1.145Z" transform="translate(223.205 5.411)" fill="none"/>
            <path id="Trazado_211" data-name="Trazado 211" d="M360.647,144.075a3.88,3.88,0,0,0,.724.176l-7.345,113.361a4.209,4.209,0,0,0-2.746,1.1L303.59,211.25l55.95-67.77a4.632,4.632,0,0,0,1.128.595Z" transform="translate(76.223 -47.449)" fill="none"/>
            <path id="Trazado_212" data-name="Trazado 212" d="M446.332,228.885a6.418,6.418,0,0,0-.213,1.035L429.3,231.859,416.59,190.54a4.53,4.53,0,0,0,.681-.44l30.168,36.957a4.553,4.553,0,0,0-1.107,1.806Z" transform="translate(203.798 8.61)" fill="none"/>
            <path id="Trazado_213" data-name="Trazado 213" d="M481.528,191.581l-19.161,41.759a.3.3,0,0,1-.085-.044,4.36,4.36,0,0,0-5.578,2.841,5.306,5.306,0,0,0-.149.551L355.62,225.454a6.684,6.684,0,0,0,0-.925L479.4,189.29a4.529,4.529,0,0,0,2.108,2.291Z" transform="translate(134.964 7.636)" fill="none"/>
            <path id="Trazado_214" data-name="Trazado 214" d="M370.439,223.324s-.064.22-.085.33l-83.669-.264a4.588,4.588,0,0,0-1.235-2.753l38.066-46.1,47.647,47.419a4.376,4.376,0,0,0-.724,1.365Z" transform="translate(55.744 -10.101)" fill="none"/>
            <path id="Trazado_215" data-name="Trazado 215" d="M313.353,176.149,245.1,228.5,209.48,172.493a4.573,4.573,0,0,0,1.363-2.026,4.692,4.692,0,0,0,.213-.947l101.786,4.625A4.368,4.368,0,0,0,313.353,176.149Z" transform="translate(-30.025 -16.137)" fill="none"/>
            <path id="Trazado_216" data-name="Trazado 216" d="M223.17,172.707a5.2,5.2,0,0,0,.553.154l-9.367,88.407a4.225,4.225,0,0,0-.745.044L193.62,178.279l26.868-8.259a4.492,4.492,0,0,0,2.7,2.687Z" transform="translate(-47.93 -15.536)" fill="none"/>
            <path id="Trazado_217" data-name="Trazado 217" d="M236.106,211.532l-79.73,24.513a4.983,4.983,0,0,0-1.256-1.806l61.442-92.349a4.443,4.443,0,0,0,1.3.727,4.238,4.238,0,0,0,1.724.22l16.542,68.651Z" transform="translate(-91.396 -49.361)" fill="none"/>
            <path id="Trazado_218" data-name="Trazado 218" d="M306.011,223.921a4.716,4.716,0,0,0-.192,2.092l-27.145,6.673-17.9-58.85a4.351,4.351,0,0,0,1.128-.617l44.964,49.159A4.664,4.664,0,0,0,306.011,223.921Z" transform="translate(27.88 -11.688)" fill="none"/>
            <path id="Trazado_219" data-name="Trazado 219" d="M223.637,140.97a4.649,4.649,0,0,0,.83,1.454L162.94,234.883a4.322,4.322,0,0,0-.724-.33,4.178,4.178,0,0,0-1.937-.2L147.59,173.985l76.047-32.993Z" transform="translate(-99.897 -50.467)" fill="none"/>
            <path id="Trazado_220" data-name="Trazado 220" d="M1012.7,102.943a4.806,4.806,0,0,0-.192,2.048L869.056,138.139a4.422,4.422,0,0,0-2.683-2.665,4.36,4.36,0,0,0-5.578,2.841,4.583,4.583,0,0,0,2.746,5.77,4.426,4.426,0,0,0,.681.176l-.916,53.476a4.4,4.4,0,0,0-3.939,3.083,4.67,4.67,0,0,0-.213,1.784L739.168,226.832a4.411,4.411,0,0,0-2.81-3.017,4.36,4.36,0,0,0-5.578,2.841,4.584,4.584,0,0,0,2.746,5.77,4.473,4.473,0,0,0,1.6.242l7.494,57.969a4.454,4.454,0,0,0-3.172,2.973l.106-.4L600.422,255.728a4.567,4.567,0,0,0-2.917-5.044,4.254,4.254,0,0,0-3.13.132L565.89,196.041a4.375,4.375,0,0,0,1.724-2.313,4.583,4.583,0,0,0-2.746-5.77,4.36,4.36,0,0,0-5.578,2.841,4.675,4.675,0,0,0-.043,2.753l-84.265,34.953a4.429,4.429,0,0,0-2.491-2.225,4.36,4.36,0,0,0-5.578,2.841,4.748,4.748,0,0,0,0,2.929L416.2,255.6a4.334,4.334,0,0,0-7.984.771,4.743,4.743,0,0,0-.17.749L306.219,252.49a4.514,4.514,0,0,0-2.981-3.986,4.232,4.232,0,0,0-3.747.463l-43.474-56.691a4.733,4.733,0,0,0,1.192-1.872,4.584,4.584,0,0,0-2.746-5.77,4.36,4.36,0,0,0-5.578,2.841v.044L167.3,176.748a4.545,4.545,0,0,0-2.981-4.053,4.36,4.36,0,0,0-5.578,2.841,4.647,4.647,0,0,0,1.384,4.978L131.174,238s-.107-.044-.17-.066a4.36,4.36,0,0,0-5.578,2.841,4.583,4.583,0,0,0,2.746,5.77,4.3,4.3,0,0,0,1.639.242l5.6,60.039a4.444,4.444,0,0,0-3.343,3,4.584,4.584,0,0,0,2.746,5.77,4.279,4.279,0,0,0,4.854-1.476L224.7,371.842a4.357,4.357,0,0,0-.277.661,4.584,4.584,0,0,0,2.746,5.77,4.432,4.432,0,0,0,5.791-3.986l56.482-1.388a4.553,4.553,0,0,0,2.938,3.788,4.36,4.36,0,0,0,5.578-2.841,4.7,4.7,0,0,0-.064-3.105l55.566-28.61a4.428,4.428,0,0,0,2.321,1.916,4.313,4.313,0,0,0,3.193-.154l71.661,132.39a4.592,4.592,0,0,0,1.065,8.039,4.36,4.36,0,0,0,5.578-2.841,4.618,4.618,0,0,0,.192-2.07l172.7-41.582a4.571,4.571,0,0,0,2.874,5.308,4.36,4.36,0,0,0,5.578-2.841,3.7,3.7,0,0,0,.149-.661l64.955,5.792a4.513,4.513,0,0,0,2.981,4.273,4.132,4.132,0,0,0,2.725.022l31.7,78.76-1.107-.088,1.426.837.192.463.213-.242,121.352,71.734c-.064.132-.106.286-.17.418a4.584,4.584,0,0,0,2.746,5.771,4.36,4.36,0,0,0,5.578-2.841,4.584,4.584,0,0,0-2.746-5.77,4.232,4.232,0,0,0-2.555-.088l-21.779-60.964c.042-.11.085-.22.128-.352a4.67,4.67,0,0,0,.213-1.784L929.8,517.578a4.46,4.46,0,0,0,2.831,3.15,4.36,4.36,0,0,0,5.578-2.841,4.584,4.584,0,0,0-2.746-5.771,4.371,4.371,0,0,0-2.7-.044l-28.124-70.721a4.562,4.562,0,0,0,2.129-2.555,4.619,4.619,0,0,0-.766-4.339l37.427-38.3a4.1,4.1,0,0,0,1.405.815,4.36,4.36,0,0,0,5.578-2.841,4.584,4.584,0,0,0-2.746-5.77,4.274,4.274,0,0,0-3.981.617l-38.258-45.591a4.642,4.642,0,0,0,.979-1.674,4.6,4.6,0,0,0-2.086-5.462l25.7-55.788a4.356,4.356,0,0,0,5.514-2.863,4.583,4.583,0,0,0-2.746-5.77,4.748,4.748,0,0,0-1.213-.242l-3.3-46.208a4.436,4.436,0,0,0,3.427-3.017,4.488,4.488,0,0,0,.234-1.277l68-3.788a4.477,4.477,0,0,0,2.938,3.634,4.36,4.36,0,0,0,5.578-2.841,4.584,4.584,0,0,0-2.746-5.77,2.185,2.185,0,0,0-.511-.132l11.56-103.207a4.417,4.417,0,0,0,4.258-3.083,4.584,4.584,0,0,0-2.746-5.77,4.36,4.36,0,0,0-5.578,2.841ZM868.652,142.191l47.242,26.077-48.9,31.165a4.3,4.3,0,0,0-2.044-1.5,5.674,5.674,0,0,0-.83-.2l.916-53.454A4.4,4.4,0,0,0,868.652,142.191ZM738.018,231.3,807.7,292.157,781.47,334.8a2.9,2.9,0,0,0-.6-.264,4.131,4.131,0,0,0-2.725-.022L736.975,232.074A3.948,3.948,0,0,0,738,231.3ZM596.547,259.45l13.285,67.219-20.758-60.744,4.812-7.07a4.117,4.117,0,0,0,.766.352,4.353,4.353,0,0,0,1.895.22ZM473.94,233.968l29.912,29.777-38.087,46.142a4.629,4.629,0,0,0-1.128-.595,5.549,5.549,0,0,0-.575-.154l6.983-74.047a4.408,4.408,0,0,0,2.9-1.1ZM199.919,181.836l48.775,6.453a5.308,5.308,0,0,0,0,1.3l-76.026,32.993L164,181.329a4.428,4.428,0,0,0,3.044-2.929,5.855,5.855,0,0,0,.192-.881l32.637,4.317Zm254.37,221.589a4.364,4.364,0,0,0,4.939-3h0l42.707,10.55L436,476.525a4.161,4.161,0,0,0-1.3-.793l19.587-72.285ZM899.373,343.65l-24.419,38.631L897.9,339.62a4.625,4.625,0,0,0,1.469,4.053ZM927.327,277.8,844.4,318.08a3.88,3.88,0,0,0-.554-.771l60.91-69.708,23.355,25.482a4.551,4.551,0,0,0-.873,1.542,4.687,4.687,0,0,0,.085,3.149Zm-59.186-74.818,130.868,13.5L931.925,220.2a4.478,4.478,0,0,0-2.938-3.634,4.352,4.352,0,0,0-5.514,2.665L868.12,202.979Zm36.619,43.388-37.811-41.274a4.3,4.3,0,0,0,.745-1.388l55.566,16.32a4.632,4.632,0,0,0,1.086,3.9L904.76,246.346Zm-.554.617-60.952,69.752a4.091,4.091,0,0,0-1.214-.661.384.384,0,0,1-.149-.044l21.247-109.242a4.306,4.306,0,0,0,3.257-1.079l37.81,41.3Zm-159.375,52.4,12.646,41.1L725.329,344.2a4.564,4.564,0,0,0-2.065-3l19.182-41.8a4.607,4.607,0,0,0,2.385,0Zm-517.874,70.3-38.513-77.571a5.991,5.991,0,0,0,.894-.771l83.754,65.325-40.536,15.285A4.427,4.427,0,0,0,230,369.6a4.14,4.14,0,0,0-3.044.088Zm60.335-18.369-13.285,5.022L191.3,291.826l96.23,56.471a3.022,3.022,0,0,0-.149.4A4.6,4.6,0,0,0,287.292,351.315ZM190.4,287.4l79.709-24.513L290.1,345.875a4.431,4.431,0,0,0-2.15,1.7L190.1,290.152a3,3,0,0,0,.149-.4,4.7,4.7,0,0,0,.149-2.357Zm113.581-30.658,35.639,56.031L294.829,347.13a4.3,4.3,0,0,0-1.852-1.277,4.842,4.842,0,0,0-.532-.154l9.367-88.407a4.473,4.473,0,0,0,2.193-.573Zm104.98,3.876c.128.154.255.308.383.44l-49.967,74.663a4.642,4.642,0,0,0-.745-.352,4.307,4.307,0,0,0-3.47.286l-14.435-22.707L408.963,260.6Zm4.109,1.652,17.9,58.828-69.6,17.113a4.6,4.6,0,0,0-1.341-2.026l49.946-74.619a5.193,5.193,0,0,0,.979.507,4.332,4.332,0,0,0,2.108.176Zm46.007,52.793a4.43,4.43,0,0,0,2.746,2.841,5.552,5.552,0,0,0,.575.154l-7.3,76.359a4.74,4.74,0,0,0-.958.11l-22.163-72.813,27.081-6.651ZM692.415,446.4a4.49,4.49,0,0,0-.149-2.6L749.621,416l22.823,55.656a4.545,4.545,0,0,0-1.937,2.136l-78.112-27.443ZM942.868,395.54l-37.427,38.3a4.1,4.1,0,0,0-1.405-.815,4.247,4.247,0,0,0-1.022-.22l-.192-39.887,39.088.154a4.785,4.785,0,0,0,.979,2.489Zm-42.6,37.948L872.08,395.694a4.774,4.774,0,0,0,1.171-1.872,5.574,5.574,0,0,0,.213-1.035l28.528.11.192,39.909A4.289,4.289,0,0,0,900.267,433.489Zm1.725-41.428-28.528-.11a4.6,4.6,0,0,0-1.639-3.15l28.23-44.644a5.528,5.528,0,0,0,.809.4,4.423,4.423,0,0,0,.894.22l.234,47.309Zm-60.08-67.329,25.143,63.585a4.4,4.4,0,0,0-1.554,1.41l-53.374-31.848,26.08-33.7a4.788,4.788,0,0,0,1,.507,4.307,4.307,0,0,0,2.683.044Zm-58.845,16.761L810.893,358.1l-31.487,40.679a4.79,4.79,0,0,0-1-.507,1.554,1.554,0,0,0-.341-.088l1.448-54.775a4.338,4.338,0,0,0,3.556-1.916ZM467.617,314.027l83.541.264a4.578,4.578,0,0,0,.085,1.211l-40.238,34.689-44.027-34.226a4.549,4.549,0,0,0,.426-.925,5.589,5.589,0,0,0,.213-1.035Zm69.4,56.383L511.686,350.7l39.833-34.336a4.623,4.623,0,0,0,.958,1.454l-8.984,39.6-2.64,11.629a4.305,4.305,0,0,0-3.811,1.388Zm-26.655-19.668-52.181,45a4.144,4.144,0,0,0-1.682-1.079,5.576,5.576,0,0,0-.575-.154l1.554-16.166,5.748-60.193a4.29,4.29,0,0,0,3.279-1.5l43.857,34.094Zm45.5-31.627,17.1,35.173-29.167,16.629a4.206,4.206,0,0,0-2.193-1.7h0l11.539-50.833a3.728,3.728,0,0,0,.979.485,4.339,4.339,0,0,0,1.746.22ZM607.938,335.3A4.489,4.489,0,0,0,610,336.845a5.657,5.657,0,0,0,1.022.22l.256,8.5,2.661,88.671a3.644,3.644,0,0,0-1.065.286l-38.832-79.861,33.893-19.338Zm112.069,14.228a4.294,4.294,0,0,0,2.363-.088l26.953,65.766L691.947,443a4.375,4.375,0,0,0-2-1.85l30.061-91.622ZM790.05,495.422l-12.5-16.474a4.641,4.641,0,0,0,.575-5.925l16.542-14.58,23.738,73.276a3.013,3.013,0,0,0-.575.33L790.05,495.4Zm-17.266-91.578-22.737,11.012-26.953-65.743a5.613,5.613,0,0,0,.745-.507l49.775,51.075a4.575,4.575,0,0,0-.766,1.432,4.672,4.672,0,0,0-.043,2.753Zm7.26-4.559,31.573-40.79,53.48,31.914a2.666,2.666,0,0,0-.17.44,4.714,4.714,0,0,0-.234,1.52L781.3,401.641a4.522,4.522,0,0,0-1.256-2.357Zm15.009,57.7-16.287-50.3A4.46,4.46,0,0,0,781.151,404a4.712,4.712,0,0,0,.234-1.52l83.392-9.272a5.029,5.029,0,0,0,.7,1.718Zm-.66.595-16.8,14.8a4.113,4.113,0,0,0-1.661-1.057,2.987,2.987,0,0,0-.852-.2l.852-25.262,1.32-38.785a3.838,3.838,0,0,0,.724-.11l16.393,50.613Zm-21.2,13.721-22.823-55.7,22.716-11.012a4.467,4.467,0,0,0,2.491,2.246,2.99,2.99,0,0,0,.852.2l-2.15,64.048A3.807,3.807,0,0,0,773.189,471.3ZM657.756,400.121l-43.729-63.959a4.574,4.574,0,0,0,1.533-2.181.719.719,0,0,1,.064-.2l62.166,6.916,38.811,4.317a4.667,4.667,0,0,0,.809,2.665L657.756,400.1Zm67.638-55.106,32.318-3.744,17.564,57.088a5.831,5.831,0,0,0-.937.551l-49.946-50.921a4.707,4.707,0,0,0,.766-1.41,4.846,4.846,0,0,0,.234-1.542ZM821.218,531.41a4.094,4.094,0,0,0-2.065.022l-23.845-73.584,70.682-62.286a4.251,4.251,0,0,0,1.235.881Zm-135.3-90.058L658.2,400.8l59.718-52.463a4.125,4.125,0,0,0,1.277.9l-30.061,91.622a4.176,4.176,0,0,0-3.215.485Zm-68.4-5.881a4.186,4.186,0,0,0-2.81-1.277l-2.917-97.15a4.006,4.006,0,0,0,1.511-.441l43.793,64.07-39.6,34.8Zm-6.131,0-67.574-59.422a4.525,4.525,0,0,0,.511-1.079,4.577,4.577,0,0,0-.17-3.326l29.125-16.607,38.811,79.839a4.974,4.974,0,0,0-.745.595ZM535.85,374.286l-76.707,22.972a4.5,4.5,0,0,0-.468-.9l52.33-45.106,25.484,19.822a4.2,4.2,0,0,0-.468.991,4.518,4.518,0,0,0-.17,2.246Zm23.738-58.057,47.455,15.7a4.643,4.643,0,0,0,.426,2.643L573.64,353.87,556.65,318.939a4.42,4.42,0,0,0,2.917-2.709Zm215.5,23.038a4.528,4.528,0,0,0,2.959,3.876,3.37,3.37,0,0,0,.639.154l-1.448,54.709a4.512,4.512,0,0,0-1.214.088l-17.5-56.934,16.563-1.916Zm8.686-1.3,52.756-15.946a4.334,4.334,0,0,0,1.043,1.586L811.4,357.394l-27.932-16.673a2.676,2.676,0,0,0,.17-.44,4.609,4.609,0,0,0,.149-2.335Zm145.281-58.057L870.845,388.14c-.106-.044-.234-.11-.362-.154a4.3,4.3,0,0,0-2.683-.044l-25.143-63.585a4.562,4.562,0,0,0,2.129-2.555,4.65,4.65,0,0,0-.021-3l82.945-40.3a4.7,4.7,0,0,0,1.362,1.41ZM904.8,343.87l38.258,45.591a4.643,4.643,0,0,0-.979,1.674,5.58,5.58,0,0,0-.213,1.035l-39.088-.154-.234-47.309a4.361,4.361,0,0,0,2.257-.837Zm-5.386,96.556-2.9,3.458L871.8,396.707l27.783,37.244a4.772,4.772,0,0,0-1.171,1.872,4.609,4.609,0,0,0,1,4.6Zm-3.449,4.141-73.173,87.592a3.073,3.073,0,0,0-.638-.374l-.106-.286,45.943-134.768a4.3,4.3,0,0,0,2.789-.22l25.186,48.08ZM816.811,533l-61.016-41.825L770.165,475a4.557,4.557,0,0,0,2.938,4.933,4.249,4.249,0,0,0,3.79-.485l40.28,53.123A3.367,3.367,0,0,0,816.811,533Zm-61.7-42.287-63.124-43.256s.106-.2.149-.286l77.495,27.222-14.52,16.342Zm-71.3-46.208-64.955-5.792a4.753,4.753,0,0,0-.788-2.577l39.535-34.755,27.677,40.481a4.491,4.491,0,0,0-1.3,1.982,3.687,3.687,0,0,0-.149.661Zm-72.939-8.369a5.046,5.046,0,0,0-.4.749L503.6,410.495l33.723-33.521a4.142,4.142,0,0,0,1.469.859,4.27,4.27,0,0,0,4.535-1.123l67.552,59.4ZM502.66,410.275l-43.218-10.682a4.412,4.412,0,0,0-.043-1.5l76.686-22.972a4.629,4.629,0,0,0,.681,1.233l-34.106,33.9Zm-51.138-13.964L361.189,341.6l.192-.463a4.714,4.714,0,0,0,.192-2.092l69.66-17.135L453.4,394.769A4.431,4.431,0,0,0,451.522,396.311Zm-98.7-56.361-57.035,9.118a4.565,4.565,0,0,0-.511-1.255l44.772-34.336,14.413,22.663a4.657,4.657,0,0,0-1.426,2.092,4.9,4.9,0,0,0-.234,1.74Zm-61.229,14.756,1.363,13.171a4.5,4.5,0,0,0-2.384,1.388l-15.8-12.334,12.8-4.823a4.427,4.427,0,0,0,2.555,2.357A4.282,4.282,0,0,0,291.593,354.706Zm-2.15,17.311-56.482,1.388c-.021-.22-.064-.419-.106-.639l41.025-15.483L290.1,369.948a4.538,4.538,0,0,0-.426.925,4.342,4.342,0,0,0-.213,1.145Zm-63.231-1.96-55.481-74.245,11.518-5.308a4.409,4.409,0,0,0,2.406,2.092,4.141,4.141,0,0,0,3.044-.088l38.513,77.549ZM170.22,295.13,132.9,245.178s.128-.154.17-.22L182.4,285.814a5.1,5.1,0,0,0-.49,1.035,4.677,4.677,0,0,0,0,2.907L170.22,295.13Zm-36.576-54.687,38.449-16.673,12.646,60.215a4.4,4.4,0,0,0-1.831,1.167l-49.392-40.9.255-.595a4.564,4.564,0,0,0-.106-3.194Zm39.216-17,76.047-32.993a4.653,4.653,0,0,0,.83,1.454L188.21,284.36a4.329,4.329,0,0,0-.724-.33,4.178,4.178,0,0,0-1.937-.2L172.86,223.462Zm80.5-30L269.9,262.093l-79.73,24.513a4.982,4.982,0,0,0-1.256-1.806l61.442-92.349a4.443,4.443,0,0,0,1.3.727,4.236,4.236,0,0,0,1.724.22Zm44.368,60.964a4.492,4.492,0,0,0,2.7,2.687,5.183,5.183,0,0,0,.553.154l-9.367,88.407a4.227,4.227,0,0,0-.745.044l-19.991-83.033,26.868-8.259Zm8.473-1.1,101.786,4.625a4.368,4.368,0,0,0,.511,2L340.24,312.287l-35.618-56.008a4.576,4.576,0,0,0,1.363-2.026A4.692,4.692,0,0,0,306.2,253.305Zm108.77,8.149,44.964,49.159a4.662,4.662,0,0,0-.852,1.542,4.714,4.714,0,0,0-.192,2.092l-27.144,6.673-17.9-58.85a4.358,4.358,0,0,0,1.128-.617Zm89.481,2.885,47.646,47.419a4.378,4.378,0,0,0-.724,1.366,1.9,1.9,0,0,0-.085.33l-83.669-.264a4.588,4.588,0,0,0-1.235-2.753l38.066-46.1Zm.532-.639,55.95-67.77a4.629,4.629,0,0,0,1.128.595,3.878,3.878,0,0,0,.724.176l-7.345,113.361a4.208,4.208,0,0,0-2.746,1.1L505,263.7Zm59.569-67.065,23.653,69.2-30.466,44.82a4.119,4.119,0,0,0-.766-.352,3.887,3.887,0,0,0-.724-.176l7.345-113.361a3.476,3.476,0,0,0,.958-.132Zm23.972,70.17,21.056,61.625a4.449,4.449,0,0,0-2.321,2.665v.044l-47.412-15.681a4.625,4.625,0,0,0-1.469-4.317l30.146-44.336Zm27.272,65.281,123.779-35.239a4.529,4.529,0,0,0,2.108,2.291L722.519,340.9a.3.3,0,0,1-.085-.044,4.36,4.36,0,0,0-5.578,2.841,5.328,5.328,0,0,0-.149.551L615.772,333.012a6.684,6.684,0,0,0,0-.925Zm130.485-33.433,30.168,36.957a4.551,4.551,0,0,0-1.107,1.806,6.422,6.422,0,0,0-.213,1.035l-16.819,1.938L745.6,299.072a4.529,4.529,0,0,0,.681-.441Zm62.081-5.9,28.677,25.042a4.352,4.352,0,0,0-.554,1.145,4.611,4.611,0,0,0-.149,2.335l-52.756,15.946a4.534,4.534,0,0,0-1.384-1.916l26.165-42.529Zm.447-.7,52.756-85.72a2.906,2.906,0,0,0,.6.264c.064.022.149.044.213.066L841.124,315.9a4.232,4.232,0,0,0-3.534,1.277l-28.763-25.13ZM916.746,168.775l83.541,46.1a2.735,2.735,0,0,0-.107.286,6.076,6.076,0,0,0-.149.595L867.949,202.12a4.346,4.346,0,0,0-.49-1.938l49.286-31.429Zm.809-.507,95.825-61.1a4.265,4.265,0,0,0,2.108,1.564,2.185,2.185,0,0,0,.511.132l-11.56,103.207a4.354,4.354,0,0,0-3.768,2.048l-83.115-45.877Zm9.964,57.176,3.3,46.186a4.265,4.265,0,0,0-2.086.9l-23.4-25.549,19.629-22.465a4.313,4.313,0,0,0,2.533.9Zm-1.873,62.638L903.61,335.919a4.236,4.236,0,0,0-4.13.837l26.187-48.674Zm-21.737,153.6L930.8,509.3l-33.83-64.554,3.087-3.7a4.827,4.827,0,0,0,1.15.617,4.217,4.217,0,0,0,2.7.044Zm-79.39,93.076a4.588,4.588,0,0,0-1.086-2l72.981-87.35,35.235,67.241a4.486,4.486,0,0,0-1.724,2.313,4.672,4.672,0,0,0-.213,1.784L824.539,534.735Zm-101-5.308,92.355,6.563a4.487,4.487,0,0,0,2.981,4.185,4.336,4.336,0,0,0,4.918-1.564l21.545,60.3a4.332,4.332,0,0,0-1.7,1.5l-120.1-71.007Zm31.743-37.6,61.123,41.891a6.528,6.528,0,0,0-.3.683,4.458,4.458,0,0,0-.17.727l-93.292-6.63,32.616-36.693ZM690.2,449.368a4.382,4.382,0,0,0,1.363-1.167l63.018,43.19L721.9,528.15l-31.7-78.782Zm-252.88,29.183a4.753,4.753,0,0,0-.724-1.388l66.318-65.92,105.64,26.077ZM359.7,343.452a4.365,4.365,0,0,0,1.086-1.1l90.332,54.709-.192.462a4.6,4.6,0,0,0,2.6,5.7l-19.587,72.285a4.275,4.275,0,0,0-2.576.308L359.7,343.43ZM297.554,369.97a4.429,4.429,0,0,0-2.321-1.916,4.282,4.282,0,0,0-1.469-.242L292.4,354.64a4.46,4.46,0,0,0,3.3-3,4.909,4.909,0,0,0,.234-1.74l57.035-9.118a5.062,5.062,0,0,0,.17.529l-55.566,28.61ZM140.137,313.388a4.363,4.363,0,0,0,.277-.661,4.677,4.677,0,0,0,0-2.907l29.571-13.611,55.609,74.443a4.532,4.532,0,0,0-.426.485L140.137,313.41Zm-9.5-66.757a4.5,4.5,0,0,0,1.682-.837l37.151,49.732-29.38,13.523a4.409,4.409,0,0,0-2.406-2.092,4.048,4.048,0,0,0-1.426-.242l-5.6-60.083Zm30.168-65.655a3.824,3.824,0,0,0,.681.308,4.238,4.238,0,0,0,1.724.22l8.707,41.428-38.641,16.761a4.321,4.321,0,0,0-1.363-1.366l28.89-57.374Zm138.043,68.5a4.467,4.467,0,0,0-1.171,1.872,4.6,4.6,0,0,0-.17,2.269l-26.846,8.259L254.144,193.31a4.065,4.065,0,0,0,1.214-.551l43.474,56.691Zm168.4-16.651a4.372,4.372,0,0,0,2.406,2.07,5.56,5.56,0,0,0,.575.154l-6.983,74.047a4.351,4.351,0,0,0-2.725.969l-44.943-49.137a4.512,4.512,0,0,0,.958-1.652,4.748,4.748,0,0,0,0-2.929L467.255,232.8Zm92.291-38.477a4.234,4.234,0,0,0,.766,1.1l-55.928,67.726-29.891-29.733a4.379,4.379,0,0,0,.724-1.366,4.674,4.674,0,0,0,.043-2.753l84.265-34.953Zm34.106,56.867a4.375,4.375,0,0,0-1.724,2.313,4.653,4.653,0,0,0,1.32,4.911l-4.471,6.585-23.163-67.77,28.06,53.96Zm145.686,42.816a4.536,4.536,0,0,0,0,2.07L615.644,331.316a4.44,4.44,0,0,0-2.789-3,4.353,4.353,0,0,0-1.895-.22l-13.583-68.739a4.459,4.459,0,0,0,2.853-2.8l139.129,37.486Zm-3.406-61.471c.107-.022.213-.066.319-.088l41.174,102.436c-.128.066-.255.154-.362.22l-30.189-37a4.407,4.407,0,0,0,.894-1.586,4.584,4.584,0,0,0-2.746-5.77,4.475,4.475,0,0,0-1.6-.242Zm123.353-29.117a4.5,4.5,0,0,0,1.554,2.445l-52.692,85.632-69.6-60.788a4.357,4.357,0,0,0,.553-1.145,4.556,4.556,0,0,0,.213-1.916l119.968-24.227ZM1012.7,105.851a5.214,5.214,0,0,0,.234.617L916.7,167.806l-47.668-26.319a2.236,2.236,0,0,0,.085-.242,4.438,4.438,0,0,0,.149-2.291l143.408-33.125Z" transform="translate(-125.188 -99.878)" fill="#ff8819"/>
            <ellipse id="Elipse_17" data-name="Elipse 17" cx="15.882" cy="16.43" rx="15.882" ry="16.43" transform="translate(313.197 497.363)" fill="#ff4d00"/>
            <ellipse id="Elipse_18" data-name="Elipse 18" cx="15.882" cy="16.43" rx="15.882" ry="16.43" transform="translate(274.769 497.363)" fill="#ff8819"/>
          </g>
          <rect id="Rectángulo_92" data-name="Rectángulo 92" width="568.058" height="549.106" transform="translate(147.197 568.058) rotate(-90)" fill="none"/>
          <path id="Trazado_221" data-name="Trazado 221" d="M424.885,156.189a8.668,8.668,0,0,0,3.3-11.541,8.092,8.092,0,0,0-11.156-3.414,8.668,8.668,0,0,0-3.3,11.541A8.092,8.092,0,0,0,424.885,156.189Z" transform="translate(127.158 168.586)" fill="#ff8819"/>
          <path id="Trazado_222" data-name="Trazado 222" d="M364.986,183.209a8.668,8.668,0,0,0,3.3-11.541,8.092,8.092,0,0,0-11.156-3.414,8.668,8.668,0,0,0-3.3,11.541A8.093,8.093,0,0,0,364.986,183.209Z" transform="translate(59.533 201.076)" fill="#ff8819"/>
          <path id="Trazado_223" data-name="Trazado 223" d="M261.976,164.6a8.668,8.668,0,0,0,3.3-11.541,8.092,8.092,0,0,0-11.156-3.414,8.668,8.668,0,0,0-3.3,11.541,8.092,8.092,0,0,0,11.156,3.414Z" transform="translate(-56.763 178.699)" fill="#ff8819"/>
          <path id="Trazado_224" data-name="Trazado 224" d="M470.475,256.919a8.668,8.668,0,0,0,3.3-11.541,8.092,8.092,0,0,0-11.156-3.414,8.668,8.668,0,0,0-3.3,11.541A8.092,8.092,0,0,0,470.475,256.919Z" transform="translate(178.628 289.71)" fill="#ff8819"/>
          <path id="Trazado_225" data-name="Trazado 225" d="M361.146,242.059a8.668,8.668,0,0,0,3.3-11.541A8.092,8.092,0,0,0,353.29,227.1a8.668,8.668,0,0,0-3.3,11.541A8.092,8.092,0,0,0,361.146,242.059Z" transform="translate(55.197 271.841)" fill="#ff8819"/>
          <path id="Trazado_226" data-name="Trazado 226" d="M270.875,227.989a8.668,8.668,0,0,0,3.3-11.541,8.092,8.092,0,0,0-11.156-3.414,8.668,8.668,0,0,0-3.3,11.541A8.092,8.092,0,0,0,270.875,227.989Z" transform="translate(-46.715 254.922)" fill="#ff8819"/>
          <path id="Trazado_227" data-name="Trazado 227" d="M479.015,120.549a8.668,8.668,0,0,0,3.3-11.541,8.092,8.092,0,0,0-11.156-3.414,8.668,8.668,0,0,0-3.3,11.541A8.092,8.092,0,0,0,479.015,120.549Z" transform="translate(188.27 125.73)" fill="#ff8819"/>
          <path id="Trazado_228" data-name="Trazado 228" d="M393.485,231.1a8.668,8.668,0,0,0,3.3-11.541,8.092,8.092,0,0,0-11.156-3.414,8.668,8.668,0,0,0-3.3,11.541A8.092,8.092,0,0,0,393.485,231.1Z" transform="translate(91.708 258.662)" fill="#ff8819"/>
        </g>
      </g>
      <g id="Grupo_66" data-name="Grupo 66" transform="translate(663.26 110.579)" opacity="0.24">
        <path id="Trazado_229" data-name="Trazado 229" d="M466.65,114.8l3.55,6.164,6.879,11.915,10.7-18.079Z" transform="translate(-466.65 -108.911)" fill="none" stroke="#fff" stroke-width="0.25"/>
        <path id="Trazado_230" data-name="Trazado 230" d="M466.65,125.21h6.976l-3.426-5.93Z" transform="translate(-466.65 -107.227)" fill="none" stroke="#fff" stroke-width="0.25"/>
        <path id="Trazado_231" data-name="Trazado 231" d="M471.8,116.436l3.577-5.916,3.371,5.916Z" transform="translate(-464.714 -110.52)" fill="none" stroke="#fff" stroke-width="0.25"/>
        <path id="Trazado_232" data-name="Trazado 232" d="M480.391,119.19l-3.591,6.054h7Z" transform="translate(-462.835 -107.261)" fill="none" stroke="#fff" stroke-width="0.25"/>
        <path id="Trazado_233" data-name="Trazado 233" d="M475.815,114.82l-5.325,8.971,10.5.041Z" transform="translate(-465.207 -108.904)" fill="none" stroke="#fff" stroke-width="0.25"/>
        <line id="Línea_13" data-name="Línea 13" y2="11.791" transform="translate(10.663)" fill="none" stroke="#fff" stroke-width="0.25"/>
        <line id="Línea_14" data-name="Línea 14" y1="6.191" x2="10.567" transform="translate(0 11.791)" fill="none" stroke="#fff" stroke-width="0.25"/>
        <line id="Línea_15" data-name="Línea 15" x1="10.305" y1="6.191" transform="translate(10.663 11.791)" fill="none" stroke="#fff" stroke-width="0.25"/>
      </g>
    </g>
  </g>
</svg>
