<svg xmlns="http://www.w3.org/2000/svg" width="160.049" height="188.687" viewBox="0 0 160.049 188.687"><g transform="matrix(0.94, -0.342, 0.342, 0.94, -1784.755, -72.66)"><g transform="translate(1641 719)" fill="#ef4f1c"><path d="M 55 155.394287109375 C 48.16837310791016 155.394287109375 41.21281433105469 151.6094512939453 34.32651901245117 144.1449432373047 C 31.19549942016602 140.7510223388672 28.09045791625977 136.5951690673828 25.09766578674316 131.7928161621094 C 22.28904151916504 127.2859954833984 19.5703125 122.1975173950195 17.0169792175293 116.6687469482422 C 12.2676248550415 106.3848114013672 8.212916374206543 94.88439178466797 5.291250228881836 83.41083526611328 C 2.523999929428101 72.54368591308594 1 62.45385360717773 1 55 C 1 51.3303108215332 1.370791673660278 47.60343551635742 2.102062463760376 43.92287445068359 C 2.816645860671997 40.32633209228516 3.880729198455811 36.74566650390625 5.264770984649658 33.28031158447266 C 6.630000114440918 29.86203956604004 8.314042091369629 26.53662300109863 10.27012538909912 23.39641571044922 C 12.22012519836426 20.26599884033203 14.44931221008301 17.30531120300293 16.89579200744629 14.59664440155029 C 19.36120796203613 11.86699867248535 22.05952072143555 9.379894256591797 24.91581344604492 7.204415321350098 C 27.82343673706055 4.989831924438477 30.91437530517578 3.083602905273438 34.10274887084961 1.538665413856506 C 40.81870651245117 -1.715522050857544 47.87954330444336 -3.365542888641357 55.08910369873047 -3.365542888641357 C 62.2972297668457 -3.365542888641357 69.34839630126953 -1.715667843818665 76.04670715332031 1.538227915763855 C 79.22624969482422 3.082790374755859 82.30743408203125 4.988811492919922 85.20464324951172 7.203373908996582 C 88.05000305175781 9.378269195556641 90.73727416992188 11.86516571044922 93.19183349609375 14.59497833251953 C 95.62673187255859 17.30293655395508 97.84500122070312 20.26349830627441 99.78501892089844 23.3944149017334 C 101.7303314208984 26.53387451171875 103.4049377441406 29.85933303833008 104.7623138427734 33.27839279174805 C 106.1378326416016 36.74314498901367 107.1952896118164 40.32403945922852 107.9053573608398 43.92164611816406 C 108.631706237793 47.60183334350586 109 51.32912445068359 109 55 C 109 62.45385360717773 107.4759979248047 72.54368591308594 104.7087478637695 83.41083526611328 C 101.7870864868164 94.88439178466797 97.73237609863281 106.3848114013672 92.98302459716797 116.6687469482422 C 90.4296875 122.1975173950195 87.71096038818359 127.2859954833984 84.90233612060547 131.7928161621094 C 81.90953826904297 136.5951690673828 78.80449676513672 140.7510223388672 75.67347717285156 144.1449432373047 C 68.78718566894531 151.6094512939453 61.83162689208984 155.394287109375 55 155.394287109375 Z" stroke="none"/><path d="M 55.08910751342773 -2.36553955078125 C 48.03182601928711 -2.36553955078125 41.11771392822266 -0.7491912841796875 34.53880310058594 2.4385986328125 C 31.41024017333984 3.95452880859375 28.37645721435547 5.825637817382812 25.52172088623047 7.99993896484375 C 22.7144775390625 10.13807678222656 20.06199645996094 12.58302307128906 17.63791656494141 15.26689147949219 C 15.23100280761719 17.9317626953125 13.03769683837891 20.84483337402344 11.11891174316406 23.92514038085938 C 9.193977355957031 27.01532745361328 7.536827087402344 30.28765869140625 6.193435668945312 33.65119934082031 C 4.832084655761719 37.05976867675781 3.785545349121094 40.58122253417969 3.082893371582031 44.11774444580078 C 2.364326477050781 47.73428344726562 2 51.39559173583984 2 55.00000762939453 C 2 62.373046875 3.513023376464844 72.37522125244141 6.260322570800781 83.16404724121094 C 9.16717529296875 94.57935333251953 13.20069885253906 106.0201110839844 17.92485046386719 116.2494812011719 C 20.46080780029297 121.7406539916992 23.15962982177734 126.7922439575195 25.94635009765625 131.263916015625 C 28.90608978271484 136.0132141113281 31.97289276123047 140.118896484375 35.0615234375 143.4668731689453 C 41.75076293945312 150.7177581787109 48.45902252197266 154.394287109375 55 154.394287109375 C 61.54097747802734 154.394287109375 68.24923706054688 150.7177581787109 74.9384765625 143.4668731689453 C 78.02710723876953 140.118896484375 81.09391021728516 136.0132141113281 84.05364990234375 131.263916015625 C 86.84037017822266 126.7922439575195 89.53919982910156 121.7406539916992 92.07514953613281 116.2494812011719 C 96.79930114746094 106.0201110839844 100.8328247070312 94.57935333251953 103.7396774291992 83.16404724121094 C 106.4869766235352 72.37522125244141 108 62.373046875 108 55.00000762939453 C 108 51.39398193359375 107.6380615234375 47.73182678222656 106.9242858886719 44.11526489257812 C 106.2260208129883 40.57743835449219 105.1859130859375 37.05552673339844 103.832893371582 33.64737701416016 C 102.4971923828125 30.28298187255859 100.8493041992188 27.01058959960938 98.93498229980469 23.92111206054688 C 97.02606201171875 20.84042358398438 94.84361267089844 17.9276123046875 92.44821929931641 15.26359558105469 C 90.03500366210938 12.57974243164062 87.39358520507812 10.13519287109375 84.59736633300781 7.997848510742188 C 81.75315093994141 5.823806762695312 78.72927856445312 3.953109741210938 75.60975646972656 2.437728881835938 C 69.04873657226562 -0.7494964599609375 62.14458847045898 -2.36553955078125 55.08910751342773 -2.36553955078125 M 55.08910751342773 -4.36553955078125 C 85.46475982666016 -4.36553955078125 110 24.62432861328125 110 55.00000762939453 C 110 85.37565612792969 85.37565612792969 156.394287109375 55 156.394287109375 C 24.62435150146484 156.394287109375 0 85.37565612792969 0 55.00000762939453 C 0 24.62432861328125 24.71345520019531 -4.36553955078125 55.08910751342773 -4.36553955078125 Z" stroke="none" fill="#000"/></g><path d="M53.089-6.872C71.086-5.3,87.208-4.7,94.052,39.08S65.976,140.816,41.423,140.816-1.1,96.206-.366,53.408,35.091-8.443,53.089-6.872Z" transform="translate(1635.597 735.966) rotate(-11)" fill="#f98323"/><path d="M19.036-1.834c11.586.807,21.106-1.492,24.318,21.068s-13.176,52.42-24.7,52.42S-1.476,39.839-1.476,27.188,7.451-2.641,19.036-1.834Z" transform="translate(1659.593 737.858) rotate(-11)" fill="#fd9b27"/><path d="M4.053-1.852c3.123.269,5.689-.5,6.555,7.021S7.057,22.638,3.951,22.638s-5.427-10.6-5.427-14.818S.93-2.121,4.053-1.852Z" transform="translate(1688.99 819.316) rotate(-85)" fill="#fd9b27"/><path d="M2023.38,473.9a21.119,21.119,0,0,0,1.71,5.175c1.163,2.189,2.76,4.526,2.76,4.526a5.728,5.728,0,0,1-4.47-3.789A6.855,6.855,0,0,1,2023.38,473.9Z" transform="translate(-346.876 303.327)" fill="#fff" stroke="#fff" stroke-width="1"/><path d="M2022.915,473.9a25.1,25.1,0,0,0,.468,3.126c.318,1.322.756,2.734.756,2.734s-.829-.15-1.224-2.289A8.711,8.711,0,0,1,2022.915,473.9Z" transform="translate(906.808 2738.403) rotate(-81)" fill="#fff" stroke="#fff" stroke-width="1"/><path d="M2023,473.9a8.662,8.662,0,0,0,.7,2.123c.477.9,1.132,1.857,1.132,1.857a2.349,2.349,0,0,1-1.833-1.554A2.811,2.811,0,0,1,2023,473.9Z" transform="translate(42.81 -520.762) rotate(25)" fill="#fff" stroke="#fff" stroke-width="1"/><path d="M1703.792,874.269" fill="none" stroke="#707070" stroke-width="1"/><path d="M2109.981,543.658l.2.8-.2,3.149c-1.024.516-5.369.332-2.476,2s7.173,1.778,8.9.774,2.745-2.378.666-2.772a2.811,2.811,0,0,1-.661-.261c-1.436-.466-1.624-3.688-1.624-3.688Z" transform="translate(-416.993 331.736)" fill="#ef4f1c" stroke="#000" stroke-width="2"/></g></svg>