<svg xmlns="http://www.w3.org/2000/svg" width="38.568" height="38.568" viewBox="0 0 38.568 38.568">
  <g id="noun-close-2389681" transform="translate(-93.334 -23.332)">
    <path id="Trazado_111743" data-name="Trazado 111743" d="M255.789,187.083a1.753,1.753,0,0,1,2.472,0l4.032,4.032,4.015-4.032a1.76,1.76,0,0,1,2.489,2.489l-4.032,4.015L268.8,197.6a1.753,1.753,0,1,1-2.472,2.472l-4.032-4.015-4.015,4.015a1.753,1.753,0,0,1-2.472-2.472l4.015-4.015-4.015-4.015a1.753,1.753,0,0,1-.018-2.489Z" transform="translate(-149.676 -150.971)" fill="#4d4d4d"/>
    <path id="Trazado_111744" data-name="Trazado 111744" d="M112.618,23.332A19.284,19.284,0,1,1,98.982,28.98a19.284,19.284,0,0,1,13.636-5.648Zm0,35.062a15.778,15.778,0,1,0-11.157-4.621A15.777,15.777,0,0,0,112.618,58.394Z" transform="translate(0 0)" fill="#4d4d4d"/>
  </g>
</svg>
