<svg xmlns="http://www.w3.org/2000/svg" width="57" height="57" viewBox="0 0 57 57">
  <g id="Grupo_35229" data-name="Grupo 35229" transform="translate(-110 -321)">
    <circle id="Elipse_11248" data-name="Elipse 11248" cx="28.5" cy="28.5" r="28.5" transform="translate(110 321)" fill="#26a9bf"/>
    <g id="noun-phone-4819364" transform="translate(126.967 335.19)">
      <path id="Trazado_112054" data-name="Trazado 112054" d="M165.768,54.8l-4.391,3.182a2.207,2.207,0,0,1-1.342.415,4.99,4.99,0,0,1-1.986-.5c-5.872-2.623-14.878-15.05-15.543-21.447-.16-1.541.161-2.614.955-3.189l4.391-3.182c.507-.367,1.225.055,1.547.5l2.979,4.111c.513.708.355,1.08-.167,1.6a8.082,8.082,0,0,1-.838.7l-.024.018a4.553,4.553,0,0,0-1.922,2.265,3.226,3.226,0,0,0,.782,2.732l4.959,6.844a3.227,3.227,0,0,0,2.352,1.594,4.551,4.551,0,0,0,2.752-1.121l.055-.038a3.958,3.958,0,0,1,1.6-.786,1.076,1.076,0,0,1,.87.567l2.979,4.11a1.747,1.747,0,0,1,.3.8.858.858,0,0,1-.31.822Z" transform="translate(-142.466 -29.941)" fill="#fff"/>
    </g>
  </g>
</svg>
