<svg xmlns="http://www.w3.org/2000/svg" xmlns:xlink="http://www.w3.org/1999/xlink" width="32.928" height="61.658" viewBox="0 0 32.928 61.658">
  <defs>
    <linearGradient id="linear-gradient" x1="-0.085" y1="0.5" x2="1.065" y2="0.5" gradientUnits="objectBoundingBox">
      <stop offset="0" stop-color="#fcb148"/>
      <stop offset="0.052" stop-color="#fdb946"/>
      <stop offset="0.142" stop-color="#fec144"/>
      <stop offset="0.318" stop-color="#ffc444"/>
      <stop offset="0.485" stop-color="#fdb946"/>
      <stop offset="0.775" stop-color="#f99c4c"/>
      <stop offset="0.866" stop-color="#f8924f"/>
      <stop offset="1" stop-color="#f8924f"/>
    </linearGradient>
    <linearGradient id="linear-gradient-2" x1="0.495" y1="0.179" x2="0.556" y2="4.091" gradientUnits="objectBoundingBox">
      <stop offset="0" stop-color="#ffdb44"/>
      <stop offset="1" stop-color="#feef06"/>
    </linearGradient>
    <linearGradient id="linear-gradient-3" x1="0.492" y1="-0.777" x2="0.511" y2="1.295" xlink:href="#linear-gradient-2"/>
    <linearGradient id="linear-gradient-4" x1="-1.241" y1="-19.07" x2="-1.222" y2="-16.638" gradientUnits="objectBoundingBox">
      <stop offset="0.004" stop-color="#f36f56"/>
      <stop offset="0.306" stop-color="#f99c4c"/>
      <stop offset="0.545" stop-color="#fdb946"/>
      <stop offset="0.682" stop-color="#ffc444"/>
      <stop offset="0.804" stop-color="#fec144"/>
      <stop offset="0.867" stop-color="#fdb946"/>
      <stop offset="0.916" stop-color="#fbac49"/>
      <stop offset="0.958" stop-color="#f8994d"/>
      <stop offset="0.995" stop-color="#f58152"/>
      <stop offset="1" stop-color="#f57e53"/>
    </linearGradient>
    <linearGradient id="linear-gradient-8" x1="-0.959" y1="-15.424" x2="-0.94" y2="-12.992" xlink:href="#linear-gradient-4"/>
    <linearGradient id="linear-gradient-12" x1="-1.202" y1="-11.788" x2="-1.183" y2="-9.357" xlink:href="#linear-gradient-4"/>
    <linearGradient id="linear-gradient-16" x1="-1.35" y1="-8.142" x2="-1.331" y2="-5.711" xlink:href="#linear-gradient-4"/>
    <linearGradient id="linear-gradient-20" x1="-1.241" y1="-4.209" x2="-1.222" y2="-1.777" xlink:href="#linear-gradient-4"/>
    <linearGradient id="linear-gradient-24" x1="-0.959" y1="-0.563" x2="-0.94" y2="1.869" xlink:href="#linear-gradient-4"/>
    <linearGradient id="linear-gradient-27" x1="-1.202" y1="3.073" x2="-1.183" y2="5.504" xlink:href="#linear-gradient-4"/>
    <linearGradient id="linear-gradient-32" x1="-1.076" y1="6.718" x2="-1.057" y2="9.15" xlink:href="#linear-gradient-4"/>
    <linearGradient id="linear-gradient-33" x1="0.329" y1="0.554" x2="-0.255" y2="0.738" xlink:href="#linear-gradient"/>
    <linearGradient id="linear-gradient-34" x1="0.727" y1="0.007" x2="0.207" y2="1.135" xlink:href="#linear-gradient-2"/>
    <linearGradient id="linear-gradient-35" x1="0.636" y1="1.231" x2="0.531" y2="0.666" xlink:href="#linear-gradient"/>
    <linearGradient id="linear-gradient-36" x1="0.409" y1="0.31" x2="0.858" y2="1.247" xlink:href="#linear-gradient"/>
  </defs>
  <g id="Grupo_34984" data-name="Grupo 34984" transform="translate(-327.037 -114.594)">
    <g id="Grupo_4068" data-name="Grupo 4068" transform="translate(327.037 143.32)">
      <g id="Grupo_4053" data-name="Grupo 4053" transform="translate(2.817 26.694)">
        <path id="Trazado_86866" data-name="Trazado 86866" d="M1341.408,2926.126V2929c0,.929,6.425,1.681,14.351,1.681s14.351-.752,14.351-1.681v-2.875Z" transform="translate(-1341.4 -2924.444)" fill="url(#linear-gradient)"/>
        <ellipse id="Elipse_122" data-name="Elipse 122" cx="14.351" cy="1.682" rx="14.351" ry="1.682" transform="translate(0.008)" fill="url(#linear-gradient-2)"/>
        <path id="Trazado_86867" data-name="Trazado 86867" d="M1355.348,2919.64c-7.019,0-14.358-.605-14.358-1.773,0-.064.026-.177.1-.177s.041.088.041.152c0,.741,5.84,1.566,14.221,1.566s14.221-.825,14.221-1.566c0-.064.012-.124.083-.124s.054.085.054.15C1369.707,2919.035,1362.367,2919.64,1355.348,2919.64Z" transform="translate(-1340.99 -2916.16)" fill="url(#linear-gradient-3)"/>
        <g id="Grupo_4052" data-name="Grupo 4052" transform="translate(6.104 1.045)">
          <path id="Trazado_86868" data-name="Trazado 86868" d="M1613.975,2891.565c.127-.088.263-.175.407-.261a2.6,2.6,0,0,1,.557-.232,5.276,5.276,0,0,1,.854-.169,10.844,10.844,0,0,1,1.279-.069q.751,0,1.41.047a9.557,9.557,0,0,1,1.16.154,3.61,3.61,0,0,1,.814.252.646.646,0,0,1,.372.345l1.459.015a1.424,1.424,0,0,1,.28.026c.081.017.121.038.121.063v.121l-1.876-.019a.943.943,0,0,1-.5.4,5.1,5.1,0,0,1-1.029.317l-.683-.095a.81.81,0,0,1-.151-.036c-.039-.014-.059-.029-.059-.046s.053-.05.159-.079.225-.067.358-.11a3.544,3.544,0,0,0,.392-.155.533.533,0,0,0,.257-.213l-4.427-.044a4.345,4.345,0,0,1-.391.252,2.549,2.549,0,0,1-.575.223,5.925,5.925,0,0,1-.891.161,12.572,12.572,0,0,1-1.343.066c-.406,0-.8-.014-1.188-.046a8.079,8.079,0,0,1-1.031-.147,3.263,3.263,0,0,1-.74-.242c-.192-.1-.3-.207-.322-.332l-1.2-.012a1.546,1.546,0,0,1-.284-.025c-.083-.016-.125-.037-.125-.064v-.12l1.642.016a.882.882,0,0,1,.449-.331,5.167,5.167,0,0,1,.833-.251l.55.076c.167.024.25.051.25.083s-.033.038-.1.063l-.247.091a2.317,2.317,0,0,0-.273.123.586.586,0,0,0-.2.16Zm-4.052.164a.437.437,0,0,0,.218.2,1.715,1.715,0,0,0,.417.141,4.192,4.192,0,0,0,.562.082q.314.025.656.024a6.757,6.757,0,0,0,.7-.034,4.087,4.087,0,0,0,.521-.088,2.412,2.412,0,0,0,.392-.129,2.143,2.143,0,0,0,.3-.16Zm9.638-.107a.45.45,0,0,0-.239-.209,2.132,2.132,0,0,0-.48-.152,5.405,5.405,0,0,0-.68-.091q-.387-.03-.855-.027a6.579,6.579,0,0,0-.717.037,3.574,3.574,0,0,0-.521.095,1.831,1.831,0,0,0-.374.138,2.654,2.654,0,0,0-.287.168Z" transform="translate(-1607.037 -2890.835)" fill="#fcb048"/>
        </g>
        <path id="Trazado_86869" data-name="Trazado 86869" d="M1366.845,2843.057c-6.408,0-13.079.509-14.146,1.493a1.264,1.264,0,0,1,.117.11c.9-.683,6.408-1.371,14.029-1.371,7.817,0,13.414.724,14.092,1.424a1.365,1.365,0,0,1,.108-.11C1380.163,2843.584,1373.366,2843.057,1366.845,2843.057Z" transform="translate(-1352.488 -2842.875)" fill="url(#linear-gradient-4)"/>
      </g>
      <g id="Grupo_4055" data-name="Grupo 4055" transform="translate(0 23.576)">
        <path id="Trazado_86870" data-name="Trazado 86870" d="M1141.864,2758.892v2.875c0,.928,5.8,1.681,12.958,1.681s12.958-.753,12.958-1.681v-2.875Z" transform="translate(-1141.856 -2757.211)" fill="url(#linear-gradient)"/>
        <ellipse id="Elipse_123" data-name="Elipse 123" cx="12.958" cy="1.682" rx="12.958" ry="1.682" transform="translate(0.008)" fill="url(#linear-gradient-2)"/>
        <path id="Trazado_86871" data-name="Trazado 86871" d="M1154.41,2752.408c-6.338,0-12.966-.6-12.966-1.773,0-.064.023-.177.087-.177s.037.089.037.152c0,.741,5.274,1.566,12.842,1.566s12.842-.825,12.842-1.566c0-.063.011-.124.075-.124s.049.086.049.15C1167.376,2751.8,1160.748,2752.408,1154.41,2752.408Z" transform="translate(-1141.445 -2748.929)" fill="url(#linear-gradient-3)"/>
        <path id="Trazado_86873" data-name="Trazado 86873" d="M1165.909,2675.824c-5.778,0-11.794.508-12.756,1.493a1.1,1.1,0,0,1,.105.11c.811-.683,5.779-1.371,12.651-1.371,7.048,0,12.1.724,12.707,1.424a1.233,1.233,0,0,1,.1-.11C1177.918,2676.351,1171.789,2675.824,1165.909,2675.824Z" transform="translate(-1152.941 -2675.642)" fill="url(#linear-gradient-8)"/>
      </g>
      <g id="Grupo_4057" data-name="Grupo 4057" transform="translate(2.323 19.157)">
        <path id="Trazado_86874" data-name="Trazado 86874" d="M1314.043,2592.149v2.874c0,.929,6.425,1.682,14.351,1.682s14.351-.753,14.351-1.682v-2.874Z" transform="translate(-1314.035 -2590.468)" fill="url(#linear-gradient)"/>
        <ellipse id="Elipse_124" data-name="Elipse 124" cx="14.351" cy="1.682" rx="14.351" ry="1.682" transform="translate(0.008)" fill="url(#linear-gradient-2)"/>
        <path id="Trazado_86875" data-name="Trazado 86875" d="M1327.984,2585.665c-7.019,0-14.358-.606-14.358-1.773,0-.064.025-.177.1-.177s.04.088.04.152c0,.741,5.841,1.566,14.221,1.566s14.222-.825,14.222-1.566c0-.064.012-.124.083-.124s.054.086.054.15C1342.343,2585.061,1335,2585.665,1327.984,2585.665Z" transform="translate(-1313.626 -2582.186)" fill="url(#linear-gradient-3)"/>
        <path id="Trazado_86877" data-name="Trazado 86877" d="M1339.48,2509.081c-6.408,0-13.079.509-14.146,1.492a1.184,1.184,0,0,1,.117.111c.9-.684,6.408-1.372,14.03-1.372,7.817,0,13.414.724,14.092,1.424a1.214,1.214,0,0,1,.108-.11C1352.8,2509.608,1346,2509.081,1339.48,2509.081Z" transform="translate(-1325.122 -2508.899)" fill="url(#linear-gradient-12)"/>
      </g>
      <g id="Grupo_4059" data-name="Grupo 4059" transform="translate(6.995 15.383)">
        <path id="Trazado_86878" data-name="Trazado 86878" d="M1418.528,2424.917v2.874c0,.929,5.8,1.681,12.958,1.681s12.958-.752,12.958-1.681v-2.874Z" transform="translate(-1418.52 -2423.235)" fill="url(#linear-gradient)"/>
        <path id="Trazado_86879" data-name="Trazado 86879" d="M1444.444,2333.446c0,.929-5.8,1.682-12.958,1.682s-12.958-.753-12.958-1.682,5.8-1.682,12.958-1.682S1444.444,2332.517,1444.444,2333.446Z" transform="translate(-1418.52 -2331.764)" fill="url(#linear-gradient-2)"/>
        <path id="Trazado_86880" data-name="Trazado 86880" d="M1431.074,2418.431c-6.338,0-12.965-.605-12.965-1.773,0-.064.023-.177.087-.177s.036.088.036.152c0,.74,5.274,1.565,12.842,1.565s12.842-.825,12.842-1.565c0-.064.011-.124.075-.124s.049.085.049.15C1444.04,2417.826,1437.412,2418.431,1431.074,2418.431Z" transform="translate(-1418.109 -2414.951)" fill="url(#linear-gradient-3)"/>
        <path id="Trazado_86882" data-name="Trazado 86882" d="M1442.574,2341.849c-5.778,0-11.794.509-12.756,1.493a1.126,1.126,0,0,1,.105.111c.811-.683,5.779-1.372,12.651-1.372,7.049,0,12.1.724,12.707,1.424a1.225,1.225,0,0,1,.1-.109C1454.583,2342.376,1448.454,2341.849,1442.574,2341.849Z" transform="translate(-1429.606 -2341.667)" fill="url(#linear-gradient-16)"/>
      </g>
      <g id="Grupo_4061" data-name="Grupo 4061" transform="translate(3.323 12.311)">
        <path id="Trazado_86883" data-name="Trazado 86883" d="M1341.408,2244.492v2.874c0,.929,6.425,1.681,14.351,1.681s14.351-.753,14.351-1.681v-2.874Z" transform="translate(-1341.4 -2242.811)" fill="url(#linear-gradient)"/>
        <ellipse id="Elipse_125" data-name="Elipse 125" cx="14.351" cy="1.682" rx="14.351" ry="1.682" transform="translate(0.008)" fill="url(#linear-gradient-2)"/>
        <path id="Trazado_86884" data-name="Trazado 86884" d="M1355.348,2238.006c-7.019,0-14.358-.606-14.358-1.773,0-.064.026-.177.1-.177s.041.088.041.153c0,.741,5.84,1.565,14.221,1.565s14.221-.825,14.221-1.565c0-.064.012-.124.083-.124s.054.085.054.15C1369.707,2237.4,1362.367,2238.006,1355.348,2238.006Z" transform="translate(-1340.99 -2234.526)" fill="url(#linear-gradient-3)"/>
        <path id="Trazado_86886" data-name="Trazado 86886" d="M1366.845,2161.423c-6.408,0-13.079.509-14.146,1.492a1.379,1.379,0,0,1,.117.111c.9-.683,6.408-1.371,14.029-1.371,7.817,0,13.414.723,14.092,1.424a1.219,1.219,0,0,1,.108-.11C1380.163,2161.95,1373.366,2161.423,1366.845,2161.423Z" transform="translate(-1352.488 -2161.241)" fill="url(#linear-gradient-20)"/>
      </g>
      <g id="Grupo_4063" data-name="Grupo 4063" transform="translate(2.098 8.236)">
        <path id="Trazado_86887" data-name="Trazado 86887" d="M1141.864,2077.258v2.874c0,.928,5.8,1.681,12.958,1.681s12.958-.753,12.958-1.681v-2.874Z" transform="translate(-1141.856 -2075.577)" fill="url(#linear-gradient)"/>
        <ellipse id="Elipse_126" data-name="Elipse 126" cx="12.958" cy="1.682" rx="12.958" ry="1.682" transform="translate(0.008)" fill="url(#linear-gradient-2)"/>
        <path id="Trazado_86888" data-name="Trazado 86888" d="M1154.41,2070.774c-6.338,0-12.966-.605-12.966-1.773,0-.064.023-.177.087-.177s.037.088.037.153c0,.74,5.274,1.565,12.842,1.565s12.842-.825,12.842-1.565c0-.064.011-.125.075-.125s.049.086.049.15C1167.376,2070.169,1160.748,2070.774,1154.41,2070.774Z" transform="translate(-1141.445 -2067.294)" fill="url(#linear-gradient-3)"/>
        <path id="Trazado_86890" data-name="Trazado 86890" d="M1165.909,1994.19c-5.778,0-11.794.509-12.756,1.493a1.153,1.153,0,0,1,.105.111c.811-.683,5.779-1.371,12.651-1.371,7.048,0,12.1.724,12.707,1.424a1.25,1.25,0,0,1,.1-.11C1177.918,1994.717,1171.789,1994.19,1165.909,1994.19Z" transform="translate(-1152.941 -1994.008)" fill="url(#linear-gradient-24)"/>
      </g>
      <g id="Grupo_4065" data-name="Grupo 4065" transform="translate(2.323 3.958)">
        <ellipse id="Elipse_127" data-name="Elipse 127" cx="14.351" cy="1.682" rx="14.351" ry="1.682" transform="translate(0.008)" fill="url(#linear-gradient-2)"/>
        <path id="Trazado_86892" data-name="Trazado 86892" d="M1327.984,1904.031c-7.019,0-14.358-.605-14.358-1.773,0-.064.025-.177.1-.177s.04.088.04.152c0,.74,5.841,1.565,14.221,1.565s14.222-.825,14.222-1.565c0-.064.012-.125.083-.125s.054.086.054.15C1342.343,1903.427,1335,1904.031,1327.984,1904.031Z" transform="translate(-1313.626 -1900.552)" fill="url(#linear-gradient-3)"/>
        <g id="Grupo_4064" data-name="Grupo 4064" transform="translate(6.104 1.045)">
          <path id="Trazado_86893" data-name="Trazado 86893" d="M1586.61,1875.956c.127-.088.262-.175.407-.261a2.559,2.559,0,0,1,.556-.232,5.326,5.326,0,0,1,.854-.169,10.827,10.827,0,0,1,1.28-.069q.751,0,1.41.048a9.585,9.585,0,0,1,1.16.154,3.605,3.605,0,0,1,.814.252.645.645,0,0,1,.372.345l1.459.015a1.428,1.428,0,0,1,.28.026c.082.017.121.037.121.063v.12l-1.876-.018a.945.945,0,0,1-.5.4,5.1,5.1,0,0,1-1.029.317l-.683-.1a.784.784,0,0,1-.151-.036c-.04-.014-.059-.03-.059-.047s.053-.049.158-.079.225-.066.358-.11a3.583,3.583,0,0,0,.391-.155.529.529,0,0,0,.257-.213l-4.427-.044a4.127,4.127,0,0,1-.391.252,2.563,2.563,0,0,1-.574.223,6.024,6.024,0,0,1-.891.161,12.644,12.644,0,0,1-1.344.066c-.406,0-.8-.014-1.188-.046a8.165,8.165,0,0,1-1.031-.147,3.215,3.215,0,0,1-.74-.242q-.288-.144-.322-.332l-1.2-.012a1.539,1.539,0,0,1-.284-.025c-.083-.016-.125-.037-.125-.064v-.12l1.643.015a.884.884,0,0,1,.449-.331,5.141,5.141,0,0,1,.833-.25l.55.076c.167.023.25.051.25.082s-.034.038-.1.063l-.247.091a2.263,2.263,0,0,0-.274.123.582.582,0,0,0-.2.16Zm-4.052.164a.433.433,0,0,0,.218.2,1.725,1.725,0,0,0,.417.141,4.239,4.239,0,0,0,.562.081q.314.026.656.024a6.792,6.792,0,0,0,.7-.034,4.09,4.09,0,0,0,.521-.088,2.409,2.409,0,0,0,.391-.13,2.19,2.19,0,0,0,.3-.16Zm9.638-.107a.452.452,0,0,0-.239-.21,2.147,2.147,0,0,0-.48-.151,5.315,5.315,0,0,0-.68-.091q-.387-.03-.855-.027a6.548,6.548,0,0,0-.717.037,3.7,3.7,0,0,0-.52.095,1.887,1.887,0,0,0-.374.138,2.628,2.628,0,0,0-.287.169Z" transform="translate(-1579.672 -1875.225)" fill="#fcb048"/>
        </g>
        <path id="Trazado_86894" data-name="Trazado 86894" d="M1339.48,1827.447c-6.408,0-13.079.508-14.146,1.493a1.167,1.167,0,0,1,.117.111c.9-.683,6.408-1.371,14.03-1.371,7.817,0,13.414.724,14.092,1.424a1.2,1.2,0,0,1,.108-.11C1352.8,1827.974,1346,1827.447,1339.48,1827.447Z" transform="translate(-1325.122 -1827.265)" fill="url(#linear-gradient-27)"/>
        <path id="Trazado_86891" data-name="Trazado 86891" d="M1314.043,1910.517v2.874c0,.929,6.425,1.681,14.351,1.681s14.351-.753,14.351-1.681v-2.874Z" transform="translate(-1314.035 -1908.835)" fill="url(#linear-gradient)"/>
      </g>
      <path id="Trazado_86895" data-name="Trazado 86895" d="M1224.487,1743.283v2.874c0,.929,6.425,1.682,14.351,1.682s14.351-.753,14.351-1.682v-2.874Z" transform="translate(-1223.773 -1741.602)" fill="url(#linear-gradient)"/>
      <ellipse id="Elipse_128" data-name="Elipse 128" cx="14.351" cy="1.682" rx="14.351" ry="1.682" transform="translate(0.715)" fill="url(#linear-gradient-2)"/>
      <path id="Trazado_86896" data-name="Trazado 86896" d="M1238.426,1736.8c-7.019,0-14.358-.605-14.358-1.773,0-.064.026-.177.1-.177s.04.088.04.152c0,.741,5.84,1.566,14.221,1.566s14.221-.825,14.221-1.566c0-.064.012-.124.083-.124s.054.086.054.15C1252.785,1736.194,1245.445,1736.8,1238.426,1736.8Z" transform="translate(-1223.361 -1733.32)" fill="url(#linear-gradient-3)"/>
      <path id="Trazado_86898" data-name="Trazado 86898" d="M1249.922,1660.215c-6.407,0-13.079.509-14.146,1.493a1.255,1.255,0,0,1,.117.111c.9-.683,6.408-1.371,14.029-1.371,7.817,0,13.414.724,14.092,1.424a1.233,1.233,0,0,1,.108-.11C1263.24,1660.742,1256.443,1660.215,1249.922,1660.215Z" transform="translate(-1234.857 -1660.033)" fill="url(#linear-gradient-32)"/>
    </g>
    <g id="Grupo_34790" data-name="Grupo 34790">
      <g id="Grupo_4069" data-name="Grupo 4069" transform="translate(327.037 114.594)">
        <path id="Trazado_86899" data-name="Trazado 86899" d="M1636.867,533.417a12.8,12.8,0,0,1-13.242,13.054,14.987,14.987,0,0,1-14.234-14.906,12.764,12.764,0,0,1,14.234-12.987A15.086,15.086,0,0,1,1636.867,533.417Z" transform="translate(-1609.39 -517.863)" fill="url(#linear-gradient-33)"/>
        <path id="Trazado_86900" data-name="Trazado 86900" d="M1726.232,504.884a12.8,12.8,0,0,1-13.243,13.054,14.987,14.987,0,0,1-14.234-14.906,12.764,12.764,0,0,1,14.234-12.987A15.086,15.086,0,0,1,1726.232,504.884Z" transform="translate(-1696.747 -489.97)" fill="url(#linear-gradient-34)"/>
        <path id="Trazado_86901" data-name="Trazado 86901" d="M1754.87,532.737a12.215,12.215,0,0,1-12.659,12.458,14.306,14.306,0,0,1-13.563-14.226,12.183,12.183,0,0,1,13.563-12.4A14.4,14.4,0,0,1,1754.87,532.737Z" transform="translate(-1725.968 -517.862)" fill="url(#linear-gradient-35)"/>
        <path id="Trazado_86902" data-name="Trazado 86902" d="M1775.264,552.624a11.8,11.8,0,0,1-12.242,12.032,13.819,13.819,0,0,1-13.085-13.739,11.767,11.767,0,0,1,13.085-11.975A13.9,13.9,0,0,1,1775.264,552.624Z" transform="translate(-1746.78 -537.777)" fill="url(#linear-gradient-36)"/>
      </g>
      <g id="Grupo_34784" data-name="Grupo 34784" transform="translate(334.133 118.797)" opacity="0.75">
        <circle id="Elipse_11231" data-name="Elipse 11231" cx="4.84" cy="4.84" r="4.84" transform="translate(4.187 4.84)" fill="none" stroke="#fff" stroke-miterlimit="10" stroke-width="0.8"/>
        <g id="Grupo_34722" data-name="Grupo 34722" transform="translate(4.187 0)">
          <path id="Trazado_111804" data-name="Trazado 111804" d="M4.84,0A4.84,4.84,0,1,1,0,4.84,4.84,4.84,0,0,1,4.84,0Z" transform="translate(0 9.674)" fill="none" stroke="#fff" stroke-width="0.8"/>
          <circle id="Elipse_11233" data-name="Elipse 11233" cx="4.84" cy="4.84" r="4.84" fill="none" stroke="#fff" stroke-miterlimit="10" stroke-width="0.8"/>
        </g>
        <g id="Grupo_34723" data-name="Grupo 34723" transform="translate(0.006 2.417)">
          <circle id="Elipse_11234" data-name="Elipse 11234" cx="4.84" cy="4.84" r="4.84" fill="none" stroke="#fff" stroke-miterlimit="10" stroke-width="0.8"/>
          <circle id="Elipse_11235" data-name="Elipse 11235" cx="4.84" cy="4.84" r="4.84" transform="translate(8.367 4.846)" fill="none" stroke="#fff" stroke-miterlimit="10" stroke-width="0.8"/>
        </g>
        <g id="Grupo_34724" data-name="Grupo 34724" transform="translate(0 2.423)">
          <path id="Trazado_111803" data-name="Trazado 111803" d="M4.84,0A4.84,4.84,0,1,1,0,4.84,4.84,4.84,0,0,1,4.84,0Z" transform="translate(0 4.834)" fill="none" stroke="#fff" stroke-width="0.8"/>
          <circle id="Elipse_11237" data-name="Elipse 11237" cx="4.84" cy="4.84" r="4.84" transform="translate(8.379)" fill="none" stroke="#fff" stroke-miterlimit="10" stroke-width="0.8"/>
        </g>
      </g>
    </g>
    <g id="Grupo_34792" data-name="Grupo 34792" transform="translate(331.634 143.789)" opacity="0.75">
      <g id="Elipse_11231-2" data-name="Elipse 11231" transform="translate(4.841 0.552)" fill="none" stroke-miterlimit="10">
        <path d="M5.612.043c.713,0,1.411.015,2.065.043S8.937.153,9.467.2s.981.108,1.324.173a1.854,1.854,0,0,1,.67.211c.094.075.04.146-.139.21a4.479,4.479,0,0,1-.88.171c-.4.048-.9.088-1.476.115s-1.226.042-1.93.042S5.642,1.109,5,1.082,3.749,1.016,3.222.967,2.242.861,1.9.8a2.041,2.041,0,0,1-.69-.21C1.1.512,1.148.441,1.318.376A4.182,4.182,0,0,1,2.183.2c.4-.049.9-.089,1.479-.117S4.9.043,5.612.043Z" stroke="none"/>
        <path d="M 7.090093612670898 1.165593504905701 C 6.333820819854736 1.165507435798645 5.591489315032959 1.149316072463989 4.896472454071045 1.120116829872131 C 4.201136112213135 1.090904116630554 3.552696228027344 1.048652172088623 2.984796285629272 0.9964418411254883 C 2.416292905807495 0.9441760182380676 1.928194522857666 0.8819026350975037 1.554486513137817 0.8127060532569885 C 1.180203199386597 0.743402898311615 0.9205077290534973 0.6671262979507446 0.8097543716430664 0.5869793295860291 C 0.6987916231155396 0.5066808462142944 0.7476631999015808 0.4299809038639069 0.9312945008277893 0.3600559234619141 C 1.115246415138245 0.2900090515613556 1.434385776519775 0.2267772108316422 1.86336612701416 0.1735663414001465 C 2.29295802116394 0.1202796101570129 2.83253026008606 0.07706407457590103 3.456384897232056 0.04714039713144302 C 4.080822944641113 0.01718878000974655 4.789339542388916 0.0005711972480639815 5.555861949920654 0.0005016631912440062 C 6.322589874267578 0.0004321103042457253 7.075290679931641 0.01692585088312626 7.779341220855713 0.04678353667259216 C 8.483061790466309 0.07662727683782578 9.137707710266113 0.1198024600744247 9.70893383026123 0.1730928719043732 C 10.27955055236816 0.226326122879982 10.76661682128906 0.289624035358429 11.13615131378174 0.3597745597362518 C 11.50511169433594 0.4298165142536163 11.75675392150879 0.506661057472229 11.85745429992676 0.5871155858039856 C 11.95796775817871 0.6674180030822754 11.89872646331787 0.7438297867774963 11.70605659484863 0.8132340908050537 C 11.51372337341309 0.8825178146362305 11.18837928771973 0.9448349475860596 10.75606727600098 0.9970969557762146 C 10.32436561584473 1.049285054206848 9.785823822021484 1.091467499732971 9.166140556335449 1.120569348335266 C 8.547027587890625 1.149644374847412 7.846567630767822 1.165679693222046 7.090093612670898 1.165593504905701 Z M 5.667308807373047 0.08513422310352325 C 5.011362075805664 0.08518396317958832 4.404975891113281 0.09938139468431473 3.870436668395996 0.1249818652868271 C 3.336325407028198 0.1505618989467621 2.874211311340332 0.1875140964984894 2.506106853485107 0.233088955283165 C 2.138450860977173 0.2786082029342651 1.864703297615051 0.33271324634552 1.706618547439575 0.3926654458045959 C 1.548769354820251 0.4525280594825745 1.506270289421082 0.518208384513855 1.600675582885742 0.586989164352417 C 1.694928407669067 0.6556586623191833 1.916882276535034 0.7210286259651184 2.237155675888062 0.7804359197616577 C 2.557007074356079 0.8397649526596069 2.975032091140747 0.8931679129600525 3.462119102478027 0.9379950761795044 C 3.948762893676758 0.9827815890312195 4.504568099975586 1.019028782844543 5.100674152374268 1.044089198112488 C 5.696545124053955 1.069139719009399 6.333024978637695 1.083026885986328 6.981451988220215 1.083091378211975 C 7.630026340484619 1.083155870437622 8.230503082275391 1.069385766983032 8.761134147644043 1.04442822933197 C 9.292184829711914 1.019451141357422 9.753541946411133 0.9832568764686584 10.12319564819336 0.9384881258010864 C 10.49329376220703 0.8936651349067688 10.77159595489502 0.8402312397956848 10.93583011627197 0.7808389663696289 C 11.10030841827393 0.7213581800460815 11.15041637420654 0.6558893322944641 11.06367778778076 0.5871058106422424 C 10.9768009185791 0.5182105898857117 10.76075649261475 0.4524239003658295 10.4443883895874 0.3924746811389923 C 10.12760066986084 0.3324458003044128 9.710330009460449 0.2782911062240601 9.221693992614746 0.2327539771795273 C 8.732609748840332 0.187174990773201 8.17225170135498 0.1502505987882614 7.56999397277832 0.1247271150350571 C 6.967493534088135 0.09919340908527374 6.32340669631958 0.08508444577455521 5.667308807373047 0.08513422310352325 Z" stroke="none" fill="#fff"/>
      </g>
      <g id="Grupo_34722-2" data-name="Grupo 34722" transform="translate(4.079)">
        <g id="Trazado_111804-2" data-name="Trazado 111804" transform="translate(1.513 1.097)" fill="none">
          <path d="M5.576.042c.708,0,1.4.015,2.052.043S8.88.151,9.406.2s.974.107,1.314.171a1.838,1.838,0,0,1,.664.209c.093.074.038.144-.139.207a4.5,4.5,0,0,1-.876.168c-.4.048-.9.086-1.468.113s-1.219.041-1.918.041S5.6,1.095,4.956,1.068,3.717,1,3.193.954,2.22.849,1.877.786A2.023,2.023,0,0,1,1.192.579C1.091.5,1.137.435,1.307.37A4.2,4.2,0,0,1,2.167.2c.4-.049.895-.088,1.47-.116S4.868.042,5.576.042Z" stroke="none"/>
          <path d="M 7.036070823669434 1.150419116020203 C 6.2844557762146 1.150263547897339 5.546833992004395 1.134208083152771 4.856346130371094 1.105313420295715 C 4.165542602539062 1.076405644416809 3.521461725234985 1.034627914428711 2.95751428604126 0.9830260276794434 C 2.392971754074097 0.9313696026802063 1.90842878818512 0.8698403239250183 1.537635564804077 0.8014868497848511 C 1.166274666786194 0.733028769493103 0.9088588356971741 0.6576974987983704 0.7995001673698425 0.578559935092926 C 0.6899358034133911 0.4992733299732208 0.7391842603683472 0.4235556721687317 0.9222954511642456 0.354540079832077 C 1.105723977088928 0.2854048311710358 1.423437356948853 0.2230110615491867 1.85021710395813 0.1705210357904434 C 2.27760124206543 0.1179566234350204 2.814188241958618 0.07534527033567429 3.434413194656372 0.04586375504732132 C 4.055213451385498 0.0163548868149519 4.759450912475586 1.719923420751002e-05 5.521187782287598 2.090648195007816e-05 C 6.283128261566162 2.461472104187123e-05 7.03098726272583 0.01637791469693184 7.730391502380371 0.04591928794980049 C 8.429470062255859 0.07544694840908051 9.079670906066895 0.1181307435035706 9.646895408630371 0.1707926839590073 C 10.21351432800293 0.223398432135582 10.69703102111816 0.285932719707489 11.06369590759277 0.3552215397357941 C 11.42979431152344 0.4244037866592407 11.67924785614014 0.5002913475036621 11.77867984771729 0.5797300338745117 C 11.87792205810547 0.6590191721916199 11.81843852996826 0.7344532608985901 11.62640857696533 0.8029573559761047 C 11.43470859527588 0.871343195438385 11.11087417602539 0.9328391551971436 10.68081188201904 0.984397828578949 C 10.2513542175293 1.035884141921997 9.715794563293457 1.077482342720032 9.09969425201416 1.106158018112183 C 8.484159469604492 1.134807467460632 7.787883281707764 1.150574684143066 7.036070823669434 1.150419116020203 Z M 5.631219863891602 0.08357935398817062 C 4.979363918304443 0.08356662094593048 4.376637935638428 0.09752506762742996 3.845211029052734 0.1227473616600037 C 3.314205884933472 0.1479496657848358 2.85464882850647 0.1843855828046799 2.488437652587891 0.2293429970741272 C 2.12267017364502 0.274245947599411 1.850149154663086 0.3276342153549194 1.692519307136536 0.3868062794208527 C 1.535123348236084 0.4458906650543213 1.4923095703125 0.510729968547821 1.585524916648865 0.5786437392234802 C 1.678590416908264 0.6464481949806213 1.898597717285156 0.711007833480835 2.216371297836304 0.7696903347969055 C 2.53372859954834 0.8282959461212158 2.948708295822144 0.8810603618621826 3.432400703430176 0.92536461353302 C 3.915656328201294 0.9696288108825684 4.467721939086914 1.005468606948853 5.059939384460449 1.030267238616943 C 5.651923656463623 1.055056214332581 6.284362316131592 1.068826913833618 6.928791046142578 1.068951010704041 C 7.573365688323975 1.069075107574463 8.170251846313477 1.055535197257996 8.69781494140625 1.030943274497986 C 9.225791931152344 1.006332278251648 9.684596061706543 0.9706397652626038 10.05233001708984 0.9264732599258423 C 10.42050457000732 0.8822535872459412 10.69751644134521 0.829524040222168 10.86121463775635 0.7709019184112549 C 11.02515506744385 0.7121928930282593 11.07547760009766 0.6475616693496704 10.98983573913574 0.5796459913253784 C 10.90405464172363 0.5116207003593445 10.68988609313965 0.4466527104377747 10.37597370147705 0.387438952922821 C 10.06164646148682 0.3281470835208893 9.647419929504395 0.2746452987194061 9.162205696105957 0.2296445071697235 C 8.676542282104492 0.1846025586128235 8.119987487792969 0.1480979919433594 7.521698951721191 0.1228445544838905 C 6.923173904418945 0.09758108109235764 6.283225059509277 0.08359210193157196 5.631219863891602 0.08357935398817062 Z" stroke="none" fill="#fff"/>
        </g>
        <g id="Elipse_11233-2" data-name="Elipse 11233" fill="none" stroke-miterlimit="10">
          <path d="M5.647.044c.717,0,1.42.015,2.078.043s1.269.068,1.8.118.988.109,1.334.175a1.871,1.871,0,0,1,.676.214c.1.076.041.148-.138.213a4.46,4.46,0,0,1-.884.173c-.4.049-.905.089-1.484.116S7.8,1.139,7.09,1.139s-1.4-.015-2.052-.043S3.782,1.03,3.251.981,2.264.873,1.915.808A2.06,2.06,0,0,1,1.218.6C1.114.52,1.159.448,1.33.382A4.162,4.162,0,0,1,2.2.207c.4-.05.9-.091,1.487-.119S4.931.044,5.647.044Z" stroke="none"/>
          <path d="M 7.144991874694824 1.181142687797546 C 6.383996486663818 1.181127667427063 5.636889934539795 1.164798378944397 4.937278747558594 1.135288596153259 C 4.237343311309814 1.105765104293823 3.584480285644531 1.063029527664185 3.012567758560181 1.010198712348938 C 2.440043449401855 0.9573115110397339 1.948333263397217 0.8942790031433105 1.571662425994873 0.8242220878601074 C 1.194408178329468 0.7540565729141235 0.9323928952217102 0.6768155097961426 0.820216178894043 0.5956385731697083 C 0.7078258395195007 0.5143070220947266 0.7563063502311707 0.4366045892238617 0.9404568076133728 0.3657514750957489 C 1.124930858612061 0.2947739064693451 1.445508241653442 0.2306865453720093 1.876713752746582 0.1767396777868271 C 2.30853796005249 0.1227153986692429 2.851131439208984 0.07888282090425491 3.478662967681885 0.04850742593407631 C 4.106784343719482 0.01810349896550179 4.819638729095459 0.00119977886788547 5.591012477874756 0.001055013970471919 C 6.362595081329346 0.0009102060575969517 7.120205402374268 0.01754684001207352 7.828971385955811 0.04772697016596794 C 8.537403106689453 0.07789292186498642 9.196559906005859 0.1215692684054375 9.7718505859375 0.1755008697509766 C 10.34652328491211 0.2293742448091507 10.83719921112061 0.293451339006424 11.20965003967285 0.3644811809062958 C 11.58152008056641 0.4354003369808197 11.83538341522217 0.513221263885498 11.93738269805908 0.5947127938270569 C 12.03918933868408 0.6760491728782654 11.98020458221436 0.7534588575363159 11.78689670562744 0.8237820267677307 C 11.59392833709717 0.8939824104309082 11.26705932617188 0.9571379423141479 10.83246994018555 1.010117530822754 C 10.39850044250488 1.063022136688232 9.856941223144531 1.105801224708557 9.233627319335938 1.135338544845581 C 8.61089038848877 1.164848327636719 7.906191349029541 1.18115758895874 7.144991874694824 1.181142687797546 Z M 5.703903675079346 0.08678387105464935 C 5.043807983398438 0.08689779043197632 4.433712959289551 0.1013395562767982 3.896022796630859 0.1273263543844223 C 3.3587646484375 0.153292253613472 2.894063234329224 0.1907717436552048 2.524044275283813 0.2369770109653473 C 2.154479265213013 0.2831255793571472 1.879494071006775 0.3379623591899872 1.72095513343811 0.3987108170986176 C 1.562653779983521 0.4593679010868073 1.520481467247009 0.5259066820144653 1.616101384162903 0.595572292804718 C 1.711565732955933 0.6651244163513184 1.935500621795654 0.7313213348388672 2.258315563201904 0.7914682030677795 C 2.580702066421509 0.8515352606773376 3.001820802688599 0.905589759349823 3.492353677749634 0.9509502649307251 C 3.982438087463379 0.9962695240974426 4.542037010192871 1.032932162284851 5.142089366912842 1.05825936794281 C 5.741902828216553 1.083576560020447 6.382480144500732 1.097582101821899 7.034960746765137 1.097585558891296 C 7.6875901222229 1.097588658332825 8.291703224182129 1.083583116531372 8.825443267822266 1.058252215385437 C 9.359607696533203 1.032901287078857 9.823550224304199 0.9961946606636047 10.19514179229736 0.9508110284805298 C 10.56718826293945 0.9053720831871033 10.8467903137207 0.8512190580368042 11.01156139373779 0.7910407781600952 C 11.17658042907715 0.7307724356651306 11.22646141052246 0.6644484996795654 11.13860607147217 0.594779372215271 C 11.05060863494873 0.5249963402748108 10.83265495300293 0.4583739638328552 10.51379013061523 0.3976742327213287 C 10.19449901580811 0.3368934094905853 9.774140357971191 0.2820726037025452 9.282031059265137 0.2359883338212967 C 8.789467811584473 0.1898614019155502 8.225252151489258 0.1525088399648666 7.618965625762939 0.1267100721597672 C 7.012434482574463 0.1009009405970573 6.364151000976562 0.08666989952325821 5.703903675079346 0.08678387105464935 Z" stroke="none" fill="#fff"/>
        </g>
      </g>
      <g id="Grupo_34723-2" data-name="Grupo 34723" transform="translate(0 0.277)">
        <g id="Elipse_11234-2" data-name="Elipse 11234" fill="none" stroke-miterlimit="10">
          <path d="M5.623.043c.714,0,1.415.015,2.071.043S8.96.154,9.493.2s.989.109,1.336.174a1.948,1.948,0,0,1,.683.212c.1.075.048.146-.127.211a4.323,4.323,0,0,1-.872.172c-.4.049-.9.088-1.472.115s-1.226.042-1.931.042-1.4-.015-2.045-.042S3.814,1.022,3.283.973,2.3.866,1.944.8a2.141,2.141,0,0,1-.7-.211c-.107-.075-.066-.147.1-.212A4.033,4.033,0,0,1,2.2.2c.4-.05.9-.09,1.474-.118S4.909.043,5.623.043Z" stroke="none"/>
          <path d="M 7.168632030487061 1.172409415245056 C 6.411176681518555 1.172358870506287 5.666755199432373 1.156111478805542 4.968967437744141 1.126780033111572 C 4.270859241485596 1.097435116767883 3.618964910507202 1.054975152015686 3.047157764434814 1.002496004104614 C 2.474742412567139 0.9499614238739014 1.982275485992432 0.8873583674430847 1.603975534439087 0.8177871108055115 C 1.225091338157654 0.7481083869934082 0.9605693817138672 0.6714110374450684 0.8449975252151489 0.590813934803009 C 0.7292065024375916 0.5100639462471008 0.7737093567848206 0.4329249858856201 0.9535771608352661 0.3625928461551666 C 1.133759617805481 0.2921376824378967 1.449738740921021 0.2285298109054565 1.876314401626587 0.174994558095932 C 2.303499698638916 0.1213827878236771 2.841423988342285 0.07789431512355804 3.464535713195801 0.04776956140995026 C 4.088231086730957 0.01761660724878311 4.796911716461182 0.0008698815363459289 5.564648628234863 0.0007630927138961852 C 6.33259105682373 0.0006562747876159847 7.087441444396973 0.01720821298658848 7.794336795806885 0.04720288887619972 C 8.500901222229004 0.07718352973461151 9.159078598022461 0.1205741390585899 9.734288215637207 0.1741417199373245 C 10.30888175964355 0.2276516854763031 10.80037021636963 0.2912876605987549 11.17453575134277 0.3618207573890686 C 11.54811954498291 0.4322444200515747 11.80458641052246 0.5095146894454956 11.91008472442627 0.590422511100769 C 12.01538372039795 0.6711768507957458 11.96045303344727 0.7480257749557495 11.77148246765137 0.817833423614502 C 11.58284091949463 0.8875197172164917 11.26057910919189 0.9502058029174805 10.83060264587402 1.002784490585327 C 10.40123653411865 1.055289030075073 9.864287376403809 1.09773576259613 9.24531364440918 1.127031803131104 C 8.626914978027344 1.156301021575928 7.926289081573486 1.172460198402405 7.168632030487061 1.172409415245056 Z M 5.681166172027588 0.08587440103292465 C 5.02418041229248 0.08595594763755798 4.417654037475586 0.1002636775374413 3.88374924659729 0.1260361224412918 C 3.350272417068481 0.1517879813909531 2.88956618309021 0.1889734268188477 2.523518562316895 0.2348261177539825 C 2.157918214797974 0.2806227505207062 1.88687264919281 0.3350495398044586 1.732011675834656 0.3953509628772736 C 1.577382206916809 0.4555621743202209 1.538621544837952 0.5216184258460999 1.637160062789917 0.5907859802246094 C 1.735538840293884 0.6598412394523621 1.961627244949341 0.7255720496177673 2.285842657089233 0.7853013277053833 C 2.60962963104248 0.8449516296386719 3.031399726867676 0.8986375331878662 3.521841764450073 0.9436955451965332 C 4.011837005615234 0.9887126088142395 4.570605278015137 1.0251384973526 5.169090747833252 1.050312519073486 C 5.76733922958374 1.07547652721405 6.405613422393799 1.089411973953247 7.055055141448975 1.089445948600769 C 7.704644203186035 1.089479923248291 8.305261611938477 1.075603127479553 8.835281372070312 1.050479173660278 C 9.365719795227051 1.025335192680359 9.825711250305176 0.9889139533042908 10.193359375 0.9438737630844116 C 10.5614538192749 0.8987789750099182 10.83710861206055 0.8450284004211426 10.99817752838135 0.7852912545204163 C 11.15948486328125 0.7254647612571716 11.20589637756348 0.6596212983131409 11.11505699157715 0.5904507040977478 C 11.02406883239746 0.5211673974990845 10.80388832092285 0.4550162553787231 10.48356246948242 0.3947404325008392 C 10.16281127929688 0.3343844711780548 9.741757392883301 0.2799406945705414 9.249716758728027 0.2341670095920563 C 8.75722599029541 0.1883511692285538 8.193846702575684 0.1512426733970642 7.589158535003662 0.1256022453308105 C 6.984226703643799 0.09995152056217194 6.338302135467529 0.08579283207654953 5.681166172027588 0.08587440103292465 Z" stroke="none" fill="#fff"/>
        </g>
        <g id="Elipse_11235-2" data-name="Elipse 11235" transform="translate(9.665 0.549)" fill="none" stroke-miterlimit="10">
          <path d="M5.6.042c.711,0,1.408.015,2.059.043S8.914.152,9.44.2s.973.107,1.312.172a1.764,1.764,0,0,1,.657.21c.089.074.031.145-.15.209a4.637,4.637,0,0,1-.889.17c-.4.048-.9.087-1.48.114s-1.227.042-1.929.041S5.57,1.1,4.927,1.076,3.685,1.01,3.161.962,2.189.856,1.847.792A1.944,1.944,0,0,1,1.17.583c-.1-.074-.049-.145.125-.21A4.335,4.335,0,0,1,2.168.2c.4-.049.9-.089,1.483-.116S4.889.042,5.6.042Z" stroke="none"/>
          <path d="M 7.01217794418335 1.158812761306763 C 6.257083415985107 1.15869140625 5.516831874847412 1.142556071281433 4.824566841125488 1.113487839698792 C 4.131985187530518 1.08440637588501 3.486976146697998 1.04236114025116 2.922954797744751 0.9904171824455261 C 2.358335733413696 0.9384185075759888 1.87457287311554 0.8764721751213074 1.505421757698059 0.8076472878456116 C 1.135703444480896 0.7387166023254395 0.880796492099762 0.6628575325012207 0.7748226523399353 0.5831574201583862 C 0.6686486005783081 0.5033067464828491 0.7218521237373352 0.4270423948764801 0.9092144370079041 0.3575214743614197 C 1.096902966499329 0.2878795266151428 1.419173717498779 0.2250207960605621 1.850535750389099 0.17213174700737 C 2.282510757446289 0.1191674247384071 2.823713302612305 0.07622261345386505 3.448299884796143 0.0464983768761158 C 4.073469161987305 0.01674645766615868 4.78181791305542 0.0002569401985965669 5.547130107879639 0.0002242985792690888 C 6.312647819519043 0.000191648185136728 7.063210964202881 0.01662758365273476 7.764435291290283 0.04634929820895195 C 8.46533203125 0.07605716586112976 9.116469383239746 0.1190185546875 9.683743476867676 0.1720339357852936 C 10.25041198730469 0.2249925881624222 10.73308753967285 0.2879550755023956 11.09802627563477 0.3577260375022888 C 11.46240234375 0.4273892343044281 11.70925140380859 0.503811240196228 11.80519771575928 0.5838161706924438 C 11.90096092224121 0.6636699438095093 11.83744716644287 0.7396481037139893 11.64111423492432 0.8086522817611694 C 11.4451208114624 0.8775366544723511 11.11672210693359 0.9394878745079041 10.68209552764893 0.9914353489875793 C 10.24808216094971 1.043310046195984 9.707965850830078 1.085229992866516 9.087579727172852 1.114139080047607 C 8.467765808105469 1.143021821975708 7.767473220825195 1.158934116363525 7.01217794418335 1.158812761306763 Z M 5.653549194335938 0.08438187092542648 C 4.998636245727539 0.08440012484788895 4.392393589019775 0.09848818182945251 3.857230424880981 0.1239180639386177 C 3.322494268417358 0.1493276953697205 2.858986854553223 0.1860485076904297 2.488845586776733 0.2313477247953415 C 2.11915397644043 0.2765918374061584 1.842728614807129 0.3303777277469635 1.681447744369507 0.3899832963943481 C 1.520407319068909 0.4495002329349518 1.474201202392578 0.5148076415061951 1.564507126808167 0.5832045674324036 C 1.654667258262634 0.6514911651611328 1.872519731521606 0.716503381729126 2.188881397247314 0.7755911350250244 C 2.504827260971069 0.8346012234687805 2.919135332107544 0.8877235651016235 3.402891159057617 0.9323215484619141 C 3.886208295822144 0.9768792986869812 4.439069271087646 1.012948870658875 5.03281307220459 1.037896752357483 C 5.626321792602539 1.062834739685059 6.261016845703125 1.076673984527588 6.908432960510254 1.076768755912781 C 7.555995941162109 1.076863527297974 8.156327247619629 1.063198804855347 8.687561988830566 1.038406610488892 C 9.219215393066406 1.01359498500824 9.681925773620605 0.977625846862793 10.05356216430664 0.9331263303756714 C 10.4256477355957 0.8885731101036072 10.70657062530518 0.8354530930519104 10.87394523620605 0.7764032483100891 C 11.04156684875488 0.7172656059265137 11.09533882141113 0.6521681547164917 11.01267147064209 0.5837688446044922 C 10.92986965179443 0.5152587890625 10.71792697906494 0.4498335421085358 10.40548515319824 0.3902082443237305 C 10.09263038635254 0.3305040597915649 9.679118156433105 0.2766361832618713 9.19385814666748 0.2313337475061417 C 8.708155632019043 0.1859898120164871 8.150798797607422 0.1492480933666229 7.550955295562744 0.1238407120108604 C 6.950871467590332 0.09842317551374435 6.30861234664917 0.08436360955238342 5.653549194335938 0.08438187092542648 Z" stroke="none" fill="#fff"/>
        </g>
      </g>
      <g id="Grupo_34724-2" data-name="Grupo 34724" transform="translate(0.778 0.277)">
        <g id="Trazado_111803-2" data-name="Trazado 111803" transform="translate(0 0.549)" fill="none">
          <path d="M5.587.042c.709,0,1.406.015,2.057.043S8.9.152,9.432.2s.982.107,1.326.172a1.93,1.93,0,0,1,.677.21c.1.074.046.145-.128.209a4.343,4.343,0,0,1-.868.169c-.4.048-.892.087-1.463.114s-1.219.042-1.919.041S5.67,1.1,5.026,1.074,3.781,1.008,3.254.96,2.273.854,1.925.791a2.122,2.122,0,0,1-.7-.208c-.106-.074-.064-.145.1-.209A4.053,4.053,0,0,1,2.182.2C2.577.152,3.073.113,3.649.085S4.878.042,5.587.042Z" stroke="none"/>
          <path d="M 7.113618850708008 1.15705394744873 C 6.360844135284424 1.156933069229126 5.621162891387939 1.140822291374207 4.927946090698242 1.111798286437988 C 4.234410285949707 1.08276093006134 3.586923360824585 1.04077935218811 3.019122362136841 0.9889143705368042 C 2.450720310211182 0.9369945526123047 1.961867570877075 0.8751423358917236 1.586541891098022 0.8064221143722534 C 1.210640668869019 0.7375964522361755 0.9484596848487854 0.6618531942367554 0.8343427181243896 0.5822746753692627 C 0.7200105786323547 0.5025463104248047 0.7649436593055725 0.426398754119873 0.9443358182907104 0.3569846451282501 C 1.124039769172668 0.287449836730957 1.438628911972046 0.2246879935264587 1.86302924156189 0.1718804836273193 C 2.288032054901123 0.1189979910850525 2.822986841201782 0.07611957937479019 3.442471742630005 0.04644134640693665 C 4.062532901763916 0.01673550717532635 4.766924858093262 0.0002715324808377773 5.529852867126465 0.0002389061992289498 C 6.292986392974854 0.0002062711719190702 7.042961597442627 0.01661666110157967 7.74516773223877 0.04629223793745041 C 8.447047233581543 0.07595401257276535 9.100729942321777 0.1188487932085991 9.671881675720215 0.1717820763587952 C 10.24242496490479 0.2246588170528412 10.73030662536621 0.2875241041183472 11.10153961181641 0.3571874797344208 C 11.47220039367676 0.426743358373642 11.72642135620117 0.5030478835105896 11.83058738708496 0.5829302072525024 C 11.9345588684082 0.6626618504524231 11.87933444976807 0.7385239005088806 11.69095706939697 0.8074227571487427 C 11.50290489196777 0.8762025237083435 11.18211936950684 0.9380596280097961 10.75437164306641 0.9899284839630127 C 10.32722282409668 1.041724324226379 9.793240547180176 1.083581328392029 9.177850723266602 1.112447142601013 C 8.56302547454834 1.141286373138428 7.866593837738037 1.157174825668335 7.113618850708008 1.15705394744873 Z M 5.644892692565918 0.08426600694656372 C 4.992018222808838 0.08428427577018738 4.389158725738525 0.09835056960582733 3.85836386680603 0.1237411424517632 C 3.327990770339966 0.1491115391254425 2.869828462600708 0.1857756823301315 2.505651950836182 0.231004998087883 C 2.141918182373047 0.2761794030666351 1.872068762779236 0.3298825621604919 1.717624664306641 0.3893965184688568 C 1.563410043716431 0.4488220810890198 1.524289131164551 0.514029324054718 1.621585965156555 0.5823217034339905 C 1.7187260389328 0.6505039930343628 1.942814707756042 0.7154168486595154 2.26447868347168 0.7744145393371582 C 2.585720777511597 0.8333348035812378 3.004395246505737 0.8863762617111206 3.491397619247437 0.9309066534042358 C 3.977957963943481 0.9753966331481934 4.532946586608887 1.011411428451538 5.127507209777832 1.03632128238678 C 5.721834182739258 1.061221361160278 6.356039047241211 1.075039386749268 7.001463890075684 1.075133681297302 C 7.647035121917725 1.075228095054626 8.244054794311523 1.061584115028381 8.771007537841797 1.036829233169556 C 9.298376083374023 1.012054920196533 9.755825042724609 0.9761402010917664 10.1215763092041 0.9317082166671753 C 10.48776626586914 0.8872224092483521 10.76216316223145 0.8341831564903259 10.9227294921875 0.7752231359481812 C 11.08353519439697 0.7161756157875061 11.13020992279053 0.6511778831481934 11.04051494598389 0.5828831195831299 C 10.95067501068115 0.5144779682159424 10.73242568969727 0.4491532444953918 10.41460704803467 0.3896197974681854 C 10.09636783599854 0.3300075829029083 9.678407669067383 0.2762227654457092 9.189833641052246 0.2309903055429459 C 8.700813293457031 0.1857164949178696 8.141278266906738 0.1490316241979599 7.540596008300781 0.123663604259491 C 6.939674377441406 0.09828546643257141 6.29791784286499 0.08424772322177887 5.644892692565918 0.08426600694656372 Z" stroke="none" fill="#fff"/>
        </g>
        <g id="Elipse_11237-2" data-name="Elipse 11237" transform="translate(8.164)" fill="none" stroke-miterlimit="10">
          <path d="M5.636.043c.716,0,1.417.015,2.072.043S8.972.155,9.5.2s.98.109,1.322.174a1.779,1.779,0,0,1,.663.213c.091.075.032.147-.15.212a4.619,4.619,0,0,1-.893.172c-.4.049-.909.088-1.489.115s-1.234.042-1.941.042-1.4-.015-2.047-.042S3.716,1.024,3.189.975,2.21.868,1.865.8A1.962,1.962,0,0,1,1.182.592c-.1-.075-.051-.147.124-.212A4.316,4.316,0,0,1,2.183.205c.4-.05.908-.09,1.491-.118S4.92.044,5.636.043Z" stroke="none"/>
          <path d="M 7.06591272354126 1.174244165420532 C 6.306107997894287 1.174193263053894 5.561107635498047 1.157920718193054 4.864285469055176 1.128544211387634 C 4.167141437530518 1.099154233932495 3.517755508422852 1.056628823280334 2.949775695800781 1.004069209098816 C 2.381190299987793 0.9514538049697876 1.893876910209656 0.8887542486190796 1.521828651428223 0.819075882434845 C 1.149204850196838 0.7492895722389221 0.8920480608940125 0.672473669052124 0.784721314907074 0.5917515754699707 C 0.6771906614303589 0.5108762383460999 0.7300680875778198 0.4336173236370087 0.918006420135498 0.3631756603717804 C 1.106274247169495 0.2926106154918671 1.430031895637512 0.2289032638072968 1.863657236099243 0.175284206867218 C 2.297903299331665 0.1215883865952492 2.842154264450073 0.07803162932395935 3.470432758331299 0.04785950109362602 C 4.099300384521484 0.01765909232199192 4.811988830566406 0.0008859537774696946 5.582139492034912 0.0007789243245497346 C 6.352498054504395 0.0006718658260069788 7.107942581176758 0.01724977977573872 7.813845157623291 0.0472915805876255 C 8.519414901733398 0.07731929421424866 9.175014495849609 0.1207780390977859 9.746297836303711 0.1744296550750732 C 10.31696605682373 0.2280234694480896 10.80318832397461 0.2917590737342834 11.17097854614258 0.3624024391174316 C 11.53819751739502 0.4329359829425812 11.78719902038574 0.510326623916626 11.88437271118164 0.591360330581665 C 11.98136043548584 0.6722399592399597 11.91803741455078 0.7492079734802246 11.72101020812988 0.8191236257553101 C 11.52432441711426 0.8889172077178955 11.19435405731201 0.95169997215271 10.75741577148438 1.004359602928162 C 10.32109546661377 1.056944608688354 9.777936935424805 1.099456548690796 9.153904914855957 1.128797292709351 C 8.530452728271484 1.158111095428467 7.825920581817627 1.17429506778717 7.06591272354126 1.174244165420532 Z M 5.689926624298096 0.08602403104305267 C 5.030877590179443 0.08610575646162033 4.420924186706543 0.1004359945654869 3.882596969604492 0.1262489408254623 C 3.344701051712036 0.1520411968231201 2.878582954406738 0.1892849206924438 2.506494283676147 0.2352094054222107 C 2.134860754013062 0.281077653169632 1.857156276702881 0.3355893790721893 1.695372819900513 0.3959848880767822 C 1.533831238746643 0.4562898278236389 1.487896084785461 0.5224487781524658 1.579356074333191 0.591723620891571 C 1.670667290687561 0.6608858704566956 1.890441179275513 0.7267183661460876 2.209287881851196 0.7865399718284607 C 2.52771258354187 0.8462823629379272 2.945061206817627 0.9000509977340698 3.432217359542847 0.9451785087585449 C 3.918927907943726 0.9902647733688354 4.47554349899292 1.02674674987793 5.073200702667236 1.05195939540863 C 5.670620918273926 1.077162146568298 6.309391498565674 1.091119170188904 6.960849285125732 1.091153264045715 C 7.612456321716309 1.091187477111816 8.216426849365234 1.077289342880249 8.750781059265137 1.052127003669739 C 9.285560607910156 1.026944637298584 9.750876426696777 0.9904673099517822 10.12448692321777 0.9453580379486084 C 10.49855136871338 0.9001938104629517 10.78081512451172 0.8463605046272278 10.94877338409424 0.7865309715270996 C 11.11698341369629 0.7266119122505188 11.17058181762695 0.6606663465499878 11.08685779571533 0.5913884043693542 C 11.00299644470215 0.5219975113868713 10.78920364379883 0.455743283033371 10.47432327270508 0.395373523235321 C 10.15902328491211 0.334923267364502 9.742475509643555 0.2803944051265717 9.253790855407715 0.2345490306615829 C 8.764657020568848 0.1886614114046097 8.203482627868652 0.1514947563409805 7.599643230438232 0.1258141249418259 C 6.995561599731445 0.1001231744885445 6.349128246307373 0.08594229817390442 5.689926624298096 0.08602403104305267 Z" stroke="none" fill="#fff"/>
        </g>
      </g>
    </g>
  </g>
</svg>
