<svg id="ic_coinGane_L" xmlns="http://www.w3.org/2000/svg" xmlns:xlink="http://www.w3.org/1999/xlink" width="31.326" height="31.326" viewBox="0 0 31.326 31.326">
  <defs>
    <clipPath id="clip-path">
      <rect id="Rectángulo_15509" data-name="Rectángulo 15509" width="31.326" height="31.326" fill="none"/>
    </clipPath>
  </defs>
  <g id="Grupo_35811" data-name="Grupo 35811" clip-path="url(#clip-path)">
    <path id="Trazado_112402" data-name="Trazado 112402" d="M31.326,15.663A15.663,15.663,0,1,1,15.663,0,15.663,15.663,0,0,1,31.326,15.663" transform="translate(0 0)" fill="#ff4d00"/>
    <path id="Trazado_112403" data-name="Trazado 112403" d="M31.124,16.345A14.779,14.779,0,1,1,16.345,1.566,14.779,14.779,0,0,1,31.124,16.345" transform="translate(-0.682 -0.682)" fill="#fff"/>
    <path id="Trazado_112404" data-name="Trazado 112404" d="M16.105,31.195A15.089,15.089,0,1,1,31.194,16.105,15.107,15.107,0,0,1,16.105,31.195m0-29.558A14.469,14.469,0,1,0,30.574,16.105,14.485,14.485,0,0,0,16.105,1.637" transform="translate(-0.442 -0.443)" fill="#fff"/>
    <path id="Trazado_112405" data-name="Trazado 112405" d="M30.947,16.941A14.006,14.006,0,1,1,16.941,2.935,14.006,14.006,0,0,1,30.947,16.941" transform="translate(-1.278 -1.278)" fill="#fff"/>
    <path id="Trazado_112406" data-name="Trazado 112406" d="M16.7,31.018A14.317,14.317,0,1,1,31.018,16.7,14.333,14.333,0,0,1,16.7,31.018m0-28.012A13.7,13.7,0,1,0,30.4,16.7a13.712,13.712,0,0,0-13.7-13.7" transform="translate(-1.039 -1.039)" fill="#f95e1f"/>
    <path id="Trazado_112407" data-name="Trazado 112407" d="M23.059,29.136a6.078,6.078,0,1,1,6.078-6.078,6.085,6.085,0,0,1-6.078,6.078m0-11.479a5.4,5.4,0,1,0,5.4,5.4,5.407,5.407,0,0,0-5.4-5.4" transform="translate(-7.396 -7.396)" fill="#f95e1f"/>
    <path id="Trazado_112408" data-name="Trazado 112408" d="M23.059,39.292a6.077,6.077,0,1,1,6.078-6.078,6.085,6.085,0,0,1-6.078,6.078m0-11.478a5.4,5.4,0,1,0,5.4,5.4,5.407,5.407,0,0,0-5.4-5.4" transform="translate(-7.396 -11.819)" fill="#f95e1f"/>
    <path id="Trazado_112409" data-name="Trazado 112409" d="M23.059,18.981A6.078,6.078,0,1,1,29.136,12.9a6.085,6.085,0,0,1-6.078,6.078m0-11.479a5.4,5.4,0,1,0,5.4,5.4,5.407,5.407,0,0,0-5.4-5.4" transform="translate(-7.396 -2.973)" fill="#f95e1f"/>
    <path id="Trazado_112410" data-name="Trazado 112410" d="M14.26,24.043a6.077,6.077,0,1,1,5.27-3.03,6.046,6.046,0,0,1-5.27,3.03m.019-11.48a5.444,5.444,0,0,0-1.4.184,5.37,5.37,0,1,0,1.4-.184" transform="translate(-3.567 -5.176)" fill="#f95e1f"/>
    <path id="Trazado_112411" data-name="Trazado 112411" d="M31.833,34.224a6.077,6.077,0,1,1,5.27-3.03,6.046,6.046,0,0,1-5.27,3.03m.02-11.476a5.4,5.4,0,1,0,2.7.727,5.4,5.4,0,0,0-2.7-.727" transform="translate(-11.22 -9.611)" fill="#f95e1f"/>
    <path id="Trazado_112412" data-name="Trazado 112412" d="M14.272,34.212A6.076,6.076,0,1,1,17.3,33.4a6.083,6.083,0,0,1-3.028.812m-.019-11.476a5.4,5.4,0,1,0,4.687,2.7,5.371,5.371,0,0,0-4.687-2.7" transform="translate(-3.563 -9.607)" fill="#f95e1f"/>
    <path id="Trazado_112413" data-name="Trazado 112413" d="M31.862,24.063a6.127,6.127,0,0,1-1.583-.209,6.047,6.047,0,1,1,1.583.209m-.019-11.48a5.4,5.4,0,1,0,4.687,2.7,5.37,5.37,0,0,0-4.687-2.7" transform="translate(-11.224 -5.185)" fill="#f95e1f"/>
  </g>
</svg>
