<svg xmlns="http://www.w3.org/2000/svg" width="35" height="35" viewBox="0 0 35 35">
  <g id="Componente_178" data-name="Componente 178" transform="translate(-0.24)">
    <rect id="Rectángulo_9965" data-name="Rectángulo 9965" width="35" height="35" rx="7" transform="translate(0.24)" fill="#f96021"/>
    <g id="basura" transform="translate(10.4 8.191)">
      <path id="Trazado_56691" data-name="Trazado 56691" d="M126.567,1.1h3.051v.513h1.1V1.03A1.031,1.031,0,0,0,129.69,0h-3.2a1.031,1.031,0,0,0-1.029,1.03v.585h1.1Zm0,0" transform="translate(-120.992)" fill="#fff"/>
      <path id="Trazado_56692" data-name="Trazado 56692" d="M51.318,167.75H40.975a.485.485,0,0,0-.484.524l.865,10.692a1.148,1.148,0,0,0,1.144,1.057h7.292a1.148,1.148,0,0,0,1.144-1.057l.865-10.692A.485.485,0,0,0,51.318,167.75ZM43.48,178.882h-.035a.551.551,0,0,1-.549-.517l-.542-8.778a.551.551,0,1,1,1.1-.068L44,178.3A.551.551,0,0,1,43.48,178.882Zm3.224-.55a.551.551,0,0,1-1.1,0v-8.778a.551.551,0,0,1,1.1,0Zm3.236-8.745-.517,8.778a.551.551,0,0,1-.549.518H48.84a.551.551,0,0,1-.518-.582l.517-8.778a.551.551,0,0,1,1.1.065Zm0,0" transform="translate(-39.047 -161.77)" fill="#fff"/>
      <path id="Trazado_56693" data-name="Trazado 56693" d="M14.177,77.774l-.362-1.085a.7.7,0,0,0-.665-.479H1.05a.7.7,0,0,0-.664.479L.024,77.774a.455.455,0,0,0,.431.6H13.746a.449.449,0,0,0,.241-.069A.454.454,0,0,0,14.177,77.774Zm0,0" transform="translate(-0.001 -73.494)" fill="#fff"/>
    </g>
  </g>
</svg>
