<svg xmlns="http://www.w3.org/2000/svg" xmlns:xlink="http://www.w3.org/1999/xlink" width="481.074" height="466.275" viewBox="0 0 481.074 466.275">
  <defs>
    <radialGradient id="radial-gradient" cx="0.5" cy="0.5" r="0.5" gradientUnits="objectBoundingBox">
      <stop offset="0" stop-color="#87d3e0"/>
      <stop offset="1" stop-color="#1aa9c1"/>
    </radialGradient>
    <linearGradient id="linear-gradient" x1="0.522" y1="-0.004" x2="0.428" y2="0.99" gradientUnits="objectBoundingBox">
      <stop offset="0.509" stop-color="#fff" stop-opacity="0"/>
      <stop offset="0.566" stop-color="#fffbed" stop-opacity="0.09"/>
      <stop offset="0.686" stop-color="#fff1c2" stop-opacity="0.318"/>
      <stop offset="0.858" stop-color="#ffe27c" stop-opacity="0.678"/>
      <stop offset="1" stop-color="#ffd53f"/>
    </linearGradient>
  </defs>
  <g id="Grupo_26162" data-name="Grupo 26162" transform="translate(18428.037 9986.86)">
    <path id="Trazado_99134" data-name="Trazado 99134" d="M345.233,141.61C318.141,100.541,337.118,19.237,286.48,3.2s-74.171,32.711-164.2,48.134-170,74.9-88.257,145.855-14.1,124.746,56.289,124.751,89.235,37.6,155.831,21.2S376.185,272.791,375.2,231.079,372.325,182.678,345.233,141.61Z" transform="matrix(0.921, 0.391, -0.391, 0.921, -18292.346, -9986.86)" fill="url(#radial-gradient)"/>
    <path id="Trazado_99332" data-name="Trazado 99332" d="M187.451,146.1s-4.039,24.015-13.917,33.666-14.691,14.995-9.625,25.62,7.346,21.011,1.773,28.862-.317,22.933,17.73,26.6,71.578,3.529,84.243-6.6,8.788-29.7,3.179-35.484-10.16-11.883-6.872-21.879,2.529-10.045,1.263-17.113-.164-9.262-1.328-20.478S202.634,132.923,187.451,146.1Z" transform="translate(-18392.123 -9971.304)"/>
    <path id="Trazado_99333" data-name="Trazado 99333" d="M312.9,229.326c.5-1.463,13.663-9.883,17.831-3.2s3.705,14.788,5.095,22.429,11.034,36.2,10.535,39.342-2.43,9.056-10.535,8.362S309.427,239.506,312.9,229.326Z" transform="translate(-18458.805 -10007.877)" fill="#febe9d"/>
    <path id="Trazado_99334" data-name="Trazado 99334" d="M338.109,298.715c-4.561-4.9-15.018-17.241-15.018-17.241l-.533,4.466c1.515,4.978,3.233,10,5.023,14.655l14.709,14.5,4.96-7.324S342.67,303.619,338.109,298.715Z" transform="translate(-18463.273 -10033.512)" fill="#d88e67"/>
    <path id="Trazado_99335" data-name="Trazado 99335" d="M207.276,221.992c-1.955.858-30.589,10.59-35.666,23.566s9.225,44.179,13.739,56.591c0,0,17.854,7.154,63.159-.225,0,0,8.6-15.98,10.862-26.135s-7.986-52.848-7.986-52.848S220.838,216.039,207.276,221.992Z" transform="translate(-18395.959 -10006.103)" fill="#fd8f3d"/>
    <path id="Trazado_99336" data-name="Trazado 99336" d="M269.071,220.927c-11.727-1.118-35.155-2.645-45.12,1.73-.754.331-5.477,1.983-11.285,4.63,2.879,10.783,16.311,33.2,31.037,29.481,19.38-4.9,26.337-35.521,26.337-35.521S269.7,221.128,269.071,220.927Z" transform="translate(-18414.613 -10006.173)" fill="#eb996e"/>
    <path id="Trazado_99337" data-name="Trazado 99337" d="M268.61,240.649a86.991,86.991,0,0,0,9.273-19s-.341-.118-.968-.32c-11.728-1.118-35.156-2.645-45.12,1.73-.34.149-1.5.571-3.193,1.23,0,.006,6.592,19.118,17.932,21.741C252.659,247.442,260.92,244.358,268.61,240.649Z" transform="translate(-18421.67 -10006.349)" fill="#ce8863"/>
    <ellipse id="Elipse_10752" data-name="Elipse 10752" cx="7.431" cy="10.633" rx="7.431" ry="10.633" transform="translate(-18205.676 -9804.5) rotate(-4.362)" fill="#eb996e"/>
    <path id="Trazado_99338" data-name="Trazado 99338" d="M278.439,163.849c-3.946,26.027-20.1,33.2-32.026,33.659-12.4.476-25.776-16.848-23.155-41.167,2.19-20.326,17.343-35,32.581-32.926S281.5,143.636,278.439,163.849Z" transform="translate(-18419.156 -9963.439)" fill="#febe9d"/>
    <path id="Trazado_99339" data-name="Trazado 99339" d="M222.934,173.9s15.352-10.9,17.718-13.7c0,0,5,14.016,16.379,15.086,0,0-2.949-7.21-2.5-10.47,0,0,5.042,8.573,18.278,8.408,0,0,3.339-24.234-18.667-26.872S222.294,171.344,222.934,173.9Z" transform="translate(-18419.146 -9973.601)" fill="#eb996e"/>
    <path id="Trazado_99340" data-name="Trazado 99340" d="M253.189,209.378a30.722,30.722,0,0,0-3.488-.515c-1.165-.2-2.32-.448-3.463-.751a.311.311,0,0,0-.165.6c.691.218,1.44.455,2.215.665a4.377,4.377,0,0,0-.853,2.685c-.028.869.143,2.027,1.058,2.4,2.038.83,2.994-2.881,2.88-4.506a8.063,8.063,0,0,0,1.817-.05C253.472,209.864,253.428,209.449,253.189,209.378Z" transform="translate(-18429.309 -10001.022)" fill="#1c1c1c"/>
    <path id="Trazado_99341" data-name="Trazado 99341" d="M293.962,218.941a29.555,29.555,0,0,1-5.346-3.257c-.3-.235-.7.137-.427.427a14.853,14.853,0,0,0,1.207,1.14c-1.121,1.153-2.066,4.089-.379,5.1,1.952,1.168,2.531-2.124,2.664-3.526a12.025,12.025,0,0,0,1.96.879A.418.418,0,0,0,293.962,218.941Z" transform="translate(-18448.014 -10004.348)" fill="#1c1c1c"/>
    <path id="Trazado_99342" data-name="Trazado 99342" d="M299.475,204.854a33.368,33.368,0,0,1-3.552-1.41,8.774,8.774,0,0,1-2.957-3.142c-.267-.471-.953-.056-.719.421a9.778,9.778,0,0,0,2.8,3.464c1.07.829,2.73,1.862,4.139,1.74C299.7,205.882,300.035,205.127,299.475,204.854Z" transform="translate(-18449.83 -9997.479)" fill="#1c1c1c"/>
    <path id="Trazado_99343" data-name="Trazado 99343" d="M255.935,193.468a20.9,20.9,0,0,1-6.606,1.186c-1.783.029-3.542-.53-5.295-.279a.271.271,0,0,0-.119.451c3.186,2.677,9.06.976,12.247-.821C256.446,193.845,256.256,193.355,255.935,193.468Z" transform="translate(-18428.416 -9994.536)" fill="#1c1c1c"/>
    <path id="Trazado_99344" data-name="Trazado 99344" d="M272.343,209.239a14.68,14.68,0,0,0-2.155,6.605c-.136,1.787-.042,3.843-1.457,5.2-1.223,1.174-2.989,1.168-4.537,1.445a.383.383,0,0,0,0,.733,5.578,5.578,0,0,0,5.967-2.473,8.768,8.768,0,0,0,.735-3.689,18.986,18.986,0,0,1,1.776-7.628A.19.19,0,0,0,272.343,209.239Z" transform="translate(-18437.309 -10001.485)" fill="#1c1c1c"/>
    <path id="Trazado_99345" data-name="Trazado 99345" d="M264.916,243.58c-1.519-3.137-7.392-2.616-9.781-1.023-.272.182-.007.67.288.508a8.825,8.825,0,0,1,5.466-.674,4.867,4.867,0,0,1,2.333.66,8.1,8.1,0,0,0,1.329.886C264.758,244.021,265.025,243.806,264.916,243.58Z" transform="translate(-18433.367 -10015.719)" fill="#1c1c1c"/>
    <path id="Trazado_99346" data-name="Trazado 99346" d="M233.3,116.953s1.736,17.281-7.673,28.034-21.5,19.794-15.171,32.627c6.924,14.034,8.428,22.469-1.226,31.1,0,0,1.226-11.661-8.373-18.8-8.179-6.08-7.1-17.578-2.689-31.638s.664-27.575,10.457-37.176S229.073,113.305,233.3,116.953Z" transform="translate(-18406.693 -9959.365)"/>
    <path id="Trazado_99347" data-name="Trazado 99347" d="M252.612,122.093c-.008,1.432-.115,25.3,15.074,31.6,0,0-4.484-9.44-2.32-19.079,0,0,1.857,13.23,13.088,18.217s16.727,8.757,15.459,16.7c-5.3,33.207,9.946,30.665,9.946,30.665s-9.371-13.137-.043-50.5c3.8-15.219-3.519-33.035-20.163-42.062S252.708,105.612,252.612,122.093Z" transform="translate(-18432.303 -9954.78)"/>
    <path id="Trazado_99355" data-name="Trazado 99355" d="M275.3,392.824c-8.881,18.692-49.926,19.129-80.762,12.828-73.813-15.085-139.45,15.6-147.269-21.5-3.227-15.314,15.464-18.565,15.464-18.565H269.206S282.99,376.628,275.3,392.824Z" transform="translate(-18341.211 -10070.758)" fill="#d40"/>
    <path id="Trazado_99356" data-name="Trazado 99356" d="M285.778,267.762s19.382,43.918,24.439,47.4c6.214,4.281,11.428,6.118,14.778,5.322s13.527-12.177,8.771-19.445c-3.464-5.292-5.865-4.344-16.418-14.7S296.583,258.8,296.583,258.8Z" transform="translate(-18446.988 -10023.473)" fill="#febe9d"/>
    <path id="Trazado_99357" data-name="Trazado 99357" d="M311.077,231.906s10.545-12.372,10.78-16.731-2.691-17.853-4.587-17.6-2.794,2.936-2.3,6.779-2.528,21.225-3.9,23.338A4.055,4.055,0,0,0,311.077,231.906Z" transform="translate(-18457.922 -9996.359)" fill="#eb996e"/>
    <path id="Trazado_99358" data-name="Trazado 99358" d="M300.442,208.986s-3.077-.132-3.438,4.2-.4,6.757-1.637,8.419-10.289,3.363-13.4,7.049a11.53,11.53,0,0,0-2.938,8.012c-.028,1.023,19.643-9.1,19.711-9.388s1.8-11.2,1.8-11.2Z" transform="translate(-18444.002 -10001.415)" fill="#d88e67"/>
    <path id="Trazado_99359" data-name="Trazado 99359" d="M303.833,218.434c-.208-2.274-.447-4.546-.673-6.818-.07-.7.117-2.681-.549-3.2-1.559-1.224-3.877,1.577-4.38,2.7-1.624,3.625.751,8.146-2.36,11.252-2.683,2.68-7.205,2.97-10.448,4.808-3.061,1.735-5.67,4.565-6.3,8.148-.563,3.217.33,5.085,2.9,9.191,0,0,0,.007,0,.011a1.946,1.946,0,0,0,.727.792c1.742,1.009,3.705-.371,4.9-.845a18.511,18.511,0,0,0,8.021-6.088c2.5-3.15,5.107-6.336,7.369-9.663C305.131,225.664,304.15,221.906,303.833,218.434Z" transform="translate(-18443.973 -10001.027)" fill="#febe9d"/>
    <rect id="Rectángulo_14111" data-name="Rectángulo 14111" width="46.286" height="32.262" rx="11.61" transform="translate(-18113.598 -9809.341)" fill="#fefffd"/>
    <path id="Trazado_99368" data-name="Trazado 99368" d="M398.2,191.258h31.082a.836.836,0,0,0,0-1.672H398.2a.836.836,0,0,0,0,1.672" transform="translate(-18504.199 -9992.825)" fill="#37b18a"/>
    <path id="Trazado_99369" data-name="Trazado 99369" d="M398.2,202.258h31.082a.836.836,0,0,0,0-1.672H398.2a.836.836,0,0,0,0,1.672" transform="translate(-18504.199 -9997.696)" fill="#37b18a"/>
    <path id="Trazado_99370" data-name="Trazado 99370" d="M398.2,213.258h31.082a.836.836,0,0,0,0-1.672H398.2a.836.836,0,0,0,0,1.672" transform="translate(-18504.199 -10002.566)" fill="#37b18a"/>
    <path id="Trazado_99371" data-name="Trazado 99371" d="M398.2,224.258h31.082a.836.836,0,0,0,0-1.672H398.2a.836.836,0,0,0,0,1.672" transform="translate(-18504.199 -10007.438)" fill="#37b18a"/>
    <path id="Trazado_99372" data-name="Trazado 99372" d="M399.261,233.892c-.569.458-1.565,8.874-5.546,12.63,0,0,9.756-2.518,13.2-11.679Z" transform="translate(-18502.582 -10012.443)" fill="#fefffd"/>
    <circle id="Elipse_10753" data-name="Elipse 10753" cx="19.309" cy="19.309" r="19.309" transform="translate(-18144.926 -9835.604) rotate(-76.717)" fill="#fefffd"/>
    <path id="Trazado_99373" data-name="Trazado 99373" d="M385.825,127.357c-.172.431.322,4.65,3.317,4.65s3.167-4.65,3.167-4.65Z" transform="translate(-18511.334 -9969.887)" fill="#f85b51"/>
    <path id="Trazado_99374" data-name="Trazado 99374" d="M375.285,114.968h19.393A11.625,11.625,0,0,1,393,110.005c-.115-2.535.431-15.209-8.023-15.094s-8.8,8.987-8.684,10.6.461,5.185.115,6.452A25.526,25.526,0,0,1,375.285,114.968Z" transform="translate(-18506.68 -9955.52)" fill="#febd1a"/>
    <path id="Trazado_99375" data-name="Trazado 99375" d="M387.936,93.293s-1.121-4.084,1.761-4.244,2.722,3.683,2.4,4.244h-1.611s.6-2.562-.494-2.562-.617,2.562-.617,2.562Z" transform="translate(-18512.186 -9952.922)" fill="#febd1a"/>
    <path id="Trazado_99376" data-name="Trazado 99376" d="M361.727,127.357l-6.474,11.878,11.163-5.939Z" transform="translate(-18497.809 -9969.887)" fill="#fefffd"/>
    <circle id="Elipse_10754" data-name="Elipse 10754" cx="19.309" cy="19.309" r="19.309" transform="translate(-18222.27 -9873.189)" fill="#fefffd"/>
    <path id="Trazado_99377" data-name="Trazado 99377" d="M265.734,44.336a8.217,8.217,0,0,0-8.387,3.018,8.217,8.217,0,0,0-8.387-3.018c-5.282,1.32-3.951,9.489-.816,13.335s9.2,7.693,9.2,7.693,6.069-3.846,9.2-7.693S271.015,45.656,265.734,44.336Z" transform="translate(-18460.307 -9906.668)" fill="#fb5957"/>
    <path id="Trazado_99378" data-name="Trazado 99378" d="M264.371,89.044l4.71,11.894,2.5-11.894Z" transform="translate(-18468.711 -9926.575)" fill="#fefffd"/>
    <rect id="Rectángulo_14112" data-name="Rectángulo 14112" width="46.286" height="32.262" rx="11.61" transform="translate(-18285.668 -9801.171)" fill="#fefffd"/>
    <rect id="Rectángulo_14113" data-name="Rectángulo 14113" width="32.608" height="19.542" rx="7.842" transform="translate(-18278.83 -9794.811)" fill="#23aece"/>
    <path id="Trazado_99379" data-name="Trazado 99379" d="M130.69,111.948v-.73l-.162.713a.68.68,0,0,0,.162.018v-.73l-.162.713.12-.528-.2.5a.48.48,0,0,0,.08.024l.12-.528-.2.5.052-.132-.055.13h0l.052-.132-.055.13s.108.052.24.125c.515.283,1.6.932,2.915,1.733,1.974,1.2,4.481,2.762,6.494,4.017,1.006.628,1.889,1.181,2.521,1.576l1.01.634a.778.778,0,0,0,.8.016l14.212-8.162a.779.779,0,0,0-.776-1.352l-14.212,8.162.388.676.415-.66s-3.249-2.042-6.544-4.084c-1.648-1.021-3.306-2.043-4.58-2.811-.637-.384-1.177-.7-1.576-.934-.2-.114-.364-.206-.5-.274-.066-.035-.124-.063-.186-.09l-.11-.043-.09-.026a.826.826,0,0,0-.183-.021.779.779,0,1,0,0,1.559Z" transform="translate(-18406.945 -9902.594)" fill="#fefffd"/>
    <path id="Trazado_99380" data-name="Trazado 99380" d="M152.151,150.577s2.851,10.381,13.6,12.1c0,0-3.858-6.642-3.355-12.1Z" transform="translate(-18416.793 -9920.389)" fill="#fefffd"/>
    <path id="Trazado_99381" data-name="Trazado 99381" d="M110.148,391.338l-.876.744a.641.641,0,0,0,.243,1.106l37.33,10.419a.636.636,0,0,0,.284.014l2.9-.514a.641.641,0,0,0,.414-1l-.257-.369a.639.639,0,0,0-.363-.253l-39.1-10.281A.642.642,0,0,0,110.148,391.338Z" transform="translate(-18368.732 -10082.092)" fill="#0e5c69"/>
    <rect id="Rectángulo_14114" data-name="Rectángulo 14114" width="3.577" height="34.484" transform="translate(-18254.494 -9689.057) rotate(-74.909)" fill="#febd1a"/>
    <path id="Rectángulo_14115" data-name="Rectángulo 14115" d="M1.789,0h0A1.789,1.789,0,0,1,3.577,1.789V3.776a0,0,0,0,1,0,0H0a0,0,0,0,1,0,0V1.789A1.789,1.789,0,0,1,1.789,0Z" transform="translate(-18260.09 -9690.565) rotate(-74.909)" fill="#eb4748"/>
    <path id="Trazado_99382" data-name="Trazado 99382" d="M118.153,387.774a3.614,3.614,0,0,0-1,3.721l-2.653-.715a4.327,4.327,0,0,1,1-3.721Z" transform="translate(-18371.109 -10080.265)" fill="#9383ff"/>
    <path id="Trazado_99383" data-name="Trazado 99383" d="M177.577,407.873l4.368-.675-3.436-2.779-1.091.583.342,1.067-.858.847Z" transform="translate(-18398.777 -10087.952)" fill="#ff936f"/>
    <path id="Trazado_99384" data-name="Trazado 99384" d="M183.871,408.251l-1.8-1.454a1.167,1.167,0,0,0-.588,1.823Z" transform="translate(-18400.703 -10089.005)" fill="#19143d"/>
    <path id="Trazado_99385" data-name="Trazado 99385" d="M120.054,393.135l30.707,7.988a.277.277,0,0,0,.338-.2.272.272,0,0,0-.2-.333L120.2,392.607a.276.276,0,0,0-.337.194.271.271,0,0,0,.2.334" transform="translate(-18373.516 -10082.718)" fill="#ef9a1d"/>
    <ellipse id="Elipse_10755" data-name="Elipse 10755" cx="16.946" cy="1.807" rx="16.946" ry="1.807" transform="translate(-18106.926 -9699.628)" fill="#0e5c69"/>
    <path id="Trazado_99386" data-name="Trazado 99386" d="M420.043,331.187c.12-.113,9.4-7.919,12.225,1.245s-3.168,17.309-6.9,19.006-9.05,1.245-9.05,1.245l2.15-3.734s4.978.9,8.145-2.828,5.075-11.63,1.809-13.377-6.835,2.886-6.835,2.886Z" transform="translate(-18504.787 -10054.104)" fill="#f5f4f7"/>
    <path id="Trazado_99387" data-name="Trazado 99387" d="M423,331.772l1.543,4.442a11.318,11.318,0,0,1,2.946-2.583,14.256,14.256,0,0,1-.449-4.329A17.3,17.3,0,0,0,423,331.772Z" transform="translate(-18507.748 -10054.69)" fill="#dcd6e5"/>
    <path id="Trazado_99388" data-name="Trazado 99388" d="M422,365.376a10.054,10.054,0,0,1-3.532.131l-2.15,3.734a25.134,25.134,0,0,0,6.2-.366A16.6,16.6,0,0,1,422,365.376Z" transform="translate(-18504.787 -10070.663)" fill="#dcd6e5"/>
    <path id="Trazado_99389" data-name="Trazado 99389" d="M408.091,325.558c0-1.216-6.074-2.2-13.568-2.2s-13.567.986-13.567,2.2c1.7,11.269,3.277,23.314,5.52,27.858,0,.722,3.6,1.306,8.047,1.306s8.047-.585,8.047-1.306h0c2.3-3.162,3.86-16.187,5.521-27.858Z" transform="translate(-18489.131 -10052.058)" fill="#f5f4f7"/>
    <path id="Trazado_99390" data-name="Trazado 99390" d="M406.415,371.8a25.906,25.906,0,0,0,1.041-3.393,41.469,41.469,0,0,1-19.566-.159c.311,1.273.635,2.408.973,3.374A36.79,36.79,0,0,0,406.415,371.8Z" transform="translate(-18492.201 -10071.936)" fill="#eb4748"/>
    <path id="Trazado_99391" data-name="Trazado 99391" d="M386.534,361.984a44.186,44.186,0,0,0,20.549.089c.2-.957.393-1.981.583-3.054a49.824,49.824,0,0,1-21.741-.106C386.124,359.986,386.326,361.013,386.534,361.984Z" transform="translate(-18491.332 -10067.802)" fill="#eb4748"/>
    <path id="Trazado_99392" data-name="Trazado 99392" d="M407.936,326.014c0,.988-5.735,1.79-12.811,1.79s-12.81-.8-12.81-1.79,5.735-1.79,12.81-1.79S407.936,325.025,407.936,326.014Z" transform="translate(-18489.732 -10052.441)" fill="#dcd6e5"/>
    <path id="Trazado_99393" data-name="Trazado 99393" d="M206.079,409.113s42.642-3.873,53.551-1.879l2.945-.4a407.414,407.414,0,0,1,47.216-5.156l-52.158-6.634S209.243,404.2,206.079,409.113Z" transform="translate(-18411.695 -10083.802)" fill="#0e5c69"/>
    <path id="Trazado_99394" data-name="Trazado 99394" d="M205.379,402.492l-.913,2.318,1.313,1.951c4.513-1.9,40.46-5.468,52.06-3.294l1.077.917,2.945-.4.57-1.494s27.947-5.825,47.061-3.164l.711-2.994-34.979-7.725-58.577,5.59Z" transform="translate(-18410.982 -10080.952)" fill="#eb4748"/>
    <path id="Trazado_99395" data-name="Trazado 99395" d="M259.734,403.9s19.885-8.7,50.375-4.8l.094-.4-5.76-1.272L294.1,395.143,256.2,393.954l-41.678,4.172-9.148,6.732-.913,2.318S239.555,400.469,259.734,403.9Z" transform="translate(-18410.982 -10083.318)" fill="#d13b46"/>
    <path id="Trazado_99396" data-name="Trazado 99396" d="M202.444,395.2l2.04,3.958c7.6-2.492,27.546-6.4,54.263-3.223,12.64-5.956,38.839-6.38,48.888-4.506l.539-5.226-25.857-8.5-70.207,8.284Z" transform="translate(-18410.086 -10076.121)" fill="#dcdae5"/>
    <path id="Trazado_99397" data-name="Trazado 99397" d="M257.816,388.945l-9.4-14.1s-25.181-8.911-42.557,2.125l-3.413,15.461C202.572,393.92,223.691,380.314,257.816,388.945Z" transform="translate(-18410.086 -10073.35)" fill="#f5f4f7"/>
    <path id="Trazado_99398" data-name="Trazado 99398" d="M344.7,380.139c.6.972-31.266-7.274-50.358,5.515l-9.4-14.1s15.97-11.092,39.838-6.369Z" transform="translate(-18446.617 -10070.059)" fill="#f5f4f7"/>
    <path id="Trazado_99399" data-name="Trazado 99399" d="M294.346,389.339l-9.4-14.1s4.5-2.484,5.478-2.9c0,0-.85,9.726,10.076,13.719C300.657,386.039,295.792,388.166,294.346,389.339Z" transform="translate(-18446.617 -10073.744)" fill="#dcdae5"/>
    <path id="Trazado_99400" data-name="Trazado 99400" d="M274.314,399.266c.323.048,11.08-5.08,17.076-5.367,0,0-13.292,3.671-15.461,5.585,0,0,18.714-6.382,26.624-5.585,0,0-18.308,2.009-26.345,7.3,0,0,15.361-4.026,20.534-3,0,0-8.808.012-21.5,4.874,0,0-19.076-1.893-29.247-.908,0,0,16.424-1.147,26.563-.4.153-.333-19.309-2.913-32.858-.41,0,0,12.236-3.786,32.5-1.55,0,0-12.746-2.223-19.537-1.881C252.67,397.932,257.969,396.831,274.314,399.266Z" transform="translate(-18426.584 -10083.264)" fill="#b0a8c1"/>
    <path id="Trazado_99363" data-name="Trazado 99363" d="M183.272,225.858,125.709,117.568S240.395,64,287.446,140.793l-76.468,87.748Z" transform="translate(-18376.111 -9952.889)" fill="url(#linear-gradient)"/>
    <path id="Trazado_99364" data-name="Trazado 99364" d="M248.054,330.855l-23.374-2.708a2.014,2.014,0,0,1-1.778-2.133l2.8-42.417a2.014,2.014,0,0,1,2.3-1.86l28.675,4.218a2.014,2.014,0,0,1,1.682,2.384l-8.1,40.907A2.014,2.014,0,0,1,248.054,330.855Z" transform="translate(-18419.145 -10033.619)" fill="#334a66"/>
    <path id="Trazado_99365" data-name="Trazado 99365" d="M248.038,332.859l-23.369-2.747a1.977,1.977,0,0,1-1.793-2.034l2.467-40.157a1.952,1.952,0,0,1,2.286-1.744l28.675,4.217a1.956,1.956,0,0,1,1.7,2.271l-7.773,38.687A1.965,1.965,0,0,1,248.038,332.859Z" transform="translate(-18419.135 -10035.584)" fill="#15143b"/>
    <path id="Trazado_99366" data-name="Trazado 99366" d="M211.241,323.772c0-.581,0-6.619,2.256-10.683s3.8-6.27,2.968-9.289,3.764-2.988,4.117,2.379-2.085,7.951-1.069,9.044c0,0,6.762-5.187,13.257-9.181,5.514-3.391,12.087-4.832,12.86-2.807.654,1.713-5.621,3.532-9.769,6.964a40.392,40.392,0,0,0-5.276,5.321c-.3.353,3.39-1.419,7.971-2.168,3.155-.515,8.516-.483,10.552.307,2.626,1.019,1.882,3.013.788,3.6a11.7,11.7,0,0,1-2.479.882,1.92,1.92,0,0,1,1.231,1.132c.519,1.215,1.212,3.041-1.156,3.225-4.36.337-11.639,2.323-12.606,4.233.635-.615,11.006.765,12.633,5.47.975,2.818-12.584-1.782-14.727-.128-1.439,1.112-11.195,5-15.969,5Z" transform="translate(-18413.982 -10042.502)" fill="#febe9d"/>
    <path id="Trazado_99367" data-name="Trazado 99367" d="M262.873,330.712a28.765,28.765,0,0,0-15.416,3.047" transform="translate(-18430.02 -10055.271)" fill="#d88e67" stroke="#d48b65" stroke-linecap="round" stroke-linejoin="round" stroke-width="3"/>
    <line id="Línea_1069" data-name="Línea 1069" x2="0.557" transform="translate(-18147.787 -9783.514)" fill="none" stroke="#a58108" stroke-linecap="round" stroke-width="3"/>
    <path id="Trazado_99360" data-name="Trazado 99360" d="M149.525,247.394s-6.225,3.3-16.256,18.99-27.258,24.76-29.95,30.387-5.936,15.937-1.777,18.844,14.048,5.119,22.755,3.9,43.072-6.648,43.072-6.648l-4.129-13.905s-22.237,2.657-32.513-.034c0,0,15.394-6.183,18.085-9.929S160.153,261.153,149.525,247.394Z" transform="translate(-18364.529 -10018.421)" fill="#febe9d"/>
    <path id="Trazado_99361" data-name="Trazado 99361" d="M153.279,336.333c-3.37-.323-9.439-.906-10.839-1.049a60.368,60.368,0,0,1,7.277,2.558S151.18,337.254,153.279,336.333Z" transform="translate(-18383.52 -10057.338)" fill="#e6a07c"/>
    <path id="Trazado_99362" data-name="Trazado 99362" d="M142.013,335.233c-.2-.017-.11-.006.19.025C142.135,335.247,142.07,335.238,142.013,335.233Z" transform="translate(-18383.283 -10057.313)" fill="#e6a07c"/>
    <text id="Intenta_más_tarde" data-name="Intenta más tarde" transform="translate(-18256.441 -9629.246)" fill="#fff" font-size="10" font-family="Montserrat-Medium, Montserrat" font-weight="500"><tspan x="44.261" y="10">Intenta más tarde</tspan></text>
    <text id="Aún_no_hay_datos_para_mostrar" data-name="Aún no hay datos para mostrar" transform="translate(-18287.016 -9637.146)" fill="#fff" font-size="14" font-family="Montserrat-BoldItalic, Montserrat" font-weight="700" font-style="italic"><tspan x="0" y="0">Aún no hay datos para mostrar</tspan></text>
    <g id="Trazado_99401" data-name="Trazado 99401" transform="translate(-18186.285 -9800.238)" fill="rgba(255,255,255,0.27)">
      <path d="M 8.68845272064209 17.42564964294434 C 4.173322677612305 17.42564964294434 0.5000028610229492 13.75232028961182 0.5000028610229492 9.237190246582031 C 0.5000028610229492 8.286370277404785 0.5188528895378113 6.877910614013672 0.6818628907203674 5.629380702972412 C 0.868276834487915 4.201579093933105 1.167455315589905 3.535747528076172 1.417869806289673 3.226554393768311 C 1.658096432685852 3.192546606063843 2.190824747085571 3.096465826034546 3.451382875442505 2.825050592422485 C 4.414029598236084 2.617773532867432 4.918454170227051 2.50916314125061 5.197359085083008 2.435779809951782 C 5.541486263275146 2.574554920196533 6.251541137695312 2.811223745346069 7.810883045196533 3.330960512161255 C 10.14285278320312 4.108210563659668 13.33659267425537 5.17270040512085 14.65606307983398 5.749760627746582 C 14.73016262054443 5.782030582427979 15.13865280151367 6.016670703887939 15.97957324981689 7.503800392150879 C 16.4315299987793 8.303071975708008 16.79039001464844 9.086977005004883 16.87659454345703 9.310036659240723 C 16.83742713928223 13.79184055328369 13.17933177947998 17.42564964294434 8.68845272064209 17.42564964294434 Z M 5.254461765289307 2.213503360748291 L 4.900816917419434 2.190160751342773 L 4.756823062896729 2.054450511932373 L 4.8592529296875 1.574920535087585 L 5.649033069610596 1.62704062461853 L 5.679632663726807 1.679230570793152 L 5.254461765289307 2.213503360748291 Z" stroke="none"/>
      <path d="M 5.157821655273438 2.959291458129883 C 4.824491500854492 3.040843963623047 4.326173782348633 3.148138046264648 3.556622505187988 3.313831329345703 C 2.582098007202148 3.523660659790039 2.031497955322266 3.631420135498047 1.708422660827637 3.686758041381836 C 1.552286148071289 3.956735610961914 1.330171585083008 4.525927543640137 1.177652359008789 5.694110870361328 C 1.018423080444336 6.913760185241699 1.000003814697266 8.30033016204834 1.000003814697266 9.237190246582031 C 1.000003814697266 13.4766206741333 4.449023246765137 16.92565155029297 8.68845272064209 16.92565155029297 C 12.87173271179199 16.92565155029297 16.2854118347168 13.5673885345459 16.37510299682617 9.405228614807129 C 16.26153755187988 9.138331413269043 15.95778942108154 8.48636531829834 15.57097244262695 7.797200202941895 C 14.85877990722656 6.528310775756836 14.48844432830811 6.235880851745605 14.43923473358154 6.200681686401367 C 13.13023281097412 5.63096809387207 9.965849876403809 4.576259613037109 7.652712821960449 3.805280685424805 C 6.8763427734375 3.546510696411133 6.205842971801758 3.323040008544922 5.713932991027832 3.154150009155273 C 5.488711357116699 3.076822280883789 5.307013511657715 3.014436721801758 5.157821655273438 2.959291458129883 M 5.233642578125 1.905271530151367 C 5.234152793884277 1.905397415161133 5.234273910522461 1.905609130859375 5.234015464782715 1.905900955200195 C 5.233868598937988 1.905683517456055 5.233747482299805 1.905475616455078 5.233642578125 1.905271530151367 Z M 5.234015464782715 1.905900955200195 C 5.319663047790527 2.033363342285156 12.63866996765137 4.321741104125977 14.85641288757324 5.291660308837891 C 15.82054328918457 5.711450576782227 17.38344192504883 9.112690925598145 17.37691307067871 9.237190246582031 C 17.37691307067871 14.03569030761719 13.48696327209473 17.92565155029297 8.68845272064209 17.92565155029297 C 3.889952659606934 17.92565155029297 3.814697265625e-06 14.03569030761719 3.814697265625e-06 9.237190246582031 C 3.814697265625e-06 7.1114501953125 0.09979248046875 3.734809875488281 1.189182281494141 2.741241455078125 C 1.269302368164062 2.810905456542969 5.207822799682617 1.935558319091797 5.234015464782715 1.905900955200195 Z" stroke="none" fill="#000"/>
    </g>
    <g id="Trazado_99402" data-name="Trazado 99402" transform="translate(-18163.945 -9794.666)" fill="rgba(255,255,255,0.27)">
      <path d="M 8.68845272064209 17.42564964294434 C 4.173322677612305 17.42564964294434 0.5000028610229492 13.75232028961182 0.5000028610229492 9.237190246582031 C 0.5000028610229492 8.286370277404785 0.5188528895378113 6.877910614013672 0.6818628907203674 5.629380702972412 C 0.868276834487915 4.201579093933105 1.167455315589905 3.535747528076172 1.417869806289673 3.226554393768311 C 1.658096432685852 3.192546606063843 2.190824747085571 3.096465826034546 3.451382875442505 2.825050592422485 C 4.414029598236084 2.617773532867432 4.918454170227051 2.50916314125061 5.197359085083008 2.435779809951782 C 5.541486263275146 2.574554920196533 6.251541137695312 2.811223745346069 7.810883045196533 3.330960512161255 C 10.14285278320312 4.108210563659668 13.33659267425537 5.17270040512085 14.65606307983398 5.749760627746582 C 14.73016262054443 5.782030582427979 15.13865280151367 6.016670703887939 15.97957324981689 7.503800392150879 C 16.4315299987793 8.303071975708008 16.79039001464844 9.086977005004883 16.87659454345703 9.310036659240723 C 16.83742713928223 13.79184055328369 13.17933177947998 17.42564964294434 8.68845272064209 17.42564964294434 Z M 5.254461765289307 2.213503360748291 L 4.900816917419434 2.190160751342773 L 4.756823062896729 2.054450511932373 L 4.8592529296875 1.574920535087585 L 5.649033069610596 1.62704062461853 L 5.679632663726807 1.679230570793152 L 5.254461765289307 2.213503360748291 Z" stroke="none"/>
      <path d="M 5.157821655273438 2.959291458129883 C 4.824491500854492 3.040843963623047 4.326173782348633 3.148138046264648 3.556622505187988 3.313831329345703 C 2.582098007202148 3.523660659790039 2.031497955322266 3.631420135498047 1.708422660827637 3.686758041381836 C 1.552286148071289 3.956735610961914 1.330171585083008 4.525927543640137 1.177652359008789 5.694110870361328 C 1.018423080444336 6.913760185241699 1.000003814697266 8.30033016204834 1.000003814697266 9.237190246582031 C 1.000003814697266 13.4766206741333 4.449023246765137 16.92565155029297 8.68845272064209 16.92565155029297 C 12.87173271179199 16.92565155029297 16.2854118347168 13.5673885345459 16.37510299682617 9.405228614807129 C 16.26153755187988 9.138331413269043 15.95778942108154 8.48636531829834 15.57097244262695 7.797200202941895 C 14.85877990722656 6.528310775756836 14.48844432830811 6.235880851745605 14.43923473358154 6.200681686401367 C 13.13023281097412 5.63096809387207 9.965849876403809 4.576259613037109 7.652712821960449 3.805280685424805 C 6.8763427734375 3.546510696411133 6.205842971801758 3.323040008544922 5.713932991027832 3.154150009155273 C 5.488711357116699 3.076822280883789 5.307013511657715 3.014436721801758 5.157821655273438 2.959291458129883 M 5.233642578125 1.905271530151367 C 5.234152793884277 1.905397415161133 5.234273910522461 1.905609130859375 5.234015464782715 1.905900955200195 C 5.233868598937988 1.905683517456055 5.233747482299805 1.905475616455078 5.233642578125 1.905271530151367 Z M 5.234015464782715 1.905900955200195 C 5.319663047790527 2.033363342285156 12.63866996765137 4.321741104125977 14.85641288757324 5.291660308837891 C 15.82054328918457 5.711450576782227 17.38344192504883 9.112690925598145 17.37691307067871 9.237190246582031 C 17.37691307067871 14.03569030761719 13.48696327209473 17.92565155029297 8.68845272064209 17.92565155029297 C 3.889952659606934 17.92565155029297 3.814697265625e-06 14.03569030761719 3.814697265625e-06 9.237190246582031 C 3.814697265625e-06 7.1114501953125 0.09979248046875 3.734809875488281 1.189182281494141 2.741241455078125 C 1.269302368164062 2.810905456542969 5.207822799682617 1.935558319091797 5.234015464782715 1.905900955200195 Z" stroke="none" fill="#000"/>
    </g>
    <line id="Línea_1066" data-name="Línea 1066" x2="5.572" y2="1.114" transform="translate(-18169.518 -9788.528)" fill="none" stroke="#000" stroke-linecap="round" stroke-width="2"/>
    <line id="Línea_1068" data-name="Línea 1068" x2="4.458" y2="5.015" transform="translate(-18192.92 -9801.344)" fill="none" stroke="#000" stroke-linecap="round" stroke-width="2"/>
    <line id="Línea_1067" data-name="Línea 1067" x2="2.177" y2="2.229" transform="translate(-18188.463 -9796.329)" fill="none" stroke="#a58108" stroke-linecap="round" stroke-width="3"/>
  </g>
</svg>
