<svg id="ic_noContent_blankScreen" xmlns="http://www.w3.org/2000/svg" xmlns:xlink="http://www.w3.org/1999/xlink" width="101.468" height="120.642" viewBox="0 0 101.468 120.642">
  <defs>
    <clipPath id="clip-path">
      <rect id="Rectángulo_15483" data-name="Rectángulo 15483" width="101.468" height="120.642" fill="#fc5d00"/>
    </clipPath>
  </defs>
  <g id="Grupo_35731" data-name="Grupo 35731" transform="translate(0 0)">
    <g id="Grupo_35731-2" data-name="Grupo 35731" transform="translate(0 0)" clip-path="url(#clip-path)">
      <path id="Trazado_112309" data-name="Trazado 112309" d="M63.57,111.147a9.494,9.494,0,0,1-7.857,3.953q-20.917.049-41.806,0a9.513,9.513,0,0,1-9.672-9.7c-.03-3.1,0-6.191,0-9.35H57.687c.118-1.325.308-2.642.536-3.959H4.331V19.579H65.352V76.937a15.444,15.444,0,0,1,3.83-1.6V14.154A13.341,13.341,0,0,0,55.46.4Q34.778.35,14.13.4a15.534,15.534,0,0,0-3.415.382A13.309,13.309,0,0,0,.405,14.124V59.633q0,22.785-.03,45.542A13.34,13.34,0,0,0,14.1,118.93q20.682.049,41.33,0a13.452,13.452,0,0,0,11.547-6.01,12.7,12.7,0,0,1-3.4-1.773M11.672,4.452A10.944,10.944,0,0,1,14.16,4.2H55.49c6.321.033,10.659,5.042,9.8,11.459H4.427c-1.309-4.627,2.265-10.15,7.244-11.2" transform="translate(0.656 0.656)" fill="#fc5d00"/>
      <path id="Trazado_112310" data-name="Trazado 112310" d="M63.57,111.147a9.494,9.494,0,0,1-7.857,3.953q-20.917.049-41.806,0a9.513,9.513,0,0,1-9.672-9.7c-.03-3.1,0-6.191,0-9.35H57.687c.118-1.325.308-2.642.536-3.959H4.331V19.579H65.352V76.937a15.444,15.444,0,0,1,3.83-1.6V14.154A13.341,13.341,0,0,0,55.46.4Q34.778.35,14.13.4a15.534,15.534,0,0,0-3.415.382A13.309,13.309,0,0,0,.405,14.124V59.633q0,22.785-.03,45.542A13.34,13.34,0,0,0,14.1,118.93q20.682.049,41.33,0a13.452,13.452,0,0,0,11.547-6.01A12.7,12.7,0,0,1,63.57,111.147ZM11.672,4.452A10.944,10.944,0,0,1,14.16,4.2H55.49c6.321.033,10.659,5.042,9.8,11.459H4.427C3.119,11.029,6.693,5.505,11.672,4.452Z" transform="translate(0.656 0.656)" fill="#fc5d00" stroke="#f95e1f" stroke-miterlimit="10" stroke-width="0.75"/>
      <path id="Trazado_112311" data-name="Trazado 112311" d="M25.936,36.553c-1.916-.033-3.833,0-5.746,0s-3.83-.033-5.71,0a5.728,5.728,0,1,0,0,11.456c3.827.033,7.624.033,11.456,0a5.712,5.712,0,0,0,5.746-5.776,5.773,5.773,0,0,0-5.746-5.68m-.382,7.627H20.06c-1.754,0-3.511.03-5.265,0-1.4-.033-2.263-.767-2.263-1.916,0-1.179.858-1.914,2.263-1.914H25.553c1.4,0,2.263.764,2.263,1.914s-.861,1.916-2.263,1.916" transform="translate(15.276 63.917)" fill="#fc5d00"/>
      <path id="Trazado_112312" data-name="Trazado 112312" d="M25.936,36.553c-1.916-.033-3.833,0-5.746,0s-3.83-.033-5.71,0a5.728,5.728,0,1,0,0,11.456c3.827.033,7.624.033,11.456,0a5.712,5.712,0,0,0,5.746-5.776A5.773,5.773,0,0,0,25.936,36.553Zm-.382,7.627H20.06c-1.754,0-3.511.03-5.265,0-1.4-.033-2.263-.767-2.263-1.916,0-1.179.858-1.914,2.263-1.914H25.553c1.4,0,2.263.764,2.263,1.914S26.956,44.18,25.553,44.18Z" transform="translate(15.276 63.917)" fill="#fc5d00" stroke="#f95e1f" stroke-miterlimit="10" stroke-width="0.75"/>
      <path id="Trazado_112313" data-name="Trazado 112313" d="M10.462,6.967H32.325c1.595,0,2.488-.734,2.458-1.947-.033-1.182-.894-1.85-2.428-1.85H10.5C8.9,3.17,8,3.9,8.038,5.117c.03,1.179.894,1.85,2.425,1.85" transform="translate(14.059 5.546)" fill="#fc5d00"/>
      <path id="Trazado_112314" data-name="Trazado 112314" d="M10.462,6.967H32.325c1.595,0,2.488-.734,2.458-1.947-.033-1.182-.894-1.85-2.428-1.85H10.5C8.9,3.17,8,3.9,8.038,5.117,8.068,6.3,8.931,6.967,10.462,6.967Z" transform="translate(14.059 5.546)" fill="#fc5d00" stroke="#f95e1f" stroke-miterlimit="10" stroke-width="0.75"/>
      <path id="Trazado_112315" data-name="Trazado 112315" d="M20.006,39.953a6.709,6.709,0,1,1-6.758,6.989c-.135-1.57-.935-2.474-2.276-2.439-1.4.033-2.274,1.036-2.169,2.675a10.816,10.816,0,0,0,4.847,8.7,42.032,42.032,0,0,0,4.047,2.04c0,1.3-.033,2.741,0,4.179.033,1.573.836,2.477,2.21,2.477,1.369.033,2.2-.872,2.238-2.441.033-1.441,0-2.876,0-4.415a1.729,1.729,0,0,0,.569-.234c5.65-1.806,9.064-6.791,8.328-12.141-.8-5.82-5.149-9.634-11.3-9.933a6.693,6.693,0,0,1,0-13.381,6.742,6.742,0,0,1,6.887,6.323c.135,1.938.9,2.777,2.441,2.642,1.441-.1,2.109-1.105,2.007-2.944a11.256,11.256,0,0,0-7.627-9.9c-.434-.132-.869-.3-1.3-.434,0-1.537.033-2.977,0-4.415-.033-1.57-.869-2.441-2.238-2.441s-2.177.9-2.21,2.474c-.033,1.507,0,2.977,0,4.415-.3.1-.467.168-.635.236C11.477,19.786,8.1,24.735,8.832,30.052c.773,5.754,5.185,9.634,11.173,9.9" transform="translate(15.276 18.987)" fill="#fc5d00"/>
      <path id="Trazado_112316" data-name="Trazado 112316" d="M20.006,39.953a6.709,6.709,0,1,1-6.758,6.989c-.135-1.57-.935-2.474-2.276-2.439-1.4.033-2.274,1.036-2.169,2.675a10.816,10.816,0,0,0,4.847,8.7,42.032,42.032,0,0,0,4.047,2.04c0,1.3-.033,2.741,0,4.179.033,1.573.836,2.477,2.21,2.477,1.369.033,2.2-.872,2.238-2.441.033-1.441,0-2.876,0-4.415a1.729,1.729,0,0,0,.569-.234c5.65-1.806,9.064-6.791,8.328-12.141-.8-5.82-5.149-9.634-11.3-9.933a6.693,6.693,0,0,1,0-13.381,6.742,6.742,0,0,1,6.887,6.323c.135,1.938.9,2.777,2.441,2.642,1.441-.1,2.109-1.105,2.007-2.944a11.256,11.256,0,0,0-7.627-9.9c-.434-.132-.869-.3-1.3-.434,0-1.537.033-2.977,0-4.415-.033-1.57-.869-2.441-2.238-2.441s-2.177.9-2.21,2.474c-.033,1.507,0,2.977,0,4.415-.3.1-.467.168-.635.236C11.477,19.786,8.1,24.735,8.832,30.052,9.6,35.807,14.018,39.686,20.006,39.953Z" transform="translate(15.276 18.987)" fill="#fc5d00" stroke="#f95e1f" stroke-miterlimit="10" stroke-width="0.75"/>
      <path id="Trazado_112317" data-name="Trazado 112317" d="M20.706,48.57A21.755,21.755,0,1,1,42.494,70.347,21.741,21.741,0,0,1,20.706,48.57m39.631.038A17.873,17.873,0,1,0,42.464,66.476,17.829,17.829,0,0,0,60.337,48.608" transform="translate(36.221 46.916)" fill="#fc5d00"/>
      <path id="Trazado_112318" data-name="Trazado 112318" d="M20.706,48.57A21.755,21.755,0,1,1,42.494,70.347,21.741,21.741,0,0,1,20.706,48.57Zm39.631.038A17.873,17.873,0,1,0,42.464,66.476,17.829,17.829,0,0,0,60.337,48.608Z" transform="translate(36.221 46.916)" fill="#fc5d00" stroke="#f95e1f" stroke-miterlimit="10" stroke-width="0.75"/>
      <path id="Trazado_112319" data-name="Trazado 112319" d="M37.634,41.06c2.4,2.386,4.583,4.481,6.664,6.675a2.909,2.909,0,0,1,.764,2.01,1.865,1.865,0,0,1-3.266.88c-1.947-1.875-3.846-3.8-5.743-5.73a8.665,8.665,0,0,1-.814-1.2c-2.2,2.21-4.132,4.151-6.062,6.09-.286.286-.561.583-.861.85a1.934,1.934,0,1,1-2.708-2.752c1.889-1.936,3.808-3.841,5.735-5.735a8.131,8.131,0,0,1,1.155-.784c-2.241-2.243-4.206-4.209-6.167-6.175-.258-.258-.525-.5-.77-.775a1.952,1.952,0,0,1-.1-2.725,1.857,1.857,0,0,1,2.8-.011c1.916,1.85,3.789,3.745,5.661,5.639a15.423,15.423,0,0,1,1,1.284c1.919-1.936,3.637-3.67,5.358-5.405.484-.487.954-.987,1.46-1.452A1.939,1.939,0,1,1,44.452,34.5c-1.889,1.935-3.811,3.838-5.73,5.738a10.892,10.892,0,0,1-1.089.822" transform="translate(43.64 54.316)" fill="#fc5d00"/>
      <path id="Trazado_112320" data-name="Trazado 112320" d="M37.634,41.06c2.4,2.386,4.583,4.481,6.664,6.675a2.909,2.909,0,0,1,.764,2.01,1.865,1.865,0,0,1-3.266.88c-1.947-1.875-3.846-3.8-5.743-5.73a8.665,8.665,0,0,1-.814-1.2c-2.2,2.21-4.132,4.151-6.062,6.09-.286.286-.561.583-.861.85a1.934,1.934,0,1,1-2.708-2.752c1.889-1.936,3.808-3.841,5.735-5.735a8.131,8.131,0,0,1,1.155-.784c-2.241-2.243-4.206-4.209-6.167-6.175-.258-.258-.525-.5-.77-.775a1.952,1.952,0,0,1-.1-2.725,1.857,1.857,0,0,1,2.8-.011c1.916,1.85,3.789,3.745,5.661,5.639a15.423,15.423,0,0,1,1,1.284c1.919-1.936,3.637-3.67,5.358-5.405.484-.487.954-.987,1.46-1.452A1.939,1.939,0,1,1,44.452,34.5c-1.889,1.935-3.811,3.838-5.73,5.738A10.892,10.892,0,0,1,37.634,41.06Z" transform="translate(43.64 54.316)" fill="#fc5d00" stroke="#f95e1f" stroke-miterlimit="10" stroke-width="0.75"/>
    </g>
  </g>
</svg>
