<svg id="ic_alert_blankScreen" xmlns="http://www.w3.org/2000/svg" xmlns:xlink="http://www.w3.org/1999/xlink" width="122.63" height="114.565" viewBox="0 0 122.63 114.565">
  <defs>
    <clipPath id="clip-path">
      <rect id="Rectángulo_15482" data-name="Rectángulo 15482" width="122.63" height="114.565" fill="none"/>
    </clipPath>
  </defs>
  <g id="Grupo_35729" data-name="Grupo 35729" transform="translate(0 0)">
    <g id="Grupo_35728" data-name="Grupo 35728" transform="translate(0 0)" clip-path="url(#clip-path)">
      <path id="Trazado_112303" data-name="Trazado 112303" d="M12,113.921c-.526-.139-1.05-.286-1.576-.412C1.994,111.48-2.321,102.714,1.566,95.452Q25.09,51.47,48.633,7.5A13.223,13.223,0,0,1,61.053.125,13.216,13.216,0,0,1,73.46,7.515q23.506,43.936,47,87.885a30.088,30.088,0,0,1,1.53,4.291v2.89c-.086.277-.182.551-.249.831a13.046,13.046,0,0,1-9.4,9.921c-.739.234-1.5.394-2.25.588Zm49.046-6.67q23.446,0,46.9-.006c5.307,0,8.385-4.663,6.024-9.077Q90.522,54.319,67.077,10.476a6.776,6.776,0,0,0-12.084.025c-2.232,4.251-4.525,8.474-6.79,12.712Q28.178,60.644,8.153,98.072a5.87,5.87,0,0,0-.8,3.961c.613,3.192,3.226,5.211,6.8,5.214q23.45.009,46.9,0" transform="translate(0.259 0.26)" fill="#f95e1f"/>
      <path id="Trazado_112304" data-name="Trazado 112304" d="M12,113.921c-.526-.139-1.05-.286-1.576-.412C1.994,111.48-2.321,102.714,1.566,95.452Q25.09,51.47,48.633,7.5A13.223,13.223,0,0,1,61.053.125,13.216,13.216,0,0,1,73.46,7.515q23.506,43.936,47,87.885a30.088,30.088,0,0,1,1.53,4.291v2.89c-.086.277-.182.551-.249.831a13.046,13.046,0,0,1-9.4,9.921c-.739.234-1.5.394-2.25.588Zm49.046-6.67q23.446,0,46.9-.006c5.307,0,8.385-4.663,6.024-9.077Q90.522,54.319,67.077,10.476a6.776,6.776,0,0,0-12.084.025c-2.232,4.251-4.525,8.474-6.79,12.712Q28.178,60.644,8.153,98.072a5.87,5.87,0,0,0-.8,3.961c.613,3.192,3.226,5.211,6.8,5.214Q37.6,107.257,61.047,107.251Z" transform="translate(0.259 0.26)" fill="none" stroke="#f95e1f" stroke-miterlimit="10" stroke-width="0.25"/>
      <path id="Trazado_112305" data-name="Trazado 112305" d="M27.672,56.684a8.283,8.283,0,0,1-8.428-7.147c-1.022-9.545-2.081-19.084-2.973-28.638-.4-4.312,1.511-7.775,5.507-10.01a11.354,11.354,0,0,1,11.829.1A10.017,10.017,0,0,1,38.922,21.1c-.8,9.006-1.684,18-2.546,27a15.812,15.812,0,0,1-.382,2.524,8.28,8.28,0,0,1-8.323,6.055m4.186-36.632a4.254,4.254,0,1,0-8.48.646c.794,7.514,1.561,15.03,2.345,22.544.194,1.881.339,3.768.68,5.624.08.44.806.976,1.336,1.1.739.169,1.234-.372,1.357-1.087.083-.474.12-.957.166-1.434q.665-6.967,1.327-13.937c.425-4.46.84-8.923,1.268-13.454" transform="translate(33.702 19.282)" fill="#f95e1f"/>
      <path id="Trazado_112306" data-name="Trazado 112306" d="M27.672,56.684a8.283,8.283,0,0,1-8.428-7.147c-1.022-9.545-2.081-19.084-2.973-28.638-.4-4.312,1.511-7.775,5.507-10.01a11.354,11.354,0,0,1,11.829.1A10.017,10.017,0,0,1,38.922,21.1c-.8,9.006-1.684,18-2.546,27a15.812,15.812,0,0,1-.382,2.524A8.28,8.28,0,0,1,27.672,56.684Zm4.186-36.632a4.254,4.254,0,1,0-8.48.646c.794,7.514,1.561,15.03,2.345,22.544.194,1.881.339,3.768.68,5.624.08.44.806.976,1.336,1.1.739.169,1.234-.372,1.357-1.087.083-.474.12-.957.166-1.434q.665-6.967,1.327-13.937C31.015,29.047,31.43,24.583,31.858,20.052Z" transform="translate(33.702 19.282)" fill="none" stroke="#f95e1f" stroke-miterlimit="10" stroke-width="0.25"/>
      <path id="Trazado_112307" data-name="Trazado 112307" d="M37.145,36.316c-.028,5.3-4.663,9.613-10.311,9.594-5.707-.022-10.311-4.4-10.259-9.754.052-5.3,4.7-9.57,10.373-9.53s10.225,4.38,10.2,9.69M26.886,33.3A2.972,2.972,0,1,0,30,36.288,3.049,3.049,0,0,0,26.886,33.3" transform="translate(34.441 55.33)" fill="#f95e1f"/>
      <path id="Trazado_112308" data-name="Trazado 112308" d="M37.145,36.316c-.028,5.3-4.663,9.613-10.311,9.594-5.707-.022-10.311-4.4-10.259-9.754.052-5.3,4.7-9.57,10.373-9.53S37.173,31.006,37.145,36.316ZM26.886,33.3A2.972,2.972,0,1,0,30,36.288,3.049,3.049,0,0,0,26.886,33.3Z" transform="translate(34.441 55.33)" fill="none" stroke="#f95e1f" stroke-miterlimit="10" stroke-width="0.25"/>
    </g>
  </g>
</svg>
