<svg id="img_background_header_L" xmlns="http://www.w3.org/2000/svg" xmlns:xlink="http://www.w3.org/1999/xlink" width="375" height="140" viewBox="0 0 375 140">
  <defs>
    <linearGradient id="linear-gradient" y1="0.5" x2="1" y2="0.5" gradientUnits="objectBoundingBox">
      <stop offset="0" stop-color="#ff4d00"/>
      <stop offset="1" stop-color="#fc770f"/>
    </linearGradient>
    <clipPath id="clip-path">
      <rect id="Rectángulo_15515" data-name="Rectángulo 15515" width="375" height="140" transform="translate(-6235 7)" fill="url(#linear-gradient)"/>
    </clipPath>
    <clipPath id="clip-path-2">
      <rect id="Rectángulo_15485" data-name="Rectángulo 15485" width="987.27" height="540.721" fill="#ffa300"/>
    </clipPath>
  </defs>
  <rect id="Rectángulo_15514" data-name="Rectángulo 15514" width="375" height="140" fill="url(#linear-gradient)"/>
  <g id="Enmascarar_grupo_29013" data-name="Enmascarar grupo 29013" transform="translate(6235 -7)" clip-path="url(#clip-path)">
    <g id="Grupo_35820" data-name="Grupo 35820" transform="matrix(0.259, -0.966, 0.966, 0.259, -6167.152, 201.201)" opacity="0.301">
      <g id="Grupo_35734" data-name="Grupo 35734" clip-path="url(#clip-path-2)">
        <path id="Trazado_112333" data-name="Trazado 112333" d="M977.845,3.285a4.8,4.8,0,0,0-.213,2.17L819.567,40.749a4.84,4.84,0,1,0-6.071,6.326,4.914,4.914,0,0,0,.76.185l-1.018,56.952a4.835,4.835,0,0,0-4.581,5.168l-132.2,25.812a4.845,4.845,0,1,0-4.447,6.2l8.255,61.751a4.835,4.835,0,0,0-3.5,3.155l.113-.429-153.3-39.92a4.831,4.831,0,0,0-6.659-5.233L485.54,102.381a4.84,4.84,0,1,0-7.312-2.651L385.38,136.961a4.837,4.837,0,0,0-8.881,3.772L320.614,165.8a4.834,4.834,0,0,0-8.794.821,4.752,4.752,0,0,0-.195.807L199.436,162.5a4.84,4.84,0,0,0-7.4-3.765l-47.9-60.384a4.841,4.841,0,1,0-7.863-5.118l-.014.056L46.373,81.811a4.839,4.839,0,1,0-7.891,4.016L6.589,147.041c-.063-.026-.124-.054-.19-.077a4.842,4.842,0,1,0-3.113,9.169,4.786,4.786,0,0,0,1.809.246l6.165,63.956a4.838,4.838,0,1,0,4.687,7.769l93.688,61.489a4.838,4.838,0,1,0,8.855,3.824,4.764,4.764,0,0,0,.242-1.222l62.237-1.466a4.838,4.838,0,1,0,9.317-2.308L251.5,257.945a4.829,4.829,0,0,0,6.078,1.872l78.964,140.995a4.84,4.84,0,1,0,7.534,3.326l190.276-44.285a4.841,4.841,0,0,0,9.306,2.623,4.743,4.743,0,0,0,.176-.7l71.566,6.169a4.827,4.827,0,0,0,6.275,4.586l34.919,83.879-1.224-.084,1.56.891.211.5.232-.253,133.714,76.405c-.066.145-.124.293-.178.448a4.844,4.844,0,1,0,3.333-3.12l-24-64.925c.052-.12.1-.242.146-.366a4.863,4.863,0,0,0,.246-1.9l115.888-19.167a4.845,4.845,0,1,0,3.263-5.85L858.79,363.664a4.83,4.83,0,0,0,1.492-7.352l41.243-40.795a4.839,4.839,0,1,0,.291-7.635l-42.162-48.564a4.828,4.828,0,0,0-1.2-7.6l28.32-59.422a4.839,4.839,0,0,0,3.056-9.184,4.765,4.765,0,0,0-1.335-.249l-3.638-49.216a4.842,4.842,0,0,0,4.035-4.586l74.913-4.028a4.84,4.84,0,1,0,6.343-5.287,4.922,4.922,0,0,0-.558-.15L982.318,9.682a4.841,4.841,0,1,0-4.473-6.4M819.13,45.093l52.052,27.773-53.881,33.2a4.8,4.8,0,0,0-3.169-1.818l1.018-56.924a4.842,4.842,0,0,0,3.981-2.233M675.206,140l76.785,64.824-28.9,45.409a5.065,5.065,0,0,0-.652-.284,4.821,4.821,0,0,0-2.993-.033l-45.366-109.09a4.81,4.81,0,0,0,1.131-.826M519.33,169.973l14.644,71.6-22.868-64.686,5.29-7.523a4.763,4.763,0,0,0,2.935.61m-135.1-27.142L417.2,174.54l-41.97,49.136a4.616,4.616,0,0,0-1.877-.8l7.7-78.873a4.853,4.853,0,0,0,3.183-1.178M82.309,87.3l53.745,6.864a4.825,4.825,0,0,0,.021,1.389L52.314,130.689,42.767,86.763a4.829,4.829,0,0,0,3.357-3.125,4.7,4.7,0,0,0,.216-.931Zm280.277,236a4.835,4.835,0,0,0,5.451-3.2l0,0L415.1,331.328l-72.657,69.8a4.815,4.815,0,0,0-1.436-.854Zm490.391-63.675-26.9,41.139,25.287-45.444a4.847,4.847,0,0,0,1.614,4.3m30.8-70.128L792.42,232.4a4.956,4.956,0,0,0-.608-.826l67.109-74.231,25.723,27.147a4.834,4.834,0,0,0-.863,5.006m-65.218-79.682L962.748,124.2l-73.907,3.971a4.835,4.835,0,0,0-9.3-1.039ZM858.9,156.027l-41.648-43.952a4.772,4.772,0,0,0,.812-1.471L879.3,127.989a4.836,4.836,0,0,0,1.189,4.161Zm-.6.666-67.156,74.285a4.809,4.809,0,0,0-1.344-.711c-.054-.019-.11-.031-.167-.047l23.415-116.357a4.837,4.837,0,0,0,3.58-1.145ZM682.7,212.5l13.929,43.774L661.2,260.234a4.836,4.836,0,0,0-2.266-3.183l21.14-44.534a4.793,4.793,0,0,0,2.625-.021M112.1,287.372,69.663,204.743a4.823,4.823,0,0,0,.981-.823l92.288,69.586L118.279,289.79a4.833,4.833,0,0,0-6.176-2.418m66.471-19.57-14.64,5.339-91.12-68.7,106.027,60.142c-.063.141-.12.284-.171.434a4.819,4.819,0,0,0-.1,2.787M71.807,199.719l87.822-26.108L181.655,262a4.848,4.848,0,0,0-2.372,1.8L71.477,202.651c.063-.138.12-.284.171-.432a4.806,4.806,0,0,0,.16-2.5m125.145-32.655,39.27,59.675-49.364,36.6a4.72,4.72,0,0,0-2.637-1.511l10.326-94.158a4.818,4.818,0,0,0,2.4-.61M312.624,171.2a4.55,4.55,0,0,0,.432.471L257.99,251.182a4.809,4.809,0,0,0-4.649-.054l-15.909-24.173Zm4.534,1.759,19.725,62.661L260.2,253.849a4.838,4.838,0,0,0-1.471-2.158l55.033-79.462a4.756,4.756,0,0,0,3.4.732m50.7,56.215a4.829,4.829,0,0,0,3.024,3.038,5.32,5.32,0,0,0,.638.164L363.484,313.7a4.758,4.758,0,0,0-1.051.113l-24.41-77.545Zm257.08,139.866a4.8,4.8,0,0,0-.155-2.763l63.2-29.591,25.144,59.286A4.83,4.83,0,0,0,711,398.261ZM900.9,314.882l-41.243,40.792a4.833,4.833,0,0,0-1.553-.877,4.774,4.774,0,0,0-1.135-.235l-.218-42.486,43.068.164a4.857,4.857,0,0,0,1.081,2.641m-46.943,40.41L822.9,315.033a4.786,4.786,0,0,0,1.518-3.08l31.44.12.218,42.493a4.87,4.87,0,0,0-2.118.727m1.9-44.114-31.43-.12a4.844,4.844,0,0,0-1.811-3.357L853.7,260.15a4.88,4.88,0,0,0,.9.411,4.975,4.975,0,0,0,.99.223Zm-66.189-71.7,27.7,67.721a4.823,4.823,0,0,0-1.715,1.492l-58.8-33.922,28.74-35.88a4.94,4.94,0,0,0,1.1.544,4.811,4.811,0,0,0,2.967.045m-64.831,17.853,30.67,17.694-34.7,43.326a4.82,4.82,0,0,0-1.107-.547c-.12-.042-.242-.073-.364-.1l1.588-58.327a4.844,4.844,0,0,0,3.913-2.043M377.259,228.09l92.046.277a4.712,4.712,0,0,0,.091,1.3l-44.334,36.948-48.5-36.448a4.732,4.732,0,0,0,.7-2.076m76.461,60.06L425.8,267.166l43.889-36.577a4.873,4.873,0,0,0,1.049,1.539l-9.908,42.164-2.913,12.388a4.839,4.839,0,0,0-4.192,1.471M424.358,267.2l-57.491,47.911a4.8,4.8,0,0,0-1.855-1.156,4.559,4.559,0,0,0-.638-.164l1.7-17.208,6.338-64.118a4.851,4.851,0,0,0,3.615-1.586Zm50.131-33.692,18.846,37.468L461.2,288.7a4.8,4.8,0,0,0-2.407-1.811l-.009,0,12.726-54.139a4.789,4.789,0,0,0,2.981.765m57.374,17.246a4.816,4.816,0,0,0,2.287,1.64,4.694,4.694,0,0,0,1.114.232l.282,9.057,2.932,94.432a4.872,4.872,0,0,0-1.171.3l-42.788-85.068ZM655.338,265.92a4.832,4.832,0,0,0,2.594-.1l29.7,70.043L624.407,365.47a4.8,4.8,0,0,0-2.2-1.973Zm77.174,155.374L718.747,403.75a4.832,4.832,0,0,0,.629-6.3l18.238-15.536,26.157,78.047a5.133,5.133,0,0,0-.638.357ZM713.5,323.756l-25.048,11.729-29.692-70.013a4.851,4.851,0,0,0,.812-.551L714.4,319.313a4.815,4.815,0,0,0-.905,4.443m8-4.846,34.787-43.434,58.918,33.99c-.068.15-.131.3-.185.464a4.793,4.793,0,0,0-.251,1.628l-91.887,9.871a4.85,4.85,0,0,0-1.382-2.519m16.547,61.467-17.952-53.565a4.814,4.814,0,0,0,2.883-4.494l91.884-9.871a4.879,4.879,0,0,0,.786,1.823Zm-.732.624L718.8,396.772a4.821,4.821,0,0,0-2.759-1.339l.948-26.906,1.459-41.308a4.815,4.815,0,0,0,.8-.122Zm-23.356,14.626L688.8,336.308l25.029-11.719a4.833,4.833,0,0,0,3.695,2.6L715.142,395.4a4.72,4.72,0,0,0-1.189.225M586.77,319.82,538.6,251.7a4.806,4.806,0,0,0,1.7-2.327c.021-.068.038-.136.059-.206l68.5,7.375,42.772,4.6a4.843,4.843,0,0,0,.88,2.848Zm74.528-58.7,35.606-3.983,19.345,60.8a4.956,4.956,0,0,0-1.023.582l-55.019-54.243a4.768,4.768,0,0,0,1.091-3.155M766.882,459.637a4.81,4.81,0,0,0-2.268.026L738.348,381.29l77.873-66.34a4.807,4.807,0,0,0,1.351.934ZM617.82,363.728l-30.532-43.176,65.793-55.88a4.823,4.823,0,0,0,1.41.959l-33.129,97.58a4.828,4.828,0,0,0-3.542.516m-75.366-6.268a4.831,4.831,0,0,0-1.825-1.126,4.928,4.928,0,0,0-1.257-.244l-3.211-103.461a4.834,4.834,0,0,0,1.67-.467l48.256,68.24Zm-6.76,0-74.446-63.285a4.751,4.751,0,0,0,.572-1.145,4.831,4.831,0,0,0-.178-3.551l32.094-17.7,42.772,85.037a4.882,4.882,0,0,0-.814.643M452.465,292.3l-84.507,24.473a4.831,4.831,0,0,0-.518-.971l57.653-48.048,28.076,21.1a4.807,4.807,0,0,0-.7,3.446m26.162-61.84,52.282,16.716a4.82,4.82,0,0,0,.481,2.822l-37.271,20.551-18.71-37.194a4.832,4.832,0,0,0,3.218-2.895m237.435,24.534a4.842,4.842,0,0,0,3.261,4.128,5.379,5.379,0,0,0,.7.176l-1.586,58.263a4.8,4.8,0,0,0-1.337.1l-19.291-60.628Zm9.566-1.377,58.122-16.985a4.86,4.86,0,0,0,1.14,1.7L756.063,274.32l-30.788-17.762a4.469,4.469,0,0,0,.185-.464,4.82,4.82,0,0,0,.167-2.477M885.69,191.788,821.549,307.059a4.154,4.154,0,0,0-.394-.155,4.811,4.811,0,0,0-2.967-.045l-27.7-67.721a4.827,4.827,0,0,0,2.313-5.93l91.387-42.915a4.838,4.838,0,0,0,1.5,1.494m-26.713,68.118,42.162,48.564a4.814,4.814,0,0,0-1.088,1.787,4.746,4.746,0,0,0-.232,1.091l-43.077-.164-.26-50.377a4.853,4.853,0,0,0,2.5-.9m-5.923,102.827-3.183,3.683L822.64,316.161l30.6,39.676a4.84,4.84,0,0,0-.19,6.9m-3.807,4.405-80.634,93.278a4.533,4.533,0,0,0-.694-.408l-.113-.3L818.417,316.18a4.813,4.813,0,0,0,3.082-.246Zm-87.216,94.183L694.8,416.778l15.831-17.215a4.836,4.836,0,0,0,7.415,4.736l44.391,56.579a5.144,5.144,0,0,0-.4.443m-67.989-45.043L624.5,370.2c.056-.1.11-.206.16-.314l85.389,28.991Zm-78.565-49.22-71.566-6.172a4.845,4.845,0,0,0-.877-2.745l43.572-37.009,30.485,43.11a4.79,4.79,0,0,0-1.438,2.116,4.7,4.7,0,0,0-.176.7m-80.362-8.921a4.755,4.755,0,0,0-.457.8L416.9,330.838l37.166-35.707a4.828,4.828,0,0,0,6.613-.267ZM415.872,330.592l-47.628-11.367a4.828,4.828,0,0,0-.038-1.593l84.5-24.468a4.83,4.83,0,0,0,.751,1.323ZM359.52,315.72,260,257.447c.073-.16.141-.324.2-.493a4.857,4.857,0,0,0,.2-2.238l76.75-18.24,24.428,77.606a4.84,4.84,0,0,0-2.062,1.637M250.784,255.693l-62.837,9.7a4.872,4.872,0,0,0-.556-1.335l49.324-36.572,15.881,24.131a4.82,4.82,0,0,0-1.811,4.075m-67.463,15.714,1.5,14.018a4.847,4.847,0,0,0-2.623,1.485l-17.412-13.127,14.1-5.142a4.821,4.821,0,0,0,4.44,2.766m-2.374,18.428L118.71,291.3a4.569,4.569,0,0,0-.124-.671l45.2-16.483,17.874,13.479a4.879,4.879,0,0,0-.469.985,4.8,4.8,0,0,0-.242,1.224m-69.656-2.088L50.166,208.67l12.681-5.641a4.818,4.818,0,0,0,6.019,2.123ZM49.6,207.943,8.48,154.744c.068-.077.131-.162.195-.244L63.025,198a4.749,4.749,0,0,0-.544,1.1,4.805,4.805,0,0,0,0,3.106ZM9.31,149.7l42.359-17.769,13.936,64.125a4.844,4.844,0,0,0-2.022,1.253L9.153,153.738a4.646,4.646,0,0,0,.274-.633A4.83,4.83,0,0,0,9.31,149.7m43.2-18.121,83.8-35.146a4.88,4.88,0,0,0,.912,1.548L69.426,196.442a4.734,4.734,0,0,0-2.949-.579Zm88.685-31.953,18.222,73.121-87.859,26.12a4.857,4.857,0,0,0-1.391-1.914L137.872,98.6a4.791,4.791,0,0,0,1.426.776,4.854,4.854,0,0,0,1.893.246m48.89,64.937a4.829,4.829,0,0,0,2.967,2.859,4.411,4.411,0,0,0,.61.16l-10.324,94.153a4.943,4.943,0,0,0-.814.056l-22.033-88.432Zm9.331-1.163,112.156,4.928a4.818,4.818,0,0,0,.565,2.13L236.94,226.207,197.688,166.56a4.791,4.791,0,0,0,1.5-2.167,4.729,4.729,0,0,0,.223-1m119.853,8.686L368.8,224.436a4.83,4.83,0,0,0-1.152,3.873l-29.9,7.105-19.73-62.676a4.831,4.831,0,0,0,1.239-.657m98.582,3.08,52.5,50.506a4.849,4.849,0,0,0-.8,1.459c-.04.115-.068.232-.1.347l-92.187-.277a4.834,4.834,0,0,0-1.351-2.939Zm.582-.683,61.648-72.173a4.838,4.838,0,0,0,1.232.629,5.076,5.076,0,0,0,.788.192l-8.088,120.723a4.848,4.848,0,0,0-3.038,1.173Zm65.622-71.437,26.059,73.707-33.572,47.736a4.72,4.72,0,0,0-.849-.385,5.073,5.073,0,0,0-.788-.192l8.09-120.723a4.869,4.869,0,0,0,1.06-.143m26.425,74.742,23.2,65.638a4.834,4.834,0,0,0-2.557,2.834l-.012.047-52.23-16.7a4.842,4.842,0,0,0-1.612-4.6Zm30.042,69.52,136.39-37.529a4.819,4.819,0,0,0,2.325,2.43l-21.107,44.466c-.035-.014-.068-.03-.106-.042a4.841,4.841,0,0,0-6.139,3.028,4.556,4.556,0,0,0-.157.6l-111.2-11.97a4.693,4.693,0,0,0,0-.978M684.282,211.7l33.234,39.361a4.807,4.807,0,0,0-1.222,1.921,4.915,4.915,0,0,0-.232,1.114l-18.529,2.074-14-44a4.783,4.783,0,0,0,.751-.469m68.4-6.289,31.6,26.676a4.809,4.809,0,0,0-.781,3.687l-58.122,16.985a4.853,4.853,0,0,0-1.534-2.043Zm.486-.762,58.115-91.3a4.852,4.852,0,0,0,.647.281c.082.026.164.047.246.068L788.763,230.04a4.845,4.845,0,0,0-3.906,1.363ZM872.1,73.352l92.035,49.105c-.044.106-.089.209-.127.317a4.822,4.822,0,0,0-.162.633L818.319,108.892a4.849,4.849,0,0,0-.537-2.071Zm.88-.542L978.56,7.751a4.812,4.812,0,0,0,2.311,1.675,4.919,4.919,0,0,0,.558.15L968.7,119.49a4.852,4.852,0,0,0-4.15,2.179Zm10.987,60.9,3.636,49.192a4.863,4.863,0,0,0-2.3.971l-25.777-27.2,21.632-23.929a4.814,4.814,0,0,0,2.81.966m-2.055,66.705-24.281,50.947a4.832,4.832,0,0,0-4.56.889ZM857.962,364l29.629,72.012-37.264-68.76,3.4-3.936a4.831,4.831,0,0,0,4.234.685M770.48,463.128A4.85,4.85,0,0,0,769.288,461L849.7,367.978l38.81,71.617a4.818,4.818,0,0,0-2.142,4.365ZM659.2,457.486l101.767,6.983a4.835,4.835,0,0,0,8.689,2.81L793.4,531.515a4.824,4.824,0,0,0-1.872,1.586Zm34.984-40.042,67.355,44.623a4.779,4.779,0,0,0-.321.732,4.655,4.655,0,0,0-.19.779l-102.785-7.054ZM622.5,372.191a4.842,4.842,0,0,0,1.5-1.241l69.427,46-36,39.143ZM343.872,403.267a4.885,4.885,0,0,0-.807-1.49l73.074-70.2,116.4,27.783ZM258.358,259.38a4.818,4.818,0,0,0,1.189-1.161l99.522,58.273a4.506,4.506,0,0,0-.2.493,4.838,4.838,0,0,0,2.855,6.073l-21.574,76.98a4.8,4.8,0,0,0-2.831.338Zm-68.469,28.238a4.825,4.825,0,0,0-4.182-2.287l-1.5-14.018a4.838,4.838,0,0,0,3.875-5.036l62.837-9.7a5.345,5.345,0,0,0,.178.57ZM16.436,227.356a5.13,5.13,0,0,0,.314-.713,4.813,4.813,0,0,0,0-3.1l32.577-14.494,61.28,79.274a5.367,5.367,0,0,0-.479.525ZM5.979,156.25a4.876,4.876,0,0,0,1.846-.891l40.935,52.957L16.382,222.723a4.8,4.8,0,0,0-4.234-2.472ZM39.227,86.329a4.751,4.751,0,0,0,2.658.584l9.589,44.128L8.89,148.9a4.8,4.8,0,0,0-1.5-1.464Zm152.095,72.947a4.855,4.855,0,0,0-1.48,4.422l-29.573,8.789L142.076,99.474a4.832,4.832,0,0,0,1.346-.579Zm185.542-17.729a4.815,4.815,0,0,0,2.653,2.2,4.922,4.922,0,0,0,.645.167l-7.7,78.873a4.847,4.847,0,0,0-3.01,1.032l-49.523-52.336a4.811,4.811,0,0,0,1.046-4.87Zm101.7-40.989a4.861,4.861,0,0,0,.835,1.166L417.783,173.86l-32.927-31.674a4.807,4.807,0,0,0,.856-4.394Zm37.567,60.578a4.83,4.83,0,0,0-.462,7.713l-4.926,7-25.519-72.178Zm160.509,45.589a4.81,4.81,0,0,0-.009,2.2l-136.287,37.5A4.826,4.826,0,0,0,535.18,243L520.2,169.794a4.836,4.836,0,0,0,3.146-2.984ZM672.9,141.268c.12-.028.237-.059.354-.1l45.366,109.09a4.672,4.672,0,0,0-.4.239l-33.272-39.408a4.835,4.835,0,0,0-3.793-8.074Zm135.907-31a4.854,4.854,0,0,0,1.724,2.608l-58.05,91.193-76.694-64.744a4.8,4.8,0,0,0,.844-3.251ZM977.826,6.328a4.633,4.633,0,0,0,.265.661L872.064,72.322,819.536,44.3c.035-.084.07-.164.1-.251a4.8,4.8,0,0,0,.174-2.437Z" transform="translate(0 -0.001)" fill="#ffa300"/>
        <path id="Trazado_112334" data-name="Trazado 112334" d="M300.909,57.358a9.058,9.058,0,1,0-12.28-3.645,9.056,9.056,0,0,0,12.28,3.645" transform="translate(386.94 54.28)" fill="#ffa300"/>
        <path id="Trazado_112335" data-name="Trazado 112335" d="M241.014,84.381a9.058,9.058,0,1,0-12.28-3.645,9.056,9.056,0,0,0,12.28,3.645" transform="translate(306.336 90.646)" fill="#ffa300"/>
        <path id="Trazado_112336" data-name="Trazado 112336" d="M138,65.77a9.058,9.058,0,1,0-12.28-3.645A9.056,9.056,0,0,0,138,65.77" transform="translate(167.71 65.6)" fill="#ffa300"/>
        <path id="Trazado_112337" data-name="Trazado 112337" d="M346.5,158.091a9.058,9.058,0,1,0-12.28-3.645,9.056,9.056,0,0,0,12.28,3.645" transform="translate(448.298 189.839)" fill="#ffa300"/>
        <path id="Trazado_112338" data-name="Trazado 112338" d="M237.178,143.229a9.058,9.058,0,1,0-12.28-3.645,9.056,9.056,0,0,0,12.28,3.645" transform="translate(301.174 169.839)" fill="#ffa300"/>
        <path id="Trazado_112339" data-name="Trazado 112339" d="M146.906,129.157a9.058,9.058,0,1,0-12.28-3.645,9.056,9.056,0,0,0,12.28,3.645" transform="translate(179.693 150.902)" fill="#ffa300"/>
        <path id="Trazado_112340" data-name="Trazado 112340" d="M355.048,21.72a9.058,9.058,0,1,0-12.28-3.645,9.056,9.056,0,0,0,12.28,3.645" transform="translate(459.795 6.321)" fill="#ffa300"/>
        <path id="Trazado_112341" data-name="Trazado 112341" d="M269.509,132.268a9.058,9.058,0,1,0-12.28-3.645,9.056,9.056,0,0,0,12.28,3.645" transform="translate(344.683 155.089)" fill="#ffa300"/>
      </g>
    </g>
  </g>
</svg>
