<svg xmlns="http://www.w3.org/2000/svg" width="21" height="21" viewBox="0 0 21 21">
  <g id="Grupo_35093" data-name="Grupo 35093" transform="translate(14879 21173)">
    <circle id="Elipse_11242" data-name="Elipse 11242" cx="10.5" cy="10.5" r="10.5" transform="translate(-14879 -21173)" fill="#19a0b8"/>
    <g id="Objeto_inteligente_vectorial9" data-name="Objeto inteligente vectorial9" transform="translate(-14879.875 -21171.242)">
      <path id="Trazado_111794" data-name="Trazado 111794" d="M17.254,8.178c.134-.084.267-.164.408-.234a.843.843,0,0,0,.484-.548V7.242c-.1-.3-.19-.608-.3-.905a.583.583,0,0,0-.651-.411c-.2.017-.394.04-.591.063a.653.653,0,0,1-.7-.942c.084-.19.174-.377.254-.568a.591.591,0,0,0-.184-.725c-.22-.177-.451-.344-.688-.5a.593.593,0,0,0-.782.06c-.15.13-.294.267-.441.4a.652.652,0,0,1-1.112-.357c-.047-.2-.08-.408-.13-.608a.6.6,0,0,0-.588-.481c-.277-.01-.558-.01-.835,0a.6.6,0,0,0-.588.481c-.053.21-.087.428-.14.638a.645.645,0,0,1-1.089.341c-.157-.137-.307-.284-.464-.418a.594.594,0,0,0-.768-.05c-.227.15-.451.314-.665.481a.6.6,0,0,0-.187.785c.07.167.144.334.224.5a.653.653,0,0,1-.047.718.662.662,0,0,1-.675.251c-.19-.027-.384-.047-.575-.06a.586.586,0,0,0-.631.4q-.145.391-.261.792a.6.6,0,0,0,.311.745c.17.1.344.194.514.3a.649.649,0,0,1,0,1.152c-.17.1-.344.194-.514.3a.6.6,0,0,0-.311.745c.073.264.16.521.257.778a.589.589,0,0,0,.651.411c.207-.017.414-.047.621-.063a.649.649,0,0,1,.678.932c-.077.177-.16.351-.237.528a.616.616,0,0,0,.194.812c.207.164.421.317.641.464a.6.6,0,0,0,.8-.05c.157-.134.307-.281.464-.418a.645.645,0,0,1,1.076.334c.053.21.09.428.14.638a.6.6,0,0,0,.608.5c.267.007.538.007.805,0a.6.6,0,0,0,.608-.5c.05-.207.087-.418.137-.625a.645.645,0,0,1,1.089-.341c.16.14.314.291.478.424a.586.586,0,0,0,.745.05c.234-.154.458-.317.678-.491a.6.6,0,0,0,.187-.788c-.073-.174-.15-.344-.23-.514a.651.651,0,0,1,.053-.7.662.662,0,0,1,.661-.254c.18.023.364.043.544.057a.6.6,0,0,0,.695-.438c.1-.291.19-.585.287-.879v-.154a.843.843,0,0,0-.484-.548,4.442,4.442,0,0,1-.408-.234A.632.632,0,0,1,17.254,8.178Zm-.261,1.717c.157.09.317.18.494.284-.073.217-.144.438-.224.655a.163.163,0,0,1-.13.053c-.19-.013-.384-.047-.575-.057a1.291,1.291,0,0,0-1.269,1.814c.08.19.17.377.264.588-.2.147-.4.294-.608.448-.144-.13-.284-.251-.421-.377a1.308,1.308,0,0,0-2.218.728c-.027.144-.053.291-.094.431a.169.169,0,0,1-.11.1,5.559,5.559,0,0,1-.578,0,.152.152,0,0,1-.1-.094c-.047-.18-.08-.367-.124-.548a1.294,1.294,0,0,0-2.125-.681c-.16.14-.317.284-.484.438-.184-.137-.364-.264-.538-.4a.145.145,0,0,1-.027-.134,3.614,3.614,0,0,1,.177-.4,1.3,1.3,0,0,0-1.336-1.9,2.535,2.535,0,0,0-.361.043c-.17.047-.251-.01-.291-.174s-.107-.347-.164-.528c.177-.1.344-.2.511-.294a1.3,1.3,0,0,0,0-2.3l-.511-.294c.073-.217.144-.438.224-.655a.163.163,0,0,1,.13-.053c.2.013.394.047.591.057A1.289,1.289,0,0,0,8.355,4.844c-.08-.2-.174-.4-.271-.618.2-.147.4-.3.611-.448.164.147.314.284.464.418a1.293,1.293,0,0,0,2.148-.685c.04-.174.08-.344.11-.521a.108.108,0,0,1,.13-.107c.184,0,.364,0,.548,0,.084,0,.114.033.127.114.03.18.073.357.114.534a1.3,1.3,0,0,0,2.115.691c.164-.14.324-.291.5-.444.184.137.364.264.538.4a.16.16,0,0,1,.027.137,3.613,3.613,0,0,1-.177.4,1.3,1.3,0,0,0,1.34,1.9l.347-.037c.261-.03.21-.073.311.2.057.16.1.327.157.494l-.5.287A1.3,1.3,0,0,0,16.993,9.895Z" fill="#fff"/>
      <path id="Trazado_111795" data-name="Trazado 111795" d="M19.809,12.756a2.972,2.972,0,0,0-1.72-.434,3.049,3.049,0,0,0-2.208,1.059,2.989,2.989,0,0,0-.762,1.744,3.124,3.124,0,0,0,2.606,3.394c.1.017.207.027.314.04H18.4c.117-.017.237-.027.354-.05a3.064,3.064,0,0,0,1.784-.992,3.109,3.109,0,0,0,.785-1.764c0-.043.01-.087.013-.13v-.364c-.017-.117-.027-.237-.05-.354A3.063,3.063,0,0,0,19.809,12.756Zm-1.593,5.231a2.552,2.552,0,1,1,2.555-2.549A2.56,2.56,0,0,1,18.216,17.988Z" transform="translate(-6.401 -6.7)" fill="#fff"/>
    </g>
  </g>
</svg>
