<svg xmlns="http://www.w3.org/2000/svg" width="33" height="33" viewBox="0 0 33 33">
  <g id="Grupo_34801" data-name="Grupo 34801" transform="translate(0.262 0.262)">
    <g id="Grupo_4173" data-name="Grupo 4173">
      <g id="Elipse_133" data-name="Elipse 133" transform="translate(-0.262 -0.262)" fill="#fff" stroke="#e4e4e4" stroke-width="1">
        <circle cx="16.5" cy="16.5" r="16.5" stroke="none"/>
        <circle cx="16.5" cy="16.5" r="16" fill="none"/>
      </g>
    </g>
    <g id="kjviUC" transform="translate(5.196 7.744)">
      <g id="Grupo_4082" data-name="Grupo 4082">
        <path id="Trazado_86919" data-name="Trazado 86919" d="M-1618.115,1310.428q-4.158,0-8.316,0a2.551,2.551,0,0,1-2.714-2.682q-.018-4.1,0-8.2a2.55,2.55,0,0,1,2.7-2.7c.924-.008,1.849-.017,2.772.007a.626.626,0,0,0,.69-.415c.31-.686.669-1.349,1.007-2.022a1.62,1.62,0,0,1,1.632-.972c1.508.036,3.018.029,4.526,0a1.531,1.531,0,0,1,1.513.879c.356.685.714,1.37,1.04,2.07a.664.664,0,0,0,.72.461c.923-.036,1.848-.019,2.772-.01a2.551,2.551,0,0,1,2.695,2.7q.015,4.1,0,8.2a2.548,2.548,0,0,1-2.721,2.674Q-1613.956,1310.431-1618.115,1310.428Zm.03-1.7a5.114,5.114,0,0,0,5.084-5.078,5.1,5.1,0,0,0-5.165-5.105,5.108,5.108,0,0,0-5.056,5.1A5.114,5.114,0,0,0-1618.084,1308.731Zm-8.533-8.49a.845.845,0,0,0,.866-.843.841.841,0,0,0-.8-.849.835.835,0,0,0-.891.812A.839.839,0,0,0-1626.618,1300.241Z" transform="translate(1629.153 -1293.443)" fill="#ee5521"/>
        <path id="Trazado_86920" data-name="Trazado 86920" d="M-1551.562,1361.2a2.531,2.531,0,0,0-2.521,2.565,2.54,2.54,0,0,0,2.543,2.488,2.538,2.538,0,0,0,2.549-2.538A2.533,2.533,0,0,0-1551.562,1361.2Z" transform="translate(1562.579 -1353.531)" fill="#ee5521"/>
        <path id="Trazado_86921" data-name="Trazado 86921" d="M-1551.562,1361.2a2.533,2.533,0,0,1,2.572,2.515,2.538,2.538,0,0,1-2.549,2.538,2.54,2.54,0,0,1-2.543-2.488A2.531,2.531,0,0,1-1551.562,1361.2Z" transform="translate(1562.579 -1353.531)" fill="#ee5521"/>
      </g>
    </g>
  </g>
</svg>
