<svg xmlns="http://www.w3.org/2000/svg" width="27.711" height="27.719" viewBox="0 0 27.711 27.719">
  <g id="Objeto_inteligente_vectorial3" data-name="Objeto inteligente vectorial3" transform="translate(0 0)">
    <path id="Trazado_111782" data-name="Trazado 111782" d="M2.56,16.413A13.856,13.856,0,1,1,16.436,30.289,13.841,13.841,0,0,1,2.56,16.413Zm25.236.024A11.38,11.38,0,1,0,16.42,27.814,11.359,11.359,0,0,0,27.8,16.438Z" transform="translate(-2.56 -2.57)" fill="#f95e1f"/>
    <path id="Trazado_111783" data-name="Trazado 111783" d="M19.758,18.038c1.531,1.523,2.923,2.85,4.243,4.251a1.851,1.851,0,0,1,.489,1.278,1.192,1.192,0,0,1-2.085.562c-1.238-1.2-2.451-2.427-3.656-3.648a5.389,5.389,0,0,1-.521-.765c-1.4,1.409-2.63,2.638-3.86,3.876-.179.179-.358.375-.546.546A1.229,1.229,0,1,1,12.1,22.386q1.808-1.844,3.656-3.648a4.787,4.787,0,0,1,.733-.5L12.56,14.308c-.163-.163-.334-.318-.489-.5a1.242,1.242,0,0,1-.065-1.734,1.187,1.187,0,0,1,1.783-.008c1.221,1.181,2.41,2.386,3.607,3.591.212.22.383.489.635.814,1.221-1.23,2.321-2.337,3.412-3.445.309-.309.611-.627.928-.92A1.237,1.237,0,1,1,24.1,13.869c-1.205,1.23-2.427,2.443-3.648,3.656A8.092,8.092,0,0,1,19.758,18.038Z" transform="translate(-4.254 -4.26)" fill="#f95e1f"/>
  </g>
</svg>
