<svg xmlns="http://www.w3.org/2000/svg" width="184" height="184" viewBox="0 0 184 184">
  <g id="Grupo_4269" data-name="Grupo 4269" transform="translate(-12242 -1976)">
    <g id="Elipse_140" data-name="Elipse 140" transform="translate(12242 1976)" fill="none" stroke="#17a9c1" stroke-width="8">
      <circle cx="92" cy="92" r="92" stroke="none"/>
      <circle cx="92" cy="92" r="88" fill="none"/>
    </g>
    <g id="M1gGnK" transform="translate(12282.889 2014.316)">
      <g id="Grupo_4268" data-name="Grupo 4268" transform="translate(0 0)">
        <path id="Trazado_87407" data-name="Trazado 87407" d="M-44.84,246.482c.168-.538.359-1.07.5-1.615a10.614,10.614,0,0,1,9.924-7.558,11.115,11.115,0,0,1,9.355,4.953c3.331,4.565,6.806,9.025,10.218,13.531q3.256,4.3,6.509,8.6c.2.266.416.521.7.873.893-1.414,1.734-2.725,2.555-4.048q8.2-13.2,16.392-26.408,7.642-12.29,15.305-24.566,5.475-8.793,10.942-17.592a10.521,10.521,0,0,1,7.516-5.011,2.939,2.939,0,0,0,.472-.163H48.12c.214.064.426.138.642.192,3.887.957,6.679,3.162,7.981,7.04.26.775.428,1.581.639,2.373v2.573a19.457,19.457,0,0,1-2.7,5.953c-3.485,5.527-6.925,11.082-10.375,16.631q-5.741,9.233-11.471,18.473-5.787,9.3-11.587,18.6-4.634,7.451-9.254,14.911-4.677,7.524-9.369,15.039a12.558,12.558,0,0,1-3.239,3.6,14.792,14.792,0,0,1-4.778,1.981H-8.136a3.258,3.258,0,0,0-.477-.17A10.579,10.579,0,0,1-15.2,290.7c-.733-.947-1.456-1.9-2.18-2.858q-5.814-7.68-11.626-15.363c-3.479-4.6-6.981-9.175-10.429-13.793-2.154-2.885-4.74-5.534-5.4-9.293Z" transform="translate(44.84 -187.481)" fill="#17a9c1"/>
      </g>
    </g>
  </g>
</svg>
