<svg id="ic_coinGane_L" xmlns="http://www.w3.org/2000/svg" xmlns:xlink="http://www.w3.org/1999/xlink" width="22.067" height="22.067" viewBox="0 0 22.067 22.067">
  <defs>
    <clipPath id="clip-path">
      <rect id="Rectángulo_15509" data-name="Rectángulo 15509" width="22.067" height="22.067" fill="none"/>
    </clipPath>
  </defs>
  <g id="Grupo_35811" data-name="Grupo 35811" clip-path="url(#clip-path)">
    <path id="Trazado_112402" data-name="Trazado 112402" d="M22.067,11.034A11.034,11.034,0,1,1,11.034,0,11.034,11.034,0,0,1,22.067,11.034" transform="translate(0 0)" fill="#00acc5"/>
    <path id="Trazado_112403" data-name="Trazado 112403" d="M22.388,11.977A10.411,10.411,0,1,1,11.977,1.566,10.411,10.411,0,0,1,22.388,11.977" transform="translate(-0.943 -0.943)" fill="#fff"/>
    <path id="Trazado_112404" data-name="Trazado 112404" d="M11.646,22.275a10.63,10.63,0,1,1,10.629-10.63,10.642,10.642,0,0,1-10.629,10.63m0-20.822A10.192,10.192,0,1,0,21.838,11.646,10.2,10.2,0,0,0,11.646,1.453" transform="translate(-0.612 -0.612)" fill="#fff"/>
    <path id="Trazado_112405" data-name="Trazado 112405" d="M22.668,12.8A9.867,9.867,0,1,1,12.8,2.935,9.867,9.867,0,0,1,22.668,12.8" transform="translate(-1.768 -1.768)" fill="#fff"/>
    <path id="Trazado_112406" data-name="Trazado 112406" d="M12.47,22.556A10.085,10.085,0,1,1,22.555,12.47,10.1,10.1,0,0,1,12.47,22.556m0-19.733a9.648,9.648,0,1,0,9.648,9.648A9.659,9.659,0,0,0,12.47,2.822" transform="translate(-1.437 -1.437)" fill="#00acc5"/>
    <path id="Trazado_112407" data-name="Trazado 112407" d="M21.262,25.544a4.281,4.281,0,1,1,4.281-4.282,4.286,4.286,0,0,1-4.281,4.282m0-8.086a3.8,3.8,0,1,0,3.8,3.8,3.809,3.809,0,0,0-3.8-3.8" transform="translate(-10.229 -10.229)" fill="#00acc5"/>
    <path id="Trazado_112408" data-name="Trazado 112408" d="M21.262,35.7a4.281,4.281,0,1,1,4.281-4.281A4.286,4.286,0,0,1,21.262,35.7m0-8.086a3.8,3.8,0,1,0,3.8,3.8,3.809,3.809,0,0,0-3.8-3.8" transform="translate(-10.229 -16.346)" fill="#00acc5"/>
    <path id="Trazado_112409" data-name="Trazado 112409" d="M21.262,15.389a4.281,4.281,0,1,1,4.281-4.281,4.286,4.286,0,0,1-4.281,4.281m0-8.086a3.8,3.8,0,1,0,3.8,3.8,3.809,3.809,0,0,0-3.8-3.8" transform="translate(-10.229 -4.112)" fill="#00acc5"/>
    <path id="Trazado_112410" data-name="Trazado 112410" d="M12.466,20.449a4.281,4.281,0,1,1,3.712-2.134,4.259,4.259,0,0,1-3.712,2.134m.014-8.087a3.835,3.835,0,0,0-.985.13,3.783,3.783,0,1,0,.985-.13" transform="translate(-4.933 -7.159)" fill="#00acc5"/>
    <path id="Trazado_112411" data-name="Trazado 112411" d="M30.039,30.631A4.281,4.281,0,1,1,33.751,28.5a4.259,4.259,0,0,1-3.712,2.134m.014-8.084a3.8,3.8,0,1,0,1.9.512,3.807,3.807,0,0,0-1.9-.512" transform="translate(-15.519 -13.292)" fill="#00acc5"/>
    <path id="Trazado_112412" data-name="Trazado 112412" d="M12.472,30.62a4.28,4.28,0,1,1,2.133-.572,4.285,4.285,0,0,1-2.133.572m-.014-8.084a3.8,3.8,0,1,0,3.3,1.9,3.784,3.784,0,0,0-3.3-1.9" transform="translate(-4.928 -13.287)" fill="#00acc5"/>
    <path id="Trazado_112413" data-name="Trazado 112413" d="M30.062,20.47a4.316,4.316,0,0,1-1.115-.148,4.26,4.26,0,1,1,1.115.148m-.014-8.087a3.8,3.8,0,1,0,3.3,1.9,3.783,3.783,0,0,0-3.3-1.9" transform="translate(-15.524 -7.172)" fill="#00acc5"/>
  </g>
</svg>
