<svg id="ic_calling" xmlns="http://www.w3.org/2000/svg" xmlns:xlink="http://www.w3.org/1999/xlink" width="18.66" height="18.703" viewBox="0 0 18.66 18.703">
  <defs>
    <clipPath id="clip-path">
      <rect id="Rectángulo_15504" data-name="Rectángulo 15504" width="18.66" height="18.703" fill="#f8f8f8"/>
    </clipPath>
  </defs>
  <g id="Grupo_35797" data-name="Grupo 35797" clip-path="url(#clip-path)">
    <path id="Trazado_112396" data-name="Trazado 112396" d="M0,6.23c.028-.216.042-.434.085-.647A2.7,2.7,0,0,1,.806,4.2c.5-.513.985-1.048,1.525-1.517a1.71,1.71,0,0,1,2.506.03c.842.789,1.649,1.618,2.436,2.463a1.662,1.662,0,0,1,.011,2.235c-.42.478-.884.92-1.336,1.37a.185.185,0,0,0-.047.26A10.261,10.261,0,0,0,7.684,11.47a12.309,12.309,0,0,0,2.365,1.993c.249.159.516.29.794.445.34-.344.662-.692,1.008-1.015a4.429,4.429,0,0,1,.806-.645,1.588,1.588,0,0,1,1.9.234c.863.83,1.712,1.675,2.533,2.546a1.693,1.693,0,0,1,.025,2.3c-.517.588-1.069,1.146-1.632,1.692a2.681,2.681,0,0,1-1.565.715.747.747,0,0,0-.121.034H13.1c-.04-.011-.08-.025-.12-.033-.394-.072-.794-.117-1.18-.218A13.585,13.585,0,0,1,7.993,17.77a18.97,18.97,0,0,1-6.87-7.546,10.741,10.741,0,0,1-1-2.785C.066,7.125.041,6.8,0,6.486V6.23m1.06.158c.043.306.068.616.133.917A11.526,11.526,0,0,0,2.706,10.9a17.868,17.868,0,0,0,7.415,6.843,8.6,8.6,0,0,0,3.058.956,2.011,2.011,0,0,0,1.716-.576c.416-.426.836-.849,1.25-1.277a.8.8,0,0,0,0-1.3c-.327-.335-.661-.663-.992-.994-.4-.4-.8-.8-1.2-1.2a.7.7,0,0,0-1.04-.022c-.06.052-.116.108-.172.164-.417.416-.832.835-1.252,1.249a.782.782,0,0,1-.966.186,11.652,11.652,0,0,1-1.052-.58,13.693,13.693,0,0,1-2.989-2.627A9.776,9.776,0,0,1,4.922,9.444c-.32-.691-.276-.892.275-1.424.415-.4.829-.8,1.224-1.225a.677.677,0,0,0,.01-1c-.038-.046-.079-.092-.122-.135Q5.246,4.6,4.181,3.533a1.241,1.241,0,0,0-.273-.211.756.756,0,0,0-.952.218c-.4.4-.792.807-1.2,1.2A2.133,2.133,0,0,0,1.06,6.388" transform="translate(0 -1.065)" fill="#f8f8f8"/>
    <path id="Trazado_112397" data-name="Trazado 112397" d="M19.933,0c.334.07.61.115.88.186A10.037,10.037,0,0,1,26.7,4.3,9.9,9.9,0,0,1,28.29,8.18a.535.535,0,0,1-.313.659.521.521,0,0,1-.636-.213,1.809,1.809,0,0,1-.139-.449A8.937,8.937,0,0,0,21.89,1.664,9.066,9.066,0,0,0,19.9,1.074a.518.518,0,0,1-.321-.853A1.4,1.4,0,0,1,19.933,0" transform="translate(-9.646 0)" fill="#f8f8f8"/>
    <path id="Trazado_112398" data-name="Trazado 112398" d="M19.8,6.77A8.725,8.725,0,0,1,20.689,7a6.076,6.076,0,0,1,4.005,4.356c.035.129.062.26.085.391a.538.538,0,0,1-.4.629.525.525,0,0,1-.627-.365c-.094-.307-.145-.629-.262-.927A5.009,5.009,0,0,0,19.64,7.829a.533.533,0,0,1-.453-.693A.578.578,0,0,1,19.8,6.77" transform="translate(-9.501 -3.357)" fill="#f8f8f8"/>
  </g>
</svg>
