<svg id="ic_closeCross_orange" xmlns="http://www.w3.org/2000/svg" width="26.121" height="26.121" viewBox="0 0 26.121 26.121">
  <path id="Trazado_111635" data-name="Trazado 111635" d="M264.5,186.917a1.187,1.187,0,0,0-1.674,0l-2.731,2.731-2.719-2.731a1.192,1.192,0,0,0-1.686,1.686l2.731,2.719-2.731,2.719a1.187,1.187,0,1,0,1.674,1.674L260.1,193l2.719,2.719a1.187,1.187,0,0,0,1.674-1.674l-2.719-2.719,2.719-2.719a1.187,1.187,0,0,0,.012-1.686Z" transform="translate(-247.039 -178.262)" fill="#ff4d00"/>
  <path id="Trazado_111636" data-name="Trazado 111636" d="M106.395,23.332a13.061,13.061,0,1,0,9.235,3.825,13.061,13.061,0,0,0-9.235-3.825Zm0,23.747a10.686,10.686,0,1,1,7.556-3.13A10.685,10.685,0,0,1,106.395,47.079Z" transform="translate(-93.334 -23.332)" fill="#ff4d00"/>
</svg>
