<svg id="ic_coin" xmlns="http://www.w3.org/2000/svg" xmlns:xlink="http://www.w3.org/1999/xlink" width="76.552" height="74.294" viewBox="0 0 76.552 74.294">
  <defs>
    <linearGradient id="linear-gradient" x1="0.329" y1="0.554" x2="-0.255" y2="0.738" gradientUnits="objectBoundingBox">
      <stop offset="0" stop-color="#fcb148"/>
      <stop offset="0.052" stop-color="#fdb946"/>
      <stop offset="0.142" stop-color="#fec144"/>
      <stop offset="0.318" stop-color="#ffc444"/>
      <stop offset="0.485" stop-color="#fdb946"/>
      <stop offset="0.775" stop-color="#f99c4c"/>
      <stop offset="0.866" stop-color="#f8924f"/>
      <stop offset="1" stop-color="#f8924f"/>
    </linearGradient>
    <linearGradient id="linear-gradient-2" x1="0.727" y1="0.007" x2="0.207" y2="1.135" gradientUnits="objectBoundingBox">
      <stop offset="0" stop-color="#ffdb44"/>
      <stop offset="1" stop-color="#feef06"/>
    </linearGradient>
    <linearGradient id="linear-gradient-3" x1="0.636" y1="1.231" x2="0.531" y2="0.666" xlink:href="#linear-gradient"/>
    <linearGradient id="linear-gradient-4" x1="0.409" y1="0.31" x2="0.858" y2="1.247" xlink:href="#linear-gradient"/>
    <linearGradient id="linear-gradient-5" x1="0" y1="0.5" x2="1" y2="0.5" xlink:href="#linear-gradient-2"/>
    <linearGradient id="linear-gradient-6" x1="0.464" y1="0.369" x2="1.215" y2="1.306" xlink:href="#linear-gradient"/>
  </defs>
  <path id="Trazado_86899" data-name="Trazado 86899" d="M1680.729,557.224c0,19.3-15.092,34.484-34.381,33.891-20.074-.616-36.958-17.954-36.958-38.7s16.883-35.808,36.958-33.718C1665.637,520.706,1680.729,537.924,1680.729,557.224Z" transform="translate(-1609.39 -516.839)" fill="url(#linear-gradient)"/>
  <path id="Trazado_86900" data-name="Trazado 86900" d="M1770.093,528.691c0,19.3-15.092,34.484-34.381,33.891-20.074-.616-36.958-17.954-36.958-38.7s16.883-35.808,36.958-33.717C1755,492.173,1770.093,509.39,1770.093,528.691Z" transform="translate(-1693.541 -489.97)" fill="url(#linear-gradient-2)"/>
  <path id="Trazado_86901" data-name="Trazado 86901" d="M1796.729,555.458c0,18.451-14.44,32.941-32.867,32.344-19.142-.62-35.214-17.166-35.214-36.934s16.072-34.147,35.214-32.186C1782.289,520.57,1796.729,537.007,1796.729,555.458Z" transform="translate(-1721.691 -516.839)" fill="url(#linear-gradient-3)"/>
  <path id="Trazado_86902" data-name="Trazado 86902" d="M1815.693,574.569c0,17.842-13.973,31.837-31.783,31.239-18.477-.62-33.972-16.6-33.972-35.672s15.495-32.962,33.972-31.091C1801.72,540.848,1815.693,556.727,1815.693,574.569Z" transform="translate(-1741.74 -536.023)" fill="url(#linear-gradient-4)"/>
  <path id="Trazado_200" data-name="Trazado 200" d="M30.616,14.735c0,4.478.093,8.959-.031,13.433a17.129,17.129,0,0,1-2.554,9.5,17.041,17.041,0,0,1-11.8,7.373,14.068,14.068,0,0,1-9.152-1.465A5.693,5.693,0,0,1,4.92,34.788a4.05,4.05,0,0,1,4.049-1.21c1.906.219,3.828.581,5.746.612a5.718,5.718,0,0,0,4.4-1.8,2.549,2.549,0,0,0,.426-.586,1.558,1.558,0,0,0-.186-1.932c-.538-.548-1.155-.281-1.667.045a9.193,9.193,0,0,1-5.11,1.291A10.691,10.691,0,0,1,2.919,25.8,19.4,19.4,0,0,1,1.252,8.7,12.747,12.747,0,0,1,6.521,1.663a10.321,10.321,0,0,1,10.705-.322,3.557,3.557,0,0,0,4.185-.152A5.839,5.839,0,0,1,26.068.136a5.024,5.024,0,0,1,4.183,4.545c.3,2.758.326,5.548.46,8.325.029.574,0,1.151,0,1.725ZM19.4,15.688A46.517,46.517,0,0,0,18.326,10.6c-.491-1.527-1.927-1.668-3.335-1.539A2.382,2.382,0,0,0,12.8,11.046a18.166,18.166,0,0,0-.615,2.916,11.585,11.585,0,0,0,.688,5.955,2.853,2.853,0,0,0,5.417.031,43.273,43.273,0,0,0,1.091-4.257Z" transform="translate(25.969 13.685)" fill="url(#linear-gradient-5)"/>
  <path id="Trazado_86903" data-name="Trazado 86903" d="M1778.159,581.751c1.074-10.606,10.821-15.1,9.549-24.851-.784-6.013-5.341-11.08-10.425-15.037-15.42,1.617-27.344,14.386-27.344,31.086,0,19.071,15.495,35.051,33.972,35.672a32.067,32.067,0,0,0,5.25-.256C1781.822,601.062,1777.236,590.863,1778.159,581.751Z" transform="translate(-1741.74 -538.836)" opacity="0.3" fill="url(#linear-gradient-6)" style="mix-blend-mode: multiply;isolation: isolate"/>
</svg>
