<svg xmlns="http://www.w3.org/2000/svg" width="18.658" height="23.003" viewBox="0 0 18.658 23.003">
  <g id="Grupo_4419" data-name="Grupo 4419" transform="translate(-0.003 0.001)">
    <path id="Trazado_90299" data-name="Trazado 90299" d="M1172.011,62.785v5.921h6.866a1.093,1.093,0,0,1,1.249,1.192q.023,2.824,0,5.648a1.086,1.086,0,0,1-1.22,1.166q-8.1.009-16.194,0a1.085,1.085,0,0,1-1.22-1.165q-.026-2.854,0-5.709a1.062,1.062,0,0,1,1.182-1.13q1.713-.015,3.425,0a1.122,1.122,0,1,1,.029,2.243c-.762.019-1.524,0-2.317,0v3.456H1177.8V70.96h-6.792c-.949,0-1.369-.41-1.372-1.345-.008-2.067-.016-4.134.008-6.2a.728.728,0,0,0-.552-.84,4.552,4.552,0,0,1-2.81-5.383,4.71,4.71,0,0,1,5.139-3.436,4.644,4.644,0,0,1,4.056,4.625,4.7,4.7,0,0,1-3.466,4.4Zm1.117-4.462a2.322,2.322,0,1,0-2.341,2.3,2.321,2.321,0,0,0,2.341-2.3Z" transform="translate(-1161.476 -53.719)" fill="#b7b7b7"/>
  </g>
</svg>
