<svg id="Componente_180_26" data-name="Componente 180 – 26" xmlns="http://www.w3.org/2000/svg" xmlns:xlink="http://www.w3.org/1999/xlink" width="186.558" height="108.557" viewBox="0 0 186.558 108.557">
  <defs>
    <clipPath id="clip-path">
      <rect id="Rectángulo_15490" data-name="Rectángulo 15490" width="186.558" height="108.557" fill="none"/>
    </clipPath>
  </defs>
  <g id="Grupo_35780" data-name="Grupo 35780" clip-path="url(#clip-path)">
    <path id="Trazado_112347" data-name="Trazado 112347" d="M185.507,40.1a63.625,63.625,0,0,0-5.626-16.662A37.643,37.643,0,0,0,159.757,5.326,74.3,74.3,0,0,0,139.891.781,168.29,168.29,0,0,0,121.5,0c-3.744.13-7.509.195-11.318.411-5.193.238-10.386.541-15.58.952-4.717.368-9.435.693-14.152,1.061-5.237.411-10.473.887-15.71,1.255-6.578.476-13.157.93-19.67,1.9A101.876,101.876,0,0,0,22.13,11.536a40.412,40.412,0,0,0-14.455,9.24A26.622,26.622,0,0,0,.057,39.018,106.6,106.6,0,0,0,1.291,59.165,79.466,79.466,0,0,0,7.069,79.246C10.834,87.729,17.542,93.4,27.756,95.5c3.765.779,7.487,1.6,11.144,2.683a74.793,74.793,0,0,1,15.018,5.929c2.229,1.212,4.522,2.358,6.86,3.419.692.3,1.363.628,2.078.866,1.255.411,2.034.044,2.337-1.082a14.336,14.336,0,0,0,.325-1.926,22.07,22.07,0,0,1,.974-4.7,4.707,4.707,0,0,1,4.2-3.116,25.068,25.068,0,0,1,4.025-.238c2.857.086,5.691.152,8.548.282,3.527.151,7.054.346,10.582.519a69.434,69.434,0,0,0,8.223.108c4.392-.3,8.786-.649,13.178-.93,5.129-.346,10.257-.714,15.364-1.363a221.088,221.088,0,0,0,27.742-5.345c11.469-3.008,19.627-9.327,23.825-19.259A52.077,52.077,0,0,0,185.507,40.1M51.256,65.439a4.417,4.417,0,0,1-1.472,2.424,20.59,20.59,0,0,1-14.2,7.314A16.235,16.235,0,0,1,25.354,72.84a7.217,7.217,0,0,1-2.921-3.354,2.1,2.1,0,0,1-.26-1.514,8.534,8.534,0,0,1,.022-2.575c.692-3.419,3.138-4.912,6.9-4.2a16.658,16.658,0,0,0,7.379.108,9.846,9.846,0,0,0,2.857-1.234,5.115,5.115,0,0,0,.909-.758,1.858,1.858,0,0,0,.195-2.532c-.692-.865-1.406-.389-2.12-.021a13.535,13.535,0,0,1-18.091-4.7,23.565,23.565,0,0,1-2.618-6.124A23.236,23.236,0,0,1,18.6,30.319c3.138-7.6,10.755-10.625,18.242-7.249a3.222,3.222,0,0,0,3.83-.324,8.092,8.092,0,0,1,4.437-1.818c3.852-.282,6.622,2.034,7.27,6.1a81.815,81.815,0,0,1,.628,8.613c.3,5.712.476,11.447.692,17.16.173,4.415-.259,8.7-2.445,12.638m80.131-31.723a19.77,19.77,0,0,1,1.558-7.228c2.683-5.929,7.379-9.089,13.741-9.911a19.28,19.28,0,0,1,11.62,1.991c5.432,2.835,8.158,7.423,8.4,13.5.13,3.4-1.472,5.021-4.847,5.3-4.2.325-8.375.758-12.573,1.125-.216.022-.433.065-.649.108-.585.086-1.061.282-1.147.952a1.274,1.274,0,0,0,.866,1.45,8.718,8.718,0,0,0,5.3.325c1.688-.368,3.289-.974,5.02-1.191,2.164-.281,4.047.173,5.172,2.207,1.212,2.207,1.407,4.436-.108,6.6a9.632,9.632,0,0,1-5.756,3.744,28.831,28.831,0,0,1-6.86.844c-4.588-.108-8.786-1.017-12.465-3.657-5.518-3.982-7.552-9.587-7.27-16.165m1.631,29.027a1.935,1.935,0,0,1,.739-1.284,4.129,4.129,0,0,1,2.268-.652,4.027,4.027,0,0,1,2.32.321,1.961,1.961,0,0,1,.9,1.183,8.544,8.544,0,0,1,.259,1.574l.846,11.7a8.312,8.312,0,0,1-.033,1.558,1.894,1.894,0,0,1-.721,1.283,4.248,4.248,0,0,1-2.288.636,4.124,4.124,0,0,1-2.338-.319,1.874,1.874,0,0,1-.9-1.183,9.319,9.319,0,0,1-.237-1.54l-.849-11.733a8,8,0,0,1,.033-1.539m-.394-5.2A9.421,9.421,0,0,1,132.387,56a8.242,8.242,0,0,1,.031-1.576,1.87,1.87,0,0,1,.741-1.266,4.254,4.254,0,0,1,2.269-.634,4.024,4.024,0,0,1,2.32.321,1.957,1.957,0,0,1,.9,1.183,8.4,8.4,0,0,1,.224,3.095,1.89,1.89,0,0,1-.721,1.283,4.243,4.243,0,0,1-2.288.636,4.124,4.124,0,0,1-2.338-.319,1.866,1.866,0,0,1-.9-1.183m-29.3-37.763a6.287,6.287,0,0,1,2.6,1.688c1.536,1.623,1.926,1.666,3.895.541a14.253,14.253,0,0,1,8.2-2.272c4.826.324,7.855,3.072,9.587,7.357,1.212,2.986,1.493,6.21,1.926,9.37a84.623,84.623,0,0,1,.758,9.608,15.763,15.763,0,0,1-.173,5.042,6.375,6.375,0,0,1-5.518,4.783c-3.03.39-5.561-.39-7.185-3.159a13.405,13.405,0,0,1-1.471-5.475c-.455-4-.844-8.006-1.32-11.988-.282-2.424-1.6-3.354-3.614-2.727-1.234.39-1.84,1.515-1.688,3.246q.552,6.233,1.147,12.465a10.809,10.809,0,0,1-.758,5.6,6.754,6.754,0,0,1-7.032,4.112c-3.506-.455-5.713-2.489-6.233-5.865-.671-4.436-1.168-8.915-1.58-13.373-.346-3.636-.627-7.292-.974-10.928-.541-5.583,4.285-9.695,9.435-8.029m-43.56,34.9c-3.635-4.912-4.7-10.56-4.241-16.554a17.966,17.966,0,0,1,2.4-7.985A12.95,12.95,0,0,1,74.584,24.5a3.3,3.3,0,0,0,3.916-.52,8.067,8.067,0,0,1,4.35-1.991c3.289-.411,5.886,1.234,7.141,4.479a32.21,32.21,0,0,1,1.276,6.86c.368,2.554.736,5.107.974,7.682.238,2.489.282,4.977.411,7.444a18.5,18.5,0,0,1-.2,4.631,6.575,6.575,0,0,1-8.634,5.064,10,10,0,0,1-2.575-1.082,2.589,2.589,0,0,0-3.268.282,12.186,12.186,0,0,1-8.006,2.726A12.508,12.508,0,0,1,59.76,54.685M91.117,80.66a1.939,1.939,0,0,1-.738,1.3,4.2,4.2,0,0,1-2.3.655,4,4,0,0,1-2.34-.337,1.93,1.93,0,0,1-.9-1.2,9.36,9.36,0,0,1-.237-1.538l-.424-5.867a4.36,4.36,0,0,0-.3-1.407,1.785,1.785,0,0,0-.637-.8,1.533,1.533,0,0,0-.975-.219,1.759,1.759,0,0,0-.971.324,1.4,1.4,0,0,0-.481.849,5.715,5.715,0,0,0-.051,1.54l.425,5.866a8.375,8.375,0,0,1-.033,1.559,1.941,1.941,0,0,1-.738,1.3,4.205,4.205,0,0,1-2.3.654A3.994,3.994,0,0,1,75.766,83a1.93,1.93,0,0,1-.9-1.2,9.36,9.36,0,0,1-.237-1.538L74.2,74.393a4.942,4.942,0,0,0-.284-1.426,1.581,1.581,0,0,0-.619-.805,1.663,1.663,0,0,0-1.009-.2,1.469,1.469,0,0,0-1.054.438,1.85,1.85,0,0,0-.418.971,5.86,5.86,0,0,0-.034,1.269l.43,5.939a8.409,8.409,0,0,1-.033,1.557,1.876,1.876,0,0,1-.739,1.284,4.341,4.341,0,0,1-2.306.637,4.114,4.114,0,0,1-2.338-.319,1.874,1.874,0,0,1-.9-1.182,9.381,9.381,0,0,1-.237-1.54l-.851-11.769a8.194,8.194,0,0,1,.031-1.576,1.867,1.867,0,0,1,.741-1.266,4.341,4.341,0,0,1,2.305-.637,3.612,3.612,0,0,1,2.4.46,2.092,2.092,0,0,1,.729,1.138,7.634,7.634,0,0,1,.5-.63,5.127,5.127,0,0,1,1.214-.974,3.82,3.82,0,0,1,1.7-.5,6.949,6.949,0,0,1,2.072.14,5.412,5.412,0,0,1,1.774.758,6.079,6.079,0,0,1,1.455,1.36,11.462,11.462,0,0,1,1-1.158,7.213,7.213,0,0,1,1.559-1.2,4.817,4.817,0,0,1,2.108-.622,6.022,6.022,0,0,1,3.695.818,6.623,6.623,0,0,1,2.494,2.967,14.14,14.14,0,0,1,1.133,4.911L91.15,79.1a8.377,8.377,0,0,1-.033,1.559m14.589.374a9.338,9.338,0,0,1-3.248.868,9.111,9.111,0,0,1-3.4-.424A10.637,10.637,0,0,1,95.812,79.8a9.317,9.317,0,0,1-2.483-2.823A8.876,8.876,0,0,1,92.2,73.128a9.181,9.181,0,0,1,.488-3.761,9.927,9.927,0,0,1,4.724-5.479,8.957,8.957,0,0,1,3.6-1.02,9.325,9.325,0,0,1,4.915.929,9.8,9.8,0,0,1,3.7,3.187,9.21,9.21,0,0,1,1.644,4.729,9.071,9.071,0,0,1-.572,4.094,9.417,9.417,0,0,1-2.052,3.15,10.053,10.053,0,0,1-2.943,2.076m5.946,9.724c-.952,0-1.514-.476-1.514-1.255a1.306,1.306,0,0,1,1.472-1.32c.952,0,1.666.584,1.623,1.3a1.529,1.529,0,0,1-1.58,1.276m2.766-10.571a1.868,1.868,0,0,1-.9-1.183,9.478,9.478,0,0,1-.238-1.538l-.856-11.841a7.739,7.739,0,0,1,.035-1.522,1.8,1.8,0,0,1,.743-1.229,4.382,4.382,0,0,1,2.271-.617,4.566,4.566,0,0,1,2.169.222,1.728,1.728,0,0,1,.913.857,2.851,2.851,0,0,1,.226.926,2.221,2.221,0,0,1,.165-.267,4.776,4.776,0,0,1,1.116-1.076,7.3,7.3,0,0,1,1.531-.834,5.267,5.267,0,0,1,1.582-.386,7.019,7.019,0,0,1,3.216.455,6.342,6.342,0,0,1,2.425,1.76,8.924,8.924,0,0,1,1.6,2.8,13.267,13.267,0,0,1,.728,3.565l.427,5.9a8.367,8.367,0,0,1-.033,1.559,1.892,1.892,0,0,1-.721,1.282,5.95,5.95,0,0,1-4.662.319,1.937,1.937,0,0,1-.918-1.182,8.28,8.28,0,0,1-.255-1.537l-.425-5.867a2.974,2.974,0,0,0-.407-1.38,2.12,2.12,0,0,0-.928-.82,3.209,3.209,0,0,0-2.769.219,2.291,2.291,0,0,0-.854.966,2.756,2.756,0,0,0-.225,1.39l.426,5.9a8.325,8.325,0,0,1-.031,1.559,1.893,1.893,0,0,1-.722,1.281,4.235,4.235,0,0,1-2.287.636,4.112,4.112,0,0,1-2.338-.319m59.036-12.3a1.485,1.485,0,0,0-.3,1.017,2.4,2.4,0,0,1-.585,1.839,16.226,16.226,0,0,0-1.536,2.467c-2.358,4-6.016,6.816-10.452,8.937a77.006,77.006,0,0,1-17.94,5.67,138.014,138.014,0,0,1-20.687,2.4h-2.878c-.714,0-1.212-.26-1.342-.93a1.2,1.2,0,0,1,.887-1.45,8.2,8.2,0,0,1,2.186-.282,134.059,134.059,0,0,0,28.824-3.938c6.838-1.775,12.9-4.675,17.658-9.457a17.511,17.511,0,0,0,4.523-6.405,9.086,9.086,0,0,0,.324-1.991,2.085,2.085,0,0,1,1.017-1.58c.39-.238.563-.26.715.216a3.835,3.835,0,0,1-.411,3.484" transform="translate(0 0)" fill="#f8f8f8"/>
    <path id="Trazado_112348" data-name="Trazado 112348" d="M168.924,116.143a2.616,2.616,0,0,0-1.135-.931,3.363,3.363,0,0,0-1.609-.245,2.809,2.809,0,0,0-1.412.481,2.913,2.913,0,0,0-1.254,2.677,2.746,2.746,0,0,0,.628,1.691,2.805,2.805,0,0,0,1.254.832,3.391,3.391,0,0,0,1.244.182,3.535,3.535,0,0,0,1.222-.359,2.914,2.914,0,0,0,1.157-1.006,2.746,2.746,0,0,0,.4-1.8,3.03,3.03,0,0,0-.491-1.521" transform="translate(-64.731 -45.51)" fill="#f8f8f8"/>
    <path id="Trazado_112349" data-name="Trazado 112349" d="M57.687,55.246c-.649-1.688-1.774-2.229-3.7-2.1a2.851,2.851,0,0,0-2.835,2.489,20.629,20.629,0,0,0-.584,3.614,12.115,12.115,0,0,0,1.3,6.9A3.253,3.253,0,0,0,55.285,68.1a3.379,3.379,0,0,0,2.792-2.4,10.033,10.033,0,0,0,.671-4.22,15.314,15.314,0,0,0-1.06-6.232" transform="translate(-19.998 -21.033)" fill="#f8f8f8"/>
    <path id="Trazado_112350" data-name="Trazado 112350" d="M121.472,57.892a3.993,3.993,0,0,0-2.294-2.294c-2.078-.628-3.874.628-4.393,3.116a15.918,15.918,0,0,0,1.082,9.8,3.076,3.076,0,0,0,3.549,1.991,3.014,3.014,0,0,0,2.878-2.488,11.611,11.611,0,0,0,.476-3.636,14.884,14.884,0,0,0-1.3-6.492" transform="translate(-45.308 -21.948)" fill="#f8f8f8"/>
    <path id="Trazado_112351" data-name="Trazado 112351" d="M247.139,47.045a3.254,3.254,0,0,0-4.09-2.64c-2.229.411-3.419,2.012-3.008,3.938a1.245,1.245,0,0,0,1.428,1.125c1.342-.086,2.662-.52,4.046-.476,1.277.022,1.8-.671,1.623-1.948" transform="translate(-94.999 -17.549)" fill="#f8f8f8"/>
    <path id="Trazado_112352" data-name="Trazado 112352" d="M115.753,112.355a3.913,3.913,0,0,0-.156-.842c-.156.217-.312.451-.468.707Z" transform="translate(-45.579 -44.147)" fill="#ff3600"/>
    <path id="Trazado_112353" data-name="Trazado 112353" d="M196.333,107.217l.272-.237a1.182,1.182,0,0,1-.094-.553c0-.017-.007-.036-.007-.052a1.376,1.376,0,0,0-.171.842" transform="translate(-77.722 -42.113)" fill="#ff3600"/>
  </g>
</svg>
