<svg id="ic_gane" xmlns="http://www.w3.org/2000/svg" width="45.623" height="50.085" viewBox="0 0 45.623 50.085">
  <path id="Trazado_86922" data-name="Trazado 86922" d="M463.283,75.671c.006,2.923-.9,4.609-2.471,4.628-1.533.019-2.519-1.757-2.549-4.6a4.171,4.171,0,0,1,.057-.929c.36-1.615.247-3.875,2.581-3.758,2.223.111,2.109,2.308,2.377,3.96a4.379,4.379,0,0,1,.005.7" transform="translate(-438.957 -58.047)" fill="#fc5f04"/>
  <path id="Trazado_86923" data-name="Trazado 86923" d="M478.486,74.263c-2.2-13.445-4.586-20.318-19.632-19.962-6.747.534-10.557,1.242-15.646,3.427-6,2.576-9.7,6.968-9.835,13.6a50.4,50.4,0,0,0,2.85,18.746,12.125,12.125,0,0,0,9.723,8.246,40.614,40.614,0,0,1,5.586,1.713c2.764.905,5.042,2.658,7.588,3.928.726.362,1.608.943,1.757-.612-1.258-4.186.614-4.318.614-4.318s-.084-.016,5.01-1.444c4.887-1.371,9.241-4.315,11.166-9.052C479.332,84.434,479.186,78.535,478.486,74.263ZM460.317,97.1c-.265.019-.477-.174-.515-.53s.119-.578.387-.588.464.15.526.527C460.712,96.857,460.583,97.085,460.317,97.1Zm-11.669-4.81a4.386,4.386,0,0,1-2.033-5.433c.891-2.092,2.632-2.128,4.533-1.677a8.157,8.157,0,0,0,5.917-.427c.7-.371,1.4-.982,1.044-1.863-.468-1.159-1.3-.385-1.953-.132A8.412,8.412,0,0,1,445.1,78.2a14.919,14.919,0,0,1-.089-12.256,8.232,8.232,0,0,1,12.125-4.089c.821.465,1.188.171,1.8-.236,3.629-2.41,7.168-.667,7.332,3.656.112,2.959.021,5.926.021,9.9-.143,2.71.41,6.477-.586,10.155C463.827,92.248,454.847,95.908,448.648,92.294Zm27.178-8.119a2.044,2.044,0,0,1-.064,1.411h0a9.111,9.111,0,0,1-3.874,6.579,22.369,22.369,0,0,1-8.736,4.091c-.329.082-.813.407-.981-.273-.153-.62.366-.721.713-.813a26.885,26.885,0,0,0,7.567-3.208,10.723,10.723,0,0,0,4.863-7.1h0c.027-.367.053-.735.079-1.1-.083-.529-.258-1.088.195-1.471a2.4,2.4,0,0,1,.239,1.888h0Z" transform="translate(-433.359 -54.288)" fill="#fc5d00"/>
</svg>
