<svg xmlns="http://www.w3.org/2000/svg" width="23.523" height="23.502" viewBox="0 0 23.523 23.502">
  <path id="Objeto_inteligente_vectorial17" data-name="Objeto inteligente vectorial17" d="M24.651,13.438a2.337,2.337,0,0,1-.627,1.047,2.077,2.077,0,0,1-1.426.572h-.379v.269c0,2.2.007,4.41,0,6.614A2.459,2.459,0,0,1,20.3,24.393a3.109,3.109,0,0,1-.62.069c-1.171.007-2.343.007-3.507,0a.694.694,0,0,1-.779-.772c0-1.723-.021-3.452.007-5.174a1.2,1.2,0,0,0-1.3-1.288c-.627.021-1.261,0-1.888.007a1.137,1.137,0,0,0-1.24,1.247v5.154c0,.586-.248.834-.834.834H6.716a2.484,2.484,0,0,1-2.584-2.577v-6.8a6.488,6.488,0,0,1-.744-.069,2.026,2.026,0,0,1-1.612-1.406,2.061,2.061,0,0,1,.42-2.081c.069-.083.145-.152.22-.227q4.4-4.4,8.792-8.8a3.537,3.537,0,0,1,1.433-1.04h1.082a3.56,3.56,0,0,1,1.385,1q4.32,4.341,8.661,8.661a3.087,3.087,0,0,1,.889,1.323C24.651,12.777,24.651,13.107,24.651,13.438Zm-7.91,9.674h.276c.854,0,1.709-.028,2.563.007a1.222,1.222,0,0,0,1.309-1.309c-.028-2.439-.007-4.871-.007-7.31a.7.7,0,0,1,.792-.785c.317,0,.627.007.944-.007a.715.715,0,0,0,.655-.434.739.739,0,0,0-.076-.785,2.551,2.551,0,0,0-.227-.248q-4.547-4.547-9.1-9.1a.821.821,0,0,0-1.378.007L4.2,11.44c-.317.317-.641.634-.951.958a.738.738,0,0,0-.172.847.717.717,0,0,0,.717.462h.834c.6,0,.847.248.847.841,0,2.412.021,4.83-.007,7.241a1.221,1.221,0,0,0,1.316,1.323c.854-.034,1.709-.007,2.563-.007H9.61v-.289c0-1.53-.014-3.059.014-4.589a2.388,2.388,0,0,1,2.163-2.315c.923-.062,1.86-.014,2.784-.007a1,1,0,0,1,.2.028,2.461,2.461,0,0,1,1.964,2.46c.007,1.468,0,2.942,0,4.41C16.741,22.9,16.741,22.988,16.741,23.112Z" transform="translate(-1.386 -1.22)" fill="#a5a5a5" stroke="#a5a5a5" stroke-miterlimit="10" stroke-width="0.5"/>
</svg>
