<svg xmlns="http://www.w3.org/2000/svg" width="48.82" height="48.822" viewBox="0 0 48.82 48.822">
  <g id="noun-home-1060012" transform="translate(-70.002 -0.002)">
    <path id="Trazado_111742" data-name="Trazado 111742" d="M107.4,24.6a1.605,1.605,0,0,1-2.253.27l-9.364-7.356a2.192,2.192,0,0,0-2.708,0l-9.365,7.356a1.6,1.6,0,1,1-1.982-2.524l11.347-8.913a2.193,2.193,0,0,1,2.708,0l11.347,8.913a1.605,1.605,0,0,1,.271,2.253Zm-3.761,9.463a1.9,1.9,0,0,1-1.9,1.9H97.29V30.653a2.874,2.874,0,0,0-5.748,0v5.309H87.085a1.9,1.9,0,0,1-1.9-1.9V26.484l8.519-6.643a1.153,1.153,0,0,1,1.419,0l8.518,6.643Zm8.029-26.914A24.411,24.411,0,0,0,77.151,41.673,24.411,24.411,0,1,0,111.672,7.152Z" transform="translate(0 0)" fill="#fa5d2e" fill-rule="evenodd"/>
  </g>
</svg>
