<svg id="ic_línea3" xmlns="http://www.w3.org/2000/svg" width="153" height="98.75" viewBox="0 0 153 98.75">
  <line id="Línea_321" data-name="Línea 321" x2="100" transform="translate(52 81.25)" fill="none" stroke="#fc5d00" stroke-width="2"/>
  <line id="Línea_335" data-name="Línea 335" y1="81.25" transform="translate(152)" fill="none" stroke="#fc5d00" stroke-width="2"/>
  <g id="ic_hand" transform="translate(0 54.5)">
    <path id="hand-point-left" d="M5.162,74.582h17.2a15.658,15.658,0,0,1-1.631-2.871A5.535,5.535,0,0,1,25.813,64a4.912,4.912,0,0,1,4.609,3.352c1.4,3.26,9.063,7.413,12.392,8.91a5.531,5.531,0,0,1,3.28,5.052h0v19.766a2.762,2.762,0,0,1-2.336,2.731c-5.4.835-7.117,4.435-14.258,4.415-.314,0-1.527.022-1.844.022-5.837,0-9.4-2.549-8.366-8.212a5.278,5.278,0,0,1-1.9-7.181,5.668,5.668,0,0,1-.726-8.175H5.162A5.2,5.2,0,0,1,0,79.632,5.28,5.28,0,0,1,5.162,74.582ZM50.7,76.906h5.531A2.766,2.766,0,0,1,59,79.672V101.8a2.766,2.766,0,0,1-2.766,2.766H50.7a2.766,2.766,0,0,1-2.766-2.766V79.672A2.766,2.766,0,0,1,50.7,76.906Zm2.766,24.43a2.3,2.3,0,1,0-2.3-2.3A2.3,2.3,0,0,0,53.469,101.336Z" transform="translate(0 -64)" fill="#fc5d00"/>
  </g>
</svg>
