<svg xmlns="http://www.w3.org/2000/svg" width="18.187" height="20.226" viewBox="0 0 18.187 20.226">
  <g id="noun-phone-4796027" transform="translate(-86.358 -62.801)">
    <path id="Trazado_111827" data-name="Trazado 111827" d="M172.555,79.584c-.193.256-.39.512-.588.768-.4.522-.819,1.062-1.2,1.6-.732,1.036-1.826,1.316-3.344.855-5.1-1.55-12.585-10.972-12.711-16a2.383,2.383,0,0,1,1.571-2.614.616.616,0,0,0,.132-.067,12.512,12.512,0,0,1,1.62-.775c.287-.122.558-.238.779-.342a2.214,2.214,0,0,1,.94-.212,2.154,2.154,0,0,1,1.955,1.26l1.134,2.421a2.185,2.185,0,0,1-1.048,2.895l-1.825.855a.61.61,0,0,0-.345.648c.2,1.257,4.28,6.318,5.137,6.635a.61.61,0,0,0,.7-.212l1.34-1.824a2.185,2.185,0,0,1,3.043-.466L172,76.6a2.334,2.334,0,0,1,.867,1.532,1.931,1.931,0,0,1-.314,1.457Z" transform="translate(-68.351 0)" fill="#f95e1f" fill-rule="evenodd"/>
  </g>
</svg>
