<svg xmlns="http://www.w3.org/2000/svg" width="17.411" height="17.462" viewBox="0 0 17.411 17.462">
  <g id="ic_phone_request" transform="translate(0.3 0.318)">
    <path id="Trazado_112627" data-name="Trazado 112627" d="M505.4,628.109c.025-.194.038-.391.076-.583a2.432,2.432,0,0,1,.65-1.249c.452-.461.888-.943,1.374-1.366a1.54,1.54,0,0,1,2.256.028c.759.711,1.486,1.458,2.2,2.218a1.5,1.5,0,0,1,.01,2.013c-.38.432-.8.829-1.2,1.234a.166.166,0,0,0-.042.234,9.234,9.234,0,0,0,1.6,2.19,11.074,11.074,0,0,0,2.129,1.8c.225.143.466.262.715.4.307-.31.6-.623.909-.914a3.965,3.965,0,0,1,.726-.58,1.431,1.431,0,0,1,1.708.211c.776.748,1.541,1.508,2.281,2.293a1.524,1.524,0,0,1,.023,2.07c-.465.531-.964,1.034-1.47,1.524a2.415,2.415,0,0,1-1.409.645.584.584,0,0,0-.109.031H517.2a1.015,1.015,0,0,0-.108-.029c-.354-.065-.715-.105-1.063-.2A12.25,12.25,0,0,1,512.6,638.5a17.077,17.077,0,0,1-6.187-6.8,9.666,9.666,0,0,1-.9-2.508c-.056-.283-.077-.573-.116-.86Zm.955.142c.039.276.061.555.121.827a10.368,10.368,0,0,0,1.362,3.234,16.1,16.1,0,0,0,6.678,6.163,7.756,7.756,0,0,0,2.754.861,1.813,1.813,0,0,0,1.545-.518c.375-.385.753-.766,1.126-1.15a.717.717,0,0,0,0-1.167c-.295-.3-.594-.6-.893-.9-.361-.361-.717-.724-1.083-1.079a.628.628,0,0,0-.936-.019c-.055.047-.105.1-.155.147-.376.376-.75.753-1.129,1.125a.7.7,0,0,1-.87.168,10.717,10.717,0,0,1-.947-.522,12.366,12.366,0,0,1-2.692-2.367,8.82,8.82,0,0,1-1.4-2.055c-.288-.622-.249-.8.248-1.282.373-.362.747-.725,1.1-1.1a.61.61,0,0,0,.009-.9,1.433,1.433,0,0,0-.11-.122q-.956-.96-1.916-1.917a1.07,1.07,0,0,0-.245-.189.682.682,0,0,0-.858.2c-.363.357-.714.726-1.083,1.078A1.921,1.921,0,0,0,506.358,628.251Z" transform="translate(-505.403 -623.458)" fill="#fff" stroke="#fff" stroke-width="0.6"/>
    <path id="Trazado_112628" data-name="Trazado 112628" d="M512.792,623.665c.3.062.55.1.792.167a9.044,9.044,0,0,1,5.3,3.706,8.911,8.911,0,0,1,1.433,3.493.483.483,0,0,1-.281.594.47.47,0,0,1-.574-.192,1.672,1.672,0,0,1-.124-.4,8.048,8.048,0,0,0-4.786-5.865,8.146,8.146,0,0,0-1.788-.532.466.466,0,0,1-.289-.768A1.256,1.256,0,0,1,512.792,623.665Z" transform="translate(-503.527 -623.665)" fill="#fff" stroke="#fff" stroke-width="0.6"/>
    <path id="Trazado_112629" data-name="Trazado 112629" d="M512.835,626.085a7.858,7.858,0,0,1,.8.211,5.474,5.474,0,0,1,3.607,3.924c.032.116.056.234.076.352a.484.484,0,0,1-.357.566.474.474,0,0,1-.565-.329c-.085-.277-.131-.568-.236-.836a4.507,4.507,0,0,0-3.47-2.933.48.48,0,0,1-.408-.625A.522.522,0,0,1,512.835,626.085Z" transform="translate(-503.555 -623.012)" fill="#fff" stroke="#fff" stroke-width="0.6"/>
  </g>
</svg>
