<svg xmlns="http://www.w3.org/2000/svg" width="332" height="71" viewBox="0 0 332 71">
  <g id="Grupo_35923" data-name="Grupo 35923" transform="translate(-22 -425)">
    <rect id="Rect치ngulo_15563" data-name="Rect치ngulo 15563" width="332" height="71" rx="10" transform="translate(22 425)" fill="#fff"/>
    <g id="Grupo_35910" data-name="Grupo 35910" transform="translate(0 -2)">
      <path id="Trazado_112530" data-name="Trazado 112530" d="M6.534.54A7.982,7.982,0,0,1,4.469.3a7.354,7.354,0,0,1-1.539-.58A8.954,8.954,0,0,1,1.9-.9q-.392-.284-.527-.391a3.787,3.787,0,0,1-.634-.621,1.182,1.182,0,0,1-.257-.756A1.628,1.628,0,0,1,.675-3.4a3.248,3.248,0,0,1,.621-.81A2.819,2.819,0,0,1,2-4.819a1.394,1.394,0,0,1,.7-.2,1.609,1.609,0,0,1,.675.162,4.144,4.144,0,0,1,.864.594q.108.081.337.243a2.442,2.442,0,0,0,.648.3,3.761,3.761,0,0,0,1.121.135,2.785,2.785,0,0,0,1.283-.27,2,2,0,0,0,.824-.769,2.31,2.31,0,0,0,.3-1.2,2.2,2.2,0,0,0-.311-1.161,2.185,2.185,0,0,0-.823-.8,2.36,2.36,0,0,0-1.161-.283,2.57,2.57,0,0,0-.675.081,1.705,1.705,0,0,0-.5.216,2.079,2.079,0,0,0-.311.243,3.805,3.805,0,0,1-.527.392,1.338,1.338,0,0,1-.715.176A2.275,2.275,0,0,1,3-7.034a3.784,3.784,0,0,1-.837-.338,4.344,4.344,0,0,1-1.026-.675.96.96,0,0,1-.3-.7L1.89-16.6a6.951,6.951,0,0,1,.189-.864,1.731,1.731,0,0,1,.553-.851,1.962,1.962,0,0,1,1.309-.365l6.453.027a4.358,4.358,0,0,1,1,.108,1.2,1.2,0,0,1,.742.54,2.779,2.779,0,0,1,.284,1.458,2.606,2.606,0,0,1-.27,1.363,1.056,1.056,0,0,1-.715.5,5.2,5.2,0,0,1-.931.081H5.751L5.373-11.88a1.246,1.246,0,0,1,.351-.162q.189-.054.378-.094a1.8,1.8,0,0,1,.378-.041h.162a5.809,5.809,0,0,1,2.335.486,6.527,6.527,0,0,1,2,1.35A6.7,6.7,0,0,1,12.366-8.37a5.52,5.52,0,0,1,.513,2.349,6.7,6.7,0,0,1-.837,3.348A6.282,6.282,0,0,1,9.76-.324,6.165,6.165,0,0,1,6.534.54Zm14.553,0a6.9,6.9,0,0,1-3-.594,5.772,5.772,0,0,1-2.052-1.607,8.262,8.262,0,0,1-1.283-2.268,12.145,12.145,0,0,1-.661-2.619A19.178,19.178,0,0,1,13.9-9.18a18.068,18.068,0,0,1,.189-2.524,12.985,12.985,0,0,1,.648-2.605A8.552,8.552,0,0,1,16-16.618a5.622,5.622,0,0,1,2.052-1.647,6.787,6.787,0,0,1,2.983-.607,6.479,6.479,0,0,1,2.9.607,5.679,5.679,0,0,1,2.011,1.62A8.617,8.617,0,0,1,27.2-14.364a12.417,12.417,0,0,1,.662,2.619,18.707,18.707,0,0,1,.189,2.592,17.652,17.652,0,0,1-.2,2.619,13.62,13.62,0,0,1-.661,2.619,7.938,7.938,0,0,1-1.255,2.268A5.842,5.842,0,0,1,23.949-.054,6.341,6.341,0,0,1,21.087.54Zm-.108-4.131a2.332,2.332,0,0,0,1.444-.418,2.868,2.868,0,0,0,.864-1.066,5.866,5.866,0,0,0,.459-1.391A9.124,9.124,0,0,0,23.922-7.9q.027-.689.027-1.148V-9.18a12.276,12.276,0,0,0-.324-3.051,4.073,4.073,0,0,0-.972-1.89,2.231,2.231,0,0,0-1.647-.648,2.338,2.338,0,0,0-1.687.634,3.915,3.915,0,0,0-.986,1.89,12.575,12.575,0,0,0-.324,3.092,11.682,11.682,0,0,0,.338,3.024,4.092,4.092,0,0,0,1,1.89A2.243,2.243,0,0,0,20.979-3.591ZM36.261.54a6.9,6.9,0,0,1-3-.594,5.772,5.772,0,0,1-2.052-1.607A8.262,8.262,0,0,1,29.93-3.929a12.145,12.145,0,0,1-.662-2.619,19.178,19.178,0,0,1-.189-2.633,18.068,18.068,0,0,1,.189-2.524,12.985,12.985,0,0,1,.648-2.605,8.552,8.552,0,0,1,1.255-2.309,5.622,5.622,0,0,1,2.052-1.647,6.787,6.787,0,0,1,2.984-.607,6.479,6.479,0,0,1,2.9.607,5.679,5.679,0,0,1,2.011,1.62,8.617,8.617,0,0,1,1.256,2.281,12.417,12.417,0,0,1,.662,2.619,18.708,18.708,0,0,1,.189,2.592,17.652,17.652,0,0,1-.2,2.619,13.62,13.62,0,0,1-.661,2.619,7.938,7.938,0,0,1-1.256,2.268A5.842,5.842,0,0,1,39.123-.054,6.341,6.341,0,0,1,36.261.54Zm-.108-4.131A2.332,2.332,0,0,0,37.6-4.01a2.868,2.868,0,0,0,.864-1.066,5.866,5.866,0,0,0,.459-1.391A9.124,9.124,0,0,0,39.1-7.9q.027-.689.027-1.148V-9.18a12.276,12.276,0,0,0-.324-3.051,4.073,4.073,0,0,0-.972-1.89,2.231,2.231,0,0,0-1.647-.648,2.338,2.338,0,0,0-1.687.634,3.915,3.915,0,0,0-.986,1.89,12.575,12.575,0,0,0-.324,3.092,11.681,11.681,0,0,0,.338,3.024,4.092,4.092,0,0,0,1,1.89A2.243,2.243,0,0,0,36.153-3.591ZM53,.243a2.472,2.472,0,0,1-1.39-.3,1.267,1.267,0,0,1-.527-.77,4.536,4.536,0,0,1-.108-1.013V-16.6a4.06,4.06,0,0,1,.108-.958,1.248,1.248,0,0,1,.54-.743,2.609,2.609,0,0,1,1.431-.3,4.881,4.881,0,0,1,1.026.081,1.137,1.137,0,0,1,.513.229q.162.149.351.337L61.02-9.747h-.405l6.1-8.208a1.782,1.782,0,0,1,.432-.405,1.482,1.482,0,0,1,.553-.189,6.465,6.465,0,0,1,.958-.054,2.545,2.545,0,0,1,1.4.3,1.252,1.252,0,0,1,.54.769,4.41,4.41,0,0,1,.108.986V-1.782A4.233,4.233,0,0,1,70.6-.81a1.25,1.25,0,0,1-.54.756,2.609,2.609,0,0,1-1.431.3,2.545,2.545,0,0,1-1.4-.3,1.256,1.256,0,0,1-.54-.783,4.591,4.591,0,0,1-.108-1v-9.639l-4.023,5.7q-.108.135-.3.365a1.52,1.52,0,0,1-.527.391,2.113,2.113,0,0,1-.9.162,2.191,2.191,0,0,1-.932-.162,1.619,1.619,0,0,1-.527-.378q-.189-.216-.324-.378l-4-5.67v9.666a4.233,4.233,0,0,1-.108.972,1.264,1.264,0,0,1-.527.756A2.536,2.536,0,0,1,53,.243Zm21.627,0a2.455,2.455,0,0,1-1.4-.31,1.257,1.257,0,0,1-.527-.81,5.582,5.582,0,0,1-.094-1.04V-16.551a5.16,5.16,0,0,1,.094-1.013,1.247,1.247,0,0,1,.527-.783,2.516,2.516,0,0,1,1.431-.31h6.723a5.343,5.343,0,0,1,2.835.756,5.6,5.6,0,0,1,1.971,2.025,5.237,5.237,0,0,1,.7,2.754,4.17,4.17,0,0,1-.108,1.161,5.284,5.284,0,0,1-.391,1.093,4.324,4.324,0,0,1-.634.958A5.028,5.028,0,0,1,86.7-8.681a6.469,6.469,0,0,1,.58,1.444,5.923,5.923,0,0,1,.2,1.539,6.511,6.511,0,0,1-.473,2.336,5.559,5.559,0,0,1-1.255,1.89A6.123,6.123,0,0,1,83.889-.216a5.547,5.547,0,0,1-2.241.459Zm2.079-4.077h4.671a2.663,2.663,0,0,0,.931-.175,1.6,1.6,0,0,0,.783-.648,2.426,2.426,0,0,0,.31-1.337,2.84,2.84,0,0,0-.135-.945,1.306,1.306,0,0,0-.378-.58,1.418,1.418,0,0,0-.54-.284,3.442,3.442,0,0,0-.621-.108q-.324-.027-.621-.027h-.783a1.757,1.757,0,0,1-1.3-.391,1.945,1.945,0,0,1-.378-1.363,1.726,1.726,0,0,1,.419-1.323,1.959,1.959,0,0,1,1.337-.378h.783q.27,0,.567-.027a1.247,1.247,0,0,0,.526-.162.991.991,0,0,0,.378-.445,2,2,0,0,0,.148-.851,1.639,1.639,0,0,0-.459-1.31,2.539,2.539,0,0,0-1.62-.392H76.707Z" transform="translate(33 466)" fill="#99a540"/>
      <path id="Trazado_112529" data-name="Trazado 112529" d="M3.289-.312a1.119,1.119,0,0,1-.617-.13A.542.542,0,0,1,2.438-.78a2.065,2.065,0,0,1-.046-.442V-5.434a1.889,1.889,0,0,1,.046-.429.539.539,0,0,1,.234-.325,1.15,1.15,0,0,1,.63-.13,1.119,1.119,0,0,1,.617.13.542.542,0,0,1,.234.338,2,2,0,0,1,.046.429v4.212a2,2,0,0,1-.046.429.542.542,0,0,1-.234.338A1.15,1.15,0,0,1,3.289-.312ZM1.131-2.418a2.05,2.05,0,0,1-.4-.039A.485.485,0,0,1,.41-2.691a1.2,1.2,0,0,1-.123-.624,1.146,1.146,0,0,1,.13-.637A.549.549,0,0,1,.754-4.18,2.065,2.065,0,0,1,1.2-4.225h4.2a2.065,2.065,0,0,1,.442.045.518.518,0,0,1,.332.234,1.233,1.233,0,0,1,.123.643,1.167,1.167,0,0,1-.123.618.488.488,0,0,1-.312.227,2.022,2.022,0,0,1-.41.039ZM11.037.117a1.221,1.221,0,0,1-.683-.143A.612.612,0,0,1,10.1-.4a2.211,2.211,0,0,1-.052-.481v-7.1a2.123,2.123,0,0,1,.052-.474.6.6,0,0,1,.26-.371,1.256,1.256,0,0,1,.689-.143h2.665a3.284,3.284,0,0,1,1.1.195,3.191,3.191,0,0,1,1.027.6,3.127,3.127,0,0,1,.767,1.007,3.161,3.161,0,0,1,.293,1.4,3.13,3.13,0,0,1-.293,1.391,2.984,2.984,0,0,1-.767.995,3.4,3.4,0,0,1-1.033.6,3.243,3.243,0,0,1-1.105.2H12.038v1.7a2.123,2.123,0,0,1-.052.475.6.6,0,0,1-.26.37A1.256,1.256,0,0,1,11.037.117Zm1-4.667h1.677a1.387,1.387,0,0,0,.566-.124,1.109,1.109,0,0,0,.468-.4,1.21,1.21,0,0,0,.188-.7,1.262,1.262,0,0,0-.156-.637,1.12,1.12,0,0,0-.435-.429,1.3,1.3,0,0,0-.644-.156H12.038ZM18.785.13a1.225,1.225,0,0,1-.676-.143.6.6,0,0,1-.26-.377A2.211,2.211,0,0,1,17.8-.871V-7.982a2.387,2.387,0,0,1,.045-.481.575.575,0,0,1,.253-.364,1.256,1.256,0,0,1,.689-.143,1.252,1.252,0,0,1,.7.143.581.581,0,0,1,.247.364,2.387,2.387,0,0,1,.045.481V-1.6h3.562a2.119,2.119,0,0,1,.416.039.494.494,0,0,1,.318.221,1.1,1.1,0,0,1,.124.6,1.059,1.059,0,0,1-.13.591.539.539,0,0,1-.318.234,1.743,1.743,0,0,1-.41.045ZM33.241-1.261a1.535,1.535,0,0,1,.169.553.552.552,0,0,1-.136.4,1.705,1.705,0,0,1-.487.358,1.105,1.105,0,0,1-.806.143,1.128,1.128,0,0,1-.533-.624L28.9-5.759,26.364-.429a1.144,1.144,0,0,1-.539.6,1.15,1.15,0,0,1-.8-.137,1.552,1.552,0,0,1-.488-.345A.57.57,0,0,1,24.4-.722a1.438,1.438,0,0,1,.182-.565L28-8.4a1.012,1.012,0,0,1,.384-.416.991.991,0,0,1,.526-.156.924.924,0,0,1,.364.072,1.012,1.012,0,0,1,.306.2,1.114,1.114,0,0,1,.228.312ZM26.715-2l.806-1.677H30.29L31.1-2ZM34.879.117a1.2,1.2,0,0,1-.663-.143.6.6,0,0,1-.26-.37A2.184,2.184,0,0,1,33.9-.884V-8.021a1.874,1.874,0,0,1,.052-.455.571.571,0,0,1,.267-.345,1.343,1.343,0,0,1,.7-.136,1.352,1.352,0,0,1,.65.111,1.137,1.137,0,0,1,.325.305l3.8,5.213V-8.021a1.676,1.676,0,0,1,.058-.455.6.6,0,0,1,.267-.345,1.273,1.273,0,0,1,.676-.136,1.221,1.221,0,0,1,.682.143.583.583,0,0,1,.247.37,2.415,2.415,0,0,1,.046.475v7.1a2.123,2.123,0,0,1-.052.475.6.6,0,0,1-.26.37,1.256,1.256,0,0,1-.689.143A1.924,1.924,0,0,1,40.1.052a.711.711,0,0,1-.345-.247L35.88-5.447V-.871a2.123,2.123,0,0,1-.052.475.6.6,0,0,1-.26.37A1.256,1.256,0,0,1,34.879.117Zm15.327.1a4.335,4.335,0,0,1-1.781-.364,4.462,4.462,0,0,1-1.437-1.014,4.685,4.685,0,0,1-.962-1.521,5.079,5.079,0,0,1-.344-1.885,4.52,4.52,0,0,1,.351-1.787,4.468,4.468,0,0,1,.975-1.443,4.455,4.455,0,0,1,1.469-.962,4.986,4.986,0,0,1,1.833-.358,5.2,5.2,0,0,1,.865.078,5.427,5.427,0,0,1,.9.234,3.329,3.329,0,0,1,.767.377,3.329,3.329,0,0,1,.462.357.594.594,0,0,1,.2.449.626.626,0,0,1-.052.293,1.687,1.687,0,0,1-.182.332,1.567,1.567,0,0,1-.41.429.73.73,0,0,1-.4.13.616.616,0,0,1-.247-.065,3.523,3.523,0,0,1-.39-.221,1.836,1.836,0,0,0-.364-.169,4.489,4.489,0,0,0-.566-.163,2.988,2.988,0,0,0-.656-.071,2.642,2.642,0,0,0-1.326.332A2.388,2.388,0,0,0,48-5.876a2.794,2.794,0,0,0-.345,1.352,2.968,2.968,0,0,0,.351,1.4,2.594,2.594,0,0,0,.929.982,2.467,2.467,0,0,0,1.32.364q.26,0,.526-.026a4.066,4.066,0,0,0,.52-.085,2.621,2.621,0,0,0,.462-.15V-3.627H50.375a1.835,1.835,0,0,1-.4-.039.445.445,0,0,1-.286-.221,1.207,1.207,0,0,1-.111-.6,1.112,1.112,0,0,1,.117-.591A.475.475,0,0,1,50-5.291a1.953,1.953,0,0,1,.4-.039h2.457a1.059,1.059,0,0,1,.611.156.635.635,0,0,1,.234.357,1.955,1.955,0,0,1,.052.462v2.834a1,1,0,0,1-.286.643,2.474,2.474,0,0,1-.78.579,3.4,3.4,0,0,1-.709.279,6.817,6.817,0,0,1-.838.176A6.435,6.435,0,0,1,50.206.221Zm5.707-.1a1.225,1.225,0,0,1-.676-.143A.579.579,0,0,1,54.983-.4a2.515,2.515,0,0,1-.045-.481V-7.995a2.318,2.318,0,0,1,.045-.468.575.575,0,0,1,.254-.364,1.256,1.256,0,0,1,.689-.143h2.7a3.3,3.3,0,0,1,1.092.195,3.159,3.159,0,0,1,1.027.6,3.021,3.021,0,0,1,.754,1,3.255,3.255,0,0,1,.286,1.417,3.429,3.429,0,0,1-.162,1.053,3.114,3.114,0,0,1-.487.936,3.052,3.052,0,0,1-.806.734,3.294,3.294,0,0,1-1.105.435H56.914V-.871a2.123,2.123,0,0,1-.052.475.6.6,0,0,1-.26.37A1.256,1.256,0,0,1,55.913.117ZM61.4-.143a1.013,1.013,0,0,1-.767.28,1.179,1.179,0,0,1-.6-.513L57.746-3.653l2.223-.286,1.677,2.405A1.765,1.765,0,0,1,61.925-1a.505.505,0,0,1-.065.416A1.816,1.816,0,0,1,61.4-.143ZM56.914-4.55h1.807a1.093,1.093,0,0,0,.377-.072,1.05,1.05,0,0,0,.351-.214,1.119,1.119,0,0,0,.26-.377,1.369,1.369,0,0,0,.1-.559,1.334,1.334,0,0,0-.15-.65,1.044,1.044,0,0,0-.423-.422,1.306,1.306,0,0,0-.637-.15h-1.69ZM70.759-1.261a1.535,1.535,0,0,1,.169.553.552.552,0,0,1-.137.4A1.705,1.705,0,0,1,70.3.052,1.105,1.105,0,0,1,69.5.195a1.128,1.128,0,0,1-.533-.624l-2.548-5.33L63.882-.429a1.144,1.144,0,0,1-.54.6,1.15,1.15,0,0,1-.8-.137,1.552,1.552,0,0,1-.487-.345.57.57,0,0,1-.137-.416,1.438,1.438,0,0,1,.182-.565L65.52-8.4a1.013,1.013,0,0,1,.383-.416.991.991,0,0,1,.527-.156.924.924,0,0,1,.364.072,1.012,1.012,0,0,1,.306.2,1.114,1.114,0,0,1,.227.312ZM64.233-2l.806-1.677h2.769L68.614-2ZM75.777-8.983a1.927,1.927,0,0,1,.4.039.5.5,0,0,1,.306.214,1.1,1.1,0,0,1,.123.6,1.068,1.068,0,0,1-.123.585.494.494,0,0,1-.319.221,2.119,2.119,0,0,1-.416.039H73.658V-.845a2.318,2.318,0,0,1-.045.468.581.581,0,0,1-.247.364,1.221,1.221,0,0,1-.683.143,1.225,1.225,0,0,1-.676-.143.552.552,0,0,1-.247-.371,2.8,2.8,0,0,1-.039-.474V-7.28H69.6a1.768,1.768,0,0,1-.4-.045.5.5,0,0,1-.312-.221,1.112,1.112,0,0,1-.117-.591,1.112,1.112,0,0,1,.117-.592.477.477,0,0,1,.312-.214,2.05,2.05,0,0,1,.4-.039ZM78.26.13a1.225,1.225,0,0,1-.676-.143A.579.579,0,0,1,77.33-.39a2.514,2.514,0,0,1-.046-.481V-7.982a2.386,2.386,0,0,1,.046-.481.575.575,0,0,1,.254-.364,1.256,1.256,0,0,1,.689-.143,1.252,1.252,0,0,1,.7.143.581.581,0,0,1,.247.364,2.458,2.458,0,0,1,.046.494V-.858a2.123,2.123,0,0,1-.052.474.61.61,0,0,1-.254.371A1.252,1.252,0,0,1,78.26.13Zm4.914.117a3.854,3.854,0,0,1-1.2-.169A3.538,3.538,0,0,1,81.1-.331a2.982,2.982,0,0,1-.565-.475,3.679,3.679,0,0,1-.286-.351,1.416,1.416,0,0,1-.273-.5.622.622,0,0,1,.059-.435,1.834,1.834,0,0,1,.383-.481.933.933,0,0,1,.514-.254.775.775,0,0,1,.474.124,1.926,1.926,0,0,1,.455.4,1.954,1.954,0,0,0,.618.527,1.446,1.446,0,0,0,.644.15,2.23,2.23,0,0,0,.728-.1.883.883,0,0,0,.455-.331,1,1,0,0,0,.156-.579.567.567,0,0,0-.215-.462,1.957,1.957,0,0,0-.572-.305q-.358-.13-.793-.254t-.865-.292a3.4,3.4,0,0,1-.572-.26,4.2,4.2,0,0,1-.52-.351,1.9,1.9,0,0,1-.423-.468,2.269,2.269,0,0,1-.273-.624,3.02,3.02,0,0,1-.1-.806,2.505,2.505,0,0,1,.377-1.365,2.629,2.629,0,0,1,1.047-.942,3.32,3.32,0,0,1,1.54-.345,4.43,4.43,0,0,1,1.021.1,3.72,3.72,0,0,1,.734.247,2.637,2.637,0,0,1,.475.28,1.68,1.68,0,0,1,.241.215,1.165,1.165,0,0,1,.4.578,1.018,1.018,0,0,1-.273.669,1.089,1.089,0,0,1-.644.507,1.019,1.019,0,0,1-.721-.221q-.156-.143-.312-.26a1.3,1.3,0,0,0-.37-.188,1.833,1.833,0,0,0-.565-.072,1.267,1.267,0,0,0-.39.059.968.968,0,0,0-.312.162.787.787,0,0,0-.208.253.706.706,0,0,0-.078.332.617.617,0,0,0,.2.481,1.485,1.485,0,0,0,.533.293q.332.11.741.208t.839.228a5.241,5.241,0,0,1,.754.318,2.612,2.612,0,0,1,.65.475,2.144,2.144,0,0,1,.461.715,2.787,2.787,0,0,1,.175,1.053,2.8,2.8,0,0,1-.3,1.339,2.6,2.6,0,0,1-.793.91,3.462,3.462,0,0,1-1.066.513A4.081,4.081,0,0,1,83.174.247Z" transform="translate(33 482)" fill="#99a540"/>
    </g>
    <g id="Grupo_35911" data-name="Grupo 35911">
      <path id="Trazado_112531" data-name="Trazado 112531" d="M3.276.192A2.883,2.883,0,0,1,1.74-.2,2.516,2.516,0,0,1,.762-1.344,4.405,4.405,0,0,1,.42-3.168,6.679,6.679,0,0,1,.63-4.884a5.012,5.012,0,0,1,.612-1.422A4.238,4.238,0,0,1,2.214-7.38a4.319,4.319,0,0,1,1.278-.684A4.756,4.756,0,0,1,5.028-8.3a1.271,1.271,0,0,1,.342.042.421.421,0,0,1,.246.2.969.969,0,0,1,.1.492.921.921,0,0,1-.1.492.419.419,0,0,1-.264.192,1.694,1.694,0,0,1-.366.036A3.372,3.372,0,0,0,3.912-6.7a2.985,2.985,0,0,0-.828.42,2.611,2.611,0,0,0-.6.606,2.64,2.64,0,0,0-.36.72,2.765,2.765,0,0,0-.132.75l-.168.072a.9.9,0,0,1,.288-.384,1.723,1.723,0,0,1,.546-.294,2.173,2.173,0,0,1,.714-.114A2.7,2.7,0,0,1,4.71-4.6a2.431,2.431,0,0,1,.918.882A2.383,2.383,0,0,1,5.964-2.46a2.713,2.713,0,0,1-.342,1.368,2.466,2.466,0,0,1-.948.942A2.8,2.8,0,0,1,3.276.192ZM3.228-1.164a1.557,1.557,0,0,0,.714-.15,1.017,1.017,0,0,0,.444-.426,1.363,1.363,0,0,0,.15-.66,1.319,1.319,0,0,0-.144-.63,1,1,0,0,0-.426-.42A1.4,1.4,0,0,0,3.3-3.6a1.672,1.672,0,0,0-.732.15,1.1,1.1,0,0,0-.474.414,1.146,1.146,0,0,0-.162.612,1.435,1.435,0,0,0,.15.672,1.007,1.007,0,0,0,.438.438A1.519,1.519,0,0,0,3.228-1.164ZM9.84.216A2.963,2.963,0,0,1,8.6-.024a2.566,2.566,0,0,1-.888-.654,3.3,3.3,0,0,1-.576-.96,5.4,5.4,0,0,1-.312-1.17,8.434,8.434,0,0,1-.1-1.284,7.964,7.964,0,0,1,.1-1.236,5.659,5.659,0,0,1,.306-1.158,3.363,3.363,0,0,1,.57-.972,2.577,2.577,0,0,1,.882-.672,2.86,2.86,0,0,1,1.23-.246,2.778,2.778,0,0,1,1.194.24,2.516,2.516,0,0,1,.864.66,3.438,3.438,0,0,1,.57.972,5.53,5.53,0,0,1,.312,1.17,8.157,8.157,0,0,1,.1,1.254,8.354,8.354,0,0,1-.1,1.272,5.4,5.4,0,0,1-.312,1.17,3.372,3.372,0,0,1-.57.96,2.566,2.566,0,0,1-.858.654A2.708,2.708,0,0,1,9.84.216ZM9.78-1.26a1.354,1.354,0,0,0,.792-.21,1.493,1.493,0,0,0,.474-.546,2.6,2.6,0,0,0,.246-.72,5.526,5.526,0,0,0,.09-.726Q11.4-3.8,11.4-4.02v-.072a5.7,5.7,0,0,0-.18-1.536,2.052,2.052,0,0,0-.534-.966,1.244,1.244,0,0,0-.882-.33,1.3,1.3,0,0,0-.912.33,1.984,1.984,0,0,0-.534.96A5.926,5.926,0,0,0,8.184-4.08a5.633,5.633,0,0,0,.18,1.53,2.05,2.05,0,0,0,.534.96A1.244,1.244,0,0,0,9.78-1.26ZM17.448.12a.86.86,0,0,1-.474-.1.426.426,0,0,1-.186-.27,1.716,1.716,0,0,1-.036-.36V-5.1a1.551,1.551,0,0,1,.036-.348A.4.4,0,0,1,16.98-5.7a.969.969,0,0,1,.492-.1.754.754,0,0,1,.51.144.581.581,0,0,1,.162.456l-.108.336a1.136,1.136,0,0,1,.2-.288,2.55,2.55,0,0,1,.354-.312,1.849,1.849,0,0,1,.474-.252,1.6,1.6,0,0,1,.552-.1,1.938,1.938,0,0,1,.726.132,1.781,1.781,0,0,1,.588.384,2.475,2.475,0,0,1,.45.612,3.75,3.75,0,0,1,.456-.57,1.892,1.892,0,0,1,.588-.408,1.835,1.835,0,0,1,.756-.15,1.923,1.923,0,0,1,1.17.348,2.138,2.138,0,0,1,.72.99,4.276,4.276,0,0,1,.246,1.53V-.612a1.461,1.461,0,0,1-.042.366.45.45,0,0,1-.192.264.888.888,0,0,1-.486.1.879.879,0,0,1-.492-.108.441.441,0,0,1-.192-.27,1.694,1.694,0,0,1-.036-.366V-2.952a2.437,2.437,0,0,0-.108-.768,1.106,1.106,0,0,0-.318-.5.81.81,0,0,0-.546-.18,1.079,1.079,0,0,0-.618.174,1.141,1.141,0,0,0-.4.5,1.946,1.946,0,0,0-.144.792V-.6a1.152,1.152,0,0,1-.06.378.459.459,0,0,1-.234.264.951.951,0,0,1-.5.066.763.763,0,0,1-.438-.12.435.435,0,0,1-.168-.27,1.876,1.876,0,0,1-.03-.342V-2.952a2.494,2.494,0,0,0-.108-.774,1.064,1.064,0,0,0-.318-.5.847.847,0,0,0-.558-.174,1.026,1.026,0,0,0-.63.192,1.183,1.183,0,0,0-.39.516,1.96,1.96,0,0,0-.132.744V-.6a1.481,1.481,0,0,1-.042.36.427.427,0,0,1-.192.264A.964.964,0,0,1,17.448.12Zm9.78,0a.892.892,0,0,1-.48-.1.419.419,0,0,1-.192-.264,1.694,1.694,0,0,1-.036-.366V-5.076a1.408,1.408,0,0,1,.042-.354.426.426,0,0,1,.192-.258.934.934,0,0,1,.486-.1.934.934,0,0,1,.486.1.4.4,0,0,1,.186.264,1.779,1.779,0,0,1,.036.372V-.6a1.694,1.694,0,0,1-.036.366.4.4,0,0,1-.186.258A.964.964,0,0,1,27.228.12Zm0-7.068a.985.985,0,0,1-.51-.1.442.442,0,0,1-.2-.282,1.743,1.743,0,0,1-.042-.4,1.647,1.647,0,0,1,.042-.4.435.435,0,0,1,.21-.27,1.02,1.02,0,0,1,.516-.1.935.935,0,0,1,.516.108.5.5,0,0,1,.2.282,1.517,1.517,0,0,1,.048.4,1.485,1.485,0,0,1-.048.384.448.448,0,0,1-.2.276A1.064,1.064,0,0,1,27.228-6.948ZM29.9.108a.86.86,0,0,1-.474-.1.424.424,0,0,1-.186-.264,1.694,1.694,0,0,1-.036-.366V-5.112a1.551,1.551,0,0,1,.036-.348.377.377,0,0,1,.192-.246.991.991,0,0,1,.48-.09,1,1,0,0,1,.432.072.386.386,0,0,1,.192.18.613.613,0,0,1,.054.216,1.265,1.265,0,0,0,.018.168l-.048.384a1.133,1.133,0,0,1,.24-.372,2.013,2.013,0,0,1,.408-.33,2.3,2.3,0,0,1,.522-.24,1.9,1.9,0,0,1,.582-.09,2.388,2.388,0,0,1,1.008.2,2.2,2.2,0,0,1,.762.576,2.584,2.584,0,0,1,.486.882A3.652,3.652,0,0,1,34.74-3V-.612a1.461,1.461,0,0,1-.042.366.432.432,0,0,1-.186.258.929.929,0,0,1-.492.1.921.921,0,0,1-.492-.1.419.419,0,0,1-.192-.264A1.694,1.694,0,0,1,33.3-.624V-3.012a1.7,1.7,0,0,0-.15-.744,1.1,1.1,0,0,0-.432-.48A1.377,1.377,0,0,0,32-4.4a1.479,1.479,0,0,0-.732.174,1.2,1.2,0,0,0-.48.486,1.521,1.521,0,0,0-.168.732v2.4a1.694,1.694,0,0,1-.036.366A.4.4,0,0,1,30.4.012.964.964,0,0,1,29.9.108ZM38.3.12a2.483,2.483,0,0,1-1.014-.2,2.459,2.459,0,0,1-.81-.576,2.62,2.62,0,0,1-.54-.888,3.247,3.247,0,0,1-.192-1.14V-5.076a1.694,1.694,0,0,1,.036-.366.4.4,0,0,1,.192-.258.938.938,0,0,1,.48-.1.964.964,0,0,1,.5.1.4.4,0,0,1,.186.264,1.779,1.779,0,0,1,.036.372v2.376a1.7,1.7,0,0,0,.15.744,1.122,1.122,0,0,0,.438.486,1.346,1.346,0,0,0,.708.174,1.47,1.47,0,0,0,.738-.174,1.2,1.2,0,0,0,.474-.492,1.557,1.557,0,0,0,.168-.738v-2.4a1.694,1.694,0,0,1,.036-.366.378.378,0,0,1,.192-.252,1.024,1.024,0,0,1,.492-.09.9.9,0,0,1,.48.1.433.433,0,0,1,.186.264,1.481,1.481,0,0,1,.042.36v4.5a1.289,1.289,0,0,1-.042.336.425.425,0,0,1-.192.252.934.934,0,0,1-.486.1,1.067,1.067,0,0,1-.378-.054.446.446,0,0,1-.2-.144.456.456,0,0,1-.084-.186,1.04,1.04,0,0,1-.018-.192l.1-.324a1.981,1.981,0,0,1-.216.258,2.521,2.521,0,0,1-.354.3,2.06,2.06,0,0,1-.486.252A1.754,1.754,0,0,1,38.3.12Zm7.02,0A3.7,3.7,0,0,1,44.316,0a1.612,1.612,0,0,1-.684-.372,1.506,1.506,0,0,1-.39-.654,3.206,3.206,0,0,1-.126-.954V-7.068a1.444,1.444,0,0,1,.042-.372.4.4,0,0,1,.192-.246.954.954,0,0,1,.474-.09.934.934,0,0,1,.486.1.426.426,0,0,1,.192.258,1.408,1.408,0,0,1,.042.354v5.04a1.616,1.616,0,0,0,.042.408.457.457,0,0,0,.132.234.513.513,0,0,0,.24.108,1.9,1.9,0,0,0,.366.03,1.824,1.824,0,0,1,.39.036.37.37,0,0,1,.246.174.9.9,0,0,1,.084.45.888.888,0,0,1-.1.486.424.424,0,0,1-.264.186A1.632,1.632,0,0,1,45.324.12Zm-2.7-5.8,1.236.012,1.656-.048a1.461,1.461,0,0,1,.366.042.426.426,0,0,1,.258.192.934.934,0,0,1,.1.486.909.909,0,0,1-.1.468.421.421,0,0,1-.252.2,1.39,1.39,0,0,1-.36.042L43.92-4.308,42.588-4.3a.5.5,0,0,1-.414-.174A.954.954,0,0,1,42.06-5a.777.777,0,0,1,.138-.51A.529.529,0,0,1,42.624-5.676ZM49.836.2a2.886,2.886,0,0,1-1.122-.228A3.3,3.3,0,0,1,47.73-.66a3.082,3.082,0,0,1-.7-.96,2.827,2.827,0,0,1-.258-1.212,2.947,2.947,0,0,1,.24-1.188,3.122,3.122,0,0,1,.66-.972,3.057,3.057,0,0,1,.966-.654,2.938,2.938,0,0,1,1.17-.234,2.952,2.952,0,0,1,1.524.4,3.055,3.055,0,0,1,1.092,1.086,2.963,2.963,0,0,1,.408,1.548A2.984,2.984,0,0,1,52.584-1.6a2.959,2.959,0,0,1-.684.96,3.227,3.227,0,0,1-.966.624A2.835,2.835,0,0,1,49.836.2Zm-.024-1.428a1.581,1.581,0,0,0,.762-.2,1.6,1.6,0,0,0,.6-.57,1.611,1.611,0,0,0,.234-.876A1.613,1.613,0,0,0,51.2-3.7a1.513,1.513,0,0,0-.57-.564,1.65,1.65,0,0,0-.828-.2,1.566,1.566,0,0,0-.8.21,1.545,1.545,0,0,0-.57.576,1.622,1.622,0,0,0-.21.822,1.612,1.612,0,0,0,.228.87,1.574,1.574,0,0,0,.594.564A1.6,1.6,0,0,0,49.812-1.224ZM55.776.192a3.547,3.547,0,0,1-.66-.066,3.807,3.807,0,0,1-.672-.192,2.37,2.37,0,0,1-.558-.3.743.743,0,0,1-.294-.39.487.487,0,0,1-.036-.234.742.742,0,0,1,.072-.24,1.083,1.083,0,0,1,.18-.258.375.375,0,0,1,.222-.15.5.5,0,0,1,.294.078,3.471,3.471,0,0,1,.342.156q.186.1.384.192a2.521,2.521,0,0,0,.408.156,1.5,1.5,0,0,0,.414.06,1.432,1.432,0,0,0,.708-.15.468.468,0,0,0,.264-.426.469.469,0,0,0-.084-.276.666.666,0,0,0-.222-.2,2.061,2.061,0,0,0-.324-.144q-.186-.066-.4-.12t-.438-.126a5.9,5.9,0,0,1-.6-.2,2.015,2.015,0,0,1-.534-.312,1.45,1.45,0,0,1-.378-.48,1.6,1.6,0,0,1-.144-.72,1.589,1.589,0,0,1,.258-.918,1.637,1.637,0,0,1,.75-.582,3.1,3.1,0,0,1,1.188-.2,2.883,2.883,0,0,1,.462.036,3.087,3.087,0,0,1,.432.1,2.986,2.986,0,0,1,.408.162,3.187,3.187,0,0,1,.378.216.507.507,0,0,1,.312.39.755.755,0,0,1-.168.474.817.817,0,0,1-.264.234.318.318,0,0,1-.276.006l-.414-.21a3.83,3.83,0,0,0-.456-.2,1.428,1.428,0,0,0-.486-.084,1.223,1.223,0,0,0-.432.072.607.607,0,0,0-.288.2.516.516,0,0,0-.1.312.4.4,0,0,0,.1.276.754.754,0,0,0,.252.18,2.121,2.121,0,0,0,.372.126q.216.054.456.1.336.072.684.18a2.549,2.549,0,0,1,.642.3,1.453,1.453,0,0,1,.474.51,1.657,1.657,0,0,1,.18.822,1.594,1.594,0,0,1-.642,1.356A2.9,2.9,0,0,1,55.776.192Z" transform="translate(135 448)" fill="#4d4d4d"/>
      <path id="Trazado_112532" data-name="Trazado 112532" d="M3.432.132A.752.752,0,0,1,2.88-.03.817.817,0,0,1,2.724-.6V-7.56a.772.772,0,0,1,.156-.552.793.793,0,0,1,.564-.156A.752.752,0,0,1,4-8.106a.817.817,0,0,1,.156.57V-.588A.8.8,0,0,1,4-.03.772.772,0,0,1,3.432.132ZM1.584-5.136a.751.751,0,0,1-.492.246.743.743,0,0,1-.48-.294A.713.713,0,0,1,.378-5.7a.832.832,0,0,1,.33-.516L2.76-8.028a.71.71,0,0,1,.5-.222.775.775,0,0,1,.474.294.678.678,0,0,1,.24.516.856.856,0,0,1-.348.516ZM8.124.216a2.963,2.963,0,0,1-1.236-.24A2.566,2.566,0,0,1,6-.678a3.3,3.3,0,0,1-.576-.96,5.4,5.4,0,0,1-.312-1.17,8.434,8.434,0,0,1-.1-1.284,7.964,7.964,0,0,1,.1-1.236,5.659,5.659,0,0,1,.306-1.158,3.363,3.363,0,0,1,.57-.972A2.577,2.577,0,0,1,6.87-8.13,2.86,2.86,0,0,1,8.1-8.376a2.778,2.778,0,0,1,1.194.24,2.516,2.516,0,0,1,.864.66,3.438,3.438,0,0,1,.57.972,5.53,5.53,0,0,1,.312,1.17,8.157,8.157,0,0,1,.1,1.254,8.354,8.354,0,0,1-.1,1.272,5.4,5.4,0,0,1-.312,1.17,3.372,3.372,0,0,1-.57.96A2.566,2.566,0,0,1,9.3-.024,2.708,2.708,0,0,1,8.124.216ZM8.064-1.26a1.354,1.354,0,0,0,.792-.21,1.493,1.493,0,0,0,.474-.546,2.6,2.6,0,0,0,.246-.72,5.526,5.526,0,0,0,.09-.726q.018-.342.018-.558v-.072A5.7,5.7,0,0,0,9.5-5.628a2.052,2.052,0,0,0-.534-.966,1.244,1.244,0,0,0-.882-.33,1.3,1.3,0,0,0-.912.33,1.984,1.984,0,0,0-.534.96A5.926,5.926,0,0,0,6.468-4.08a5.633,5.633,0,0,0,.18,1.53,2.05,2.05,0,0,0,.534.96A1.244,1.244,0,0,0,8.064-1.26Zm9.6,1.5A3.246,3.246,0,0,1,16.686.1a3.4,3.4,0,0,1-.768-.342,3.438,3.438,0,0,1-.558-.42,1.966,1.966,0,0,1-.336-.4,1.292,1.292,0,0,1-.2-.384.451.451,0,0,1,.03-.33,1.092,1.092,0,0,1,.294-.342.664.664,0,0,1,.4-.2.591.591,0,0,1,.36.114,1.584,1.584,0,0,1,.342.336,1.684,1.684,0,0,0,.648.546,1.742,1.742,0,0,0,.72.162,2.4,2.4,0,0,0,.816-.126,1.189,1.189,0,0,0,.546-.378,1.018,1.018,0,0,0,.2-.648.747.747,0,0,0-.2-.534,1.673,1.673,0,0,0-.522-.36,6.01,6.01,0,0,0-.726-.276q-.4-.126-.81-.282a4.971,4.971,0,0,1-.576-.234,3.361,3.361,0,0,1-.534-.318,2.076,2.076,0,0,1-.432-.426,1.969,1.969,0,0,1-.294-.57,2.393,2.393,0,0,1-.108-.756,2.179,2.179,0,0,1,.336-1.206,2.36,2.36,0,0,1,.936-.828A2.969,2.969,0,0,1,17.616-8.4a3.936,3.936,0,0,1,.882.09,3.14,3.14,0,0,1,.672.228,3.015,3.015,0,0,1,.468.276,1.786,1.786,0,0,1,.27.234.973.973,0,0,1,.306.462.717.717,0,0,1-.222.5.806.806,0,0,1-.486.354.736.736,0,0,1-.522-.186,2.169,2.169,0,0,0-.384-.33,1.407,1.407,0,0,0-.426-.186,2.328,2.328,0,0,0-.57-.06,1.613,1.613,0,0,0-.462.066,1.087,1.087,0,0,0-.378.192.915.915,0,0,0-.246.306.9.9,0,0,0-.09.408.744.744,0,0,0,.174.51,1.275,1.275,0,0,0,.474.324,6.217,6.217,0,0,0,.672.234q.372.108.756.228a7.2,7.2,0,0,1,.78.312,2.777,2.777,0,0,1,.684.45,1.976,1.976,0,0,1,.48.672,2.386,2.386,0,0,1,.18.978,2.5,2.5,0,0,1-.252,1.152,2.227,2.227,0,0,1-.684.8,3.151,3.151,0,0,1-.96.468A3.751,3.751,0,0,1,17.664.24ZM22.332.12a.864.864,0,0,1-.468-.1.444.444,0,0,1-.2-.27,1.534,1.534,0,0,1-.042-.372V-7.548a1.408,1.408,0,0,1,.042-.354.444.444,0,0,1,.2-.264.921.921,0,0,1,.492-.1,1.761,1.761,0,0,1,.378.03.536.536,0,0,1,.2.084.918.918,0,0,1,.144.138L26-3.924h-.276l2.94-4.1a.673.673,0,0,1,.168-.144.683.683,0,0,1,.216-.072,2.022,2.022,0,0,1,.348-.024.892.892,0,0,1,.48.1.444.444,0,0,1,.2.27,1.534,1.534,0,0,1,.042.372V-.6a1.429,1.429,0,0,1-.042.348.444.444,0,0,1-.2.27.921.921,0,0,1-.492.1.852.852,0,0,1-.48-.108.468.468,0,0,1-.2-.276,1.481,1.481,0,0,1-.042-.36V-5.772L26.484-2.616q-.036.048-.108.126a.659.659,0,0,1-.192.138.732.732,0,0,1-.324.06.7.7,0,0,1-.312-.06.635.635,0,0,1-.186-.132q-.066-.072-.126-.144L23.064-5.772V-.6a1.429,1.429,0,0,1-.042.348.444.444,0,0,1-.2.27A.921.921,0,0,1,22.332.12ZM33.984.24A3.246,3.246,0,0,1,33.006.1a3.4,3.4,0,0,1-.768-.342,3.438,3.438,0,0,1-.558-.42,1.966,1.966,0,0,1-.336-.4,1.292,1.292,0,0,1-.2-.384.451.451,0,0,1,.03-.33,1.092,1.092,0,0,1,.294-.342.664.664,0,0,1,.4-.2.591.591,0,0,1,.36.114,1.584,1.584,0,0,1,.342.336,1.683,1.683,0,0,0,.648.546,1.742,1.742,0,0,0,.72.162,2.4,2.4,0,0,0,.816-.126,1.189,1.189,0,0,0,.546-.378,1.018,1.018,0,0,0,.2-.648.747.747,0,0,0-.2-.534,1.673,1.673,0,0,0-.522-.36,6.01,6.01,0,0,0-.726-.276q-.4-.126-.81-.282a4.971,4.971,0,0,1-.576-.234,3.361,3.361,0,0,1-.534-.318,2.076,2.076,0,0,1-.432-.426A1.969,1.969,0,0,1,31.4-5.3,2.393,2.393,0,0,1,31.3-6.06a2.179,2.179,0,0,1,.336-1.206,2.36,2.36,0,0,1,.936-.828A2.969,2.969,0,0,1,33.936-8.4a3.936,3.936,0,0,1,.882.09,3.14,3.14,0,0,1,.672.228,3.015,3.015,0,0,1,.468.276,1.786,1.786,0,0,1,.27.234.973.973,0,0,1,.306.462.717.717,0,0,1-.222.5.806.806,0,0,1-.486.354.736.736,0,0,1-.522-.186,2.169,2.169,0,0,0-.384-.33,1.407,1.407,0,0,0-.426-.186,2.328,2.328,0,0,0-.57-.06,1.613,1.613,0,0,0-.462.066,1.087,1.087,0,0,0-.378.192.915.915,0,0,0-.246.306.9.9,0,0,0-.09.408.744.744,0,0,0,.174.51,1.275,1.275,0,0,0,.474.324,6.217,6.217,0,0,0,.672.234q.372.108.756.228a7.2,7.2,0,0,1,.78.312,2.777,2.777,0,0,1,.684.45,1.976,1.976,0,0,1,.48.672,2.386,2.386,0,0,1,.18.978A2.5,2.5,0,0,1,36.7-1.188a2.227,2.227,0,0,1-.684.8,3.151,3.151,0,0,1-.96.468A3.751,3.751,0,0,1,33.984.24Z" transform="translate(135 466)" fill="#4d4d4d"/>
      <path id="Trazado_112533" data-name="Trazado 112533" d="M1.38.12a.864.864,0,0,1-.468-.1.444.444,0,0,1-.2-.27A1.534,1.534,0,0,1,.672-.624V-7.548A1.408,1.408,0,0,1,.714-7.9a.444.444,0,0,1,.2-.264.921.921,0,0,1,.492-.1,1.761,1.761,0,0,1,.378.03.536.536,0,0,1,.2.084.918.918,0,0,1,.144.138L5.052-3.924H4.776l2.94-4.1a.673.673,0,0,1,.168-.144A.683.683,0,0,1,8.1-8.244a2.022,2.022,0,0,1,.348-.024.892.892,0,0,1,.48.1.444.444,0,0,1,.2.27,1.534,1.534,0,0,1,.042.372V-.6a1.429,1.429,0,0,1-.042.348.444.444,0,0,1-.2.27.921.921,0,0,1-.492.1.852.852,0,0,1-.48-.108.468.468,0,0,1-.2-.276,1.481,1.481,0,0,1-.042-.36V-5.772L5.532-2.616q-.036.048-.108.126a.659.659,0,0,1-.192.138.732.732,0,0,1-.324.06.7.7,0,0,1-.312-.06.635.635,0,0,1-.186-.132q-.066-.072-.126-.144L2.112-5.772V-.6a1.429,1.429,0,0,1-.042.348.444.444,0,0,1-.2.27A.921.921,0,0,1,1.38.12ZM13.26.2A3.336,3.336,0,0,1,11.9-.054a2.8,2.8,0,0,1-.972-.7,3.011,3.011,0,0,1-.588-.984,3.3,3.3,0,0,1-.2-1.134,2.968,2.968,0,0,1,.4-1.536,2.817,2.817,0,0,1,1.1-1.056,3.309,3.309,0,0,1,1.614-.384,2.959,2.959,0,0,1,1.14.2,2.5,2.5,0,0,1,.822.534,2.376,2.376,0,0,1,.5.726,1.9,1.9,0,0,1,.174.768,1.219,1.219,0,0,1-.306.924,1.069,1.069,0,0,1-.762.288H11.652a1.137,1.137,0,0,0,.258.708,1.614,1.614,0,0,0,.624.462,1.947,1.947,0,0,0,.774.162,3.542,3.542,0,0,0,.534-.036,2.643,2.643,0,0,0,.4-.09,2.387,2.387,0,0,0,.294-.114q.126-.06.234-.108a.728.728,0,0,1,.2-.06.457.457,0,0,1,.264.06.527.527,0,0,1,.216.252.973.973,0,0,1,.1.222.7.7,0,0,1,.03.2.577.577,0,0,1-.288.45,2.525,2.525,0,0,1-.81.354A4.657,4.657,0,0,1,13.26.2ZM11.652-3.252h2.46a.6.6,0,0,0,.312-.066q.108-.066.108-.282a.8.8,0,0,0-.168-.5,1.121,1.121,0,0,0-.456-.348,1.665,1.665,0,0,0-.672-.126,1.823,1.823,0,0,0-.8.174,1.449,1.449,0,0,0-.57.474A1.145,1.145,0,0,0,11.652-3.252Zm9.984-2.376a1.123,1.123,0,0,1,.294.36.4.4,0,0,1,0,.318,1.463,1.463,0,0,1-.27.39l-3.8,4.4a1.4,1.4,0,0,1-.36.294.375.375,0,0,1-.306.024,1.183,1.183,0,0,1-.354-.234,1.4,1.4,0,0,1-.276-.354.356.356,0,0,1,.006-.318,1.666,1.666,0,0,1,.27-.384l3.8-4.4a.966.966,0,0,1,.5-.348A.7.7,0,0,1,21.636-5.628Zm-4.788,0a1.074,1.074,0,0,1,.354-.228.378.378,0,0,1,.3.03,1.3,1.3,0,0,1,.342.294l3.8,4.4a1.4,1.4,0,0,1,.276.384.4.4,0,0,1,.012.318,1.066,1.066,0,0,1-.288.354,1.183,1.183,0,0,1-.354.234.361.361,0,0,1-.3-.024,1.636,1.636,0,0,1-.366-.294l-3.8-4.4a1.5,1.5,0,0,1-.264-.384.4.4,0,0,1,0-.33A1.117,1.117,0,0,1,16.848-5.628Zm6.12,6.984-.048-.018a.221.221,0,0,1-.1-.09A.48.48,0,0,1,22.776,1,.415.415,0,0,1,22.848.7a.6.6,0,0,1,.1-.078q.012-.012.168-.132a.559.559,0,0,0,.18-.42A.762.762,0,0,1,23.082,0a.681.681,0,0,1-.162-.12A.478.478,0,0,1,22.788-.4a2.5,2.5,0,0,1-.024-.342,3.646,3.646,0,0,1,.042-.372.449.449,0,0,1,.2-.3,1.033,1.033,0,0,1,.57-.12.9.9,0,0,1,.648.192.478.478,0,0,1,.132.282,2.5,2.5,0,0,1,.024.342q0,.084-.006.168T24.36-.4a2.5,2.5,0,0,1-.246.876,1.9,1.9,0,0,1-.492.636A1.009,1.009,0,0,1,22.968,1.356ZM31.98.192A3.429,3.429,0,0,1,30.486-.12a3.134,3.134,0,0,1-1.1-.858,3.836,3.836,0,0,1-.672-1.248,4.807,4.807,0,0,1-.228-1.494V-7.548a1.461,1.461,0,0,1,.042-.366.45.45,0,0,1,.192-.264.917.917,0,0,1,.5-.1.917.917,0,0,1,.5.1.45.45,0,0,1,.192.264,1.516,1.516,0,0,1,.042.378V-3.72A3.266,3.266,0,0,0,30.174-2.5a2,2,0,0,0,.678.894,1.911,1.911,0,0,0,1.164.336,1.942,1.942,0,0,0,1.092-.3,1.929,1.929,0,0,0,.7-.852,3.194,3.194,0,0,0,.246-1.308V-7.608a1.2,1.2,0,0,1,.042-.336.422.422,0,0,1,.2-.24.969.969,0,0,1,.492-.1.917.917,0,0,1,.5.1.426.426,0,0,1,.186.27,1.779,1.779,0,0,1,.036.372V-3.7A4.807,4.807,0,0,1,35.28-2.2,3.587,3.587,0,0,1,34.6-.966a3.321,3.321,0,0,1-1.11.846A3.459,3.459,0,0,1,31.98.192ZM39.036.24A3.246,3.246,0,0,1,38.058.1,3.4,3.4,0,0,1,37.29-.24a3.437,3.437,0,0,1-.558-.42,1.966,1.966,0,0,1-.336-.4,1.292,1.292,0,0,1-.2-.384.451.451,0,0,1,.03-.33,1.092,1.092,0,0,1,.294-.342.664.664,0,0,1,.4-.2.591.591,0,0,1,.36.114,1.584,1.584,0,0,1,.342.336,1.684,1.684,0,0,0,.648.546,1.742,1.742,0,0,0,.72.162,2.4,2.4,0,0,0,.816-.126,1.189,1.189,0,0,0,.546-.378,1.018,1.018,0,0,0,.2-.648.747.747,0,0,0-.2-.534,1.673,1.673,0,0,0-.522-.36,6.01,6.01,0,0,0-.726-.276q-.4-.126-.81-.282a4.971,4.971,0,0,1-.576-.234,3.361,3.361,0,0,1-.534-.318,2.076,2.076,0,0,1-.432-.426,1.969,1.969,0,0,1-.294-.57,2.393,2.393,0,0,1-.108-.756,2.179,2.179,0,0,1,.336-1.206,2.36,2.36,0,0,1,.936-.828A2.969,2.969,0,0,1,38.988-8.4a3.936,3.936,0,0,1,.882.09,3.139,3.139,0,0,1,.672.228,3.015,3.015,0,0,1,.468.276,1.786,1.786,0,0,1,.27.234.973.973,0,0,1,.306.462.717.717,0,0,1-.222.5.806.806,0,0,1-.486.354.736.736,0,0,1-.522-.186,2.169,2.169,0,0,0-.384-.33,1.407,1.407,0,0,0-.426-.186,2.328,2.328,0,0,0-.57-.06,1.613,1.613,0,0,0-.462.066,1.087,1.087,0,0,0-.378.192.915.915,0,0,0-.246.306.9.9,0,0,0-.09.408.744.744,0,0,0,.174.51,1.275,1.275,0,0,0,.474.324,6.218,6.218,0,0,0,.672.234q.372.108.756.228a7.2,7.2,0,0,1,.78.312,2.777,2.777,0,0,1,.684.45,1.976,1.976,0,0,1,.48.672A2.386,2.386,0,0,1,42-2.34a2.5,2.5,0,0,1-.252,1.152,2.227,2.227,0,0,1-.684.8,3.151,3.151,0,0,1-.96.468A3.751,3.751,0,0,1,39.036.24ZM50.076-.9a.96.96,0,0,1,.126.4.422.422,0,0,1-.1.3,1.229,1.229,0,0,1-.36.258.784.784,0,0,1-.594.1.865.865,0,0,1-.39-.468L46.08-5.964,43.416-.312a.851.851,0,0,1-.4.456.8.8,0,0,1-.6-.1A1.136,1.136,0,0,1,42.066-.2a.406.406,0,0,1-.1-.318,1.34,1.34,0,0,1,.15-.45l3.3-6.876a.742.742,0,0,1,.282-.306.735.735,0,0,1,.39-.114.7.7,0,0,1,.264.048.705.705,0,0,1,.222.144.843.843,0,0,1,.174.24ZM43.944-2.064,44.52-3.3h3.132l.576,1.236Zm11.1,4.56q-.384-.168-.444-.378a.861.861,0,0,1,.108-.57l3.1-6.936a.825.825,0,0,1,.36-.462.828.828,0,0,1,.588.09q.372.168.438.372a.8.8,0,0,1-.09.552L55.98,2.148a.747.747,0,0,1-.348.444A.862.862,0,0,1,55.044,2.5ZM56.16-.456l-2.772-4.26a.766.766,0,0,1-.174-.54.715.715,0,0,1,.378-.42.857.857,0,0,1,.582-.18.788.788,0,0,1,.426.384l2.2,3.42ZM67.008.18A4.119,4.119,0,0,1,65.82,0a4.549,4.549,0,0,1-1.152-.534,4.146,4.146,0,0,1-.978-.876,4.15,4.15,0,0,1-.678-1.212,4.432,4.432,0,0,1-.252-1.53,4.2,4.2,0,0,1,.252-1.494,3.972,3.972,0,0,1,.678-1.17,4.039,4.039,0,0,1,.972-.84,4.624,4.624,0,0,1,1.152-.51,4.7,4.7,0,0,1,1.206-.186,3.731,3.731,0,0,1,1.056.132,3.805,3.805,0,0,1,.72.282q.276.15.372.21a2.975,2.975,0,0,1,.366.27.505.505,0,0,1,.186.366.541.541,0,0,1-.036.258,1.272,1.272,0,0,1-.132.234,1.156,1.156,0,0,1-.288.3.516.516,0,0,1-.288.1.452.452,0,0,1-.246-.072l-.282-.18q-.072-.048-.258-.15a2.318,2.318,0,0,0-.492-.186,2.818,2.818,0,0,0-.738-.084,2.912,2.912,0,0,0-1.008.18,2.661,2.661,0,0,0-.882.534,2.535,2.535,0,0,0-.618.876,2.957,2.957,0,0,0-.228,1.194A2.957,2.957,0,0,0,64.452-2.9a2.535,2.535,0,0,0,.618.876,2.661,2.661,0,0,0,.882.534,2.912,2.912,0,0,0,1.008.18,2.764,2.764,0,0,0,.7-.078,2.288,2.288,0,0,0,.5-.192l.318-.174q.132-.084.252-.156a.482.482,0,0,1,.252-.072.489.489,0,0,1,.282.1,1.024,1.024,0,0,1,.27.312,1.537,1.537,0,0,1,.132.252.538.538,0,0,1,.036.252.505.505,0,0,1-.186.366,2.249,2.249,0,0,1-.366.258q-.1.06-.366.21a3.626,3.626,0,0,1-.714.282A3.78,3.78,0,0,1,67.008.18Zm8.4-.072a.8.8,0,0,1-.516-.138A.45.45,0,0,1,74.724-.4l.084-.4a1.871,1.871,0,0,1-.324.366,2.14,2.14,0,0,1-.6.372,2.248,2.248,0,0,1-.9.162,2.466,2.466,0,0,1-1.062-.234,2.774,2.774,0,0,1-.876-.648,3.235,3.235,0,0,1-.6-.948,2.955,2.955,0,0,1-.222-1.146,2.807,2.807,0,0,1,.222-1.11,3.137,3.137,0,0,1,.606-.93,2.89,2.89,0,0,1,.882-.642,2.44,2.44,0,0,1,1.05-.234,2.324,2.324,0,0,1,.834.132,2.088,2.088,0,0,1,.582.33,2.249,2.249,0,0,1,.4.414l-.072-.348a.49.49,0,0,1,.168-.4A.826.826,0,0,1,75.42-5.8a.856.856,0,0,1,.48.1.434.434,0,0,1,.18.276,1.932,1.932,0,0,1,.036.39V-.636a1.779,1.779,0,0,1-.036.372.426.426,0,0,1-.186.27A.888.888,0,0,1,75.408.108ZM73.2-1.3a1.345,1.345,0,0,0,.732-.2,1.525,1.525,0,0,0,.522-.558,1.582,1.582,0,0,0,.2-.786,1.584,1.584,0,0,0-.2-.816,1.52,1.52,0,0,0-.534-.546,1.407,1.407,0,0,0-.738-.2,1.5,1.5,0,0,0-.792.21,1.508,1.508,0,0,0-.546.564,1.606,1.606,0,0,0-.2.8,1.513,1.513,0,0,0,.2.78A1.508,1.508,0,0,0,72.4-1.5,1.569,1.569,0,0,0,73.2-1.3Zm4.764,1.4a.86.86,0,0,1-.474-.1A.424.424,0,0,1,77.3-.258a1.694,1.694,0,0,1-.036-.366V-5.112A1.551,1.551,0,0,1,77.3-5.46a.377.377,0,0,1,.192-.246.991.991,0,0,1,.48-.09,1,1,0,0,1,.432.072.386.386,0,0,1,.192.18.613.613,0,0,1,.054.216,1.264,1.264,0,0,0,.018.168l-.048.384a1.133,1.133,0,0,1,.24-.372,2.013,2.013,0,0,1,.408-.33,2.3,2.3,0,0,1,.522-.24,1.9,1.9,0,0,1,.582-.09,2.388,2.388,0,0,1,1.008.2,2.2,2.2,0,0,1,.762.576,2.585,2.585,0,0,1,.486.882A3.652,3.652,0,0,1,82.8-3V-.612a1.461,1.461,0,0,1-.042.366.432.432,0,0,1-.186.258.929.929,0,0,1-.492.1.921.921,0,0,1-.492-.1A.419.419,0,0,1,81.4-.258a1.694,1.694,0,0,1-.036-.366V-3.012a1.7,1.7,0,0,0-.15-.744,1.1,1.1,0,0,0-.432-.48,1.377,1.377,0,0,0-.714-.168,1.479,1.479,0,0,0-.732.174,1.2,1.2,0,0,0-.48.486,1.521,1.521,0,0,0-.168.732v2.4a1.694,1.694,0,0,1-.036.366.4.4,0,0,1-.186.258A.964.964,0,0,1,77.964.108Zm10.872,0A.8.8,0,0,1,88.32-.03.45.45,0,0,1,88.152-.4l.084-.4a1.871,1.871,0,0,1-.324.366,2.14,2.14,0,0,1-.6.372,2.248,2.248,0,0,1-.9.162A2.466,2.466,0,0,1,85.35-.126a2.774,2.774,0,0,1-.876-.648,3.235,3.235,0,0,1-.6-.948,2.955,2.955,0,0,1-.222-1.146,2.807,2.807,0,0,1,.222-1.11,3.137,3.137,0,0,1,.606-.93,2.89,2.89,0,0,1,.882-.642,2.44,2.44,0,0,1,1.05-.234,2.324,2.324,0,0,1,.834.132,2.088,2.088,0,0,1,.582.33,2.249,2.249,0,0,1,.4.414l-.072-.348a.49.49,0,0,1,.168-.4.826.826,0,0,1,.528-.138.856.856,0,0,1,.48.1.434.434,0,0,1,.18.276,1.932,1.932,0,0,1,.036.39V-.636a1.779,1.779,0,0,1-.036.372.426.426,0,0,1-.186.27A.888.888,0,0,1,88.836.108ZM86.628-1.3a1.345,1.345,0,0,0,.732-.2,1.525,1.525,0,0,0,.522-.558,1.582,1.582,0,0,0,.2-.786,1.584,1.584,0,0,0-.2-.816,1.52,1.52,0,0,0-.534-.546,1.407,1.407,0,0,0-.738-.2,1.5,1.5,0,0,0-.792.21,1.508,1.508,0,0,0-.546.564,1.606,1.606,0,0,0-.2.8,1.513,1.513,0,0,0,.2.78,1.508,1.508,0,0,0,.558.552A1.569,1.569,0,0,0,86.628-1.3Zm6.6,1.4A2.453,2.453,0,0,1,92.184-.12a2.732,2.732,0,0,1-.864-.63,3.01,3.01,0,0,1-.588-.948,3.151,3.151,0,0,1-.216-1.17A3,3,0,0,1,90.732-4a2.987,2.987,0,0,1,.594-.936,2.8,2.8,0,0,1,.87-.63A2.426,2.426,0,0,1,93.228-5.8a2.276,2.276,0,0,1,1.032.228,2.27,2.27,0,0,1,.774.63A2.89,2.89,0,0,1,95.52-4a4.067,4.067,0,0,1,.18,1.146,3.929,3.929,0,0,1-.162,1.146,2.872,2.872,0,0,1-.48.942,2.288,2.288,0,0,1-.78.642A2.292,2.292,0,0,1,93.228.108Zm.192-1.4a1.429,1.429,0,0,0,.75-.2A1.473,1.473,0,0,0,94.7-2.04a1.573,1.573,0,0,0,.2-.792,1.6,1.6,0,0,0-.2-.8,1.521,1.521,0,0,0-.528-.552,1.4,1.4,0,0,0-.75-.2,1.461,1.461,0,0,0-.756.2,1.446,1.446,0,0,0-.534.552,1.631,1.631,0,0,0-.2.81,1.573,1.573,0,0,0,.2.792,1.444,1.444,0,0,0,.54.546A1.47,1.47,0,0,0,93.42-1.3ZM95.64.12A.809.809,0,0,1,95.148,0a.586.586,0,0,1-.2-.372V-7.764a2.022,2.022,0,0,1,.03-.366.4.4,0,0,1,.18-.264.86.86,0,0,1,.474-.1.929.929,0,0,1,.492.1.432.432,0,0,1,.186.258,1.461,1.461,0,0,1,.042.366V-.624a1.779,1.779,0,0,1-.036.372.426.426,0,0,1-.186.27A.888.888,0,0,1,95.64.12Zm6.684-.012a.8.8,0,0,1-.516-.138A.45.45,0,0,1,101.64-.4l.084-.4a1.871,1.871,0,0,1-.324.366,2.14,2.14,0,0,1-.6.372,2.248,2.248,0,0,1-.9.162,2.466,2.466,0,0,1-1.062-.234,2.774,2.774,0,0,1-.876-.648,3.235,3.235,0,0,1-.6-.948,2.955,2.955,0,0,1-.222-1.146,2.807,2.807,0,0,1,.222-1.11,3.137,3.137,0,0,1,.606-.93,2.89,2.89,0,0,1,.882-.642,2.44,2.44,0,0,1,1.05-.234,2.324,2.324,0,0,1,.834.132,2.088,2.088,0,0,1,.582.33,2.249,2.249,0,0,1,.4.414l-.072-.348a.49.49,0,0,1,.168-.4.826.826,0,0,1,.528-.138.856.856,0,0,1,.48.1.434.434,0,0,1,.18.276,1.932,1.932,0,0,1,.036.39V-.636A1.779,1.779,0,0,1,103-.264a.426.426,0,0,1-.186.27A.888.888,0,0,1,102.324.108Zm-2.208-1.4a1.345,1.345,0,0,0,.732-.2,1.525,1.525,0,0,0,.522-.558,1.582,1.582,0,0,0,.2-.786,1.584,1.584,0,0,0-.2-.816,1.52,1.52,0,0,0-.534-.546,1.407,1.407,0,0,0-.738-.2,1.5,1.5,0,0,0-.792.21,1.508,1.508,0,0,0-.546.564,1.606,1.606,0,0,0-.2.8,1.513,1.513,0,0,0,.2.78,1.508,1.508,0,0,0,.558.552A1.569,1.569,0,0,0,100.116-1.3Zm-.36-5.112a.362.362,0,0,1-.318-.072.813.813,0,0,1-.21-.384.815.815,0,0,1-.042-.51.527.527,0,0,1,.366-.27l2.016-.636a.352.352,0,0,1,.318.078.788.788,0,0,1,.2.39.682.682,0,0,1,.042.5.566.566,0,0,1-.366.27Z" transform="translate(135 484)" fill="#4d4d4d"/>
    </g>
    <g id="Grupo_35912" data-name="Grupo 35912">
      <path id="Rect치ngulo_15564" data-name="Rect치ngulo 15564" d="M0,0H97a10,10,0,0,1,10,10V61A10,10,0,0,1,97,71H0a0,0,0,0,1,0,0V0A0,0,0,0,1,0,0Z" transform="translate(247 425)" fill="#99a540"/>
      <path id="Trazado_112534" data-name="Trazado 112534" d="M11-5.668A4.857,4.857,0,0,1,10.725-4a4.061,4.061,0,0,1-.78,1.326,4.348,4.348,0,0,1-1.209.949A5.81,5.81,0,0,1,7.15-1.17V.416a4.239,4.239,0,0,1-.078.832,1.051,1.051,0,0,1-.39.637,1.591,1.591,0,0,1-.988.247,1.532,1.532,0,0,1-.988-.26,1.047,1.047,0,0,1-.377-.65A4.9,4.9,0,0,1,4.264.416V-1.2a5.452,5.452,0,0,1-1.287-.416,5.289,5.289,0,0,1-1.118-.7,5.064,5.064,0,0,1-.871-.91,1.942,1.942,0,0,1-.455-1.2,1.968,1.968,0,0,1,.741-1.144,1.667,1.667,0,0,1,.884-.429,1.3,1.3,0,0,1,.806.195,2.474,2.474,0,0,1,.7.65,2.861,2.861,0,0,0,.9.806,2.232,2.232,0,0,0,1.079.26,3.274,3.274,0,0,0,1.131-.169,1.3,1.3,0,0,0,.676-.52,1.554,1.554,0,0,0,.221-.845.933.933,0,0,0-.6-.884,8.945,8.945,0,0,0-1.521-.533A14.745,14.745,0,0,1,3.692-7.67,9.385,9.385,0,0,1,2.6-8.255a4.031,4.031,0,0,1-.923-.793,3.521,3.521,0,0,1-.637-1.118A4.531,4.531,0,0,1,.806-11.7a4.706,4.706,0,0,1,.234-1.521,3.546,3.546,0,0,1,.689-1.209A4,4,0,0,1,2.821-15.3a4.9,4.9,0,0,1,1.443-.507v-1.4a4.828,4.828,0,0,1,.065-.819.988.988,0,0,1,.377-.624,1.591,1.591,0,0,1,.988-.247,1.591,1.591,0,0,1,.988.247,1.051,1.051,0,0,1,.39.637,4.239,4.239,0,0,1,.078.832v1.352a3.687,3.687,0,0,1,1.287.416,6.79,6.79,0,0,1,1.105.78,1.758,1.758,0,0,1,.676.949,1.825,1.825,0,0,1-.468,1.131,2.181,2.181,0,0,1-.7.728,1.032,1.032,0,0,1-.741.13,2.25,2.25,0,0,1-.819-.39,5.5,5.5,0,0,0-.468-.364,2.412,2.412,0,0,0-.6-.3,2.662,2.662,0,0,0-.858-.117,1.807,1.807,0,0,0-.6.091,1.531,1.531,0,0,0-.455.247,1.192,1.192,0,0,0-.312.377,1.012,1.012,0,0,0-.117.481.946.946,0,0,0,.416.832,3.559,3.559,0,0,0,1.105.468l1.469.39a11.84,11.84,0,0,1,1.391.455,4.732,4.732,0,0,1,1.261.741,3.4,3.4,0,0,1,.923,1.222A4.5,4.5,0,0,1,11-5.668ZM18.85.494a7.39,7.39,0,0,1-2.6-.455A7.339,7.339,0,0,1,14.092-1.2a5.957,5.957,0,0,1-1.469-1.781,4.635,4.635,0,0,1-.559-2.093q0-1.4,2.158-1.4a2.948,2.948,0,0,1,.949.117.958.958,0,0,1,.507.416,5.344,5.344,0,0,1,.39.845,2.394,2.394,0,0,0,.39.676,2.793,2.793,0,0,0,.9.741,3.118,3.118,0,0,0,1.521.325A3.847,3.847,0,0,0,20.4-3.627a2.318,2.318,0,0,0,.988-.754,1.786,1.786,0,0,0,.351-1.079A1.9,1.9,0,0,0,21.4-6.6a2.043,2.043,0,0,0-.923-.7A3.66,3.66,0,0,0,19.11-7.54a6.007,6.007,0,0,1-.988-.078,1.136,1.136,0,0,1-.754-.468,2.372,2.372,0,0,1-.286-1.352,2.3,2.3,0,0,1,.286-1.339,1.1,1.1,0,0,1,.754-.442,7.389,7.389,0,0,1,1.014-.065,3.748,3.748,0,0,0,1.17-.156,1.525,1.525,0,0,0,.715-.455,1.125,1.125,0,0,0,.247-.741,1.651,1.651,0,0,0-.273-.949,1.7,1.7,0,0,0-.754-.611A2.833,2.833,0,0,0,19.11-14.4a3.365,3.365,0,0,0-1.157.169,1.98,1.98,0,0,0-.754.481,4.462,4.462,0,0,0-.533.676,1.856,1.856,0,0,1-1.105,1.092,2.194,2.194,0,0,1-1.625-.364,2.048,2.048,0,0,1-1.027-1.144,2.2,2.2,0,0,1,.247-1.43,2.537,2.537,0,0,0,.234-.4,4.828,4.828,0,0,1,.585-.832,5.741,5.741,0,0,1,1.053-.949,5.849,5.849,0,0,1,1.6-.78A7.324,7.324,0,0,1,18.9-18.2a7.169,7.169,0,0,1,2.717.481,6.038,6.038,0,0,1,1.989,1.274A5.538,5.538,0,0,1,24.83-14.69a4.872,4.872,0,0,1,.416,1.95,3.689,3.689,0,0,1-.325,1.612,3.581,3.581,0,0,1-.793,1.1,3.543,3.543,0,0,1-.858.611,3.731,3.731,0,0,1,.819.546,4.47,4.47,0,0,1,.78.871,5.159,5.159,0,0,1,.585,1.131,3.82,3.82,0,0,1,.234,1.352A5.481,5.481,0,0,1,24.8-2.444,6.254,6.254,0,0,1,22.386-.3,7.592,7.592,0,0,1,18.85.494ZM33.592.52a6.643,6.643,0,0,1-2.886-.572A5.559,5.559,0,0,1,28.73-1.6,7.956,7.956,0,0,1,27.5-3.783a11.7,11.7,0,0,1-.637-2.522,18.468,18.468,0,0,1-.182-2.535,17.4,17.4,0,0,1,.182-2.431,12.5,12.5,0,0,1,.624-2.509A8.235,8.235,0,0,1,28.691-16a5.414,5.414,0,0,1,1.976-1.586,6.536,6.536,0,0,1,2.873-.585,6.239,6.239,0,0,1,2.795.585,5.469,5.469,0,0,1,1.937,1.56,8.3,8.3,0,0,1,1.209,2.2,11.957,11.957,0,0,1,.637,2.522,18.014,18.014,0,0,1,.182,2.5A17,17,0,0,1,40.1-6.292a13.116,13.116,0,0,1-.637,2.522,7.644,7.644,0,0,1-1.209,2.184A5.626,5.626,0,0,1,36.348-.052,6.106,6.106,0,0,1,33.592.52Zm-.1-3.978a2.246,2.246,0,0,0,1.391-.4,2.761,2.761,0,0,0,.832-1.027,5.648,5.648,0,0,0,.442-1.339A8.786,8.786,0,0,0,36.322-7.6q.026-.663.026-1.105v-.13a11.821,11.821,0,0,0-.312-2.938A3.922,3.922,0,0,0,35.1-13.6a2.149,2.149,0,0,0-1.586-.624,2.252,2.252,0,0,0-1.625.611,3.77,3.77,0,0,0-.949,1.82,12.109,12.109,0,0,0-.312,2.977A11.249,11.249,0,0,0,30.953-5.9a3.94,3.94,0,0,0,.962,1.82A2.16,2.16,0,0,0,33.488-3.458ZM43.5.26a2.329,2.329,0,0,1-1.664-.468,2.239,2.239,0,0,1-.468-1.612,3.2,3.2,0,0,1,.208-1.274,1.289,1.289,0,0,1,.676-.676A3.117,3.117,0,0,1,43.5-3.978a2.278,2.278,0,0,1,1.651.468A2.375,2.375,0,0,1,45.6-1.846,3.3,3.3,0,0,1,45.409-.6a1.187,1.187,0,0,1-.663.663A3.3,3.3,0,0,1,43.5.26ZM53.586.52A6.643,6.643,0,0,1,50.7-.052,5.559,5.559,0,0,1,48.724-1.6a7.956,7.956,0,0,1-1.235-2.184,11.7,11.7,0,0,1-.637-2.522A18.468,18.468,0,0,1,46.67-8.84a17.4,17.4,0,0,1,.182-2.431,12.5,12.5,0,0,1,.624-2.509A8.235,8.235,0,0,1,48.685-16a5.414,5.414,0,0,1,1.976-1.586,6.536,6.536,0,0,1,2.873-.585,6.239,6.239,0,0,1,2.8.585,5.469,5.469,0,0,1,1.937,1.56,8.3,8.3,0,0,1,1.209,2.2,11.957,11.957,0,0,1,.637,2.522,18.014,18.014,0,0,1,.182,2.5A17,17,0,0,1,60.1-6.292a13.116,13.116,0,0,1-.637,2.522,7.644,7.644,0,0,1-1.209,2.184A5.626,5.626,0,0,1,56.342-.052,6.107,6.107,0,0,1,53.586.52Zm-.1-3.978a2.246,2.246,0,0,0,1.391-.4,2.762,2.762,0,0,0,.832-1.027,5.648,5.648,0,0,0,.442-1.339A8.786,8.786,0,0,0,56.316-7.6q.026-.663.026-1.105v-.13a11.821,11.821,0,0,0-.312-2.938,3.922,3.922,0,0,0-.936-1.82,2.149,2.149,0,0,0-1.586-.624,2.252,2.252,0,0,0-1.625.611,3.77,3.77,0,0,0-.949,1.82,12.109,12.109,0,0,0-.312,2.977A11.249,11.249,0,0,0,50.947-5.9a3.94,3.94,0,0,0,.962,1.82A2.16,2.16,0,0,0,53.482-3.458ZM68.2.52a6.643,6.643,0,0,1-2.886-.572A5.558,5.558,0,0,1,63.336-1.6,7.956,7.956,0,0,1,62.1-3.783a11.7,11.7,0,0,1-.637-2.522,18.468,18.468,0,0,1-.182-2.535,17.4,17.4,0,0,1,.182-2.431,12.5,12.5,0,0,1,.624-2.509A8.235,8.235,0,0,1,63.3-16a5.414,5.414,0,0,1,1.976-1.586,6.536,6.536,0,0,1,2.873-.585,6.239,6.239,0,0,1,2.795.585,5.469,5.469,0,0,1,1.937,1.56,8.3,8.3,0,0,1,1.209,2.2,11.956,11.956,0,0,1,.637,2.522,18.015,18.015,0,0,1,.182,2.5,17,17,0,0,1-.195,2.522,13.115,13.115,0,0,1-.637,2.522,7.644,7.644,0,0,1-1.209,2.184A5.626,5.626,0,0,1,70.954-.052,6.107,6.107,0,0,1,68.2.52Zm-.1-3.978a2.246,2.246,0,0,0,1.391-.4,2.761,2.761,0,0,0,.832-1.027,5.649,5.649,0,0,0,.442-1.339A8.786,8.786,0,0,0,70.928-7.6q.026-.663.026-1.105v-.13a11.821,11.821,0,0,0-.312-2.938,3.922,3.922,0,0,0-.936-1.82,2.149,2.149,0,0,0-1.586-.624,2.252,2.252,0,0,0-1.625.611,3.77,3.77,0,0,0-.949,1.82,12.109,12.109,0,0,0-.312,2.977A11.249,11.249,0,0,0,65.559-5.9a3.94,3.94,0,0,0,.962,1.82A2.16,2.16,0,0,0,68.094-3.458Z" transform="translate(258 461)" fill="#f5f5f5"/>
      <path id="Trazado_112535" data-name="Trazado 112535" d="M3.335-2.122l.14.569h.032l.134-.559L5.511-7.82H6.9L4.109,0H2.868L.081-7.82H1.472ZM9.061,0H7.756V-5.812H9.061Zm0-7.235H7.756V-8.379H9.061Zm1.257,4.41a3.832,3.832,0,0,1,.6-2.242,1.928,1.928,0,0,1,1.676-.851,1.831,1.831,0,0,1,.916.223,1.935,1.935,0,0,1,.669.642l.129-.757h1.085V0A2.193,2.193,0,0,1,14.7,1.735a2.873,2.873,0,0,1-1.966.612,3.849,3.849,0,0,1-.916-.121,4.254,4.254,0,0,1-.889-.32L11.134.881a3.307,3.307,0,0,0,.744.26,3.757,3.757,0,0,0,.841.094,1.491,1.491,0,0,0,1.037-.3A1.212,1.212,0,0,0,14.083,0V-.6a1.826,1.826,0,0,1-.647.529,1.95,1.95,0,0,1-.857.18,1.977,1.977,0,0,1-1.665-.779,3.277,3.277,0,0,1-.6-2.046Zm1.3.113a2.324,2.324,0,0,0,.312,1.284,1.088,1.088,0,0,0,.983.478,1.337,1.337,0,0,0,.706-.175,1.289,1.289,0,0,0,.465-.5V-4.173a1.4,1.4,0,0,0-.47-.5,1.274,1.274,0,0,0-.69-.18,1.057,1.057,0,0,0-.988.561,2.961,2.961,0,0,0-.317,1.464Zm7.6,2.825a2.53,2.53,0,0,1-1.99-.8,3.007,3.007,0,0,1-.717-2.081v-.215a3.109,3.109,0,0,1,.717-2.108,2.317,2.317,0,0,1,1.85-.824,2.175,2.175,0,0,1,1.772.722,2.921,2.921,0,0,1,.6,1.931v.7H17.859l-.011.027a1.9,1.9,0,0,0,.376,1.16,1.283,1.283,0,0,0,1.069.446,2.941,2.941,0,0,0,.921-.129,2.63,2.63,0,0,0,.722-.371l.424.854a2.766,2.766,0,0,1-.881.489A3.692,3.692,0,0,1,19.218.113Zm-.14-4.984a1.008,1.008,0,0,0-.816.368,1.823,1.823,0,0,0-.381.959l.011.027h2.272v-.1a1.467,1.467,0,0,0-.26-.905A.964.964,0,0,0,19.078-4.872Zm4.614-.94.075.838a2.079,2.079,0,0,1,.717-.7,1.913,1.913,0,0,1,.975-.25,1.815,1.815,0,0,1,1.415.559,2.538,2.538,0,0,1,.508,1.746V0H26.077V-3.6a1.4,1.4,0,0,0-.263-.961,1.031,1.031,0,0,0-.795-.285,1.558,1.558,0,0,0-.725.158,1.27,1.27,0,0,0-.489.438V0H22.5V-5.812ZM31.109-.929a1.084,1.084,0,0,0,.755-.279.914.914,0,0,0,.309-.709h1.182l.011.032a1.752,1.752,0,0,1-.647,1.407,2.346,2.346,0,0,1-1.609.591,2.368,2.368,0,0,1-1.939-.83,3.186,3.186,0,0,1-.682-2.092V-3a3.188,3.188,0,0,1,.682-2.089A2.358,2.358,0,0,1,31.1-5.919a2.279,2.279,0,0,1,1.649.61,1.99,1.99,0,0,1,.612,1.55l-.011.032H32.173a1.179,1.179,0,0,0-.3-.811.985.985,0,0,0-.773-.333,1.065,1.065,0,0,0-1,.54A2.671,2.671,0,0,0,29.793-3v.188a2.7,2.7,0,0,0,.3,1.345A1.071,1.071,0,0,0,31.109-.929ZM35.852,0H34.547V-5.812h1.305Zm0-7.235H34.547V-8.379h1.305ZM40.815,0q-.07-.22-.115-.43a3.071,3.071,0,0,1-.062-.419,2.238,2.238,0,0,1-.7.685,1.81,1.81,0,0,1-.983.277,1.932,1.932,0,0,1-1.394-.467,1.7,1.7,0,0,1-.486-1.284,1.516,1.516,0,0,1,.666-1.313,3.216,3.216,0,0,1,1.875-.47h1.015v-.51a.949.949,0,0,0-.266-.714A1.064,1.064,0,0,0,39.59-4.9a1.1,1.1,0,0,0-.709.212.674.674,0,0,0-.263.551l-1.257.005-.005-.032a1.439,1.439,0,0,1,.615-1.219,2.606,2.606,0,0,1,1.7-.532,2.486,2.486,0,0,1,1.638.516,1.815,1.815,0,0,1,.623,1.482v2.583a4.764,4.764,0,0,0,.048.69A3.665,3.665,0,0,0,42.136,0Zm-1.6-.935a1.631,1.631,0,0,0,.884-.247,1.244,1.244,0,0,0,.524-.564V-2.6H39.59a1.309,1.309,0,0,0-.892.282.857.857,0,0,0-.322.663.677.677,0,0,0,.218.529A.9.9,0,0,0,39.22-.935Zm9.244-3.6a1.161,1.161,0,0,0,.913-.317,1.3,1.3,0,0,0,.279-.886,1.162,1.162,0,0,0-.3-.83,1.138,1.138,0,0,0-.87-.32,1.26,1.26,0,0,0-.875.314,1.014,1.014,0,0,0-.349.787H46.009L46-5.817a1.809,1.809,0,0,1,.685-1.507,2.685,2.685,0,0,1,1.8-.61,2.709,2.709,0,0,1,1.807.561,2.023,2.023,0,0,1,.663,1.635,1.766,1.766,0,0,1-.293.986,1.975,1.975,0,0,1-.814.7,1.9,1.9,0,0,1,.913.712,2.02,2.02,0,0,1,.317,1.147A2.1,2.1,0,0,1,50.354-.5a2.8,2.8,0,0,1-1.869.612,2.939,2.939,0,0,1-1.81-.583,1.816,1.816,0,0,1-.752-1.593l.011-.032H47.19a1.086,1.086,0,0,0,.363.83,1.317,1.317,0,0,0,.932.336,1.265,1.265,0,0,0,.94-.352,1.23,1.23,0,0,0,.349-.905,1.358,1.358,0,0,0-.325-.994,1.333,1.333,0,0,0-.986-.328h-.87V-4.533ZM57.288-2.8a3.086,3.086,0,0,1-.7,2.132,2.372,2.372,0,0,1-1.861.779,2.393,2.393,0,0,1-1.869-.781,3.065,3.065,0,0,1-.7-2.13V-5.017a3.091,3.091,0,0,1,.7-2.132,2.372,2.372,0,0,1,1.864-.784,2.381,2.381,0,0,1,1.866.784,3.083,3.083,0,0,1,.7,2.132ZM55.983-5.215a2,2,0,0,0-.333-1.227,1.1,1.1,0,0,0-.929-.443,1.087,1.087,0,0,0-.929.443,2.027,2.027,0,0,0-.328,1.227v2.6A2.023,2.023,0,0,0,53.8-1.372a1.1,1.1,0,0,0,.935.443,1.083,1.083,0,0,0,.927-.44,2.058,2.058,0,0,0,.325-1.241Zm5.054,2.39a3.832,3.832,0,0,1,.6-2.242,1.928,1.928,0,0,1,1.676-.851,1.833,1.833,0,0,1,.846.191,1.914,1.914,0,0,1,.647.545v-3.2h1.305V0H65.049l-.156-.736a1.938,1.938,0,0,1-.677.631A1.882,1.882,0,0,1,63.3.113a1.977,1.977,0,0,1-1.665-.779,3.277,3.277,0,0,1-.6-2.046Zm1.305.113a2.34,2.34,0,0,0,.309,1.284,1.081,1.081,0,0,0,.98.478,1.311,1.311,0,0,0,.7-.177,1.349,1.349,0,0,0,.47-.5V-4.168a1.374,1.374,0,0,0-.473-.5,1.278,1.278,0,0,0-.687-.18,1.052,1.052,0,0,0-.983.561,2.961,2.961,0,0,0-.317,1.464ZM68.9,0H67.59V-5.812H68.9Zm-.236-8.175h1.477l.011.032-1.466,1.4H67.633ZM73.9,0q-.07-.22-.115-.43a3.072,3.072,0,0,1-.062-.419,2.238,2.238,0,0,1-.7.685,1.81,1.81,0,0,1-.983.277,1.932,1.932,0,0,1-1.394-.467,1.7,1.7,0,0,1-.486-1.284,1.516,1.516,0,0,1,.666-1.313,3.216,3.216,0,0,1,1.875-.47h1.015v-.51a.949.949,0,0,0-.266-.714,1.064,1.064,0,0,0-.771-.258,1.1,1.1,0,0,0-.709.212.674.674,0,0,0-.263.551l-1.257.005-.005-.032a1.439,1.439,0,0,1,.615-1.219,2.606,2.606,0,0,1,1.7-.532A2.486,2.486,0,0,1,74.4-5.4a1.815,1.815,0,0,1,.623,1.482v2.583a4.764,4.764,0,0,0,.048.69A3.665,3.665,0,0,0,75.222,0Zm-1.6-.935a1.631,1.631,0,0,0,.884-.247,1.244,1.244,0,0,0,.524-.564V-2.6H72.676a1.309,1.309,0,0,0-.892.282.857.857,0,0,0-.322.663.677.677,0,0,0,.218.529A.9.9,0,0,0,72.306-.935Zm7.342-.655a.6.6,0,0,0-.255-.5,2.639,2.639,0,0,0-.964-.352,3.921,3.921,0,0,1-1.568-.618,1.3,1.3,0,0,1-.542-1.1A1.578,1.578,0,0,1,76.936-5.4a2.448,2.448,0,0,1,1.627-.518,2.523,2.523,0,0,1,1.678.534,1.548,1.548,0,0,1,.61,1.286l-.011.032H79.589a.814.814,0,0,0-.279-.615,1.051,1.051,0,0,0-.747-.26,1.067,1.067,0,0,0-.72.215A.672.672,0,0,0,77.6-4.2a.566.566,0,0,0,.231.473,2.532,2.532,0,0,0,.951.317,3.937,3.937,0,0,1,1.611.631,1.333,1.333,0,0,1,.542,1.115,1.544,1.544,0,0,1-.647,1.281,2.726,2.726,0,0,1-1.705.5,2.6,2.6,0,0,1-1.789-.58A1.638,1.638,0,0,1,76.167-1.8l.011-.032h1.214a.871.871,0,0,0,.365.736,1.468,1.468,0,0,0,.838.231,1.313,1.313,0,0,0,.776-.2A.618.618,0,0,0,79.648-1.59Z" transform="translate(258 482)" fill="#f5f5f5"/>
    </g>
  </g>
</svg>
