<svg xmlns="http://www.w3.org/2000/svg" width="17.089" height="23.832" viewBox="0 0 17.089 23.832">
  <g id="ic_phone_money_charge" transform="translate(0.25 0.25)">
    <g id="Grupo_35971" data-name="Grupo 35971" transform="translate(3.05)">
      <path id="Trazado_112619" data-name="Trazado 112619" d="M451.925,497.995q-4.068-.009-8.131,0a3.027,3.027,0,0,0-.672.076,2.617,2.617,0,0,0-2.029,2.625v3.35a2.088,2.088,0,0,1,.364-.173,2.135,2.135,0,0,1,.408-.157V501.77h12.007v14.267H441.865v-1.675c-.246.109-.508-.363-.776-.331,0,1.346,0,3.234,0,4.581a2.624,2.624,0,0,0,2.7,2.706q4.068.01,8.131,0a2.625,2.625,0,0,0,2.707-2.7V500.7A2.626,2.626,0,0,0,451.925,497.995Zm1.935,3H441.884a1.881,1.881,0,0,1,1.426-2.2,2.145,2.145,0,0,1,.49-.051h8.131A1.906,1.906,0,0,1,453.861,501Zm.024,17.659a1.877,1.877,0,0,1-1.908,1.908q-4.116.01-8.227,0a1.871,1.871,0,0,1-1.9-1.908c-.006-.609,0-1.219,0-1.84h12.019a1.677,1.677,0,0,1,.018.169C453.885,517.544,453.891,518.1,453.885,518.656Z" transform="translate(-441.087 -497.99)" fill="#fff" stroke="#fff" stroke-width="0.5"/>
      <path id="Trazado_112620" data-name="Trazado 112620" d="M446.9,513.4c.376,0,.753-.006,1.13,0a1.136,1.136,0,0,1,1.13,1.117,1.124,1.124,0,0,1-1.13,1.138c-.754.006-1.5.006-2.255,0a1.128,1.128,0,1,1,0-2.255C446.149,513.394,446.526,513.4,446.9,513.4Zm-.025,1.5h1.079c.277,0,.447-.151.447-.377s-.17-.376-.447-.376h-2.115c-.277,0-.446.143-.446.376s.169.371.446.377C446.187,514.908,446.532,514.9,446.878,514.9Z" transform="translate(-440.126 -493.834)" fill="#fff" stroke="#fff" stroke-width="0.5"/>
      <path id="Trazado_112621" data-name="Trazado 112621" d="M446.971,499.929h-2.142c-.3,0-.471-.132-.477-.364s.17-.383.484-.383h4.3c.3,0,.471.132.477.364s-.17.383-.484.383Z" transform="translate(-440.207 -497.669)" fill="#fff" stroke="#fff" stroke-width="0.5"/>
    </g>
    <g id="Grupo_35972" data-name="Grupo 35972" transform="translate(0 4.958)">
      <path id="Trazado_112622" data-name="Trazado 112622" d="M438.685,507.831a5.921,5.921,0,1,1,5.919,5.928A5.936,5.936,0,0,1,438.685,507.831Zm.59-.013a5.329,5.329,0,1,0,5.338-5.329A5.335,5.335,0,0,0,439.275,507.818Z" transform="translate(-438.685 -501.895)" fill="#fff" stroke="#fff" stroke-width="0.5"/>
      <path id="Trazado_112623" data-name="Trazado 112623" d="M443.959,509.975c0,.2.005.395,0,.585,0,.208-.116.328-.3.324s-.288-.119-.292-.328c-.005-.192,0-.382,0-.555a5.584,5.584,0,0,1-.537-.27,1.431,1.431,0,0,1-.642-1.153.293.293,0,0,1,.288-.354c.176-.005.283.116.3.324a.887.887,0,1,0,.9-.927,1.481,1.481,0,0,1-.391-2.913c.023-.009.044-.018.085-.032,0-.19-.005-.385,0-.585s.11-.328.292-.328.293.116.3.324c.005.19,0,.381,0,.585.057.018.116.039.173.057a1.49,1.49,0,0,1,1.011,1.313c.014.244-.075.377-.265.39s-.306-.093-.324-.351a.888.888,0,0,0-1.774.05.881.881,0,0,0,.861.886,1.487,1.487,0,0,1,.394,2.927A.208.208,0,0,1,443.959,509.975Z" transform="translate(-437.742 -501.391)" fill="#fff" stroke="#fff" stroke-width="0.5"/>
      <path id="Trazado_112624" data-name="Trazado 112624" d="M439.783,507.587a4.556,4.556,0,1,1,4.555,4.562A4.565,4.565,0,0,1,439.783,507.587Zm.453-.01a4.1,4.1,0,1,0,4.108-4.1A4.106,4.106,0,0,0,440.236,507.577Z" transform="translate(-438.389 -501.592)" fill="#fff" stroke="#fff" stroke-width="0.5"/>
    </g>
  </g>
</svg>
