<svg xmlns="http://www.w3.org/2000/svg" width="19.182" height="23.518" viewBox="0 0 19.182 23.518">
  <g id="Grupo_34854" data-name="Grupo 34854" transform="translate(0.254 0.261)">
    <g id="Objeto_inteligente_vectorial18" data-name="Objeto inteligente vectorial18" opacity="0.5">
      <path id="Trazado_111777" data-name="Trazado 111777" d="M15.495,25.239a13.208,13.208,0,0,1-2.862.053,14.816,14.816,0,0,1-5.38-1.614c-.485-.248-.964-.52-1.437-.8a.359.359,0,0,1-.166-.242,8.313,8.313,0,0,1,2.513-6.859,7.033,7.033,0,0,1,2.885-1.626.422.422,0,0,1,.3.053c.331.2.639.438.987.609a3.413,3.413,0,0,0,1.466.361,8.631,8.631,0,0,1,.225-1.1,2.668,2.668,0,0,1-1.679-.508,5.914,5.914,0,0,1-2.4-6.248,3.764,3.764,0,0,1,3.364-2.749,4.5,4.5,0,0,1,2.661.473,3.778,3.778,0,0,1,1.951,3.033c.03.207.03.414.047.639a6.844,6.844,0,0,1-.213,1.413c.307-.1.615-.2.916-.319.106-.041.213-.083.319-.13a6.9,6.9,0,0,0,.035-1.644A4.825,4.825,0,0,0,16.6,4.119a5.624,5.624,0,0,0-3.364-.668,4.834,4.834,0,0,0-4.357,3.6,6.531,6.531,0,0,0,.78,5.173c.2.337.426.644.644.97-.006.012-.012.03-.03.035-.047.018-.1.041-.154.059A8.358,8.358,0,0,0,5.3,18.026a10.575,10.575,0,0,0-.721,5.1.574.574,0,0,0,.313.473c.6.343,1.194.709,1.809,1.023a15.7,15.7,0,0,0,6.782,1.8,15.044,15.044,0,0,0,2.643-.183C15.908,25.919,15.7,25.582,15.495,25.239Z" transform="translate(-4.522 -3.418)" fill="#4d4d4d" stroke="#4d4d4d" stroke-miterlimit="10" stroke-width="0.5"/>
      <g id="Grupo_34721" data-name="Grupo 34721" transform="translate(4.128)">
        <path id="Trazado_111778" data-name="Trazado 111778" d="M15.067,25.235a13.208,13.208,0,0,0,2.862.053,14.816,14.816,0,0,0,5.38-1.614c.485-.248.964-.52,1.437-.8a.359.359,0,0,0,.166-.242A8.313,8.313,0,0,0,22.4,15.769a7.033,7.033,0,0,0-2.885-1.626.422.422,0,0,0-.3.053c-.331.2-.639.438-.987.609a3.413,3.413,0,0,1-1.466.361,8.63,8.63,0,0,0-.225-1.1,2.668,2.668,0,0,0,1.679-.508,5.914,5.914,0,0,0,2.406-6.244,3.764,3.764,0,0,0-3.364-2.749,4.5,4.5,0,0,0-2.661.473,3.778,3.778,0,0,0-1.951,3.033c-.03.207-.03.414-.047.639a7.607,7.607,0,0,0,.213,1.407c-.307-.1-.615-.2-.916-.319-.106-.041-.213-.083-.319-.13a6.9,6.9,0,0,1-.035-1.644A4.825,4.825,0,0,1,13.966,4.11a5.624,5.624,0,0,1,3.364-.668,4.834,4.834,0,0,1,4.358,3.6,6.531,6.531,0,0,1-.78,5.173c-.2.337-.426.644-.644.97.006.012.012.03.03.035.047.018.1.041.154.059a8.358,8.358,0,0,1,4.825,4.742,10.575,10.575,0,0,1,.721,5.1.574.574,0,0,1-.313.473c-.6.343-1.194.71-1.809,1.023a15.7,15.7,0,0,1-6.782,1.8,15.044,15.044,0,0,1-2.643-.183C14.653,25.915,14.866,25.578,15.067,25.235Z" transform="translate(-11.505 -3.414)" fill="#4d4d4d" stroke="#4d4d4d" stroke-miterlimit="10" stroke-width="0.5"/>
      </g>
    </g>
  </g>
</svg>
