<svg id="ic_sad" xmlns="http://www.w3.org/2000/svg" width="36.004" height="36" viewBox="0 0 36.004 36">
  <circle id="Elipse_10736" data-name="Elipse 10736" cx="17" cy="17" r="17" transform="translate(0.999 1)" fill="#d40"/>
  <g id="N8gqQi.tif" transform="translate(410.618 -390.765)">
    <g id="Grupo_23960" data-name="Grupo 23960" transform="translate(-410.618 390.765)">
      <path id="Trazado_90562" data-name="Trazado 90562" d="M-393.913,426.766c-.707-.112-1.418-.2-2.12-.339a17.71,17.71,0,0,1-10.691-6.5,17.406,17.406,0,0,1-3.691-8.443,17.983,17.983,0,0,1,9.5-18.687,17.532,17.532,0,0,1,9.122-2.011A18.006,18.006,0,0,1-375.062,404.8c.176.783.246,1.59.369,2.384a2.32,2.32,0,0,0,.079.284v2.6a2.342,2.342,0,0,0-.079.284c-.123.794-.2,1.6-.367,2.383a18.016,18.016,0,0,1-14.052,13.688c-.73.137-1.469.233-2.2.348Zm1.3-34.424a16.438,16.438,0,0,0-16.425,16.4,16.447,16.447,0,0,0,16.425,16.446,16.439,16.439,0,0,0,16.426-16.4A16.444,16.444,0,0,0-392.616,392.341Z" transform="translate(410.618 -390.765)" fill="#fff"/>
      <path id="Trazado_90563" data-name="Trazado 90563" d="M-385.218,429.872a11.155,11.155,0,0,0-7,2.57c-.135.108-.259.23-.393.339a.773.773,0,0,1-1.151-.036.748.748,0,0,1,.113-1.143,19.52,19.52,0,0,1,2.123-1.551,11.66,11.66,0,0,1,6.622-1.749,12.5,12.5,0,0,1,7.883,3.294.765.765,0,0,1,.111,1.147.773.773,0,0,1-1.183.01,11.265,11.265,0,0,0-5.929-2.783C-384.465,429.906-384.914,429.9-385.218,429.872Z" transform="translate(403.342 -407.173)" fill="#fff"/>
      <path id="Trazado_90564" data-name="Trazado 90564" d="M-391.6,417.715a2.364,2.364,0,0,1-2.344-2.335,2.364,2.364,0,0,1,2.362-2.362,2.349,2.349,0,0,1,2.36,2.358A2.355,2.355,0,0,1-391.6,417.715Z" transform="translate(403.328 -400.495)" fill="#fff"/>
      <path id="Trazado_90565" data-name="Trazado 90565" d="M-369.372,417.715a2.357,2.357,0,0,1-2.323-2.351,2.351,2.351,0,0,1,2.371-2.347,2.364,2.364,0,0,1,2.351,2.374A2.363,2.363,0,0,1-369.372,417.715Z" transform="translate(393.598 -400.495)" fill="#fff"/>
    </g>
  </g>
</svg>
