<svg id="ic_search" xmlns="http://www.w3.org/2000/svg" width="36.588" height="36.588" viewBox="0 0 36.588 36.588">
  <g id="Grupo_5" data-name="Grupo 5" transform="translate(8.605 8.605)">
    <g id="Grupo_2" data-name="Grupo 2">
      <g id="Grupo_1" data-name="Grupo 1">
        <path id="Trazado_1" data-name="Trazado 1" d="M9.115,0A9.115,9.115,0,1,0,18.23,9.115,9.126,9.126,0,0,0,9.115,0Zm0,16.547a7.432,7.432,0,1,1,7.432-7.432A7.441,7.441,0,0,1,9.115,16.547Z" fill="#656565"/>
      </g>
    </g>
    <g id="Grupo_4" data-name="Grupo 4" transform="translate(15.298 15.298)">
      <g id="Grupo_3" data-name="Grupo 3">
        <path id="Trazado_2" data-name="Trazado 2" d="M355.59,354.727l-3.5-3.5a.611.611,0,0,0-.864.864l3.5,3.5a.611.611,0,0,0,.864-.864Z" transform="translate(-351.046 -351.046)" fill="#656565"/>
      </g>
    </g>
  </g>
  <rect id="Rectángulo_8448" data-name="Rectángulo 8448" width="36.588" height="36.588" fill="none"/>
</svg>
