<svg id="ic_update_white" xmlns="http://www.w3.org/2000/svg" width="15.871" height="15.918" viewBox="0 0 15.871 15.918">
  <path id="Trazado_112626" data-name="Trazado 112626" d="M381.45,623.93a1.1,1.1,0,0,1,.886.888c.23.763.5,1.515.753,2.27a.905.905,0,0,1-.937,1.294c-.834,0-1.667.006-2.5,0a.859.859,0,0,1-.853-1.192,2.886,2.886,0,0,1,.461-.564.952.952,0,0,0-.1-.066,6.171,6.171,0,1,0,2.993,6.379,8.019,8.019,0,0,0,.085-.923.922.922,0,0,1,.719-.975.893.893,0,0,1,1.023.634c0,.01.019.016.029.025v.785c-.031.217-.058.434-.093.65a7.934,7.934,0,1,1-3.719-7.994c.124.076.249.155.409.254-.038-.128-.066-.212-.089-.3a.9.9,0,0,1,.533-1.081c.089-.034.182-.057.273-.085Z" transform="translate(-368.139 -623.93)" fill="#fff"/>
</svg>
