<svg id="ic_waChat" xmlns="http://www.w3.org/2000/svg" xmlns:xlink="http://www.w3.org/1999/xlink" width="18.637" height="18.676" viewBox="0 0 18.637 18.676">
  <defs>
    <clipPath id="clip-path">
      <rect id="Rectángulo_15505" data-name="Rectángulo 15505" width="18.637" height="18.676" fill="#f8f8f8"/>
    </clipPath>
  </defs>
  <g id="Grupo_35799" data-name="Grupo 35799" clip-path="url(#clip-path)">
    <path id="Trazado_112399" data-name="Trazado 112399" d="M0,18.677c.313-1.148.617-2.259.921-3.37.116-.425.238-.848.344-1.275a.405.405,0,0,0-.029-.272A8.987,8.987,0,0,1,.1,8.653a9.064,9.064,0,0,1,4.125-7.1A8.687,8.687,0,0,1,9.84.024,8.848,8.848,0,0,1,17.517,4.99a8.857,8.857,0,0,1-.767,9.774,8.824,8.824,0,0,1-6.117,3.661,9.132,9.132,0,0,1-5.579-.944.475.475,0,0,0-.307-.036c-1.511.388-3.019.785-4.528,1.181-.061.016-.123.029-.219.052m2.222-2.2c.057-.011.082-.014.106-.021.852-.224,1.7-.444,2.553-.675a.555.555,0,0,1,.471.066,7.487,7.487,0,0,0,5.5.956A7.7,7.7,0,0,0,9.72,1.575,7.5,7.5,0,0,0,4.473,3.306a7.506,7.506,0,0,0-2.82,5.531,7.478,7.478,0,0,0,1.207,4.583.516.516,0,0,1,.075.465c-.243.852-.471,1.708-.712,2.59" transform="translate(0 0)" fill="#f8f8f8"/>
    <path id="Trazado_112400" data-name="Trazado 112400" d="M9.34,8.23c.412-.107.6.152.742.518.207.538.435,1.067.661,1.6a.46.46,0,0,1-.042.494c-.185.249-.366.5-.562.744a.357.357,0,0,0-.04.459,6.347,6.347,0,0,0,3.2,2.748.354.354,0,0,0,.45-.11c.232-.288.467-.573.7-.862.161-.2.255-.256.481-.153q.989.452,1.959.941a.367.367,0,0,1,.145.285,1.782,1.782,0,0,1-1.361,1.9,2.728,2.728,0,0,1-1.83.017,9.4,9.4,0,0,1-5.174-3.86,5.22,5.22,0,0,1-.942-1.879,2.624,2.624,0,0,1,.763-2.595A.976.976,0,0,1,9.34,8.23" transform="translate(-3.009 -3.233)" fill="#f8f8f8"/>
  </g>
</svg>
