<svg xmlns="http://www.w3.org/2000/svg" width="25.877" height="23.736" viewBox="0 0 25.877 23.736">
  <g id="Objeto_inteligente_vectorial19" data-name="Objeto inteligente vectorial19" transform="translate(0.373 0.384)">
    <path id="Trazado_111779" data-name="Trazado 111779" d="M30.853,13.03c-.063-.039-.039-.22-.039-.345,0-.824.016-1.632,0-2.449a3.137,3.137,0,0,0-2.449-2.778c-.212-.024-.432-.086-.651-.133V7.293a9.681,9.681,0,0,0-1.35-.133,6.776,6.776,0,0,1-.251,1.53c.51.008,1.028.031,1.546.039a.512.512,0,0,1,.228.047l.086.024a1.793,1.793,0,0,1,1.491,1.9v1.679H25.626c.024-.031-.086.063-.063.039H23.421c-.078.047-.039-.047-.126-.039H20.187v-.016c-.463.016-.918,0-1.381-.016v.039c-.6.031-1.209.031-1.813.016a33.84,33.84,0,0,1-4.089-.016c-1.067.008-2.064.016-3.053-.016A1.835,1.835,0,0,1,8.3,10.715,1.687,1.687,0,0,1,9.475,8.949a8.983,8.983,0,0,1,1.876-.212.1.1,0,0,1,.047.008c.526-.031,15.625-.016,16.151-.008-.055-.181-.1-.369-.141-.557a6.688,6.688,0,0,1-.133-.957H11.288s-.008.047-.008.063a14.614,14.614,0,0,0-1.938.2,3.134,3.134,0,0,0-2.4,3.076V27.3a10.455,10.455,0,0,0,.691,1.609,1.593,1.593,0,0,1,.141.1,3.364,3.364,0,0,0,2.4.981c.942-.047,1.868-.016,2.794-.016a12.847,12.847,0,0,1,1.648.047l-.039-.031h1.35a.737.737,0,0,1,.228,0H29.008a2.989,2.989,0,0,0,2.967-2.4c.016-.047.063-.071.094-.11V14.859a3.722,3.722,0,0,0-1.216-1.829Zm-.165,14.126a1.808,1.808,0,0,1-1.8,1.46H10.118A1.83,1.83,0,0,1,8.29,26.842c-.016-4.52,0-9.041,0-13.546.047-.016.086-.047.094-.039a4.475,4.475,0,0,0,2.551.455H28.663a1.96,1.96,0,0,1,1.986,1.326.981.981,0,0,1,.071.29v2.048c-2.464,0-4.866,0-7.275-.016a4.029,4.029,0,0,0-3.061,1.295,3.809,3.809,0,0,0,3.016,6.32c2.417-.024,4.826-.016,7.3-.016a18.662,18.662,0,0,1-.012,2.2Zm0-8.429v4.9c-2.606,0-5.18.039-7.746-.024a2.4,2.4,0,0,1-1.083-4.324,4.03,4.03,0,0,1,1.719-.526c2.338-.053,4.708-.025,7.11-.025Z" transform="translate(-6.94 -7.159)" fill="#a5a5a5" stroke="#a5a5a5" stroke-miterlimit="10" stroke-width="0.75"/>
  </g>
</svg>
