<svg id="ic_webSite" xmlns="http://www.w3.org/2000/svg" xmlns:xlink="http://www.w3.org/1999/xlink" width="18.675" height="16.5" viewBox="0 0 18.675 16.5">
  <defs>
    <clipPath id="clip-path">
      <rect id="Rectángulo_15501" data-name="Rectángulo 15501" width="18.675" height="16.5" fill="#f8f8f8" stroke="#f8f8f9" stroke-width="0.3"/>
    </clipPath>
  </defs>
  <g id="Grupo_35790" data-name="Grupo 35790" clip-path="url(#clip-path)">
    <path id="Trazado_112378" data-name="Trazado 112378" d="M.25,14.686V2.094a.419.419,0,0,0,.027-.066A2.075,2.075,0,0,1,2.462.251h14a2.641,2.641,0,0,1,.448.025A2.083,2.083,0,0,1,18.674,2.4q0,5.611,0,11.223c0,.287,0,.575,0,.863a1.939,1.939,0,0,1-.282.973A2.1,2.1,0,0,1,16.467,16.5q-7.007,0-14.014,0c-.078,0-.156,0-.233-.008A2.043,2.043,0,0,1,.382,15.127c-.057-.142-.089-.294-.132-.442M18.055,4.433H.879c0,.06-.009.106-.009.153,0,3.244,0,6.487.006,9.73a1.77,1.77,0,0,0,.157.727,1.447,1.447,0,0,0,1.432.833q6.99,0,13.979,0a1.488,1.488,0,0,0,1.611-1.615q0-4.811,0-9.622Zm0-.65c0-.508.014-.993-.007-1.477a1.56,1.56,0,0,0-.15-.6A1.459,1.459,0,0,0,16.461.869q-7,0-14,0h-.09A1.456,1.456,0,0,0,.89,2.217c-.018.353-.015.707-.02,1.06,0,.166,0,.332,0,.506Z" transform="translate(-0.126 -0.126)" fill="#f8f8f8" stroke="#f8f8f9" stroke-width="0.3"/>
    <path id="Trazado_112379" data-name="Trazado 112379" d="M.25,14.686V2.094a.419.419,0,0,0,.027-.066A2.075,2.075,0,0,1,2.462.251h14a2.641,2.641,0,0,1,.448.025A2.083,2.083,0,0,1,18.674,2.4q0,5.611,0,11.223c0,.287,0,.575,0,.863a1.939,1.939,0,0,1-.282.973A2.1,2.1,0,0,1,16.467,16.5q-7.007,0-14.014,0c-.078,0-.156,0-.233-.008A2.043,2.043,0,0,1,.382,15.127C.325,14.985.293,14.833.25,14.686ZM18.055,4.433H.879c0,.06-.009.106-.009.153,0,3.244,0,6.487.006,9.73a1.77,1.77,0,0,0,.157.727,1.447,1.447,0,0,0,1.432.833q6.99,0,13.979,0a1.488,1.488,0,0,0,1.611-1.615q0-4.811,0-9.622Zm0-.65c0-.508.014-.993-.007-1.477a1.56,1.56,0,0,0-.15-.6A1.459,1.459,0,0,0,16.461.869q-7,0-14,0h-.09A1.456,1.456,0,0,0,.89,2.217c-.018.353-.015.707-.02,1.06,0,.166,0,.332,0,.506Z" transform="translate(-0.126 -0.126)" fill="#f8f8f8" stroke="#f8f8f9" stroke-miterlimit="10" stroke-width="0.3"/>
    <path id="Trazado_112380" data-name="Trazado 112380" d="M11.359,16.761q0,1.618,0,3.237c0,.35-.1.444-.452.444H5.529c-.342,0-.44-.1-.44-.438q0-3.254,0-6.509c0-.335.094-.43.424-.43h5.414c.34,0,.432.094.432.441v3.255M10.725,13.7H5.716v6.111h5.009Z" transform="translate(-2.558 -6.568)" fill="#f8f8f8" stroke="#f8f8f9" stroke-width="0.3"/>
    <path id="Trazado_112381" data-name="Trazado 112381" d="M11.359,16.761q0,1.618,0,3.237c0,.35-.1.444-.452.444H5.529c-.342,0-.44-.1-.44-.438q0-3.254,0-6.509c0-.335.094-.43.424-.43h5.414c.34,0,.432.094.432.441ZM10.725,13.7H5.716v6.111h5.009Z" transform="translate(-2.558 -6.568)" fill="#f8f8f8" stroke="#f8f8f9" stroke-miterlimit="10" stroke-width="0.3"/>
    <path id="Trazado_112382" data-name="Trazado 112382" d="M23.964,17.58c.755,0,1.51,0,2.265,0a.943.943,0,0,1,.249.025.3.3,0,0,1,.005.575.848.848,0,0,1-.23.026H21.6c-.266,0-.418-.121-.414-.32s.153-.307.408-.308q1.186,0,2.372,0" transform="translate(-10.649 -8.838)" fill="#f8f8f8" stroke="#f8f8f9" stroke-width="0.3"/>
    <path id="Trazado_112383" data-name="Trazado 112383" d="M23.964,17.58c.755,0,1.51,0,2.265,0a.943.943,0,0,1,.249.025.3.3,0,0,1,.005.575.848.848,0,0,1-.23.026H21.6c-.266,0-.418-.121-.414-.32s.153-.307.408-.308Q22.777,17.578,23.964,17.58Z" transform="translate(-10.649 -8.838)" fill="#f8f8f8" stroke="#f8f8f9" stroke-miterlimit="10" stroke-width="0.3"/>
    <path id="Trazado_112384" data-name="Trazado 112384" d="M23.948,26.647H26.23a1.1,1.1,0,0,1,.232.015.3.3,0,0,1,.057.567.668.668,0,0,1-.246.038q-2.327,0-4.655,0a.754.754,0,0,1-.229-.029.277.277,0,0,1-.2-.306.281.281,0,0,1,.242-.273,1.238,1.238,0,0,1,.215-.013h2.3" transform="translate(-10.653 -13.397)" fill="#f8f8f8" stroke="#f8f8f9" stroke-width="0.3"/>
    <path id="Trazado_112385" data-name="Trazado 112385" d="M23.948,26.647H26.23a1.1,1.1,0,0,1,.232.015.3.3,0,0,1,.057.567.668.668,0,0,1-.246.038q-2.327,0-4.655,0a.754.754,0,0,1-.229-.029.277.277,0,0,1-.2-.306.281.281,0,0,1,.242-.273,1.238,1.238,0,0,1,.215-.013Z" transform="translate(-10.653 -13.397)" fill="#f8f8f8" stroke="#f8f8f9" stroke-miterlimit="10" stroke-width="0.3"/>
    <path id="Trazado_112386" data-name="Trazado 112386" d="M23.939,13.683H21.621a.832.832,0,0,1-.2-.012.3.3,0,0,1-.24-.3.3.3,0,0,1,.259-.3,1.134,1.134,0,0,1,.18-.007H26.26a.933.933,0,0,1,.179.008.288.288,0,0,1,.252.284.3.3,0,0,1-.237.315.962.962,0,0,1-.2.011H23.939" transform="translate(-10.65 -6.568)" fill="#f8f8f8" stroke="#f8f8f9" stroke-width="0.3"/>
    <path id="Trazado_112387" data-name="Trazado 112387" d="M23.939,13.683H21.621a.832.832,0,0,1-.2-.012.3.3,0,0,1-.24-.3.3.3,0,0,1,.259-.3,1.134,1.134,0,0,1,.18-.007H26.26a.933.933,0,0,1,.179.008.288.288,0,0,1,.252.284.3.3,0,0,1-.237.315.962.962,0,0,1-.2.011Z" transform="translate(-10.65 -6.568)" fill="#f8f8f8" stroke="#f8f8f9" stroke-miterlimit="10" stroke-width="0.3"/>
    <path id="Trazado_112388" data-name="Trazado 112388" d="M23.946,22.735h-2.3a1.3,1.3,0,0,1-.2-.007.286.286,0,0,1-.258-.279.28.28,0,0,1,.2-.306.539.539,0,0,1,.176-.025q2.382,0,4.763,0a.5.5,0,0,1,.176.029.3.3,0,0,1-.06.58,1.086,1.086,0,0,1-.2.009h-2.3" transform="translate(-10.653 -11.119)" fill="#f8f8f8" stroke="#f8f8f9" stroke-width="0.3"/>
    <path id="Trazado_112389" data-name="Trazado 112389" d="M23.946,22.735h-2.3a1.3,1.3,0,0,1-.2-.007.286.286,0,0,1-.258-.279.28.28,0,0,1,.2-.306.539.539,0,0,1,.176-.025q2.382,0,4.763,0a.5.5,0,0,1,.176.029.3.3,0,0,1-.06.58,1.086,1.086,0,0,1-.2.009Z" transform="translate(-10.653 -11.119)" fill="#f8f8f8" stroke="#f8f8f9" stroke-miterlimit="10" stroke-width="0.3"/>
    <path id="Trazado_112390" data-name="Trazado 112390" d="M7.34,3.474A.967.967,0,0,1,8.3,2.507a.968.968,0,1,1-.956.967m.967.338a.336.336,0,0,0,.338-.34A.345.345,0,0,0,8.3,3.129a.356.356,0,0,0-.342.346.343.343,0,0,0,.345.337" transform="translate(-3.69 -1.26)" fill="#f8f8f8" stroke="#f8f8f9" stroke-width="0.3"/>
    <path id="Trazado_112391" data-name="Trazado 112391" d="M7.34,3.474A.967.967,0,0,1,8.3,2.507a.968.968,0,1,1-.956.967Zm.967.338a.336.336,0,0,0,.338-.34A.345.345,0,0,0,8.3,3.129a.356.356,0,0,0-.342.346A.343.343,0,0,0,8.307,3.811Z" transform="translate(-3.69 -1.26)" fill="#f8f8f8" stroke="#f8f8f9" stroke-miterlimit="10" stroke-width="0.3"/>
    <path id="Trazado_112392" data-name="Trazado 112392" d="M12.814,2.508a.967.967,0,0,1,0,1.935.967.967,0,1,1,0-1.935m.007,1.3a.347.347,0,0,0,.339-.345.358.358,0,0,0-.35-.338.341.341,0,0,0-.333.349.335.335,0,0,0,.344.334" transform="translate(-5.955 -1.261)" fill="#f8f8f8" stroke="#f8f8f9" stroke-width="0.3"/>
    <path id="Trazado_112393" data-name="Trazado 112393" d="M12.814,2.508a.967.967,0,0,1,0,1.935.967.967,0,1,1,0-1.935Zm.007,1.3a.347.347,0,0,0,.339-.345.358.358,0,0,0-.35-.338.341.341,0,0,0-.333.349A.335.335,0,0,0,12.821,3.812Z" transform="translate(-5.955 -1.261)" fill="#f8f8f8" stroke="#f8f8f9" stroke-miterlimit="10" stroke-width="0.3"/>
    <path id="Trazado_112394" data-name="Trazado 112394" d="M4.756,3.477a.964.964,0,1,1-.951-.97.963.963,0,0,1,.951.97M3.8,3.812a.345.345,0,0,0,.338-.345.355.355,0,0,0-.349-.339.348.348,0,0,0-.335.349.339.339,0,0,0,.346.334" transform="translate(-1.422 -1.26)" fill="#f8f8f8" stroke="#f8f8f9" stroke-width="0.3"/>
    <path id="Trazado_112395" data-name="Trazado 112395" d="M4.756,3.477a.964.964,0,1,1-.951-.97A.963.963,0,0,1,4.756,3.477ZM3.8,3.812a.345.345,0,0,0,.338-.345.355.355,0,0,0-.349-.339.348.348,0,0,0-.335.349A.339.339,0,0,0,3.8,3.812Z" transform="translate(-1.422 -1.26)" fill="#f8f8f8" stroke="#f8f8f9" stroke-miterlimit="10" stroke-width="0.3"/>
  </g>
</svg>
