<svg id="ic_whatsapp_responsive" xmlns="http://www.w3.org/2000/svg" width="37.803" height="37.83" viewBox="0 0 37.803 37.83">
  <g id="Grupo_36052" data-name="Grupo 36052">
    <path id="Trazado_118467" data-name="Trazado 118467" d="M18.916,37.821A18.915,18.915,0,1,0,0,18.826,18.869,18.869,0,0,0,18.916,37.821Z" transform="translate(0.001 0.01)" fill="#fff"/>
    <path id="Trazado_118468" data-name="Trazado 118468" d="M18.916,37.821A18.915,18.915,0,1,1,37.8,18.976,18.88,18.88,0,0,1,18.916,37.821ZM30.678,18.857c-.05-.624-.07-1.254-.157-1.873a11.291,11.291,0,0,0-1.515-4.225A11.8,11.8,0,0,0,26.56,9.912a11.127,11.127,0,0,0-3.471-2.105,12.65,12.65,0,0,0-3.1-.694,11.367,11.367,0,0,0-2.836.059,10.966,10.966,0,0,0-5.289,2.237,12.226,12.226,0,0,0-3.265,3.7,11.559,11.559,0,0,0-1.407,4.658,12.175,12.175,0,0,0,.1,2.926,11.862,11.862,0,0,0,1.033,3.258.6.6,0,0,1,.053.354c-.206,1.03-.428,2.056-.639,3.084q-.28,1.354-.55,2.707a.515.515,0,0,0,.623.635c.127-.024.253-.052.379-.081q2.652-.63,5.3-1.256a.555.555,0,0,1,.336.03,12.511,12.511,0,0,0,3.247,1,12.359,12.359,0,0,0,3.312.049,11.163,11.163,0,0,0,3.407-.965,11.825,11.825,0,0,0,6.885-10.65Z" transform="translate(0.001 0.01)" fill="#18a91c"/>
    <path id="Trazado_118469" data-name="Trazado 118469" d="M71.839,59.538a11.824,11.824,0,0,1-6.885,10.65,11.217,11.217,0,0,1-3.407.965,12.3,12.3,0,0,1-3.312-.049,12.511,12.511,0,0,1-3.247-1,.555.555,0,0,0-.336-.03q-2.654.621-5.3,1.256c-.126.03-.251.058-.379.081a.515.515,0,0,1-.623-.635q.273-1.354.55-2.707c.213-1.028.433-2.055.639-3.084a.6.6,0,0,0-.053-.354,11.862,11.862,0,0,1-1.033-3.258,12.251,12.251,0,0,1-.1-2.926,11.543,11.543,0,0,1,1.407-4.658,12.209,12.209,0,0,1,3.265-3.7,10.972,10.972,0,0,1,5.289-2.237,11.366,11.366,0,0,1,2.836-.059,12.65,12.65,0,0,1,3.1.694A11.143,11.143,0,0,1,67.722,50.6a11.768,11.768,0,0,1,2.447,2.846,11.291,11.291,0,0,1,1.515,4.225c.087.62.107,1.249.157,1.873ZM51.545,68.107c.065-.009.095-.01.123-.018,1.087-.257,2.175-.519,3.265-.766a.707.707,0,0,1,.405.043c.334.141.652.317.984.465a9.562,9.562,0,0,0,2.811.79,8.451,8.451,0,0,0,2.371-.095,9.811,9.811,0,0,0,4.4-1.96,8.187,8.187,0,0,0,2.15-2.627,8.833,8.833,0,0,0,1.006-6.167,8.951,8.951,0,0,0-4.821-6.431,8.67,8.67,0,0,0-4.975-.993,9.186,9.186,0,0,0-3.7,1.16,9.16,9.16,0,0,0-4.629,8.736,7.7,7.7,0,0,0,.43,2.087c.246.648.558,1.271.834,1.907a.643.643,0,0,1,.074.343c-.185.953-.385,1.9-.58,2.852-.046.219-.095.436-.148.675Z" transform="translate(-41.161 -40.672)" fill="#fff"/>
    <path id="Trazado_118470" data-name="Trazado 118470" d="M66.471,82.9c.052-.24.1-.457.148-.675.2-.95.395-1.9.58-2.852a.643.643,0,0,0-.074-.343c-.275-.636-.587-1.259-.834-1.907a7.756,7.756,0,0,1-.43-2.087A9.16,9.16,0,0,1,70.489,66.3a9.209,9.209,0,0,1,3.7-1.16,8.655,8.655,0,0,1,4.975.993,8.951,8.951,0,0,1,4.821,6.431A8.834,8.834,0,0,1,82.98,78.73a8.187,8.187,0,0,1-2.149,2.627,9.811,9.811,0,0,1-4.4,1.96,8.561,8.561,0,0,1-2.371.095,9.562,9.562,0,0,1-2.811-.79c-.331-.148-.649-.324-.984-.465a.721.721,0,0,0-.405-.043c-1.09.247-2.176.509-3.265.766-.028.006-.058.009-.123.018ZM78.24,80a3.031,3.031,0,0,0,1.425-.33A4.394,4.394,0,0,0,81.2,78.007a.757.757,0,0,0,.009-.712,1,1,0,0,0-.7-.528c-.685-.2-1.373-.38-2.058-.578a.885.885,0,0,0-.928.244c-.185.18-.379.354-.574.522a.748.748,0,0,1-.905.123,10.423,10.423,0,0,1-1.025-.62,10.861,10.861,0,0,1-2.694-2.611.828.828,0,0,1,.012-1.132c.145-.2.3-.392.433-.6a.841.841,0,0,0,.114-.757c-.065-.191-.133-.383-.215-.568-.234-.536-.462-1.074-.717-1.6a.88.88,0,0,0-1.476-.294,8.127,8.127,0,0,0-.7.707,2.691,2.691,0,0,0-.678,1.373,4.463,4.463,0,0,0,.314,2.385,8.39,8.39,0,0,0,1.669,2.6,15.692,15.692,0,0,0,3.539,3A6.89,6.89,0,0,0,78.239,80Z" transform="translate(-56.087 -55.465)" fill="#18a91c"/>
    <path id="Trazado_118471" data-name="Trazado 118471" d="M96.853,100.279a6.89,6.89,0,0,1-3.617-1.039,15.73,15.73,0,0,1-3.539-3,8.41,8.41,0,0,1-1.669-2.6,4.439,4.439,0,0,1-.314-2.385,2.68,2.68,0,0,1,.678-1.373,8.131,8.131,0,0,1,.7-.707.881.881,0,0,1,1.476.294c.254.525.482,1.064.717,1.6.081.185.149.376.215.568a.837.837,0,0,1-.114.757c-.135.206-.288.4-.433.6a.826.826,0,0,0-.012,1.132,10.861,10.861,0,0,0,2.694,2.611,10.6,10.6,0,0,0,1.025.62.752.752,0,0,0,.905-.123c.2-.169.389-.342.574-.522a.885.885,0,0,1,.928-.244c.685.2,1.373.383,2.058.578a1,1,0,0,1,.7.528.757.757,0,0,1-.009.712,4.394,4.394,0,0,1-1.537,1.663,3.035,3.035,0,0,1-1.425.33Z" transform="translate(-74.698 -75.744)" fill="#fff"/>
  </g>
</svg>
