<svg xmlns="http://www.w3.org/2000/svg" viewBox="0 0 38.45 35.65"><defs><style>.cls-1{fill:#4e4d4d;}</style></defs><g id="Capa_5" data-name="Capa 5"><path id="camera" class="cls-1" d="M34,11.12V27.88a2.79,2.79,0,0,1-2.8,2.79H6.94a2.79,2.79,0,0,1-2.79-2.79V11.12A2.79,2.79,0,0,1,6.94,8.33h5.12l.72-1.92A2.79,2.79,0,0,1,15.39,4.6h7.3a2.79,2.79,0,0,1,2.62,1.81L26,8.33h5.12A2.79,2.79,0,0,1,34,11.12ZM26,19.5a7,7,0,1,0-7,7h0A7,7,0,0,0,26,19.5Zm-1.86,0a5.12,5.12,0,1,1-5.12-5.12A5.12,5.12,0,0,1,24.17,19.5Z"/></g></svg>