<svg xmlns="http://www.w3.org/2000/svg" viewBox="0 0 14.2 18.25"><defs><style>.cls-1{fill:#fff;}</style></defs><g id="Capa_3" data-name="Capa 3"><path id="Trazado_56691" data-name="Trazado 56691" class="cls-1" d="M6.47,2.2H9.52v.51h1.1V2.13a1,1,0,0,0-1-1H6.39a1,1,0,0,0-1,1v.58h1.1Z" transform="translate(-0.89 -1.1)"/><path id="Trazado_56692" data-name="Trazado 56692" class="cls-1" d="M13.17,7.08H2.82a.48.48,0,0,0-.48.48v0L3.2,18.29a1.15,1.15,0,0,0,1.15,1.06h7.29a1.14,1.14,0,0,0,1.14-1.06L13.65,7.6a.48.48,0,0,0-.44-.52ZM5.33,18.21h0a.56.56,0,0,1-.55-.52L4.2,8.91a.55.55,0,1,1,1.1-.06l.55,8.78a.56.56,0,0,1-.52.58Zm3.22-.55a.55.55,0,0,1-1.1,0V8.88A.57.57,0,0,1,8,8.36a.55.55,0,0,1,.51.52Zm3.24-8.75-.52,8.78a.56.56,0,0,1-.55.52h0a.55.55,0,0,1-.52-.58l.52-8.78a.55.55,0,0,1,.59-.51.56.56,0,0,1,.51.57Z" transform="translate(-0.89 -1.1)"/><path id="Trazado_56693" data-name="Trazado 56693" class="cls-1" d="M15.07,5.38l-.36-1.09A.71.71,0,0,0,14,3.81H1.94a.71.71,0,0,0-.66.48L.92,5.38A.45.45,0,0,0,1.2,6l.15,0H14.64a.48.48,0,0,0,.24-.07A.45.45,0,0,0,15.07,5.38Z" transform="translate(-0.89 -1.1)"/></g></svg>