<svg xmlns="http://www.w3.org/2000/svg" width="71" height="70" viewBox="0 0 71 70">
  <g id="Grupo_25047" data-name="Grupo 25047" transform="translate(20643 20689)">
    <g id="Grupo_25046" data-name="Grupo 25046" transform="translate(-20839.676 -20828.613)">
      <g id="Grupo_4173" data-name="Grupo 4173" transform="translate(196.677 139.915)">
        <g id="Elipse_133" data-name="Elipse 133" transform="translate(0 -0.302)" fill="#fff" stroke="#e4e4e4" stroke-width="1">
          <ellipse cx="35.5" cy="35" rx="35.5" ry="35" stroke="none"/>
          <ellipse cx="35.5" cy="35" rx="35" ry="34.5" fill="none"/>
        </g>
      </g>
      <g id="kjviUC" transform="translate(213.542 160.051)">
        <g id="Grupo_4082" data-name="Grupo 4082">
          <path id="Trazado_86919" data-name="Trazado 86919" d="M-1610.226,1322.567q-7.129,0-14.26,0a4.374,4.374,0,0,1-4.653-4.6q-.031-7.033,0-14.065a4.374,4.374,0,0,1,4.635-4.624c1.584-.014,3.17-.03,4.753.012a1.074,1.074,0,0,0,1.183-.711c.532-1.176,1.147-2.314,1.727-3.468a2.78,2.78,0,0,1,2.8-1.667c2.585.062,5.174.049,7.76,0a2.626,2.626,0,0,1,2.595,1.507c.611,1.175,1.224,2.35,1.783,3.549a1.14,1.14,0,0,0,1.234.791c1.583-.061,3.169-.032,4.754-.017a4.374,4.374,0,0,1,4.62,4.638q.025,7.032,0,14.065a4.369,4.369,0,0,1-4.666,4.585Q-1603.1,1322.572-1610.226,1322.567Zm.052-2.909a8.77,8.77,0,0,0,8.718-8.707,8.748,8.748,0,0,0-8.856-8.755,8.76,8.76,0,0,0-8.669,8.747A8.769,8.769,0,0,0-1610.174,1319.657Zm-14.631-14.558a1.447,1.447,0,0,0,1.485-1.445,1.442,1.442,0,0,0-1.373-1.456,1.433,1.433,0,0,0-1.528,1.392A1.438,1.438,0,0,0-1624.805,1305.1Z" transform="translate(1629.153 -1293.443)" fill="#fd8f47"/>
          <path id="Trazado_86920" data-name="Trazado 86920" d="M-1549.76,1361.2a4.341,4.341,0,0,0-4.323,4.4,4.356,4.356,0,0,0,4.361,4.267,4.351,4.351,0,0,0,4.371-4.353A4.342,4.342,0,0,0-1549.76,1361.2Z" transform="translate(1568.651 -1348.051)" fill="#fd8f47"/>
          <path id="Trazado_86921" data-name="Trazado 86921" d="M-1549.76,1361.2a4.342,4.342,0,0,1,4.409,4.312,4.351,4.351,0,0,1-4.371,4.353,4.356,4.356,0,0,1-4.361-4.267A4.341,4.341,0,0,1-1549.76,1361.2Z" transform="translate(1568.651 -1348.051)" fill="#fd8f47"/>
        </g>
      </g>
    </g>
  </g>
</svg>
