<svg id="img_vector_background" xmlns="http://www.w3.org/2000/svg" xmlns:xlink="http://www.w3.org/1999/xlink" width="375" height="736" viewBox="0 0 375 736">
  <defs>
    <clipPath id="clip-path">
      <rect id="Rectángulo_15577" data-name="Rectángulo 15577" width="375" height="736" fill="#fff"/>
    </clipPath>
    <clipPath id="clip-path-2">
      <rect id="Rectángulo_15574" data-name="Rectángulo 15574" width="389" height="773" transform="translate(-0.493 -0.055)" fill="none"/>
    </clipPath>
    <linearGradient id="linear-gradient" x1="0.5" y1="1.357" x2="0.499" y2="-1.456" gradientUnits="objectBoundingBox">
      <stop offset="0.116" stop-color="#58595b"/>
      <stop offset="0.968" stop-color="#fff"/>
    </linearGradient>
  </defs>
  <g id="Enmascarar_grupo_35838" data-name="Enmascarar grupo 35838" clip-path="url(#clip-path)">
    <g id="Grupo_35978" data-name="Grupo 35978" transform="translate(-350.146 -86.875)">
      <rect id="Rectángulo_15567" data-name="Rectángulo 15567" width="389" height="773" transform="translate(343.146 73.875)" fill="#7ae9f3"/>
      <g id="Grupo_35970" data-name="Grupo 35970" transform="translate(343.639 73.93)">
        <g id="Grupo_35969" data-name="Grupo 35969" transform="translate(0 0)" clip-path="url(#clip-path-2)">
          <g id="Grupo_35968" data-name="Grupo 35968" transform="translate(-19.046 101.567)">
            <path id="Trazado_112572" data-name="Trazado 112572" d="M737.323,314.038c82.949,498.579-39.227,640.248-199,602.062-208.219,56.98-228.283-174.13-199-602.062Z" transform="translate(-328.639 -110.732)" fill="#38b0bd"/>
            <g id="Grupo_35947" data-name="Grupo 35947" transform="translate(243.937 266.51)">
              <path id="Trazado_112573" data-name="Trazado 112573" d="M591.691,366.278h-69.7a1.232,1.232,0,1,1,0-2.463h69.7a1.232,1.232,0,0,1,0,2.463Z" transform="translate(-520.756 -363.815)" fill="#29e2cf"/>
            </g>
            <g id="Grupo_35948" data-name="Grupo 35948" transform="translate(224.988 273.748)">
              <path id="Trazado_112574" data-name="Trazado 112574" d="M540.792,371.979H507.064a1.232,1.232,0,0,1,0-2.463h33.728a1.232,1.232,0,1,1,0,2.463Z" transform="translate(-505.832 -369.516)" fill="#29e2cf"/>
            </g>
            <g id="Grupo_35949" data-name="Grupo 35949" transform="translate(65.766 228.877)">
              <path id="Trazado_112575" data-name="Trazado 112575" d="M395.5,336.639h-13.84a1.231,1.231,0,0,1,0-2.462H395.5a1.231,1.231,0,0,1,0,2.462Z" transform="translate(-380.434 -334.177)" fill="#29e2cf"/>
            </g>
            <g id="Grupo_35950" data-name="Grupo 35950" transform="translate(198.168 297.712)">
              <path id="Trazado_112576" data-name="Trazado 112576" d="M499.781,390.851H485.94a1.231,1.231,0,0,1,0-2.462h13.84a1.231,1.231,0,0,1,0,2.462Z" transform="translate(-484.71 -388.389)" fill="#29e2cf"/>
            </g>
            <g id="Grupo_35951" data-name="Grupo 35951" transform="translate(77.121 234.486)">
              <path id="Trazado_112577" data-name="Trazado 112577" d="M408.551,341.057H390.607a1.232,1.232,0,0,1,0-2.463h17.944a1.232,1.232,0,1,1,0,2.463Z" transform="translate(-389.377 -338.594)" fill="#29e2cf"/>
            </g>
            <g id="Grupo_35952" data-name="Grupo 35952" transform="translate(153.786 289.685)">
              <path id="Trazado_112578" data-name="Trazado 112578" d="M505.129,384.53H450.988a1.232,1.232,0,1,1,0-2.463h54.141a1.232,1.232,0,0,1,0,2.463Z" transform="translate(-449.756 -382.067)" fill="#29e2cf"/>
            </g>
            <g id="Grupo_35953" data-name="Grupo 35953" transform="translate(99.143 253.491)">
              <path id="Trazado_112579" data-name="Trazado 112579" d="M441.681,356.024H407.953a1.231,1.231,0,1,1,0-2.462h33.728a1.231,1.231,0,1,1,0,2.462Z" transform="translate(-406.721 -353.562)" fill="#219286"/>
            </g>
            <g id="Grupo_35954" data-name="Grupo 35954" transform="translate(129.209 259.727)">
              <path id="Trazado_112580" data-name="Trazado 112580" d="M449.95,360.935H431.63a1.231,1.231,0,0,1,0-2.462h18.32a1.231,1.231,0,1,1,0,2.462Z" transform="translate(-430.4 -358.473)" fill="#219286"/>
            </g>
            <g id="Grupo_35955" data-name="Grupo 35955" transform="translate(324.257 241.639)">
              <path id="Trazado_112581" data-name="Trazado 112581" d="M603.564,346.69h-18.32a1.231,1.231,0,1,1,0-2.462h18.32a1.231,1.231,0,0,1,0,2.462Z" transform="translate(-584.013 -344.228)" fill="#219286"/>
            </g>
            <g id="Grupo_35956" data-name="Grupo 35956" transform="translate(258.717 306.992)">
              <path id="Trazado_112582" data-name="Trazado 112582" d="M551.946,398.16h-18.32a1.231,1.231,0,0,1,0-2.462h18.32a1.231,1.231,0,1,1,0,2.462Z" transform="translate(-532.396 -395.698)" fill="#219286"/>
            </g>
            <g id="Grupo_35957" data-name="Grupo 35957" transform="translate(38.002 57.858)">
              <path id="Trazado_112583" data-name="Trazado 112583" d="M442.988,220.876a12.258,12.258,0,0,1-7.17,6.332,12.24,12.24,0,0,1-19.6,8.082,12.247,12.247,0,0,1-20.472-1.257,12.232,12.232,0,0,1-19.1-3.582,12.252,12.252,0,0,1-17.878-8.205c3.149,8.106,19.909,3.842,19.909,3.842,3.284,10.671,13.251,6.138,19.136,3.54,6.016,9.985,17.666.634,17.666.634,1.642,7.248,16.962,2.442,17.508-4.925C438.276,226.359,440.956,223.564,442.988,220.876Z" transform="translate(-358.512 -193.719)" fill="#a6ced4"/>
              <path id="Trazado_112584" data-name="Trazado 112584" d="M444.217,220.657c.013.234.02.467.02.706a12.164,12.164,0,0,1-1.194,5.282c-2.032,2.688-4.712,5.483-9.994,4.461-.546,7.367-15.867,12.173-17.508,4.925,0,0-11.65,9.352-17.666-.634-5.885,2.6-15.853,7.131-19.136-3.54,0,0-16.761,4.264-19.909-3.842a12.182,12.182,0,0,1-.262-2.519c0-.226,0-.452.02-.673-.013-.235-.02-.469-.02-.706,0-.267.008-.535.028-.8a12.242,12.242,0,0,1,8.336-10.814,12.239,12.239,0,0,1,19.6-8.081A12.252,12.252,0,0,1,407,205.677a12.239,12.239,0,0,1,19.1,3.583,12.247,12.247,0,0,1,18.139,10.724C444.237,220.21,444.233,220.435,444.217,220.657Z" transform="translate(-358.568 -199.488)" fill="#fff"/>
              <path id="Trazado_112585" data-name="Trazado 112585" d="M444.217,220.657c.013.234.02.467.02.706a12.164,12.164,0,0,1-1.194,5.282c-2.032,2.688-4.712,5.483-9.994,4.461-.546,7.367-15.867,12.173-17.508,4.925,0,0-11.65,9.352-17.666-.634-5.885,2.6-15.853,7.131-19.136-3.54,0,0-16.761,4.264-19.909-3.842a12.182,12.182,0,0,1-.262-2.519c0-.226,0-.452.02-.673-.013-.235-.02-.469-.02-.706,0-.267.008-.535.028-.8a12.242,12.242,0,0,1,8.336-10.814,12.239,12.239,0,0,1,19.6-8.081A12.252,12.252,0,0,1,407,205.677a12.239,12.239,0,0,1,19.1,3.583,12.247,12.247,0,0,1,18.139,10.724C444.237,220.21,444.233,220.435,444.217,220.657Z" transform="translate(-358.568 -199.488)" fill="#fff"/>
            </g>
            <g id="Grupo_35958" data-name="Grupo 35958" transform="translate(325.855 92.127)">
              <path id="Trazado_112586" data-name="Trazado 112586" d="M586.014,243.347a9.665,9.665,0,0,0,5.655,5,9.653,9.653,0,0,0,15.458,6.374,9.658,9.658,0,0,0,16.147-.99,9.648,9.648,0,0,0,15.063-2.826,9.66,9.66,0,0,0,14.1-6.471c-2.482,6.393-15.7,3.03-15.7,3.03-2.59,8.417-10.451,4.841-15.093,2.792-4.746,7.876-13.935.5-13.935.5-1.294,5.718-13.38,1.926-13.81-3.884C589.729,247.673,587.616,245.467,586.014,243.347Z" transform="translate(-585.072 -221.927)" fill="#a6ced4"/>
              <path id="Trazado_112587" data-name="Trazado 112587" d="M585.287,243.175c-.009.184-.015.368-.015.556a9.585,9.585,0,0,0,.942,4.166c1.6,2.12,3.715,4.326,7.883,3.52.429,5.81,12.516,9.6,13.81,3.884,0,0,9.189,7.376,13.935-.5,4.642,2.049,12.5,5.625,15.093-2.792,0,0,13.221,3.364,15.7-3.03a9.565,9.565,0,0,0,.207-1.987c0-.178,0-.357-.015-.532.009-.184.015-.368.015-.556,0-.211-.006-.422-.022-.631a9.657,9.657,0,0,0-6.575-8.53,9.654,9.654,0,0,0-15.458-6.374,9.663,9.663,0,0,0-16.147.99,9.654,9.654,0,0,0-15.063,2.826,9.66,9.66,0,0,0-14.309,8.458C585.272,242.822,585.275,243,585.287,243.175Z" transform="translate(-585.272 -226.477)" fill="#fff"/>
              <path id="Trazado_112588" data-name="Trazado 112588" d="M585.287,243.175c-.009.184-.015.368-.015.556a9.585,9.585,0,0,0,.942,4.166c1.6,2.12,3.715,4.326,7.883,3.52.429,5.81,12.516,9.6,13.81,3.884,0,0,9.189,7.376,13.935-.5,4.642,2.049,12.5,5.625,15.093-2.792,0,0,13.221,3.364,15.7-3.03a9.565,9.565,0,0,0,.207-1.987c0-.178,0-.357-.015-.532.009-.184.015-.368.015-.556,0-.211-.006-.422-.022-.631a9.657,9.657,0,0,0-6.575-8.53,9.654,9.654,0,0,0-15.458-6.374,9.663,9.663,0,0,0-16.147.99,9.654,9.654,0,0,0-15.063,2.826,9.66,9.66,0,0,0-14.309,8.458C585.272,242.822,585.275,243,585.287,243.175Z" transform="translate(-585.272 -226.477)" fill="#fff"/>
            </g>
            <g id="Grupo_35959" data-name="Grupo 35959" transform="translate(158.911)">
              <path id="Trazado_112589" data-name="Trazado 112589" d="M529.011,172.978a10.921,10.921,0,0,1-6.388,5.643,10.9,10.9,0,0,1-17.461,7.2,10.911,10.911,0,0,1-18.241-1.12,10.9,10.9,0,0,1-17.016-3.192,10.914,10.914,0,0,1-15.929-7.31c2.8,7.222,17.739,3.423,17.739,3.423,2.925,9.508,11.806,5.469,17.05,3.154,5.361,8.9,15.741.565,15.741.565,1.463,6.458,15.115,2.176,15.6-4.388C524.813,177.864,527.2,175.374,529.011,172.978Z" transform="translate(-453.742 -148.781)" fill="#a6ced4"/>
              <path id="Trazado_112590" data-name="Trazado 112590" d="M530.107,172.783c.011.208.018.418.018.63a10.865,10.865,0,0,1-1.064,4.706c-1.809,2.4-4.2,4.886-8.9,3.976-.485,6.565-14.137,10.846-15.6,4.388,0,0-10.38,8.332-15.741-.565-5.244,2.315-14.125,6.354-17.05-3.154,0,0-14.935,3.8-17.739-3.423a10.8,10.8,0,0,1-.234-2.245c0-.2,0-.4.018-.6-.011-.208-.018-.416-.018-.629,0-.237.006-.475.025-.712a10.909,10.909,0,0,1,7.427-9.637,10.9,10.9,0,0,1,17.461-7.2,10.916,10.916,0,0,1,18.241,1.119,10.9,10.9,0,0,1,17.014,3.192,10.913,10.913,0,0,1,16.164,9.556C530.125,172.384,530.122,172.586,530.107,172.783Z" transform="translate(-453.792 -153.921)" fill="#fff"/>
              <path id="Trazado_112591" data-name="Trazado 112591" d="M530.107,172.783c.011.208.018.418.018.63a10.865,10.865,0,0,1-1.064,4.706c-1.809,2.4-4.2,4.886-8.9,3.976-.485,6.565-14.137,10.846-15.6,4.388,0,0-10.38,8.332-15.741-.565-5.244,2.315-14.125,6.354-17.05-3.154,0,0-14.935,3.8-17.739-3.423a10.8,10.8,0,0,1-.234-2.245c0-.2,0-.4.018-.6-.011-.208-.018-.416-.018-.629,0-.237.006-.475.025-.712a10.909,10.909,0,0,1,7.427-9.637,10.9,10.9,0,0,1,17.461-7.2,10.916,10.916,0,0,1,18.241,1.119,10.9,10.9,0,0,1,17.014,3.192,10.913,10.913,0,0,1,16.164,9.556C530.125,172.384,530.122,172.586,530.107,172.783Z" transform="translate(-453.792 -153.921)" fill="#fff"/>
            </g>
            <path id="Trazado_112592" data-name="Trazado 112592" d="M546.1,231.737c-.742,1.121-1.444,2.3-2.115,3.512-.932,1.665-1.8,3.421-2.612,5.253a93.889,93.889,0,0,0-4.9,14.08,149.949,149.949,0,0,0-3.084,14.751c-.672,4.231-1.206,8.559-1.627,12.942-.755,7.979-1.114,16.1-1.2,24.028,0,.259-.008.519-.008.78v.008c0,.35-.006.708-.006,1.06-.024,5.032.052,9.964.212,14.729.138,4.2.329,8.253.566,12.109q-8.281-.6-16.753-.871l-.121.542-2.72-.618q-3.573-.091-7.184-.114c.061-.489.122-.976.19-1.474.03-.251.069-.5.1-.756v-.008c.084-.611.168-1.22.251-1.832.069-.5.145-1.008.213-1.511.985-6.689,2.2-13.523,3.574-20.3.862-4.276,1.778-8.529,2.74-12.728,1.436-6.292,2.962-12.438,4.5-18.3l.039-.16-.009-.009c.015-.044.023-.1.038-.145.053-.2.108-.4.152-.588,5.888-22.364,11.844-40.413,13.622-45.7.352-1.039.542-1.58.542-1.58s.091-.008.282-.015h.009c.244,0,.663.008,1.282.053.038.008.061.008.091.015h.008c.306.022.649.061,1.054.107s.885.107,1.4.19l.314.046h.008c.19.032.381.061.588.093.236.046.481.084.74.13a1.465,1.465,0,0,0,.192.037,1.406,1.406,0,0,0,.206.039h.008c.2.038.405.076.618.122h.015c.985.192,2.093.428,3.344.71h.015c.3.076.612.145.923.222h.017C542.962,230.9,544.459,231.286,546.1,231.737Z" transform="translate(-281.19 -133.718)" fill="#f4b861"/>
            <path id="Trazado_112593" data-name="Trazado 112593" d="M528.6,248.608c30.758-31.955,35.208-57.19,45.684-84.235-10.4,11.627-37.923,50.9-45.684,84.235Z" transform="translate(-274.704 -151.102)" fill="#91b637"/>
            <path id="Trazado_112594" data-name="Trazado 112594" d="M574.823,164.844q.427-1.1.868-2.216-3.285,1.084-6.288,2.311c-46.821,19.047-44.288,62.175-41.572,78.092.065.381,1.241,5.7,1.308,6.048C536.9,215.741,564.422,176.471,574.823,164.844Z" transform="translate(-275.247 -151.572)" fill="#a4da2d"/>
            <path id="Trazado_112595" data-name="Trazado 112595" d="M536.448,249.488v.017l-.008,0a.048.048,0,0,0-.015-.017h-.005a.287.287,0,0,0-.037-.033l0,0-.075-.062,0,0c-.406-.328-.8-.656-1.2-.993q-.488-.406-.961-.816a.129.129,0,0,1-.029-.029c-.015-.013-.028-.024-.041-.033-.185-.16-.366-.316-.546-.48q-.85-.739-1.666-1.5c-.169-.155-.337-.311-.505-.471-.213-.2-.427-.4-.635-.6-.3-.292-.6-.583-.9-.875q-1.034-1.009-2.023-2.039c-.439-.46-.87-.919-1.3-1.379q-2.628-2.851-4.929-5.8c-.427-.55-.849-1.1-1.26-1.653-.127-.169-.254-.336-.377-.505q-1-1.354-1.934-2.721c-.245-.361-.493-.726-.734-1.091a98.366,98.366,0,0,1-6.284-10.943c-.168-.34-.333-.673-.493-1.013-.041-.086-.085-.177-.127-.267-.184-.386-.366-.772-.541-1.158-.149-.324-.3-.649-.444-.973-.168-.377-.337-.755-.5-1.133-.048-.107-.094-.217-.14-.324-.107-.246-.213-.5-.32-.747q-.615-1.467-1.174-2.919c-.147-.386-.295-.771-.438-1.157q-.461-1.238-.882-2.463c-.078-.225-.156-.451-.234-.677-.082-.25-.169-.5-.25-.755-.1-.291-.193-.583-.284-.874a116.567,116.567,0,0,1-4.095-17.242c-.066-.41-.127-.816-.189-1.219s-.114-.8-.173-1.2c-.011-.1-.024-.2-.041-.295-.037-.3-.077-.588-.116-.879-.2-1.552-.364-3.041-.493-4.457-.032-.358-.065-.706-.09-1.051-.015-.173-.028-.34-.041-.513-.057-.682-.1-1.342-.14-1.986-.09-1.445-.144-2.791-.177-4.026q-.023-.825-.028-1.576c-.013-1.044-.005-1.983.013-2.812,0-.114,0-.23,0-.34.008-.34.015-.664.028-.96.005-.169.009-.333.017-.489.041-1.083.1-1.822.123-2.166,0-.038.009-.071.009-.1s0-.05.008-.07c0-.037,0-.057,0-.057,3.53,10.259,8.713,15.644,14.107,21.572a77.695,77.695,0,0,1-5.467,11v3.489c0-1.326,6.817-6.686,10.088-9.178a61,61,0,0,1,5.323,7.646l-8.7,3.48V200.8l10.937-.538c3.111,6.383,5.848,14.7,7.83,26.361v.009c1.022,5.972,1.839,12.817,2.409,20.739.05.636.091,1.276.136,1.929v.017a.115.115,0,0,0,0,.033v.053a.116.116,0,0,1,0,.037A.177.177,0,0,0,536.448,249.488Z" transform="translate(-282.534 -151.86)" fill="#a4da2d"/>
            <path id="Trazado_112596" data-name="Trazado 112596" d="M501,161.56c-25.033,55.905,36.671,87.944,36.671,87.944C495.745,215.461,501,161.56,501,161.56Z" transform="translate(-283.759 -151.861)" fill="#91b637"/>
            <path id="Trazado_112597" data-name="Trazado 112597" d="M546.917,234.671l-.124-.025h0a.167.167,0,0,0-.019,0h-.005a.041.041,0,0,0-.02,0,.1.1,0,0,0-.041-.009v0c-.583-.11-2.34-.447-5.048-.915a410.128,410.128,0,0,0-57.315-5.737l2.237-6.817h-1.642l-8.065,6.739c-5.22.009-10.473.173-15.653.526,0,0,32.8-24.05,71.174-3.587a84.738,84.738,0,0,1,11.382,7.342c.213.161.43.325.644.493.013.009.025.02.041.033.74.57,1.482,1.166,2.225,1.778.029.02.055.044.083.065v.005h.005l0,0,.011.013a.234.234,0,0,1,.041.032C546.854,234.622,546.887,234.646,546.917,234.671Z" transform="translate(-292.878 -137.019)" fill="#91b637"/>
            <path id="Trazado_112598" data-name="Trazado 112598" d="M546.916,236.813c-44.625-54.5-83.847-14.6-85.7-6.252C461.219,230.56,502.686,200.155,546.916,236.813Z" transform="translate(-292.878 -139.159)" fill="#a4da2d"/>
            <path id="Trazado_112599" data-name="Trazado 112599" d="M613.212,223.089s-.131-.029-.39-.079c-.086-.017-.18-.037-.291-.057h-.005c-4.043-.788-25.315-4.613-46.077-2.315-.127.013-.254.024-.381.041-13.721,1.568-27.17,5.832-35.222,15.444-.361.427-.71.862-1.042,1.314-.057.074-.116.151-.171.23h-.005v0l-.242.024c-.155.017-.287.033-.4.042-.1.008-.185.02-.271.028h-.022a.065.065,0,0,1-.029,0,.09.09,0,0,1-.037.005h-.008c-.02,0-.037,0-.053.008h-.009l.005,0,.037-.057,0-.005.005-.008a.042.042,0,0,1,.015-.02v0l0-.005a.572.572,0,0,0,.033-.053q.579-.861,1.158-1.7a96.479,96.479,0,0,1,14.541-16.933l0,0c8.439-7.626,16.786-11.649,24.6-13.278l6.193,11.23h2.085l-1.658-12.071C596.082,203.9,611.64,218.3,613.212,223.089Z" transform="translate(-274.715 -140.191)" fill="#a4da2d"/>
            <path id="Trazado_112600" data-name="Trazado 112600" d="M613.212,219.871s-64.156-13.2-84.658,14.695C538.076,233.548,609.588,225.727,613.212,219.871Z" transform="translate(-274.715 -136.974)" fill="#91b637"/>
            <path id="Trazado_112601" data-name="Trazado 112601" d="M577.409,284.48l1.5-8.882-1.129-1.387-4.823,7.189c-14.184-11.73-29.865-30.112-38.036-41.393-2.561-3.543-4.675-6.632-6.239-9.009h0c-.037-.057-.077-.114-.114-.173l-.013-.02c-.016-.024-.028-.044-.042-.066l0,0c-.011-.017-.02-.033-.033-.05,0,0,.051.022.148.058h.009l0,0,.011,0c.017.009.033.017.053.025l.038.011c.914.366,4.165,1.687,8.8,3.956,16.471,8.049,50.461,28,59.712,59.109C590.633,292.363,583.932,288.982,577.409,284.48Z" transform="translate(-274.738 -133.215)" fill="#91b637"/>
            <path id="Trazado_112602" data-name="Trazado 112602" d="M597.243,294.128s-.715-75.144-68.771-63.167C528.472,230.961,584.9,252.607,597.243,294.128Z" transform="translate(-274.738 -133.49)" fill="#a4da2d"/>
            <g id="Grupo_35960" data-name="Grupo 35960" transform="translate(247.82 118.469)">
              <rect id="Rectángulo_15568" data-name="Rectángulo 15568" width="1.527" height="7.482" transform="matrix(0.221, -0.975, 0.975, 0.221, 0, 1.489)" fill="#915b35"/>
            </g>
            <g id="Grupo_35961" data-name="Grupo 35961" transform="translate(234.799 142.384)">
              <rect id="Rectángulo_15569" data-name="Rectángulo 15569" width="1.527" height="6.139" transform="translate(0 1.49) rotate(-77.243)" fill="#915b35"/>
            </g>
            <g id="Grupo_35962" data-name="Grupo 35962" transform="translate(239.211 170.359)">
              <rect id="Rectángulo_15570" data-name="Rectángulo 15570" width="1.528" height="10.239" transform="translate(0 1.49) rotate(-77.215)" fill="#915b35"/>
            </g>
            <g id="Grupo_35963" data-name="Grupo 35963" transform="translate(223.901 194.629)">
              <path id="Trazado_112603" data-name="Trazado 112603" d="M514.681,309.357l-.222.946-.121.542-2.72-.62-6.642-1.511c.069-.5.145-1.008.213-1.511Z" transform="translate(-504.976 -307.204)" fill="#915b35"/>
            </g>
            <g id="Grupo_35967" data-name="Grupo 35967" transform="translate(117.238 97.606)">
              <path id="Trazado_112604" data-name="Trazado 112604" d="M489.009,325.666q-7.788,1.044-15.317,2.336c-.069-.35-.137-.695-.213-1.046v-.008c-.053-.251-.107-.5-.161-.756-.932-4.481-1.992-8.948-3.191-13.308a134.828,134.828,0,0,0-7.338-20.539c-.114-.259-.236-.519-.352-.771-.1-.206-.2-.411-.3-.611l-.038-.076a70.955,70.955,0,0,0-6.039-10.369c-.405-.582-.825-1.154-1.253-1.7a.816.816,0,0,0-.076-.091c-.069-.093-.137-.184-.215-.275a1.76,1.76,0,0,0-.152-.2c-.122-.16-.251-.32-.381-.481-.245-.3-.489-.6-.733-.885.632-.251,1.221-.5,1.771-.725.289-.114.564-.23.832-.335.3-.131.6-.245.87-.368.314-.121.62-.244.894-.358.069-.03.145-.061.206-.091.146-.053.283-.114.42-.168a2.984,2.984,0,0,0,.291-.123c.228-.091.443-.175.649-.259.046-.023.091-.038.137-.061.076-.03.152-.061.221-.084a1.061,1.061,0,0,1,.169-.07c.114-.052.236-.1.343-.143.13-.055.253-.108.375-.154.848-.35,1.435-.6,1.847-.763l.924-.375s.436.78,1.229,2.222a.46.46,0,0,0,.03.061c.611,1.115,1.427,2.612,2.413,4.452.955,1.794,2.076,3.917,3.314,6.307,2.336,4.505,5.108,9.986,8.055,16.11.114.23.222.466.336.695l.015.03c.306.641.626,1.291.931,1.948C482.618,311.121,485.862,318.253,489.009,325.666Z" transform="translate(-412.265 -219.459)" fill="#f4b861"/>
              <path id="Trazado_112605" data-name="Trazado 112605" d="M459.858,285.358c5.611-24.55-2.245-37.674-7.131-53.54-1.553,8.684-2.082,35.608,7.131,53.54Z" transform="translate(-412.647 -230.515)" fill="#91b637"/>
              <path id="Trazado_112606" data-name="Trazado 112606" d="M462.355,285.632c-.066-.05-.452-.324-.943-.669a.1.1,0,0,0-.033-.024c-.123-.09-.251-.18-.382-.276-.033-.024-.066-.044-.1-.07-.077-.053-.151-.107-.225-.16-.037-.028-.074-.053-.112-.081l-.008-.005-.123-.085-.037-.025c-.041-.033-.083-.061-.123-.09l-.013-.008a.506.506,0,0,1-.044-.033c-.612-.432-1.129-.805-1.211-.866-.91-.71-1.958-1.572-3.07-2.574-5.577-5.019-12.846-13.548-13.35-24.239l7.022-2.741v-2.192l-6.891.969c.636-5.738,3.324-12.005,9.193-18.613q1.348-1.52,2.927-3.057c.127.439.259.871.394,1.3-1.411,7.88-1.978,30.781,4.819,48.352.127.34.263.677.4,1.013.1.263.21.521.32.78.07.16.136.316.21.476.1.237.2.476.32.715.046.11.094.221.152.331.086.2.18.395.271.592.016.028.028.053.041.077.029.062.058.123.086.18a.983.983,0,0,0,.057.116c.017.037.033.07.053.107C462.084,285.1,462.219,285.365,462.355,285.632Z" transform="translate(-415.143 -230.792)" fill="#a4da2d"/>
              <path id="Trazado_112607" data-name="Trazado 112607" d="M467.731,276.442c-.2.042-.4.079-.6.116l-.013,0c-.017,0-.029.005-.041.005l-.463.085h-.005a.258.258,0,0,0-.057.009c-.25.044-.5.086-.752.123l-.32.05c-.353.053-.706.1-1.059.147s-.7.09-1.05.127-.693.074-1.042.1c-.665.061-1.322.107-1.974.14-.053,0-.107.008-.164.008-.645.029-1.285.05-1.921.053h0c-22.482.215-37.295-14.6-37.295-14.6a26.6,26.6,0,0,0,10.88,1.486l1.555,5.269h1.1v-5.4c1.522-.075,3.091-.132,4.777-.053l-.989,3.8,1.326,1.011,2.853-4.511c4.97.719,11.134,2.837,19.974,8.472l.005,0q2.038,1.293,4.273,2.852v.005a.242.242,0,0,1,.061.041c.057.037.116.077.169.114.1.07.2.145.3.215.008,0,.017.011.024.015.053.037.1.075.156.112Z" transform="translate(-420.972 -222.156)" fill="#a4da2d"/>
              <path id="Trazado_112608" data-name="Trazado 112608" d="M420.972,262.809c12.989,27.341,46.757,13.633,46.757,13.633C440.032,281.878,420.972,262.809,420.972,262.809Z" transform="translate(-420.972 -222.156)" fill="#91b637"/>
              <path id="Trazado_112609" data-name="Trazado 112609" d="M464.469,273.647l-.325.254c-.061.053-.127.107-.2.169-.037.028-.079.061-.119.094s-.074.062-.111.09c-.9.735-2.565,2.1-4.7,3.965v0c-3.234,2.828-7.564,6.792-12,11.409l-2.134-2.47-1.05.894.684,4.232a121.808,121.808,0,0,0-7.9,9.48s1.51-20.036,22.118-26.718c.734-.237,1.5-.46,2.282-.66l.013,0c.664-.173,1.35-.333,2.052-.472.041-.013.081-.02.123-.029.283-.057.57-.111.862-.164Z" transform="translate(-416.754 -219.233)" fill="#91b637"/>
              <path id="Trazado_112610" data-name="Trazado 112610" d="M464.727,273.651c-32.443-.71-30.229,24.971-27.861,28.118C436.867,301.769,438.648,278.148,464.727,273.651Z" transform="translate(-417.011 -219.235)" fill="#a4da2d"/>
              <path id="Trazado_112611" data-name="Trazado 112611" d="M491.687,246.24s-.171.077-.488.234c-2.438,1.169-13.589,6.727-22.393,14.57-.16.143-.324.287-.484.43a43.124,43.124,0,0,0-7.284,8.336,20.171,20.171,0,0,0-3.436,9.362c-.02.3-.037.607-.037.91,0,.246,0,.5.009.744v.037c-.127.114-.243.217-.345.307l-.111.1-.009.008c-.008-.07-.011-.14-.017-.206a.991.991,0,0,1-.008-.1c-.016-.173-.033-.345-.044-.513-.082-1.055-.136-2.085-.161-3.079v0c-.2-7.773,1.314-13.745,3.813-18.3,4.543-8.281,12.346-11.894,19.04-13.17l.5,3.484h1.506l1.346-3.953C487.223,245.071,490.526,245.575,491.687,246.24Z" transform="translate(-411.291 -226.875)" fill="#a4da2d"/>
              <path id="Trazado_112612" data-name="Trazado 112612" d="M491.638,246.042s-35.31,16.433-34.58,35.037C461.186,277.4,492.113,249.717,491.638,246.042Z" transform="translate(-411.241 -226.679)" fill="#91b637"/>
              <path id="Trazado_112613" data-name="Trazado 112613" d="M456.858,274.929c6.382,1.244,25.85,4.116,34.273-2.566C476.023,264.335,456.858,274.929,456.858,274.929Z" transform="translate(-411.292 -220.39)" fill="#91b637"/>
              <path id="Trazado_112614" data-name="Trazado 112614" d="M491.131,273.547s-22.458-20.919-34.273,2.566C456.858,276.113,476.023,265.52,491.131,273.547Z" transform="translate(-411.292 -221.574)" fill="#a4da2d"/>
              <g id="Grupo_35964" data-name="Grupo 35964" transform="translate(49.545 68.825)">
                <rect id="Rectángulo_15571" data-name="Rectángulo 15571" width="4.889" height="1.527" transform="translate(0 1.898) rotate(-22.838)" fill="#915b35"/>
              </g>
              <g id="Grupo_35965" data-name="Grupo 35965" transform="translate(59.358 82.488)">
                <rect id="Rectángulo_15572" data-name="Rectángulo 15572" width="7.226" height="1.528" transform="translate(0 2.804) rotate(-22.833)" fill="#915b35"/>
              </g>
              <g id="Grupo_35966" data-name="Grupo 35966" transform="translate(60.919 104.029)">
                <rect id="Rectángulo_15573" data-name="Rectángulo 15573" width="7.113" height="1.527" transform="translate(0 2.762) rotate(-22.844)" fill="#915b35"/>
              </g>
            </g>
            <path id="Trazado_112615" data-name="Trazado 112615" d="M631.613,332.161c-4.717,14-52.653,12.807-111.192,12.807s-106.476,1.152-111.192-12.845a11.652,11.652,0,0,1-.954,1.77c4.886,14.5,51.489,16.4,112.144,16.4S627.762,348.7,632.647,334.2C632.042,332.868,632.144,333.212,631.613,332.161Z" transform="translate(-307.158 -105.854)" fill="#219286"/>
            <path id="Trazado_112616" data-name="Trazado 112616" d="M519.6,351.565c56.455,0,103.661-2.722,108.211-16.22q-.907-1.044-2.044-2.118l-.013-.009c-.358-.339-.735-.678-1.126-1.021l-.185-.161c-.154-.133-.312-.268-.472-.4-.086-.074-.173-.146-.26-.218-.151-.126-.309-.253-.465-.38l-.3-.24c-.155-.122-.311-.245-.469-.367-.11-.086-.224-.171-.335-.258l-.472-.358c-.121-.09-.244-.179-.366-.269-.159-.117-.317-.234-.48-.35-.131-.1-.267-.19-.4-.286-.159-.112-.315-.225-.476-.338l-.471-.323c-.245-.168-.493-.334-.744-.5-.2-.135-.405-.27-.612-.405-.142-.094-.289-.187-.436-.281-.184-.118-.367-.236-.555-.354l-.456-.283q-.282-.177-.57-.354c-.154-.094-.31-.188-.465-.281-.2-.121-.4-.239-.6-.357-.156-.093-.314-.185-.471-.277-.208-.122-.418-.243-.63-.364-.154-.089-.308-.179-.465-.267-.226-.128-.453-.255-.683-.383l-.441-.246-.78-.424-.377-.2q-.528-.282-1.068-.564c-.039-.02-.077-.042-.118-.062q-.613-.32-1.246-.639l-.213-.107q-.514-.261-1.041-.519l-.372-.18c-.3-.149-.608-.3-.917-.443-.141-.069-.284-.135-.427-.2-.3-.141-.6-.282-.9-.423-.146-.069-.295-.137-.442-.2q-.455-.209-.918-.418l-.447-.2q-.482-.215-.97-.429c-.136-.06-.272-.121-.409-.179q-.547-.24-1.1-.475c-.1-.043-.2-.086-.3-.128q-2.171-.92-4.468-1.811l-.27-.1q-.621-.24-1.251-.479l-.383-.143q-.585-.219-1.177-.436l-.418-.151q-.585-.213-1.178-.424c-.14-.051-.281-.1-.422-.15-.41-.143-.824-.288-1.239-.43l-.366-.127q-.691-.238-1.392-.47l-.236-.079q-2.531-.84-5.174-1.637l-.093-.028q-.813-.244-1.639-.484l-.276-.079q-.743-.215-1.492-.427l-.336-.094q-.735-.206-1.479-.408l-.329-.089q-.771-.208-1.549-.41l-.262-.069q-.865-.227-1.738-.444l-.083-.02q-3.8-.95-7.771-1.79l-.018,0q-.968-.2-1.944-.4l-.112-.023q-.947-.19-1.9-.373l-.112-.02q-.985-.189-1.978-.369l-.016,0a222.8,222.8,0,0,0-34.4-3.513q-1.718-.042-3.451-.056c-.587,0-1.171-.009-1.759-.009-.2,0-.4,0-.6,0q-1.261,0-2.513.022c-.385.005-.769.01-1.154.018q-1.438.029-2.87.075l-1.106.041q-1.143.044-2.28.1c-.334.015-.668.03-1,.048-.933.048-1.861.105-2.788.165-.392.027-.786.052-1.177.08-.926.066-1.849.135-2.765.211-.349.029-.7.061-1.045.091q-1.059.1-2.113.2c-.367.036-.735.07-1.1.108q-1.339.137-2.669.291c-.395.044-.787.091-1.181.138q-1.131.135-2.255.282l-1.065.142q-1.817.248-3.609.517l-.135.019q-2.03.31-4.029.654-1.406.24-2.793.5l-.524.1q-1.28.238-2.546.491l-.192.037q-1.347.27-2.677.555l-.541.117q-1.16.251-2.306.51c-.123.029-.246.056-.368.084q-1.286.3-2.55.6l-.543.133q-1.065.261-2.115.531l-.5.127q-1.221.316-2.424.643l-.528.146q-.99.272-1.966.551l-.585.166q-1.158.333-2.3.677l-.51.157q-.926.282-1.837.57l-.646.2q-1.091.349-2.165.7l-.486.164q-.872.293-1.731.592c-.227.079-.456.157-.682.237-.686.24-1.368.484-2.039.729l-.425.157q-.838.31-1.66.621-.35.133-.7.268-.853.328-1.691.66l-.579.231q-.807.326-1.6.654c-.236.1-.47.2-.7.295q-.718.3-1.422.606l-.582.251c-.546.239-1.082.477-1.614.719-.232.1-.463.211-.693.316q-.617.284-1.222.566c-.192.091-.386.18-.575.27q-.8.381-1.572.763c-.222.109-.442.22-.662.329-.363.183-.724.364-1.081.549-.2.1-.4.2-.6.3-.49.255-.97.509-1.444.766-.21.113-.415.225-.621.338q-.489.267-.965.535c-.2.11-.4.221-.59.331-.447.255-.886.509-1.319.766-.19.112-.376.225-.563.336q-.442.265-.872.529c-.187.116-.375.23-.559.345q-.609.383-1.2.766c-.166.108-.329.217-.493.325-.269.179-.535.357-.8.536-.17.116-.342.232-.508.348-.367.255-.729.51-1.079.764-.138.1-.271.2-.408.3-.248.183-.491.364-.73.547-.152.116-.3.232-.452.348-.29.226-.574.451-.85.676l-.42.347q-.343.288-.673.571c-.129.113-.258.225-.385.338q-.345.307-.673.613c-.062.058-.13.117-.19.175l-.006.005a4.752,4.752,0,0,1-1.014,1q-.573.588-1.074,1.168C415.884,348.9,463.136,351.565,519.6,351.565Z" transform="translate(-306.333 -113.833)" fill="#fde4a3"/>
            <path id="Trazado_112617" data-name="Trazado 112617" d="M519.6,351.565c56.455,0,103.661-2.722,108.211-16.22q-.907-1.044-2.044-2.118l-.013-.009c-.358-.339-.735-.678-1.126-1.021l-.185-.161c-.154-.133-.312-.268-.472-.4-.086-.074-.173-.146-.26-.218-.151-.126-.309-.253-.465-.38l-.3-.24c-.155-.122-.311-.245-.469-.367-.11-.086-.224-.171-.335-.258l-.472-.358c-.121-.09-.244-.179-.366-.269-.159-.117-.317-.234-.48-.35-.131-.1-.267-.19-.4-.286-.159-.112-.315-.225-.476-.338l-.471-.323c-.245-.168-.493-.334-.744-.5-.2-.135-.405-.27-.612-.405-.142-.094-.289-.187-.436-.281-.184-.118-.367-.236-.555-.354l-.456-.283q-.282-.177-.57-.354c-.154-.094-.31-.188-.465-.281-.2-.121-.4-.239-.6-.357-.156-.093-.314-.185-.471-.277-.208-.122-.418-.243-.63-.364-.154-.089-.308-.179-.465-.267-.226-.128-.453-.255-.683-.383l-.441-.246-.78-.424-.377-.2q-.528-.282-1.068-.564c-.039-.02-.077-.042-.118-.062q-.613-.32-1.246-.639l-.213-.107q-.514-.261-1.041-.519l-.372-.18c-.3-.149-.608-.3-.917-.443-.141-.069-.284-.135-.427-.2-.3-.141-.6-.282-.9-.423-.146-.069-.295-.137-.442-.2q-.455-.209-.918-.418l-.447-.2q-.482-.215-.97-.429c-.136-.06-.272-.121-.409-.179q-.547-.24-1.1-.475c-.1-.043-.2-.086-.3-.128q-2.171-.92-4.468-1.811l-.27-.1q-.621-.24-1.251-.479l-.383-.143q-.585-.219-1.177-.436l-.418-.151q-.585-.213-1.178-.424c-.14-.051-.281-.1-.422-.15-.41-.143-.824-.288-1.239-.43l-.366-.127q-.691-.238-1.392-.47l-.236-.079q-2.531-.84-5.174-1.637l-.093-.028q-.813-.244-1.639-.484l-.276-.079q-.743-.215-1.492-.427l-.336-.094q-.735-.206-1.479-.408l-.329-.089q-.771-.208-1.549-.41l-.262-.069q-.865-.227-1.738-.444l-.083-.02q-3.8-.95-7.771-1.79l-.018,0q-.968-.2-1.944-.4l-.112-.023q-.947-.19-1.9-.373l-.112-.02q-.985-.189-1.978-.369l-.016,0a222.8,222.8,0,0,0-34.4-3.513q-1.718-.042-3.451-.056c-.587,0-1.171-.009-1.759-.009-.2,0-.4,0-.6,0q-1.261,0-2.513.022c-.385.005-.769.01-1.154.018q-1.438.029-2.87.075l-1.106.041q-1.143.044-2.28.1c-.334.015-.668.03-1,.048-.933.048-1.861.105-2.788.165-.392.027-.786.052-1.177.08-.926.066-1.849.135-2.765.211-.349.029-.7.061-1.045.091q-1.059.1-2.113.2c-.367.036-.735.07-1.1.108q-1.339.137-2.669.291c-.395.044-.787.091-1.181.138q-1.131.135-2.255.282l-1.065.142q-1.817.248-3.609.517l-.135.019q-2.03.31-4.029.654-1.406.24-2.793.5l-.524.1q-1.28.238-2.546.491l-.192.037q-1.347.27-2.677.555l-.541.117q-1.16.251-2.306.51c-.123.029-.246.056-.368.084q-1.286.3-2.55.6l-.543.133q-1.065.261-2.115.531l-.5.127q-1.221.316-2.424.643l-.528.146q-.99.272-1.966.551l-.585.166q-1.158.333-2.3.677l-.51.157q-.926.282-1.837.57l-.646.2q-1.091.349-2.165.7l-.486.164q-.872.293-1.731.592c-.227.079-.456.157-.682.237-.686.24-1.368.484-2.039.729l-.425.157q-.838.31-1.66.621-.35.133-.7.268-.853.328-1.691.66l-.579.231q-.807.326-1.6.654c-.236.1-.47.2-.7.295q-.718.3-1.422.606l-.582.251c-.546.239-1.082.477-1.614.719-.232.1-.463.211-.693.316q-.617.284-1.222.566c-.192.091-.386.18-.575.27q-.8.381-1.572.763c-.222.109-.442.22-.662.329-.363.183-.724.364-1.081.549-.2.1-.4.2-.6.3-.49.255-.97.509-1.444.766-.21.113-.415.225-.621.338q-.489.267-.965.535c-.2.11-.4.221-.59.331-.447.255-.886.509-1.319.766-.19.112-.376.225-.563.336q-.442.265-.872.529c-.187.116-.375.23-.559.345q-.609.383-1.2.766c-.166.108-.329.217-.493.325-.269.179-.535.357-.8.536-.17.116-.342.232-.508.348-.367.255-.729.51-1.079.764-.138.1-.271.2-.408.3-.248.183-.491.364-.73.547-.152.116-.3.232-.452.348-.29.226-.574.451-.85.676l-.42.347q-.343.288-.673.571c-.129.113-.258.225-.385.338q-.345.307-.673.613c-.062.058-.13.117-.19.175l-.006.005a4.752,4.752,0,0,1-1.014,1q-.573.588-1.074,1.168C415.884,348.9,463.136,351.565,519.6,351.565Z" transform="translate(-306.333 -113.833)" fill="url(#linear-gradient)" style="mix-blend-mode: overlay;isolation: isolate"/>
            <path id="Trazado_112618" data-name="Trazado 112618" d="M628.429,328.377c-4.549,13.5-51.756,16.22-108.211,16.22s-103.712-2.664-108.259-16.162a14.692,14.692,0,0,0-2.933,4.751c4.712,13.982,52.7,16.548,111.191,16.548s106.482-2.566,111.193-16.548A14.808,14.808,0,0,0,628.429,328.377Z" transform="translate(-306.956 -106.864)" fill="#f4b861"/>
          </g>
        </g>
      </g>
      <rect id="Rectángulo_15575" data-name="Rectángulo 15575" width="19" height="8" transform="translate(646.146 416.875)" fill="none"/>
      <path id="Trazado_112625" data-name="Trazado 112625" d="M580.506,117.612l-.5-.312q-1.6-.988-3.193-1.978a.179.179,0,0,0-.212-.008,17.913,17.913,0,0,1-2.736,1.251,5.856,5.856,0,0,1-1.939.3,32.857,32.857,0,0,1-3.427-.188c-.515-.053-1.028-.127-1.543-.193a.438.438,0,0,1-.1-.047c.019-.037.028-.088.058-.109a6.96,6.96,0,0,1,.733-.493q1.8-.948,3.621-1.869c1.211-.616,2.433-1.211,3.643-1.828.394-.2.768-.437,1.149-.663a3.094,3.094,0,0,1,.993-.428,1.912,1.912,0,0,1,1.211.175c.584.283,1.162.582,1.724.905a43.168,43.168,0,0,1,3.986,2.685c.453.333.9.674,1.362,1.021l.1-.118c1.2-1.3,2.391-2.613,3.607-3.9.758-.8,1.547-1.578,2.338-2.349a39.68,39.68,0,0,1,3.394-3.005,8.217,8.217,0,0,1,1.5-.975,1.866,1.866,0,0,1,.678-.17c.509-.038,1.017-.093,1.525-.146a11.8,11.8,0,0,1,2.28-.008c.532.048,1.065.088,1.6.132a14.079,14.079,0,0,1,3.136.613c1.161.369,2.343.67,3.508,1.023.514.155,1.013.358,1.514.552a1.494,1.494,0,0,1,.392.248c.161.135.146.277-.033.387a2.12,2.12,0,0,1-.9.268,13.372,13.372,0,0,1-2.354,0c-1-.063-2.005-.143-3.008-.21-.651-.043-1.305-.086-1.958-.1s-1.324-.018-1.986,0a6.818,6.818,0,0,0-2.01.329,2.26,2.26,0,0,0-1.041.73,14.624,14.624,0,0,0-1.493,2.321,52.25,52.25,0,0,0-2.4,5.169c-.016.041-.032.081-.055.143.061,0,.111,0,.16,0,.841.018,1.682.029,2.523.057a30.01,30.01,0,0,1,3.568.367c.649.1,1.293.236,1.936.363a1.876,1.876,0,0,1,.382.136c.171.077.2.145.117.31a4.361,4.361,0,0,1-.326.542,12.313,12.313,0,0,1-1.69,1.9,3.186,3.186,0,0,1-1.4.7,7.354,7.354,0,0,1-1.863.286,1.665,1.665,0,0,1-.466-.077c-1.174-.353-2.348-.709-3.518-1.075a1.191,1.191,0,0,0-.65-.018q-2.293.528-4.591,1.036a11.313,11.313,0,0,1-1.512.292,20.587,20.587,0,0,1-2.151.039,12.2,12.2,0,0,1-2.768-.371c-.654-.171-1.294-.394-1.939-.6a.547.547,0,0,0-.325-.01q-.861.23-1.72.455a1.16,1.16,0,0,1-.235.042.325.325,0,0,1-.373-.363.453.453,0,0,1,.136-.371,10.417,10.417,0,0,1,.915-.725,1.587,1.587,0,0,0,.584-.557,2.2,2.2,0,0,1,.992-.936C579.813,118.027,580.146,117.816,580.506,117.612Z" transform="translate(60.209 8.41)" fill="#ff3a00"/>
    </g>
  </g>
</svg>
