<svg width="342" height="17" viewBox="0 0 342 17" fill="none" xmlns="http://www.w3.org/2000/svg">
<g clip-path="url(#clip0_636_12912)">
<path d="M342 0.0400391H0V16.04H342V0.0400391Z" fill="#1AA7BF"/>
<mask id="mask0_636_12912" style="mask-type:luminance" maskUnits="userSpaceOnUse" x="2" y="0" width="340" height="17">
<path d="M342.001 0H2.10938V16.04H342.001V0Z" fill="white"/>
</mask>
<g mask="url(#mask0_636_12912)">
<path d="M2.10938 16.04L5.85938 0H9.87061L6.07764 16.04H2.10938Z" fill="#78D2DB"/>
<path d="M10.1094 16.04L13.8594 0H17.8706L14.0776 16.04H10.1094Z" fill="#78D2DB"/>
<path d="M18.1094 16.04L21.8594 0H25.8706L22.0776 16.04H18.1094Z" fill="#78D2DB"/>
<path d="M26.1094 16.04L29.8594 0H33.8706L30.0776 16.04H26.1094Z" fill="#78D2DB"/>
<path d="M34.1094 16.04L37.8594 0H41.8706L38.0776 16.04H34.1094Z" fill="#78D2DB"/>
<path d="M42.1094 16.04L45.8594 0H49.8706L46.0776 16.04H42.1094Z" fill="#78D2DB"/>
<path d="M50.1094 16.04L53.8594 0H57.8706L54.0776 16.04H50.1094Z" fill="#78D2DB"/>
<path d="M58.1094 16.04L61.8594 0H65.8706L62.0776 16.04H58.1094Z" fill="#78D2DB"/>
<path d="M66.1094 16.04L69.8594 0H73.8706L70.0776 16.04H66.1094Z" fill="#78D2DB"/>
<path d="M74.1094 16.04L77.8594 0H81.8706L78.0776 16.04H74.1094Z" fill="#78D2DB"/>
<path d="M82.1094 16.04L85.8594 0H89.8706L86.0776 16.04H82.1094Z" fill="#78D2DB"/>
<path d="M90.1094 16.04L93.8594 0H97.8706L94.0776 16.04H90.1094Z" fill="#78D2DB"/>
<path d="M98.1094 16.04L101.859 0H105.871L102.078 16.04H98.1094Z" fill="#78D2DB"/>
<path d="M106.109 16.04L109.859 0H113.871L110.078 16.04H106.109Z" fill="#78D2DB"/>
<path d="M114.109 16.04L117.859 0H121.871L118.078 16.04H114.109Z" fill="#78D2DB"/>
<path d="M122.109 16.04L125.859 0H129.871L126.078 16.04H122.109Z" fill="#78D2DB"/>
<path d="M130.109 16.04L133.859 0H137.871L134.078 16.04H130.109Z" fill="#78D2DB"/>
<path d="M138.109 16.04L141.859 0H145.871L142.078 16.04H138.109Z" fill="#78D2DB"/>
<path d="M146.109 16.04L149.859 0H153.871L150.078 16.04H146.109Z" fill="#78D2DB"/>
<path d="M154.109 16.04L157.859 0H161.871L158.078 16.04H154.109Z" fill="#78D2DB"/>
<path d="M162.109 16.04L165.859 0H169.871L166.078 16.04H162.109Z" fill="#78D2DB"/>
<path d="M170.109 16.04L173.859 0H177.871L174.078 16.04H170.109Z" fill="#78D2DB"/>
<path d="M178.109 16.04L181.859 0H185.871L182.078 16.04H178.109Z" fill="#78D2DB"/>
<path d="M186.109 16.04L189.859 0H193.871L190.078 16.04H186.109Z" fill="#78D2DB"/>
<path d="M194.109 16.04L197.859 0H201.871L198.078 16.04H194.109Z" fill="#78D2DB"/>
<path d="M202.109 16.04L205.859 0H209.871L206.078 16.04H202.109Z" fill="#78D2DB"/>
<path d="M210.109 16.04L213.859 0H217.871L214.078 16.04H210.109Z" fill="#78D2DB"/>
<path d="M218.109 16.04L221.859 0H225.871L222.078 16.04H218.109Z" fill="#78D2DB"/>
<path d="M226.109 16.04L229.859 0H233.871L230.078 16.04H226.109Z" fill="#78D2DB"/>
<path d="M234.109 16.04L237.859 0H241.871L238.078 16.04H234.109Z" fill="#78D2DB"/>
<path d="M242.109 16.04L245.859 0H249.871L246.078 16.04H242.109Z" fill="#78D2DB"/>
<path d="M250.109 16.04L253.859 0H257.871L254.078 16.04H250.109Z" fill="#78D2DB"/>
<path d="M258.109 16.04L261.859 0H265.871L262.078 16.04H258.109Z" fill="#78D2DB"/>
<path d="M266.109 16.04L269.859 0H273.871L270.078 16.04H266.109Z" fill="#78D2DB"/>
<path d="M274.109 16.04L277.859 0H281.871L278.078 16.04H274.109Z" fill="#78D2DB"/>
<path d="M282.109 16.04L285.859 0H289.871L286.078 16.04H282.109Z" fill="#78D2DB"/>
<path d="M290.109 16.04L293.859 0H297.871L294.078 16.04H290.109Z" fill="#78D2DB"/>
<path d="M298.109 16.04L301.859 0H305.871L302.078 16.04H298.109Z" fill="#78D2DB"/>
<path d="M306.109 16.04L309.859 0H313.871L310.078 16.04H306.109Z" fill="#78D2DB"/>
<path d="M314.109 16.04L317.859 0H321.871L318.078 16.04H314.109Z" fill="#78D2DB"/>
<path d="M322.109 16.04L325.859 0H329.871L326.078 16.04H322.109Z" fill="#78D2DB"/>
<path d="M330.109 16.04L333.859 0H337.871L334.078 16.04H330.109Z" fill="#78D2DB"/>
<path d="M338.109 16.04L341.859 0H345.871L342.078 16.04H338.109Z" fill="#78D2DB"/>
</g>
</g>
<defs>
<clipPath id="clip0_636_12912">
<rect width="342" height="16.04" fill="white"/>
</clipPath>
</defs>
</svg>
