<svg id="img_logoGane_header" xmlns="http://www.w3.org/2000/svg" xmlns:xlink="http://www.w3.org/1999/xlink" width="64.622" height="38" viewBox="0 0 64.622 38">
  <defs>
    <clipPath id="clip-path">
      <rect id="Rectángulo_15490" data-name="Rectángulo 15490" width="64.622" height="38" fill="none"/>
    </clipPath>
  </defs>
  <g id="Grupo_35780" data-name="Grupo 35780" clip-path="url(#clip-path)">
    <path id="Trazado_112347" data-name="Trazado 112347" d="M64.258,14.037A22.433,22.433,0,0,0,62.309,8.2a13.089,13.089,0,0,0-6.971-6.34A25.511,25.511,0,0,0,48.457.274,57.69,57.69,0,0,0,42.086,0c-1.3.045-2.6.068-3.92.144-1.8.083-3.6.189-5.4.333-1.634.129-3.268.243-4.9.371-1.814.144-3.628.31-5.442.439-2.279.167-4.557.326-6.814.667A34.993,34.993,0,0,0,7.665,4.039,13.982,13.982,0,0,0,2.658,7.273,9.369,9.369,0,0,0,.02,13.659a37.7,37.7,0,0,0,.427,7.052,28.041,28.041,0,0,0,2,7.03,9.472,9.472,0,0,0,7.166,5.689c1.3.273,2.594.561,3.86.939a25.749,25.749,0,0,1,5.2,2.076c.772.424,1.567.826,2.376,1.2.24.106.472.22.72.3.435.144.7.015.809-.379a5.067,5.067,0,0,0,.113-.674,7.8,7.8,0,0,1,.337-1.644,1.633,1.633,0,0,1,1.454-1.091,8.594,8.594,0,0,1,1.394-.083c.99.03,1.971.053,2.961.1,1.222.053,2.444.121,3.665.182a23.8,23.8,0,0,0,2.848.038c1.522-.106,3.043-.227,4.565-.326,1.777-.121,3.553-.25,5.322-.477a75.871,75.871,0,0,0,9.61-1.871c3.973-1.053,6.8-3.265,8.253-6.742a18.406,18.406,0,0,0,1.154-10.938m-46.5,8.87a1.549,1.549,0,0,1-.51.848,7.108,7.108,0,0,1-4.917,2.56A5.577,5.577,0,0,1,8.782,25.5,2.518,2.518,0,0,1,7.77,24.324a.741.741,0,0,1-.09-.53,3.019,3.019,0,0,1,.008-.9,1.8,1.8,0,0,1,2.391-1.469,5.711,5.711,0,0,0,2.556.038,3.392,3.392,0,0,0,.99-.432,1.776,1.776,0,0,0,.315-.265.655.655,0,0,0,.067-.886c-.24-.3-.487-.136-.734-.007a4.661,4.661,0,0,1-6.266-1.644,8.543,8.543,0,0,1-.562-7.613,4.52,4.52,0,0,1,6.319-2.538,1.107,1.107,0,0,0,1.327-.114,2.787,2.787,0,0,1,1.537-.636,2.286,2.286,0,0,1,2.518,2.136,28.937,28.937,0,0,1,.217,3.015c.105,2,.165,4.007.24,6.007a8.266,8.266,0,0,1-.847,4.424M45.511,11.8a6.983,6.983,0,0,1,.54-2.53A5.679,5.679,0,0,1,50.811,5.8a6.618,6.618,0,0,1,4.025.7,5.225,5.225,0,0,1,2.908,4.727,1.585,1.585,0,0,1-1.679,1.856c-1.454.114-2.9.265-4.355.394-.075.008-.15.023-.225.038-.2.03-.367.1-.4.333a.446.446,0,0,0,.3.508,2.99,2.99,0,0,0,1.836.114c.585-.129,1.139-.341,1.739-.417a1.6,1.6,0,0,1,1.791.773,2.061,2.061,0,0,1-.037,2.31,3.334,3.334,0,0,1-1.994,1.31,9.888,9.888,0,0,1-2.376.3,7.374,7.374,0,0,1-4.318-1.28A6.213,6.213,0,0,1,45.511,11.8m.565,10.161a.679.679,0,0,1,.256-.45,1.42,1.42,0,0,1,.786-.228,1.382,1.382,0,0,1,.8.112.686.686,0,0,1,.312.414,3.019,3.019,0,0,1,.09.551l.293,4.094A2.94,2.94,0,0,1,48.6,27a.665.665,0,0,1-.25.449,1.461,1.461,0,0,1-.792.222,1.415,1.415,0,0,1-.81-.112.655.655,0,0,1-.312-.414,3.294,3.294,0,0,1-.082-.539L46.065,22.5a2.829,2.829,0,0,1,.012-.539m-.136-1.82a3.33,3.33,0,0,1-.082-.539,2.915,2.915,0,0,1,.011-.552.656.656,0,0,1,.257-.443,1.463,1.463,0,0,1,.786-.222,1.381,1.381,0,0,1,.8.112.684.684,0,0,1,.312.414A2.972,2.972,0,0,1,48.1,20a.663.663,0,0,1-.25.449,1.459,1.459,0,0,1-.792.222,1.415,1.415,0,0,1-.81-.112.652.652,0,0,1-.312-.414M35.789,6.924a2.176,2.176,0,0,1,.9.591c.532.568.667.583,1.349.189a4.9,4.9,0,0,1,2.841-.8A3.688,3.688,0,0,1,44.2,9.485a13.55,13.55,0,0,1,.667,3.28,29.928,29.928,0,0,1,.262,3.363,5.575,5.575,0,0,1-.06,1.765,2.216,2.216,0,0,1-1.911,1.674,2.272,2.272,0,0,1-2.489-1.106,4.731,4.731,0,0,1-.51-1.917c-.158-1.4-.292-2.8-.457-4.2-.1-.848-.555-1.174-1.252-.955-.427.136-.637.53-.585,1.136q.191,2.182.4,4.363A3.82,3.82,0,0,1,38,18.855a2.336,2.336,0,0,1-2.436,1.439,2.307,2.307,0,0,1-2.159-2.053c-.232-1.553-.4-3.121-.547-4.681-.12-1.273-.217-2.553-.337-3.825a2.531,2.531,0,0,1,3.268-2.81M20.7,19.143a8.4,8.4,0,0,1-1.469-5.795,6.337,6.337,0,0,1,.832-2.8,4.463,4.463,0,0,1,5.772-1.977,1.133,1.133,0,0,0,1.357-.182A2.781,2.781,0,0,1,28.7,7.7a2.233,2.233,0,0,1,2.474,1.568,11.381,11.381,0,0,1,.442,2.4c.127.894.255,1.788.337,2.689.082.871.1,1.742.143,2.606a6.542,6.542,0,0,1-.068,1.621,2.276,2.276,0,0,1-2.991,1.772,3.445,3.445,0,0,1-.892-.379.89.89,0,0,0-1.132.1,4.193,4.193,0,0,1-2.773.954A4.32,4.32,0,0,1,20.7,19.143m10.862,9.093a.681.681,0,0,1-.256.455,1.444,1.444,0,0,1-.8.229,1.372,1.372,0,0,1-.81-.118.675.675,0,0,1-.312-.42,3.309,3.309,0,0,1-.082-.538l-.147-2.054a1.54,1.54,0,0,0-.1-.493.624.624,0,0,0-.221-.281.526.526,0,0,0-.338-.077.605.605,0,0,0-.336.113.49.49,0,0,0-.167.3,2.021,2.021,0,0,0-.018.539l.147,2.054a2.963,2.963,0,0,1-.011.546.681.681,0,0,1-.256.455,1.446,1.446,0,0,1-.8.229,1.371,1.371,0,0,1-.81-.118.675.675,0,0,1-.312-.42,3.308,3.308,0,0,1-.082-.538L25.7,26.041a1.746,1.746,0,0,0-.1-.5.552.552,0,0,0-.214-.282.571.571,0,0,0-.349-.07.506.506,0,0,0-.365.153.651.651,0,0,0-.145.34,2.072,2.072,0,0,0-.012.444l.149,2.079a2.974,2.974,0,0,1-.011.545.658.658,0,0,1-.256.449,1.492,1.492,0,0,1-.8.223,1.412,1.412,0,0,1-.81-.112.655.655,0,0,1-.312-.414,3.316,3.316,0,0,1-.082-.539L22.1,24.24a2.9,2.9,0,0,1,.011-.552.655.655,0,0,1,.257-.443,1.492,1.492,0,0,1,.8-.223,1.241,1.241,0,0,1,.832.161.733.733,0,0,1,.252.4,2.668,2.668,0,0,1,.174-.221,1.779,1.779,0,0,1,.42-.341,1.313,1.313,0,0,1,.589-.176,2.383,2.383,0,0,1,.718.049,1.865,1.865,0,0,1,.614.265,2.115,2.115,0,0,1,.5.476,4,4,0,0,1,.347-.405,2.5,2.5,0,0,1,.54-.419,1.656,1.656,0,0,1,.73-.218,2.068,2.068,0,0,1,1.28.286,2.312,2.312,0,0,1,.864,1.039,4.993,4.993,0,0,1,.393,1.719l.147,2.054a2.963,2.963,0,0,1-.011.546m5.053.131a3.208,3.208,0,0,1-1.125.3,3.125,3.125,0,0,1-1.176-.148,3.671,3.671,0,0,1-1.126-.589,3.251,3.251,0,0,1-.86-.988,3.131,3.131,0,0,1-.391-1.346,3.245,3.245,0,0,1,.169-1.317,3.465,3.465,0,0,1,1.636-1.918,3.078,3.078,0,0,1,1.247-.357,3.2,3.2,0,0,1,1.7.325,3.4,3.4,0,0,1,1.283,1.116,3.246,3.246,0,0,1,.57,1.655,3.206,3.206,0,0,1-.2,1.433,3.3,3.3,0,0,1-.711,1.1,3.483,3.483,0,0,1-1.02.727m2.06,3.4c-.33,0-.525-.167-.525-.439a.454.454,0,0,1,.51-.462c.33,0,.577.2.562.454a.531.531,0,0,1-.547.447m.958-3.7a.653.653,0,0,1-.312-.414,3.35,3.35,0,0,1-.082-.538l-.3-4.145a2.737,2.737,0,0,1,.012-.533.631.631,0,0,1,.257-.43A1.506,1.506,0,0,1,40,21.793a1.566,1.566,0,0,1,.751.078.6.6,0,0,1,.316.3,1.007,1.007,0,0,1,.078.324A.779.779,0,0,1,41.2,22.4a1.662,1.662,0,0,1,.387-.377,2.521,2.521,0,0,1,.53-.292,1.809,1.809,0,0,1,.548-.135,2.408,2.408,0,0,1,1.114.159,2.2,2.2,0,0,1,.84.616,3.132,3.132,0,0,1,.553.979,4.687,4.687,0,0,1,.252,1.248l.148,2.066a2.96,2.96,0,0,1-.011.546.664.664,0,0,1-.25.449,1.456,1.456,0,0,1-.792.222,1.441,1.441,0,0,1-.822-.111.677.677,0,0,1-.318-.414,2.927,2.927,0,0,1-.088-.538l-.147-2.054A1.049,1.049,0,0,0,43,24.284.737.737,0,0,0,42.682,24a1.1,1.1,0,0,0-.959.077.8.8,0,0,0-.3.338.974.974,0,0,0-.078.487l.148,2.066a2.944,2.944,0,0,1-.011.546.664.664,0,0,1-.25.449,1.456,1.456,0,0,1-.792.222,1.411,1.411,0,0,1-.81-.112m20.45-4.306a.524.524,0,0,0-.1.356.844.844,0,0,1-.2.644,5.69,5.69,0,0,0-.532.864,8.054,8.054,0,0,1-3.62,3.128,26.474,26.474,0,0,1-6.214,1.985,47.329,47.329,0,0,1-7.166.841h-1c-.247,0-.42-.091-.465-.326a.418.418,0,0,1,.307-.508,2.811,2.811,0,0,1,.757-.1A45.982,45.982,0,0,0,51.83,29.27a12.947,12.947,0,0,0,6.117-3.31,6.13,6.13,0,0,0,1.567-2.242,3.211,3.211,0,0,0,.112-.7.731.731,0,0,1,.352-.553c.135-.083.2-.091.248.076a1.355,1.355,0,0,1-.142,1.22" transform="translate(0 -0.001)" fill="#f8f8f8"/>
    <path id="Trazado_112348" data-name="Trazado 112348" d="M165.382,115.372a.908.908,0,0,0-.393-.326,1.154,1.154,0,0,0-.557-.086.966.966,0,0,0-.489.169,1.016,1.016,0,0,0-.335.392,1.038,1.038,0,0,0-.1.545.934.934,0,0,0,.652.883,1.163,1.163,0,0,0,.431.064,1.214,1.214,0,0,0,.423-.126,1.012,1.012,0,0,0,.4-.352.969.969,0,0,0,.137-.631,1.068,1.068,0,0,0-.17-.532" transform="translate(-129.291 -90.647)" fill="#f8f8f8"/>
    <path id="Trazado_112349" data-name="Trazado 112349" d="M53,53.87a1.086,1.086,0,0,0-1.282-.735.991.991,0,0,0-.982.871,7.292,7.292,0,0,0-.2,1.265,4.279,4.279,0,0,0,.45,2.416,1.125,1.125,0,0,0,1.184.682,1.174,1.174,0,0,0,.967-.841,3.546,3.546,0,0,0,.232-1.477A5.411,5.411,0,0,0,53,53.87" transform="translate(-39.944 -41.894)" fill="#f8f8f8"/>
    <path id="Trazado_112350" data-name="Trazado 112350" d="M116.879,56.3a1.391,1.391,0,0,0-.795-.8c-.72-.22-1.342.22-1.522,1.091a5.626,5.626,0,0,0,.375,3.431,1.064,1.064,0,0,0,1.229.7,1.048,1.048,0,0,0,1-.871,4.1,4.1,0,0,0,.165-1.273,5.257,5.257,0,0,0-.45-2.272" transform="translate(-90.496 -43.715)" fill="#f8f8f8"/>
    <path id="Trazado_112351" data-name="Trazado 112351" d="M242.447,45.279a1.128,1.128,0,0,0-1.417-.924,1.143,1.143,0,0,0-1.042,1.379.432.432,0,0,0,.495.394c.465-.03.922-.182,1.4-.167.442.008.622-.235.562-.682" transform="translate(-189.747 -34.954)" fill="#f8f8f8"/>
    <path id="Trazado_112352" data-name="Trazado 112352" d="M115.344,111.808a1.382,1.382,0,0,0-.054-.295c-.054.076-.108.158-.162.247Z" transform="translate(-91.037 -87.932)" fill="#ff3600"/>
    <path id="Trazado_112353" data-name="Trazado 112353" d="M196.325,106.67l.094-.083a.418.418,0,0,1-.032-.194c0-.006,0-.012,0-.018a.486.486,0,0,0-.059.295" transform="translate(-155.239 -83.88)" fill="#ff3600"/>
  </g>
</svg>
