<svg id="app-new" xmlns="http://www.w3.org/2000/svg" width="24.938" height="24.938" viewBox="0 0 24.938 24.938">
  <path id="Trazado_111802" data-name="Trazado 111802" d="M12.469,0A12.469,12.469,0,1,1,0,12.469,12.469,12.469,0,0,1,12.469,0Z" transform="translate(0 0)" fill="#fff"/>
  <circle id="Elipse_11230" data-name="Elipse 11230" cx="11.318" cy="11.318" r="11.318" transform="translate(1.151 1.151)" fill="none" stroke="#f95d1f" stroke-miterlimit="10" stroke-width="0.8"/>
  <g id="Grupo_34725" data-name="Grupo 34725" transform="translate(4.83 4.277)">
    <circle id="Elipse_11231" data-name="Elipse 11231" cx="4.096" cy="4.096" r="4.096" transform="translate(3.543 4.096)" fill="none" stroke="#fc5e20" stroke-miterlimit="10" stroke-width="0.6"/>
    <g id="Grupo_34722" data-name="Grupo 34722" transform="translate(3.543 0)">
      <path id="Trazado_111804" data-name="Trazado 111804" d="M4.1,0A4.1,4.1,0,1,1,0,4.1,4.1,4.1,0,0,1,4.1,0Z" transform="translate(0 8.187)" fill="none" stroke="#fc5e20" stroke-width="0.6"/>
      <circle id="Elipse_11233" data-name="Elipse 11233" cx="4.096" cy="4.096" r="4.096" fill="none" stroke="#fc5e20" stroke-miterlimit="10" stroke-width="0.6"/>
    </g>
    <g id="Grupo_34723" data-name="Grupo 34723" transform="translate(0.005 2.046)">
      <circle id="Elipse_11234" data-name="Elipse 11234" cx="4.096" cy="4.096" r="4.096" fill="none" stroke="#fc5e20" stroke-miterlimit="10" stroke-width="0.6"/>
      <circle id="Elipse_11235" data-name="Elipse 11235" cx="4.096" cy="4.096" r="4.096" transform="translate(7.081 4.101)" fill="none" stroke="#fc5e20" stroke-miterlimit="10" stroke-width="0.6"/>
    </g>
    <g id="Grupo_34724" data-name="Grupo 34724" transform="translate(0 2.051)">
      <path id="Trazado_111803" data-name="Trazado 111803" d="M4.1,0A4.1,4.1,0,1,1,0,4.1,4.1,4.1,0,0,1,4.1,0Z" transform="translate(0 4.091)" fill="none" stroke="#fc5e20" stroke-width="0.6"/>
      <circle id="Elipse_11237" data-name="Elipse 11237" cx="4.096" cy="4.096" r="4.096" transform="translate(7.091)" fill="none" stroke="#fc5e20" stroke-miterlimit="10" stroke-width="0.6"/>
    </g>
  </g>
</svg>
