<svg xmlns="http://www.w3.org/2000/svg" width="16.995" height="16.995" viewBox="0 0 16.995 16.995">
  <g id="Grupo_36149" data-name="Grupo 36149" transform="translate(997.937 -1845.801)">
    <path id="Trazado_112402" data-name="Trazado 112402" d="M17,8.5A8.5,8.5,0,1,1,8.5,0,8.5,8.5,0,0,1,17,8.5" transform="translate(-997.937 1845.801)" fill="#fff"/>
    <path id="Trazado_112403" data-name="Trazado 112403" d="M17.6,9.584A8.018,8.018,0,1,1,9.584,1.566,8.018,8.018,0,0,1,17.6,9.584" transform="translate(-999.023 1844.714)" fill="#fff"/>
    <path id="Trazado_112404" data-name="Trazado 112404" d="M9.2,17.389A8.186,8.186,0,1,1,17.389,9.2,8.2,8.2,0,0,1,9.2,17.389m0-16.036a7.85,7.85,0,1,0,7.85,7.85A7.859,7.859,0,0,0,9.2,1.353" transform="translate(-998.641 1845.096)" fill="#ff4d00"/>
    <path id="Trazado_112405" data-name="Trazado 112405" d="M18.132,10.534a7.6,7.6,0,1,1-7.6-7.6,7.6,7.6,0,0,1,7.6,7.6" transform="translate(-999.973 1843.765)" fill="#ff4d00"/>
    <path id="Trazado_112406" data-name="Trazado 112406" d="M10.152,17.919a7.767,7.767,0,1,1,7.767-7.767,7.776,7.776,0,0,1-7.767,7.767m0-15.2a7.43,7.43,0,1,0,7.43,7.43,7.439,7.439,0,0,0-7.43-7.43" transform="translate(-999.591 1844.146)" fill="#fff"/>
    <path id="Trazado_112407" data-name="Trazado 112407" d="M20.278,23.576a3.3,3.3,0,1,1,3.3-3.3,3.3,3.3,0,0,1-3.3,3.3m0-6.227a2.93,2.93,0,1,0,2.93,2.93,2.933,2.933,0,0,0-2.93-2.93" transform="translate(-1009.717 1834.02)" fill="#fff"/>
    <path id="Trazado_112408" data-name="Trazado 112408" d="M20.278,33.731a3.3,3.3,0,1,1,3.3-3.3,3.3,3.3,0,0,1-3.3,3.3m0-6.227a2.93,2.93,0,1,0,2.93,2.93,2.933,2.933,0,0,0-2.93-2.93" transform="translate(-1009.717 1826.974)" fill="#fff"/>
    <path id="Trazado_112409" data-name="Trazado 112409" d="M20.278,13.421a3.3,3.3,0,1,1,3.3-3.3,3.3,3.3,0,0,1-3.3,3.3m0-6.227a2.93,2.93,0,1,0,2.93,2.93,2.933,2.933,0,0,0-2.93-2.93" transform="translate(-1009.717 1841.065)" fill="#fff"/>
    <path id="Trazado_112410" data-name="Trazado 112410" d="M11.483,18.481a3.3,3.3,0,1,1,2.859-1.644,3.28,3.28,0,0,1-2.859,1.644m.01-6.228a2.954,2.954,0,0,0-.759.1,2.913,2.913,0,1,0,.759-.1" transform="translate(-1003.618 1837.556)" fill="#fff"/>
    <path id="Trazado_112411" data-name="Trazado 112411" d="M29.056,28.662a3.3,3.3,0,1,1,2.859-1.644,3.28,3.28,0,0,1-2.859,1.644m.011-6.226a2.929,2.929,0,1,0,1.464.394,2.932,2.932,0,0,0-1.464-.394" transform="translate(-1015.81 1830.492)" fill="#fff"/>
    <path id="Trazado_112412" data-name="Trazado 112412" d="M11.485,28.652a3.3,3.3,0,1,1,1.643-.441,3.3,3.3,0,0,1-1.643.441m-.01-6.226a2.929,2.929,0,1,0,2.543,1.464,2.914,2.914,0,0,0-2.543-1.464" transform="translate(-1003.612 1830.498)" fill="#fff"/>
    <path id="Trazado_112413" data-name="Trazado 112413" d="M29.076,18.5a3.324,3.324,0,0,1-.859-.114,3.281,3.281,0,1,1,.859.114m-.01-6.228a2.93,2.93,0,1,0,2.543,1.464,2.913,2.913,0,0,0-2.543-1.464" transform="translate(-1015.816 1837.541)" fill="#fff"/>
    <rect id="Rectángulo_15509" data-name="Rectángulo 15509" width="16.995" height="16.995" transform="translate(-997.937 1845.801)" fill="none"/>
  </g>
</svg>
