<svg xmlns="http://www.w3.org/2000/svg" width="114.797" height="114.794" viewBox="0 0 114.797 114.794">
  <path id="Sustracción_1" data-name="Sustracción 1" d="M60,117.4A57.4,57.4,0,1,1,117.4,60,57.463,57.463,0,0,1,60,117.4ZM60,5.832A54.168,54.168,0,1,0,114.166,60,54.23,54.23,0,0,0,60,5.832ZM60,111.82A51.819,51.819,0,1,1,111.819,60,51.879,51.879,0,0,1,60,111.82Zm0-96.5A22.963,22.963,0,0,0,48.7,18.29a23.211,23.211,0,0,0-8.2,7.844,23.164,23.164,0,0,0-5.181.772,23,23,0,0,0-16.3,28.14,23.271,23.271,0,0,0,1.931,4.92,23.179,23.179,0,0,0-1.939,4.919A22.984,22.984,0,0,0,29.552,90.652,23.208,23.208,0,0,0,40.47,93.819a23.209,23.209,0,0,0,8.2,7.876,22.964,22.964,0,0,0,22.638.009,23.212,23.212,0,0,0,8.2-7.854,23.222,23.222,0,0,0,10.908-3.157,22.948,22.948,0,0,0,11.34-19.6A23.218,23.218,0,0,0,99.04,60.033a23.213,23.213,0,0,0,2.736-11.053A22.963,22.963,0,0,0,90.449,29.344a23.213,23.213,0,0,0-10.923-3.167,23.214,23.214,0,0,0-8.2-7.874A22.962,22.962,0,0,0,60,15.316Zm0,86.806a20.442,20.442,0,0,1-9.4-2.292A20.671,20.671,0,0,1,43.5,93.722a22.97,22.97,0,0,0,16.476-9.579A23.047,23.047,0,0,0,76.48,93.753a20.663,20.663,0,0,1-7.1,6.086A20.447,20.447,0,0,1,60,102.122ZM78.031,91.291h0a20.425,20.425,0,0,1-15.79-8.4A23.014,23.014,0,0,0,78.675,73.4a20.419,20.419,0,0,1-.644,17.889Zm-36.082-.033h0A20.42,20.42,0,0,1,41.323,73.4a23.013,23.013,0,0,0,16.4,9.482,20.247,20.247,0,0,1-6.292,5.656,20.458,20.458,0,0,1-9.482,2.718Zm38.993-.074v0a22.984,22.984,0,0,0-.058-19.114A23.051,23.051,0,0,0,97.44,62.6a20.665,20.665,0,0,1,1.733,9.223,20.42,20.42,0,0,1-9.4,16.265,20.659,20.659,0,0,1-8.825,3.095Zm-41.9-.033h0a20.671,20.671,0,0,1-8.839-3.1,20.424,20.424,0,0,1-8.72-22.5,20.744,20.744,0,0,1,1.061-3.011,23.043,23.043,0,0,0,16.591,9.487,22.985,22.985,0,0,0-.093,19.122ZM62.158,80.321v0a23.107,23.107,0,0,0,1.67-13.68,22.791,22.791,0,0,0,9,4.729,23.454,23.454,0,0,0,3.664.673,20.484,20.484,0,0,1-14.336,8.279Zm-4.365-.005h0a20.482,20.482,0,0,1-14.315-8.31,23.127,23.127,0,0,0,12.677-5.375,22.781,22.781,0,0,0,.391,10.159,23.361,23.361,0,0,0,1.248,3.524ZM59.984,78.9v0a20.463,20.463,0,0,1-1.646-7.964A20.191,20.191,0,0,1,60,62.789a20.2,20.2,0,0,1,1.646,8.147,20.471,20.471,0,0,1-1.66,7.961Zm20.967-9.427v0a22.987,22.987,0,0,0,.014-18.914,20.423,20.423,0,0,1,15.116,9.473,20.4,20.4,0,0,1-15.128,9.442Zm-41.918-.029h0a20.423,20.423,0,0,1-15.12-9.486A20.481,20.481,0,0,1,31,53.144a20.249,20.249,0,0,1,8.046-2.619,22.981,22.981,0,0,0-.014,18.917Zm37.305-.011h0a20.481,20.481,0,0,1-7.7-2.548A20.188,20.188,0,0,1,62.42,61.4a20.184,20.184,0,0,1,7.86,2.637,20.471,20.471,0,0,1,6.057,5.4Zm-32.663-.023v0a20.475,20.475,0,0,1,6.053-5.381,20.187,20.187,0,0,1,7.847-2.63,20.192,20.192,0,0,1-6.209,5.472,20.463,20.463,0,0,1-7.69,2.54Zm35-1.124h0A23.111,23.111,0,0,0,67.644,60a23.094,23.094,0,0,0,11.031-8.287,20.427,20.427,0,0,1,0,16.572Zm-37.351,0v0a20.427,20.427,0,0,1,0-16.572A23.094,23.094,0,0,0,52.354,60a23.107,23.107,0,0,0-11.029,8.285ZM57.583,58.6h0a20.183,20.183,0,0,1-7.863-2.638,20.471,20.471,0,0,1-6.062-5.4,20.475,20.475,0,0,1,7.709,2.549,20.2,20.2,0,0,1,6.217,5.49Zm4.844,0v0a20.2,20.2,0,0,1,6.205-5.467,20.46,20.46,0,0,1,7.686-2.54,20.466,20.466,0,0,1-6.05,5.378,20.2,20.2,0,0,1-7.84,2.63Zm35.019-1.139h0a23.059,23.059,0,0,0-16.573-9.5,22.984,22.984,0,0,0,.084-19.113,20.672,20.672,0,0,1,8.844,3.1A20.4,20.4,0,0,1,99.194,48.24a20.672,20.672,0,0,1-1.748,9.22Zm-74.893-.077v0a20.667,20.667,0,0,1-1.725-9.215A20.429,20.429,0,0,1,35.976,29.382a20.876,20.876,0,0,1,3.085-.576,22.983,22.983,0,0,0,.058,19.135,23.078,23.078,0,0,0-16.564,9.442ZM60,57.21v0a20.206,20.206,0,0,1-1.646-8.146A20.478,20.478,0,0,1,60.016,41.1a20.462,20.462,0,0,1,1.648,7.966A20.194,20.194,0,0,1,60,57.208Zm-3.838-3.845,0,0a23.1,23.1,0,0,0-12.669-5.4,20.479,20.479,0,0,1,14.331-8.284,23.405,23.405,0,0,0-1.253,3.52,22.8,22.8,0,0,0-.407,10.162Zm7.674,0v0a23.118,23.118,0,0,0-1.647-13.677,20.48,20.48,0,0,1,14.32,8.3,23.3,23.3,0,0,0-3.666.67,22.806,22.806,0,0,0-9.006,4.711ZM78.675,46.6h0a23.014,23.014,0,0,0-16.4-9.479,20.237,20.237,0,0,1,6.294-5.658,20.458,20.458,0,0,1,9.479-2.72,20.442,20.442,0,0,1,2.384,9.572A20.232,20.232,0,0,1,78.676,46.6Zm-37.353,0v0a20.232,20.232,0,0,1-1.755-8.285A20.441,20.441,0,0,1,41.972,28.7a20.425,20.425,0,0,1,9.506,2.751,20.215,20.215,0,0,1,6.283,5.664A23.006,23.006,0,0,0,41.324,46.6ZM60.012,35.852h0a23.064,23.064,0,0,0-16.484-9.618,20.671,20.671,0,0,1,7.1-6.077,20.4,20.4,0,0,1,18.765.011A20.671,20.671,0,0,1,76.5,26.274a23.074,23.074,0,0,0-16.487,9.578Z" transform="translate(-2.6 -2.603)" fill="#fff"/>
</svg>
