<svg xmlns="http://www.w3.org/2000/svg" width="23.24" height="25.67" viewBox="0 0 23.24 25.67">
  <g id="Grupo_4490" data-name="Grupo 4490" transform="translate(-4.056 -3.213)">
    <g id="trending-up" transform="translate(4.056 3.213)">
      <g id="kdg4oU">
        <g id="Grupo_4372" data-name="Grupo 4372">
          <path id="Trazado_90046" data-name="Trazado 90046" d="M237.7,448.61a2.718,2.718,0,0,1-.995-.323,3.184,3.184,0,0,1-1.73-2.43c-.02-.137-.042-.274-.065-.424-.044,0-.091-.006-.138-.006-1.885,0-3.77-.006-5.654-.015-.527,0-1.055-.02-1.582-.043a.932.932,0,0,1-.813-.605,2.293,2.293,0,0,1-.19-.964,5.1,5.1,0,0,1,.131-1.436,2.682,2.682,0,0,1,.944-1.4c.365-.3.735-.6,1.067-.941a4.058,4.058,0,0,0,.849-1.511,11.91,11.91,0,0,0,.554-2.245c.157-.991.3-1.984.476-2.971a14.292,14.292,0,0,1,.7-2.647,6.624,6.624,0,0,1,3.478-3.754c.364-.169.746-.3,1.122-.442.085-.032.1-.068.079-.153a3.531,3.531,0,0,1-.151-.563,2.343,2.343,0,0,1,.521-1.911,2.5,2.5,0,0,1,1.417-.846c.071-.015.144-.026.216-.039h.393a4.61,4.61,0,0,1,.64.162,2.427,2.427,0,0,1,1.557,1.909,2.5,2.5,0,0,1-.15,1.228c-.034.106-.013.156.088.2.363.141.73.273,1.083.436a6.718,6.718,0,0,1,2.344,1.812,7.446,7.446,0,0,1,1.533,3.208q.286,1.269.52,2.549c.1.577.152,1.163.246,1.742a10,10,0,0,0,1.046,3.341,4.166,4.166,0,0,0,.987,1.067c.329.285.659.57.957.886a2.216,2.216,0,0,1,.514,1.192,5.335,5.335,0,0,1,.026,1.615,1.444,1.444,0,0,1-.506.915.993.993,0,0,1-.689.19q-2.284.018-4.567.029-1.25.007-2.5.01H241.4c-.072.326-.119.649-.217.956a3.192,3.192,0,0,1-2.36,2.192,2.007,2.007,0,0,1-.231.036Zm10.48-4.8a3.372,3.372,0,0,0-.1-.986.956.956,0,0,0-.332-.543c-.13-.1-.259-.207-.381-.319-.356-.326-.731-.636-1.056-.99a5.523,5.523,0,0,1-1.1-2.022,14.622,14.622,0,0,1-.686-3.026c-.072-.63-.178-1.256-.283-1.881a16.479,16.479,0,0,0-.606-2.551,5.135,5.135,0,0,0-2.707-3.137,5.731,5.731,0,0,0-2.213-.574,7.352,7.352,0,0,0-2.318.19,5.2,5.2,0,0,0-3.746,3.5,15,15,0,0,0-.443,1.707c-.13.6-.234,1.2-.33,1.8-.093.583-.146,1.173-.243,1.755a14.045,14.045,0,0,1-.629,2.371,6.151,6.151,0,0,1-.8,1.574,7.144,7.144,0,0,1-1.456,1.416,1.279,1.279,0,0,0-.489.511,4.1,4.1,0,0,0-.181,1.2Zm-11.648,1.623a1.66,1.66,0,0,0,1.674,1.59,1.686,1.686,0,0,0,1.551-1.59Zm1.625-19.292c.371.048.8-.452.785-.76a.819.819,0,0,0-.8-.839.788.788,0,0,0-.786.78A.818.818,0,0,0,238.156,426.141Z" transform="translate(-226.528 -422.94)" fill="#fff"/>
        </g>
      </g>
    </g>
  </g>
</svg>
