<svg id="ic_noWifi_blankScreen" xmlns="http://www.w3.org/2000/svg" xmlns:xlink="http://www.w3.org/1999/xlink" width="115.107" height="115.081" viewBox="0 0 115.107 115.081">
  <defs>
    <clipPath id="clip-path">
      <rect id="Rectángulo_15484" data-name="Rectángulo 15484" width="115.107" height="115.081" fill="none"/>
    </clipPath>
  </defs>
  <g id="Grupo_35732" data-name="Grupo 35732" clip-path="url(#clip-path)">
    <path id="Trazado_112321" data-name="Trazado 112321" d="M.125,28.618a27.407,27.407,0,0,1,2.357-3.3A75.233,75.233,0,0,1,22.6,10.323a4.493,4.493,0,0,1,5.757.984,4.321,4.321,0,0,1,.064,5.549,7.107,7.107,0,0,1-2.109,1.595A63.487,63.487,0,0,0,8.615,31.86C5.6,35.166,1.337,34.331.125,30.405V28.618" transform="translate(0.24 18.642)" fill="#f95e1f"/>
    <path id="Trazado_112322" data-name="Trazado 112322" d="M.125,28.618a27.407,27.407,0,0,1,2.357-3.3A75.233,75.233,0,0,1,22.6,10.323a4.493,4.493,0,0,1,5.757.984,4.321,4.321,0,0,1,.064,5.549,7.107,7.107,0,0,1-2.109,1.595A63.487,63.487,0,0,0,8.615,31.86C5.6,35.166,1.337,34.331.125,30.405Z" transform="translate(0.24 18.642)" fill="none" stroke="#f95e1f" stroke-miterlimit="10" stroke-width="0.25"/>
    <path id="Trazado_112323" data-name="Trazado 112323" d="M23.347,48.96A8.032,8.032,0,0,1,17.909,44.9a7.353,7.353,0,1,1,8.929,3.627c-.421.137-.838.286-1.256.429Z" transform="translate(32.867 65.756)" fill="#f95e1f"/>
    <path id="Trazado_112324" data-name="Trazado 112324" d="M23.347,48.96A8.032,8.032,0,0,1,17.909,44.9a7.353,7.353,0,1,1,8.929,3.627c-.421.137-.838.286-1.256.429Z" transform="translate(32.867 65.756)" fill="none" stroke="#f95e1f" stroke-miterlimit="10" stroke-width="0.25"/>
    <path id="Trazado_112325" data-name="Trazado 112325" d="M87.493,36.178a4.33,4.33,0,0,1-2.538,3.867,4.176,4.176,0,0,1-4.793-.61c-1.7-1.44-3.283-3.032-5.032-4.407A44.936,44.936,0,0,0,45.792,24.913c-12.027.245-22.3,4.872-31.073,12.982-.491.456-.952.943-1.457,1.381a4.443,4.443,0,0,1-6.242-.1,4.308,4.308,0,0,1,.093-6.3,89.472,89.472,0,0,1,8.461-7.074A52.54,52.54,0,0,1,41.3,16.224a53.326,53.326,0,0,1,36.865,9.951c2.719,1.925,5.158,4.25,7.7,6.423a4.6,4.6,0,0,1,1.627,3.581" transform="translate(10.945 30.654)" fill="#f95e1f"/>
    <path id="Trazado_112326" data-name="Trazado 112326" d="M87.493,36.178a4.33,4.33,0,0,1-2.538,3.867,4.176,4.176,0,0,1-4.793-.61c-1.7-1.44-3.283-3.032-5.032-4.407A44.936,44.936,0,0,0,45.792,24.913c-12.027.245-22.3,4.872-31.073,12.982-.491.456-.952.943-1.457,1.381a4.443,4.443,0,0,1-6.242-.1,4.308,4.308,0,0,1,.093-6.3,89.472,89.472,0,0,1,8.461-7.074A52.54,52.54,0,0,1,41.3,16.224a53.326,53.326,0,0,1,36.865,9.951c2.719,1.925,5.158,4.25,7.7,6.423A4.6,4.6,0,0,1,87.493,36.178Z" transform="translate(10.945 30.654)" fill="none" stroke="#f95e1f" stroke-miterlimit="10" stroke-width="0.25"/>
    <path id="Trazado_112327" data-name="Trazado 112327" d="M31.964,12.555C35.642,8.878,39.2,5.329,42.745,1.772A4.559,4.559,0,0,1,47.488.314,4.392,4.392,0,0,1,49.763,7.3,34.138,34.138,0,0,1,47.21,9.953c-2.941,2.947-5.891,5.885-8.891,8.879.336.365.6.666.882.946,3.315,3.321,6.642,6.627,9.945,9.957a4.468,4.468,0,0,1,1.168,5.284c-1.341,2.921-4.93,3.5-7.363,1.142s-4.8-4.781-7.194-7.176c-1.233-1.235-2.459-2.471-3.744-3.762-.362.336-.663.6-.946.882q-4.977,4.972-9.957,9.945a4.467,4.467,0,0,1-5.284,1.165c-2.921-1.341-3.5-4.93-1.142-7.36s4.781-4.8,7.179-7.194c1.233-1.233,2.471-2.459,3.762-3.741-.339-.365-.6-.666-.885-.946-3.312-3.321-6.639-6.63-9.942-9.96a4.468,4.468,0,1,1,6.113-6.5c2.258,2.161,4.434,4.41,6.645,6.624C29,9.579,30.44,11.024,31.964,12.555" transform="translate(25.36 0.241)" fill="#f95e1f"/>
    <path id="Trazado_112328" data-name="Trazado 112328" d="M31.964,12.555C35.642,8.878,39.2,5.329,42.745,1.772A4.559,4.559,0,0,1,47.488.314,4.392,4.392,0,0,1,49.763,7.3,34.138,34.138,0,0,1,47.21,9.953c-2.941,2.947-5.891,5.885-8.891,8.879.336.365.6.666.882.946,3.315,3.321,6.642,6.627,9.945,9.957a4.468,4.468,0,0,1,1.168,5.284c-1.341,2.921-4.93,3.5-7.363,1.142s-4.8-4.781-7.194-7.176c-1.233-1.235-2.459-2.471-3.744-3.762-.362.336-.663.6-.946.882q-4.977,4.972-9.957,9.945a4.467,4.467,0,0,1-5.284,1.165c-2.921-1.341-3.5-4.93-1.142-7.36s4.781-4.8,7.179-7.194c1.233-1.233,2.471-2.459,3.762-3.741-.339-.365-.6-.666-.885-.946-3.312-3.321-6.639-6.63-9.942-9.96a4.468,4.468,0,1,1,6.113-6.5c2.258,2.161,4.434,4.41,6.645,6.624C29,9.579,30.44,11.024,31.964,12.555Z" transform="translate(25.36 0.241)" fill="none" stroke="#f95e1f" stroke-miterlimit="10" stroke-width="0.25"/>
    <path id="Trazado_112329" data-name="Trazado 112329" d="M35.2,24.891A32.658,32.658,0,0,1,56.708,34.15a4.417,4.417,0,0,1,.3,6.233,4.317,4.317,0,0,1-6.2.4,29.041,29.041,0,0,0-8.382-5.406c-6.338-2.541-12.4-1.817-18.178,1.568a51.306,51.306,0,0,0-5.263,3.917,4.452,4.452,0,0,1-7.232-2.737,4.072,4.072,0,0,1,1.206-3.785A31.992,31.992,0,0,1,35.2,24.891" transform="translate(22.431 47.808)" fill="#f95e1f"/>
    <path id="Trazado_112330" data-name="Trazado 112330" d="M35.2,24.891A32.658,32.658,0,0,1,56.708,34.15a4.417,4.417,0,0,1,.3,6.233,4.317,4.317,0,0,1-6.2.4,29.041,29.041,0,0,0-8.382-5.406c-6.338-2.541-12.4-1.817-18.178,1.568a51.306,51.306,0,0,0-5.263,3.917,4.452,4.452,0,0,1-7.232-2.737,4.072,4.072,0,0,1,1.206-3.785A31.992,31.992,0,0,1,35.2,24.891Z" transform="translate(22.431 47.808)" fill="none" stroke="#f95e1f" stroke-miterlimit="10" stroke-width="0.25"/>
    <path id="Trazado_112331" data-name="Trazado 112331" d="M33.734,9.563a16.538,16.538,0,0,1,2.188.765A76.581,76.581,0,0,1,57.45,26.415c1.957,2.068,2.012,4.758.14,6.572s-4.565,1.7-6.554-.374A70,70,0,0,0,37.359,21.368c-1.989-1.23-4.1-2.269-6.113-3.461a4.172,4.172,0,0,1-2.164-4.326,4.254,4.254,0,0,1,3.192-3.765,13.619,13.619,0,0,1,1.46-.254" transform="translate(55.782 18.368)" fill="#f95e1f"/>
    <path id="Trazado_112332" data-name="Trazado 112332" d="M33.734,9.563a16.538,16.538,0,0,1,2.188.765A76.581,76.581,0,0,1,57.45,26.415c1.957,2.068,2.012,4.758.14,6.572s-4.565,1.7-6.554-.374A70,70,0,0,0,37.359,21.368c-1.989-1.23-4.1-2.269-6.113-3.461a4.172,4.172,0,0,1-2.164-4.326,4.254,4.254,0,0,1,3.192-3.765A13.619,13.619,0,0,1,33.734,9.563Z" transform="translate(55.782 18.368)" fill="none" stroke="#f95e1f" stroke-miterlimit="10" stroke-width="0.25"/>
  </g>
</svg>
