<svg xmlns="http://www.w3.org/2000/svg" width="284.586" height="49.36" viewBox="0 0 284.586 49.36">
  <g id="Grupo_36092" data-name="Grupo 36092" transform="translate(-4740 402.404)">
    <path id="Trazado_118495" data-name="Trazado 118495" d="M2.268.144A2.055,2.055,0,0,1,1.116-.1.97.97,0,0,1,.7-.729,4.272,4.272,0,0,1,.63-1.512V-10.8A4.128,4.128,0,0,1,.7-11.574a.967.967,0,0,1,.414-.621,2.1,2.1,0,0,1,1.17-.243H5.868a4.46,4.46,0,0,1,1.476.279,5.048,5.048,0,0,1,1.5.855,4.5,4.5,0,0,1,1.161,1.44,4.388,4.388,0,0,1,.45,2.052,4.346,4.346,0,0,1-.45,2.034A4.4,4.4,0,0,1,8.847-4.347a5.151,5.151,0,0,1-1.5.846,4.5,4.5,0,0,1-1.494.279H3.924v1.728a4.128,4.128,0,0,1-.072.774A.967.967,0,0,1,3.438-.1,2.1,2.1,0,0,1,2.268.144Zm1.656-6.66H5.868a1.541,1.541,0,0,0,.54-.117,1.287,1.287,0,0,0,.54-.405,1.221,1.221,0,0,0,.234-.792A1.276,1.276,0,0,0,7-8.505a1.321,1.321,0,0,0-.477-.468,1.328,1.328,0,0,0-.675-.171H3.924ZM12.87.162a2.055,2.055,0,0,1-1.152-.243A.932.932,0,0,1,11.313-.7a4.7,4.7,0,0,1-.063-.774V-7.344a3.986,3.986,0,0,1,.072-.765.964.964,0,0,1,.414-.612,2.055,2.055,0,0,1,1.152-.243,2.007,2.007,0,0,1,1.143.243.976.976,0,0,1,.4.621,4.226,4.226,0,0,1,.072.792v5.85a4.128,4.128,0,0,1-.072.774.943.943,0,0,1-.4.612A2.114,2.114,0,0,1,12.87.162Zm0-10.008a2.055,2.055,0,0,1-1.152-.243.932.932,0,0,1-.405-.621,4.7,4.7,0,0,1-.063-.774,4.084,4.084,0,0,1,.072-.783.931.931,0,0,1,.414-.6,2.12,2.12,0,0,1,1.152-.234,2.007,2.007,0,0,1,1.143.243.976.976,0,0,1,.4.621,4.128,4.128,0,0,1,.072.774,4.128,4.128,0,0,1-.072.774.943.943,0,0,1-.4.612A2.114,2.114,0,0,1,12.87-9.846ZM19.836.126a3.473,3.473,0,0,1-1.557-.369,4.5,4.5,0,0,1-1.332-1.008,4.952,4.952,0,0,1-.927-1.467,4.483,4.483,0,0,1-.342-1.728A4.263,4.263,0,0,1,16.02-6.12a4.925,4.925,0,0,1,.936-1.449A4.752,4.752,0,0,1,18.3-8.586a3.37,3.37,0,0,1,1.539-.378A2.9,2.9,0,0,1,21.33-8.6a3.132,3.132,0,0,1,1.044,1,4.734,4.734,0,0,1,.621,1.44,7.357,7.357,0,0,1,.225,1.674,6.633,6.633,0,0,1-.18,1.7,4.911,4.911,0,0,1-.612,1.476A3.183,3.183,0,0,1,21.375-.261,2.916,2.916,0,0,1,19.836.126Zm.432-3.24a1.166,1.166,0,0,0,.63-.18,1.424,1.424,0,0,0,.468-.477,1.211,1.211,0,0,0,.18-.639,1.245,1.245,0,0,0-.171-.648,1.37,1.37,0,0,0-.459-.468,1.23,1.23,0,0,0-.666-.18,1.293,1.293,0,0,0-.657.171,1.251,1.251,0,0,0-.468.468,1.293,1.293,0,0,0-.171.657,1.211,1.211,0,0,0,.18.639,1.371,1.371,0,0,0,.486.477A1.258,1.258,0,0,0,20.268-3.114ZM23.22.144a2.142,2.142,0,0,1-1.08-.216,1.086,1.086,0,0,1-.486-.684v-10.71a6.543,6.543,0,0,1,.045-.774.883.883,0,0,1,.369-.621A1.96,1.96,0,0,1,23.2-13.1a2.114,2.114,0,0,1,1.161.234.94.94,0,0,1,.405.6,4.084,4.084,0,0,1,.072.783v9.99a4.128,4.128,0,0,1-.072.774.976.976,0,0,1-.405.621A2.007,2.007,0,0,1,23.22.144ZM30.834.36a5.338,5.338,0,0,1-2.286-.441,4.223,4.223,0,0,1-1.512-1.152,4.792,4.792,0,0,1-.846-1.539,5.157,5.157,0,0,1-.27-1.6,4.874,4.874,0,0,1,.63-2.5A4.468,4.468,0,0,1,28.3-8.568a5.229,5.229,0,0,1,2.556-.612,4.588,4.588,0,0,1,1.908.36,3.781,3.781,0,0,1,1.287.918,3.764,3.764,0,0,1,.729,1.188,3.377,3.377,0,0,1,.234,1.17,2.214,2.214,0,0,1-.5,1.566,1.693,1.693,0,0,1-1.3.54H29.376a.985.985,0,0,0,.3.495,1.58,1.58,0,0,0,.567.324,2.265,2.265,0,0,0,.738.117,4.871,4.871,0,0,0,.7-.045,3.365,3.365,0,0,0,.531-.117q.225-.072.414-.144t.342-.117a1.05,1.05,0,0,1,.3-.045.929.929,0,0,1,.594.216,1.906,1.906,0,0,1,.486.648,2.01,2.01,0,0,1,.18.441,1.538,1.538,0,0,1,.054.387,1.116,1.116,0,0,1-.441.9,3.084,3.084,0,0,1-1.269.549A9.306,9.306,0,0,1,30.834.36ZM29.376-5.13h2.016a.532.532,0,0,0,.369-.108.42.42,0,0,0,.117-.324.6.6,0,0,0-.135-.4.813.813,0,0,0-.369-.243,1.711,1.711,0,0,0-.558-.081,1.6,1.6,0,0,0-.756.171,1.3,1.3,0,0,0-.495.432A1.117,1.117,0,0,0,29.376-5.13ZM45.486.162A5.657,5.657,0,0,1,43.83-.054,2.8,2.8,0,0,1,42.669-.72a2.768,2.768,0,0,1-.684-1.134,5.137,5.137,0,0,1-.225-1.6V-10.44a3.809,3.809,0,0,1,.072-.765.9.9,0,0,1,.414-.576,2.19,2.19,0,0,1,1.152-.225,2.013,2.013,0,0,1,1.134.243.967.967,0,0,1,.414.621,4.128,4.128,0,0,1,.072.774v6.75a1.734,1.734,0,0,0,.027.333.514.514,0,0,0,.081.207.328.328,0,0,0,.144.108.639.639,0,0,0,.234.036,4.4,4.4,0,0,1,.837.072.87.87,0,0,1,.576.378,1.9,1.9,0,0,1,.207,1.026,2,2,0,0,1-.252,1.152.963.963,0,0,1-.63.405A4.591,4.591,0,0,1,45.486.162Zm-4.1-9.036h2.106l2.484-.09a3.986,3.986,0,0,1,.765.072.964.964,0,0,1,.612.414,2.1,2.1,0,0,1,.243,1.17,1.931,1.931,0,0,1-.243,1.1,1.041,1.041,0,0,1-.612.432,3.3,3.3,0,0,1-.783.09l-2.286-.054H41.31a1.008,1.008,0,0,1-.846-.4,2.266,2.266,0,0,1-.234-1.188,1.936,1.936,0,0,1,.288-1.161A1.008,1.008,0,0,1,41.382-8.874Zm11.286,9a3.823,3.823,0,0,1-1.611-.342,3.948,3.948,0,0,1-1.305-.963,4.453,4.453,0,0,1-.864-1.449,5.154,5.154,0,0,1-.306-1.8V-7.362a4.084,4.084,0,0,1,.072-.783.964.964,0,0,1,.414-.612A2.055,2.055,0,0,1,50.22-9a2.049,2.049,0,0,1,1.161.243.976.976,0,0,1,.4.621,4.227,4.227,0,0,1,.072.792v2.916a1.48,1.48,0,0,0,.153.7,1.031,1.031,0,0,0,.45.441,1.493,1.493,0,0,0,.693.153,1.373,1.373,0,0,0,.684-.162,1.159,1.159,0,0,0,.45-.45,1.373,1.373,0,0,0,.162-.684V-7.38a4.084,4.084,0,0,1,.072-.783.931.931,0,0,1,.414-.6A2.12,2.12,0,0,1,56.088-9a2.049,2.049,0,0,1,1.161.243.976.976,0,0,1,.4.621,4.128,4.128,0,0,1,.072.774V-1.44a3.848,3.848,0,0,1-.072.756.929.929,0,0,1-.414.594,2.12,2.12,0,0,1-1.152.234,2.543,2.543,0,0,1-.927-.135,1.034,1.034,0,0,1-.477-.342.939.939,0,0,1-.171-.414,2.784,2.784,0,0,1-.027-.351l.306.09-.144.171a3.14,3.14,0,0,1-.423.4,2.962,2.962,0,0,1-.666.4A2.186,2.186,0,0,1,52.668.126ZM69.8.342A6.27,6.27,0,0,1,68.238.117,7.42,7.42,0,0,1,66.5-.594a6.623,6.623,0,0,1-1.6-1.26,5.954,5.954,0,0,1-1.17-1.854,6.582,6.582,0,0,1-.441-2.5,6.156,6.156,0,0,1,.441-2.412,5.92,5.92,0,0,1,1.161-1.8,6.314,6.314,0,0,1,1.593-1.224,7.788,7.788,0,0,1,1.755-.693,6.594,6.594,0,0,1,1.62-.225,5.311,5.311,0,0,1,1.62.225,6.556,6.556,0,0,1,1.143.468q.441.243.549.315a5.708,5.708,0,0,1,.675.513.948.948,0,0,1,.315.747,1.326,1.326,0,0,1-.1.486,2.341,2.341,0,0,1-.3.522,3.331,3.331,0,0,1-.675.738,1.043,1.043,0,0,1-.621.234.994.994,0,0,1-.45-.108A5.642,5.642,0,0,1,71.5-8.73q-.126-.09-.324-.207a2.39,2.39,0,0,0-.54-.216,3.332,3.332,0,0,0-.9-.1,3.436,3.436,0,0,0-1.017.171,3.354,3.354,0,0,0-1.035.54,2.769,2.769,0,0,0-.792.972,3.17,3.17,0,0,0-.306,1.449A3.081,3.081,0,0,0,66.9-4.662a2.882,2.882,0,0,0,.8.963,3.354,3.354,0,0,0,1.035.54,3.389,3.389,0,0,0,1,.171,3.316,3.316,0,0,0,.792-.081,2.421,2.421,0,0,0,.585-.225q.261-.144.477-.288a2.546,2.546,0,0,1,.432-.252,1.109,1.109,0,0,1,.468-.108.964.964,0,0,1,.612.252,3.469,3.469,0,0,1,.648.774,3.061,3.061,0,0,1,.3.567,1.357,1.357,0,0,1,.1.477.9.9,0,0,1-.315.72,4.942,4.942,0,0,1-.675.486q-.126.072-.54.324A5.028,5.028,0,0,1,71.5.126,5.8,5.8,0,0,1,69.8.342Zm14.4-.2A2.055,2.055,0,0,1,83.052-.1a.97.97,0,0,1-.414-.63,4.272,4.272,0,0,1-.072-.783V-10.8a4.128,4.128,0,0,1,.072-.774.967.967,0,0,1,.414-.621,2.1,2.1,0,0,1,1.17-.243,2.049,2.049,0,0,1,1.161.243.976.976,0,0,1,.4.621,4.227,4.227,0,0,1,.072.792v9.288a4.128,4.128,0,0,1-.072.774.967.967,0,0,1-.414.621A2.1,2.1,0,0,1,84.2.144Zm-7.4,0A2.055,2.055,0,0,1,75.654-.1a.97.97,0,0,1-.414-.63,4.272,4.272,0,0,1-.072-.783V-10.8a4.128,4.128,0,0,1,.072-.774.967.967,0,0,1,.414-.621,2.1,2.1,0,0,1,1.17-.243,2.049,2.049,0,0,1,1.161.243.976.976,0,0,1,.4.621,4.227,4.227,0,0,1,.072.792v9.288a4.128,4.128,0,0,1-.072.774.967.967,0,0,1-.414.621A2.1,2.1,0,0,1,76.806.144Zm1.368-4.878V-7.542h4.68v2.808Zm10.6,4.9a2.055,2.055,0,0,1-1.152-.243.97.97,0,0,1-.414-.63,4.272,4.272,0,0,1-.072-.783V-10.8a4.128,4.128,0,0,1,.072-.774.967.967,0,0,1,.414-.621,2.1,2.1,0,0,1,1.17-.243,2.049,2.049,0,0,1,1.161.243.976.976,0,0,1,.4.621,4.227,4.227,0,0,1,.072.792v9.306A4.128,4.128,0,0,1,90.36-.7a.967.967,0,0,1-.414.621A2.1,2.1,0,0,1,88.776.162Zm4.7-.018A2.055,2.055,0,0,1,92.322-.1a.97.97,0,0,1-.414-.63,4.271,4.271,0,0,1-.072-.783V-10.8a4.127,4.127,0,0,1,.072-.774.967.967,0,0,1,.414-.621,2.1,2.1,0,0,1,1.17-.243h3.582a4.46,4.46,0,0,1,1.476.279,5.048,5.048,0,0,1,1.5.855,4.5,4.5,0,0,1,1.161,1.44,4.388,4.388,0,0,1,.45,2.052,4.346,4.346,0,0,1-.45,2.034,4.4,4.4,0,0,1-1.161,1.431,5.151,5.151,0,0,1-1.5.846,4.5,4.5,0,0,1-1.494.279H95.13v1.728a4.127,4.127,0,0,1-.072.774.967.967,0,0,1-.414.621A2.1,2.1,0,0,1,93.474.144Zm1.656-6.66h1.944a1.541,1.541,0,0,0,.54-.117,1.287,1.287,0,0,0,.54-.405,1.221,1.221,0,0,0,.234-.792,1.276,1.276,0,0,0-.18-.675,1.321,1.321,0,0,0-.477-.468,1.328,1.328,0,0,0-.675-.171H95.13ZM113.652.342a5.8,5.8,0,0,1-2.439-.522,6.572,6.572,0,0,1-2.025-1.44,6.715,6.715,0,0,1-1.377-2.124,6.712,6.712,0,0,1-.5-2.574,6.021,6.021,0,0,1,.5-2.457,6.427,6.427,0,0,1,1.395-2.016,6.579,6.579,0,0,1,2.061-1.368,6.354,6.354,0,0,1,2.5-.495,7.787,7.787,0,0,1,1.242.108,7.57,7.57,0,0,1,1.305.333,4.648,4.648,0,0,1,1.107.549,5.757,5.757,0,0,1,.693.54.935.935,0,0,1,.315.72,1.2,1.2,0,0,1-.108.468,3.177,3.177,0,0,1-.306.54,2.615,2.615,0,0,1-.684.729,1.19,1.19,0,0,1-.648.225.935.935,0,0,1-.405-.1q-.207-.1-.567-.315a2.394,2.394,0,0,0-.414-.189,5.7,5.7,0,0,0-.729-.216,3.9,3.9,0,0,0-.891-.1,3.042,3.042,0,0,0-1.548.4,3.038,3.038,0,0,0-1.116,1.107,3.025,3.025,0,0,0-.414,1.566,3.2,3.2,0,0,0,.432,1.629,3.5,3.5,0,0,0,1.143,1.206,2.784,2.784,0,0,0,1.539.459q.324,0,.639-.018a5.315,5.315,0,0,0,.621-.072,2.926,2.926,0,0,0,.54-.144V-4.77h-1.332a2.859,2.859,0,0,1-.612-.063.728.728,0,0,1-.468-.351,1.979,1.979,0,0,1-.18-.99,1.827,1.827,0,0,1,.2-.99.76.76,0,0,1,.5-.342,3.515,3.515,0,0,1,.612-.054h3.15A1.655,1.655,0,0,1,118.4-7.3a.984.984,0,0,1,.351.585,3.971,3.971,0,0,1,.063.72V-2.3a1.657,1.657,0,0,1-.432,1.035,3.587,3.587,0,0,1-1.17.909,5.107,5.107,0,0,1-1.008.387,8.633,8.633,0,0,1-1.2.234A10.819,10.819,0,0,1,113.652.342Zm18.126-2.466a2.4,2.4,0,0,1,.288.918.911.911,0,0,1-.234.666,2.764,2.764,0,0,1-.81.576A1.918,1.918,0,0,1,129.69.3q-.468-.153-.882-1.035L125.748-7,122.724-.72a1.847,1.847,0,0,1-.9,1A1.864,1.864,0,0,1,120.51.018a2.682,2.682,0,0,1-.819-.558.894.894,0,0,1-.243-.666,2.4,2.4,0,0,1,.288-.918l4.518-9.36a1.691,1.691,0,0,1,.639-.693,1.641,1.641,0,0,1,.873-.261,1.543,1.543,0,0,1,.6.117,1.752,1.752,0,0,1,.513.333,1.668,1.668,0,0,1,.378.522ZM122.9-2.448l1.368-2.808h2.97l1.368,2.808ZM134.55.162a2.013,2.013,0,0,1-1.134-.243A.967.967,0,0,1,133-.7a4.226,4.226,0,0,1-.072-.792v-9.342a3.848,3.848,0,0,1,.072-.756.921.921,0,0,1,.423-.594,2.17,2.17,0,0,1,1.161-.234,2.057,2.057,0,0,1,1.08.2,2.3,2.3,0,0,1,.522.5l4.5,6.048v-5.166a3.435,3.435,0,0,1,.081-.756.965.965,0,0,1,.423-.594,2.12,2.12,0,0,1,1.152-.234,2.049,2.049,0,0,1,1.161.243.976.976,0,0,1,.4.621,4.226,4.226,0,0,1,.072.792v9.288a4.127,4.127,0,0,1-.072.774.967.967,0,0,1-.414.621,2.1,2.1,0,0,1-1.17.243,3.282,3.282,0,0,1-.927-.1,1.049,1.049,0,0,1-.531-.387L136.206-6.48v5a4.127,4.127,0,0,1-.072.774.967.967,0,0,1-.414.621A2.1,2.1,0,0,1,134.55.162Zm12.528,0a2.055,2.055,0,0,1-1.152-.243.97.97,0,0,1-.414-.63,4.273,4.273,0,0,1-.072-.783V-10.8a1.754,1.754,0,0,1,.369-1.287,1.922,1.922,0,0,1,1.323-.351h6.588a4.084,4.084,0,0,1,.783.072.964.964,0,0,1,.612.414,2.1,2.1,0,0,1,.243,1.17,2.055,2.055,0,0,1-.243,1.152.967.967,0,0,1-.621.414,4.226,4.226,0,0,1-.792.072h-4.968v1.6h3.33a3.891,3.891,0,0,1,.738.063.8.8,0,0,1,.522.351,1.871,1.871,0,0,1,.2,1.008,1.833,1.833,0,0,1-.2.981.77.77,0,0,1-.54.351,4.866,4.866,0,0,1-.756.054h-3.294v1.6h4.986a4.084,4.084,0,0,1,.783.072.964.964,0,0,1,.612.414,2.1,2.1,0,0,1,.243,1.17,2.055,2.055,0,0,1-.243,1.152.967.967,0,0,1-.621.414,4.226,4.226,0,0,1-.792.072Zm16.7,3.69q-.882-.4-1.026-.873a1.785,1.785,0,0,1,.234-1.251l4.374-9.792a1.774,1.774,0,0,1,.81-1.008,2.005,2.005,0,0,1,1.332.2q.864.4,1.017.846a1.7,1.7,0,0,1-.189,1.206l-4.41,9.882a1.745,1.745,0,0,1-.8,1.017A1.9,1.9,0,0,1,163.782,3.852Zm1.458-3.96-4.284-6.48a1.733,1.733,0,0,1-.378-1.2q.09-.477.864-.963a1.872,1.872,0,0,1,1.305-.405,1.84,1.84,0,0,1,.945.855l2.916,4.41Zm12.438.27a2.055,2.055,0,0,1-1.152-.243.936.936,0,0,1-.4-.63,4.864,4.864,0,0,1-.063-.783V-7.362a4.084,4.084,0,0,1,.072-.783.931.931,0,0,1,.414-.6,2.12,2.12,0,0,1,1.152-.234,2.166,2.166,0,0,1,1.125.216.878.878,0,0,1,.405.477,1.645,1.645,0,0,1,.072.405l-.288-.108.144-.162a3.2,3.2,0,0,1,.423-.378,2.931,2.931,0,0,1,.666-.378,2.242,2.242,0,0,1,.873-.162,3.785,3.785,0,0,1,.4.027,3.761,3.761,0,0,1,.522.1,2,2,0,0,1,.522.216,1.194,1.194,0,0,1,.4.378,1.03,1.03,0,0,1,.153.576,2.869,2.869,0,0,1-.387,1.53,1.159,1.159,0,0,1-1.017.63,1.824,1.824,0,0,1-.486-.045.772.772,0,0,1-.207-.09,1.508,1.508,0,0,0-.144-.09.675.675,0,0,0-.3-.045,1.832,1.832,0,0,0-.495.063,1.211,1.211,0,0,0-.4.189.874.874,0,0,0-.261.3.78.78,0,0,0-.09.369v3.51a4.128,4.128,0,0,1-.072.774.935.935,0,0,1-.414.612A2.164,2.164,0,0,1,177.678.162Zm10.53.2a5.338,5.338,0,0,1-2.286-.441,4.223,4.223,0,0,1-1.512-1.152,4.792,4.792,0,0,1-.846-1.539,5.157,5.157,0,0,1-.27-1.6,4.874,4.874,0,0,1,.63-2.5,4.468,4.468,0,0,1,1.746-1.692,5.229,5.229,0,0,1,2.556-.612,4.588,4.588,0,0,1,1.908.36,3.781,3.781,0,0,1,1.287.918,3.764,3.764,0,0,1,.729,1.188,3.377,3.377,0,0,1,.234,1.17,2.214,2.214,0,0,1-.5,1.566,1.693,1.693,0,0,1-1.3.54H186.75a.985.985,0,0,0,.3.495,1.58,1.58,0,0,0,.567.324,2.266,2.266,0,0,0,.738.117,4.871,4.871,0,0,0,.7-.045,3.366,3.366,0,0,0,.531-.117q.225-.072.414-.144t.342-.117a1.05,1.05,0,0,1,.3-.045.929.929,0,0,1,.594.216,1.906,1.906,0,0,1,.486.648,2.011,2.011,0,0,1,.18.441,1.538,1.538,0,0,1,.054.387,1.116,1.116,0,0,1-.441.9,3.084,3.084,0,0,1-1.269.549A9.306,9.306,0,0,1,188.208.36ZM186.75-5.13h2.016a.532.532,0,0,0,.369-.108.42.42,0,0,0,.117-.324.6.6,0,0,0-.135-.4.813.813,0,0,0-.369-.243,1.711,1.711,0,0,0-.558-.081,1.6,1.6,0,0,0-.756.171,1.3,1.3,0,0,0-.5.432A1.117,1.117,0,0,0,186.75-5.13ZM198.09.252a4.569,4.569,0,0,1-1.557-.3,5.3,5.3,0,0,1-1.539-.882,4.491,4.491,0,0,1-1.17-1.467,4.457,4.457,0,0,1-.45-2.052,4.36,4.36,0,0,1,.45-2.025,4.474,4.474,0,0,1,1.161-1.449,5.28,5.28,0,0,1,1.53-.873,4.525,4.525,0,0,1,1.539-.3,4.351,4.351,0,0,1,1.188.144,4.373,4.373,0,0,1,.828.315q.324.171.468.261a4.535,4.535,0,0,1,.675.5.948.948,0,0,1,.315.747,1.367,1.367,0,0,1-.09.477,2.882,2.882,0,0,1-.288.549q-.648.99-1.3.99a1.2,1.2,0,0,1-.5-.1,2.519,2.519,0,0,1-.4-.225,2.718,2.718,0,0,0-.387-.225,1.185,1.185,0,0,0-.513-.1,1.29,1.29,0,0,0-.666.18,1.371,1.371,0,0,0-.486.477,1.276,1.276,0,0,0-.18.675,1.324,1.324,0,0,0,.18.684,1.371,1.371,0,0,0,.477.486,1.211,1.211,0,0,0,.639.18,1.422,1.422,0,0,0,.423-.054.98.98,0,0,0,.261-.117.373.373,0,0,1,.108-.063l.477-.27a.929.929,0,0,1,.459-.126,1.108,1.108,0,0,1,.63.225,3.589,3.589,0,0,1,.72.729,1.745,1.745,0,0,1,.423.873,1.059,1.059,0,0,1-.207.756,2.669,2.669,0,0,1-.774.675q-.054.036-.369.207a4.738,4.738,0,0,1-.837.333A4.215,4.215,0,0,1,198.09.252Zm6.282-.09a2.055,2.055,0,0,1-1.152-.243.932.932,0,0,1-.4-.621,4.7,4.7,0,0,1-.063-.774V-7.344a3.986,3.986,0,0,1,.072-.765.964.964,0,0,1,.414-.612,2.055,2.055,0,0,1,1.152-.243,2.007,2.007,0,0,1,1.143.243.976.976,0,0,1,.4.621,4.227,4.227,0,0,1,.072.792v5.85a4.128,4.128,0,0,1-.072.774.943.943,0,0,1-.4.612A2.114,2.114,0,0,1,204.372.162Zm-.828-9.522a.715.715,0,0,1-.558-.27,2.4,2.4,0,0,1-.414-.828,1.825,1.825,0,0,1-.09-1.125,1.126,1.126,0,0,1,.792-.567l3.312-.972a.715.715,0,0,1,.558.27,2.216,2.216,0,0,1,.4.828,1.583,1.583,0,0,1,.09,1.1,1.161,1.161,0,0,1-.774.576ZM212.328.126a2.928,2.928,0,0,1-1.53-.387,3.154,3.154,0,0,1-1.062-1.044,4.911,4.911,0,0,1-.612-1.476,6.633,6.633,0,0,1-.18-1.7,7.357,7.357,0,0,1,.225-1.674,4.734,4.734,0,0,1,.621-1.44,3.132,3.132,0,0,1,1.044-1,2.9,2.9,0,0,1,1.494-.369,3.37,3.37,0,0,1,1.539.378,4.751,4.751,0,0,1,1.341,1.017,4.925,4.925,0,0,1,.936,1.449,4.263,4.263,0,0,1,.342,1.674,4.483,4.483,0,0,1-.342,1.728,4.952,4.952,0,0,1-.927,1.467,4.5,4.5,0,0,1-1.332,1.008A3.473,3.473,0,0,1,212.328.126Zm-.432-3.24a1.243,1.243,0,0,0,.657-.18,1.4,1.4,0,0,0,.477-.477,1.211,1.211,0,0,0,.18-.639,1.293,1.293,0,0,0-.171-.657,1.251,1.251,0,0,0-.468-.468,1.293,1.293,0,0,0-.657-.171,1.243,1.243,0,0,0-.657.18,1.344,1.344,0,0,0-.468.468,1.245,1.245,0,0,0-.171.648,1.211,1.211,0,0,0,.18.639,1.424,1.424,0,0,0,.468.477A1.166,1.166,0,0,0,211.9-3.114ZM208.944.144A2.055,2.055,0,0,1,207.792-.1a.932.932,0,0,1-.4-.621,4.7,4.7,0,0,1-.063-.774v-9.99a4.084,4.084,0,0,1,.072-.783.931.931,0,0,1,.414-.6,2.12,2.12,0,0,1,1.152-.234,1.96,1.96,0,0,1,1.134.243.916.916,0,0,1,.378.621,4.134,4.134,0,0,1,.036.774V-.756a1.1,1.1,0,0,1-.477.684A2.134,2.134,0,0,1,208.944.144ZM222.21.36a5.338,5.338,0,0,1-2.286-.441,4.223,4.223,0,0,1-1.512-1.152,4.792,4.792,0,0,1-.846-1.539,5.157,5.157,0,0,1-.27-1.6,4.874,4.874,0,0,1,.63-2.5,4.468,4.468,0,0,1,1.746-1.692,5.229,5.229,0,0,1,2.556-.612,4.588,4.588,0,0,1,1.908.36,3.781,3.781,0,0,1,1.287.918,3.764,3.764,0,0,1,.729,1.188,3.377,3.377,0,0,1,.234,1.17,2.214,2.214,0,0,1-.5,1.566,1.693,1.693,0,0,1-1.3.54h-3.834a.985.985,0,0,0,.3.495,1.58,1.58,0,0,0,.567.324,2.266,2.266,0,0,0,.738.117,4.871,4.871,0,0,0,.7-.045,3.366,3.366,0,0,0,.531-.117q.225-.072.414-.144t.342-.117a1.05,1.05,0,0,1,.3-.045.929.929,0,0,1,.594.216,1.906,1.906,0,0,1,.486.648,2.01,2.01,0,0,1,.18.441,1.538,1.538,0,0,1,.054.387,1.116,1.116,0,0,1-.441.9,3.084,3.084,0,0,1-1.269.549A9.306,9.306,0,0,1,222.21.36Zm-1.458-5.49h2.016a.532.532,0,0,0,.369-.108.42.42,0,0,0,.117-.324.6.6,0,0,0-.135-.4.813.813,0,0,0-.369-.243,1.711,1.711,0,0,0-.558-.081,1.6,1.6,0,0,0-.756.171,1.3,1.3,0,0,0-.5.432A1.117,1.117,0,0,0,220.752-5.13ZM231.282.162A12.753,12.753,0,0,1,229.833.09,3.167,3.167,0,0,1,228.78-.2a1.8,1.8,0,0,1-.7-.621,2.89,2.89,0,0,1-.4-1.062,8.966,8.966,0,0,1-.126-1.647V-11.5a4.085,4.085,0,0,1,.072-.783.964.964,0,0,1,.414-.612,2.055,2.055,0,0,1,1.152-.243,2.007,2.007,0,0,1,1.143.243.976.976,0,0,1,.4.621,4.226,4.226,0,0,1,.072.792v7.758q0,.27.009.423a.492.492,0,0,0,.054.225.178.178,0,0,0,.144.081q.1.009.279.009a2.112,2.112,0,0,1,.5.063.746.746,0,0,1,.45.378,2.26,2.26,0,0,1,.189,1.089,2.545,2.545,0,0,1-.189,1.152.739.739,0,0,1-.459.405A2.225,2.225,0,0,1,231.282.162Zm6.552.162a4.546,4.546,0,0,1-1.674-.333A5.313,5.313,0,0,1,234.6-.963a4.655,4.655,0,0,1-1.134-1.494,4.42,4.42,0,0,1-.423-1.953,4.574,4.574,0,0,1,.378-1.854,4.919,4.919,0,0,1,1.035-1.521,4.95,4.95,0,0,1,1.512-1.035A4.468,4.468,0,0,1,237.8-9.2a4.647,4.647,0,0,1,2.412.639,4.889,4.889,0,0,1,1.728,1.719,4.6,4.6,0,0,1,.648,2.412,4.526,4.526,0,0,1-.432,2.016A4.7,4.7,0,0,1,241.02-.918a5.02,5.02,0,0,1-1.539.927A4.655,4.655,0,0,1,237.834.324ZM237.8-2.97a1.762,1.762,0,0,0,.621-.135,1.451,1.451,0,0,0,.612-.459,1.367,1.367,0,0,0,.261-.882,1.51,1.51,0,0,0-.189-.774,1.3,1.3,0,0,0-.531-.5,1.676,1.676,0,0,0-.792-.18,1.4,1.4,0,0,0-.72.189,1.451,1.451,0,0,0-.522.522,1.468,1.468,0,0,0-.2.765,1.37,1.37,0,0,0,.252.864,1.4,1.4,0,0,0,.594.459A1.692,1.692,0,0,0,237.8-2.97ZM5.184,23.36A5.338,5.338,0,0,1,2.9,22.919a4.223,4.223,0,0,1-1.512-1.152A4.792,4.792,0,0,1,.54,20.228a5.157,5.157,0,0,1-.27-1.6,4.874,4.874,0,0,1,.63-2.5,4.468,4.468,0,0,1,1.746-1.692A5.229,5.229,0,0,1,5.2,13.82a4.588,4.588,0,0,1,1.908.36,3.736,3.736,0,0,1,2.016,2.106,3.377,3.377,0,0,1,.234,1.17,2.214,2.214,0,0,1-.5,1.566,1.693,1.693,0,0,1-1.3.54H3.726a.985.985,0,0,0,.3.495,1.58,1.58,0,0,0,.567.324,2.265,2.265,0,0,0,.738.117,4.871,4.871,0,0,0,.7-.045,3.366,3.366,0,0,0,.531-.117q.225-.072.414-.144t.342-.117a1.05,1.05,0,0,1,.3-.045.929.929,0,0,1,.594.216,1.906,1.906,0,0,1,.486.648,2.01,2.01,0,0,1,.18.441,1.538,1.538,0,0,1,.054.387,1.116,1.116,0,0,1-.441.9,3.084,3.084,0,0,1-1.269.549A9.306,9.306,0,0,1,5.184,23.36ZM3.726,17.87H5.742a.532.532,0,0,0,.369-.108.42.42,0,0,0,.117-.324.6.6,0,0,0-.135-.4.813.813,0,0,0-.369-.243,1.711,1.711,0,0,0-.558-.081,1.6,1.6,0,0,0-.756.171,1.3,1.3,0,0,0-.495.432A1.117,1.117,0,0,0,3.726,17.87Zm8.334,5.274a2.055,2.055,0,0,1-1.152-.243.932.932,0,0,1-.405-.621,4.7,4.7,0,0,1-.063-.774V15.584a3.848,3.848,0,0,1,.072-.756.9.9,0,0,1,.414-.585,2.19,2.19,0,0,1,1.152-.225,2.274,2.274,0,0,1,1.071.189.858.858,0,0,1,.423.459,1.4,1.4,0,0,1,.081.495.594.594,0,0,0,.027.279l-.144.108a.762.762,0,0,1,.207-.54,2.368,2.368,0,0,1,.594-.495,3.642,3.642,0,0,1,.792-.36,2.637,2.637,0,0,1,.8-.135,3.5,3.5,0,0,1,1.584.342,3.162,3.162,0,0,1,1.143.963,4.446,4.446,0,0,1,.693,1.449,6.6,6.6,0,0,1,.234,1.8v2.952a4.128,4.128,0,0,1-.072.774.943.943,0,0,1-.405.612,2.114,2.114,0,0,1-1.161.234,2.1,2.1,0,0,1-1.17-.243.967.967,0,0,1-.414-.621,4.128,4.128,0,0,1-.072-.774V18.572a1.48,1.48,0,0,0-.153-.7,1.056,1.056,0,0,0-.432-.441,1.6,1.6,0,0,0-1.386.009,1.143,1.143,0,0,0-.459.45,1.373,1.373,0,0,0-.162.684v2.952a4.128,4.128,0,0,1-.072.774.943.943,0,0,1-.4.612A2.114,2.114,0,0,1,12.06,23.144Zm18.234.018a5.657,5.657,0,0,1-1.656-.216,2.8,2.8,0,0,1-1.161-.666,2.768,2.768,0,0,1-.684-1.134,5.137,5.137,0,0,1-.225-1.6V12.56a3.81,3.81,0,0,1,.072-.765.9.9,0,0,1,.414-.576,2.19,2.19,0,0,1,1.152-.225,2.013,2.013,0,0,1,1.134.243.967.967,0,0,1,.414.621,4.128,4.128,0,0,1,.072.774v6.75a1.734,1.734,0,0,0,.027.333.514.514,0,0,0,.081.207.328.328,0,0,0,.144.108.639.639,0,0,0,.234.036,4.4,4.4,0,0,1,.837.072.87.87,0,0,1,.576.378,1.9,1.9,0,0,1,.207,1.026,2,2,0,0,1-.252,1.152.963.963,0,0,1-.63.405A4.591,4.591,0,0,1,30.294,23.162Zm-4.1-9.036H28.3l2.484-.09a3.987,3.987,0,0,1,.765.072.964.964,0,0,1,.612.414,2.1,2.1,0,0,1,.243,1.17,1.931,1.931,0,0,1-.243,1.1,1.041,1.041,0,0,1-.612.432,3.3,3.3,0,0,1-.783.09l-2.286-.054H26.118a1.008,1.008,0,0,1-.846-.4,2.266,2.266,0,0,1-.234-1.188,1.936,1.936,0,0,1,.288-1.161A1.008,1.008,0,0,1,26.19,14.126Zm11.286,9a3.823,3.823,0,0,1-1.611-.342,3.948,3.948,0,0,1-1.305-.963,4.453,4.453,0,0,1-.864-1.449,5.154,5.154,0,0,1-.306-1.8V15.638a4.084,4.084,0,0,1,.072-.783.964.964,0,0,1,.414-.612,2.874,2.874,0,0,1,2.313,0,.976.976,0,0,1,.4.621,4.227,4.227,0,0,1,.072.792v2.916a1.48,1.48,0,0,0,.153.7,1.031,1.031,0,0,0,.45.441,1.493,1.493,0,0,0,.693.153,1.373,1.373,0,0,0,.684-.162,1.159,1.159,0,0,0,.45-.45,1.373,1.373,0,0,0,.162-.684V15.62a4.084,4.084,0,0,1,.072-.783.931.931,0,0,1,.414-.6A2.12,2.12,0,0,1,40.9,14a2.049,2.049,0,0,1,1.161.243.976.976,0,0,1,.4.621,4.128,4.128,0,0,1,.072.774V21.56a3.848,3.848,0,0,1-.072.756.929.929,0,0,1-.414.594,2.12,2.12,0,0,1-1.152.234,2.543,2.543,0,0,1-.927-.135,1.034,1.034,0,0,1-.477-.342.939.939,0,0,1-.171-.414,2.784,2.784,0,0,1-.027-.351l.306.09-.144.171a3.14,3.14,0,0,1-.423.4,2.962,2.962,0,0,1-.666.4A2.186,2.186,0,0,1,37.476,23.126Zm12.51.018a2.033,2.033,0,0,1-1.116-.234,1.007,1.007,0,0,1-.432-.612,3.49,3.49,0,0,1-.09-.81V12.182a4.128,4.128,0,0,1,.072-.774.967.967,0,0,1,.414-.621A2.02,2.02,0,0,1,50,10.562h3.1a6.058,6.058,0,0,1,2.412.486,6.5,6.5,0,0,1,2.007,1.341,6.264,6.264,0,0,1,1.368,1.989,5.963,5.963,0,0,1,.495,2.412,6.18,6.18,0,0,1-.495,2.466A6.452,6.452,0,0,1,55.5,22.649a6.115,6.115,0,0,1-2.457.495Zm1.656-3.294H53.1a2.879,2.879,0,0,0,1.494-.405,3.078,3.078,0,0,0,1.089-1.08,2.865,2.865,0,0,0,.4-1.5,2.912,2.912,0,0,0-.4-1.512,3.055,3.055,0,0,0-1.089-1.089,2.912,2.912,0,0,0-1.512-.4h-1.44Zm13.3,3.474a4.546,4.546,0,0,1-1.674-.333,5.313,5.313,0,0,1-1.557-.954,4.655,4.655,0,0,1-1.134-1.494,4.42,4.42,0,0,1-.423-1.953,4.574,4.574,0,0,1,.378-1.854,4.951,4.951,0,0,1,2.547-2.556,4.468,4.468,0,0,1,1.827-.378,4.647,4.647,0,0,1,2.412.639,4.889,4.889,0,0,1,1.728,1.719,4.6,4.6,0,0,1,.648,2.412,4.526,4.526,0,0,1-.432,2.016,4.7,4.7,0,0,1-1.134,1.494,5.02,5.02,0,0,1-1.539.927A4.655,4.655,0,0,1,64.944,23.324Zm-.036-3.294a1.762,1.762,0,0,0,.621-.135,1.451,1.451,0,0,0,.612-.459,1.367,1.367,0,0,0,.261-.882,1.51,1.51,0,0,0-.189-.774,1.3,1.3,0,0,0-.531-.5,1.676,1.676,0,0,0-.792-.18,1.4,1.4,0,0,0-.72.189,1.451,1.451,0,0,0-.522.522,1.468,1.468,0,0,0-.2.765,1.37,1.37,0,0,0,.252.864,1.4,1.4,0,0,0,.594.459A1.692,1.692,0,0,0,64.908,20.03Zm7.434,3.132a2.055,2.055,0,0,1-1.152-.243.932.932,0,0,1-.4-.621,4.7,4.7,0,0,1-.063-.774V15.638a4.085,4.085,0,0,1,.072-.783.931.931,0,0,1,.414-.6,2.164,2.164,0,0,1,1.17-.234,1.8,1.8,0,0,1,1.179.315,1.269,1.269,0,0,1,.369,1.017l-.306-.09.135-.189a3.365,3.365,0,0,1,.4-.441,2.559,2.559,0,0,1,.639-.441A1.906,1.906,0,0,1,75.654,14a3.476,3.476,0,0,1,1.026.144,2.7,2.7,0,0,1,.855.441,3.023,3.023,0,0,1,.675.729,5.677,5.677,0,0,1,.54-.54,3.592,3.592,0,0,1,.819-.54A2.4,2.4,0,0,1,80.64,14a3,3,0,0,1,1.809.54,3.307,3.307,0,0,1,1.134,1.566,7.059,7.059,0,0,1,.387,2.484v2.934a4.128,4.128,0,0,1-.072.774.967.967,0,0,1-.414.621,2.1,2.1,0,0,1-1.17.243,2,2,0,0,1-1.152-.252.963.963,0,0,1-.4-.63,4.7,4.7,0,0,1-.063-.774V18.572a2.158,2.158,0,0,0-.1-.711.887.887,0,0,0-.288-.423.765.765,0,0,0-.477-.144.878.878,0,0,0-.495.126.7.7,0,0,0-.27.405,2.857,2.857,0,0,0-.081.765v2.934a4.128,4.128,0,0,1-.072.774.967.967,0,0,1-.414.621,2.1,2.1,0,0,1-1.17.243,2,2,0,0,1-1.152-.252.963.963,0,0,1-.4-.63,4.7,4.7,0,0,1-.063-.774V18.572a2.45,2.45,0,0,0-.09-.72.786.786,0,0,0-.279-.423.833.833,0,0,0-.5-.135.733.733,0,0,0-.54.18.923.923,0,0,0-.243.468,2.949,2.949,0,0,0-.063.63v2.97a4.128,4.128,0,0,1-.072.774.935.935,0,0,1-.414.612A2.164,2.164,0,0,1,72.342,23.162Zm14.634,0a2.055,2.055,0,0,1-1.152-.243.932.932,0,0,1-.4-.621,4.7,4.7,0,0,1-.063-.774V15.656a3.986,3.986,0,0,1,.072-.765.964.964,0,0,1,.414-.612,2.055,2.055,0,0,1,1.152-.243,2.007,2.007,0,0,1,1.143.243.976.976,0,0,1,.4.621,4.227,4.227,0,0,1,.072.792v5.85a4.128,4.128,0,0,1-.072.774.943.943,0,0,1-.4.612A2.114,2.114,0,0,1,86.976,23.162Zm0-10.008a2.055,2.055,0,0,1-1.152-.243.932.932,0,0,1-.4-.621,4.7,4.7,0,0,1-.063-.774,4.084,4.084,0,0,1,.072-.783.931.931,0,0,1,.414-.6A2.12,2.12,0,0,1,86.994,9.9a2.007,2.007,0,0,1,1.143.243.976.976,0,0,1,.4.621,4.2,4.2,0,0,1,0,1.548.943.943,0,0,1-.4.612A2.114,2.114,0,0,1,86.976,13.154Zm7.524,10.1a4.569,4.569,0,0,1-1.557-.3,5.3,5.3,0,0,1-1.539-.882,4.387,4.387,0,0,1-1.62-3.519,4.36,4.36,0,0,1,.45-2.025,4.474,4.474,0,0,1,1.161-1.449,5.281,5.281,0,0,1,1.53-.873,4.525,4.525,0,0,1,1.539-.3,4.3,4.3,0,0,1,2.016.459q.324.171.468.261a4.535,4.535,0,0,1,.675.5.948.948,0,0,1,.315.747,1.368,1.368,0,0,1-.09.477,2.882,2.882,0,0,1-.288.549q-.648.99-1.3.99a1.2,1.2,0,0,1-.5-.1,2.518,2.518,0,0,1-.4-.225,2.719,2.719,0,0,0-.387-.225,1.185,1.185,0,0,0-.513-.1,1.29,1.29,0,0,0-.666.18,1.371,1.371,0,0,0-.486.477,1.276,1.276,0,0,0-.18.675,1.324,1.324,0,0,0,.18.684,1.371,1.371,0,0,0,.477.486,1.211,1.211,0,0,0,.639.18,1.422,1.422,0,0,0,.423-.054.98.98,0,0,0,.261-.117.373.373,0,0,1,.108-.063l.477-.27a.929.929,0,0,1,.459-.126,1.108,1.108,0,0,1,.63.225,3.59,3.59,0,0,1,.72.729,1.745,1.745,0,0,1,.423.873,1.059,1.059,0,0,1-.207.756,2.669,2.669,0,0,1-.774.675q-.054.036-.369.207a4.738,4.738,0,0,1-.837.333A4.214,4.214,0,0,1,94.5,23.252Zm6.408-.09a2.055,2.055,0,0,1-1.152-.243.932.932,0,0,1-.4-.621,4.7,4.7,0,0,1-.063-.774V15.656a3.986,3.986,0,0,1,.072-.765.964.964,0,0,1,.414-.612,2.055,2.055,0,0,1,1.152-.243,2.007,2.007,0,0,1,1.143.243.976.976,0,0,1,.4.621,4.227,4.227,0,0,1,.072.792v5.85a4.128,4.128,0,0,1-.072.774.943.943,0,0,1-.4.612A2.114,2.114,0,0,1,100.908,23.162Zm0-10.008a2.055,2.055,0,0,1-1.152-.243.932.932,0,0,1-.4-.621,4.7,4.7,0,0,1-.063-.774,4.084,4.084,0,0,1,.072-.783.931.931,0,0,1,.414-.6,2.12,2.12,0,0,1,1.152-.234,2.007,2.007,0,0,1,1.143.243.976.976,0,0,1,.4.621,4.2,4.2,0,0,1,0,1.548.943.943,0,0,1-.4.612A2.114,2.114,0,0,1,100.908,13.154ZM107.8,23.162a12.753,12.753,0,0,1-1.449-.072A3.167,3.167,0,0,1,105.3,22.8a1.8,1.8,0,0,1-.7-.621,2.89,2.89,0,0,1-.4-1.062,8.966,8.966,0,0,1-.126-1.647V11.5a4.084,4.084,0,0,1,.072-.783.964.964,0,0,1,.414-.612,2.055,2.055,0,0,1,1.152-.243,2.007,2.007,0,0,1,1.143.243.976.976,0,0,1,.4.621,4.227,4.227,0,0,1,.072.792v7.758q0,.27.009.423a.492.492,0,0,0,.054.225.178.178,0,0,0,.144.081q.1.009.279.009a2.112,2.112,0,0,1,.5.063.746.746,0,0,1,.45.378,2.26,2.26,0,0,1,.189,1.089,2.545,2.545,0,0,1-.189,1.152.739.739,0,0,1-.459.405A2.225,2.225,0,0,1,107.8,23.162Zm3.762,0a2.055,2.055,0,0,1-1.152-.243.932.932,0,0,1-.4-.621,4.7,4.7,0,0,1-.063-.774V15.656a3.986,3.986,0,0,1,.072-.765.964.964,0,0,1,.414-.612,2.055,2.055,0,0,1,1.152-.243,2.007,2.007,0,0,1,1.143.243.976.976,0,0,1,.4.621,4.227,4.227,0,0,1,.072.792v5.85a4.128,4.128,0,0,1-.072.774.943.943,0,0,1-.4.612A2.114,2.114,0,0,1,111.564,23.162Zm0-10.008a2.055,2.055,0,0,1-1.152-.243.932.932,0,0,1-.4-.621,4.7,4.7,0,0,1-.063-.774,4.084,4.084,0,0,1,.072-.783.931.931,0,0,1,.414-.6,2.12,2.12,0,0,1,1.152-.234,2.007,2.007,0,0,1,1.143.243.976.976,0,0,1,.4.621,4.2,4.2,0,0,1,0,1.548.943.943,0,0,1-.4.612A2.114,2.114,0,0,1,111.564,13.154Zm7.578,10.17a4.546,4.546,0,0,1-1.674-.333,5.313,5.313,0,0,1-1.557-.954,4.655,4.655,0,0,1-1.134-1.494,4.42,4.42,0,0,1-.423-1.953,4.574,4.574,0,0,1,.378-1.854,4.951,4.951,0,0,1,2.547-2.556,4.468,4.468,0,0,1,1.827-.378,4.647,4.647,0,0,1,2.412.639,4.889,4.889,0,0,1,1.728,1.719,4.6,4.6,0,0,1,.648,2.412,4.526,4.526,0,0,1-.432,2.016,4.7,4.7,0,0,1-1.134,1.494,5.02,5.02,0,0,1-1.539.927A4.655,4.655,0,0,1,119.142,23.324Zm-.036-3.294a1.762,1.762,0,0,0,.621-.135,1.451,1.451,0,0,0,.612-.459,1.367,1.367,0,0,0,.261-.882,1.51,1.51,0,0,0-.189-.774,1.3,1.3,0,0,0-.531-.5,1.676,1.676,0,0,0-.792-.18,1.4,1.4,0,0,0-.72.189,1.451,1.451,0,0,0-.522.522,1.468,1.468,0,0,0-.2.765,1.37,1.37,0,0,0,.252.864,1.4,1.4,0,0,0,.594.459A1.692,1.692,0,0,0,119.106,20.03Z" transform="translate(4782 -376.404)"/>
    <g id="ic_two_responsive" transform="translate(4740 -402.404)">
      <circle id="Elipse_6" data-name="Elipse 6" cx="15" cy="15" r="15" fill="#1cafc9"/>
      <path id="Trazado_118496" data-name="Trazado 118496" d="M-3.382.209A1.633,1.633,0,0,1-4.6-.323a1.725,1.725,0,0,1-.513-1.235,2.663,2.663,0,0,1,.086-.684,3.036,3.036,0,0,1,.238-.618A2.88,2.88,0,0,1-4.427-3.4a5.836,5.836,0,0,1,1.216-1.14q.722-.513,1.5-.969t1.463-.912A4.884,4.884,0,0,0,.865-7.41a1.836,1.836,0,0,0,.428-1.178,1.815,1.815,0,0,0-.085-.484A1.058,1.058,0,0,0,.817-9.6a1.579,1.579,0,0,0-.969-.237,1.992,1.992,0,0,0-.684.1,1.072,1.072,0,0,0-.456.3,1.308,1.308,0,0,0-.256.494,2.423,2.423,0,0,0-.086.675A3.821,3.821,0,0,1-1.71-7.5a.944.944,0,0,1-.437.608,2.36,2.36,0,0,1-1.235.237A2.169,2.169,0,0,1-4.6-6.907a1.024,1.024,0,0,1-.437-.665A4.509,4.509,0,0,1-5.111-8.4a4.886,4.886,0,0,1,.333-1.748A4.984,4.984,0,0,1-3.8-11.733a4.984,4.984,0,0,1,1.558-1.15,4.735,4.735,0,0,1,2.071-.437,4.77,4.77,0,0,1,2.508.674A5.08,5.08,0,0,1,4.123-10.84,4.909,4.909,0,0,1,4.788-8.3a4.516,4.516,0,0,1-.3,1.691A5.23,5.23,0,0,1,3.7-5.254,6.331,6.331,0,0,1,2.66-4.228a7.678,7.678,0,0,1-1.064.7,8.084,8.084,0,0,1-.855.408,1.861,1.861,0,0,1-.418.133l.19-.3h3a4.461,4.461,0,0,1,.836.076A.979.979,0,0,1,5-2.765,2.338,2.338,0,0,1,5.244-1.52,2.176,2.176,0,0,1,4.988-.313a1.015,1.015,0,0,1-.665.446,4.614,4.614,0,0,1-.845.076Z" transform="translate(15 22)" fill="#fff"/>
    </g>
  </g>
</svg>
