<svg xmlns="http://www.w3.org/2000/svg" width="17.827" height="17.828" viewBox="0 0 17.827 17.828">
  <g id="Grupo_36186" data-name="Grupo 36186" transform="translate(-3700.843 5222.162)">
    <path id="Trazado_112406" data-name="Trazado 112406" d="M11.3,20.212A8.914,8.914,0,1,1,20.212,11.3,8.924,8.924,0,0,1,11.3,20.212m0-17.441A8.527,8.527,0,1,0,19.826,11.3,8.537,8.537,0,0,0,11.3,2.772" transform="translate(3698.458 -5224.546)" fill="#fff"/>
    <path id="Trazado_112407" data-name="Trazado 112407" d="M20.765,24.549a3.784,3.784,0,1,1,3.784-3.784,3.788,3.788,0,0,1-3.784,3.784m0-7.147a3.363,3.363,0,1,0,3.362,3.362A3.366,3.366,0,0,0,20.765,17.4" transform="translate(3688.992 -5234.013)" fill="#fff"/>
    <path id="Trazado_112408" data-name="Trazado 112408" d="M20.765,34.7a3.784,3.784,0,1,1,3.784-3.784A3.788,3.788,0,0,1,20.765,34.7m0-7.146a3.362,3.362,0,1,0,3.362,3.362,3.366,3.366,0,0,0-3.362-3.362" transform="translate(3688.992 -5240.6)" fill="#fff"/>
    <path id="Trazado_112409" data-name="Trazado 112409" d="M20.765,14.394a3.784,3.784,0,1,1,3.784-3.784,3.788,3.788,0,0,1-3.784,3.784m0-7.147a3.363,3.363,0,1,0,3.362,3.363,3.366,3.366,0,0,0-3.362-3.363" transform="translate(3688.992 -5227.427)" fill="#fff"/>
    <path id="Trazado_112410" data-name="Trazado 112410" d="M11.969,19.454a3.784,3.784,0,1,1,3.281-1.886,3.764,3.764,0,0,1-3.281,1.886m.012-7.147a3.39,3.39,0,0,0-.871.115,3.343,3.343,0,1,0,.871-.115" transform="translate(3694.693 -5230.708)" fill="#fff"/>
    <path id="Trazado_112411" data-name="Trazado 112411" d="M29.542,29.636a3.784,3.784,0,1,1,3.281-1.886,3.764,3.764,0,0,1-3.281,1.886m.012-7.145a3.362,3.362,0,1,0,1.68.453,3.365,3.365,0,0,0-1.68-.453" transform="translate(3683.296 -5237.311)" fill="#fff"/>
    <path id="Trazado_112412" data-name="Trazado 112412" d="M11.973,29.625a3.783,3.783,0,1,1,1.885-.506,3.787,3.787,0,0,1-1.885.506m-.012-7.145a3.362,3.362,0,1,0,2.918,1.681,3.344,3.344,0,0,0-2.918-1.681" transform="translate(3694.699 -5237.306)" fill="#fff"/>
    <path id="Trazado_112413" data-name="Trazado 112413" d="M29.564,19.475a3.814,3.814,0,0,1-.986-.13,3.765,3.765,0,1,1,.986.13m-.012-7.147a3.362,3.362,0,1,0,2.918,1.681,3.343,3.343,0,0,0-2.918-1.681" transform="translate(3683.291 -5230.722)" fill="#fff"/>
  </g>
</svg>
