<svg xmlns="http://www.w3.org/2000/svg" width="27" height="27" viewBox="0 0 27 27">
  <g id="Grupo_36184" data-name="Grupo 36184" transform="translate(-289 -624)">
    <circle id="Elipse_11278" data-name="Elipse 11278" cx="13.5" cy="13.5" r="13.5" transform="translate(289 624)" fill="#f95e1f"/>
    <g id="Grupo_36181" data-name="Grupo 36181" transform="translate(1838 4593)">
      <g id="Unión_7" data-name="Unión 7" transform="translate(-1545 -3965)" fill="none">
        <path d="M1,17a1,1,0,0,1-1-1V4A1,1,0,0,1,1,3H5V1h9V3h4a1,1,0,0,1,1,1V16a1,1,0,0,1-1,1Z" stroke="none"/>
        <path d="M 18 16.00010108947754 L 17.99990081787109 16.00020027160645 L 18 3.999701023101807 L 13.00040054321289 3.999701023101807 L 13.00040054321289 1.999900937080383 L 6.000400543212891 1.999900937080383 L 6.000400543212891 3.999701023101807 L 1.000000357627869 3.999600887298584 L 0.9999004006385803 16.00010108947754 L 18 16.00010108947754 M 18 17.00010108947754 L 0.9999004006385803 17.00010108947754 C 0.4473004043102264 17.00010108947754 4.089355343239731e-07 16.55190086364746 4.089355343239731e-07 16.00020027160645 L 4.089355343239731e-07 3.999600887298584 C 4.089355343239731e-07 3.447901010513306 0.4473004043102264 2.999701023101807 0.9999004006385803 2.999701023101807 L 5.000400543212891 2.999701023101807 L 5.000400543212891 0.9999009370803833 L 14.00040054321289 0.9999009370803833 L 14.00040054321289 2.999701023101807 L 18 2.999701023101807 C 18.5526008605957 2.999701023101807 18.99990081787109 3.447901010513306 18.99990081787109 3.999600887298584 L 18.99990081787109 16.00020027160645 C 18.99990081787109 16.55190086364746 18.5526008605957 17.00010108947754 18 17.00010108947754 Z" stroke="none" fill="#fff"/>
      </g>
      <g id="Elipse_11281" data-name="Elipse 11281" transform="translate(-1540 -3960)" fill="none" stroke="#fff" stroke-width="1">
        <circle cx="4.5" cy="4.5" r="4.5" stroke="none"/>
        <circle cx="4.5" cy="4.5" r="4" fill="none"/>
      </g>
    </g>
  </g>
</svg>
