<svg xmlns="http://www.w3.org/2000/svg" width="236.285" height="81.614" viewBox="0 0 236.285 81.614">
  <g id="Grupo_36217" data-name="Grupo 36217" transform="translate(-45.196 -449.284)">
    <path id="Trazado_119639" data-name="Trazado 119639" d="M16.17.14a.853.853,0,0,1-.413-.077.366.366,0,0,1-.175-.224A1.254,1.254,0,0,1,15.54-.5V-9a.658.658,0,0,1,.147-.5.79.79,0,0,1,.525-.133H21.84a1.179,1.179,0,0,1,.336.042.337.337,0,0,1,.21.182.975.975,0,0,1,.07.42.853.853,0,0,1-.077.413.366.366,0,0,1-.217.175,1.179,1.179,0,0,1-.336.042H16.8v2.9h3.5a1.106,1.106,0,0,1,.329.042.344.344,0,0,1,.2.168.839.839,0,0,1,.07.392.8.8,0,0,1-.07.378.319.319,0,0,1-.21.161,1.472,1.472,0,0,1-.35.035H16.8V-1.12h5.04a1.179,1.179,0,0,1,.336.042.34.34,0,0,1,.21.175.926.926,0,0,1,.07.413.853.853,0,0,1-.077.413A.366.366,0,0,1,22.162.1a1.179,1.179,0,0,1-.336.042Zm13.216,0A3.2,3.2,0,0,1,28.6.049a1.86,1.86,0,0,1-.616-.273,1.668,1.668,0,0,1-.441-.462,1.993,1.993,0,0,1-.266-.644,3.618,3.618,0,0,1-.084-.812l-.014-7.014a1.179,1.179,0,0,1,.042-.336.394.394,0,0,1,.175-.224.758.758,0,0,1,.4-.084.853.853,0,0,1,.413.077.366.366,0,0,1,.175.21,1.106,1.106,0,0,1,.042.329V-2.1a1.485,1.485,0,0,0,.056.434.833.833,0,0,0,.175.315.652.652,0,0,0,.3.189,1.485,1.485,0,0,0,.434.056,1.041,1.041,0,0,1,.378.056.364.364,0,0,1,.2.2.936.936,0,0,1,.063.378.77.77,0,0,1-.07.357.429.429,0,0,1-.21.2A.894.894,0,0,1,29.386.14Zm-3.3,0a2.975,2.975,0,0,1-.763-.091,1.878,1.878,0,0,1-.6-.266,1.485,1.485,0,0,1-.42-.448,1.991,1.991,0,0,1-.245-.644,4.115,4.115,0,0,1-.077-.833V-9.156a1.179,1.179,0,0,1,.042-.336.394.394,0,0,1,.175-.224.758.758,0,0,1,.4-.084.815.815,0,0,1,.4.077.4.4,0,0,1,.182.21.959.959,0,0,1,.049.329V-2.1a1.36,1.36,0,0,0,.1.546.694.694,0,0,0,.294.336.916.916,0,0,0,.462.112.839.839,0,0,1,.336.056.343.343,0,0,1,.182.2,1.041,1.041,0,0,1,.056.378.844.844,0,0,1-.063.357.414.414,0,0,1-.182.2A.711.711,0,0,1,26.082.14Zm8.3.084a3.3,3.3,0,0,1-1.309-.266,3.7,3.7,0,0,1-1.113-.735,3.439,3.439,0,0,1-.77-1.1,3.34,3.34,0,0,1-.28-1.372A3.4,3.4,0,0,1,31.178-4.6a3.462,3.462,0,0,1,.742-1.1,3.561,3.561,0,0,1,1.1-.749,3.294,3.294,0,0,1,1.337-.273,3.385,3.385,0,0,1,1.743.455,3.428,3.428,0,0,1,1.239,1.239A3.409,3.409,0,0,1,37.8-3.262a3.459,3.459,0,0,1-.28,1.407,3.445,3.445,0,0,1-.756,1.1,3.5,3.5,0,0,1-1.092.721A3.29,3.29,0,0,1,34.384.224ZM34.356-.994a2.13,2.13,0,0,0,1.092-.294A2.257,2.257,0,0,0,36.26-2.1a2.257,2.257,0,0,0,.308-1.176,2.307,2.307,0,0,0-.287-1.162,2.028,2.028,0,0,0-.791-.784,2.324,2.324,0,0,0-1.148-.28,2.145,2.145,0,0,0-1.113.294,2.254,2.254,0,0,0-.8.8,2.2,2.2,0,0,0-.3,1.148,2.247,2.247,0,0,0,.308,1.183,2.2,2.2,0,0,0,.819.8A2.208,2.208,0,0,0,34.356-.994ZM41.412.21a3.707,3.707,0,0,1-.7-.07,4.086,4.086,0,0,1-.707-.2,2.809,2.809,0,0,1-.6-.315,1.26,1.26,0,0,1-.385-.406.794.794,0,0,1-.084-.259.4.4,0,0,1,.042-.231.878.878,0,0,1,.168-.224.357.357,0,0,1,.28-.161.65.65,0,0,1,.35.189q.154.1.364.217a3.717,3.717,0,0,0,.434.21,4.014,4.014,0,0,0,.455.154,1.724,1.724,0,0,0,.455.063,1.934,1.934,0,0,0,1.036-.245.741.741,0,0,0,.392-.651.793.793,0,0,0-.1-.406.915.915,0,0,0-.266-.287,1.821,1.821,0,0,0-.378-.2q-.21-.084-.469-.161t-.511-.147q-.378-.1-.742-.224a2.713,2.713,0,0,1-.658-.329A1.583,1.583,0,0,1,39.312-4,1.593,1.593,0,0,1,39.13-4.8a1.689,1.689,0,0,1,.294-.994,1.9,1.9,0,0,1,.826-.651A3.108,3.108,0,0,1,41.5-6.678a3.686,3.686,0,0,1,.574.042,2.651,2.651,0,0,1,.511.133,3.872,3.872,0,0,1,.469.21,2.791,2.791,0,0,1,.434.287.506.506,0,0,1,.266.364.587.587,0,0,1-.154.406.558.558,0,0,1-.28.231.317.317,0,0,1-.308-.077,3.109,3.109,0,0,0-.476-.294,3.541,3.541,0,0,0-.518-.21,1.8,1.8,0,0,0-.546-.084,1.726,1.726,0,0,0-.623.105.9.9,0,0,0-.42.308.757.757,0,0,0-.147.455.543.543,0,0,0,.119.364,1,1,0,0,0,.308.238,2.565,2.565,0,0,0,.448.175q.259.077.539.147.406.1.833.231a3.228,3.228,0,0,1,.77.35,1.734,1.734,0,0,1,.56.574,1.8,1.8,0,0,1,.217.945,1.706,1.706,0,0,1-.728,1.456A3.2,3.2,0,0,1,41.412.21ZM49.826.14a.815.815,0,0,1-.4-.077.366.366,0,0,1-.175-.217A1.179,1.179,0,0,1,49.21-.49V-6.02a1.179,1.179,0,0,1,.042-.336.34.34,0,0,1,.175-.21.926.926,0,0,1,.413-.07.773.773,0,0,1,.392.077.372.372,0,0,1,.168.217,1.237,1.237,0,0,1,.042.35V-.476A1.179,1.179,0,0,1,50.4-.14a.34.34,0,0,1-.175.21A.885.885,0,0,1,49.826.14Zm0-8.456a.928.928,0,0,1-.462-.091.432.432,0,0,1-.2-.259,1.406,1.406,0,0,1-.049-.392,1.176,1.176,0,0,1,.056-.385.406.406,0,0,1,.21-.238,1.072,1.072,0,0,1,.462-.077.955.955,0,0,1,.448.084.406.406,0,0,1,.2.252,1.406,1.406,0,0,1,.049.392,1.332,1.332,0,0,1-.049.385.406.406,0,0,1-.2.245A.994.994,0,0,1,49.826-8.316ZM52.892.126a.815.815,0,0,1-.4-.077.339.339,0,0,1-.168-.217A1.4,1.4,0,0,1,52.29-.5V-6.062a.982.982,0,0,1,.042-.308.341.341,0,0,1,.175-.2.885.885,0,0,1,.4-.07.888.888,0,0,1,.329.049.331.331,0,0,1,.168.133.5.5,0,0,1,.063.182,1.292,1.292,0,0,1,.014.182l-.028.644A2.42,2.42,0,0,1,53.8-5.9a2.581,2.581,0,0,1,.49-.392,2.477,2.477,0,0,1,.609-.273,2.466,2.466,0,0,1,.707-.1,2.906,2.906,0,0,1,1.134.217,2.454,2.454,0,0,1,.889.63,2.909,2.909,0,0,1,.574.987,3.891,3.891,0,0,1,.2,1.3V-.49a1.4,1.4,0,0,1-.035.336.316.316,0,0,1-.168.21.885.885,0,0,1-.4.07.853.853,0,0,1-.413-.077.366.366,0,0,1-.175-.217A1.179,1.179,0,0,1,57.176-.5V-3.542a2.465,2.465,0,0,0-.2-1.022,1.518,1.518,0,0,0-.588-.679,1.846,1.846,0,0,0-.994-.245,1.977,1.977,0,0,0-1,.245,1.676,1.676,0,0,0-.658.679,2.145,2.145,0,0,0-.231,1.022V-.49a1.179,1.179,0,0,1-.042.336.34.34,0,0,1-.175.21A.885.885,0,0,1,52.892.126ZM63.126.14A4.227,4.227,0,0,1,62.013.014a1.82,1.82,0,0,1-.749-.392,1.473,1.473,0,0,1-.42-.693,3.789,3.789,0,0,1-.126-1.057V-8.316a1.179,1.179,0,0,1,.042-.336.372.372,0,0,1,.168-.217.773.773,0,0,1,.392-.077.859.859,0,0,1,.406.077.362.362,0,0,1,.182.21,1.106,1.106,0,0,1,.042.329v6.2a2.155,2.155,0,0,0,.063.581.655.655,0,0,0,.2.329.671.671,0,0,0,.357.14,4.5,4.5,0,0,0,.546.028,1.3,1.3,0,0,1,.364.042.344.344,0,0,1,.21.168.8.8,0,0,1,.07.378.815.815,0,0,1-.077.4A.341.341,0,0,1,63.455.1,1.423,1.423,0,0,1,63.126.14ZM59.99-6.482l1.344.014L63.28-6.5a1.4,1.4,0,0,1,.336.035.339.339,0,0,1,.217.168.816.816,0,0,1,.077.4.885.885,0,0,1-.07.4.34.34,0,0,1-.21.175,1.179,1.179,0,0,1-.336.042l-1.918-.028-1.414.014a.474.474,0,0,1-.4-.14.784.784,0,0,1-.105-.462.659.659,0,0,1,.126-.448A.522.522,0,0,1,59.99-6.482ZM65.814.14a.815.815,0,0,1-.4-.077.341.341,0,0,1-.168-.224A1.492,1.492,0,0,1,65.212-.5V-6.02a1.238,1.238,0,0,1,.042-.35.319.319,0,0,1,.168-.2.965.965,0,0,1,.406-.063.928.928,0,0,1,.385.063.347.347,0,0,1,.182.182.712.712,0,0,1,.049.273l-.056.42a3.146,3.146,0,0,1,.231-.364,1.5,1.5,0,0,1,.336-.329,1.85,1.85,0,0,1,.49-.245,2.208,2.208,0,0,1,.707-.1,2.189,2.189,0,0,1,.4.035,1.918,1.918,0,0,1,.364.105,1.4,1.4,0,0,1,.3.161.906.906,0,0,1,.2.2.4.4,0,0,1,.077.245.756.756,0,0,1-.2.525.555.555,0,0,1-.406.217.549.549,0,0,1-.266-.049,1.908,1.908,0,0,1-.161-.105.855.855,0,0,0-.217-.1,1.476,1.476,0,0,0-.448-.049,1.29,1.29,0,0,0-.441.084,1.651,1.651,0,0,0-.441.245,1.242,1.242,0,0,0-.343.413,1.242,1.242,0,0,0-.133.588V-.476A1.179,1.179,0,0,1,66.4-.14a.34.34,0,0,1-.175.21A.926.926,0,0,1,65.814.14Zm7.938.084a3.3,3.3,0,0,1-1.309-.266A3.7,3.7,0,0,1,71.33-.777a3.439,3.439,0,0,1-.77-1.1,3.34,3.34,0,0,1-.28-1.372A3.4,3.4,0,0,1,70.546-4.6a3.462,3.462,0,0,1,.742-1.1,3.561,3.561,0,0,1,1.1-.749,3.294,3.294,0,0,1,1.337-.273,3.385,3.385,0,0,1,1.743.455,3.428,3.428,0,0,1,1.239,1.239,3.409,3.409,0,0,1,.462,1.764,3.459,3.459,0,0,1-.28,1.407,3.445,3.445,0,0,1-.756,1.1,3.5,3.5,0,0,1-1.092.721A3.29,3.29,0,0,1,73.752.224ZM73.724-.994a2.13,2.13,0,0,0,1.092-.294,2.257,2.257,0,0,0,.812-.812,2.257,2.257,0,0,0,.308-1.176,2.307,2.307,0,0,0-.287-1.162,2.028,2.028,0,0,0-.791-.784A2.324,2.324,0,0,0,73.71-5.5a2.145,2.145,0,0,0-1.113.294,2.254,2.254,0,0,0-.8.8,2.2,2.2,0,0,0-.3,1.148,2.247,2.247,0,0,0,.308,1.183,2.2,2.2,0,0,0,.819.8A2.208,2.208,0,0,0,73.724-.994ZM81.452.14a2.963,2.963,0,0,1-1.2-.252,2.981,2.981,0,0,1-1-.714,3.43,3.43,0,0,1-.672-1.085,3.7,3.7,0,0,1-.245-1.365,3.6,3.6,0,0,1,.245-1.344,3.363,3.363,0,0,1,.672-1.071,3.028,3.028,0,0,1,1-.707,2.963,2.963,0,0,1,1.2-.252,2.954,2.954,0,0,1,1.239.252,2.791,2.791,0,0,1,.952.707,3.13,3.13,0,0,1,.609,1.078,4.2,4.2,0,0,1,.21,1.351,3.842,3.842,0,0,1-.2,1.358A3.387,3.387,0,0,1,83.65-.826a2.684,2.684,0,0,1-.945.714A2.989,2.989,0,0,1,81.452.14Zm.182-1.19a2.022,2.022,0,0,0,1.057-.28,2.015,2.015,0,0,0,.742-.777,2.331,2.331,0,0,0,.273-1.141A2.361,2.361,0,0,0,83.433-4.4a2.015,2.015,0,0,0-.742-.777,2.022,2.022,0,0,0-1.057-.28,2.059,2.059,0,0,0-1.064.28,2,2,0,0,0-.749.777,2.361,2.361,0,0,0-.273,1.155,2.331,2.331,0,0,0,.273,1.141,1.985,1.985,0,0,0,.756.777A2.07,2.07,0,0,0,81.634-1.05ZM84.378.14A.718.718,0,0,1,83.93.028a.533.533,0,0,1-.168-.378V-9.114a1.472,1.472,0,0,1,.035-.35.339.339,0,0,1,.168-.217.815.815,0,0,1,.4-.077.815.815,0,0,1,.4.077.366.366,0,0,1,.175.217,1.179,1.179,0,0,1,.042.336V-.5a1.254,1.254,0,0,1-.042.343.373.373,0,0,1-.168.224A.773.773,0,0,1,84.378.14Zm5.04.014A2.877,2.877,0,0,1,88.277-.07,2.775,2.775,0,0,1,87.36-.7a2.833,2.833,0,0,1-.609-.98,3.662,3.662,0,0,1-.217-1.3V-6.02a1.179,1.179,0,0,1,.042-.336.366.366,0,0,1,.175-.217.815.815,0,0,1,.4-.077.758.758,0,0,1,.4.084.394.394,0,0,1,.175.224,1.179,1.179,0,0,1,.042.336v3.038a2.477,2.477,0,0,0,.2,1.015,1.458,1.458,0,0,0,.6.679,1.868,1.868,0,0,0,.973.238,2.053,2.053,0,0,0,1.015-.238,1.62,1.62,0,0,0,.658-.679,2.156,2.156,0,0,0,.231-1.015V-6.02a1.179,1.179,0,0,1,.042-.336.366.366,0,0,1,.175-.217.815.815,0,0,1,.4-.077.758.758,0,0,1,.4.084.364.364,0,0,1,.168.224,1.4,1.4,0,0,1,.035.336V-.448a1.185,1.185,0,0,1-.035.3.314.314,0,0,1-.168.2.885.885,0,0,1-.4.07.969.969,0,0,1-.315-.042.379.379,0,0,1-.175-.112.4.4,0,0,1-.077-.161.838.838,0,0,1-.021-.189l.056-.6q-.14.168-.336.364a3.077,3.077,0,0,1-.455.371,2.5,2.5,0,0,1-.581.287A2.208,2.208,0,0,1,89.418.154Zm8.106.014A3.868,3.868,0,0,1,96.159-.07a3.356,3.356,0,0,1-1.12-.686,3.187,3.187,0,0,1-.756-1.071,3.508,3.508,0,0,1-.273-1.421,3.508,3.508,0,0,1,.273-1.421,3.236,3.236,0,0,1,.749-1.071,3.279,3.279,0,0,1,1.113-.686A3.828,3.828,0,0,1,97.5-6.664a3.076,3.076,0,0,1,.938.147,3.394,3.394,0,0,1,.819.378,1.6,1.6,0,0,1,.511.483,2.268,2.268,0,0,1,.2.3.325.325,0,0,1,.007.273.709.709,0,0,1-.154.2,1.073,1.073,0,0,1-.2.147.426.426,0,0,1-.5.056,2.6,2.6,0,0,0-.343-.287,3.8,3.8,0,0,0-.4-.245,2.224,2.224,0,0,0-.427-.175,1.624,1.624,0,0,0-.455-.063,2.4,2.4,0,0,0-1.162.273,1.9,1.9,0,0,0-.777.77,2.361,2.361,0,0,0-.273,1.155A2.321,2.321,0,0,0,95.557-2.1a1.97,1.97,0,0,0,.77.77,2.284,2.284,0,0,0,1.141.28,2.079,2.079,0,0,0,.567-.077,2.352,2.352,0,0,0,.511-.21,1.776,1.776,0,0,0,.392-.287l.238-.168a.4.4,0,0,1,.238-.07.413.413,0,0,1,.238.091,1.352,1.352,0,0,1,.266.273.514.514,0,0,1,.133.266A.409.409,0,0,1,100-.966a.907.907,0,0,1-.224.252,2.608,2.608,0,0,1-.6.427,3.987,3.987,0,0,1-.805.329A3.053,3.053,0,0,1,97.524.168Zm7.112.042a3.794,3.794,0,0,1-1.5-.28,3.26,3.26,0,0,1-1.113-.763,3.314,3.314,0,0,1-.693-1.113,3.811,3.811,0,0,1-.238-1.358,3.313,3.313,0,0,1,.448-1.722,3.25,3.25,0,0,1,1.239-1.2,3.66,3.66,0,0,1,1.813-.441,3.408,3.408,0,0,1,1.253.217,2.96,2.96,0,0,1,.945.581,2.627,2.627,0,0,1,.6.812,2.1,2.1,0,0,1,.21.9,1.261,1.261,0,0,1-.336,1,1.228,1.228,0,0,1-.826.287H102.4a1.608,1.608,0,0,0,.329,1.057,2.266,2.266,0,0,0,.868.679A2.539,2.539,0,0,0,104.65-.9a4.611,4.611,0,0,0,.672-.042,2.939,2.939,0,0,0,.49-.112,3.769,3.769,0,0,0,.364-.14,2.942,2.942,0,0,0,.273-.14.879.879,0,0,1,.231-.1.4.4,0,0,1,.245.021.372.372,0,0,1,.189.189.662.662,0,0,1,.112.21.761.761,0,0,1,.028.21q0,.2-.336.434a3.065,3.065,0,0,1-.931.406A4.977,4.977,0,0,1,104.636.21ZM102.4-3.7h3.514a.885.885,0,0,0,.4-.07q.133-.07.133-.378a1.144,1.144,0,0,0-.238-.707,1.721,1.721,0,0,0-.651-.511,2.179,2.179,0,0,0-.945-.2,2.573,2.573,0,0,0-1.127.245,2.029,2.029,0,0,0-.805.665A1.546,1.546,0,0,0,102.4-3.7ZM109.62.126a.815.815,0,0,1-.4-.077.339.339,0,0,1-.168-.217,1.4,1.4,0,0,1-.035-.336V-6.062a.982.982,0,0,1,.042-.308.341.341,0,0,1,.175-.2.885.885,0,0,1,.4-.07.888.888,0,0,1,.329.049.331.331,0,0,1,.168.133.5.5,0,0,1,.063.182,1.293,1.293,0,0,1,.014.182l-.028.644a2.42,2.42,0,0,1,.35-.455,2.581,2.581,0,0,1,.49-.392,2.477,2.477,0,0,1,.609-.273,2.466,2.466,0,0,1,.707-.1,2.906,2.906,0,0,1,1.134.217,2.454,2.454,0,0,1,.889.63,2.909,2.909,0,0,1,.574.987,3.891,3.891,0,0,1,.2,1.3V-.49a1.4,1.4,0,0,1-.035.336.316.316,0,0,1-.168.21.885.885,0,0,1-.4.07.853.853,0,0,1-.413-.077.366.366,0,0,1-.175-.217A1.179,1.179,0,0,1,113.9-.5V-3.542a2.465,2.465,0,0,0-.2-1.022,1.518,1.518,0,0,0-.588-.679,1.846,1.846,0,0,0-.994-.245,1.977,1.977,0,0,0-1,.245,1.676,1.676,0,0,0-.658.679,2.145,2.145,0,0,0-.231,1.022V-.49a1.179,1.179,0,0,1-.042.336.34.34,0,0,1-.175.21A.885.885,0,0,1,109.62.126ZM123.284.14a4.227,4.227,0,0,1-1.113-.126,1.82,1.82,0,0,1-.749-.392,1.473,1.473,0,0,1-.42-.693,3.789,3.789,0,0,1-.126-1.057V-8.316a1.179,1.179,0,0,1,.042-.336.372.372,0,0,1,.168-.217.773.773,0,0,1,.392-.077.859.859,0,0,1,.406.077.362.362,0,0,1,.182.21,1.106,1.106,0,0,1,.042.329v6.2a2.155,2.155,0,0,0,.063.581.655.655,0,0,0,.2.329.671.671,0,0,0,.357.14,4.5,4.5,0,0,0,.546.028,1.3,1.3,0,0,1,.364.042.344.344,0,0,1,.21.168.8.8,0,0,1,.07.378.815.815,0,0,1-.077.4.341.341,0,0,1-.224.168A1.423,1.423,0,0,1,123.284.14Zm-3.136-6.622,1.344.014,1.946-.028a1.4,1.4,0,0,1,.336.035.339.339,0,0,1,.217.168.815.815,0,0,1,.077.4.885.885,0,0,1-.07.4.34.34,0,0,1-.21.175,1.179,1.179,0,0,1-.336.042l-1.918-.028-1.414.014a.474.474,0,0,1-.4-.14.784.784,0,0,1-.105-.462.659.659,0,0,1,.126-.448A.522.522,0,0,1,120.148-6.482Zm7.9,6.636A2.877,2.877,0,0,1,126.9-.07a2.775,2.775,0,0,1-.917-.63,2.833,2.833,0,0,1-.609-.98,3.662,3.662,0,0,1-.217-1.3V-6.02a1.179,1.179,0,0,1,.042-.336.366.366,0,0,1,.175-.217.815.815,0,0,1,.4-.077.758.758,0,0,1,.4.084.394.394,0,0,1,.175.224,1.179,1.179,0,0,1,.042.336v3.038a2.477,2.477,0,0,0,.2,1.015,1.458,1.458,0,0,0,.6.679,1.868,1.868,0,0,0,.973.238,2.053,2.053,0,0,0,1.015-.238,1.62,1.62,0,0,0,.658-.679,2.156,2.156,0,0,0,.231-1.015V-6.02a1.179,1.179,0,0,1,.042-.336.366.366,0,0,1,.175-.217.816.816,0,0,1,.4-.077.758.758,0,0,1,.4.084.364.364,0,0,1,.168.224,1.4,1.4,0,0,1,.035.336V-.448a1.185,1.185,0,0,1-.035.3.314.314,0,0,1-.168.2.885.885,0,0,1-.4.07.969.969,0,0,1-.315-.042.379.379,0,0,1-.175-.112.4.4,0,0,1-.077-.161.838.838,0,0,1-.021-.189l.056-.6q-.14.168-.336.364a3.076,3.076,0,0,1-.455.371,2.5,2.5,0,0,1-.581.287A2.208,2.208,0,0,1,128.044.154ZM137.13.126a.815.815,0,0,1-.4-.077.339.339,0,0,1-.168-.217,1.4,1.4,0,0,1-.035-.336V-6.062a.982.982,0,0,1,.042-.308.341.341,0,0,1,.175-.2.885.885,0,0,1,.4-.07.888.888,0,0,1,.329.049.331.331,0,0,1,.168.133.5.5,0,0,1,.063.182,1.294,1.294,0,0,1,.014.182l-.028.644a2.42,2.42,0,0,1,.35-.455,2.581,2.581,0,0,1,.49-.392,2.477,2.477,0,0,1,.609-.273,2.466,2.466,0,0,1,.707-.1,2.906,2.906,0,0,1,1.134.217,2.454,2.454,0,0,1,.889.63,2.909,2.909,0,0,1,.574.987,3.891,3.891,0,0,1,.2,1.3V-.49a1.4,1.4,0,0,1-.035.336.316.316,0,0,1-.168.21.885.885,0,0,1-.4.07.853.853,0,0,1-.413-.077.366.366,0,0,1-.175-.217,1.179,1.179,0,0,1-.042-.336V-3.542a2.465,2.465,0,0,0-.2-1.022,1.517,1.517,0,0,0-.588-.679,1.846,1.846,0,0,0-.994-.245,1.977,1.977,0,0,0-1,.245,1.676,1.676,0,0,0-.658.679,2.145,2.145,0,0,0-.231,1.022V-.49a1.179,1.179,0,0,1-.042.336.34.34,0,0,1-.175.21A.885.885,0,0,1,137.13.126ZM147,.154a2.877,2.877,0,0,1-1.141-.224,2.775,2.775,0,0,1-.917-.63,2.833,2.833,0,0,1-.609-.98,3.662,3.662,0,0,1-.217-1.3V-6.02a1.179,1.179,0,0,1,.042-.336.366.366,0,0,1,.175-.217.815.815,0,0,1,.4-.077.758.758,0,0,1,.4.084.394.394,0,0,1,.175.224,1.179,1.179,0,0,1,.042.336v3.038a2.477,2.477,0,0,0,.2,1.015,1.458,1.458,0,0,0,.6.679,1.868,1.868,0,0,0,.973.238,2.053,2.053,0,0,0,1.015-.238,1.62,1.62,0,0,0,.658-.679,2.156,2.156,0,0,0,.231-1.015V-6.02a1.179,1.179,0,0,1,.042-.336.366.366,0,0,1,.175-.217.816.816,0,0,1,.4-.077.758.758,0,0,1,.4.084.364.364,0,0,1,.168.224,1.4,1.4,0,0,1,.035.336V-.448a1.185,1.185,0,0,1-.035.3.314.314,0,0,1-.168.2.885.885,0,0,1-.4.07.969.969,0,0,1-.315-.042.379.379,0,0,1-.175-.112.4.4,0,0,1-.077-.161.838.838,0,0,1-.021-.189l.056-.6q-.14.168-.336.364a3.076,3.076,0,0,1-.455.371,2.5,2.5,0,0,1-.581.287A2.208,2.208,0,0,1,147,.154Zm-.112-7.714a.466.466,0,0,1-.35-.042.642.642,0,0,1-.21-.35.675.675,0,0,1-.035-.448.481.481,0,0,1,.329-.238l2.24-.756a.416.416,0,0,1,.336.049.686.686,0,0,1,.21.357.585.585,0,0,1,.021.441.6.6,0,0,1-.343.245Zm5.628,7.7a.72.72,0,0,1-.392-.084.4.4,0,0,1-.168-.224,1.179,1.179,0,0,1-.042-.336V-6.048a1.036,1.036,0,0,1,.042-.322.341.341,0,0,1,.175-.2.885.885,0,0,1,.4-.07.656.656,0,0,1,.441.119.535.535,0,0,1,.133.413l-.056.6a1.642,1.642,0,0,1,.294-.42,2.247,2.247,0,0,1,.469-.378,2.62,2.62,0,0,1,.581-.266,2.066,2.066,0,0,1,.63-.1,2.093,2.093,0,0,1,.875.175,2.233,2.233,0,0,1,.693.5,2.742,2.742,0,0,1,.518.8,4.543,4.543,0,0,1,.6-.791,2.192,2.192,0,0,1,.721-.5,2.277,2.277,0,0,1,.91-.175,2.185,2.185,0,0,1,1.337.4,2.414,2.414,0,0,1,.812,1.12,4.889,4.889,0,0,1,.273,1.729V-.49a1.4,1.4,0,0,1-.035.336.339.339,0,0,1-.168.217.853.853,0,0,1-.413.077.758.758,0,0,1-.4-.084.394.394,0,0,1-.175-.224,1.179,1.179,0,0,1-.042-.336V-3.43a3.547,3.547,0,0,0-.147-1.085,1.493,1.493,0,0,0-.448-.707,1.17,1.17,0,0,0-.777-.252,1.62,1.62,0,0,0-.889.245,1.593,1.593,0,0,0-.6.707,2.62,2.62,0,0,0-.21,1.092V-.476a.749.749,0,0,1-.084.364.462.462,0,0,1-.252.217.771.771,0,0,1-.406.021.709.709,0,0,1-.336-.112.355.355,0,0,1-.14-.217,1.468,1.468,0,0,1-.028-.3V-3.43a3.547,3.547,0,0,0-.147-1.085,1.493,1.493,0,0,0-.448-.707,1.17,1.17,0,0,0-.777-.252,1.555,1.555,0,0,0-.889.259,1.686,1.686,0,0,0-.6.721,2.547,2.547,0,0,0-.21,1.064V-.49a1.179,1.179,0,0,1-.042.336.366.366,0,0,1-.175.217A.853.853,0,0,1,152.516.14ZM166.67.21a3.794,3.794,0,0,1-1.5-.28,3.26,3.26,0,0,1-1.113-.763,3.314,3.314,0,0,1-.693-1.113,3.811,3.811,0,0,1-.238-1.358,3.313,3.313,0,0,1,.448-1.722,3.25,3.25,0,0,1,1.239-1.2,3.66,3.66,0,0,1,1.813-.441,3.408,3.408,0,0,1,1.253.217,2.96,2.96,0,0,1,.945.581,2.627,2.627,0,0,1,.6.812,2.1,2.1,0,0,1,.21.9,1.261,1.261,0,0,1-.336,1,1.228,1.228,0,0,1-.826.287H164.43a1.608,1.608,0,0,0,.329,1.057,2.266,2.266,0,0,0,.868.679,2.539,2.539,0,0,0,1.057.238,4.611,4.611,0,0,0,.672-.042,2.939,2.939,0,0,0,.49-.112,3.768,3.768,0,0,0,.364-.14,2.94,2.94,0,0,0,.273-.14.879.879,0,0,1,.231-.1.4.4,0,0,1,.245.021.372.372,0,0,1,.189.189.662.662,0,0,1,.112.21.762.762,0,0,1,.028.21q0,.2-.336.434a3.065,3.065,0,0,1-.931.406A4.977,4.977,0,0,1,166.67.21ZM164.43-3.7h3.514a.885.885,0,0,0,.4-.07q.133-.07.133-.378a1.144,1.144,0,0,0-.238-.707,1.721,1.721,0,0,0-.651-.511,2.179,2.179,0,0,0-.945-.2,2.573,2.573,0,0,0-1.127.245,2.029,2.029,0,0,0-.805.665A1.546,1.546,0,0,0,164.43-3.7ZM171.654.14a.815.815,0,0,1-.4-.077.341.341,0,0,1-.168-.224,1.492,1.492,0,0,1-.035-.343V-6.02a1.238,1.238,0,0,1,.042-.35.319.319,0,0,1,.168-.2.965.965,0,0,1,.406-.063.928.928,0,0,1,.385.063.346.346,0,0,1,.182.182.712.712,0,0,1,.049.273l-.056.42a3.145,3.145,0,0,1,.231-.364,1.5,1.5,0,0,1,.336-.329,1.849,1.849,0,0,1,.49-.245,2.208,2.208,0,0,1,.707-.1,2.189,2.189,0,0,1,.4.035,1.918,1.918,0,0,1,.364.105,1.4,1.4,0,0,1,.3.161.906.906,0,0,1,.2.2.4.4,0,0,1,.077.245.756.756,0,0,1-.2.525.555.555,0,0,1-.406.217.549.549,0,0,1-.266-.049,1.908,1.908,0,0,1-.161-.105.855.855,0,0,0-.217-.1,1.477,1.477,0,0,0-.448-.049,1.29,1.29,0,0,0-.441.084,1.651,1.651,0,0,0-.441.245,1.242,1.242,0,0,0-.343.413,1.242,1.242,0,0,0-.133.588V-.476a1.179,1.179,0,0,1-.042.336.34.34,0,0,1-.175.21A.926.926,0,0,1,171.654.14Zm7.938.084a3.3,3.3,0,0,1-1.309-.266,3.7,3.7,0,0,1-1.113-.735,3.438,3.438,0,0,1-.77-1.1,3.34,3.34,0,0,1-.28-1.372,3.4,3.4,0,0,1,.266-1.351,3.462,3.462,0,0,1,.742-1.1,3.561,3.561,0,0,1,1.1-.749,3.294,3.294,0,0,1,1.337-.273,3.385,3.385,0,0,1,1.743.455,3.428,3.428,0,0,1,1.239,1.239,3.409,3.409,0,0,1,.462,1.764,3.459,3.459,0,0,1-.28,1.407,3.445,3.445,0,0,1-.756,1.1,3.5,3.5,0,0,1-1.092.721A3.29,3.29,0,0,1,179.592.224Zm-.028-1.218a2.13,2.13,0,0,0,1.092-.294,2.257,2.257,0,0,0,.812-.812,2.257,2.257,0,0,0,.308-1.176,2.307,2.307,0,0,0-.287-1.162,2.028,2.028,0,0,0-.791-.784,2.324,2.324,0,0,0-1.148-.28,2.145,2.145,0,0,0-1.113.294,2.254,2.254,0,0,0-.8.8,2.2,2.2,0,0,0-.3,1.148,2.247,2.247,0,0,0,.308,1.183,2.2,2.2,0,0,0,.819.8A2.208,2.208,0,0,0,179.564-.994ZM190.848.14a2.963,2.963,0,0,1-1.2-.252,2.981,2.981,0,0,1-1-.714,3.429,3.429,0,0,1-.672-1.085,3.7,3.7,0,0,1-.245-1.365,3.6,3.6,0,0,1,.245-1.344,3.363,3.363,0,0,1,.672-1.071,3.028,3.028,0,0,1,1-.707,2.963,2.963,0,0,1,1.2-.252,2.954,2.954,0,0,1,1.239.252,2.791,2.791,0,0,1,.952.707,3.13,3.13,0,0,1,.609,1.078,4.2,4.2,0,0,1,.21,1.351,3.842,3.842,0,0,1-.2,1.358,3.387,3.387,0,0,1-.609,1.078,2.684,2.684,0,0,1-.945.714A2.989,2.989,0,0,1,190.848.14Zm.182-1.19a2.022,2.022,0,0,0,1.057-.28,2.015,2.015,0,0,0,.742-.777,2.331,2.331,0,0,0,.273-1.141,2.361,2.361,0,0,0-.273-1.155,2.015,2.015,0,0,0-.742-.777,2.022,2.022,0,0,0-1.057-.28,2.059,2.059,0,0,0-1.064.28,2,2,0,0,0-.749.777,2.361,2.361,0,0,0-.273,1.155,2.331,2.331,0,0,0,.273,1.141,1.984,1.984,0,0,0,.756.777A2.07,2.07,0,0,0,191.03-1.05ZM193.774.14a.718.718,0,0,1-.448-.112.533.533,0,0,1-.168-.378V-9.114a1.473,1.473,0,0,1,.035-.35.339.339,0,0,1,.168-.217.815.815,0,0,1,.4-.077.815.815,0,0,1,.4.077.366.366,0,0,1,.175.217,1.179,1.179,0,0,1,.042.336V-.5a1.254,1.254,0,0,1-.042.343.373.373,0,0,1-.168.224A.773.773,0,0,1,193.774.14Zm5.04.014a2.877,2.877,0,0,1-1.141-.224,2.775,2.775,0,0,1-.917-.63,2.833,2.833,0,0,1-.609-.98,3.662,3.662,0,0,1-.217-1.3V-6.02a1.179,1.179,0,0,1,.042-.336.366.366,0,0,1,.175-.217.815.815,0,0,1,.4-.077.758.758,0,0,1,.4.084.394.394,0,0,1,.175.224,1.179,1.179,0,0,1,.042.336v3.038a2.477,2.477,0,0,0,.2,1.015,1.458,1.458,0,0,0,.6.679,1.868,1.868,0,0,0,.973.238,2.053,2.053,0,0,0,1.015-.238,1.62,1.62,0,0,0,.658-.679,2.156,2.156,0,0,0,.231-1.015V-6.02a1.179,1.179,0,0,1,.042-.336.366.366,0,0,1,.175-.217.816.816,0,0,1,.4-.077.758.758,0,0,1,.4.084.364.364,0,0,1,.168.224,1.4,1.4,0,0,1,.035.336V-.448a1.185,1.185,0,0,1-.035.3.314.314,0,0,1-.168.2.885.885,0,0,1-.4.07.969.969,0,0,1-.315-.042.379.379,0,0,1-.175-.112.4.4,0,0,1-.077-.161.838.838,0,0,1-.021-.189l.056-.6q-.14.168-.336.364a3.076,3.076,0,0,1-.455.371,2.5,2.5,0,0,1-.581.287A2.208,2.208,0,0,1,198.814.154Zm5.53-.014a.815.815,0,0,1-.4-.077.341.341,0,0,1-.168-.224,1.492,1.492,0,0,1-.035-.343V-6.02a1.238,1.238,0,0,1,.042-.35.319.319,0,0,1,.168-.2.965.965,0,0,1,.406-.063.928.928,0,0,1,.385.063.346.346,0,0,1,.182.182.712.712,0,0,1,.049.273l-.056.42a3.145,3.145,0,0,1,.231-.364,1.5,1.5,0,0,1,.336-.329,1.85,1.85,0,0,1,.49-.245,2.208,2.208,0,0,1,.707-.1,2.189,2.189,0,0,1,.4.035,1.918,1.918,0,0,1,.364.105,1.4,1.4,0,0,1,.3.161.906.906,0,0,1,.2.2.4.4,0,0,1,.077.245.756.756,0,0,1-.2.525.555.555,0,0,1-.406.217.549.549,0,0,1-.266-.049A1.908,1.908,0,0,1,207-5.4a.855.855,0,0,0-.217-.1,1.476,1.476,0,0,0-.448-.049,1.29,1.29,0,0,0-.441.084,1.651,1.651,0,0,0-.441.245,1.242,1.242,0,0,0-.343.413,1.242,1.242,0,0,0-.133.588V-.476a1.179,1.179,0,0,1-.042.336.34.34,0,0,1-.175.21A.926.926,0,0,1,204.344.14ZM214.55.126A.63.63,0,0,1,214.109,0a.61.61,0,0,1-.161-.392l.056-.7a2.909,2.909,0,0,1-.434.511,2.686,2.686,0,0,1-.77.5,2.792,2.792,0,0,1-1.162.217,2.974,2.974,0,0,1-1.253-.266,3.194,3.194,0,0,1-1.022-.742,3.489,3.489,0,0,1-.686-1.092,3.528,3.528,0,0,1-.245-1.316,3.437,3.437,0,0,1,.245-1.3,3.282,3.282,0,0,1,.693-1.071A3.384,3.384,0,0,1,210.4-6.37a2.941,2.941,0,0,1,1.239-.266,3.029,3.029,0,0,1,1.05.161,2.581,2.581,0,0,1,.749.42,3.254,3.254,0,0,1,.553.581l-.028-.588A.536.536,0,0,1,214.1-6.5a.687.687,0,0,1,.469-.133.682.682,0,0,1,.385.084.413.413,0,0,1,.161.238,1.458,1.458,0,0,1,.042.378v5.4a1.333,1.333,0,0,1-.042.35.374.374,0,0,1-.168.231A.773.773,0,0,1,214.55.126Zm-2.7-1.162a1.9,1.9,0,0,0,1.029-.294,2.122,2.122,0,0,0,.742-.791,2.331,2.331,0,0,0,.273-1.141,2.268,2.268,0,0,0-.287-1.155,2.177,2.177,0,0,0-.756-.784,1.934,1.934,0,0,0-1.029-.287,2.113,2.113,0,0,0-1.141.3,2.179,2.179,0,0,0-.763.8,2.324,2.324,0,0,0-.28,1.148,2.256,2.256,0,0,0,.28,1.127,2.055,2.055,0,0,0,.777.784A2.268,2.268,0,0,0,211.848-1.036ZM217.434.126a.815.815,0,0,1-.4-.077.339.339,0,0,1-.168-.217,1.4,1.4,0,0,1-.035-.336V-6.062a.982.982,0,0,1,.042-.308.341.341,0,0,1,.175-.2.885.885,0,0,1,.4-.07.888.888,0,0,1,.329.049.331.331,0,0,1,.168.133.5.5,0,0,1,.063.182,1.294,1.294,0,0,1,.014.182l-.028.644a2.42,2.42,0,0,1,.35-.455,2.581,2.581,0,0,1,.49-.392,2.477,2.477,0,0,1,.609-.273,2.466,2.466,0,0,1,.707-.1,2.906,2.906,0,0,1,1.134.217,2.454,2.454,0,0,1,.889.63,2.909,2.909,0,0,1,.574.987,3.891,3.891,0,0,1,.2,1.3V-.49a1.4,1.4,0,0,1-.035.336.316.316,0,0,1-.168.21.885.885,0,0,1-.4.07.853.853,0,0,1-.413-.077.366.366,0,0,1-.175-.217,1.179,1.179,0,0,1-.042-.336V-3.542a2.465,2.465,0,0,0-.2-1.022,1.517,1.517,0,0,0-.588-.679,1.846,1.846,0,0,0-.994-.245,1.977,1.977,0,0,0-1,.245,1.676,1.676,0,0,0-.658.679,2.145,2.145,0,0,0-.231,1.022V-.49a1.179,1.179,0,0,1-.042.336.34.34,0,0,1-.175.21A.885.885,0,0,1,217.434.126ZM227.668.14a4.227,4.227,0,0,1-1.113-.126,1.82,1.82,0,0,1-.749-.392,1.473,1.473,0,0,1-.42-.693,3.789,3.789,0,0,1-.126-1.057V-8.316a1.179,1.179,0,0,1,.042-.336.372.372,0,0,1,.168-.217.773.773,0,0,1,.392-.077.859.859,0,0,1,.406.077.362.362,0,0,1,.182.21,1.106,1.106,0,0,1,.042.329v6.2a2.155,2.155,0,0,0,.063.581.655.655,0,0,0,.2.329.671.671,0,0,0,.357.14,4.5,4.5,0,0,0,.546.028,1.3,1.3,0,0,1,.364.042.344.344,0,0,1,.21.168.8.8,0,0,1,.07.378.816.816,0,0,1-.077.4A.341.341,0,0,1,228,.1,1.423,1.423,0,0,1,227.668.14Zm-3.136-6.622,1.344.014,1.946-.028a1.4,1.4,0,0,1,.336.035.339.339,0,0,1,.217.168.816.816,0,0,1,.077.4.885.885,0,0,1-.07.4.34.34,0,0,1-.21.175,1.179,1.179,0,0,1-.336.042l-1.918-.028-1.414.014a.474.474,0,0,1-.4-.14.784.784,0,0,1-.1-.462.659.659,0,0,1,.126-.448A.522.522,0,0,1,224.532-6.482Zm8.4,6.692a3.794,3.794,0,0,1-1.5-.28,3.26,3.26,0,0,1-1.113-.763,3.314,3.314,0,0,1-.693-1.113A3.811,3.811,0,0,1,229.39-3.3a3.313,3.313,0,0,1,.448-1.722,3.25,3.25,0,0,1,1.239-1.2,3.66,3.66,0,0,1,1.813-.441,3.408,3.408,0,0,1,1.253.217,2.96,2.96,0,0,1,.945.581,2.627,2.627,0,0,1,.6.812,2.1,2.1,0,0,1,.21.9,1.261,1.261,0,0,1-.336,1,1.228,1.228,0,0,1-.826.287h-4.046a1.608,1.608,0,0,0,.329,1.057,2.266,2.266,0,0,0,.868.679,2.539,2.539,0,0,0,1.057.238,4.611,4.611,0,0,0,.672-.042,2.939,2.939,0,0,0,.49-.112,3.768,3.768,0,0,0,.364-.14,2.94,2.94,0,0,0,.273-.14.879.879,0,0,1,.231-.1.4.4,0,0,1,.245.021.372.372,0,0,1,.189.189.662.662,0,0,1,.112.21.762.762,0,0,1,.028.21q0,.2-.336.434a3.065,3.065,0,0,1-.931.406A4.977,4.977,0,0,1,232.932.21ZM230.692-3.7h3.514a.885.885,0,0,0,.4-.07q.133-.07.133-.378a1.144,1.144,0,0,0-.238-.707,1.721,1.721,0,0,0-.651-.511,2.179,2.179,0,0,0-.945-.2,2.573,2.573,0,0,0-1.127.245,2.029,2.029,0,0,0-.805.665A1.546,1.546,0,0,0,230.692-3.7ZM4.074,17.21a3.794,3.794,0,0,1-1.5-.28,3.26,3.26,0,0,1-1.113-.763A3.314,3.314,0,0,1,.77,15.054,3.811,3.811,0,0,1,.532,13.7,3.313,3.313,0,0,1,.98,11.974a3.25,3.25,0,0,1,1.239-1.2,3.66,3.66,0,0,1,1.813-.441,3.408,3.408,0,0,1,1.253.217,2.96,2.96,0,0,1,.945.581,2.627,2.627,0,0,1,.6.812,2.1,2.1,0,0,1,.21.9,1.261,1.261,0,0,1-.336,1,1.228,1.228,0,0,1-.826.287H1.834a1.608,1.608,0,0,0,.329,1.057,2.266,2.266,0,0,0,.868.679,2.539,2.539,0,0,0,1.057.238,4.611,4.611,0,0,0,.672-.042,2.939,2.939,0,0,0,.49-.112,3.768,3.768,0,0,0,.364-.14,2.941,2.941,0,0,0,.273-.14.879.879,0,0,1,.231-.1.4.4,0,0,1,.245.021.372.372,0,0,1,.189.189.662.662,0,0,1,.112.21.761.761,0,0,1,.028.21q0,.2-.336.434a3.065,3.065,0,0,1-.931.406A4.977,4.977,0,0,1,4.074,17.21ZM1.834,13.3H5.348a.885.885,0,0,0,.4-.07q.133-.07.133-.378a1.144,1.144,0,0,0-.238-.707,1.721,1.721,0,0,0-.651-.511,2.179,2.179,0,0,0-.945-.2,2.573,2.573,0,0,0-1.127.245,2.029,2.029,0,0,0-.805.665A1.546,1.546,0,0,0,1.834,13.3ZM10.57,17.14a3.833,3.833,0,0,1-.805-.077,1.911,1.911,0,0,1-.623-.245,1.449,1.449,0,0,1-.441-.434,1.823,1.823,0,0,1-.252-.644,4.462,4.462,0,0,1-.077-.882v-7a1.472,1.472,0,0,1,.035-.35.335.335,0,0,1,.175-.217.822.822,0,0,1,.392-.077.926.926,0,0,1,.413.07.34.34,0,0,1,.175.21A1.179,1.179,0,0,1,9.6,7.83v7.014a1.832,1.832,0,0,0,.056.483.884.884,0,0,0,.175.343.629.629,0,0,0,.3.2,1.485,1.485,0,0,0,.434.056.866.866,0,0,1,.287.042.347.347,0,0,1,.189.168.839.839,0,0,1,.07.392.926.926,0,0,1-.07.413.315.315,0,0,1-.189.168A1.027,1.027,0,0,1,10.57,17.14Zm5.978,0a.815.815,0,0,1-.4-.077.341.341,0,0,1-.168-.224,1.492,1.492,0,0,1-.035-.343V10.98a1.238,1.238,0,0,1,.042-.35.319.319,0,0,1,.168-.2.965.965,0,0,1,.406-.063.928.928,0,0,1,.385.063.347.347,0,0,1,.182.182.712.712,0,0,1,.049.273l-.056.42a3.147,3.147,0,0,1,.231-.364,1.5,1.5,0,0,1,.336-.329,1.85,1.85,0,0,1,.49-.245,2.48,2.48,0,0,1,1.106-.063,1.918,1.918,0,0,1,.364.105,1.4,1.4,0,0,1,.3.161.906.906,0,0,1,.2.2.4.4,0,0,1,.077.245.756.756,0,0,1-.2.525.555.555,0,0,1-.406.217.549.549,0,0,1-.266-.049A1.908,1.908,0,0,1,19.2,11.6a.855.855,0,0,0-.217-.1,1.476,1.476,0,0,0-.448-.049,1.29,1.29,0,0,0-.441.084,1.651,1.651,0,0,0-.441.245,1.222,1.222,0,0,0-.476,1v3.752a1.179,1.179,0,0,1-.042.336.34.34,0,0,1-.175.21A.926.926,0,0,1,16.548,17.14Zm7.84.07a3.794,3.794,0,0,1-1.5-.28,3.26,3.26,0,0,1-1.113-.763,3.314,3.314,0,0,1-.693-1.113,3.811,3.811,0,0,1-.238-1.358,3.313,3.313,0,0,1,.448-1.722,3.25,3.25,0,0,1,1.239-1.2,3.66,3.66,0,0,1,1.813-.441,3.408,3.408,0,0,1,1.253.217,2.96,2.96,0,0,1,.945.581,2.627,2.627,0,0,1,.6.812,2.1,2.1,0,0,1,.21.9,1.261,1.261,0,0,1-.336,1,1.228,1.228,0,0,1-.826.287H22.148a1.608,1.608,0,0,0,.329,1.057,2.266,2.266,0,0,0,.868.679A2.539,2.539,0,0,0,24.4,16.1a4.611,4.611,0,0,0,.672-.042,2.939,2.939,0,0,0,.49-.112,3.768,3.768,0,0,0,.364-.14,2.941,2.941,0,0,0,.273-.14.879.879,0,0,1,.231-.1.4.4,0,0,1,.245.021.372.372,0,0,1,.189.189.662.662,0,0,1,.112.21.761.761,0,0,1,.028.21q0,.2-.336.434a3.064,3.064,0,0,1-.931.406A4.977,4.977,0,0,1,24.388,17.21ZM22.148,13.3h3.514a.885.885,0,0,0,.4-.07q.133-.07.133-.378a1.144,1.144,0,0,0-.238-.707,1.721,1.721,0,0,0-.651-.511,2.179,2.179,0,0,0-.945-.2,2.573,2.573,0,0,0-1.127.245,2.029,2.029,0,0,0-.805.665A1.546,1.546,0,0,0,22.148,13.3Zm9.464,6.58a3.854,3.854,0,0,1-.938-.112,3.348,3.348,0,0,1-.784-.294,2.07,2.07,0,0,1-.532-.392.6.6,0,0,1-.2-.392.553.553,0,0,1,.042-.231.831.831,0,0,1,.126-.189,1.64,1.64,0,0,1,.224-.2.4.4,0,0,1,.224-.056.434.434,0,0,1,.28.119q.14.119.343.266a2.3,2.3,0,0,0,.5.266,2.049,2.049,0,0,0,.749.119,2.288,2.288,0,0,0,.826-.14,1.7,1.7,0,0,0,.63-.42,1.87,1.87,0,0,0,.406-.679,2.717,2.717,0,0,0,.14-.9l-.028-5.824a.48.48,0,0,1,.161-.378.779.779,0,0,1,.469-.112.733.733,0,0,1,.385.077.349.349,0,0,1,.154.21,1.315,1.315,0,0,1,.035.329v5.8a3.465,3.465,0,0,1-.238,1.323,2.769,2.769,0,0,1-.672.987,2.909,2.909,0,0,1-1.022.616A3.8,3.8,0,0,1,31.612,19.884Zm-.042-2.9a3.09,3.09,0,0,1-1.239-.245,3.008,3.008,0,0,1-.994-.693A3.128,3.128,0,0,1,28.679,15a3.864,3.864,0,0,1,0-2.632,3.186,3.186,0,0,1,.651-1.05,2.933,2.933,0,0,1,.987-.693,3.09,3.09,0,0,1,1.239-.245,2.59,2.59,0,0,1,1.12.238,2.432,2.432,0,0,1,.861.679,3.031,3.031,0,0,1,.539,1.043,4.635,4.635,0,0,1,.182,1.344,4.371,4.371,0,0,1-.322,1.75,2.584,2.584,0,0,1-.924,1.148A2.518,2.518,0,0,1,31.57,16.986Zm.07-1.148a1.863,1.863,0,0,0,1.008-.28,2.03,2.03,0,0,0,.714-.77,2.34,2.34,0,0,0,.266-1.134,2.269,2.269,0,0,0-.266-1.113,1.921,1.921,0,0,0-.721-.749,2,2,0,0,0-1.029-.266,1.963,1.963,0,0,0-1.022.266,1.793,1.793,0,0,0-.693.749,2.46,2.46,0,0,0-.245,1.127A2.4,2.4,0,0,0,29.9,14.8a1.938,1.938,0,0,0,.7.763A1.914,1.914,0,0,0,31.64,15.838Zm5.712,1.3a.815.815,0,0,1-.4-.077.366.366,0,0,1-.175-.217,1.179,1.179,0,0,1-.042-.336V10.98a1.179,1.179,0,0,1,.042-.336.34.34,0,0,1,.175-.21.926.926,0,0,1,.413-.07.773.773,0,0,1,.392.077.372.372,0,0,1,.168.217,1.237,1.237,0,0,1,.042.35v5.516a1.179,1.179,0,0,1-.042.336.34.34,0,0,1-.175.21A.885.885,0,0,1,37.352,17.14Zm0-8.456a.928.928,0,0,1-.462-.091.432.432,0,0,1-.2-.259,1.406,1.406,0,0,1-.049-.392,1.176,1.176,0,0,1,.056-.385.406.406,0,0,1,.21-.238,1.072,1.072,0,0,1,.462-.077.955.955,0,0,1,.448.084.406.406,0,0,1,.2.252,1.406,1.406,0,0,1,.049.392,1.332,1.332,0,0,1-.049.385.406.406,0,0,1-.2.245A.994.994,0,0,1,37.352,8.684Zm4.7,8.526a3.707,3.707,0,0,1-.7-.07,4.086,4.086,0,0,1-.707-.2,2.809,2.809,0,0,1-.6-.315,1.26,1.26,0,0,1-.385-.406.794.794,0,0,1-.084-.259.4.4,0,0,1,.042-.231.878.878,0,0,1,.168-.224.357.357,0,0,1,.28-.161.65.65,0,0,1,.35.189q.154.1.364.217a3.717,3.717,0,0,0,.434.21,4.014,4.014,0,0,0,.455.154,1.724,1.724,0,0,0,.455.063,1.934,1.934,0,0,0,1.036-.245.741.741,0,0,0,.392-.651.793.793,0,0,0-.1-.406.915.915,0,0,0-.266-.287,1.821,1.821,0,0,0-.378-.2q-.21-.084-.469-.161t-.511-.147q-.378-.1-.742-.224a2.713,2.713,0,0,1-.658-.329,1.485,1.485,0,0,1-.658-1.323,1.689,1.689,0,0,1,.294-.994,1.9,1.9,0,0,1,.826-.651,3.108,3.108,0,0,1,1.246-.231,3.686,3.686,0,0,1,.574.042,2.651,2.651,0,0,1,.511.133,3.871,3.871,0,0,1,.469.21,2.791,2.791,0,0,1,.434.287.506.506,0,0,1,.266.364.587.587,0,0,1-.154.406.558.558,0,0,1-.28.231.317.317,0,0,1-.308-.077,3.109,3.109,0,0,0-.476-.294,3.541,3.541,0,0,0-.518-.21,1.8,1.8,0,0,0-.546-.084,1.726,1.726,0,0,0-.623.1.9.9,0,0,0-.42.308.757.757,0,0,0-.147.455.543.543,0,0,0,.119.364,1,1,0,0,0,.308.238,2.565,2.565,0,0,0,.448.175q.259.077.539.147.406.1.833.231a3.228,3.228,0,0,1,.77.35,1.734,1.734,0,0,1,.56.574,1.8,1.8,0,0,1,.217.945,1.706,1.706,0,0,1-.728,1.456A3.2,3.2,0,0,1,42.056,17.21Zm7.14-.07a4.227,4.227,0,0,1-1.113-.126,1.82,1.82,0,0,1-.749-.392,1.473,1.473,0,0,1-.42-.693,3.789,3.789,0,0,1-.126-1.057V8.684a1.179,1.179,0,0,1,.042-.336A.372.372,0,0,1,47,8.131a.773.773,0,0,1,.392-.077.859.859,0,0,1,.406.077.362.362,0,0,1,.182.21,1.106,1.106,0,0,1,.042.329v6.2a2.155,2.155,0,0,0,.063.581.655.655,0,0,0,.2.329.671.671,0,0,0,.357.14,4.5,4.5,0,0,0,.546.028,1.3,1.3,0,0,1,.364.042.344.344,0,0,1,.21.168.8.8,0,0,1,.07.378.815.815,0,0,1-.077.4.341.341,0,0,1-.224.168A1.423,1.423,0,0,1,49.2,17.14ZM46.06,10.518l1.344.014L49.35,10.5a1.4,1.4,0,0,1,.336.035.339.339,0,0,1,.217.168.815.815,0,0,1,.077.4.885.885,0,0,1-.07.4.34.34,0,0,1-.21.175,1.179,1.179,0,0,1-.336.042l-1.918-.028-1.414.014a.474.474,0,0,1-.4-.14.784.784,0,0,1-.105-.462.659.659,0,0,1,.126-.448A.522.522,0,0,1,46.06,10.518Zm5.824,6.622a.815.815,0,0,1-.4-.077.341.341,0,0,1-.168-.224,1.492,1.492,0,0,1-.035-.343V10.98a1.238,1.238,0,0,1,.042-.35.319.319,0,0,1,.168-.2.965.965,0,0,1,.406-.063.928.928,0,0,1,.385.063.347.347,0,0,1,.182.182.712.712,0,0,1,.049.273l-.056.42a3.147,3.147,0,0,1,.231-.364,1.5,1.5,0,0,1,.336-.329,1.85,1.85,0,0,1,.49-.245,2.48,2.48,0,0,1,1.106-.063,1.918,1.918,0,0,1,.364.105,1.4,1.4,0,0,1,.3.161.906.906,0,0,1,.2.2.4.4,0,0,1,.077.245.756.756,0,0,1-.2.525.555.555,0,0,1-.406.217A.549.549,0,0,1,54.7,11.7a1.908,1.908,0,0,1-.161-.105.855.855,0,0,0-.217-.1,1.476,1.476,0,0,0-.448-.049,1.29,1.29,0,0,0-.441.084,1.651,1.651,0,0,0-.441.245,1.222,1.222,0,0,0-.476,1v3.752a1.179,1.179,0,0,1-.042.336.34.34,0,0,1-.175.21A.926.926,0,0,1,51.884,17.14Zm7.938.084a3.3,3.3,0,0,1-1.309-.266,3.7,3.7,0,0,1-1.113-.735,3.439,3.439,0,0,1-.77-1.1,3.34,3.34,0,0,1-.28-1.372,3.4,3.4,0,0,1,.266-1.351,3.462,3.462,0,0,1,.742-1.1,3.561,3.561,0,0,1,1.1-.749,3.294,3.294,0,0,1,1.337-.273,3.385,3.385,0,0,1,1.743.455,3.5,3.5,0,0,1,.665,5.509,3.5,3.5,0,0,1-1.092.721A3.29,3.29,0,0,1,59.822,17.224Zm-.028-1.218a2.13,2.13,0,0,0,1.092-.294,2.26,2.26,0,0,0,1.12-1.988,2.307,2.307,0,0,0-.287-1.162,2.028,2.028,0,0,0-.791-.784,2.324,2.324,0,0,0-1.148-.28,2.145,2.145,0,0,0-1.113.294,2.254,2.254,0,0,0-.8.8,2.2,2.2,0,0,0-.3,1.148,2.247,2.247,0,0,0,.308,1.183,2.229,2.229,0,0,0,1.918,1.085Z" transform="translate(45 485)"/>
    <path id="Trazado_119640" data-name="Trazado 119640" d="M16.156.14a.853.853,0,0,1-.413-.077.366.366,0,0,1-.175-.224A1.254,1.254,0,0,1,15.526-.5V-9a.658.658,0,0,1,.147-.5.79.79,0,0,1,.525-.133h5.628a1.179,1.179,0,0,1,.336.042.337.337,0,0,1,.21.182.975.975,0,0,1,.07.42.853.853,0,0,1-.077.413.366.366,0,0,1-.217.175,1.179,1.179,0,0,1-.336.042H16.786v2.9h3.5a1.106,1.106,0,0,1,.329.042.344.344,0,0,1,.2.168.839.839,0,0,1,.07.392.8.8,0,0,1-.07.378.319.319,0,0,1-.21.161,1.472,1.472,0,0,1-.35.035H16.786V-1.12h5.04a1.179,1.179,0,0,1,.336.042.34.34,0,0,1,.21.175.926.926,0,0,1,.07.413.853.853,0,0,1-.077.413A.366.366,0,0,1,22.148.1a1.179,1.179,0,0,1-.336.042Zm13.216,0a3.2,3.2,0,0,1-.791-.091,1.86,1.86,0,0,1-.616-.273,1.668,1.668,0,0,1-.441-.462,1.993,1.993,0,0,1-.266-.644,3.618,3.618,0,0,1-.084-.812L27.16-9.156a1.179,1.179,0,0,1,.042-.336.394.394,0,0,1,.175-.224.758.758,0,0,1,.4-.084.853.853,0,0,1,.413.077.366.366,0,0,1,.175.21,1.106,1.106,0,0,1,.042.329V-2.1a1.485,1.485,0,0,0,.056.434.833.833,0,0,0,.175.315.652.652,0,0,0,.3.189,1.485,1.485,0,0,0,.434.056,1.041,1.041,0,0,1,.378.056.364.364,0,0,1,.2.2.936.936,0,0,1,.063.378.77.77,0,0,1-.07.357.429.429,0,0,1-.21.2A.894.894,0,0,1,29.372.14Zm-3.3,0a2.975,2.975,0,0,1-.763-.091,1.878,1.878,0,0,1-.6-.266,1.485,1.485,0,0,1-.42-.448,1.991,1.991,0,0,1-.245-.644,4.115,4.115,0,0,1-.077-.833V-9.156a1.179,1.179,0,0,1,.042-.336.394.394,0,0,1,.175-.224.758.758,0,0,1,.4-.084.815.815,0,0,1,.4.077.4.4,0,0,1,.182.21.959.959,0,0,1,.049.329V-2.1a1.36,1.36,0,0,0,.1.546.694.694,0,0,0,.294.336.916.916,0,0,0,.462.112.839.839,0,0,1,.336.056.343.343,0,0,1,.182.2,1.041,1.041,0,0,1,.056.378.844.844,0,0,1-.063.357.414.414,0,0,1-.182.2A.711.711,0,0,1,26.068.14Zm8.3.084a3.3,3.3,0,0,1-1.309-.266,3.7,3.7,0,0,1-1.113-.735,3.439,3.439,0,0,1-.77-1.1,3.34,3.34,0,0,1-.28-1.372A3.4,3.4,0,0,1,31.164-4.6a3.462,3.462,0,0,1,.742-1.1,3.561,3.561,0,0,1,1.1-.749,3.294,3.294,0,0,1,1.337-.273,3.385,3.385,0,0,1,1.743.455,3.428,3.428,0,0,1,1.239,1.239,3.409,3.409,0,0,1,.462,1.764,3.459,3.459,0,0,1-.28,1.407,3.445,3.445,0,0,1-.756,1.1,3.5,3.5,0,0,1-1.092.721A3.29,3.29,0,0,1,34.37.224ZM34.342-.994a2.13,2.13,0,0,0,1.092-.294,2.257,2.257,0,0,0,.812-.812,2.257,2.257,0,0,0,.308-1.176,2.307,2.307,0,0,0-.287-1.162,2.028,2.028,0,0,0-.791-.784,2.324,2.324,0,0,0-1.148-.28,2.145,2.145,0,0,0-1.113.294,2.254,2.254,0,0,0-.8.8,2.2,2.2,0,0,0-.3,1.148,2.247,2.247,0,0,0,.308,1.183,2.2,2.2,0,0,0,.819.8A2.208,2.208,0,0,0,34.342-.994ZM41.4.21a3.707,3.707,0,0,1-.7-.07,4.086,4.086,0,0,1-.707-.2,2.809,2.809,0,0,1-.6-.315A1.26,1.26,0,0,1,39-.784a.794.794,0,0,1-.084-.259.4.4,0,0,1,.042-.231A.878.878,0,0,1,39.13-1.5a.357.357,0,0,1,.28-.161.65.65,0,0,1,.35.189q.154.1.364.217a3.717,3.717,0,0,0,.434.21,4.014,4.014,0,0,0,.455.154,1.724,1.724,0,0,0,.455.063A1.934,1.934,0,0,0,42.5-1.071a.741.741,0,0,0,.392-.651.793.793,0,0,0-.1-.406.915.915,0,0,0-.266-.287,1.821,1.821,0,0,0-.378-.2q-.21-.084-.469-.161t-.511-.147q-.378-.1-.742-.224a2.713,2.713,0,0,1-.658-.329A1.583,1.583,0,0,1,39.3-4a1.593,1.593,0,0,1-.182-.805A1.689,1.689,0,0,1,39.41-5.8a1.9,1.9,0,0,1,.826-.651,3.108,3.108,0,0,1,1.246-.231,3.686,3.686,0,0,1,.574.042,2.651,2.651,0,0,1,.511.133,3.872,3.872,0,0,1,.469.21,2.791,2.791,0,0,1,.434.287.506.506,0,0,1,.266.364.587.587,0,0,1-.154.406A.558.558,0,0,1,43.3-5a.317.317,0,0,1-.308-.077,3.109,3.109,0,0,0-.476-.294A3.541,3.541,0,0,0,42-5.586a1.8,1.8,0,0,0-.546-.084,1.726,1.726,0,0,0-.623.105.9.9,0,0,0-.42.308.757.757,0,0,0-.147.455.543.543,0,0,0,.119.364,1,1,0,0,0,.308.238,2.565,2.565,0,0,0,.448.175q.259.077.539.147.406.1.833.231a3.228,3.228,0,0,1,.77.35,1.734,1.734,0,0,1,.56.574,1.8,1.8,0,0,1,.217.945A1.706,1.706,0,0,1,43.33-.322,3.2,3.2,0,0,1,41.4.21ZM49.644.14a.859.859,0,0,1-.406-.077.337.337,0,0,1-.175-.224A1.492,1.492,0,0,1,49.028-.5V-9.128a1.179,1.179,0,0,1,.042-.336.361.361,0,0,1,.182-.217.859.859,0,0,1,.406-.077.853.853,0,0,1,.413.077.339.339,0,0,1,.168.217,1.472,1.472,0,0,1,.035.35v3.458a3.659,3.659,0,0,1,.819-.7,2.156,2.156,0,0,1,1.183-.308,2.846,2.846,0,0,1,1.477.385,2.8,2.8,0,0,1,1.036,1.085,3.407,3.407,0,0,1,.385,1.666V-.49a1.179,1.179,0,0,1-.042.336.372.372,0,0,1-.168.217.81.81,0,0,1-.406.077.859.859,0,0,1-.406-.077.361.361,0,0,1-.182-.224A1.254,1.254,0,0,1,53.928-.5V-3.542a2.465,2.465,0,0,0-.2-1.022,1.489,1.489,0,0,0-.581-.672,1.822,1.822,0,0,0-.973-.238,1.9,1.9,0,0,0-1.309.455,1.827,1.827,0,0,0-.6,1.211V-.49a1.179,1.179,0,0,1-.042.336.366.366,0,0,1-.175.217A.853.853,0,0,1,49.644.14ZM62.174.126A.63.63,0,0,1,61.733,0a.61.61,0,0,1-.161-.392l.056-.7a2.908,2.908,0,0,1-.434.511,2.686,2.686,0,0,1-.77.5A2.792,2.792,0,0,1,59.262.14a2.974,2.974,0,0,1-1.253-.266,3.194,3.194,0,0,1-1.022-.742A3.488,3.488,0,0,1,56.3-1.96a3.528,3.528,0,0,1-.245-1.316,3.437,3.437,0,0,1,.245-1.3,3.282,3.282,0,0,1,.693-1.071,3.384,3.384,0,0,1,1.029-.728,2.941,2.941,0,0,1,1.239-.266,3.029,3.029,0,0,1,1.05.161,2.581,2.581,0,0,1,.749.42,3.255,3.255,0,0,1,.553.581l-.028-.588a.536.536,0,0,1,.133-.441.687.687,0,0,1,.469-.133.682.682,0,0,1,.385.084.413.413,0,0,1,.161.238,1.458,1.458,0,0,1,.042.378v5.4a1.333,1.333,0,0,1-.042.35.374.374,0,0,1-.168.231A.773.773,0,0,1,62.174.126Zm-2.7-1.162A1.9,1.9,0,0,0,60.5-1.33a2.122,2.122,0,0,0,.742-.791,2.331,2.331,0,0,0,.273-1.141,2.268,2.268,0,0,0-.287-1.155,2.177,2.177,0,0,0-.756-.784,1.934,1.934,0,0,0-1.029-.287,2.113,2.113,0,0,0-1.141.3,2.179,2.179,0,0,0-.763.8,2.324,2.324,0,0,0-.28,1.148,2.256,2.256,0,0,0,.28,1.127,2.055,2.055,0,0,0,.777.784A2.268,2.268,0,0,0,59.472-1.036Zm8.162,1.2A3.868,3.868,0,0,1,66.269-.07a3.356,3.356,0,0,1-1.12-.686,3.187,3.187,0,0,1-.756-1.071,3.508,3.508,0,0,1-.273-1.421,3.508,3.508,0,0,1,.273-1.421,3.236,3.236,0,0,1,.749-1.071,3.279,3.279,0,0,1,1.113-.686,3.828,3.828,0,0,1,1.351-.238,3.076,3.076,0,0,1,.938.147,3.394,3.394,0,0,1,.819.378,1.6,1.6,0,0,1,.511.483,2.268,2.268,0,0,1,.2.3.325.325,0,0,1,.007.273.709.709,0,0,1-.154.2,1.073,1.073,0,0,1-.2.147.426.426,0,0,1-.5.056,2.6,2.6,0,0,0-.343-.287,3.8,3.8,0,0,0-.4-.245,2.224,2.224,0,0,0-.427-.175,1.624,1.624,0,0,0-.455-.063,2.4,2.4,0,0,0-1.162.273,1.9,1.9,0,0,0-.777.77,2.361,2.361,0,0,0-.273,1.155A2.321,2.321,0,0,0,65.667-2.1a1.97,1.97,0,0,0,.77.77,2.284,2.284,0,0,0,1.141.28,2.079,2.079,0,0,0,.567-.077,2.352,2.352,0,0,0,.511-.21,1.776,1.776,0,0,0,.392-.287l.238-.168a.4.4,0,0,1,.238-.07.413.413,0,0,1,.238.091,1.352,1.352,0,0,1,.266.273.514.514,0,0,1,.133.266.409.409,0,0,1-.049.266.907.907,0,0,1-.224.252,2.608,2.608,0,0,1-.6.427,3.986,3.986,0,0,1-.805.329A3.053,3.053,0,0,1,67.634.168ZM74.746.21a3.794,3.794,0,0,1-1.5-.28,3.26,3.26,0,0,1-1.113-.763,3.314,3.314,0,0,1-.693-1.113A3.811,3.811,0,0,1,71.2-3.3a3.313,3.313,0,0,1,.448-1.722,3.25,3.25,0,0,1,1.239-1.2A3.66,3.66,0,0,1,74.7-6.664a3.408,3.408,0,0,1,1.253.217,2.96,2.96,0,0,1,.945.581,2.627,2.627,0,0,1,.6.812,2.1,2.1,0,0,1,.21.9,1.261,1.261,0,0,1-.336,1,1.228,1.228,0,0,1-.826.287H72.506a1.608,1.608,0,0,0,.329,1.057,2.266,2.266,0,0,0,.868.679A2.539,2.539,0,0,0,74.76-.9a4.611,4.611,0,0,0,.672-.042,2.939,2.939,0,0,0,.49-.112,3.769,3.769,0,0,0,.364-.14,2.942,2.942,0,0,0,.273-.14.879.879,0,0,1,.231-.1.4.4,0,0,1,.245.021.372.372,0,0,1,.189.189.662.662,0,0,1,.112.21.761.761,0,0,1,.028.21q0,.2-.336.434A3.065,3.065,0,0,1,76.1.042,4.977,4.977,0,0,1,74.746.21ZM72.506-3.7H76.02a.885.885,0,0,0,.4-.07q.133-.07.133-.378a1.144,1.144,0,0,0-.238-.707,1.721,1.721,0,0,0-.651-.511,2.179,2.179,0,0,0-.945-.2,2.573,2.573,0,0,0-1.127.245,2.029,2.029,0,0,0-.805.665A1.546,1.546,0,0,0,72.506-3.7ZM79.73.126a.815.815,0,0,1-.4-.077.339.339,0,0,1-.168-.217A1.4,1.4,0,0,1,79.128-.5V-6.062a.982.982,0,0,1,.042-.308.341.341,0,0,1,.175-.2.885.885,0,0,1,.4-.07.888.888,0,0,1,.329.049.331.331,0,0,1,.168.133.5.5,0,0,1,.063.182,1.293,1.293,0,0,1,.014.182l-.028.644a2.42,2.42,0,0,1,.35-.455,2.581,2.581,0,0,1,.49-.392,2.477,2.477,0,0,1,.609-.273,2.466,2.466,0,0,1,.707-.1,2.906,2.906,0,0,1,1.134.217,2.454,2.454,0,0,1,.889.63,2.909,2.909,0,0,1,.574.987,3.891,3.891,0,0,1,.2,1.3V-.49a1.4,1.4,0,0,1-.035.336.316.316,0,0,1-.168.21.885.885,0,0,1-.4.07.853.853,0,0,1-.413-.077.366.366,0,0,1-.175-.217A1.179,1.179,0,0,1,84.014-.5V-3.542a2.465,2.465,0,0,0-.2-1.022,1.518,1.518,0,0,0-.588-.679,1.846,1.846,0,0,0-.994-.245,1.977,1.977,0,0,0-1,.245,1.676,1.676,0,0,0-.658.679,2.145,2.145,0,0,0-.231,1.022V-.49a1.179,1.179,0,0,1-.042.336.34.34,0,0,1-.175.21A.885.885,0,0,1,79.73.126ZM92.722.21a3.707,3.707,0,0,1-.7-.07,4.086,4.086,0,0,1-.707-.2,2.809,2.809,0,0,1-.6-.315,1.26,1.26,0,0,1-.385-.406.794.794,0,0,1-.084-.259.4.4,0,0,1,.042-.231.877.877,0,0,1,.168-.224.357.357,0,0,1,.28-.161.65.65,0,0,1,.35.189q.154.1.364.217a3.717,3.717,0,0,0,.434.21,4.014,4.014,0,0,0,.455.154,1.724,1.724,0,0,0,.455.063,1.934,1.934,0,0,0,1.036-.245.741.741,0,0,0,.392-.651.793.793,0,0,0-.1-.406.915.915,0,0,0-.266-.287,1.821,1.821,0,0,0-.378-.2q-.21-.084-.469-.161T92.5-2.926q-.378-.1-.742-.224a2.713,2.713,0,0,1-.658-.329A1.583,1.583,0,0,1,90.622-4,1.593,1.593,0,0,1,90.44-4.8a1.689,1.689,0,0,1,.294-.994,1.9,1.9,0,0,1,.826-.651,3.108,3.108,0,0,1,1.246-.231,3.686,3.686,0,0,1,.574.042,2.651,2.651,0,0,1,.511.133,3.871,3.871,0,0,1,.469.21,2.791,2.791,0,0,1,.434.287.506.506,0,0,1,.266.364.587.587,0,0,1-.154.406.558.558,0,0,1-.28.231.317.317,0,0,1-.308-.077,3.108,3.108,0,0,0-.476-.294,3.541,3.541,0,0,0-.518-.21,1.8,1.8,0,0,0-.546-.084,1.726,1.726,0,0,0-.623.105.9.9,0,0,0-.42.308.757.757,0,0,0-.147.455.543.543,0,0,0,.119.364,1,1,0,0,0,.308.238,2.565,2.565,0,0,0,.448.175q.259.077.539.147.406.1.833.231a3.228,3.228,0,0,1,.77.35,1.734,1.734,0,0,1,.56.574,1.8,1.8,0,0,1,.217.945,1.706,1.706,0,0,1-.728,1.456A3.2,3.2,0,0,1,92.722.21Zm6.86-.056A2.877,2.877,0,0,1,98.441-.07a2.775,2.775,0,0,1-.917-.63,2.833,2.833,0,0,1-.609-.98,3.662,3.662,0,0,1-.217-1.3V-6.02a1.179,1.179,0,0,1,.042-.336.366.366,0,0,1,.175-.217.815.815,0,0,1,.4-.077.758.758,0,0,1,.4.084.394.394,0,0,1,.175.224,1.179,1.179,0,0,1,.042.336v3.038a2.477,2.477,0,0,0,.2,1.015,1.458,1.458,0,0,0,.6.679,1.868,1.868,0,0,0,.973.238,2.053,2.053,0,0,0,1.015-.238,1.62,1.62,0,0,0,.658-.679,2.156,2.156,0,0,0,.231-1.015V-6.02a1.179,1.179,0,0,1,.042-.336.366.366,0,0,1,.175-.217.815.815,0,0,1,.4-.077.758.758,0,0,1,.4.084.364.364,0,0,1,.168.224,1.4,1.4,0,0,1,.035.336V-.448a1.185,1.185,0,0,1-.035.3.314.314,0,0,1-.168.2.885.885,0,0,1-.4.07A.969.969,0,0,1,101.9.084a.379.379,0,0,1-.175-.112.4.4,0,0,1-.077-.161.838.838,0,0,1-.021-.189l.056-.6q-.14.168-.336.364a3.077,3.077,0,0,1-.455.371,2.5,2.5,0,0,1-.581.287A2.208,2.208,0,0,1,99.582.154Zm11.9-.07a3,3,0,0,1-1.246-.252,2.7,2.7,0,0,1-.952-.707,3.3,3.3,0,0,1-.609-1.071,3.842,3.842,0,0,1-.2-1.358,4.141,4.141,0,0,1,.21-1.344,3.141,3.141,0,0,1,.609-1.071,2.713,2.713,0,0,1,.952-.7,3.027,3.027,0,0,1,1.239-.245,2.948,2.948,0,0,1,1.211.252,3.048,3.048,0,0,1,.994.707,3.328,3.328,0,0,1,.672,1.085,3.714,3.714,0,0,1,.245,1.358,3.6,3.6,0,0,1-.245,1.344,3.28,3.28,0,0,1-.672,1.064,3.008,3.008,0,0,1-.994.693A3.02,3.02,0,0,1,111.482.084ZM108.57,2.9a.815.815,0,0,1-.4-.077.4.4,0,0,1-.182-.217,1.021,1.021,0,0,1-.049-.336V-6.006a1.179,1.179,0,0,1,.042-.336.366.366,0,0,1,.175-.217.815.815,0,0,1,.4-.077.834.834,0,0,1,.455.1.454.454,0,0,1,.175.35V2.254a.994.994,0,0,1-.028.343.366.366,0,0,1-.175.224A.853.853,0,0,1,108.57,2.9Zm2.73-3.962a2.021,2.021,0,0,0,1.064-.287,2.037,2.037,0,0,0,.749-.791,2.372,2.372,0,0,0,.273-1.148,2.321,2.321,0,0,0-.273-1.148,1.977,1.977,0,0,0-.742-.763,2.089,2.089,0,0,0-1.071-.273,2.022,2.022,0,0,0-1.057.28,2.029,2.029,0,0,0-.742.77,2.291,2.291,0,0,0-.273,1.134,2.372,2.372,0,0,0,.273,1.148,2.054,2.054,0,0,0,.742.791A1.984,1.984,0,0,0,111.3-1.064Zm5.4,1.2a.815.815,0,0,1-.4-.077.341.341,0,0,1-.168-.224A1.492,1.492,0,0,1,116.1-.5V-6.02a1.238,1.238,0,0,1,.042-.35.319.319,0,0,1,.168-.2.965.965,0,0,1,.406-.063.928.928,0,0,1,.385.063.347.347,0,0,1,.182.182.712.712,0,0,1,.049.273l-.056.42a3.146,3.146,0,0,1,.231-.364,1.5,1.5,0,0,1,.336-.329,1.85,1.85,0,0,1,.49-.245,2.208,2.208,0,0,1,.707-.1,2.189,2.189,0,0,1,.4.035,1.918,1.918,0,0,1,.364.105,1.4,1.4,0,0,1,.3.161.906.906,0,0,1,.2.2.4.4,0,0,1,.077.245.756.756,0,0,1-.2.525.555.555,0,0,1-.406.217.549.549,0,0,1-.266-.049,1.908,1.908,0,0,1-.161-.105.855.855,0,0,0-.217-.1,1.476,1.476,0,0,0-.448-.049,1.29,1.29,0,0,0-.441.084,1.651,1.651,0,0,0-.441.245,1.242,1.242,0,0,0-.343.413,1.242,1.242,0,0,0-.133.588V-.476a1.179,1.179,0,0,1-.042.336.34.34,0,0,1-.175.21A.926.926,0,0,1,116.7.14Zm5.754,0a.815.815,0,0,1-.4-.077.366.366,0,0,1-.175-.217,1.179,1.179,0,0,1-.042-.336V-6.02a1.179,1.179,0,0,1,.042-.336.34.34,0,0,1,.175-.21.926.926,0,0,1,.413-.07.773.773,0,0,1,.392.077.372.372,0,0,1,.168.217,1.238,1.238,0,0,1,.042.35V-.476a1.179,1.179,0,0,1-.042.336.34.34,0,0,1-.175.21A.885.885,0,0,1,122.458.14Zm0-8.456A.928.928,0,0,1,122-8.407a.432.432,0,0,1-.2-.259,1.406,1.406,0,0,1-.049-.392,1.176,1.176,0,0,1,.056-.385.406.406,0,0,1,.21-.238,1.072,1.072,0,0,1,.462-.077.955.955,0,0,1,.448.084.406.406,0,0,1,.2.252,1.406,1.406,0,0,1,.049.392,1.332,1.332,0,0,1-.049.385.406.406,0,0,1-.2.245A.994.994,0,0,1,122.458-8.316ZM125.51.14a.72.72,0,0,1-.392-.084.4.4,0,0,1-.168-.224,1.179,1.179,0,0,1-.042-.336V-6.048a1.036,1.036,0,0,1,.042-.322.341.341,0,0,1,.175-.2.885.885,0,0,1,.4-.07.656.656,0,0,1,.441.119.535.535,0,0,1,.133.413l-.056.6a1.642,1.642,0,0,1,.294-.42,2.248,2.248,0,0,1,.469-.378,2.62,2.62,0,0,1,.581-.266,2.066,2.066,0,0,1,.63-.1,2.093,2.093,0,0,1,.875.175,2.233,2.233,0,0,1,.693.5,2.742,2.742,0,0,1,.518.8,4.543,4.543,0,0,1,.6-.791,2.191,2.191,0,0,1,.721-.5,2.277,2.277,0,0,1,.91-.175,2.185,2.185,0,0,1,1.337.4,2.414,2.414,0,0,1,.812,1.12,4.889,4.889,0,0,1,.273,1.729V-.49a1.4,1.4,0,0,1-.035.336.339.339,0,0,1-.168.217.853.853,0,0,1-.413.077.758.758,0,0,1-.4-.084.394.394,0,0,1-.175-.224,1.179,1.179,0,0,1-.042-.336V-3.43a3.547,3.547,0,0,0-.147-1.085,1.493,1.493,0,0,0-.448-.707,1.17,1.17,0,0,0-.777-.252,1.62,1.62,0,0,0-.889.245,1.593,1.593,0,0,0-.6.707,2.62,2.62,0,0,0-.21,1.092V-.476a.749.749,0,0,1-.084.364.462.462,0,0,1-.252.217.771.771,0,0,1-.406.021.709.709,0,0,1-.336-.112.355.355,0,0,1-.14-.217,1.467,1.467,0,0,1-.028-.3V-3.43a3.548,3.548,0,0,0-.147-1.085,1.493,1.493,0,0,0-.448-.707,1.17,1.17,0,0,0-.777-.252,1.555,1.555,0,0,0-.889.259,1.686,1.686,0,0,0-.6.721,2.547,2.547,0,0,0-.21,1.064V-.49a1.179,1.179,0,0,1-.042.336.366.366,0,0,1-.175.217A.853.853,0,0,1,125.51.14Zm14.154.07a3.794,3.794,0,0,1-1.5-.28,3.26,3.26,0,0,1-1.113-.763,3.314,3.314,0,0,1-.693-1.113,3.811,3.811,0,0,1-.238-1.358,3.313,3.313,0,0,1,.448-1.722,3.25,3.25,0,0,1,1.239-1.2,3.66,3.66,0,0,1,1.813-.441,3.408,3.408,0,0,1,1.253.217,2.96,2.96,0,0,1,.945.581,2.627,2.627,0,0,1,.6.812,2.1,2.1,0,0,1,.21.9,1.261,1.261,0,0,1-.336,1,1.228,1.228,0,0,1-.826.287h-4.046a1.608,1.608,0,0,0,.329,1.057,2.266,2.266,0,0,0,.868.679,2.539,2.539,0,0,0,1.057.238,4.611,4.611,0,0,0,.672-.042,2.939,2.939,0,0,0,.49-.112,3.768,3.768,0,0,0,.364-.14,2.94,2.94,0,0,0,.273-.14.879.879,0,0,1,.231-.1.4.4,0,0,1,.245.021.372.372,0,0,1,.189.189.662.662,0,0,1,.112.21.762.762,0,0,1,.028.21q0,.2-.336.434a3.065,3.065,0,0,1-.931.406A4.977,4.977,0,0,1,139.664.21ZM137.424-3.7h3.514a.885.885,0,0,0,.4-.07q.133-.07.133-.378a1.144,1.144,0,0,0-.238-.707,1.721,1.721,0,0,0-.651-.511,2.179,2.179,0,0,0-.945-.2,2.573,2.573,0,0,0-1.127.245,2.029,2.029,0,0,0-.805.665A1.546,1.546,0,0,0,137.424-3.7ZM144.648.14a.815.815,0,0,1-.4-.077.341.341,0,0,1-.168-.224,1.492,1.492,0,0,1-.035-.343V-6.02a1.238,1.238,0,0,1,.042-.35.319.319,0,0,1,.168-.2.965.965,0,0,1,.406-.063.928.928,0,0,1,.385.063.346.346,0,0,1,.182.182.712.712,0,0,1,.049.273l-.056.42a3.145,3.145,0,0,1,.231-.364,1.5,1.5,0,0,1,.336-.329,1.849,1.849,0,0,1,.49-.245,2.208,2.208,0,0,1,.707-.1,2.189,2.189,0,0,1,.4.035,1.918,1.918,0,0,1,.364.105,1.4,1.4,0,0,1,.3.161.906.906,0,0,1,.2.2.4.4,0,0,1,.077.245.756.756,0,0,1-.2.525.555.555,0,0,1-.406.217.549.549,0,0,1-.266-.049A1.908,1.908,0,0,1,147.3-5.4a.855.855,0,0,0-.217-.1,1.477,1.477,0,0,0-.448-.049,1.29,1.29,0,0,0-.441.084,1.651,1.651,0,0,0-.441.245,1.242,1.242,0,0,0-.343.413,1.242,1.242,0,0,0-.133.588V-.476a1.179,1.179,0,0,1-.042.336.34.34,0,0,1-.175.21A.926.926,0,0,1,144.648.14Zm13.328.028a4.882,4.882,0,0,1-1.47-.224,5.01,5.01,0,0,1-1.33-.644,4.593,4.593,0,0,1-1.085-1.043,5,5,0,0,1-.735-1.4,5.267,5.267,0,0,1-.266-1.715,5.007,5.007,0,0,1,.266-1.659,4.638,4.638,0,0,1,.728-1.351,4.612,4.612,0,0,1,1.085-1,5.056,5.056,0,0,1,1.344-.63,5.1,5.1,0,0,1,1.477-.217,4.539,4.539,0,0,1,1.2.14,4.68,4.68,0,0,1,.826.3,3.269,3.269,0,0,1,.434.245,2.524,2.524,0,0,1,.378.266.511.511,0,0,1,.2.364.4.4,0,0,1-.021.252q-.049.1-.119.21a.841.841,0,0,1-.231.245.467.467,0,0,1-.259.077.409.409,0,0,1-.252-.084q-.112-.084-.294-.2a3.735,3.735,0,0,0-.336-.182,4.186,4.186,0,0,0-.644-.245,3.31,3.31,0,0,0-.952-.119,3.659,3.659,0,0,0-1.365.259,3.45,3.45,0,0,0-1.141.735,3.4,3.4,0,0,0-.77,1.148,3.9,3.9,0,0,0-.28,1.512,3.989,3.989,0,0,0,.28,1.533,3.338,3.338,0,0,0,.777,1.155,3.452,3.452,0,0,0,1.141.728,3.693,3.693,0,0,0,1.358.252,3.462,3.462,0,0,0,.931-.112,3.577,3.577,0,0,0,.658-.245,3.252,3.252,0,0,0,.357-.2,2.8,2.8,0,0,0,.273-.168.44.44,0,0,1,.259-.084.467.467,0,0,1,.259.077.841.841,0,0,1,.231.245,1.078,1.078,0,0,1,.119.217.44.44,0,0,1,.021.259.489.489,0,0,1-.2.357,4.315,4.315,0,0,1-.378.273q-.126.056-.441.231a3.6,3.6,0,0,1-.819.308A4.832,4.832,0,0,1,157.976.168ZM171.01-.756a.885.885,0,0,1,.119.357.378.378,0,0,1-.091.266.87.87,0,0,1-.308.217.658.658,0,0,1-.525.07.789.789,0,0,1-.343-.406l-3.5-7.448L162.89-.266a.789.789,0,0,1-.343.406.694.694,0,0,1-.539-.07.663.663,0,0,1-.3-.21.425.425,0,0,1-.07-.308,1.387,1.387,0,0,1,.133-.42l4.018-8.386a.689.689,0,0,1,.245-.273.617.617,0,0,1,.343-.105.672.672,0,0,1,.238.042.544.544,0,0,1,.2.126.657.657,0,0,1,.14.224Zm-7.28-1.89.476-1.078h4.34l.462,1.078ZM172.816.14a.693.693,0,0,1-.371-.084.425.425,0,0,1-.182-.231,1.086,1.086,0,0,1-.049-.343V-9.044a.757.757,0,0,1,.056-.308.428.428,0,0,1,.2-.2.9.9,0,0,1,.413-.077,1.178,1.178,0,0,1,.434.056.772.772,0,0,1,.252.2l5.264,7.448V-9.044a.853.853,0,0,1,.049-.308.4.4,0,0,1,.189-.2.859.859,0,0,1,.406-.077.725.725,0,0,1,.385.084.425.425,0,0,1,.182.231,1.037,1.037,0,0,1,.049.329V-.5a.827.827,0,0,1-.063.329.479.479,0,0,1-.21.231.839.839,0,0,1-.413.084,1.053,1.053,0,0,1-.371-.056.664.664,0,0,1-.273-.21l-5.292-7.392V-.5a.918.918,0,0,1-.056.329.451.451,0,0,1-.2.231A.8.8,0,0,1,172.816.14Zm11.83.042a3.194,3.194,0,0,1-.791-.1,3.818,3.818,0,0,1-.707-.252,3.718,3.718,0,0,1-.574-.336,3.464,3.464,0,0,1-.42-.35q-.154-.154-.259-.28a.382.382,0,0,1-.1-.238.485.485,0,0,1,.084-.259,1.327,1.327,0,0,1,.182-.231,1.015,1.015,0,0,1,.259-.2.479.479,0,0,1,.2-.049.413.413,0,0,1,.315.126q.119.126.357.35.14.1.364.238a2.67,2.67,0,0,0,.518.245,1.859,1.859,0,0,0,.63.105,1.766,1.766,0,0,0,.8-.168,1.472,1.472,0,0,0,.553-.476,2.272,2.272,0,0,0,.329-.721,3.386,3.386,0,0,0,.112-.889V-8.89a1.627,1.627,0,0,1,.042-.392.411.411,0,0,1,.189-.259.818.818,0,0,1,.427-.091.773.773,0,0,1,.392.077.373.373,0,0,1,.168.224,1.254,1.254,0,0,1,.042.343v5.8a4.319,4.319,0,0,1-.2,1.358,3.038,3.038,0,0,1-.6,1.064,2.7,2.7,0,0,1-.973.7A3.333,3.333,0,0,1,184.646.182ZM190.54.14a.853.853,0,0,1-.413-.077.366.366,0,0,1-.175-.224A1.254,1.254,0,0,1,189.91-.5V-9a.658.658,0,0,1,.147-.5.79.79,0,0,1,.525-.133h5.628a1.179,1.179,0,0,1,.336.042.337.337,0,0,1,.21.182.975.975,0,0,1,.07.42.853.853,0,0,1-.077.413.366.366,0,0,1-.217.175,1.179,1.179,0,0,1-.336.042H191.17v2.9h3.5a1.106,1.106,0,0,1,.329.042.344.344,0,0,1,.2.168.839.839,0,0,1,.07.392.8.8,0,0,1-.07.378.319.319,0,0,1-.21.161,1.472,1.472,0,0,1-.35.035H191.17V-1.12h5.04a1.179,1.179,0,0,1,.336.042.34.34,0,0,1,.21.175.926.926,0,0,1,.07.413.853.853,0,0,1-.077.413.366.366,0,0,1-.217.175A1.179,1.179,0,0,1,196.2.14Z" transform="translate(46 528)"/>
    <path id="Trazado_119638" data-name="Trazado 119638" d="M-100.667.168a4.882,4.882,0,0,1-1.47-.224,5.01,5.01,0,0,1-1.33-.644,4.593,4.593,0,0,1-1.085-1.043,5,5,0,0,1-.735-1.4,5.267,5.267,0,0,1-.266-1.715,5.007,5.007,0,0,1,.266-1.659,4.638,4.638,0,0,1,.728-1.351,4.612,4.612,0,0,1,1.085-1,5.056,5.056,0,0,1,1.344-.63,5.1,5.1,0,0,1,1.477-.217,4.539,4.539,0,0,1,1.2.14,4.68,4.68,0,0,1,.826.3,3.269,3.269,0,0,1,.434.245,2.524,2.524,0,0,1,.378.266.511.511,0,0,1,.2.364.4.4,0,0,1-.021.252q-.049.1-.119.21a.841.841,0,0,1-.231.245.467.467,0,0,1-.259.077A.409.409,0,0,1-98.5-7.7q-.112-.084-.294-.2a3.735,3.735,0,0,0-.336-.182,4.185,4.185,0,0,0-.644-.245,3.31,3.31,0,0,0-.952-.119,3.659,3.659,0,0,0-1.365.259,3.45,3.45,0,0,0-1.141.735A3.4,3.4,0,0,0-104-6.3a3.9,3.9,0,0,0-.28,1.512A3.989,3.989,0,0,0-104-3.255a3.338,3.338,0,0,0,.777,1.155,3.452,3.452,0,0,0,1.141.728,3.693,3.693,0,0,0,1.358.252,3.462,3.462,0,0,0,.931-.112,3.577,3.577,0,0,0,.658-.245,3.254,3.254,0,0,0,.357-.2,2.8,2.8,0,0,0,.273-.168.44.44,0,0,1,.259-.084.467.467,0,0,1,.259.077.841.841,0,0,1,.231.245,1.077,1.077,0,0,1,.119.217.44.44,0,0,1,.021.259.489.489,0,0,1-.2.357,4.313,4.313,0,0,1-.378.273q-.126.056-.441.231a3.6,3.6,0,0,1-.819.308A4.831,4.831,0,0,1-100.667.168Zm7.7.056a3.3,3.3,0,0,1-1.309-.266,3.7,3.7,0,0,1-1.113-.735,3.439,3.439,0,0,1-.77-1.1,3.34,3.34,0,0,1-.28-1.372A3.4,3.4,0,0,1-96.173-4.6a3.462,3.462,0,0,1,.742-1.1,3.561,3.561,0,0,1,1.1-.749A3.294,3.294,0,0,1-93-6.72a3.385,3.385,0,0,1,1.743.455,3.428,3.428,0,0,1,1.239,1.239,3.409,3.409,0,0,1,.462,1.764,3.459,3.459,0,0,1-.28,1.407,3.445,3.445,0,0,1-.756,1.1,3.5,3.5,0,0,1-1.092.721A3.29,3.29,0,0,1-92.967.224ZM-93-.994A2.13,2.13,0,0,0-91.9-1.288a2.257,2.257,0,0,0,.812-.812,2.257,2.257,0,0,0,.308-1.176,2.307,2.307,0,0,0-.287-1.162,2.028,2.028,0,0,0-.791-.784,2.324,2.324,0,0,0-1.148-.28,2.145,2.145,0,0,0-1.113.294,2.254,2.254,0,0,0-.8.8,2.2,2.2,0,0,0-.3,1.148,2.247,2.247,0,0,0,.308,1.183,2.2,2.2,0,0,0,.819.8A2.208,2.208,0,0,0-93-.994Zm5.4,1.134a.72.72,0,0,1-.392-.084.4.4,0,0,1-.168-.224A1.179,1.179,0,0,1-88.193-.5V-6.048a1.036,1.036,0,0,1,.042-.322.341.341,0,0,1,.175-.2.885.885,0,0,1,.4-.07.656.656,0,0,1,.441.119A.535.535,0,0,1-87-6.1l-.056.6a1.642,1.642,0,0,1,.294-.42A2.248,2.248,0,0,1-86.3-6.3a2.62,2.62,0,0,1,.581-.266,2.066,2.066,0,0,1,.63-.1,2.092,2.092,0,0,1,.875.175,2.233,2.233,0,0,1,.693.5,2.742,2.742,0,0,1,.518.8,4.544,4.544,0,0,1,.6-.791,2.192,2.192,0,0,1,.721-.5,2.277,2.277,0,0,1,.91-.175,2.185,2.185,0,0,1,1.337.4,2.414,2.414,0,0,1,.812,1.12,4.889,4.889,0,0,1,.273,1.729V-.49a1.4,1.4,0,0,1-.035.336.339.339,0,0,1-.168.217.853.853,0,0,1-.413.077.758.758,0,0,1-.4-.084.394.394,0,0,1-.175-.224A1.179,1.179,0,0,1-79.583-.5V-3.43a3.547,3.547,0,0,0-.147-1.085,1.493,1.493,0,0,0-.448-.707,1.17,1.17,0,0,0-.777-.252,1.62,1.62,0,0,0-.889.245,1.593,1.593,0,0,0-.6.707,2.62,2.62,0,0,0-.21,1.092V-.476a.749.749,0,0,1-.084.364A.462.462,0,0,1-82.985.1a.771.771,0,0,1-.406.021.709.709,0,0,1-.336-.112.355.355,0,0,1-.14-.217,1.468,1.468,0,0,1-.028-.3V-3.43a3.547,3.547,0,0,0-.147-1.085,1.493,1.493,0,0,0-.448-.707,1.17,1.17,0,0,0-.777-.252,1.555,1.555,0,0,0-.889.259,1.686,1.686,0,0,0-.6.721,2.547,2.547,0,0,0-.21,1.064V-.49A1.179,1.179,0,0,1-87-.154a.366.366,0,0,1-.175.217A.853.853,0,0,1-87.591.14ZM-73.2.084a3,3,0,0,1-1.246-.252A2.7,2.7,0,0,1-75.4-.875a3.3,3.3,0,0,1-.609-1.071,3.842,3.842,0,0,1-.2-1.358A4.141,4.141,0,0,1-76-4.648a3.141,3.141,0,0,1,.609-1.071,2.713,2.713,0,0,1,.952-.7A3.027,3.027,0,0,1-73.2-6.664a2.948,2.948,0,0,1,1.211.252,3.048,3.048,0,0,1,.994.707,3.328,3.328,0,0,1,.672,1.085,3.714,3.714,0,0,1,.245,1.358,3.6,3.6,0,0,1-.245,1.344,3.28,3.28,0,0,1-.672,1.064,3.008,3.008,0,0,1-.994.693A3.02,3.02,0,0,1-73.2.084ZM-76.111,2.9a.815.815,0,0,1-.4-.077.4.4,0,0,1-.182-.217,1.021,1.021,0,0,1-.049-.336V-6.006a1.179,1.179,0,0,1,.042-.336.366.366,0,0,1,.175-.217.815.815,0,0,1,.4-.077.834.834,0,0,1,.455.1.454.454,0,0,1,.175.35V2.254a.994.994,0,0,1-.028.343.366.366,0,0,1-.175.224A.853.853,0,0,1-76.111,2.9Zm2.73-3.962a2.021,2.021,0,0,0,1.064-.287,2.037,2.037,0,0,0,.749-.791,2.372,2.372,0,0,0,.273-1.148,2.321,2.321,0,0,0-.273-1.148A1.977,1.977,0,0,0-72.31-5.2a2.089,2.089,0,0,0-1.071-.273,2.022,2.022,0,0,0-1.057.28,2.029,2.029,0,0,0-.742.77,2.291,2.291,0,0,0-.273,1.134,2.372,2.372,0,0,0,.273,1.148,2.054,2.054,0,0,0,.742.791A1.984,1.984,0,0,0-73.381-1.064ZM-62.825.126A.63.63,0,0,1-63.266,0a.61.61,0,0,1-.161-.392l.056-.7a2.908,2.908,0,0,1-.434.511,2.686,2.686,0,0,1-.77.5A2.792,2.792,0,0,1-65.737.14,2.974,2.974,0,0,1-66.99-.126a3.194,3.194,0,0,1-1.022-.742A3.488,3.488,0,0,1-68.7-1.96a3.528,3.528,0,0,1-.245-1.316,3.437,3.437,0,0,1,.245-1.3A3.282,3.282,0,0,1-68-5.642a3.384,3.384,0,0,1,1.029-.728,2.941,2.941,0,0,1,1.239-.266,3.029,3.029,0,0,1,1.05.161,2.581,2.581,0,0,1,.749.42,3.255,3.255,0,0,1,.553.581l-.028-.588A.536.536,0,0,1-63.28-6.5a.687.687,0,0,1,.469-.133.682.682,0,0,1,.385.084.413.413,0,0,1,.161.238,1.458,1.458,0,0,1,.042.378v5.4a1.333,1.333,0,0,1-.042.35.374.374,0,0,1-.168.231A.773.773,0,0,1-62.825.126Zm-2.7-1.162A1.9,1.9,0,0,0-64.5-1.33a2.122,2.122,0,0,0,.742-.791,2.331,2.331,0,0,0,.273-1.141,2.268,2.268,0,0,0-.287-1.155,2.177,2.177,0,0,0-.756-.784,1.934,1.934,0,0,0-1.029-.287,2.113,2.113,0,0,0-1.141.3,2.179,2.179,0,0,0-.763.8,2.324,2.324,0,0,0-.28,1.148,2.256,2.256,0,0,0,.28,1.127,2.055,2.055,0,0,0,.777.784A2.268,2.268,0,0,0-65.527-1.036ZM-59.941.14a.815.815,0,0,1-.4-.077.341.341,0,0,1-.168-.224A1.492,1.492,0,0,1-60.543-.5V-6.02a1.238,1.238,0,0,1,.042-.35.319.319,0,0,1,.168-.2.965.965,0,0,1,.406-.063.928.928,0,0,1,.385.063.347.347,0,0,1,.182.182.712.712,0,0,1,.049.273l-.056.42a3.147,3.147,0,0,1,.231-.364,1.5,1.5,0,0,1,.336-.329,1.85,1.85,0,0,1,.49-.245,2.208,2.208,0,0,1,.707-.1,2.189,2.189,0,0,1,.4.035,1.918,1.918,0,0,1,.364.105,1.4,1.4,0,0,1,.3.161.906.906,0,0,1,.2.2.4.4,0,0,1,.077.245.756.756,0,0,1-.2.525.555.555,0,0,1-.406.217.549.549,0,0,1-.266-.049,1.908,1.908,0,0,1-.161-.105.855.855,0,0,0-.217-.1,1.476,1.476,0,0,0-.448-.049,1.29,1.29,0,0,0-.441.084,1.651,1.651,0,0,0-.441.245,1.242,1.242,0,0,0-.343.413,1.242,1.242,0,0,0-.133.588V-.476a1.179,1.179,0,0,1-.042.336.34.34,0,0,1-.175.21A.926.926,0,0,1-59.941.14Zm7.994,0A4.227,4.227,0,0,1-53.06.014a1.82,1.82,0,0,1-.749-.392,1.473,1.473,0,0,1-.42-.693,3.789,3.789,0,0,1-.126-1.057V-8.316a1.179,1.179,0,0,1,.042-.336.372.372,0,0,1,.168-.217.773.773,0,0,1,.392-.077.859.859,0,0,1,.406.077.362.362,0,0,1,.182.21,1.106,1.106,0,0,1,.042.329v6.2a2.155,2.155,0,0,0,.063.581.655.655,0,0,0,.2.329.671.671,0,0,0,.357.14,4.5,4.5,0,0,0,.546.028,1.3,1.3,0,0,1,.364.042.344.344,0,0,1,.21.168.8.8,0,0,1,.07.378.815.815,0,0,1-.077.4A.341.341,0,0,1-51.618.1,1.423,1.423,0,0,1-51.947.14Zm-3.136-6.622,1.344.014,1.946-.028a1.4,1.4,0,0,1,.336.035.339.339,0,0,1,.217.168.816.816,0,0,1,.077.4.885.885,0,0,1-.07.4.34.34,0,0,1-.21.175,1.179,1.179,0,0,1-.336.042L-53.7-5.306l-1.414.014a.474.474,0,0,1-.4-.14.784.784,0,0,1-.105-.462.659.659,0,0,1,.126-.448A.522.522,0,0,1-55.083-6.482Zm8.4,6.692a3.794,3.794,0,0,1-1.5-.28,3.26,3.26,0,0,1-1.113-.763,3.314,3.314,0,0,1-.693-1.113A3.811,3.811,0,0,1-50.225-3.3a3.313,3.313,0,0,1,.448-1.722,3.25,3.25,0,0,1,1.239-1.2,3.66,3.66,0,0,1,1.813-.441,3.408,3.408,0,0,1,1.253.217,2.96,2.96,0,0,1,.945.581,2.627,2.627,0,0,1,.6.812,2.1,2.1,0,0,1,.21.9,1.261,1.261,0,0,1-.336,1,1.228,1.228,0,0,1-.826.287h-4.046a1.608,1.608,0,0,0,.329,1.057,2.266,2.266,0,0,0,.868.679A2.539,2.539,0,0,0-46.669-.9,4.611,4.611,0,0,0-46-.938a2.939,2.939,0,0,0,.49-.112,3.768,3.768,0,0,0,.364-.14,2.941,2.941,0,0,0,.273-.14.879.879,0,0,1,.231-.1.4.4,0,0,1,.245.021.372.372,0,0,1,.189.189.662.662,0,0,1,.112.21.761.761,0,0,1,.028.21q0,.2-.336.434a3.065,3.065,0,0,1-.931.406A4.977,4.977,0,0,1-46.683.21ZM-48.923-3.7h3.514a.885.885,0,0,0,.4-.07q.133-.07.133-.378a1.144,1.144,0,0,0-.238-.707,1.721,1.721,0,0,0-.651-.511,2.179,2.179,0,0,0-.945-.2,2.573,2.573,0,0,0-1.127.245,2.029,2.029,0,0,0-.805.665A1.546,1.546,0,0,0-48.923-3.7ZM-35.833.14A4.227,4.227,0,0,1-36.946.014a1.82,1.82,0,0,1-.749-.392,1.473,1.473,0,0,1-.42-.693,3.789,3.789,0,0,1-.126-1.057V-8.316a1.179,1.179,0,0,1,.042-.336.372.372,0,0,1,.168-.217.773.773,0,0,1,.392-.077.859.859,0,0,1,.406.077.362.362,0,0,1,.182.21,1.106,1.106,0,0,1,.042.329v6.2a2.155,2.155,0,0,0,.063.581.655.655,0,0,0,.2.329.671.671,0,0,0,.357.14,4.5,4.5,0,0,0,.546.028,1.3,1.3,0,0,1,.364.042.344.344,0,0,1,.21.168.8.8,0,0,1,.07.378.815.815,0,0,1-.077.4A.341.341,0,0,1-35.5.1,1.423,1.423,0,0,1-35.833.14Zm-3.136-6.622,1.344.014,1.946-.028a1.4,1.4,0,0,1,.336.035.339.339,0,0,1,.217.168.815.815,0,0,1,.077.4.885.885,0,0,1-.07.4.34.34,0,0,1-.21.175,1.179,1.179,0,0,1-.336.042l-1.918-.028L-39-5.292a.474.474,0,0,1-.4-.14.784.784,0,0,1-.105-.462.659.659,0,0,1,.126-.448A.522.522,0,0,1-38.969-6.482Zm7.9,6.636A2.877,2.877,0,0,1-32.214-.07a2.775,2.775,0,0,1-.917-.63,2.833,2.833,0,0,1-.609-.98,3.662,3.662,0,0,1-.217-1.3V-6.02a1.179,1.179,0,0,1,.042-.336.366.366,0,0,1,.175-.217.815.815,0,0,1,.4-.077.758.758,0,0,1,.4.084.394.394,0,0,1,.175.224,1.179,1.179,0,0,1,.042.336v3.038a2.477,2.477,0,0,0,.2,1.015,1.458,1.458,0,0,0,.6.679,1.868,1.868,0,0,0,.973.238,2.053,2.053,0,0,0,1.015-.238,1.62,1.62,0,0,0,.658-.679,2.156,2.156,0,0,0,.231-1.015V-6.02a1.179,1.179,0,0,1,.042-.336.366.366,0,0,1,.175-.217.815.815,0,0,1,.4-.077.758.758,0,0,1,.4.084.364.364,0,0,1,.168.224,1.4,1.4,0,0,1,.035.336V-.448a1.185,1.185,0,0,1-.035.3.314.314,0,0,1-.168.2.885.885,0,0,1-.4.07.969.969,0,0,1-.315-.042.379.379,0,0,1-.175-.112.4.4,0,0,1-.077-.161.838.838,0,0,1-.021-.189l.056-.6q-.14.168-.336.364a3.077,3.077,0,0,1-.455.371,2.5,2.5,0,0,1-.581.287A2.208,2.208,0,0,1-31.073.154Zm9.086-.028a.815.815,0,0,1-.4-.077.339.339,0,0,1-.168-.217A1.4,1.4,0,0,1-22.589-.5V-6.062a.982.982,0,0,1,.042-.308.341.341,0,0,1,.175-.2.885.885,0,0,1,.4-.07.888.888,0,0,1,.329.049.331.331,0,0,1,.168.133.5.5,0,0,1,.063.182,1.292,1.292,0,0,1,.014.182l-.028.644a2.42,2.42,0,0,1,.35-.455,2.581,2.581,0,0,1,.49-.392,2.477,2.477,0,0,1,.609-.273,2.466,2.466,0,0,1,.707-.1,2.906,2.906,0,0,1,1.134.217,2.454,2.454,0,0,1,.889.63,2.909,2.909,0,0,1,.574.987,3.891,3.891,0,0,1,.2,1.3V-.49a1.4,1.4,0,0,1-.035.336.316.316,0,0,1-.168.21.885.885,0,0,1-.4.07.853.853,0,0,1-.413-.077.366.366,0,0,1-.175-.217A1.179,1.179,0,0,1-17.7-.5V-3.542a2.465,2.465,0,0,0-.2-1.022,1.518,1.518,0,0,0-.588-.679,1.846,1.846,0,0,0-.994-.245,1.977,1.977,0,0,0-1,.245,1.676,1.676,0,0,0-.658.679,2.145,2.145,0,0,0-.231,1.022V-.49a1.179,1.179,0,0,1-.042.336.34.34,0,0,1-.175.21A.885.885,0,0,1-21.987.126Zm9.87.028A2.877,2.877,0,0,1-13.258-.07a2.775,2.775,0,0,1-.917-.63,2.833,2.833,0,0,1-.609-.98A3.662,3.662,0,0,1-15-2.982V-6.02a1.179,1.179,0,0,1,.042-.336.366.366,0,0,1,.175-.217.815.815,0,0,1,.4-.077.758.758,0,0,1,.4.084.394.394,0,0,1,.175.224,1.179,1.179,0,0,1,.042.336v3.038a2.477,2.477,0,0,0,.2,1.015,1.458,1.458,0,0,0,.595.679A1.868,1.868,0,0,0-12-1.036a2.053,2.053,0,0,0,1.015-.238,1.62,1.62,0,0,0,.658-.679A2.156,2.156,0,0,0-10.1-2.968V-6.02a1.179,1.179,0,0,1,.042-.336.366.366,0,0,1,.175-.217.815.815,0,0,1,.4-.077.758.758,0,0,1,.4.084.364.364,0,0,1,.168.224,1.4,1.4,0,0,1,.035.336V-.448a1.185,1.185,0,0,1-.035.3.314.314,0,0,1-.168.2.885.885,0,0,1-.4.07A.969.969,0,0,1-9.8.084a.379.379,0,0,1-.175-.112.4.4,0,0,1-.077-.161.838.838,0,0,1-.021-.189l.056-.6q-.14.168-.336.364a3.077,3.077,0,0,1-.455.371,2.5,2.5,0,0,1-.581.287A2.208,2.208,0,0,1-12.117.154Zm-.112-7.714a.466.466,0,0,1-.35-.042.642.642,0,0,1-.21-.35.675.675,0,0,1-.035-.448.481.481,0,0,1,.329-.238l2.24-.756a.416.416,0,0,1,.336.049.686.686,0,0,1,.21.357.585.585,0,0,1,.021.441.6.6,0,0,1-.343.245ZM-6.6.14A.72.72,0,0,1-6.993.056a.4.4,0,0,1-.168-.224A1.179,1.179,0,0,1-7.2-.5V-6.048a1.036,1.036,0,0,1,.042-.322.341.341,0,0,1,.175-.2.885.885,0,0,1,.4-.07.656.656,0,0,1,.441.119.535.535,0,0,1,.133.413l-.056.6a1.642,1.642,0,0,1,.294-.42A2.248,2.248,0,0,1-5.306-6.3a2.62,2.62,0,0,1,.581-.266,2.066,2.066,0,0,1,.63-.1,2.093,2.093,0,0,1,.875.175,2.233,2.233,0,0,1,.693.5,2.742,2.742,0,0,1,.518.8,4.544,4.544,0,0,1,.6-.791,2.192,2.192,0,0,1,.721-.5,2.277,2.277,0,0,1,.91-.175,2.185,2.185,0,0,1,1.337.4,2.414,2.414,0,0,1,.812,1.12,4.889,4.889,0,0,1,.273,1.729V-.49A1.4,1.4,0,0,1,2.6-.154a.339.339,0,0,1-.168.217A.853.853,0,0,1,2.023.14a.758.758,0,0,1-.4-.084.394.394,0,0,1-.175-.224A1.179,1.179,0,0,1,1.407-.5V-3.43A3.547,3.547,0,0,0,1.26-4.515a1.493,1.493,0,0,0-.448-.707,1.169,1.169,0,0,0-.777-.252,1.62,1.62,0,0,0-.889.245,1.593,1.593,0,0,0-.595.707,2.62,2.62,0,0,0-.21,1.092V-.476a.749.749,0,0,1-.084.364A.462.462,0,0,1-1.995.1.771.771,0,0,1-2.4.126.709.709,0,0,1-2.737.014.355.355,0,0,1-2.877-.2,1.468,1.468,0,0,1-2.9-.5V-3.43a3.547,3.547,0,0,0-.147-1.085A1.493,1.493,0,0,0-3.5-5.222a1.169,1.169,0,0,0-.777-.252,1.555,1.555,0,0,0-.889.259,1.686,1.686,0,0,0-.595.721,2.547,2.547,0,0,0-.21,1.064V-.49a1.179,1.179,0,0,1-.042.336.366.366,0,0,1-.175.217A.853.853,0,0,1-6.6.14ZM7.553.21a3.794,3.794,0,0,1-1.5-.28A3.26,3.26,0,0,1,4.942-.833a3.314,3.314,0,0,1-.693-1.113A3.811,3.811,0,0,1,4.011-3.3a3.313,3.313,0,0,1,.448-1.722A3.25,3.25,0,0,1,5.7-6.223a3.66,3.66,0,0,1,1.813-.441,3.408,3.408,0,0,1,1.253.217,2.96,2.96,0,0,1,.945.581,2.627,2.627,0,0,1,.6.812,2.1,2.1,0,0,1,.21.9,1.261,1.261,0,0,1-.336,1,1.228,1.228,0,0,1-.826.287H5.313a1.608,1.608,0,0,0,.329,1.057,2.266,2.266,0,0,0,.868.679A2.539,2.539,0,0,0,7.567-.9a4.611,4.611,0,0,0,.672-.042,2.939,2.939,0,0,0,.49-.112,3.768,3.768,0,0,0,.364-.14,2.941,2.941,0,0,0,.273-.14.879.879,0,0,1,.231-.1.4.4,0,0,1,.245.021.372.372,0,0,1,.189.189.662.662,0,0,1,.112.21.761.761,0,0,1,.028.21q0,.2-.336.434A3.065,3.065,0,0,1,8.9.042,4.977,4.977,0,0,1,7.553.21ZM5.313-3.7H8.827a.885.885,0,0,0,.4-.07q.133-.07.133-.378a1.144,1.144,0,0,0-.238-.707,1.721,1.721,0,0,0-.651-.511,2.179,2.179,0,0,0-.945-.2A2.573,2.573,0,0,0,6.4-5.313a2.029,2.029,0,0,0-.8.665A1.546,1.546,0,0,0,5.313-3.7ZM12.537.14a.815.815,0,0,1-.4-.077.341.341,0,0,1-.168-.224A1.492,1.492,0,0,1,11.935-.5V-6.02a1.238,1.238,0,0,1,.042-.35.319.319,0,0,1,.168-.2.965.965,0,0,1,.406-.063.928.928,0,0,1,.385.063.347.347,0,0,1,.182.182.712.712,0,0,1,.049.273l-.056.42a3.147,3.147,0,0,1,.231-.364,1.5,1.5,0,0,1,.336-.329,1.85,1.85,0,0,1,.49-.245,2.208,2.208,0,0,1,.707-.1,2.189,2.189,0,0,1,.4.035,1.918,1.918,0,0,1,.364.105,1.4,1.4,0,0,1,.3.161.906.906,0,0,1,.2.2.4.4,0,0,1,.077.245.756.756,0,0,1-.2.525.555.555,0,0,1-.406.217.549.549,0,0,1-.266-.049A1.908,1.908,0,0,1,15.19-5.4a.855.855,0,0,0-.217-.1,1.476,1.476,0,0,0-.448-.049,1.29,1.29,0,0,0-.441.084,1.651,1.651,0,0,0-.441.245,1.242,1.242,0,0,0-.343.413,1.242,1.242,0,0,0-.133.588V-.476a1.179,1.179,0,0,1-.042.336.34.34,0,0,1-.175.21A.926.926,0,0,1,12.537.14Zm7.938.084a3.3,3.3,0,0,1-1.309-.266,3.7,3.7,0,0,1-1.113-.735,3.439,3.439,0,0,1-.77-1.1A3.34,3.34,0,0,1,17-3.248,3.4,3.4,0,0,1,17.269-4.6a3.462,3.462,0,0,1,.742-1.1,3.561,3.561,0,0,1,1.1-.749,3.294,3.294,0,0,1,1.337-.273,3.385,3.385,0,0,1,1.743.455,3.428,3.428,0,0,1,1.239,1.239,3.409,3.409,0,0,1,.462,1.764,3.459,3.459,0,0,1-.28,1.407,3.445,3.445,0,0,1-.756,1.1,3.5,3.5,0,0,1-1.092.721A3.29,3.29,0,0,1,20.475.224ZM20.447-.994a2.13,2.13,0,0,0,1.092-.294,2.257,2.257,0,0,0,.812-.812,2.257,2.257,0,0,0,.308-1.176,2.307,2.307,0,0,0-.287-1.162,2.028,2.028,0,0,0-.791-.784,2.324,2.324,0,0,0-1.148-.28,2.145,2.145,0,0,0-1.113.294,2.254,2.254,0,0,0-.8.8,2.2,2.2,0,0,0-.3,1.148,2.247,2.247,0,0,0,.308,1.183,2.2,2.2,0,0,0,.819.8A2.208,2.208,0,0,0,20.447-.994ZM31.647.168A3.868,3.868,0,0,1,30.282-.07a3.356,3.356,0,0,1-1.12-.686,3.187,3.187,0,0,1-.756-1.071,3.508,3.508,0,0,1-.273-1.421,3.508,3.508,0,0,1,.273-1.421,3.236,3.236,0,0,1,.749-1.071,3.279,3.279,0,0,1,1.113-.686,3.828,3.828,0,0,1,1.351-.238,3.076,3.076,0,0,1,.938.147,3.394,3.394,0,0,1,.819.378,1.6,1.6,0,0,1,.511.483,2.267,2.267,0,0,1,.2.3.325.325,0,0,1,.007.273.709.709,0,0,1-.154.2,1.073,1.073,0,0,1-.2.147.426.426,0,0,1-.5.056,2.6,2.6,0,0,0-.343-.287,3.8,3.8,0,0,0-.4-.245,2.224,2.224,0,0,0-.427-.175,1.624,1.624,0,0,0-.455-.063,2.4,2.4,0,0,0-1.162.273,1.9,1.9,0,0,0-.777.77,2.361,2.361,0,0,0-.273,1.155A2.321,2.321,0,0,0,29.68-2.1a1.97,1.97,0,0,0,.77.77,2.284,2.284,0,0,0,1.141.28,2.079,2.079,0,0,0,.567-.077,2.352,2.352,0,0,0,.511-.21,1.776,1.776,0,0,0,.392-.287l.238-.168a.4.4,0,0,1,.238-.07.413.413,0,0,1,.238.091,1.352,1.352,0,0,1,.266.273.514.514,0,0,1,.133.266.409.409,0,0,1-.049.266.907.907,0,0,1-.224.252,2.609,2.609,0,0,1-.595.427A3.986,3.986,0,0,1,32.5.042,3.053,3.053,0,0,1,31.647.168Zm6.986.056a3.3,3.3,0,0,1-1.309-.266,3.7,3.7,0,0,1-1.113-.735,3.439,3.439,0,0,1-.77-1.1,3.34,3.34,0,0,1-.28-1.372A3.4,3.4,0,0,1,35.427-4.6a3.462,3.462,0,0,1,.742-1.1,3.561,3.561,0,0,1,1.1-.749,3.294,3.294,0,0,1,1.337-.273,3.385,3.385,0,0,1,1.743.455,3.428,3.428,0,0,1,1.239,1.239,3.409,3.409,0,0,1,.462,1.764,3.459,3.459,0,0,1-.28,1.407,3.445,3.445,0,0,1-.756,1.1,3.5,3.5,0,0,1-1.092.721A3.29,3.29,0,0,1,38.633.224ZM38.605-.994A2.13,2.13,0,0,0,39.7-1.288a2.257,2.257,0,0,0,.812-.812,2.257,2.257,0,0,0,.308-1.176,2.307,2.307,0,0,0-.287-1.162,2.028,2.028,0,0,0-.791-.784,2.324,2.324,0,0,0-1.148-.28,2.145,2.145,0,0,0-1.113.294,2.254,2.254,0,0,0-.8.8,2.2,2.2,0,0,0-.3,1.148,2.247,2.247,0,0,0,.308,1.183,2.2,2.2,0,0,0,.819.8A2.208,2.208,0,0,0,38.605-.994ZM44.023.126a.815.815,0,0,1-.4-.077.339.339,0,0,1-.168-.217A1.4,1.4,0,0,1,43.421-.5V-6.062a.982.982,0,0,1,.042-.308.341.341,0,0,1,.175-.2.885.885,0,0,1,.4-.07.888.888,0,0,1,.329.049.331.331,0,0,1,.168.133.5.5,0,0,1,.063.182,1.292,1.292,0,0,1,.014.182l-.028.644a2.42,2.42,0,0,1,.35-.455,2.581,2.581,0,0,1,.49-.392,2.477,2.477,0,0,1,.609-.273,2.466,2.466,0,0,1,.707-.1,2.906,2.906,0,0,1,1.134.217,2.454,2.454,0,0,1,.889.63,2.909,2.909,0,0,1,.574.987,3.891,3.891,0,0,1,.2,1.3V-.49a1.4,1.4,0,0,1-.035.336.316.316,0,0,1-.168.21.885.885,0,0,1-.4.07.853.853,0,0,1-.413-.077.366.366,0,0,1-.175-.217A1.179,1.179,0,0,1,48.307-.5V-3.542a2.465,2.465,0,0,0-.2-1.022,1.518,1.518,0,0,0-.588-.679,1.846,1.846,0,0,0-.994-.245,1.977,1.977,0,0,0-1,.245,1.676,1.676,0,0,0-.658.679,2.145,2.145,0,0,0-.231,1.022V-.49a1.179,1.179,0,0,1-.042.336.34.34,0,0,1-.175.21A.885.885,0,0,1,44.023.126ZM57.687.14A4.227,4.227,0,0,1,56.574.014a1.82,1.82,0,0,1-.749-.392,1.473,1.473,0,0,1-.42-.693,3.789,3.789,0,0,1-.126-1.057V-8.316a1.179,1.179,0,0,1,.042-.336.372.372,0,0,1,.168-.217.773.773,0,0,1,.392-.077.859.859,0,0,1,.406.077.362.362,0,0,1,.182.21,1.106,1.106,0,0,1,.042.329v6.2a2.155,2.155,0,0,0,.063.581.655.655,0,0,0,.2.329.671.671,0,0,0,.357.14,4.5,4.5,0,0,0,.546.028,1.3,1.3,0,0,1,.364.042.344.344,0,0,1,.21.168.8.8,0,0,1,.07.378.815.815,0,0,1-.077.4A.341.341,0,0,1,58.016.1,1.423,1.423,0,0,1,57.687.14ZM54.551-6.482l1.344.014L57.841-6.5a1.4,1.4,0,0,1,.336.035.339.339,0,0,1,.217.168.815.815,0,0,1,.077.4.885.885,0,0,1-.07.4.34.34,0,0,1-.21.175,1.179,1.179,0,0,1-.336.042l-1.918-.028-1.414.014a.474.474,0,0,1-.4-.14.784.784,0,0,1-.105-.462.659.659,0,0,1,.126-.448A.522.522,0,0,1,54.551-6.482Zm7.9,6.636A2.877,2.877,0,0,1,61.306-.07a2.775,2.775,0,0,1-.917-.63,2.833,2.833,0,0,1-.609-.98,3.662,3.662,0,0,1-.217-1.3V-6.02a1.179,1.179,0,0,1,.042-.336.366.366,0,0,1,.175-.217.815.815,0,0,1,.4-.077.758.758,0,0,1,.4.084.394.394,0,0,1,.175.224,1.179,1.179,0,0,1,.042.336v3.038a2.477,2.477,0,0,0,.2,1.015,1.458,1.458,0,0,0,.6.679,1.868,1.868,0,0,0,.973.238,2.053,2.053,0,0,0,1.015-.238,1.62,1.62,0,0,0,.658-.679,2.156,2.156,0,0,0,.231-1.015V-6.02a1.179,1.179,0,0,1,.042-.336.366.366,0,0,1,.175-.217.815.815,0,0,1,.4-.077.758.758,0,0,1,.4.084.364.364,0,0,1,.168.224,1.4,1.4,0,0,1,.035.336V-.448a1.185,1.185,0,0,1-.035.3.314.314,0,0,1-.168.2.885.885,0,0,1-.4.07.969.969,0,0,1-.315-.042.379.379,0,0,1-.175-.112.4.4,0,0,1-.077-.161.838.838,0,0,1-.021-.189l.056-.6q-.14.168-.336.364a3.077,3.077,0,0,1-.455.371,2.5,2.5,0,0,1-.581.287A2.208,2.208,0,0,1,62.447.154ZM69.615.21a3.707,3.707,0,0,1-.7-.07,4.086,4.086,0,0,1-.707-.2,2.809,2.809,0,0,1-.6-.315,1.26,1.26,0,0,1-.385-.406.794.794,0,0,1-.084-.259.4.4,0,0,1,.042-.231.877.877,0,0,1,.168-.224.357.357,0,0,1,.28-.161.65.65,0,0,1,.35.189q.154.1.364.217a3.717,3.717,0,0,0,.434.21,4.014,4.014,0,0,0,.455.154,1.724,1.724,0,0,0,.455.063,1.934,1.934,0,0,0,1.036-.245.741.741,0,0,0,.392-.651.793.793,0,0,0-.1-.406.915.915,0,0,0-.266-.287,1.821,1.821,0,0,0-.378-.2q-.21-.084-.469-.161t-.511-.147q-.378-.1-.742-.224a2.713,2.713,0,0,1-.658-.329A1.583,1.583,0,0,1,67.515-4a1.593,1.593,0,0,1-.182-.805,1.689,1.689,0,0,1,.294-.994,1.9,1.9,0,0,1,.826-.651A3.108,3.108,0,0,1,69.7-6.678a3.686,3.686,0,0,1,.574.042,2.651,2.651,0,0,1,.511.133,3.871,3.871,0,0,1,.469.21,2.791,2.791,0,0,1,.434.287.506.506,0,0,1,.266.364.587.587,0,0,1-.154.406.558.558,0,0,1-.28.231.317.317,0,0,1-.308-.077,3.108,3.108,0,0,0-.476-.294,3.541,3.541,0,0,0-.518-.21,1.8,1.8,0,0,0-.546-.084,1.726,1.726,0,0,0-.623.105.9.9,0,0,0-.42.308.757.757,0,0,0-.147.455.543.543,0,0,0,.119.364,1,1,0,0,0,.308.238,2.565,2.565,0,0,0,.448.175q.259.077.539.147.406.1.833.231a3.228,3.228,0,0,1,.77.35,1.734,1.734,0,0,1,.56.574,1.8,1.8,0,0,1,.217.945,1.706,1.706,0,0,1-.728,1.456A3.2,3.2,0,0,1,69.615.21ZM80.185.168A3.868,3.868,0,0,1,78.82-.07,3.356,3.356,0,0,1,77.7-.756a3.187,3.187,0,0,1-.756-1.071,3.508,3.508,0,0,1-.273-1.421,3.508,3.508,0,0,1,.273-1.421,3.236,3.236,0,0,1,.749-1.071,3.279,3.279,0,0,1,1.113-.686,3.828,3.828,0,0,1,1.351-.238,3.076,3.076,0,0,1,.938.147,3.394,3.394,0,0,1,.819.378,1.6,1.6,0,0,1,.511.483,2.268,2.268,0,0,1,.2.3.325.325,0,0,1,.007.273.709.709,0,0,1-.154.2,1.073,1.073,0,0,1-.2.147.426.426,0,0,1-.5.056,2.6,2.6,0,0,0-.343-.287,3.8,3.8,0,0,0-.4-.245,2.224,2.224,0,0,0-.427-.175,1.624,1.624,0,0,0-.455-.063A2.4,2.4,0,0,0,79-5.173a1.9,1.9,0,0,0-.777.77,2.361,2.361,0,0,0-.273,1.155A2.321,2.321,0,0,0,78.218-2.1a1.97,1.97,0,0,0,.77.77,2.284,2.284,0,0,0,1.141.28,2.079,2.079,0,0,0,.567-.077,2.352,2.352,0,0,0,.511-.21,1.776,1.776,0,0,0,.392-.287l.238-.168a.4.4,0,0,1,.238-.07.413.413,0,0,1,.238.091,1.352,1.352,0,0,1,.266.273.514.514,0,0,1,.133.266.409.409,0,0,1-.049.266.907.907,0,0,1-.224.252,2.609,2.609,0,0,1-.6.427,3.987,3.987,0,0,1-.805.329A3.053,3.053,0,0,1,80.185.168ZM86.793.154A2.877,2.877,0,0,1,85.652-.07a2.775,2.775,0,0,1-.917-.63,2.833,2.833,0,0,1-.609-.98,3.662,3.662,0,0,1-.217-1.3V-6.02a1.179,1.179,0,0,1,.042-.336.366.366,0,0,1,.175-.217.815.815,0,0,1,.4-.077.758.758,0,0,1,.4.084.394.394,0,0,1,.175.224,1.179,1.179,0,0,1,.042.336v3.038a2.477,2.477,0,0,0,.2,1.015,1.458,1.458,0,0,0,.6.679,1.868,1.868,0,0,0,.973.238,2.053,2.053,0,0,0,1.015-.238,1.62,1.62,0,0,0,.658-.679,2.156,2.156,0,0,0,.231-1.015V-6.02a1.179,1.179,0,0,1,.042-.336.366.366,0,0,1,.175-.217.815.815,0,0,1,.4-.077.758.758,0,0,1,.4.084.364.364,0,0,1,.168.224,1.4,1.4,0,0,1,.035.336V-.448a1.185,1.185,0,0,1-.035.3.314.314,0,0,1-.168.2.885.885,0,0,1-.4.07A.969.969,0,0,1,89.11.084a.379.379,0,0,1-.175-.112.4.4,0,0,1-.077-.161.838.838,0,0,1-.021-.189l.056-.6q-.14.168-.336.364a3.077,3.077,0,0,1-.455.371,2.5,2.5,0,0,1-.581.287A2.208,2.208,0,0,1,86.793.154ZM97.475.126A.63.63,0,0,1,97.034,0a.61.61,0,0,1-.161-.392l.056-.7a2.908,2.908,0,0,1-.434.511,2.686,2.686,0,0,1-.77.5A2.792,2.792,0,0,1,94.563.14,2.974,2.974,0,0,1,93.31-.126a3.194,3.194,0,0,1-1.022-.742A3.488,3.488,0,0,1,91.6-1.96a3.528,3.528,0,0,1-.245-1.316,3.437,3.437,0,0,1,.245-1.3A3.282,3.282,0,0,1,92.3-5.642a3.384,3.384,0,0,1,1.029-.728,2.941,2.941,0,0,1,1.239-.266,3.029,3.029,0,0,1,1.05.161,2.581,2.581,0,0,1,.749.42,3.255,3.255,0,0,1,.553.581l-.028-.588A.536.536,0,0,1,97.02-6.5a.687.687,0,0,1,.469-.133.682.682,0,0,1,.385.084.413.413,0,0,1,.161.238,1.458,1.458,0,0,1,.042.378v5.4a1.333,1.333,0,0,1-.042.35.374.374,0,0,1-.168.231A.773.773,0,0,1,97.475.126Zm-2.7-1.162A1.9,1.9,0,0,0,95.8-1.33a2.122,2.122,0,0,0,.742-.791,2.331,2.331,0,0,0,.273-1.141,2.268,2.268,0,0,0-.287-1.155,2.177,2.177,0,0,0-.756-.784,1.934,1.934,0,0,0-1.029-.287,2.113,2.113,0,0,0-1.141.3,2.179,2.179,0,0,0-.763.8,2.324,2.324,0,0,0-.28,1.148,2.256,2.256,0,0,0,.28,1.127,2.055,2.055,0,0,0,.777.784A2.268,2.268,0,0,0,94.773-1.036ZM102.935.14a4.227,4.227,0,0,1-1.113-.126,1.82,1.82,0,0,1-.749-.392,1.473,1.473,0,0,1-.42-.693,3.789,3.789,0,0,1-.126-1.057V-8.316a1.179,1.179,0,0,1,.042-.336.372.372,0,0,1,.168-.217.773.773,0,0,1,.392-.077.859.859,0,0,1,.406.077.362.362,0,0,1,.182.21,1.106,1.106,0,0,1,.042.329v6.2a2.155,2.155,0,0,0,.063.581.655.655,0,0,0,.2.329.671.671,0,0,0,.357.14,4.5,4.5,0,0,0,.546.028,1.3,1.3,0,0,1,.364.042.344.344,0,0,1,.21.168.8.8,0,0,1,.07.378.815.815,0,0,1-.077.4.341.341,0,0,1-.224.168A1.423,1.423,0,0,1,102.935.14ZM99.8-6.482l1.344.014,1.946-.028a1.4,1.4,0,0,1,.336.035.339.339,0,0,1,.217.168.815.815,0,0,1,.077.4.885.885,0,0,1-.07.4.34.34,0,0,1-.21.175,1.179,1.179,0,0,1-.336.042l-1.918-.028-1.414.014a.474.474,0,0,1-.4-.14.784.784,0,0,1-.105-.462.659.659,0,0,1,.126-.448A.522.522,0,0,1,99.8-6.482ZM108.2.21a3.794,3.794,0,0,1-1.5-.28,3.26,3.26,0,0,1-1.113-.763,3.314,3.314,0,0,1-.693-1.113,3.811,3.811,0,0,1-.238-1.358,3.313,3.313,0,0,1,.448-1.722,3.25,3.25,0,0,1,1.239-1.2,3.66,3.66,0,0,1,1.813-.441,3.408,3.408,0,0,1,1.253.217,2.96,2.96,0,0,1,.945.581,2.627,2.627,0,0,1,.6.812,2.1,2.1,0,0,1,.21.9,1.261,1.261,0,0,1-.336,1A1.228,1.228,0,0,1,110-2.87h-4.046a1.608,1.608,0,0,0,.329,1.057,2.266,2.266,0,0,0,.868.679,2.539,2.539,0,0,0,1.057.238,4.611,4.611,0,0,0,.672-.042,2.939,2.939,0,0,0,.49-.112,3.769,3.769,0,0,0,.364-.14,2.942,2.942,0,0,0,.273-.14.879.879,0,0,1,.231-.1.4.4,0,0,1,.245.021.372.372,0,0,1,.189.189.662.662,0,0,1,.112.21.761.761,0,0,1,.028.21q0,.2-.336.434a3.065,3.065,0,0,1-.931.406A4.977,4.977,0,0,1,108.2.21ZM105.959-3.7h3.514a.885.885,0,0,0,.4-.07q.133-.07.133-.378a1.144,1.144,0,0,0-.238-.707,1.721,1.721,0,0,0-.651-.511,2.179,2.179,0,0,0-.945-.2,2.573,2.573,0,0,0-1.127.245,2.029,2.029,0,0,0-.805.665A1.546,1.546,0,0,0,105.959-3.7ZM114.821.21a3.707,3.707,0,0,1-.7-.07,4.086,4.086,0,0,1-.707-.2,2.809,2.809,0,0,1-.6-.315,1.26,1.26,0,0,1-.385-.406.794.794,0,0,1-.084-.259.4.4,0,0,1,.042-.231.877.877,0,0,1,.168-.224.357.357,0,0,1,.28-.161.65.65,0,0,1,.35.189q.154.1.364.217a3.717,3.717,0,0,0,.434.21,4.014,4.014,0,0,0,.455.154,1.724,1.724,0,0,0,.455.063,1.934,1.934,0,0,0,1.036-.245.741.741,0,0,0,.392-.651.793.793,0,0,0-.1-.406.915.915,0,0,0-.266-.287,1.821,1.821,0,0,0-.378-.2q-.21-.084-.469-.161t-.511-.147q-.378-.1-.742-.224a2.713,2.713,0,0,1-.658-.329A1.583,1.583,0,0,1,112.721-4a1.593,1.593,0,0,1-.182-.805,1.689,1.689,0,0,1,.294-.994,1.9,1.9,0,0,1,.826-.651,3.108,3.108,0,0,1,1.246-.231,3.686,3.686,0,0,1,.574.042,2.651,2.651,0,0,1,.511.133,3.871,3.871,0,0,1,.469.21,2.791,2.791,0,0,1,.434.287.506.506,0,0,1,.266.364.587.587,0,0,1-.154.406.558.558,0,0,1-.28.231.317.317,0,0,1-.308-.077,3.108,3.108,0,0,0-.476-.294,3.541,3.541,0,0,0-.518-.21,1.8,1.8,0,0,0-.546-.084,1.726,1.726,0,0,0-.623.105.9.9,0,0,0-.42.308.757.757,0,0,0-.147.455.543.543,0,0,0,.119.364,1,1,0,0,0,.308.238,2.565,2.565,0,0,0,.448.175q.259.077.539.147.406.1.833.231a3.228,3.228,0,0,1,.77.35,1.734,1.734,0,0,1,.56.574,1.8,1.8,0,0,1,.217.945,1.706,1.706,0,0,1-.728,1.456A3.2,3.2,0,0,1,114.821.21Z" transform="translate(164 459)"/>
    <path id="Trazado_119641" data-name="Trazado 119641" d="M-.567.154a1.366,1.366,0,0,1-.98-.28,1.39,1.39,0,0,1-.28-.994V-8.414a1.366,1.366,0,0,1,.28-.98,1.39,1.39,0,0,1,.994-.28,1.344,1.344,0,0,1,.98.287,1.418,1.418,0,0,1,.28,1v7.28a1.366,1.366,0,0,1-.28.98A1.39,1.39,0,0,1-.567.154Zm-1.4-5.88a1.3,1.3,0,0,1-.861.406,1.294,1.294,0,0,1-.833-.49A1.276,1.276,0,0,1-4.1-6.734a1.454,1.454,0,0,1,.588-.924l1.778-1.6a1.173,1.173,0,0,1,.861-.385,1.358,1.358,0,0,1,.833.511,1.213,1.213,0,0,1,.413.9,1.537,1.537,0,0,1-.6.931ZM2.653.14A1.474,1.474,0,0,1,1.61-.154a1.4,1.4,0,0,1-.3-1.022,2.013,2.013,0,0,1,.133-.812.829.829,0,0,1,.427-.427,1.97,1.97,0,0,1,.8-.133,1.424,1.424,0,0,1,1.036.3A1.5,1.5,0,0,1,4-1.19a2.023,2.023,0,0,1-.126.784.772.772,0,0,1-.42.42A2.068,2.068,0,0,1,2.653.14Z" transform="translate(49.629 458.958)" fill="#ff4d00"/>
    <path id="Trazado_119642" data-name="Trazado 119642" d="M1.47.154a1.2,1.2,0,0,1-.9-.392A1.271,1.271,0,0,1,.2-1.148a1.962,1.962,0,0,1,.063-.5,2.237,2.237,0,0,1,.175-.455,2.122,2.122,0,0,1,.266-.4,4.3,4.3,0,0,1,.9-.84Q2.128-3.724,2.7-4.06T3.78-4.732A3.6,3.6,0,0,0,4.6-5.46a1.353,1.353,0,0,0,.315-.868,1.337,1.337,0,0,0-.063-.357.779.779,0,0,0-.287-.392,1.164,1.164,0,0,0-.714-.175,1.468,1.468,0,0,0-.5.077.79.79,0,0,0-.336.224.963.963,0,0,0-.189.364,1.786,1.786,0,0,0-.063.5,2.815,2.815,0,0,1-.056.567.7.7,0,0,1-.322.448,1.739,1.739,0,0,1-.91.175,1.6,1.6,0,0,1-.9-.189.755.755,0,0,1-.322-.49A3.322,3.322,0,0,1,.2-6.188,3.6,3.6,0,0,1,.441-7.476a3.673,3.673,0,0,1,.721-1.169A3.673,3.673,0,0,1,2.31-9.492a3.489,3.489,0,0,1,1.526-.322,3.515,3.515,0,0,1,1.848.5A3.743,3.743,0,0,1,7-7.987a3.617,3.617,0,0,1,.49,1.869,3.328,3.328,0,0,1-.224,1.246,3.853,3.853,0,0,1-.581,1,4.665,4.665,0,0,1-.763.756,5.658,5.658,0,0,1-.784.518,5.957,5.957,0,0,1-.63.3,1.371,1.371,0,0,1-.308.1l.14-.224H6.552a3.287,3.287,0,0,1,.616.056.721.721,0,0,1,.476.329,1.722,1.722,0,0,1,.182.917,1.6,1.6,0,0,1-.189.889A.748.748,0,0,1,7.147.1a3.4,3.4,0,0,1-.623.056ZM9.464.14A1.474,1.474,0,0,1,8.421-.154a1.4,1.4,0,0,1-.3-1.022,2.013,2.013,0,0,1,.133-.812.829.829,0,0,1,.427-.427,1.97,1.97,0,0,1,.8-.133,1.424,1.424,0,0,1,1.036.3,1.5,1.5,0,0,1,.294,1.057,2.023,2.023,0,0,1-.126.784.772.772,0,0,1-.42.42A2.068,2.068,0,0,1,9.464.14Z" transform="translate(45 485)" fill="#ff4d00"/>
    <path id="Trazado_119643" data-name="Trazado 119643" d="M3.934.294A4.033,4.033,0,0,1,2.506.042a4.061,4.061,0,0,1-1.2-.693A3.291,3.291,0,0,1,.49-1.659,2.537,2.537,0,0,1,.2-2.842q0-.882,1.4-.882a1.927,1.927,0,0,1,.6.07.662.662,0,0,1,.329.245,2.312,2.312,0,0,1,.252.5l.091.175a1.045,1.045,0,0,0,.343.35,1.3,1.3,0,0,0,.742.175,1.87,1.87,0,0,0,.644-.1A.928.928,0,0,0,5-2.59a.649.649,0,0,0,.147-.42.736.736,0,0,0-.14-.462.8.8,0,0,0-.378-.266,1.684,1.684,0,0,0-.56-.084,4.252,4.252,0,0,1-.6-.042.712.712,0,0,1-.483-.294A1.525,1.525,0,0,1,2.8-5.04a1.521,1.521,0,0,1,.189-.889.7.7,0,0,1,.49-.28,5.268,5.268,0,0,1,.609-.035,2.636,2.636,0,0,0,.469-.035.532.532,0,0,0,.287-.133.379.379,0,0,0,.1-.28.6.6,0,0,0-.105-.357.65.65,0,0,0-.3-.224,1.261,1.261,0,0,0-.462-.077,1.379,1.379,0,0,0-.532.084.75.75,0,0,0-.3.217,1.948,1.948,0,0,0-.175.259,1.144,1.144,0,0,1-.707.707A1.45,1.45,0,0,1,1.3-6.3a1.307,1.307,0,0,1-.686-.77,1.512,1.512,0,0,1,.2-.966A.892.892,0,0,0,.889-8.2a2.2,2.2,0,0,1,.287-.441,3.278,3.278,0,0,1,.56-.539,2.98,2.98,0,0,1,.9-.455,4.135,4.135,0,0,1,1.3-.182,3.962,3.962,0,0,1,1.547.28,3.523,3.523,0,0,1,1.12.728,3.091,3.091,0,0,1,.686.987,2.7,2.7,0,0,1,.231,1.071,1.976,1.976,0,0,1-.175.875,1.772,1.772,0,0,1-.406.56,2.3,2.3,0,0,1-.385.287q.126.084.322.245a2.374,2.374,0,0,1,.385.413,2.565,2.565,0,0,1,.322.581,1.985,1.985,0,0,1,.133.749,3.062,3.062,0,0,1-.49,1.715A3.419,3.419,0,0,1,5.88-.14,4.236,4.236,0,0,1,3.934.294ZM9.45.14A1.474,1.474,0,0,1,8.407-.154a1.4,1.4,0,0,1-.3-1.022,2.013,2.013,0,0,1,.133-.812.829.829,0,0,1,.427-.427,1.97,1.97,0,0,1,.8-.133,1.424,1.424,0,0,1,1.036.3,1.5,1.5,0,0,1,.294,1.057,2.023,2.023,0,0,1-.126.784.772.772,0,0,1-.42.42A2.068,2.068,0,0,1,9.45.14Z" transform="translate(45.014 528.024)" fill="#ff4d00"/>
  </g>
</svg>
