<svg xmlns="http://www.w3.org/2000/svg" width="309.196" height="72.322" viewBox="0 0 309.196 72.322">
  <g id="Componente_76_1" data-name="Componente 76 – 1" transform="translate(7 7)">
    <path id="Trazado_112659" data-name="Trazado 112659" d="M-147.326.3a4.338,4.338,0,0,1-2.432-.513,2.048,2.048,0,0,1-.874-1.33,9.018,9.018,0,0,1-.152-1.653V-22.8a8.714,8.714,0,0,1,.152-1.634,2.041,2.041,0,0,1,.874-1.311,4.428,4.428,0,0,1,2.47-.513h7.562a9.415,9.415,0,0,1,3.116.589,10.657,10.657,0,0,1,3.173,1.8,9.506,9.506,0,0,1,2.451,3.04,9.263,9.263,0,0,1,.95,4.332,9.175,9.175,0,0,1-.95,4.294,9.3,9.3,0,0,1-2.451,3.021,10.874,10.874,0,0,1-3.173,1.786,9.508,9.508,0,0,1-3.154.589h-4.066v3.648a8.714,8.714,0,0,1-.152,1.634,2.041,2.041,0,0,1-.874,1.311A4.428,4.428,0,0,1-147.326.3Zm3.5-14.06h4.1a3.254,3.254,0,0,0,1.14-.247,2.716,2.716,0,0,0,1.14-.855,2.579,2.579,0,0,0,.494-1.672,2.7,2.7,0,0,0-.38-1.425,2.788,2.788,0,0,0-1.007-.988,2.8,2.8,0,0,0-1.425-.361h-4.066ZM-116.394.76a12.91,12.91,0,0,1-5.187-1.045,13.237,13.237,0,0,1-4.237-2.907,13.885,13.885,0,0,1-2.869-4.313,13.182,13.182,0,0,1-1.045-5.225,14.346,14.346,0,0,1,1.007-5.4,13.967,13.967,0,0,1,2.793-4.408,12.889,12.889,0,0,1,4.161-2.964,12.266,12.266,0,0,1,5.073-1.064,12.91,12.91,0,0,1,5.187,1.045,13.237,13.237,0,0,1,4.237,2.907,13.5,13.5,0,0,1,2.85,4.351,13.97,13.97,0,0,1,1.026,5.377A13.855,13.855,0,0,1-104.4-7.6a13.679,13.679,0,0,1-2.812,4.351A13.379,13.379,0,0,1-111.359-.3,12.007,12.007,0,0,1-116.394.76Zm-.19-6.954a5.858,5.858,0,0,0,2.432-.513,6.332,6.332,0,0,0,2-1.406,6.315,6.315,0,0,0,1.33-2.128,7.293,7.293,0,0,0,.475-2.641,6.9,6.9,0,0,0-.494-2.622,7.086,7.086,0,0,0-1.349-2.147,6.119,6.119,0,0,0-1.976-1.444,5.641,5.641,0,0,0-2.375-.513,5.729,5.729,0,0,0-2.413.513,6.119,6.119,0,0,0-1.976,1.444,7.086,7.086,0,0,0-1.349,2.147,6.9,6.9,0,0,0-.494,2.622,6.8,6.8,0,0,0,.494,2.584,7.086,7.086,0,0,0,1.349,2.147,6.119,6.119,0,0,0,1.976,1.444A5.641,5.641,0,0,0-116.584-6.194ZM-98.838.3a4.338,4.338,0,0,1-2.432-.513,2.048,2.048,0,0,1-.874-1.33,9.018,9.018,0,0,1-.152-1.653V-22.8a8.714,8.714,0,0,1,.152-1.634,2.041,2.041,0,0,1,.874-1.311,4.428,4.428,0,0,1,2.47-.513h7.638a9.415,9.415,0,0,1,3.116.589,10.416,10.416,0,0,1,3.154,1.8,9.626,9.626,0,0,1,2.432,3.04,9.263,9.263,0,0,1,.95,4.332,10.155,10.155,0,0,1-.513,3.268,8.752,8.752,0,0,1-1.52,2.755A10.561,10.561,0,0,1-85.975-8.3,12.088,12.088,0,0,1-89.224-6.84h-6.118v3.686a8.714,8.714,0,0,1-.152,1.634,2.041,2.041,0,0,1-.874,1.311A4.428,4.428,0,0,1-98.838.3Zm15.922-.912q-1.71,1.292-2.7,1.045A4.33,4.33,0,0,1-87.742-1.33l-6.992-9.5,7.9-.988,4.712,6.346a6.583,6.583,0,0,1,.969,1.862,1.765,1.765,0,0,1-.209,1.444A6.363,6.363,0,0,1-82.916-.608ZM-95.342-13.756h4.18a3.1,3.1,0,0,0,.817-.133,2.6,2.6,0,0,0,.893-.456,2.628,2.628,0,0,0,.7-.855,2.793,2.793,0,0,0,.285-1.33,2.7,2.7,0,0,0-.38-1.425,2.788,2.788,0,0,0-1.007-.988,2.73,2.73,0,0,0-1.387-.361h-4.1ZM-58.976.722A13.236,13.236,0,0,1-62.282.247a15.664,15.664,0,0,1-3.667-1.5,13.982,13.982,0,0,1-3.382-2.66A12.569,12.569,0,0,1-71.8-7.828a13.9,13.9,0,0,1-.931-5.282A13,13,0,0,1-71.8-18.2,12.5,12.5,0,0,1-69.35-22a13.329,13.329,0,0,1,3.363-2.584,16.441,16.441,0,0,1,3.705-1.463,13.921,13.921,0,0,1,3.42-.475,11.211,11.211,0,0,1,3.42.475,13.84,13.84,0,0,1,2.413.988q.931.513,1.159.665a12.049,12.049,0,0,1,1.425,1.083,2,2,0,0,1,.665,1.577,2.8,2.8,0,0,1-.209,1.026,4.941,4.941,0,0,1-.627,1.1,7.032,7.032,0,0,1-1.425,1.558,2.2,2.2,0,0,1-1.311.494,2.1,2.1,0,0,1-.95-.228,11.914,11.914,0,0,1-1.1-.646q-.266-.19-.684-.437a5.045,5.045,0,0,0-1.14-.456,7.035,7.035,0,0,0-1.9-.209,7.255,7.255,0,0,0-2.147.361,7.081,7.081,0,0,0-2.185,1.14,5.847,5.847,0,0,0-1.672,2.052,6.692,6.692,0,0,0-.646,3.059,6.5,6.5,0,0,0,.665,3.078,6.084,6.084,0,0,0,1.691,2.033,7.08,7.08,0,0,0,2.185,1.14,7.153,7.153,0,0,0,2.109.361,7,7,0,0,0,1.672-.171,5.111,5.111,0,0,0,1.235-.475q.551-.3,1.007-.608a5.375,5.375,0,0,1,.912-.532,2.34,2.34,0,0,1,.988-.228,2.036,2.036,0,0,1,1.292.532,7.325,7.325,0,0,1,1.368,1.634,6.461,6.461,0,0,1,.627,1.2,2.865,2.865,0,0,1,.209,1.007,1.9,1.9,0,0,1-.665,1.52,10.433,10.433,0,0,1-1.425,1.026q-.266.152-1.14.684A10.615,10.615,0,0,1-55.4.266,12.246,12.246,0,0,1-58.976.722Zm34.39-5.206a5.07,5.07,0,0,1,.608,1.938,1.923,1.923,0,0,1-.494,1.406A5.836,5.836,0,0,1-26.182.076a4.048,4.048,0,0,1-2.812.551Q-29.982.3-30.856-1.558l-6.46-13.224L-43.7-1.52A3.9,3.9,0,0,1-45.6.589,3.935,3.935,0,0,1-48.374.038,5.662,5.662,0,0,1-50.1-1.14a1.888,1.888,0,0,1-.513-1.406,5.07,5.07,0,0,1,.608-1.938l9.538-19.76a3.569,3.569,0,0,1,1.349-1.463,3.465,3.465,0,0,1,1.843-.551,3.258,3.258,0,0,1,1.273.247,3.7,3.7,0,0,1,1.083.7,3.521,3.521,0,0,1,.8,1.1ZM-43.32-5.168l2.888-5.928h6.27l2.888,5.928ZM-20.026.3A4.292,4.292,0,0,1-22.382-.19a2.126,2.126,0,0,1-.912-1.292,7.368,7.368,0,0,1-.19-1.71V-22.838a8.714,8.714,0,0,1,.152-1.634,2.041,2.041,0,0,1,.874-1.311,4.264,4.264,0,0,1,2.47-.475h6.536A12.789,12.789,0,0,1-8.36-25.232,13.731,13.731,0,0,1-4.123-22.4a13.224,13.224,0,0,1,2.888,4.2A12.589,12.589,0,0,1-.19-13.11,13.046,13.046,0,0,1-1.235-7.9,13.553,13.553,0,0,1-4.123-3.629,13.614,13.614,0,0,1-8.379-.741,12.91,12.91,0,0,1-13.566.3Zm3.5-6.954h3.078A6.079,6.079,0,0,0-10.3-7.505,6.5,6.5,0,0,0-8-9.785a6.049,6.049,0,0,0,.855-3.173A6.149,6.149,0,0,0-8-16.15a6.449,6.449,0,0,0-2.3-2.3A6.148,6.148,0,0,0-13.49-19.3h-3.04ZM23.9-4.484a5.07,5.07,0,0,1,.608,1.938,1.923,1.923,0,0,1-.494,1.406A5.836,5.836,0,0,1,22.306.076a4.048,4.048,0,0,1-2.812.551Q18.506.3,17.632-1.558l-6.46-13.224L4.788-1.52A3.9,3.9,0,0,1,2.888.589,3.935,3.935,0,0,1,.114.038,5.662,5.662,0,0,1-1.615-1.14a1.888,1.888,0,0,1-.513-1.406A5.07,5.07,0,0,1-1.52-4.484l9.538-19.76a3.569,3.569,0,0,1,1.349-1.463,3.465,3.465,0,0,1,1.843-.551,3.258,3.258,0,0,1,1.273.247,3.7,3.7,0,0,1,1.083.7,3.521,3.521,0,0,1,.8,1.1ZM5.168-5.168,8.056-11.1h6.27l2.888,5.928ZM46.4.722A13.236,13.236,0,0,1,43.092.247a15.665,15.665,0,0,1-3.667-1.5,13.982,13.982,0,0,1-3.382-2.66,12.569,12.569,0,0,1-2.47-3.914,13.9,13.9,0,0,1-.931-5.282,13,13,0,0,1,.931-5.092A12.5,12.5,0,0,1,36.024-22a13.329,13.329,0,0,1,3.363-2.584,16.441,16.441,0,0,1,3.705-1.463,13.921,13.921,0,0,1,3.42-.475,11.211,11.211,0,0,1,3.42.475,13.84,13.84,0,0,1,2.413.988q.931.513,1.159.665a12.049,12.049,0,0,1,1.425,1.083,2,2,0,0,1,.665,1.577,2.8,2.8,0,0,1-.209,1.026,4.941,4.941,0,0,1-.627,1.1,7.032,7.032,0,0,1-1.425,1.558,2.2,2.2,0,0,1-1.311.494,2.1,2.1,0,0,1-.95-.228,11.914,11.914,0,0,1-1.1-.646q-.266-.19-.684-.437a5.045,5.045,0,0,0-1.14-.456,7.035,7.035,0,0,0-1.9-.209,7.255,7.255,0,0,0-2.147.361,7.081,7.081,0,0,0-2.185,1.14,5.846,5.846,0,0,0-1.672,2.052A6.692,6.692,0,0,0,39.6-12.92a6.5,6.5,0,0,0,.665,3.078,6.084,6.084,0,0,0,1.691,2.033,7.08,7.08,0,0,0,2.185,1.14,7.153,7.153,0,0,0,2.109.361,7,7,0,0,0,1.672-.171,5.111,5.111,0,0,0,1.235-.475q.551-.3,1.007-.608a5.375,5.375,0,0,1,.912-.532,2.34,2.34,0,0,1,.988-.228,2.036,2.036,0,0,1,1.292.532A7.325,7.325,0,0,1,54.72-6.156a6.461,6.461,0,0,1,.627,1.2,2.865,2.865,0,0,1,.209,1.007,1.9,1.9,0,0,1-.665,1.52,10.433,10.433,0,0,1-1.425,1.026q-.266.152-1.14.684A10.615,10.615,0,0,1,49.97.266,12.246,12.246,0,0,1,46.4.722ZM68.1.76A10.668,10.668,0,0,1,63.023-.4a11.313,11.313,0,0,1-3.667-3.059,13.563,13.563,0,0,1-2.223-4.18,14.565,14.565,0,0,1-.741-4.522V-22.8a8.922,8.922,0,0,1,.152-1.672,2.041,2.041,0,0,1,.874-1.311,4.428,4.428,0,0,1,2.47-.513,4.428,4.428,0,0,1,2.47.513,2.041,2.041,0,0,1,.874,1.311,9.137,9.137,0,0,1,.152,1.71v10.6A8.967,8.967,0,0,0,63.8-9.538,5.207,5.207,0,0,0,65.265-7.2a4.17,4.17,0,0,0,2.945.969,4.278,4.278,0,0,0,2.508-.741,4.824,4.824,0,0,0,1.653-2.09A7.777,7.777,0,0,0,72.96-12.2V-22.99a7,7,0,0,1,.171-1.577,2.035,2.035,0,0,1,.893-1.235,4.475,4.475,0,0,1,2.432-.494,4.2,4.2,0,0,1,2.451.532,2.133,2.133,0,0,1,.855,1.33,8.922,8.922,0,0,1,.152,1.672v10.678a14.173,14.173,0,0,1-.76,4.541A13.479,13.479,0,0,1,76.893-3.4,11.345,11.345,0,0,1,73.188-.38,10.929,10.929,0,0,1,68.1.76Zm36.442-5.244a5.07,5.07,0,0,1,.608,1.938,1.923,1.923,0,0,1-.494,1.406,5.836,5.836,0,0,1-1.71,1.216,4.048,4.048,0,0,1-2.812.551Q99.142.3,98.268-1.558l-6.46-13.224L85.424-1.52a3.9,3.9,0,0,1-1.9,2.109A3.935,3.935,0,0,1,80.75.038,5.662,5.662,0,0,1,79.021-1.14a1.888,1.888,0,0,1-.513-1.406,5.07,5.07,0,0,1,.608-1.938l9.538-19.76A3.569,3.569,0,0,1,90-25.707a3.465,3.465,0,0,1,1.843-.551,3.258,3.258,0,0,1,1.273.247,3.7,3.7,0,0,1,1.083.7,3.521,3.521,0,0,1,.8,1.1ZM85.8-5.168,88.692-11.1h6.27L97.85-5.168ZM118.332-26.3a7.868,7.868,0,0,1,1.368.114,1.671,1.671,0,0,1,1.083.722,3.718,3.718,0,0,1,.437,2.09,3.73,3.73,0,0,1-.437,2.071,1.662,1.662,0,0,1-1.1.741,8.2,8.2,0,0,1-1.387.114H113.05v17.4a8.416,8.416,0,0,1-.152,1.615,1.984,1.984,0,0,1-.855,1.273,4.462,4.462,0,0,1-2.451.494A4.25,4.25,0,0,1,107.2-.171a1.959,1.959,0,0,1-.855-1.292,9.583,9.583,0,0,1-.133-1.615V-20.444h-5.282a6.862,6.862,0,0,1-1.349-.133,1.755,1.755,0,0,1-1.1-.741,3.718,3.718,0,0,1-.437-2.09,3.629,3.629,0,0,1,.437-2.052,1.687,1.687,0,0,1,1.121-.722,8.308,8.308,0,0,1,1.368-.114Zm7.6,26.638A4.338,4.338,0,0,1,123.5-.171a2.048,2.048,0,0,1-.874-1.33,9.018,9.018,0,0,1-.152-1.653V-22.8a3.7,3.7,0,0,1,.779-2.717,4.057,4.057,0,0,1,2.793-.741h13.908a8.623,8.623,0,0,1,1.653.152,2.034,2.034,0,0,1,1.292.874,4.428,4.428,0,0,1,.513,2.47,4.338,4.338,0,0,1-.513,2.432,2.041,2.041,0,0,1-1.311.874,8.922,8.922,0,0,1-1.672.152H129.428v3.382h7.03a8.215,8.215,0,0,1,1.558.133,1.692,1.692,0,0,1,1.1.741,3.95,3.95,0,0,1,.418,2.128,3.869,3.869,0,0,1-.418,2.071,1.626,1.626,0,0,1-1.14.741,10.274,10.274,0,0,1-1.6.114h-6.954v3.382h10.526a8.623,8.623,0,0,1,1.653.152,2.034,2.034,0,0,1,1.292.874,4.428,4.428,0,0,1,.513,2.47A4.338,4.338,0,0,1,142.9-.684a2.041,2.041,0,0,1-1.311.874,8.922,8.922,0,0,1-1.672.152ZM-93.537,24A3.637,3.637,0,0,1-91.713,26.1a3.913,3.913,0,0,1-.988,2.717,5.79,5.79,0,0,1-1.52,1.6,1.748,1.748,0,0,1-1.463.19,7.433,7.433,0,0,1-1.843-.912l-2.128-1.368a12.936,12.936,0,0,1-3.42,1.786,11.856,11.856,0,0,1-3.914.646,12.91,12.91,0,0,1-5.187-1.045,13.237,13.237,0,0,1-4.237-2.907,13.884,13.884,0,0,1-2.869-4.313,13.182,13.182,0,0,1-1.045-5.225,14.346,14.346,0,0,1,1.007-5.4,13.967,13.967,0,0,1,2.793-4.408A12.889,12.889,0,0,1-112.366,4.5a12.266,12.266,0,0,1,5.073-1.064,12.91,12.91,0,0,1,5.187,1.045A13.237,13.237,0,0,1-97.869,7.39a13.5,13.5,0,0,1,2.85,4.351,13.97,13.97,0,0,1,1.026,5.377,13.537,13.537,0,0,1-.323,2.964,14.007,14.007,0,0,1-.931,2.774Zm-13.642-.19a5.858,5.858,0,0,0,2.432-.513,6.332,6.332,0,0,0,2-1.406,6.315,6.315,0,0,0,1.33-2.128,7.293,7.293,0,0,0,.475-2.641,6.9,6.9,0,0,0-.494-2.622,7.086,7.086,0,0,0-1.349-2.147,6.119,6.119,0,0,0-1.976-1.444,5.641,5.641,0,0,0-2.375-.513,5.858,5.858,0,0,0-2.432.513,6.06,6.06,0,0,0-2,1.444A6.8,6.8,0,0,0-112.9,14.5a7.143,7.143,0,0,0-.475,2.622,6.9,6.9,0,0,0,.494,2.622,6.844,6.844,0,0,0,1.349,2.128,6.252,6.252,0,0,0,1.976,1.425A5.641,5.641,0,0,0-107.179,23.806Zm26.524,6.954A10.668,10.668,0,0,1-85.728,29.6,11.313,11.313,0,0,1-89.4,26.542a13.563,13.563,0,0,1-2.223-4.18,14.566,14.566,0,0,1-.741-4.522V7.2a8.922,8.922,0,0,1,.152-1.672,2.041,2.041,0,0,1,.874-1.311,4.428,4.428,0,0,1,2.47-.513,4.428,4.428,0,0,1,2.47.513,2.041,2.041,0,0,1,.874,1.311,9.137,9.137,0,0,1,.152,1.71v10.6a8.967,8.967,0,0,0,.418,2.622A5.207,5.207,0,0,0-83.486,22.8a4.17,4.17,0,0,0,2.945.969,4.278,4.278,0,0,0,2.508-.741,4.824,4.824,0,0,0,1.653-2.09,7.777,7.777,0,0,0,.589-3.135V7.01a7,7,0,0,1,.171-1.577A2.035,2.035,0,0,1-74.727,4.2,4.475,4.475,0,0,1-72.3,3.7a4.2,4.2,0,0,1,2.451.532,2.133,2.133,0,0,1,.855,1.33,8.922,8.922,0,0,1,.152,1.672V17.916a14.173,14.173,0,0,1-.76,4.541A13.479,13.479,0,0,1-71.858,26.6a11.345,11.345,0,0,1-3.705,3.021A10.929,10.929,0,0,1-80.655,30.76Zm17.024-.418a4.338,4.338,0,0,1-2.432-.513,2.048,2.048,0,0,1-.874-1.33,9.018,9.018,0,0,1-.152-1.653V7.2a3.7,3.7,0,0,1,.779-2.717,4.057,4.057,0,0,1,2.793-.741h13.908a8.623,8.623,0,0,1,1.653.152,2.034,2.034,0,0,1,1.292.874,4.428,4.428,0,0,1,.513,2.47,4.338,4.338,0,0,1-.513,2.432,2.041,2.041,0,0,1-1.311.874,8.922,8.922,0,0,1-1.672.152H-60.135v3.382h7.03a8.215,8.215,0,0,1,1.558.133,1.692,1.692,0,0,1,1.1.741,3.95,3.95,0,0,1,.418,2.128,3.869,3.869,0,0,1-.418,2.071,1.626,1.626,0,0,1-1.14.741,10.274,10.274,0,0,1-1.6.114h-6.954v3.382h10.526a8.623,8.623,0,0,1,1.653.152,2.034,2.034,0,0,1,1.292.874,4.428,4.428,0,0,1,.513,2.47,4.338,4.338,0,0,1-.513,2.432,2.041,2.041,0,0,1-1.311.874,8.922,8.922,0,0,1-1.672.152ZM-17.347,3.7a7.868,7.868,0,0,1,1.368.114A1.671,1.671,0,0,1-14.9,4.54a3.718,3.718,0,0,1,.437,2.09A3.73,3.73,0,0,1-14.9,8.7a1.662,1.662,0,0,1-1.1.741,8.2,8.2,0,0,1-1.387.114h-5.244v17.4a8.416,8.416,0,0,1-.152,1.615,1.984,1.984,0,0,1-.855,1.273l-.818.327-.789.133a7.514,7.514,0,0,1-.845.034,4.25,4.25,0,0,1-2.394-.513,1.959,1.959,0,0,1-.855-1.292,9.583,9.583,0,0,1-.133-1.615V9.556h-5.282A6.862,6.862,0,0,1-36.1,9.423a1.755,1.755,0,0,1-1.1-.741,3.718,3.718,0,0,1-.437-2.09A3.629,3.629,0,0,1-37.2,4.54a1.687,1.687,0,0,1,1.121-.722A8.308,8.308,0,0,1-34.713,3.7Zm7.486,26.6a4.338,4.338,0,0,1-2.432-.513,2.048,2.048,0,0,1-.874-1.33,9.018,9.018,0,0,1-.152-1.653V7.2a8.714,8.714,0,0,1,.152-1.634,2.041,2.041,0,0,1,.874-1.311,4.428,4.428,0,0,1,2.47-.513h7.638a9.415,9.415,0,0,1,3.116.589,10.416,10.416,0,0,1,3.154,1.8,9.626,9.626,0,0,1,2.432,3.04,9.263,9.263,0,0,1,.95,4.332,10.155,10.155,0,0,1-.513,3.268,8.753,8.753,0,0,1-1.52,2.755A10.561,10.561,0,0,1,3,21.7,12.088,12.088,0,0,1-.247,23.16H-6.365v3.686a8.714,8.714,0,0,1-.152,1.634,2.041,2.041,0,0,1-.874,1.311A4.428,4.428,0,0,1-9.861,30.3Zm15.922-.912q-1.71,1.292-2.7,1.045A4.33,4.33,0,0,1,1.235,28.67l-6.992-9.5,7.9-.988,4.712,6.346a6.583,6.583,0,0,1,.969,1.862,1.765,1.765,0,0,1-.209,1.444A6.364,6.364,0,0,1,6.061,29.392ZM-6.365,16.244h4.18a3.1,3.1,0,0,0,.817-.133,2.6,2.6,0,0,0,.893-.456,2.628,2.628,0,0,0,.7-.855,2.794,2.794,0,0,0,.285-1.33,2.7,2.7,0,0,0-.38-1.425,2.788,2.788,0,0,0-1.007-.988A2.73,2.73,0,0,0-2.261,10.7h-4.1Zm38.988,9.272a5.07,5.07,0,0,1,.608,1.938,1.923,1.923,0,0,1-.494,1.406,5.836,5.836,0,0,1-1.71,1.216,4.048,4.048,0,0,1-2.812.551q-.988-.323-1.862-2.185l-6.46-13.224L13.509,28.48a3.9,3.9,0,0,1-1.9,2.109,3.935,3.935,0,0,1-2.774-.551A5.662,5.662,0,0,1,7.106,28.86a1.888,1.888,0,0,1-.513-1.406A5.07,5.07,0,0,1,7.2,25.516l9.538-19.76a3.569,3.569,0,0,1,1.349-1.463,3.465,3.465,0,0,1,1.843-.551,3.258,3.258,0,0,1,1.273.247,3.7,3.7,0,0,1,1.083.7,3.521,3.521,0,0,1,.8,1.1Zm-18.734-.684L16.777,18.9h6.27l2.888,5.928Zm23.294,5.51a4.338,4.338,0,0,1-2.432-.513,2.048,2.048,0,0,1-.874-1.33,9.018,9.018,0,0,1-.152-1.653V7.2a8.714,8.714,0,0,1,.152-1.634,2.041,2.041,0,0,1,.874-1.311,4.428,4.428,0,0,1,2.47-.513,4.326,4.326,0,0,1,2.451.513,2.061,2.061,0,0,1,.855,1.311,8.923,8.923,0,0,1,.152,1.672V26.884a8.714,8.714,0,0,1-.152,1.634,2.041,2.041,0,0,1-.874,1.311A4.428,4.428,0,0,1,37.183,30.342Zm18.506.38a12.248,12.248,0,0,1-5.149-1.1,13.875,13.875,0,0,1-4.275-3.04,14.207,14.207,0,0,1-3.952-9.918,12.712,12.712,0,0,1,1.064-5.187,13.569,13.569,0,0,1,2.945-4.256,13.889,13.889,0,0,1,4.351-2.888,13.415,13.415,0,0,1,5.282-1.045,16.44,16.44,0,0,1,2.622.228,15.982,15.982,0,0,1,2.755.7,9.812,9.812,0,0,1,2.337,1.159,12.153,12.153,0,0,1,1.463,1.14,1.974,1.974,0,0,1,.665,1.52,2.523,2.523,0,0,1-.228.988,6.707,6.707,0,0,1-.646,1.14A5.519,5.519,0,0,1,63.479,11.7a2.513,2.513,0,0,1-1.368.475,1.973,1.973,0,0,1-.855-.209q-.437-.209-1.2-.665a5.054,5.054,0,0,0-.874-.4,12.037,12.037,0,0,0-1.539-.456,8.232,8.232,0,0,0-1.881-.209,6.429,6.429,0,0,0-6.5,6.5,6.749,6.749,0,0,0,.912,3.439,7.38,7.38,0,0,0,2.413,2.546,5.877,5.877,0,0,0,3.249.969q.684,0,1.349-.038A11.22,11.22,0,0,0,58.5,23.5a6.177,6.177,0,0,0,1.14-.3V19.93H56.829a6.035,6.035,0,0,1-1.292-.133,1.538,1.538,0,0,1-.988-.741,4.178,4.178,0,0,1-.38-2.09,3.856,3.856,0,0,1,.418-2.09,1.605,1.605,0,0,1,1.064-.722,7.421,7.421,0,0,1,1.292-.114h6.65a3.5,3.5,0,0,1,2.128.551,2.078,2.078,0,0,1,.741,1.235,8.381,8.381,0,0,1,.133,1.52v7.79a3.5,3.5,0,0,1-.912,2.185,7.573,7.573,0,0,1-2.47,1.919,10.782,10.782,0,0,1-2.128.817,18.225,18.225,0,0,1-2.527.494A22.84,22.84,0,0,1,55.689,30.722Zm36.936-5.206a5.07,5.07,0,0,1,.608,1.938,1.923,1.923,0,0,1-.494,1.406,5.836,5.836,0,0,1-1.71,1.216,4.048,4.048,0,0,1-2.812.551q-.988-.323-1.862-2.185L79.9,15.218,73.511,28.48a3.9,3.9,0,0,1-1.9,2.109,3.935,3.935,0,0,1-2.774-.551,5.662,5.662,0,0,1-1.729-1.178,1.888,1.888,0,0,1-.513-1.406,5.07,5.07,0,0,1,.608-1.938l9.538-19.76A3.569,3.569,0,0,1,78.09,4.293a3.465,3.465,0,0,1,1.843-.551,3.258,3.258,0,0,1,1.273.247,3.7,3.7,0,0,1,1.083.7,3.521,3.521,0,0,1,.8,1.1Zm-18.734-.684L76.779,18.9h6.27l2.888,5.928Zm29.07,5.89a11.889,11.889,0,0,1-3.933-.57A9.691,9.691,0,0,1,96.387,28.8a9.4,9.4,0,0,1-1.558-1.425q-.532-.646-.646-.8a4.441,4.441,0,0,1-.931-1.71,2.164,2.164,0,0,1,.228-1.52,6.884,6.884,0,0,1,1.349-1.672,3.047,3.047,0,0,1,1.71-.931,2.7,2.7,0,0,1,1.653.361,6,6,0,0,1,1.577,1.33,6.684,6.684,0,0,0,1.558,1.387,2.986,2.986,0,0,0,1.482.361,4.753,4.753,0,0,0,1.672-.247,1.806,1.806,0,0,0,.95-.76,2.542,2.542,0,0,0,.3-1.311,1.111,1.111,0,0,0-.646-1.007,7.1,7.1,0,0,0-1.691-.627q-1.045-.266-2.337-.589a17.182,17.182,0,0,1-2.546-.855,9.107,9.107,0,0,1-1.482-.76,8.935,8.935,0,0,1-1.349-1.045A5.766,5.766,0,0,1,94.6,15.579a7.239,7.239,0,0,1-.7-1.843,9.932,9.932,0,0,1-.247-2.318A7.558,7.558,0,0,1,94.81,7.276,8.2,8.2,0,0,1,98,4.388a9.807,9.807,0,0,1,4.617-1.064,14.516,14.516,0,0,1,3.192.3A10.241,10.241,0,0,1,108,4.35a7.419,7.419,0,0,1,1.311.779q.456.361.57.475a3.764,3.764,0,0,1,1.368,1.957,3.835,3.835,0,0,1-.912,2.337,3.952,3.952,0,0,1-2.242,1.843,3.6,3.6,0,0,1-2.546-.7,7.266,7.266,0,0,1-.608-.513,2.64,2.64,0,0,0-.817-.494,4.3,4.3,0,0,0-1.539-.209,2.288,2.288,0,0,0-.76.133,2.227,2.227,0,0,0-.646.342,1.712,1.712,0,0,0-.437.513,1.3,1.3,0,0,0-.171.646,1.432,1.432,0,0,0,.608,1.235,4.432,4.432,0,0,0,1.615.665q1.007.228,2.223.456a23.37,23.37,0,0,1,2.47.608,11.44,11.44,0,0,1,1.976.874,6.194,6.194,0,0,1,1.672,1.368,6.392,6.392,0,0,1,1.159,2.071,9.118,9.118,0,0,1,.437,3.021c0,.329-.013.649-.068,1.271a7.527,7.527,0,0,1-.882,2.928,8.018,8.018,0,0,1-2.451,2.774,10.554,10.554,0,0,1-3.192,1.52A11.762,11.762,0,0,1,102.961,30.722Z" transform="translate(151.284 27.062)" fill="#fff" stroke="#fff" stroke-width="15"/>
    <g id="Grupo_35845" data-name="Grupo 35845" transform="translate(0)">
      <g id="Grupo_35831" data-name="Grupo 35831" transform="translate(-36 -162)">
        <path id="Trazado_112658" data-name="Trazado 112658" d="M-147.326.3a4.338,4.338,0,0,1-2.432-.513,2.048,2.048,0,0,1-.874-1.33,9.018,9.018,0,0,1-.152-1.653V-22.8a8.714,8.714,0,0,1,.152-1.634,2.041,2.041,0,0,1,.874-1.311,4.428,4.428,0,0,1,2.47-.513h7.562a9.415,9.415,0,0,1,3.116.589,10.657,10.657,0,0,1,3.173,1.8,9.506,9.506,0,0,1,2.451,3.04,9.263,9.263,0,0,1,.95,4.332,9.175,9.175,0,0,1-.95,4.294,9.3,9.3,0,0,1-2.451,3.021,10.874,10.874,0,0,1-3.173,1.786,9.508,9.508,0,0,1-3.154.589h-4.066v3.648a8.714,8.714,0,0,1-.152,1.634,2.041,2.041,0,0,1-.874,1.311A4.428,4.428,0,0,1-147.326.3Zm3.5-14.06h4.1a3.254,3.254,0,0,0,1.14-.247,2.716,2.716,0,0,0,1.14-.855,2.579,2.579,0,0,0,.494-1.672,2.7,2.7,0,0,0-.38-1.425,2.788,2.788,0,0,0-1.007-.988,2.8,2.8,0,0,0-1.425-.361h-4.066ZM-116.394.76a12.91,12.91,0,0,1-5.187-1.045,13.237,13.237,0,0,1-4.237-2.907,13.885,13.885,0,0,1-2.869-4.313,13.182,13.182,0,0,1-1.045-5.225,14.346,14.346,0,0,1,1.007-5.4,13.967,13.967,0,0,1,2.793-4.408,12.889,12.889,0,0,1,4.161-2.964,12.266,12.266,0,0,1,5.073-1.064,12.91,12.91,0,0,1,5.187,1.045,13.237,13.237,0,0,1,4.237,2.907,13.5,13.5,0,0,1,2.85,4.351,13.97,13.97,0,0,1,1.026,5.377A13.855,13.855,0,0,1-104.4-7.6a13.679,13.679,0,0,1-2.812,4.351A13.379,13.379,0,0,1-111.359-.3,12.007,12.007,0,0,1-116.394.76Zm-.19-6.954a5.858,5.858,0,0,0,2.432-.513,6.332,6.332,0,0,0,2-1.406,6.315,6.315,0,0,0,1.33-2.128,7.293,7.293,0,0,0,.475-2.641,6.9,6.9,0,0,0-.494-2.622,7.086,7.086,0,0,0-1.349-2.147,6.119,6.119,0,0,0-1.976-1.444,5.641,5.641,0,0,0-2.375-.513,5.729,5.729,0,0,0-2.413.513,6.119,6.119,0,0,0-1.976,1.444,7.086,7.086,0,0,0-1.349,2.147,6.9,6.9,0,0,0-.494,2.622,6.8,6.8,0,0,0,.494,2.584,7.086,7.086,0,0,0,1.349,2.147,6.119,6.119,0,0,0,1.976,1.444A5.641,5.641,0,0,0-116.584-6.194ZM-98.838.3a4.338,4.338,0,0,1-2.432-.513,2.048,2.048,0,0,1-.874-1.33,9.018,9.018,0,0,1-.152-1.653V-22.8a8.714,8.714,0,0,1,.152-1.634,2.041,2.041,0,0,1,.874-1.311,4.428,4.428,0,0,1,2.47-.513h7.638a9.415,9.415,0,0,1,3.116.589,10.416,10.416,0,0,1,3.154,1.8,9.626,9.626,0,0,1,2.432,3.04,9.263,9.263,0,0,1,.95,4.332,10.155,10.155,0,0,1-.513,3.268,8.752,8.752,0,0,1-1.52,2.755A10.561,10.561,0,0,1-85.975-8.3,12.088,12.088,0,0,1-89.224-6.84h-6.118v3.686a8.714,8.714,0,0,1-.152,1.634,2.041,2.041,0,0,1-.874,1.311A4.428,4.428,0,0,1-98.838.3Zm15.922-.912q-1.71,1.292-2.7,1.045A4.33,4.33,0,0,1-87.742-1.33l-6.992-9.5,7.9-.988,4.712,6.346a6.583,6.583,0,0,1,.969,1.862,1.765,1.765,0,0,1-.209,1.444A6.363,6.363,0,0,1-82.916-.608ZM-95.342-13.756h4.18a3.1,3.1,0,0,0,.817-.133,2.6,2.6,0,0,0,.893-.456,2.628,2.628,0,0,0,.7-.855,2.793,2.793,0,0,0,.285-1.33,2.7,2.7,0,0,0-.38-1.425,2.788,2.788,0,0,0-1.007-.988,2.73,2.73,0,0,0-1.387-.361h-4.1ZM-58.976.722A13.236,13.236,0,0,1-62.282.247a15.664,15.664,0,0,1-3.667-1.5,13.982,13.982,0,0,1-3.382-2.66A12.569,12.569,0,0,1-71.8-7.828a13.9,13.9,0,0,1-.931-5.282A13,13,0,0,1-71.8-18.2,12.5,12.5,0,0,1-69.35-22a13.329,13.329,0,0,1,3.363-2.584,16.441,16.441,0,0,1,3.705-1.463,13.921,13.921,0,0,1,3.42-.475,11.211,11.211,0,0,1,3.42.475,13.84,13.84,0,0,1,2.413.988q.931.513,1.159.665a12.049,12.049,0,0,1,1.425,1.083,2,2,0,0,1,.665,1.577,2.8,2.8,0,0,1-.209,1.026,4.941,4.941,0,0,1-.627,1.1,7.032,7.032,0,0,1-1.425,1.558,2.2,2.2,0,0,1-1.311.494,2.1,2.1,0,0,1-.95-.228,11.914,11.914,0,0,1-1.1-.646q-.266-.19-.684-.437a5.045,5.045,0,0,0-1.14-.456,7.035,7.035,0,0,0-1.9-.209,7.255,7.255,0,0,0-2.147.361,7.081,7.081,0,0,0-2.185,1.14,5.847,5.847,0,0,0-1.672,2.052,6.692,6.692,0,0,0-.646,3.059,6.5,6.5,0,0,0,.665,3.078,6.084,6.084,0,0,0,1.691,2.033,7.08,7.08,0,0,0,2.185,1.14,7.153,7.153,0,0,0,2.109.361,7,7,0,0,0,1.672-.171,5.111,5.111,0,0,0,1.235-.475q.551-.3,1.007-.608a5.375,5.375,0,0,1,.912-.532,2.34,2.34,0,0,1,.988-.228,2.036,2.036,0,0,1,1.292.532,7.325,7.325,0,0,1,1.368,1.634,6.461,6.461,0,0,1,.627,1.2,2.865,2.865,0,0,1,.209,1.007,1.9,1.9,0,0,1-.665,1.52,10.433,10.433,0,0,1-1.425,1.026q-.266.152-1.14.684A10.615,10.615,0,0,1-55.4.266,12.246,12.246,0,0,1-58.976.722Zm34.39-5.206a5.07,5.07,0,0,1,.608,1.938,1.923,1.923,0,0,1-.494,1.406A5.836,5.836,0,0,1-26.182.076a4.048,4.048,0,0,1-2.812.551Q-29.982.3-30.856-1.558l-6.46-13.224L-43.7-1.52A3.9,3.9,0,0,1-45.6.589,3.935,3.935,0,0,1-48.374.038,5.662,5.662,0,0,1-50.1-1.14a1.888,1.888,0,0,1-.513-1.406,5.07,5.07,0,0,1,.608-1.938l9.538-19.76a3.569,3.569,0,0,1,1.349-1.463,3.465,3.465,0,0,1,1.843-.551,3.258,3.258,0,0,1,1.273.247,3.7,3.7,0,0,1,1.083.7,3.521,3.521,0,0,1,.8,1.1ZM-43.32-5.168l2.888-5.928h6.27l2.888,5.928ZM-20.026.3A4.292,4.292,0,0,1-22.382-.19a2.126,2.126,0,0,1-.912-1.292,7.368,7.368,0,0,1-.19-1.71V-22.838a8.714,8.714,0,0,1,.152-1.634,2.041,2.041,0,0,1,.874-1.311,4.264,4.264,0,0,1,2.47-.475h6.536A12.789,12.789,0,0,1-8.36-25.232,13.731,13.731,0,0,1-4.123-22.4a13.224,13.224,0,0,1,2.888,4.2A12.589,12.589,0,0,1-.19-13.11,13.046,13.046,0,0,1-1.235-7.9,13.553,13.553,0,0,1-4.123-3.629,13.614,13.614,0,0,1-8.379-.741,12.91,12.91,0,0,1-13.566.3Zm3.5-6.954h3.078A6.079,6.079,0,0,0-10.3-7.505,6.5,6.5,0,0,0-8-9.785a6.049,6.049,0,0,0,.855-3.173A6.149,6.149,0,0,0-8-16.15a6.449,6.449,0,0,0-2.3-2.3A6.148,6.148,0,0,0-13.49-19.3h-3.04ZM23.9-4.484a5.07,5.07,0,0,1,.608,1.938,1.923,1.923,0,0,1-.494,1.406A5.836,5.836,0,0,1,22.306.076a4.048,4.048,0,0,1-2.812.551Q18.506.3,17.632-1.558l-6.46-13.224L4.788-1.52A3.9,3.9,0,0,1,2.888.589,3.935,3.935,0,0,1,.114.038,5.662,5.662,0,0,1-1.615-1.14a1.888,1.888,0,0,1-.513-1.406A5.07,5.07,0,0,1-1.52-4.484l9.538-19.76a3.569,3.569,0,0,1,1.349-1.463,3.465,3.465,0,0,1,1.843-.551,3.258,3.258,0,0,1,1.273.247,3.7,3.7,0,0,1,1.083.7,3.521,3.521,0,0,1,.8,1.1ZM5.168-5.168,8.056-11.1h6.27l2.888,5.928ZM46.4.722A13.236,13.236,0,0,1,43.092.247a15.665,15.665,0,0,1-3.667-1.5,13.982,13.982,0,0,1-3.382-2.66,12.569,12.569,0,0,1-2.47-3.914,13.9,13.9,0,0,1-.931-5.282,13,13,0,0,1,.931-5.092A12.5,12.5,0,0,1,36.024-22a13.329,13.329,0,0,1,3.363-2.584,16.441,16.441,0,0,1,3.705-1.463,13.921,13.921,0,0,1,3.42-.475,11.211,11.211,0,0,1,3.42.475,13.84,13.84,0,0,1,2.413.988q.931.513,1.159.665a12.049,12.049,0,0,1,1.425,1.083,2,2,0,0,1,.665,1.577,2.8,2.8,0,0,1-.209,1.026,4.941,4.941,0,0,1-.627,1.1,7.032,7.032,0,0,1-1.425,1.558,2.2,2.2,0,0,1-1.311.494,2.1,2.1,0,0,1-.95-.228,11.914,11.914,0,0,1-1.1-.646q-.266-.19-.684-.437a5.045,5.045,0,0,0-1.14-.456,7.035,7.035,0,0,0-1.9-.209,7.255,7.255,0,0,0-2.147.361,7.081,7.081,0,0,0-2.185,1.14,5.846,5.846,0,0,0-1.672,2.052A6.692,6.692,0,0,0,39.6-12.92a6.5,6.5,0,0,0,.665,3.078,6.084,6.084,0,0,0,1.691,2.033,7.08,7.08,0,0,0,2.185,1.14,7.153,7.153,0,0,0,2.109.361,7,7,0,0,0,1.672-.171,5.111,5.111,0,0,0,1.235-.475q.551-.3,1.007-.608a5.375,5.375,0,0,1,.912-.532,2.34,2.34,0,0,1,.988-.228,2.036,2.036,0,0,1,1.292.532A7.325,7.325,0,0,1,54.72-6.156a6.461,6.461,0,0,1,.627,1.2,2.865,2.865,0,0,1,.209,1.007,1.9,1.9,0,0,1-.665,1.52,10.433,10.433,0,0,1-1.425,1.026q-.266.152-1.14.684A10.615,10.615,0,0,1,49.97.266,12.246,12.246,0,0,1,46.4.722ZM68.1.76A10.668,10.668,0,0,1,63.023-.4a11.313,11.313,0,0,1-3.667-3.059,13.563,13.563,0,0,1-2.223-4.18,14.565,14.565,0,0,1-.741-4.522V-22.8a8.922,8.922,0,0,1,.152-1.672,2.041,2.041,0,0,1,.874-1.311,4.428,4.428,0,0,1,2.47-.513,4.428,4.428,0,0,1,2.47.513,2.041,2.041,0,0,1,.874,1.311,9.137,9.137,0,0,1,.152,1.71v10.6A8.967,8.967,0,0,0,63.8-9.538,5.207,5.207,0,0,0,65.265-7.2a4.17,4.17,0,0,0,2.945.969,4.278,4.278,0,0,0,2.508-.741,4.824,4.824,0,0,0,1.653-2.09A7.777,7.777,0,0,0,72.96-12.2V-22.99a7,7,0,0,1,.171-1.577,2.035,2.035,0,0,1,.893-1.235,4.475,4.475,0,0,1,2.432-.494,4.2,4.2,0,0,1,2.451.532,2.133,2.133,0,0,1,.855,1.33,8.922,8.922,0,0,1,.152,1.672v10.678a14.173,14.173,0,0,1-.76,4.541A13.479,13.479,0,0,1,76.893-3.4,11.345,11.345,0,0,1,73.188-.38,10.929,10.929,0,0,1,68.1.76Zm36.442-5.244a5.07,5.07,0,0,1,.608,1.938,1.923,1.923,0,0,1-.494,1.406,5.836,5.836,0,0,1-1.71,1.216,4.048,4.048,0,0,1-2.812.551Q99.142.3,98.268-1.558l-2.8-5.728-3.662-7.5L85.424-1.52a3.9,3.9,0,0,1-1.9,2.109A3.935,3.935,0,0,1,80.75.038,5.662,5.662,0,0,1,79.021-1.14a1.888,1.888,0,0,1-.513-1.406,5.07,5.07,0,0,1,.608-1.938l9.538-19.76A3.569,3.569,0,0,1,90-25.707a3.465,3.465,0,0,1,1.843-.551,3.258,3.258,0,0,1,1.273.247,3.7,3.7,0,0,1,1.083.7,3.521,3.521,0,0,1,.8,1.1ZM85.8-5.168,88.692-11.1h6.27L97.85-5.168ZM118.332-26.3a7.868,7.868,0,0,1,1.368.114,1.671,1.671,0,0,1,1.083.722,3.718,3.718,0,0,1,.437,2.09,3.73,3.73,0,0,1-.437,2.071,1.662,1.662,0,0,1-1.1.741,8.2,8.2,0,0,1-1.387.114H113.05v17.4a8.416,8.416,0,0,1-.152,1.615,1.984,1.984,0,0,1-.855,1.273,4.462,4.462,0,0,1-2.451.494A4.25,4.25,0,0,1,107.2-.171a1.959,1.959,0,0,1-.855-1.292,9.583,9.583,0,0,1-.133-1.615V-20.444h-5.282a6.862,6.862,0,0,1-1.349-.133,1.755,1.755,0,0,1-1.1-.741,3.718,3.718,0,0,1-.437-2.09,3.629,3.629,0,0,1,.437-2.052,1.687,1.687,0,0,1,1.121-.722,8.308,8.308,0,0,1,1.368-.114Zm7.6,26.638A4.338,4.338,0,0,1,123.5-.171a2.048,2.048,0,0,1-.874-1.33,9.018,9.018,0,0,1-.152-1.653V-22.8a3.7,3.7,0,0,1,.779-2.717,4.057,4.057,0,0,1,2.793-.741h13.908a8.623,8.623,0,0,1,1.653.152,2.034,2.034,0,0,1,1.292.874,4.428,4.428,0,0,1,.513,2.47,4.338,4.338,0,0,1-.513,2.432,2.041,2.041,0,0,1-1.311.874,8.922,8.922,0,0,1-1.672.152H129.428v3.382h7.03a8.215,8.215,0,0,1,1.558.133,1.692,1.692,0,0,1,1.1.741,3.95,3.95,0,0,1,.418,2.128,3.869,3.869,0,0,1-.418,2.071,1.626,1.626,0,0,1-1.14.741,10.274,10.274,0,0,1-1.6.114h-6.954v3.382h10.526a8.623,8.623,0,0,1,1.653.152,2.034,2.034,0,0,1,1.292.874,4.428,4.428,0,0,1,.513,2.47A4.338,4.338,0,0,1,142.9-.684a2.041,2.041,0,0,1-1.311.874,8.922,8.922,0,0,1-1.672.152ZM-93.537,24A3.637,3.637,0,0,1-91.713,26.1a3.913,3.913,0,0,1-.988,2.717,5.79,5.79,0,0,1-1.52,1.6,1.748,1.748,0,0,1-1.463.19,7.433,7.433,0,0,1-1.843-.912l-2.128-1.368a12.936,12.936,0,0,1-3.42,1.786,11.856,11.856,0,0,1-3.914.646,12.91,12.91,0,0,1-5.187-1.045,13.237,13.237,0,0,1-4.237-2.907,13.884,13.884,0,0,1-2.869-4.313,13.182,13.182,0,0,1-1.045-5.225,14.346,14.346,0,0,1,1.007-5.4,13.967,13.967,0,0,1,2.793-4.408A12.889,12.889,0,0,1-112.366,4.5a12.266,12.266,0,0,1,5.073-1.064,12.91,12.91,0,0,1,5.187,1.045A13.237,13.237,0,0,1-97.869,7.39a13.5,13.5,0,0,1,2.85,4.351,13.97,13.97,0,0,1,1.026,5.377,13.537,13.537,0,0,1-.323,2.964,14.007,14.007,0,0,1-.931,2.774Zm-13.642-.19a5.858,5.858,0,0,0,2.432-.513,6.332,6.332,0,0,0,2-1.406,6.315,6.315,0,0,0,1.33-2.128,7.293,7.293,0,0,0,.475-2.641,6.9,6.9,0,0,0-.494-2.622,7.086,7.086,0,0,0-1.349-2.147,6.119,6.119,0,0,0-1.976-1.444,5.641,5.641,0,0,0-2.375-.513,5.858,5.858,0,0,0-2.432.513,6.06,6.06,0,0,0-2,1.444A6.8,6.8,0,0,0-112.9,14.5a7.143,7.143,0,0,0-.475,2.622,6.9,6.9,0,0,0,.494,2.622,6.844,6.844,0,0,0,1.349,2.128,6.252,6.252,0,0,0,1.976,1.425A5.641,5.641,0,0,0-107.179,23.806Zm26.524,6.954A10.668,10.668,0,0,1-85.728,29.6,11.313,11.313,0,0,1-89.4,26.542a13.563,13.563,0,0,1-2.223-4.18,14.566,14.566,0,0,1-.741-4.522V7.2a8.922,8.922,0,0,1,.152-1.672,2.041,2.041,0,0,1,.874-1.311,4.428,4.428,0,0,1,2.47-.513,4.428,4.428,0,0,1,2.47.513,2.041,2.041,0,0,1,.874,1.311,9.137,9.137,0,0,1,.152,1.71v10.6a8.967,8.967,0,0,0,.418,2.622A5.207,5.207,0,0,0-83.486,22.8a4.17,4.17,0,0,0,2.945.969,4.278,4.278,0,0,0,2.508-.741,4.824,4.824,0,0,0,1.653-2.09,7.777,7.777,0,0,0,.589-3.135V7.01a7,7,0,0,1,.171-1.577A2.035,2.035,0,0,1-74.727,4.2,4.475,4.475,0,0,1-72.3,3.7a4.2,4.2,0,0,1,2.451.532,2.133,2.133,0,0,1,.855,1.33,8.922,8.922,0,0,1,.152,1.672V17.916a14.173,14.173,0,0,1-.76,4.541A13.479,13.479,0,0,1-71.858,26.6a11.345,11.345,0,0,1-3.705,3.021A10.929,10.929,0,0,1-80.655,30.76Zm17.024-.418a4.338,4.338,0,0,1-2.432-.513,2.048,2.048,0,0,1-.874-1.33,9.018,9.018,0,0,1-.152-1.653V7.2a3.7,3.7,0,0,1,.779-2.717,4.057,4.057,0,0,1,2.793-.741h13.908a8.623,8.623,0,0,1,1.653.152,2.034,2.034,0,0,1,1.292.874,4.428,4.428,0,0,1,.513,2.47,4.338,4.338,0,0,1-.513,2.432,2.041,2.041,0,0,1-1.311.874,8.922,8.922,0,0,1-1.672.152H-60.135v3.382h7.03a8.215,8.215,0,0,1,1.558.133,1.692,1.692,0,0,1,1.1.741,3.95,3.95,0,0,1,.418,2.128,3.869,3.869,0,0,1-.418,2.071,1.626,1.626,0,0,1-1.14.741,10.274,10.274,0,0,1-1.6.114h-6.954v3.382h10.526a8.623,8.623,0,0,1,1.653.152,2.034,2.034,0,0,1,1.292.874,4.428,4.428,0,0,1,.513,2.47,4.338,4.338,0,0,1-.513,2.432,2.041,2.041,0,0,1-1.311.874,8.922,8.922,0,0,1-1.672.152ZM-17.347,3.7a7.868,7.868,0,0,1,1.368.114A1.671,1.671,0,0,1-14.9,4.54a3.718,3.718,0,0,1,.437,2.09A3.73,3.73,0,0,1-14.9,8.7a1.662,1.662,0,0,1-1.1.741,8.2,8.2,0,0,1-1.387.114h-5.244v17.4a8.416,8.416,0,0,1-.152,1.615,1.984,1.984,0,0,1-.855,1.273,4.462,4.462,0,0,1-2.451.494,4.25,4.25,0,0,1-2.394-.513,1.959,1.959,0,0,1-.855-1.292,9.583,9.583,0,0,1-.133-1.615V9.556h-5.282A6.862,6.862,0,0,1-36.1,9.423a1.755,1.755,0,0,1-1.1-.741,3.718,3.718,0,0,1-.437-2.09A3.629,3.629,0,0,1-37.2,4.54a1.687,1.687,0,0,1,1.121-.722A8.308,8.308,0,0,1-34.713,3.7Zm7.486,26.6a4.338,4.338,0,0,1-2.432-.513,2.048,2.048,0,0,1-.874-1.33,9.018,9.018,0,0,1-.152-1.653V7.2a8.714,8.714,0,0,1,.152-1.634,2.041,2.041,0,0,1,.874-1.311,4.428,4.428,0,0,1,2.47-.513h7.638a9.415,9.415,0,0,1,3.116.589,10.416,10.416,0,0,1,3.154,1.8,9.626,9.626,0,0,1,2.432,3.04,9.263,9.263,0,0,1,.95,4.332,10.155,10.155,0,0,1-.513,3.268,8.753,8.753,0,0,1-1.52,2.755A10.561,10.561,0,0,1,3,21.7,12.088,12.088,0,0,1-.247,23.16H-6.365v3.686a8.714,8.714,0,0,1-.152,1.634,2.041,2.041,0,0,1-.874,1.311A4.428,4.428,0,0,1-9.861,30.3Zm15.922-.912q-1.71,1.292-2.7,1.045A4.33,4.33,0,0,1,1.235,28.67l-6.992-9.5,7.9-.988,4.712,6.346a6.583,6.583,0,0,1,.969,1.862,1.765,1.765,0,0,1-.209,1.444A6.364,6.364,0,0,1,6.061,29.392ZM-6.365,16.244h4.18a3.1,3.1,0,0,0,.817-.133,2.6,2.6,0,0,0,.893-.456,2.628,2.628,0,0,0,.7-.855,2.794,2.794,0,0,0,.285-1.33,2.7,2.7,0,0,0-.38-1.425,2.788,2.788,0,0,0-1.007-.988A2.73,2.73,0,0,0-2.261,10.7h-4.1Zm38.988,9.272a5.07,5.07,0,0,1,.608,1.938,1.923,1.923,0,0,1-.494,1.406,5.836,5.836,0,0,1-1.71,1.216,4.048,4.048,0,0,1-2.812.551q-.988-.323-1.862-2.185l-6.46-13.224L13.509,28.48a3.9,3.9,0,0,1-1.9,2.109,3.935,3.935,0,0,1-2.774-.551A5.662,5.662,0,0,1,7.106,28.86a1.888,1.888,0,0,1-.513-1.406A5.07,5.07,0,0,1,7.2,25.516l9.538-19.76a3.569,3.569,0,0,1,1.349-1.463,3.465,3.465,0,0,1,1.843-.551,3.258,3.258,0,0,1,1.273.247,3.7,3.7,0,0,1,1.083.7,3.521,3.521,0,0,1,.8,1.1Zm-18.734-.684L16.777,18.9h6.27l2.888,5.928Zm23.294,5.51a4.338,4.338,0,0,1-2.432-.513,2.048,2.048,0,0,1-.874-1.33,9.018,9.018,0,0,1-.152-1.653V7.2a8.714,8.714,0,0,1,.152-1.634,2.041,2.041,0,0,1,.874-1.311,4.428,4.428,0,0,1,2.47-.513,4.326,4.326,0,0,1,2.451.513,2.061,2.061,0,0,1,.855,1.311,8.923,8.923,0,0,1,.152,1.672V26.884a8.714,8.714,0,0,1-.152,1.634,2.041,2.041,0,0,1-.874,1.311A4.428,4.428,0,0,1,37.183,30.342Zm18.506.38a12.248,12.248,0,0,1-5.149-1.1,13.875,13.875,0,0,1-4.275-3.04,14.207,14.207,0,0,1-3.952-9.918,12.712,12.712,0,0,1,1.064-5.187,13.569,13.569,0,0,1,2.945-4.256,13.889,13.889,0,0,1,4.351-2.888,13.415,13.415,0,0,1,5.282-1.045,16.44,16.44,0,0,1,2.622.228,15.982,15.982,0,0,1,2.755.7,9.812,9.812,0,0,1,2.337,1.159,12.153,12.153,0,0,1,1.463,1.14,1.974,1.974,0,0,1,.665,1.52,2.523,2.523,0,0,1-.228.988,6.707,6.707,0,0,1-.646,1.14A5.519,5.519,0,0,1,63.479,11.7a2.513,2.513,0,0,1-1.368.475,1.973,1.973,0,0,1-.855-.209q-.437-.209-1.2-.665a5.054,5.054,0,0,0-.874-.4,12.037,12.037,0,0,0-1.539-.456,8.232,8.232,0,0,0-1.881-.209,6.429,6.429,0,0,0-6.5,6.5,6.749,6.749,0,0,0,.912,3.439,7.38,7.38,0,0,0,2.413,2.546,5.877,5.877,0,0,0,3.249.969q.684,0,1.349-.038A11.22,11.22,0,0,0,58.5,23.5a6.177,6.177,0,0,0,1.14-.3V19.93H56.829a6.035,6.035,0,0,1-1.292-.133,1.538,1.538,0,0,1-.988-.741,4.178,4.178,0,0,1-.38-2.09,3.856,3.856,0,0,1,.418-2.09,1.605,1.605,0,0,1,1.064-.722,7.421,7.421,0,0,1,1.292-.114h6.65a3.5,3.5,0,0,1,2.128.551,2.078,2.078,0,0,1,.741,1.235,8.381,8.381,0,0,1,.133,1.52v7.79a3.5,3.5,0,0,1-.912,2.185,7.573,7.573,0,0,1-2.47,1.919,10.782,10.782,0,0,1-2.128.817,18.225,18.225,0,0,1-2.527.494A22.84,22.84,0,0,1,55.689,30.722Zm36.936-5.206a5.07,5.07,0,0,1,.608,1.938,1.923,1.923,0,0,1-.494,1.406,5.836,5.836,0,0,1-1.71,1.216,4.048,4.048,0,0,1-2.812.551q-.988-.323-1.862-2.185L79.9,15.218,73.511,28.48a3.9,3.9,0,0,1-1.9,2.109,3.935,3.935,0,0,1-2.774-.551,5.662,5.662,0,0,1-1.729-1.178,1.888,1.888,0,0,1-.513-1.406,5.07,5.07,0,0,1,.608-1.938l9.538-19.76A3.569,3.569,0,0,1,78.09,4.293a3.465,3.465,0,0,1,1.843-.551,3.258,3.258,0,0,1,1.273.247,3.7,3.7,0,0,1,1.083.7,3.521,3.521,0,0,1,.8,1.1Zm-18.734-.684L76.779,18.9h6.27l2.888,5.928Zm29.07,5.89a11.889,11.889,0,0,1-3.933-.57A9.691,9.691,0,0,1,96.387,28.8a9.4,9.4,0,0,1-1.558-1.425q-.532-.646-.646-.8a4.441,4.441,0,0,1-.931-1.71,2.164,2.164,0,0,1,.228-1.52,6.884,6.884,0,0,1,1.349-1.672,3.047,3.047,0,0,1,1.71-.931,2.7,2.7,0,0,1,1.653.361,6,6,0,0,1,1.577,1.33,6.684,6.684,0,0,0,1.558,1.387,2.986,2.986,0,0,0,1.482.361,4.753,4.753,0,0,0,1.672-.247,1.806,1.806,0,0,0,.95-.76,2.542,2.542,0,0,0,.3-1.311,1.111,1.111,0,0,0-.646-1.007,7.1,7.1,0,0,0-1.691-.627q-1.045-.266-2.337-.589a17.182,17.182,0,0,1-2.546-.855,9.107,9.107,0,0,1-1.482-.76,8.935,8.935,0,0,1-1.349-1.045A5.766,5.766,0,0,1,94.6,15.579a7.239,7.239,0,0,1-.7-1.843,9.932,9.932,0,0,1-.247-2.318A7.558,7.558,0,0,1,94.81,7.276,8.2,8.2,0,0,1,98,4.388a9.807,9.807,0,0,1,4.617-1.064,14.516,14.516,0,0,1,3.192.3A10.241,10.241,0,0,1,108,4.35a7.419,7.419,0,0,1,1.311.779q.456.361.57.475a3.764,3.764,0,0,1,1.368,1.957,3.835,3.835,0,0,1-.912,2.337,3.952,3.952,0,0,1-2.242,1.843,3.6,3.6,0,0,1-2.546-.7,7.266,7.266,0,0,1-.608-.513,2.64,2.64,0,0,0-.817-.494,4.3,4.3,0,0,0-1.539-.209,2.288,2.288,0,0,0-.76.133,2.227,2.227,0,0,0-.646.342,1.712,1.712,0,0,0-.437.513,1.3,1.3,0,0,0-.171.646,1.432,1.432,0,0,0,.608,1.235,4.432,4.432,0,0,0,1.615.665q1.007.228,2.223.456a23.37,23.37,0,0,1,2.47.608,11.44,11.44,0,0,1,1.976.874,6.194,6.194,0,0,1,1.672,1.368,6.392,6.392,0,0,1,1.159,2.071,9.118,9.118,0,0,1,.437,3.021,8.608,8.608,0,0,1-.95,4.2,8.018,8.018,0,0,1-2.451,2.774,10.554,10.554,0,0,1-3.192,1.52A11.762,11.762,0,0,1,102.961,30.722Z" transform="translate(186.784 188.562)" fill="#1cb0ca"/>
      </g>
      <circle id="Elipse_43" data-name="Elipse 43" cx="3" cy="3" r="3" transform="translate(32 12)" fill="#fff"/>
      <circle id="Elipse_44" data-name="Elipse 44" cx="3" cy="3" r="3" transform="translate(41 41)" fill="#fff"/>
    </g>
  </g>
</svg>
