<svg xmlns="http://www.w3.org/2000/svg" width="16.957" height="14.846" viewBox="0 0 16.957 14.846">
  <g id="noun-reload-4781150" transform="translate(-69.682 -35.672)">
    <path id="Trazado_111805" data-name="Trazado 111805" d="M86.041,46.721l-2.252.605a.39.39,0,0,1-.1.014.381.381,0,0,1-.375-.306l-.459-2.288a.383.383,0,1,1,.75-.151l.263,1.309a6.352,6.352,0,0,0-9.337-8.014.383.383,0,0,1-.44-.626,7.119,7.119,0,0,1,10.417,9.077l1.335-.358a.382.382,0,1,1,.2.738ZM81.811,48.3a6.351,6.351,0,0,1-9.388-7.906l.162,1.2a.383.383,0,0,0,.378.332c.017,0,.034,0,.052,0a.383.383,0,0,0,.329-.43l-.311-2.31a.377.377,0,0,0-.156-.26.382.382,0,0,0-.3-.064l-2.286.456a.383.383,0,0,0,.15.752l1.429-.287A7.115,7.115,0,0,0,82.25,48.927a.383.383,0,0,0-.439-.628Z" transform="translate(0)" fill="#fcfcfc" stroke="#fff" stroke-width="0.6"/>
  </g>
</svg>
